<svg xml:space="preserve" style="enable-background:new 0 0 240 240;" viewBox="0 0 240 240" y="0px" x="0px" xmlns:xlink="http://www.w3.org/1999/xlink" xmlns="http://www.w3.org/2000/svg" id="Layer_1" version="1.1">
<g>
	<rect height="240" width="240" style="fill:#A65133;"></rect>
	<polygon points="240,0 235.77,4.24 4.25,4.24 4.25,235.76 0,240 0,0" style="fill:#BD6347;"></polygon>
	<polygon points="240,0 240,240 0,240 4.25,235.76 235.77,235.76 235.77,4.24" style="fill:#8E391E;"></polygon>
</g>
<g>
	<path d="M69.72,78.67c-7.26,3.36-60.27,4.05-65.47,4.12v-7.63L69.72,78.67z" style="fill:#9C4429;"></path>
	<path d="M90.95,115.73c0,0,50.59-10.59,91.17,1.18C182.12,116.91,133.3,119.85,90.95,115.73z" style="fill:#9C4429;"></path>
	<path d="M145.66,124.56c0,0,37.05-4.12,59.41,1.17c22.35,5.29,2.94,1.18,2.94,1.18   S156.83,125.74,145.66,124.56z" style="fill:#9C4429;"></path>
	<path d="M43.3,161.03c0,0,41.76-10.59,74.12-1.18C117.42,159.85,64.48,161.62,43.3,161.03z" style="fill:#9C4429;"></path>
	<polygon points="182.71,28.68 227.42,23.38 233.89,28.08" style="fill:#9C4429;"></polygon>
	<path d="M235.77,202.78v5.3l-76.42-4.11C159.35,203.97,217.48,198.68,235.77,202.78z" style="fill:#9C4429;"></path>
	<path d="M26.24,176.91c0,0,30.59-4.12,48.24-0.59C74.48,176.32,37.42,176.91,26.24,176.91z" style="fill:#9C4429;"></path>
	<polygon points="106.83,36.91 119.77,41.03 171.53,37.5" style="fill:#9C4429;"></polygon>
</g>
</svg>