<svg xmlns="http://www.w3.org/2000/svg" xmlns:xlink="http://www.w3.org/1999/xlink" xml:space="preserve" viewBox="0 0 133 224">
                    <g data-paper-data="{&quot;selected&quot;:false}" fill="none" fill-rule="none" stroke="none" stroke-width="1" stroke-linecap="butt" stroke-linejoin="miter" stroke-miterlimit="10" stroke-dasharray="" stroke-dashoffset="0" font-family="none" font-weight="none" font-size="none" text-anchor="none" style="mix-blend-mode: normal"><path d="M58.77976,151.63v33.46c-0.28,0.08 -2.68,0.62 -5.79,0.62c-3.3,0 -5.79,-0.62 -5.79,-0.62v-33.46c0,-2.2 1.81,-4.01 4.01,-4.01c2.2,0 7.57,1.81 7.57,4.01z" data-paper-data="{&quot;guideItem&quot;:null,&quot;selected&quot;:false}" fill="#ffffff" fill-rule="nonzero"></path><path d="M58.80976,185.09v30.32c0,2 -2.77,3.67 -5.03,4.09v0.08h-10.62c-3.95,0 -8.75,0.56 -11.69,-2.8c-2,-2.32 -1.44,-6.89 -0.17,-9.4c2.34,-4.63 6.78,-8.05 11.86,-9.15c0,0 0.23,-0.06 0.28,-0.06c1.44,-0.28 2.65,-0.37 3.76,-0.34v-12.76c0,0 2.48,0.62 5.79,0.62c3.11,0 5.51,-0.54 5.79,-0.62c0.03,0.02 0.03,0.02 0.03,0.02z" data-paper-data="{&quot;guideItem&quot;:null,&quot;selected&quot;:false}" fill="#009ff9" fill-rule="evenodd"></path><path d="M51.20976,147.64c2.21,0 7.58,1.79 7.58,4v29.62v0v34.15c0,2.01 -2.76,3.69 -5.01,4.1v0.1h-0.99h-2.89h-2.71h-4.05c-0.98,0 -2.01,0.03 -3.04,0.03c-3.16,0 -6.42,-0.31 -8.63,-2.85c-2.01,-2.3 -1.45,-6.9 -0.17,-9.41c2.35,-4.63 6.77,-8.04 11.85,-9.14c0,0 0.23,-0.05 0.28,-0.06c1.34,-0.26 2.48,-0.34 3.52,-0.34c0.08,0 0.17,0 0.25,0v-12.75v-3.84v-29.62c0.01,-2.2 1.8,-3.99 4.01,-3.99M51.20976,144.25c-4.07,0 -7.39,3.31 -7.39,7.39v29.62v3.84v9.59c-0.34,0.05 -0.68,0.11 -1.03,0.18l-0.39,0.09c-6.01,1.3 -11.3,5.38 -14.11,10.91c-1.66,3.26 -2.56,9.51 0.64,13.17c3.08,3.53 7.38,4.01 11.19,4.01c0.55,0 1.09,-0.01 1.62,-0.02c0.48,-0.01 0.96,-0.02 1.42,-0.02h4.05h2.71h2.89h0.99c0.55,0 1.07,-0.13 1.54,-0.37c3.48,-0.95 6.86,-3.64 6.86,-7.22v-34.15v-29.62c-0.02,-5.55 -8.67,-7.4 -10.99,-7.4z" fill="#000000" fill-rule="nonzero"></path></g><g data-paper-data="{&quot;selected&quot;:false}" fill="none" fill-rule="nonzero" stroke="none" stroke-width="1" stroke-linecap="butt" stroke-linejoin="miter" stroke-miterlimit="10" stroke-dasharray="" stroke-dashoffset="0" font-family="none" font-weight="none" font-size="none" text-anchor="none" style="mix-blend-mode: normal"><path d="M124.15976,113.22c-2.29,2.32 -6.75,5.03 -10.96,4.77c-0.96,-2.65 -2.15,-5.22 -3.59,-7.68c-1.52,-2.57 -14.32,-16.86 -6.41,-18.44c2.12,-0.42 4.52,1.64 6.1,2.77c7.04,5.03 11.84,11.41 14.86,18.58z" data-paper-data="{&quot;guideItem&quot;:null,&quot;selected&quot;:false}" fill="#ffffff"></path><path d="M126.35976,144.99c-0.79,1.07 -2.23,1.86 -3.7,2.34c-0.68,0.23 -1.36,0.37 -1.98,0.45c-0.34,0.03 -0.68,0.06 -0.99,0.06c-1.04,0 -1.86,-0.2 -2.54,-0.59c-0.34,-0.2 -0.62,-0.42 -0.88,-0.68c-0.42,-0.4 -0.71,-0.85 -0.93,-1.38c-0.06,-0.17 -0.14,-0.34 -0.2,-0.54c-0.56,-1.58 -0.59,-3.5 -0.45,-5.25c0.42,-5.48 1.19,-10.16 -0.11,-15.59c-0.08,-0.34 -0.37,-2.03 -0.71,-3.67c-0.2,-0.73 -0.45,-1.44 -0.68,-2.15c4.21,0.25 8.67,-2.46 10.96,-4.77l0.23,0.25c0.17,0.34 0.42,0.96 0.68,1.69c0.14,0.37 0.28,0.76 0.4,1.16c0.11,0.4 0.25,0.79 0.37,1.19c0.06,0.2 0.11,0.37 0.17,0.56c0.11,0.34 0.2,0.68 0.28,0.96c0.14,0.42 0.23,0.71 0.25,0.82c0.76,2.68 1.3,5.42 1.67,8.19c0.7,5.34 1.75,12.09 -1.84,16.95z" data-paper-data="{&quot;guideItem&quot;:null,&quot;selected&quot;:false}" fill="#0088c5"></path><path d="M113.87976,120.14c-0.23,-0.73 -0.45,-1.44 -0.71,-2.15h0.03c0.23,0.71 0.48,1.41 0.68,2.15z" data-paper-data="{&quot;guideItem&quot;:null,&quot;selected&quot;:false}" fill="#0088c5"></path><path d="M131.63976,128.21l-0.08,-0.59c-0.4,-2.99 -0.99,-5.9 -1.75,-8.67c-1.1,-3.87 -1.81,-6.35 -2.85,-7.76c-3.47,-7.88 -8.75,-14.37 -15.67,-19.31l-0.59,-0.42c-1.72,-1.27 -4.09,-3.02 -6.89,-3.02c-0.42,0 -0.85,0.06 -1.24,0.11c-3.22,0.65 -4.43,2.68 -4.88,3.84c-1.78,4.72 2.54,11.04 7.54,17.62c0.62,0.82 1.3,1.75 1.5,2.03c1.58,2.68 2.88,5.7 3.87,8.95c0.2,0.93 0.37,1.84 0.48,2.51c0.11,0.54 0.2,0.93 0.23,1.1c0.96,3.98 0.65,7.6 0.28,11.8c-0.08,0.9 -0.17,1.81 -0.23,2.74c-0.34,4.4 0.45,7.57 2.37,9.66c1.02,1.1 2.91,2.43 5.99,2.43c0.45,0 0.9,-0.03 1.38,-0.08c0.85,-0.08 1.75,-0.31 2.63,-0.59c1.36,-0.42 3.84,-1.47 5.36,-3.53c4.24,-5.8 3.26,-13.31 2.55,-18.82zM126.35976,144.99c-0.79,1.07 -2.23,1.86 -3.7,2.34c-0.68,0.23 -1.36,0.37 -1.98,0.45c-0.34,0.03 -0.68,0.06 -0.99,0.06c-1.04,0 -1.86,-0.2 -2.54,-0.59c-0.34,-0.17 -0.65,-0.42 -0.88,-0.68c-0.42,-0.4 -0.71,-0.85 -0.93,-1.38c-0.08,-0.17 -0.17,-0.34 -0.2,-0.54c-0.56,-1.58 -0.59,-3.5 -0.45,-5.25c0.42,-5.48 1.19,-10.16 -0.11,-15.59c-0.08,-0.34 -0.37,-2.03 -0.71,-3.67c-0.23,-0.73 -0.45,-1.44 -0.71,-2.15c-0.93,-2.65 -2.12,-5.22 -3.56,-7.68c-1.52,-2.57 -14.32,-16.86 -6.41,-18.44c0.2,-0.03 0.4,-0.06 0.59,-0.06c1.98,0 4.09,1.81 5.51,2.82c7.03,5 11.8,11.41 14.82,18.58c0.03,0 0.03,0 0.03,0l0.23,0.25c0.2,0.34 0.45,0.96 0.68,1.69c0.14,0.37 0.28,0.76 0.4,1.16c0.11,0.4 0.25,0.79 0.37,1.19c0.06,0.2 0.11,0.37 0.17,0.56c0.11,0.34 0.2,0.68 0.28,0.96c0.14,0.42 0.23,0.71 0.25,0.82c0.76,2.68 1.3,5.42 1.67,8.19c0.71,5.35 1.76,12.1 -1.83,16.96z" fill="#000000"></path></g><g data-paper-data="{&quot;selected&quot;:false}" fill="none" fill-rule="nonzero" stroke="none" stroke-width="1" stroke-linecap="butt" stroke-linejoin="miter" stroke-miterlimit="10" stroke-dasharray="" stroke-dashoffset="0" font-family="none" font-weight="none" font-size="none" text-anchor="none" style="mix-blend-mode: normal"><path d="M26.31976,99.47c0.14,0 0.28,0.01 0.42,0.03c7.99,1.16 -4.03,16.1 -5.41,18.75c-1.16,2.22 -2.1,4.53 -2.86,6.89c-0.05,0.14 -0.08,0.28 -0.12,0.43c-0.29,0.95 -0.56,1.9 -0.79,2.87c-0.09,0.39 -0.17,0.77 -0.26,1.16c-0.12,0.54 -0.22,1.08 -0.32,1.62c-0.91,5.29 -0.78,10.58 0.42,16.13c0.89,4.13 1.09,8.93 -4.5,8.93c-0.21,0 -0.42,-0.01 -0.65,-0.02c-0.62,-0.04 -1.3,-0.15 -1.98,-0.34c-1.49,-0.4 -2.98,-1.13 -3.82,-2.14c-3.85,-4.67 -3.15,-11.47 -2.74,-16.82c0.22,-2.78 0.61,-5.54 1.23,-8.26c0.14,-0.61 1.52,-6.77 2.01,-6.77v0c0.02,0 0.05,0.01 0.08,0.01c2.62,-7.31 7.02,-13.97 13.77,-19.35c1.41,-1.13 3.5,-3.12 5.52,-3.12M26.31976,96.08c-2.96,0 -5.43,2.04 -7.06,3.39l-0.56,0.46c-6.61,5.27 -11.5,11.99 -14.53,19.98c-1.05,1.46 -1.65,4.09 -2.53,8.04c-0.63,2.79 -1.06,5.73 -1.3,8.74l-0.05,0.61c-0.43,5.52 -1.03,13.08 3.55,18.63c1.63,1.97 4.18,2.89 5.55,3.26c0.89,0.24 1.81,0.39 2.66,0.44c0.3,0.02 0.58,0.03 0.85,0.03c3.59,0 5.57,-1.51 6.59,-2.78c2.43,-3 1.86,-7.29 1.22,-10.25c-1.1,-5.1 -1.23,-9.96 -0.39,-14.84c0.09,-0.47 0.18,-0.97 0.29,-1.47c0.08,-0.38 0.16,-0.73 0.24,-1.09c0.21,-0.89 0.46,-1.78 0.73,-2.66l0.09,-0.3c0.74,-2.33 1.63,-4.46 2.66,-6.45c0.16,-0.3 0.81,-1.26 1.38,-2.11c4.63,-6.85 8.62,-13.37 6.58,-17.99c-0.5,-1.13 -1.82,-3.1 -5.07,-3.57c-0.3,-0.05 -0.6,-0.07 -0.9,-0.07z" fill="#000000"></path><path d="M21.31976,118.25c-1.16,2.2 -2.09,4.46 -2.82,6.8c-4.15,-2.03 -8.36,-2.88 -11.49,-3.13c2.63,-7.31 7.06,-13.95 13.81,-19.34c1.5,-1.19 3.78,-3.39 5.93,-3.08c7.96,1.16 -4.04,16.09 -5.43,18.75z" data-paper-data="{&quot;guideItem&quot;:null,&quot;selected&quot;:false}" fill="#ffffff"></path><path d="M17.39976,147.33c0.93,4.29 1.1,9.29 -5.14,8.92c-0.62,-0.03 -1.3,-0.14 -1.98,-0.34c-1.5,-0.4 -2.99,-1.13 -3.84,-2.15c-3.84,-4.66 -3.13,-11.46 -2.74,-16.83c0.23,-2.77 0.62,-5.53 1.24,-8.24c0.14,-0.62 1.52,-6.78 2,-6.78c0.03,0 0.03,0 0.06,0c3.13,0.25 7.34,1.1 11.49,3.13c-0.59,1.81 -1.04,3.61 -1.38,5.39c-1.07,5.58 -0.98,11.08 0.29,16.9z" data-paper-data="{&quot;guideItem&quot;:null,&quot;selected&quot;:false}" fill="#0088c5"></path></g><g data-paper-data="{&quot;selected&quot;:false}" fill="none" fill-rule="nonzero" stroke="none" stroke-width="1" stroke-linecap="butt" stroke-linejoin="miter" stroke-miterlimit="10" stroke-dasharray="" stroke-dashoffset="0" font-family="none" font-weight="none" font-size="none" text-anchor="none" style="mix-blend-mode: normal"><path d="M44.78976,4.05c1.5,0.44 3.01,1.09 4.55,1.95c1.27,0.7 2.46,1.6 3.58,2.53c3.59,2.98 8.21,12.37 3.27,16.13c-3.57,2.72 -6.87,-4.07 -8.88,-6.03c-4.49,-4.4 -10.91,0.44 -14.39,4.07c-2.8,2.94 -7.43,3.05 -10.36,0.24c-2.93,-2.81 -3.06,-7.46 -0.29,-10.42c3.44,-3.67 7.66,-6.8 12.52,-8.28c3.62,-1.09 6.81,-1.12 10,-0.19z" data-paper-data="{&quot;guideItem&quot;:null,&quot;selected&quot;:false}" fill="#ffffff"></path><path d="M34.00976,17.84c-0.57,-0.16 -1.14,-0.07 -1.67,0.1c0.64,-0.38 1.14,-1 1.34,-1.79c0.41,-1.58 -0.54,-3.19 -2.1,-3.61c-0.73,-0.19 -1.46,-0.06 -2.08,0.26c0.55,-0.39 0.99,-0.94 1.17,-1.64c0.41,-1.58 -0.53,-3.2 -2.1,-3.61c-0.14,-0.04 -0.28,-0.02 -0.43,-0.03c-3.2,2.25 -5.37,4.48 -5.86,5c-2.77,2.96 -2.63,7.61 0.3,10.42c2.92,2.81 7.56,2.7 10.36,-0.24c0.82,-0.86 1.94,-1.83 3.15,-2.72c-0.27,-1.01 -1.01,-1.87 -2.08,-2.14" data-paper-data="{&quot;guideItem&quot;:null,&quot;selected&quot;:false}" fill="#673101"></path><path d="M40.22976,3.39c1.55,0 3.06,0.23 4.56,0.66c1.5,0.44 3.01,1.09 4.55,1.95c1.27,0.7 2.46,1.6 3.58,2.53c3.59,2.98 8.21,12.37 3.27,16.13c-0.58,0.44 -1.16,0.63 -1.72,0.63c-2.89,0 -5.48,-5.02 -7.16,-6.66c-1.27,-1.25 -2.7,-1.75 -4.17,-1.75c-2.41,0 -4.94,1.35 -7.1,3.02c0.01,0.03 0.03,0.06 0.04,0.09c-1.2,0.88 -2.31,1.84 -3.13,2.7c-0.01,0.01 -0.01,0.01 -0.02,0.02c-1.44,1.52 -3.37,2.28 -5.3,2.28c-1.82,0 -3.64,-0.68 -5.06,-2.04c-1.83,-1.76 -2.57,-4.23 -2.19,-6.56c0.23,-1.4 0.86,-2.75 1.9,-3.86c0.24,-0.25 0.89,-0.92 1.87,-1.81c3.07,-2.86 6.62,-5.25 10.65,-6.47c1.9,-0.58 3.69,-0.86 5.43,-0.86M40.22976,0c-2.09,0 -4.18,0.33 -6.42,1.01c-4.15,1.26 -8.18,3.69 -11.98,7.24c-0.96,0.87 -1.67,1.59 -2.01,1.94c-1.49,1.59 -2.44,3.53 -2.79,5.65c-0.57,3.51 0.62,7.09 3.19,9.55c2,1.92 4.63,2.98 7.4,2.98c2.92,0 5.74,-1.22 7.76,-3.33c0.71,-0.74 1.67,-1.56 2.7,-2.32c0.23,-0.17 0.43,-0.36 0.6,-0.56c1.71,-1.22 3.28,-1.89 4.46,-1.89c0.69,0 1.25,0.24 1.8,0.78c0.29,0.28 0.82,1 1.29,1.63c1.88,2.54 4.47,6.01 8.24,6.01c1.33,0 2.63,-0.46 3.77,-1.33c2.21,-1.69 3.42,-4.19 3.49,-7.24c0.11,-5.26 -3.36,-11.47 -6.64,-14.19c-1.52,-1.26 -2.82,-2.18 -4.1,-2.89c-1.81,-1 -3.53,-1.73 -5.25,-2.23c-1.85,-0.55 -3.65,-0.81 -5.51,-0.81z" fill="#000000"></path></g><g data-paper-data="{&quot;selected&quot;:false}" fill="none" fill-rule="nonzero" stroke="none" stroke-width="1" stroke-linecap="butt" stroke-linejoin="miter" stroke-miterlimit="10" stroke-dasharray="" stroke-dashoffset="0" font-family="none" font-weight="none" font-size="none" text-anchor="none" style="mix-blend-mode: normal"><path d="M88.27976,4.05c-1.5,0.44 -3.01,1.09 -4.55,1.95c-1.27,0.7 -2.46,1.6 -3.58,2.53c-3.59,2.98 -8.21,12.37 -3.27,16.13c3.57,2.72 6.87,-4.07 8.88,-6.03c4.49,-4.4 10.91,0.44 14.39,4.07c2.8,2.94 7.43,3.05 10.36,0.24c2.93,-2.81 3.06,-7.46 0.29,-10.42c-3.44,-3.67 -7.66,-6.8 -12.52,-8.28c-3.62,-1.09 -6.81,-1.12 -10,-0.19z" data-paper-data="{&quot;guideItem&quot;:null,&quot;selected&quot;:false}" fill="#ffffff"></path><path d="M99.06976,17.84c0.57,-0.16 1.14,-0.07 1.67,0.1c-0.64,-0.38 -1.14,-1 -1.34,-1.79c-0.41,-1.58 0.54,-3.19 2.1,-3.61c0.73,-0.19 1.46,-0.06 2.08,0.26c-0.55,-0.39 -0.99,-0.94 -1.17,-1.64c-0.41,-1.58 0.53,-3.2 2.1,-3.61c0.14,-0.04 0.28,-0.02 0.43,-0.03c3.2,2.25 5.37,4.48 5.86,5c2.77,2.96 2.63,7.61 -0.3,10.42c-2.92,2.81 -7.56,2.7 -10.36,-0.24c-0.82,-0.86 -1.94,-1.83 -3.15,-2.72c0.26,-1.01 1,-1.87 2.08,-2.14" data-paper-data="{&quot;guideItem&quot;:null,&quot;selected&quot;:false}" fill="#673101"></path><path d="M92.83976,3.39c1.73,0 3.53,0.28 5.43,0.86c4.03,1.22 7.58,3.61 10.65,6.47c0.97,0.88 1.63,1.55 1.87,1.81c1.04,1.11 1.67,2.46 1.9,3.86c0.38,2.33 -0.36,4.81 -2.19,6.56c-1.42,1.36 -3.24,2.04 -5.06,2.04c-1.93,0 -3.86,-0.76 -5.3,-2.28c-0.01,-0.01 -0.01,-0.01 -0.02,-0.02c-0.82,-0.86 -1.93,-1.81 -3.13,-2.7c0.01,-0.03 0.03,-0.06 0.04,-0.09c-2.16,-1.66 -4.69,-3.02 -7.1,-3.02c-1.47,0 -2.9,0.51 -4.17,1.75c-1.68,1.64 -4.26,6.66 -7.16,6.66c-0.56,0 -1.14,-0.19 -1.72,-0.63c-4.94,-3.76 -0.32,-13.15 3.27,-16.13c1.12,-0.93 2.31,-1.83 3.58,-2.53c1.55,-0.85 3.05,-1.51 4.55,-1.95c1.51,-0.44 3.01,-0.66 4.56,-0.66M92.83976,0c-1.86,0 -3.67,0.26 -5.51,0.8c-1.72,0.5 -3.43,1.23 -5.25,2.23c-1.28,0.71 -2.59,1.63 -4.11,2.89c-3.28,2.73 -6.75,8.93 -6.64,14.19c0.07,3.05 1.27,5.55 3.48,7.24c1.14,0.87 2.44,1.33 3.77,1.33c3.78,0 6.36,-3.47 8.24,-6.01c0.47,-0.63 1,-1.34 1.29,-1.63c0.55,-0.54 1.11,-0.78 1.8,-0.78c1.18,0 2.74,0.67 4.46,1.89c0.17,0.21 0.37,0.4 0.6,0.56c1.04,0.76 1.99,1.58 2.69,2.32c2.02,2.13 4.85,3.34 7.77,3.34c2.77,0 5.4,-1.06 7.4,-2.99c2.57,-2.46 3.76,-6.04 3.18,-9.55c-0.34,-2.11 -1.3,-4.06 -2.77,-5.63c-0.36,-0.37 -1.07,-1.1 -2.07,-2c-3.76,-3.51 -7.79,-5.94 -11.94,-7.2c-2.2,-0.67 -4.3,-1 -6.39,-1z" fill="#000000"></path></g><g data-paper-data="{&quot;selected&quot;:false}" fill="none" fill-rule="none" stroke="none" stroke-width="1" stroke-linecap="butt" stroke-linejoin="miter" stroke-miterlimit="10" stroke-dasharray="" stroke-dashoffset="0" font-family="none" font-weight="none" font-size="none" text-anchor="none" style="mix-blend-mode: normal"><g><path d="M114.32976,127.85c0.45,8.44 -1.64,20.84 -7.26,28.09c-6.64,8.58 -18.75,14.17 -33.2,15.33c-1.72,0.14 -3.61,0.23 -5.42,0.23h-3.84c-1.81,0 -3.7,-0.08 -5.42,-0.23c-14.46,-1.16 -26.57,-6.75 -33.2,-15.33c-5.62,-7.26 -7.71,-19.65 -7.26,-28.09c0.25,-4.72 1.3,-9.49 2.29,-14.12c0.54,-2.37 1.04,-4.72 1.47,-7.09c0.45,-2.65 0.17,-7.57 0.14,-7.82c-0.34,-3.67 -1.41,-7.12 -2.46,-10c-4.07,-11.35 -4.74,-21.97 -2.15,-33.4c2.32,-10.33 7.23,-19.09 13.44,-24.06c10.34,-8.24 22.34,-12.95 32.95,-12.95h0.08l2.03,-0.03l2.04,0.03h0.08c10.62,0 22.64,4.72 32.98,12.96c6.18,4.97 11.1,13.72 13.44,24.06c2.57,11.44 1.89,22.05 -2.17,33.4c-1.02,2.88 -2.12,6.32 -2.46,10.05c-0.03,0.2 -0.31,5.11 0.17,7.76c0.42,2.37 0.93,4.74 1.44,7.12c1.02,4.6 2.07,9.37 2.29,14.09z" data-paper-data="{&quot;guideItem&quot;:null,&quot;selected&quot;:false}" fill="#009ff9" fill-rule="evenodd"></path><path d="M72.62976,24.22c4.56,0.6 9.03,1.82 13.1,3.55c6.64,2.82 14.39,7.36 17.97,13.73c1.58,2.82 2.66,5.9 3.28,9.06c0.47,2.39 -0.12,5.75 1.32,7.8c2.91,4.17 3.58,6.51 4.38,11.71c0.75,4.89 0.33,10.11 -1.74,14.64c-5.38,11.79 -18.42,16.77 -30.34,17.15c-1.65,0.05 -3.33,0.1 -5,0.15c-7.75,0.24 -15.38,0.1 -23.13,-0.15c-11.93,-0.38 -24.96,-5.35 -30.34,-17.15c-2.07,-4.53 -2.49,-9.75 -1.74,-14.64c0.8,-5.19 1.47,-7.54 4.38,-11.71c1.44,-2.05 0.85,-5.41 1.32,-7.8c0.62,-3.17 1.69,-6.25 3.28,-9.06c3.58,-6.37 9.53,-10.9 16.18,-13.73c2.69,-1.14 5.49,-2.02 8.34,-2.68c5.58,-1.29 13.06,-1.61 18.74,-0.87z" data-paper-data="{&quot;guideItem&quot;:null,&quot;selected&quot;:false}" fill="#ffffff" fill-rule="evenodd"></path><path d="M115.34976,113.02c-0.51,-2.32 -1.02,-4.63 -1.41,-6.97c-0.34,-1.86 -0.2,-5.65 -0.11,-6.92c0.28,-3.3 1.3,-6.49 2.26,-9.15c4.24,-11.83 4.97,-23.38 2.29,-35.29c-2.51,-11.07 -7.85,-20.53 -14.63,-25.95c-10.93,-8.72 -23.72,-13.72 -35.07,-13.72h-0.11l-2.03,-0.03l-2.03,0.03h-0.08c-11.38,0 -24.14,5 -35.07,13.72c-6.8,5.42 -12.14,14.88 -14.63,25.95c-2.71,11.92 -1.98,23.46 2.26,35.29c0.96,2.65 1.98,5.84 2.29,9.09c0.08,1.33 0.2,5.11 -0.11,6.97c-0.42,2.32 -0.93,4.63 -1.44,6.97c-1.02,4.74 -2.09,9.66 -2.37,14.65c-0.48,9.35 1.78,22.36 7.96,30.32c7.23,9.35 20.22,15.39 35.63,16.66c1.81,0.14 3.78,0.23 5.68,0.23h3.84c1.92,0 3.9,-0.08 5.7,-0.23c15.42,-1.27 28.38,-7.31 35.6,-16.63c6.18,-7.99 8.44,-21.01 7.96,-30.35c-0.26,-4.98 -1.34,-9.89 -2.38,-14.64zM68.44976,171.5h-3.84c-1.81,0 -3.7,-0.08 -5.42,-0.23c-14.46,-1.16 -26.57,-6.75 -33.2,-15.33c-5.62,-7.26 -7.71,-19.65 -7.26,-28.09c0.25,-4.72 1.3,-9.49 2.29,-14.12c0.54,-2.37 1.04,-4.72 1.47,-7.09c0.45,-2.65 0.17,-7.57 0.14,-7.82c-0.34,-3.67 -1.41,-7.12 -2.46,-10c-4.07,-11.35 -4.74,-21.97 -2.15,-33.4c2.32,-10.33 7.23,-19.09 13.44,-24.06c10.34,-8.24 22.34,-12.95 32.95,-12.95h0.08l2.03,-0.03l2.04,0.03h0.08c10.62,0 22.64,4.72 32.98,12.96c6.18,4.97 11.1,13.72 13.44,24.06c2.57,11.44 1.89,22.05 -2.17,33.4c-1.02,2.88 -2.12,6.32 -2.46,10.05c-0.03,0.2 -0.31,5.11 0.17,7.76c0.42,2.37 0.93,4.74 1.44,7.12c1.02,4.6 2.06,9.37 2.29,14.09c0.45,8.44 -1.64,20.84 -7.26,28.09c-6.64,8.58 -18.75,14.17 -33.2,15.33c-1.72,0.14 -3.61,0.23 -5.42,0.23z" fill="#000000" fill-rule="nonzero"></path></g><g fill="#fdbdb8" fill-rule="evenodd"><path d="M48.50976,71.9c0,6.95 -5.59,12.58 -12.49,12.58c-6.9,0 -12.48,-5.63 -12.48,-12.58c0,-6.94 5.59,-12.57 12.48,-12.57c6.89,0 12.49,5.63 12.49,12.57" data-paper-data="{&quot;guideItem&quot;:null,&quot;selected&quot;:false}"></path><path d="M109.52976,71.9c0,6.95 -5.59,12.58 -12.49,12.58c-6.89,0 -12.48,-5.63 -12.48,-12.58c0,-6.94 5.59,-12.57 12.48,-12.57c6.9,0 12.49,5.63 12.49,12.57" data-paper-data="{&quot;guideItem&quot;:null,&quot;selected&quot;:false}"></path></g></g><g data-paper-data="{&quot;selected&quot;:false}" fill="none" fill-rule="none" stroke="none" stroke-width="1" stroke-linecap="butt" stroke-linejoin="miter" stroke-miterlimit="10" stroke-dasharray="" stroke-dashoffset="0" font-family="none" font-weight="none" font-size="none" text-anchor="none" style="mix-blend-mode: normal"><path d="M68.68976,67.86c0,0.91 -0.96,1.64 -2.15,1.64c-1.19,0 -2.16,-0.73 -2.16,-1.64c0,-0.9 0.96,-1.64 2.16,-1.64c1.2,0 2.15,0.74 2.15,1.64" data-paper-data="{&quot;guideItem&quot;:null,&quot;selected&quot;:false}" fill="#000000" fill-rule="evenodd"></path><g fill="#000000" fill-rule="evenodd"><path d="M78.91976,65.91v0c-1.61,0 -2.92,-1.22 -2.92,-2.72v-0.38c0,-1.5 1.31,-2.72 2.92,-2.72c1.61,0 2.93,1.22 2.93,2.72v0.38c-0.01,1.5 -1.32,2.72 -2.93,2.72" data-paper-data="{&quot;guideItem&quot;:null,&quot;selected&quot;:false}"></path><path d="M54.14976,65.91v0c-1.61,0 -2.92,-1.22 -2.92,-2.72v-0.38c0,-1.5 1.31,-2.72 2.92,-2.72c1.61,0 2.93,1.22 2.93,2.72v0.38c0,1.5 -1.31,2.72 -2.93,2.72" data-paper-data="{&quot;guideItem&quot;:null,&quot;selected&quot;:false}"></path></g><path d="M74.00976,78.28c-2.73,0 -5.44,-0.81 -7.47,-2.14c-3.75,2.46 -9.83,3.14 -14.03,0.22c-1.23,-0.85 -2.72,-2.19 -2.88,-3.73c-0.08,-0.75 0.17,-1.46 0.69,-2.01c0.64,-0.68 1.72,-0.7 2.39,-0.06c0.51,0.49 0.65,1.22 0.41,1.84c0.23,0.29 0.7,0.74 1.32,1.17c3.21,2.23 8.45,1.4 10.99,-0.83c0.64,-0.56 1.59,-0.56 2.23,0c2.54,2.23 7.77,3.06 10.99,0.83c0.62,-0.43 1.09,-0.88 1.32,-1.17c-0.24,-0.62 -0.1,-1.35 0.41,-1.84c0.68,-0.64 1.75,-0.62 2.39,0.06c0.52,0.55 0.77,1.26 0.69,2.01c-0.16,1.54 -1.66,2.88 -2.88,3.73c-1.94,1.34 -4.26,1.92 -6.57,1.92zM80.30976,72.97h0.03z" fill="#231815" fill-rule="nonzero"></path></g><g data-paper-data="{&quot;selected&quot;:false}" fill="none" fill-rule="none" stroke="none" stroke-width="1" stroke-linecap="butt" stroke-linejoin="miter" stroke-miterlimit="10" stroke-dasharray="" stroke-dashoffset="0" font-family="none" font-weight="none" font-size="none" text-anchor="none" style="mix-blend-mode: normal"><path d="M84.84976,172.11v5.93c0,0 -2.57,-1.92 -5.87,-1.92c-3.3,0 -5.7,1.92 -5.7,1.92v-5.93c0,-2.23 2.54,-4.01 4.74,-4.01c2.2,0 6.83,1.78 6.83,4.01z" data-paper-data="{&quot;guideItem&quot;:null,&quot;selected&quot;:false}" fill="#ffffff" fill-rule="nonzero"></path><path d="M100.57976,211.67c-2.94,3.39 -7.74,2.82 -11.69,2.82h-10.62v-0.11c-2.26,-0.4 -5,-2.06 -5,-4.09v-32.24c0,0 2.4,-1.92 5.7,-1.92c3.3,0 5.87,1.92 5.87,1.92v14.68c1.1,0 2.32,0.06 3.76,0.34c0.06,0.03 0.28,0.06 0.28,0.06c5.08,1.1 9.52,4.52 11.86,9.15c1.28,2.5 1.84,7.1 -0.16,9.39z" data-paper-data="{&quot;guideItem&quot;:null,&quot;selected&quot;:false}" fill="#009ff9" fill-rule="evenodd"></path><path d="M78.02976,168.11c2.21,0 6.82,1.79 6.82,4v4.04v3.84v12.75c0.08,0 0.16,0 0.25,0c1.04,0 2.19,0.08 3.52,0.34c0.05,0.01 0.28,0.06 0.28,0.06c5.08,1.1 9.5,4.51 11.85,9.14c1.27,2.51 1.83,7.11 -0.17,9.41c-2.21,2.53 -5.47,2.85 -8.63,2.85c-1.04,0 -2.07,-0.03 -3.04,-0.03h-4.05h-2.72h-2.89h-0.99v-0.1c-2.25,-0.41 -5.01,-2.09 -5.01,-4.1v-34.15v0v-4.04c0.02,-2.22 2.57,-4.01 4.78,-4.01M78.02976,164.72c-3.85,0 -8.15,3.03 -8.15,7.39v4.04v34.15c0,3.61 3.44,6.31 6.94,7.24c0.44,0.22 0.93,0.34 1.45,0.34h0.99h2.89h2.71h4.05c0.46,0 0.94,0.01 1.42,0.02c0.54,0.01 1.08,0.02 1.62,0.02c3.8,0 8.11,-0.48 11.19,-4.01c3.2,-3.66 2.3,-9.9 0.64,-13.17c-2.81,-5.53 -8.1,-9.61 -14.15,-10.92l-0.22,-0.05c-0.4,-0.08 -0.78,-0.14 -1.16,-0.2v-9.59v-3.84v-4.04c-0.01,-5.18 -7.32,-7.38 -10.22,-7.38z" fill="#000000" fill-rule="nonzero"></path></g>
               </svg>