<svg viewBox="0 0 110 201" xml:space="preserve" xmlns:xlink="http://www.w3.org/1999/xlink" xmlns="http://www.w3.org/2000/svg">
                    <g style="mix-blend-mode: normal" text-anchor="none" font-size="none" font-weight="none" font-family="none" stroke-dashoffset="0" stroke-dasharray="" stroke-miterlimit="10" stroke-linejoin="miter" stroke-linecap="butt" stroke-width="1" stroke="none" fill-rule="none" fill="none" data-paper-data="{&quot;selected&quot;:false}"><path fill-rule="nonzero" fill="#ffffff" data-paper-data="{&quot;guideItem&quot;:null,&quot;selected&quot;:false}" d="M49.51295,136.58885v29.70789c-0.23585,0.07103 -2.25741,0.55048 -4.87702,0.55048c-2.77965,0 -4.87702,-0.55048 -4.87702,-0.55048v-29.70789c0,-1.9533 1.52459,-3.56033 3.37769,-3.56033c1.8531,0 6.37634,1.60703 6.37634,3.56033z"></path><path fill-rule="evenodd" fill="#009ff9" data-paper-data="{&quot;guideItem&quot;:null,&quot;selected&quot;:false}" d="M49.53822,166.29674v26.92c0,1.77573 -2.33322,3.25846 -4.23686,3.63136v0.07103h-8.94541c-3.32715,0 -7.37028,0.4972 -9.84669,-2.48602c-1.68463,-2.05984 -1.21294,-6.11738 -0.14319,-8.34591c1.97102,-4.11081 5.71091,-7.1473 9.98989,-8.12395c0,0 0.19373,-0.05327 0.23585,-0.05327c1.21294,-0.2486 2.23214,-0.32851 3.16711,-0.30187v-11.32913c0,0 2.08895,0.55048 4.87702,0.55048c2.61961,0 4.64117,-0.47945 4.87702,-0.55048c0.02527,0.01776 0.02527,0.01776 0.02527,0.01776z"></path><path fill-rule="nonzero" fill="#000000" d="M43.13661,133.04628c1.86152,0 6.38477,1.58927 6.38477,3.55145v26.2985v0v30.32052c0,1.7846 -2.3248,3.27621 -4.22001,3.64024v0.08879h-0.83389h-2.4343h-2.28268h-3.41139c-0.82547,0 -1.69306,0.02664 -2.56065,0.02664c-2.66172,0 -5.40768,-0.27524 -7.2692,-2.53041c-1.69306,-2.04208 -1.22136,-6.12625 -0.14319,-8.35479c1.97945,-4.11081 5.70249,-7.13842 9.98146,-8.11507c0,0 0.19373,-0.04439 0.23585,-0.05327c1.12871,-0.23084 2.08895,-0.30187 2.96496,-0.30187c0.06739,0 0.14319,0 0.21058,0v-11.32025v-3.40939v-26.2985c0.00842,-1.9533 1.51617,-3.54257 3.37769,-3.54257M43.13661,130.03642c-3.42823,0 -6.22473,2.93883 -6.22473,6.56131v26.2985v3.40939v8.51461c-0.28639,0.04439 -0.57278,0.09766 -0.86759,0.15982l-0.3285,0.07991c-5.06233,1.15422 -9.51819,4.7767 -11.8851,9.68658c-1.39825,2.89443 -2.15633,8.44358 0.53908,11.69315c2.59434,3.13416 6.2163,3.56033 9.42553,3.56033c0.46327,0 0.91813,-0.00888 1.36455,-0.01776c0.40431,-0.00888 0.80862,-0.01776 1.19609,-0.01776h3.41139h2.28268h2.4343h0.83389c0.46327,0 0.90128,-0.11542 1.29717,-0.32851c2.93126,-0.84347 5.7783,-3.23182 5.7783,-6.41037v-30.32052v-26.2985c-0.01685,-4.92764 -7.30289,-6.57019 -9.25707,-6.57019z"></path></g><path style="mix-blend-mode: normal" text-anchor="none" font-size="none" font-weight="none" font-family="none" stroke-dashoffset="0" stroke-dasharray="" stroke-miterlimit="10" stroke-linejoin="miter" stroke-linecap="butt" stroke-width="1" stroke="none" fill-rule="evenodd" fill="#009ff9" data-paper-data="{&quot;guideItem&quot;:null,&quot;selected&quot;:false}" d="M35.64841,188.68865c-0.06739,0.02664 -0.11792,0 -0.16846,0l-1.82783,-0.27524z"></path><path style="mix-blend-mode: normal" text-anchor="none" font-size="none" font-weight="none" font-family="none" stroke-dashoffset="0" stroke-dasharray="" stroke-miterlimit="10" stroke-linejoin="miter" stroke-linecap="butt" stroke-width="1" stroke="none" fill-rule="evenodd" fill="#009ff9" data-paper-data="{&quot;guideItem&quot;:null,&quot;selected&quot;:false}" d="M36.33911,188.68865l-0.02527,0.09766l-0.66543,-0.09766c0.21058,0.01776 0.45485,0.01776 0.6907,0z"></path><g style="mix-blend-mode: normal" text-anchor="none" font-size="none" font-weight="none" font-family="none" stroke-dashoffset="0" stroke-dasharray="" stroke-miterlimit="10" stroke-linejoin="miter" stroke-linecap="butt" stroke-width="1" stroke="none" fill-rule="nonzero" fill="none" data-paper-data="{&quot;selected&quot;:false}"><path fill="#ffffff" data-paper-data="{&quot;guideItem&quot;:null,&quot;selected&quot;:false}" d="M95.63826,106.97862c0.02527,0.07103 0.02527,0.17757 0.05054,0.2486c-0.09265,-0.4972 -0.21058,-0.97665 -0.35377,-1.4561c0.1095,0.39954 0.21058,0.80796 0.30323,1.20749z"></path><path fill="#ffffff" data-paper-data="{&quot;guideItem&quot;:null,&quot;selected&quot;:false}" d="M104.22147,101.53602c-1.95418,1.90891 -5.68564,3.95987 -9.06334,3.58697c-0.64016,-2.30844 -1.47406,-4.56362 -2.5438,-6.72112c-1.12028,-2.25517 -10.84905,-14.98713 -4.38005,-15.97265c1.7099,-0.27524 3.57143,1.5804 4.78436,2.61032c5.47506,4.59025 9.08861,10.25482 11.20282,16.49649z"></path><path fill="#0088c5" data-paper-data="{&quot;guideItem&quot;:null,&quot;selected&quot;:false}" d="M104.67632,128.71351c-0.6907,0.85235 -1.90364,1.48273 -3.09131,1.829c-0.57278,0.15094 -1.12028,0.2486 -1.61725,0.27524c-0.14319,0.02664 -0.31166,0.02664 -0.45485,0.02664c-4.23686,0 -4.42217,-4.08417 -4.01785,-7.42253c0.57278,-4.63464 1.3814,-8.62115 0.54751,-13.28243c0,-0.02664 -0.02527,-0.09766 -0.02527,-0.17757c-0.06739,-0.45281 -0.16846,-1.5804 -0.33693,-2.73462c-0.02527,-0.07103 -0.02527,-0.17757 -0.05054,-0.2486c-0.09265,-0.39954 -0.19373,-0.79908 -0.31166,-1.20749c-0.05054,-0.22197 -0.11792,-0.42617 -0.16846,-0.64814c3.37769,0.3729 7.10916,-1.67806 9.06334,-3.58697c0.02527,0 0.02527,0 0.02527,0l0.06739,0.05327c0.05054,0.05327 0.06739,0.09766 0.09265,0.17757l0.11792,0.27524c0.06739,0.20421 0.14319,0.45281 0.23585,0.72805c0.23585,0.87898 0.52224,2.03321 0.75809,2.98322c0.11792,0.45281 0.19373,0.87898 0.26112,1.15422c0.05054,0.20421 0.06739,0.35515 0.09265,0.39954c0.49697,2.33508 0.80862,4.68792 0.97709,7.06739c0.37904,4.56362 0.92655,10.35248 -2.16476,14.33899z"></path><path fill="#000000" d="M109.76392,114.64976l-0.05054,-0.52384c-0.19373,-2.55705 -0.54751,-5.06082 -1.04447,-7.46693c-0.6907,-3.23182 -1.1624,-5.4426 -1.97102,-6.72112c-2.47641,-6.88982 -6.469,-12.68756 -11.89352,-17.25118l-0.45485,-0.3729c-1.33086,-1.18086 -3.35242,-2.91219 -5.7783,-2.91219c-0.26112,0 -0.49697,0 -0.75809,0.05327c-2.66172,0.39954 -3.75674,2.13087 -4.18632,3.10752c-1.66779,3.9865 1.56671,9.5978 5.34872,15.46657c0.42958,0.67478 0.97709,1.52712 1.12028,1.77573c1.14555,2.35284 2.0721,4.96315 2.73753,7.7688c0.11792,0.78132 0.21058,1.5804 0.28639,2.15751c0.06739,0.47945 0.09265,0.79908 0.11792,0.95001c0.61489,3.40939 0.21058,6.46364 -0.26112,10.02397c-0.11792,0.75468 -0.21058,1.52712 -0.31166,2.33508c-0.4717,3.8622 0.06739,6.66785 1.64252,8.55012c0.85916,1.02992 2.47641,2.25517 5.20552,2.25517c0.21058,0 0.40431,0 0.64016,-0.02664c0.6907,-0.05327 1.42352,-0.17757 2.16476,-0.3729c1.12028,-0.32851 3.20923,-1.10095 4.54009,-2.83228c3.73989,-4.75895 3.25977,-11.23147 2.906,-15.96378zM104.67632,128.71351c-0.6907,0.85235 -1.90364,1.48273 -3.09131,1.829c-0.57278,0.15094 -1.12028,0.2486 -1.61725,0.27524c-0.14319,0.02664 -0.31166,0.02664 -0.45485,0.02664c-4.23686,0 -4.42217,-4.08417 -4.01785,-7.42253c0.57278,-4.63464 1.3814,-8.62115 0.54751,-13.28243c0,-0.02664 -0.02527,-0.09766 -0.02527,-0.17757c-0.06739,-0.47945 -0.19373,-1.75797 -0.37904,-2.98322c-0.14319,-0.63038 -0.31166,-1.22525 -0.4717,-1.85563c-0.64016,-2.30844 -1.47406,-4.53698 -2.5438,-6.72112c-1.12028,-2.25517 -10.84905,-14.98713 -4.38005,-15.97265c0.09265,-0.02664 0.21058,-0.02664 0.33693,-0.02664c1.61725,-0.02664 3.32715,1.67806 4.44744,2.62807c5.46664,4.59025 9.06334,10.25482 11.20282,16.49649c0.02527,0 0.02527,0 0.02527,0l0.06739,0.05327c0.02527,0 0.06739,0.07103 0.09265,0.17757l0.11792,0.27524c0.06739,0.20421 0.16846,0.45281 0.23585,0.72805c0.14319,0.45281 0.26112,0.95001 0.40431,1.48273c0.14319,0.4972 0.26112,1.02992 0.35377,1.50049c0.11792,0.45281 0.19373,0.87898 0.26112,1.15422c0.05054,0.20421 0.06739,0.35515 0.09265,0.39954c0.49697,2.33508 0.80862,4.68792 0.97709,7.06739c0.3622,4.57249 0.9097,10.36136 -2.1816,14.34786z"></path></g><g style="mix-blend-mode: normal" text-anchor="none" font-size="none" font-weight="none" font-family="none" stroke-dashoffset="0" stroke-dasharray="" stroke-miterlimit="10" stroke-linejoin="miter" stroke-linecap="butt" stroke-width="1" stroke="none" fill-rule="nonzero" fill="none" data-paper-data="{&quot;selected&quot;:false}"><path fill="#000000" d="M19.64437,88.65313c0.02527,0 0.05896,0 0.08423,0c7.12601,0.2486 -2.08895,14.8717 -3.06604,17.38436c-0.81705,2.11311 -1.44036,4.2795 -1.88679,6.47252c-0.02527,0.13318 -0.04212,0.26636 -0.06739,0.39954c-0.16846,0.87898 -0.32008,1.76685 -0.43801,2.65471c-0.05054,0.35515 -0.08423,0.71029 -0.11792,1.06544c-0.05054,0.4972 -0.09265,0.99441 -0.13477,1.49161c-0.32008,4.84773 0.26954,9.58892 1.81941,14.45441c1.19609,3.75566 1.81098,8.23937 -3.72304,8.51461c-0.11792,0.00888 -0.24427,0.00888 -0.37062,0.00888c-0.44643,0 -0.92655,-0.03551 -1.40667,-0.11542c-1.34771,-0.21309 -2.72911,-0.72805 -3.54616,-1.54488c-3.80727,-3.81781 -3.80727,-9.99734 -3.9252,-14.85395c-0.05896,-2.52153 0.04212,-5.04306 0.3285,-7.54683c0.06739,-0.55935 0.72439,-6.27719 1.15397,-6.28607h0.00842c0.01685,0 0.03369,0 0.05054,0h0.00842c1.64252,-6.83654 4.91071,-13.24691 10.36893,-18.75166c1.21294,-1.19861 2.99023,-3.34724 4.86017,-3.34724M19.64437,85.64328c-2.81334,0 -4.95283,2.23741 -6.36792,3.72015l-0.45485,0.47057c-5.31502,5.36269 -8.98753,11.85297 -10.93328,19.29326c-0.8002,1.39394 -1.08659,3.8622 -1.51617,7.54683c-0.30323,2.5748 -0.42116,5.26503 -0.35377,7.99077l0.01685,0.55048c0.11792,5.00755 0.27796,11.87073 4.80121,16.39883c1.58356,1.58927 3.87466,2.14863 5.09602,2.34396c0.61489,0.09766 1.23821,0.15094 1.82783,0.15094c0.16846,0 0.33693,0 0.49697,-0.00888c2.82176,-0.14206 4.88544,-1.18086 6.11522,-3.08088c1.90364,-2.93883 1.01078,-6.76552 0.17689,-9.39359c-1.42352,-4.47483 -1.97945,-8.82536 -1.68463,-13.29131c0.03369,-0.43505 0.06739,-0.89674 0.11792,-1.34955c0.03369,-0.34627 0.06739,-0.67478 0.1095,-1.00329c0.1095,-0.82571 0.24427,-1.6603 0.40431,-2.45938l0.05054,-0.27524c0.43801,-2.16639 1.02763,-4.17296 1.76044,-6.0641c0.1095,-0.28412 0.59805,-1.21637 1.02763,-2.03321c3.43666,-6.57019 6.33423,-12.7941 4.20316,-16.75397c-0.53066,-0.97665 -1.84468,-2.63695 -4.70855,-2.73462c-0.03369,-0.01776 -0.15162,-0.01776 -0.18531,-0.01776z"></path><path fill="#ffffff" data-paper-data="{&quot;guideItem&quot;:null,&quot;selected&quot;:false}" d="M16.66257,106.04637c-0.80862,2.0776 -1.40667,4.20847 -1.8531,6.39261c-3.84939,-1.42946 -7.6314,-1.75797 -10.3942,-1.67806c1.64252,-6.84542 4.9444,-13.26467 10.3942,-18.75166c1.21294,-1.22525 3.02392,-3.43603 4.91913,-3.35612c7.13443,0.2486 -2.08895,14.86283 -3.06604,17.39323z"></path><path fill="#0088c5" data-paper-data="{&quot;guideItem&quot;:null,&quot;selected&quot;:false}" d="M12.12248,141.09919c-0.54751,0.02664 -1.14555,0 -1.76044,-0.09766c-1.35613,-0.22197 -2.73753,-0.72805 -3.57143,-1.55376c-3.80727,-3.80893 -3.80727,-10.00622 -3.9252,-14.84507c-0.05054,-2.53041 0.05054,-5.06082 0.33693,-7.57347c0.06739,-0.55048 0.74124,-6.26831 1.1624,-6.26831c0.02527,0 0.02527,0 0.05054,0c2.7628,-0.07103 6.53638,0.2486 10.3942,1.67806c-0.02527,0.1243 -0.05054,0.27524 -0.06739,0.39954c-0.11792,0.4972 -0.21058,1.00329 -0.28639,1.52712c-0.09265,0.4972 -0.16846,1.02992 -0.21058,1.52712c-0.06739,0.52384 -0.14319,1.02992 -0.16846,1.55376c-0.05054,0.45281 -0.06739,0.87898 -0.09265,1.33179c-0.23585,4.61689 0.37904,9.15387 1.87837,13.78851c1.17924,3.76454 1.80256,8.25713 -3.73989,8.53236z"></path></g><g style="mix-blend-mode: normal" text-anchor="none" font-size="none" font-weight="none" font-family="none" stroke-dashoffset="0" stroke-dasharray="" stroke-miterlimit="10" stroke-linejoin="miter" stroke-linecap="butt" stroke-width="1" stroke="none" fill-rule="nonzero" fill="none" data-paper-data="{&quot;selected&quot;:false}"><path fill="#ffffff" data-paper-data="{&quot;guideItem&quot;:null,&quot;selected&quot;:false}" d="M37.79632,3.59586c1.26348,0.39066 2.53538,0.96777 3.83254,1.73133c1.06974,0.6215 2.0721,1.42058 3.0155,2.24629c3.02392,2.64583 6.91543,10.98286 2.75438,14.32123c-3.00707,2.41499 -5.78672,-3.6136 -7.47978,-5.35381c-3.78201,-3.9066 -9.18968,0.39066 -12.12095,3.6136c-2.35849,2.61032 -6.25842,2.70798 -8.72641,0.21309c-2.46799,-2.49489 -2.57749,-6.62346 -0.24427,-9.25153c2.89757,-3.25846 6.45215,-6.03747 10.54581,-7.3515c3.04077,-0.96777 5.73618,-0.99441 8.42317,-0.16869z"></path><path fill="#673101" data-paper-data="{&quot;guideItem&quot;:null,&quot;selected&quot;:false}" d="M28.70771,15.83062c-0.48012,-0.14206 -0.96024,-0.06215 -1.40667,0.08879c0.53908,-0.33739 0.96024,-0.88786 1.12871,-1.58927c0.34535,-1.40282 -0.45485,-2.83228 -1.76887,-3.20519c-0.61489,-0.16869 -1.22978,-0.05327 -1.75202,0.23084c0.46327,-0.34627 0.83389,-0.83459 0.98551,-1.4561c0.34535,-1.40282 -0.44643,-2.84116 -1.76887,-3.20519c-0.11792,-0.03551 -0.23585,-0.01776 -0.3622,-0.02664c-2.69542,1.99769 -4.52324,3.97763 -4.93598,4.43931c-2.33322,2.62807 -2.21529,6.75664 0.2527,9.25153c2.45957,2.49489 6.36792,2.39723 8.72641,-0.21309c0.6907,-0.76356 1.6341,-1.62479 2.6533,-2.41499c-0.219,-0.88786 -0.85074,-1.65143 -1.75202,-1.90003"></path><path fill="#000000" d="M33.94693,3.00988c1.30559,0 2.57749,0.20421 3.84097,0.58599c1.26348,0.39066 2.53538,0.96777 3.83254,1.73133c1.06974,0.6215 2.0721,1.42058 3.0155,2.24629c3.02392,2.64583 6.91543,10.98286 2.75438,14.32123c-0.48854,0.39066 -0.97709,0.55935 -1.44879,0.55935c-2.4343,0 -4.6159,-4.45707 -6.03099,-5.91317c-1.06974,-1.10983 -2.27426,-1.55376 -3.51246,-1.55376c-2.02999,0 -4.16105,1.19861 -5.98045,2.68135c0.00842,0.02664 0.02527,0.05327 0.03369,0.07991c-1.01078,0.78132 -1.94575,1.63367 -2.63645,2.39723c-0.00842,0.00888 -0.00842,0.00888 -0.01685,0.01776c-1.21294,1.34955 -2.83861,2.02433 -4.46428,2.02433c-1.53302,0 -3.06604,-0.60375 -4.26213,-1.81124c-1.54144,-1.56264 -2.16476,-3.75566 -1.84468,-5.82438c0.19373,-1.24301 0.72439,-2.44162 1.6004,-3.42715c0.20216,-0.22197 0.74966,-0.81683 1.57513,-1.60703c2.58591,-2.53929 5.57614,-4.66128 8.97068,-5.74447c1.60883,-0.51496 3.11657,-0.76356 4.57378,-0.76356M33.94693,0.00002c-1.76044,0 -3.52089,0.29299 -5.40768,0.89674c-3.49562,1.11871 -6.89016,3.27621 -10.09096,6.42813c-0.80862,0.77244 -1.40667,1.4117 -1.69306,1.72245c-1.25505,1.4117 -2.05525,3.13416 -2.35007,5.01643c-0.48012,3.1164 0.52224,6.29495 2.68699,8.47909c1.68463,1.7047 3.89993,2.64583 6.23315,2.64583c2.45957,0 4.8349,-1.08319 6.53638,-2.95658c0.59805,-0.65702 1.40667,-1.38507 2.27426,-2.05984c0.19373,-0.15094 0.3622,-0.31963 0.50539,-0.4972c1.44036,-1.08319 2.7628,-1.67806 3.75674,-1.67806c0.5812,0 1.0529,0.21309 1.51617,0.69253c0.24427,0.2486 0.6907,0.88786 1.08659,1.44722c1.58356,2.25517 3.76516,5.33606 6.9407,5.33606c1.12028,0 2.21529,-0.40842 3.17554,-1.18086c1.86152,-1.50049 2.88073,-3.72015 2.93969,-6.42813c0.09265,-4.67016 -2.83019,-10.18379 -5.59299,-12.59877c-1.28032,-1.11871 -2.37534,-1.93554 -3.4535,-2.56592c-1.52459,-0.88786 -2.97338,-1.536 -4.42217,-1.97993c-1.54986,-0.48832 -3.06604,-0.71917 -4.64117,-0.71917z"></path></g><g style="mix-blend-mode: normal" text-anchor="none" font-size="none" font-weight="none" font-family="none" stroke-dashoffset="0" stroke-dasharray="" stroke-miterlimit="10" stroke-linejoin="miter" stroke-linecap="butt" stroke-width="1" stroke="none" fill-rule="nonzero" fill="none" data-paper-data="{&quot;selected&quot;:false}"><path fill="#ffffff" data-paper-data="{&quot;guideItem&quot;:null,&quot;selected&quot;:false}" d="M74.42028,3.59586c-1.26348,0.39066 -2.53538,0.96777 -3.83254,1.73133c-1.06974,0.6215 -2.0721,1.42058 -3.0155,2.24629c-3.02392,2.64583 -6.91543,10.98286 -2.75438,14.32123c3.00707,2.41499 5.78672,-3.6136 7.47978,-5.35381c3.78201,-3.9066 9.18968,0.39066 12.12095,3.6136c2.35849,2.61032 6.25842,2.70798 8.72641,0.21309c2.46799,-2.49489 2.57749,-6.62346 0.24427,-9.25153c-2.89757,-3.25846 -6.45215,-6.03747 -10.54581,-7.3515c-3.04077,-0.96777 -5.72776,-0.99441 -8.42317,-0.16869z"></path><path fill="#673101" data-paper-data="{&quot;guideItem&quot;:null,&quot;selected&quot;:false}" d="M83.50888,15.83062c0.48012,-0.14206 0.96024,-0.06215 1.40667,0.08879c-0.53908,-0.33739 -0.96024,-0.88786 -1.12871,-1.58927c-0.34535,-1.40282 0.45485,-2.83228 1.76887,-3.20519c0.61489,-0.16869 1.22978,-0.05327 1.75202,0.23084c-0.46327,-0.34627 -0.83389,-0.83459 -0.98551,-1.4561c-0.34535,-1.40282 0.44643,-2.84116 1.76887,-3.20519c0.11792,-0.03551 0.23585,-0.01776 0.3622,-0.02664c2.69542,1.99769 4.52324,3.97763 4.93598,4.43931c2.33322,2.62807 2.21529,6.75664 -0.2527,9.25153c-2.45957,2.49489 -6.36792,2.39723 -8.72641,-0.21309c-0.6907,-0.76356 -1.6341,-1.62479 -2.6533,-2.41499c0.219,-0.88786 0.85074,-1.65143 1.75202,-1.90003"></path><path fill="#000000" d="M78.26967,3.00988c1.45721,0 2.97338,0.2486 4.57378,0.76356c3.39454,1.08319 6.38477,3.20519 8.97068,5.74447c0.81705,0.78132 1.37298,1.37619 1.57513,1.60703c0.87601,0.98553 1.40667,2.18414 1.6004,3.42715c0.32008,2.06872 -0.30323,4.27062 -1.84468,5.82438c-1.19609,1.20749 -2.72911,1.81124 -4.26213,1.81124c-1.62567,0 -3.25135,-0.67478 -4.46428,-2.02433c-0.00842,-0.00888 -0.00842,-0.00888 -0.01685,-0.01776c-0.6907,-0.76356 -1.62567,-1.60703 -2.63645,-2.39723c0.00842,-0.02664 0.02527,-0.05327 0.03369,-0.07991c-1.81941,-1.47385 -3.95047,-2.68135 -5.98045,-2.68135c-1.23821,0 -2.44272,0.45281 -3.51246,1.55376c-1.41509,1.4561 -3.58827,5.91317 -6.03099,5.91317c-0.4717,0 -0.96024,-0.16869 -1.44879,-0.55935c-4.16105,-3.33836 -0.26954,-11.6754 2.75438,-14.32123c0.9434,-0.82571 1.94575,-1.62479 3.0155,-2.24629c1.30559,-0.75468 2.56907,-1.34067 3.83254,-1.73133c1.26348,-0.39066 2.53538,-0.58599 3.84097,-0.58599M78.26967,0.00002c-1.56671,0 -3.09131,0.23084 -4.64117,0.71029c-1.44879,0.44393 -2.88915,1.09207 -4.42217,1.97993c-1.07817,0.63038 -2.1816,1.44722 -3.46192,2.56592c-2.7628,2.42387 -5.68564,7.92862 -5.59299,12.59877c0.05896,2.70798 1.06974,4.92764 2.93126,6.42813c0.96024,0.77244 2.05525,1.18086 3.17554,1.18086c3.18396,0 5.35714,-3.08088 6.9407,-5.33606c0.39589,-0.55935 0.84232,-1.18974 1.08659,-1.44722c0.46327,-0.47945 0.93497,-0.69253 1.51617,-0.69253c0.99393,0 2.30795,0.59487 3.75674,1.67806c0.14319,0.18645 0.31166,0.35515 0.50539,0.4972c0.87601,0.67478 1.67621,1.40282 2.26583,2.05984c1.70148,1.89115 4.08524,2.96546 6.54481,2.96546c2.33322,0 4.54851,-0.94113 6.23315,-2.65471c2.16476,-2.18414 3.16711,-5.36269 2.67857,-8.47909c-0.28639,-1.87339 -1.09501,-3.60472 -2.33322,-4.99867c-0.30323,-0.32851 -0.90128,-0.97665 -1.7436,-1.77573c-3.16711,-3.1164 -6.56165,-5.27391 -10.05727,-6.39261c-1.86152,-0.59487 -3.62197,-0.88786 -5.38241,-0.88786z"></path></g><g style="mix-blend-mode: normal" text-anchor="none" font-size="none" font-weight="none" font-family="none" stroke-dashoffset="0" stroke-dasharray="" stroke-miterlimit="10" stroke-linejoin="miter" stroke-linecap="butt" stroke-width="1" stroke="none" fill-rule="evenodd" fill="none" data-paper-data="{&quot;selected&quot;:false}"><g><path fill="#000000" d="M97.23024,100.33741c-0.42958,-2.05984 -0.85916,-4.11081 -1.18767,-6.1884c-0.28639,-1.65143 -0.16846,-5.01643 -0.11792,-6.11738c0.26112,-2.95658 1.12028,-5.76223 1.92891,-8.15058c3.57143,-10.50342 4.18632,-20.75823 1.92891,-31.33268c-2.11422,-9.82864 -6.61219,-18.22783 -12.33995,-23.04004c-9.20653,-7.74216 -19.9545,-12.18148 -29.54007,-12.18148h-3.57143c-9.58557,0 -20.33354,4.43931 -29.56534,12.18148c-5.71091,4.81222 -10.20046,13.2114 -12.3231,23.04004c-2.25741,10.58333 -1.64252,20.82926 1.92891,31.33268c0.80862,2.37947 1.66779,5.21176 1.90364,8.09731c0.06739,1.15422 0.19373,4.51034 -0.09265,6.17065c-0.33693,2.0776 -0.75809,4.13744 -1.18767,6.1884c-0.87601,4.20847 -1.78571,8.57676 -1.99629,13.03383c-0.40431,8.30152 1.49933,19.82598 6.70485,26.92c6.08996,8.27488 17.03166,13.66421 29.9865,14.76516c1.54986,0.15094 3.18396,0.20421 4.80121,0.20421h3.2345c1.61725,0 3.25977,-0.05327 4.80121,-0.20421c12.96327,-1.10095 23.90497,-6.49028 29.9865,-14.76516c5.20552,-7.09402 7.10916,-18.654 6.70485,-26.92c-0.20216,-4.45707 -1.10344,-8.81648 -1.98787,-13.03383zM57.72555,152.25963h-3.2345c-1.52459,0 -3.11657,-0.05327 -4.56536,-0.17757c-12.17991,-1.05656 -22.38038,-6.01971 -27.96494,-13.63757c-4.73382,-6.44588 -6.49427,-17.41987 -6.11522,-24.92231c0.21058,-4.20847 1.06974,-8.45245 1.92891,-12.56326c0.42958,-2.0776 0.87601,-4.19071 1.23821,-6.29495c0.37904,-2.33508 0.14319,-6.69449 0.11792,-6.91645c-0.28639,-3.28509 -1.21294,-6.33934 -2.0721,-8.89639c-3.42823,-10.07724 -3.99258,-19.47971 -1.82783,-29.62799c1.97102,-9.17162 6.11522,-16.97594 11.32075,-21.36198c8.72641,-7.34263 18.83422,-11.53334 27.77963,-11.53334h3.57143c8.94541,0 19.05322,4.19071 27.77963,11.53334c5.20552,4.38604 9.34972,12.18148 11.32075,21.33535c2.16476,10.17491 1.59198,19.57738 -1.82783,29.65462c-0.85916,2.55705 -1.78571,5.61129 -2.0721,8.92302c-0.02527,0.1243 -0.09265,1.55376 -0.09265,3.20519c0,1.27852 0.05054,2.68135 0.21058,3.68463c0.35377,2.10424 0.80862,4.20847 1.23821,6.29495c0.83389,4.11081 1.7099,8.34591 1.92891,12.56326c0.37904,7.49356 -1.3814,18.47643 -6.11522,24.92231c-5.59299,7.61786 -15.79345,12.58102 -27.96494,13.63757c-1.46563,0.1243 -3.05761,0.17757 -4.58221,0.17757z"></path><path fill="#009ff9" data-paper-data="{&quot;guideItem&quot;:null,&quot;selected&quot;:false}" d="M96.37107,113.53105c0.37904,7.49356 -1.3814,18.47643 -6.11522,24.92231c-5.59299,7.61786 -15.79345,12.58102 -27.96494,13.63757c-1.44879,0.1243 -3.04077,0.17757 -4.56536,0.17757h-3.2345c-1.52459,0 -3.11657,-0.05327 -4.56536,-0.17757c-12.17991,-1.05656 -22.38038,-6.01971 -27.96494,-13.63757c-4.73382,-6.44588 -6.49427,-17.41987 -6.11522,-24.92231c0.21058,-4.20847 1.06974,-8.45245 1.92891,-12.56326c0.42958,-2.0776 0.87601,-4.19071 1.23821,-6.29495c0.37904,-2.33508 0.14319,-6.69449 0.11792,-6.91645c-0.28639,-3.28509 -1.21294,-6.33934 -2.0721,-8.89639c-3.42823,-10.07724 -3.99258,-19.47971 -1.82783,-29.62799c1.97102,-9.17162 6.11522,-16.97594 11.32075,-21.36198c8.72641,-7.34263 18.83422,-11.53334 27.77963,-11.53334h3.57143c8.94541,0 19.05322,4.19071 27.77963,11.53334c5.20552,4.38604 9.34972,12.18148 11.32075,21.33535c2.16476,10.17491 1.59198,19.57738 -1.82783,29.65462c-0.85916,2.55705 -1.78571,5.61129 -2.0721,8.92302c-0.02527,0.1243 -0.09265,1.55376 -0.09265,3.20519c0,1.27852 0.05054,2.68135 0.21058,3.68463c0.35377,2.10424 0.80862,4.20847 1.23821,6.29495c0.82547,4.11081 1.70148,8.34591 1.91206,12.56326z"></path><path fill="#ffffff" data-paper-data="{&quot;guideItem&quot;:null,&quot;selected&quot;:false}" d="M61.23801,21.50406c3.84097,0.53272 7.60613,1.61591 11.03436,3.15191c5.59299,2.50377 12.12095,6.53467 15.13644,12.19036c1.33086,2.50377 2.24056,5.23839 2.7628,8.04404c0.39589,2.12199 -0.10108,5.10521 1.11186,6.92533c2.45114,3.70239 3.0155,5.77999 3.68935,10.39687c0.63174,4.34165 0.27796,8.97629 -1.46563,12.99831c-4.53167,10.4679 -15.51549,14.88946 -25.55591,15.22685c-1.38982,0.04439 -2.80492,0.08879 -4.21159,0.13318c-6.52796,0.21309 -12.95484,0.08879 -19.4828,-0.13318c-10.04885,-0.33739 -21.02424,-4.75007 -25.55591,-15.22685c-1.7436,-4.02202 -2.09737,-8.65666 -1.46563,-12.99831c0.67385,-4.60801 1.23821,-6.69449 3.68935,-10.39687c1.21294,-1.82012 0.71597,-4.80334 1.11186,-6.92533c0.52224,-2.81453 1.42352,-5.54914 2.7628,-8.04404c3.0155,-5.65569 8.02729,-9.67771 13.6287,-12.19036c2.26583,-1.01216 4.62432,-1.79348 7.02493,-2.37947c4.70013,-1.14534 11.00909,-1.42946 15.78503,-0.77244z"></path></g><g fill="#fdbdb8"><path data-paper-data="{&quot;guideItem&quot;:null,&quot;selected&quot;:false}" d="M40.92131,63.83736c0,6.17065 -4.70855,11.16932 -10.52055,11.16932c-5.81199,0 -10.51212,-4.99867 -10.51212,-11.16932c0,-6.16177 4.70855,-11.16044 10.51212,-11.16044c5.80357,0 10.52055,4.99867 10.52055,11.16044"></path><path data-paper-data="{&quot;guideItem&quot;:null,&quot;selected&quot;:false}" d="M92.32795,63.83736c0,6.17065 -4.70855,11.16932 -10.52055,11.16932c-5.80357,0 -10.51212,-4.99867 -10.51212,-11.16932c0,-6.16177 4.70855,-11.16044 10.51212,-11.16044c5.80357,0 10.52055,4.99867 10.52055,11.16044"></path></g></g><g style="mix-blend-mode: normal" text-anchor="none" font-size="none" font-weight="none" font-family="none" stroke-dashoffset="0" stroke-dasharray="" stroke-miterlimit="10" stroke-linejoin="miter" stroke-linecap="butt" stroke-width="1" stroke="none" fill-rule="none" fill="none" data-paper-data="{&quot;selected&quot;:false}"><path fill-rule="evenodd" fill="#000000" data-paper-data="{&quot;guideItem&quot;:null,&quot;selected&quot;:false}" d="M57.91928,60.2504c0,0.80796 -0.80862,1.4561 -1.81098,1.4561c-1.01078,0 -1.81941,-0.64814 -1.81941,-1.4561c0,-0.79908 0.80862,-1.4561 1.81941,-1.4561c1.01078,0 1.81098,0.65702 1.81098,1.4561"></path><g fill-rule="evenodd" fill="#000000"><path data-paper-data="{&quot;guideItem&quot;:null,&quot;selected&quot;:false}" d="M66.53619,58.51906v0c-1.35613,0 -2.45957,-1.08319 -2.45957,-2.41499v-0.33739c0,-1.33179 1.10344,-2.41499 2.45957,-2.41499c1.35613,0 2.46799,1.08319 2.46799,2.41499v0.33739c0,1.33179 -1.10344,2.41499 -2.46799,2.41499"></path><path data-paper-data="{&quot;guideItem&quot;:null,&quot;selected&quot;:false}" d="M45.68041,58.51906v0c-1.35613,0 -2.45957,-1.08319 -2.45957,-2.41499v-0.33739c0,-1.33179 1.10344,-2.41499 2.45957,-2.41499c1.35613,0 2.46799,1.08319 2.46799,2.41499v0.33739c-0.00842,1.33179 -1.11186,2.41499 -2.46799,2.41499"></path></g><path fill-rule="nonzero" fill="#231815" d="M62.40041,69.50193c-2.29953,0 -4.58221,-0.71917 -6.29211,-1.90003c-3.16711,2.19302 -8.27998,2.78789 -11.81771,0.19533c-1.03605,-0.75468 -2.29953,-1.94442 -2.42587,-3.31173c-0.06739,-0.6659 0.14319,-1.29628 0.5812,-1.77573c0.54751,-0.60375 1.44879,-0.6215 2.02156,-0.04439c0.42958,0.43505 0.54751,1.08319 0.34535,1.63367c0.19373,0.25748 0.58962,0.65702 1.11186,1.0388c2.70384,1.97993 7.11758,1.24301 9.25707,-0.73693c0.53908,-0.4972 1.33928,-0.4972 1.87837,0c2.13949,1.97993 6.54481,2.71686 9.25707,0.73693c0.52224,-0.38178 0.91813,-0.78132 1.11186,-1.0388c-0.20216,-0.55048 -0.08423,-1.19861 0.34535,-1.63367c0.57278,-0.57711 1.47406,-0.55048 2.02156,0.04439c0.43801,0.47945 0.64858,1.11871 0.5812,1.7846c-0.13477,1.36731 -1.38982,2.55705 -2.42587,3.31173c-1.65094,1.18086 -3.60512,1.69582 -5.55087,1.69582zM67.71543,64.78738h0.02527z"></path></g><g style="mix-blend-mode: normal" text-anchor="none" font-size="none" font-weight="none" font-family="none" stroke-dashoffset="0" stroke-dasharray="" stroke-miterlimit="10" stroke-linejoin="miter" stroke-linecap="butt" stroke-width="1" stroke="none" fill-rule="none" fill="none" data-paper-data="{&quot;selected&quot;:false}"><path fill-rule="nonzero" fill="#ffffff" data-paper-data="{&quot;guideItem&quot;:null,&quot;selected&quot;:false}" d="M71.47217,149.77361v5.26503c0,0 -2.16476,-1.7047 -4.9444,-1.7047c-2.77965,0 -4.80121,1.7047 -4.80121,1.7047v-5.26503c0,-1.97993 2.13949,-3.56033 3.99258,-3.56033c1.8531,0 5.75303,1.5804 5.75303,3.56033z"></path><path fill-rule="evenodd" fill="#009ff9" data-paper-data="{&quot;guideItem&quot;:null,&quot;selected&quot;:false}" d="M84.72182,184.88859c-2.47641,3.00986 -6.51954,2.50377 -9.84669,2.50377h-8.94541v-0.09766c-1.90364,-0.35515 -4.21159,-1.829 -4.21159,-3.63136v-28.6247c0,0 2.02156,-1.7047 4.80121,-1.7047c2.77965,0 4.9444,1.7047 4.9444,1.7047v13.03383c0.92655,0 1.95418,0.05327 3.16711,0.30187c0.05054,0.02664 0.23585,0.05327 0.23585,0.05327c4.27897,0.97665 8.01886,4.01314 9.98989,8.12395c1.07817,2.22854 1.54986,6.31271 -0.13477,8.33703z"></path><path fill-rule="nonzero" fill="#000000" d="M65.72756,146.21328c1.86152,0 5.74461,1.58927 5.74461,3.55145v3.58697v3.40939v11.32025c0.06739,0 0.13477,0 0.21058,0c0.87601,0 1.84468,0.07103 2.96496,0.30187c0.04212,0.00888 0.23585,0.05327 0.23585,0.05327c4.27897,0.97665 8.00202,4.00426 9.98146,8.11507c1.06974,2.22854 1.54144,6.31271 -0.14319,8.35479c-1.86152,2.24629 -4.60748,2.53041 -7.2692,2.53041c-0.87601,0 -1.7436,-0.02664 -2.56065,-0.02664h-3.41139h-2.2911h-2.4343h-0.83389v-0.08879c-1.89521,-0.36402 -4.22001,-1.85563 -4.22001,-3.64024v-30.3294v0v-3.58697c0.01685,-1.96218 2.16476,-3.55145 4.02628,-3.55145M65.72756,143.20343c-3.24292,0 -6.86489,2.69022 -6.86489,6.56131v3.58697v30.32052c0,3.20519 2.89757,5.60241 5.84568,6.42813c0.37062,0.19533 0.78336,0.30187 1.22136,0.30187h0.83389h2.4343h2.28268h3.41139c0.38747,0 0.79178,0.00888 1.19609,0.01776c0.45485,0.00888 0.9097,0.01776 1.36455,0.01776c3.20081,0 6.83119,-0.42617 9.42553,-3.56033c2.69542,-3.24958 1.93733,-8.78984 0.53908,-11.69315c-2.36691,-4.90988 -6.82277,-8.53236 -11.91879,-9.69546l-0.18531,-0.04439c-0.33693,-0.07103 -0.65701,-0.1243 -0.97709,-0.17757v-8.51461v-3.40939v-3.58697c-0.00842,-4.59913 -6.16576,-6.55243 -8.60848,-6.55243z"></path></g>
               </svg>