<svg viewBox="0 0 110 200" xml:space="preserve" xmlns:xlink="http://www.w3.org/1999/xlink" xmlns="http://www.w3.org/2000/svg">
                    <g style="mix-blend-mode: normal" text-anchor="none" font-size="none" font-weight="none" font-family="none" stroke-dashoffset="0" stroke-dasharray="" stroke-miterlimit="10" stroke-linejoin="miter" stroke-linecap="butt" stroke-width="1" stroke="none" fill-rule="none" fill="none" data-paper-data="{&quot;selected&quot;:false}"><path fill-rule="evenodd" fill="#009ff9" data-paper-data="{&quot;guideItem&quot;:null,&quot;selected&quot;:false}" d="M58.87379,159.50324v29.01368c0,1.83585 2.27976,3.32973 4.16014,3.6897v0.09899h8.83614c3.28651,0 7.28025,0.51296 9.72641,-2.5378c1.66406,-2.06084 1.19812,-6.2005 0.14144,-8.46832c-1.95527,-4.16667 -5.64115,-7.23542 -9.86785,-8.22534c0,0 -0.19137,-0.027 -0.23297,-0.054c-1.19812,-0.25198 -2.21319,-0.30598 -3.12843,-0.30598v-13.21094c0,0 0,0 -0.00832,-0.009v0.31497c0,0 -2.06343,0.55796 -4.80912,0.55796c-2.73737,0 -4.8008,-0.55796 -4.8008,-0.55796v-0.31497c-0.00832,0 -0.01664,0.009 -0.01664,0.009z"></path><path fill-rule="nonzero" fill="#000000" d="M56.05321,154.15767v34.36825c0,3.25774 2.85386,5.68754 5.77428,6.52448c0.36609,0.18898 0.77379,0.30598 1.20644,0.30598h8.84446c0.38273,0 0.78211,0.009 1.18148,0.018c0.44097,0 0.89859,0.009 1.34789,0.009c3.17003,0 6.74775,-0.42297 9.31039,-3.59971c2.66249,-3.30274 1.91366,-8.91829 0.5325,-11.85205c-2.338,-4.9766 -6.73943,-8.64831 -11.7732,-9.82721l-0.18305,-0.045c-0.33281,-0.07199 -0.6573,-0.13499 -0.96515,-0.17999v-15.72174c0,-2.11483 -1.23972,-3.67171 -2.8289,-4.75162c-1.92198,-1.2959 -4.35151,-1.88985 -5.67443,-1.88985c-1.34789,0 -2.75401,0.48596 -3.93549,1.33189c-1.6391,1.16991 -2.83722,3.04176 -2.83722,5.30958zM58.86547,157.79338h0.00832v-3.63571c0,-0.08099 0,-0.16199 0.01664,-0.24298c0.15809,-1.87185 2.17991,-3.35673 3.93549,-3.35673c1.78054,0 5.44146,1.51188 5.67443,3.41073c0.00832,0.06299 0.00832,0.12599 0.00832,0.18898v18.56551h0.19969c0.87363,0 1.82214,0.06299 2.93706,0.30598c0.0416,0.009 0.23297,0.054 0.23297,0.054c4.2267,0.98992 7.90427,4.05868 9.85953,8.22534c1.05668,2.25882 1.52261,6.39849 -0.14144,8.46832c-1.83878,2.27682 -4.55119,2.56479 -7.18872,2.56479c-0.86531,0 -1.71398,-0.036 -2.52937,-0.036h-8.84446v-0.08999c-1.87206,-0.36897 -4.16846,-1.88085 -4.16846,-3.6897z"></path><path fill-rule="nonzero" fill="#ffffff" data-paper-data="{&quot;guideItem&quot;:null,&quot;selected&quot;:false}" d="M58.89043,153.91469v5.89453c0,0 2.06343,0.55796 4.8008,0.55796c2.74569,0 4.80912,-0.55796 4.80912,-0.55796v-5.84053c-0.23297,-1.89885 -3.89389,-3.41073 -5.67443,-3.41073c-1.75558,0 -3.77741,1.48488 -3.93549,3.35673z"></path></g><g style="mix-blend-mode: normal" text-anchor="none" font-size="none" font-weight="none" font-family="none" stroke-dashoffset="0" stroke-dasharray="" stroke-miterlimit="10" stroke-linejoin="miter" stroke-linecap="butt" stroke-width="1" stroke="none" fill-rule="nonzero" fill="none" data-paper-data="{&quot;selected&quot;:false}"><path fill="#ffffff" data-paper-data="{&quot;guideItem&quot;:null,&quot;selected&quot;:false}" d="M18.84491,99.78402c-1.19812,2.21382 -2.17991,4.49964 -2.97866,6.88445c-3.50284,0.20698 -7.23032,-2.21382 -9.13567,-4.29266c2.53769,-6.45248 6.53142,-12.19402 12.37226,-16.71166c1.28964,-0.98992 3.28651,-2.84377 5.05041,-2.4658c6.57302,1.42189 -4.06862,14.25486 -5.30834,16.58567z"></path><path fill="#0088c5" data-paper-data="{&quot;guideItem&quot;:null,&quot;selected&quot;:false}" d="M15.90785,106.66847c-0.23297,0.63895 -0.42433,1.2959 -0.60738,1.95284c-0.28289,1.47588 -0.51586,2.99676 -0.59074,3.27574c-1.08164,4.87761 -0.4493,9.11627 -0.11648,14.02088c0.19137,2.89777 -0.04992,6.2995 -2.48776,7.31641c-0.6573,0.25198 -1.48101,0.35997 -2.48776,0.22498c-0.4909,-0.054 -1.05668,-0.17999 -1.62245,-0.37797c-1.22308,-0.43197 -2.44616,-1.16991 -3.0785,-2.10583c-2.97866,-4.36465 -2.11335,-10.43916 -1.52261,-15.23578c0.30785,-2.4928 0.74883,-4.9496 1.38949,-7.36141c0.02496,-0.054 0.04992,-0.20698 0.11648,-0.40497c0.28289,-1.08891 1.08164,-3.91469 1.52261,-5.07559c0.11648,-0.30598 0.23297,-0.50396 0.30785,-0.50396c0.02496,0 0.02496,0.027 0.02496,0.027c1.90534,2.07883 5.63283,4.47264 9.11071,4.26566c0.01664,-0.018 0.01664,-0.018 0.0416,-0.018z"></path><path fill="#000000" d="M28.75437,83.65731c-0.34945,-1.04392 -1.36453,-2.87077 -4.03534,-3.45572c-0.34945,-0.07199 -0.68226,-0.09899 -1.03171,-0.09899c-2.34632,0 -4.29327,1.57487 -5.73267,2.71778l-0.4909,0.37797c-5.77428,4.44564 -10.14242,10.28618 -13.02956,17.37761c-0.86531,1.2419 -1.45605,3.50072 -2.37128,6.95644c-0.63234,2.4928 -1.12324,5.12959 -1.45605,7.79338l-0.06656,0.55796c-0.60738,4.93161 -1.43109,11.70806 2.11335,16.89165c1.26468,1.85385 3.36139,2.78978 4.48463,3.20374c0.72386,0.25198 1.48101,0.43197 2.17991,0.53096c0.39937,0.054 0.77379,0.07199 1.12324,0.07199c2.57929,0 4.13518,-1.1969 5.00049,-2.21382c1.59749,-1.85385 2.22984,-4.69762 1.97191,-8.65731c-0.06656,-0.83693 -0.11648,-1.67387 -0.19137,-2.4658c-0.30785,-3.7887 -0.56578,-7.06443 0.23297,-10.61915c0.02496,-0.15299 0.09152,-0.50396 0.16641,-1.01692c0.09152,-0.58495 0.23297,-1.42189 0.39937,-2.23182c0.82371,-2.92477 1.92198,-5.64255 3.23659,-8.05436c0.14144,-0.27898 0.72386,-1.11591 1.24804,-1.82685c4.16014,-5.93053 7.74618,-11.60007 6.24853,-15.83873zM18.84491,99.78402c-1.19812,2.18683 -2.17991,4.49964 -2.93706,6.88445c-0.23297,0.63895 -0.42433,1.2959 -0.60738,1.95284c-0.28289,1.47588 -0.51586,2.99676 -0.59074,3.27574c-1.08164,4.87761 -0.4493,9.11627 -0.11648,14.02088c0.19137,2.89777 -0.04992,6.2995 -2.48776,7.31641c-0.46594,0.20698 -1.00675,0.30598 -1.66406,0.30598c-0.25793,0 -0.51586,-0.027 -0.82371,-0.07199c-0.4909,-0.054 -1.05668,-0.17999 -1.62245,-0.37797c-1.22308,-0.43197 -2.44616,-1.16991 -3.0785,-2.10583c-2.97866,-4.36465 -2.11335,-10.43916 -1.52261,-15.23578c0.30785,-2.4928 0.74883,-4.9496 1.38949,-7.36141c0.02496,-0.054 0.04992,-0.20698 0.11648,-0.40497c0.28289,-1.11591 1.03171,-3.91469 1.52261,-5.07559c0.11648,-0.30598 0.23297,-0.50396 0.30785,-0.50396c0.02496,0 0.02496,0.027 0.02496,0.027c2.53769,-6.45248 6.50646,-12.22102 12.35562,-16.73866c1.17316,-0.89093 2.93706,-2.5108 4.57615,-2.5108c0.16641,0 0.30785,0 0.46594,0.054c6.57302,1.38589 -4.06862,14.21886 -5.30834,16.54968z"></path></g><g style="mix-blend-mode: normal" text-anchor="none" font-size="none" font-weight="none" font-family="none" stroke-dashoffset="0" stroke-dasharray="" stroke-miterlimit="10" stroke-linejoin="miter" stroke-linecap="butt" stroke-width="1" stroke="none" fill-rule="nonzero" fill="none" data-paper-data="{&quot;selected&quot;:false}"><path fill="#000000" d="M88.11125,90.0288c1.67238,0 3.41132,1.79086 4.58447,2.79878c5.61619,4.84161 9.27711,10.82613 11.45703,17.40461c0.01664,0 0.0416,-0.009 0.06656,-0.009v0c0.40769,0 1.55589,5.54356 1.67238,6.09251c0.50754,2.4478 0.84035,4.93161 1.02339,7.43341c0.34113,4.81461 0.92355,10.93413 -2.27976,15.12779c-0.69058,0.90893 -1.93863,1.56587 -3.17003,1.92585c-0.56578,0.16199 -1.13988,0.26998 -1.64742,0.30598c-0.18305,0.009 -0.36609,0.018 -0.54082,0.018c-4.65104,0 -4.48463,-4.31965 -3.74413,-8.02736c0.99011,-4.9946 1.09828,-9.74622 0.34945,-14.50684c-0.0832,-0.48596 -0.16641,-0.97192 -0.26625,-1.45788c-0.06656,-0.35097 -0.13312,-0.69294 -0.21633,-1.04392c-0.19137,-0.86393 -0.40769,-1.72786 -0.6573,-2.58279c-0.03328,-0.12599 -0.06656,-0.25198 -0.09984,-0.38697c-0.62402,-2.12383 -1.41445,-4.19366 -2.3796,-6.2005c-1.1482,-2.38481 -11.14086,-15.82073 -4.50127,-16.86465c0.11648,-0.018 0.23297,-0.027 0.34945,-0.027M88.11125,86.97804v0c-0.24961,0 -0.49922,0.018 -0.74883,0.054c-2.70409,0.42297 -3.80237,2.19582 -4.21838,3.21274c-1.69734,4.14867 1.62245,10.0252 5.47474,16.18071c0.47426,0.76494 1.01507,1.62887 1.1482,1.89885c0.85699,1.79086 1.59749,3.7167 2.18823,5.71454l0.09152,0.35997c0.22465,0.79194 0.42433,1.58387 0.60738,2.39381c0.06656,0.31497 0.13312,0.63895 0.19969,0.96292c0.09152,0.46796 0.16641,0.91793 0.24961,1.37689c0.69058,4.35565 0.58242,8.7293 -0.33281,13.31893c-0.5325,2.66379 -0.99843,6.51548 1.01507,9.21526c0.84867,1.14291 2.49608,2.5018 5.48307,2.5018c0.22465,0 0.46594,-0.009 0.70722,-0.027c0.70722,-0.045 1.47269,-0.18898 2.21319,-0.40497c1.13988,-0.33297 3.26155,-1.15191 4.61776,-2.93377c3.80237,-4.9856 3.31147,-11.78906 2.9537,-16.75666l-0.0416,-0.54896c-0.19137,-2.70878 -0.55746,-5.35457 -1.08164,-7.86537c-0.73218,-3.54572 -1.22308,-5.92153 -2.10503,-7.23542c-2.52105,-7.19042 -6.58134,-13.22894 -12.08105,-17.97156l-0.46594,-0.41397c-1.35621,-1.1969 -3.41132,-3.03276 -5.87412,-3.03276z"></path><path fill="#ffffff" data-paper-data="{&quot;guideItem&quot;:null,&quot;selected&quot;:false}" d="M94.62603,113.04896c0.14144,0.45896 0.25793,0.91793 0.37441,1.39489c-0.68226,-2.56479 -1.57253,-5.10259 -2.74569,-7.5144c-1.12324,-2.38481 -11.13254,-15.82073 -4.48463,-16.86465c1.78886,-0.27898 3.68588,1.67387 4.93393,2.77178c5.61619,4.82361 9.30207,10.81713 11.48199,17.39561c-2.61257,0.22498 -6.11541,0.96292 -9.56,2.81677z"></path><path fill="#0088c5" data-paper-data="{&quot;guideItem&quot;:null,&quot;selected&quot;:false}" d="M104.62701,138.87689c-0.68226,0.91793 -1.92198,1.57487 -3.17003,1.93485c-0.56578,0.15299 -1.12324,0.25198 -1.64742,0.30598c-5.21682,0.33297 -5.05041,-4.16667 -4.29327,-8.02736c1.05668,-5.30958 1.12324,-10.38517 0.19137,-15.46976c-0.04992,-0.30598 -0.09152,-0.58495 -0.16641,-0.89093c-0.14144,-0.73794 -0.33281,-1.47588 -0.51586,-2.21382c0,-0.027 0,-0.054 -0.02496,-0.07199c-0.11648,-0.48596 -0.23297,-0.93593 -0.37441,-1.39489c3.45292,-1.85385 6.94743,-2.59179 9.56,-2.81677c0.02496,0 0.02496,0 0.04992,0c0.39937,0 1.54757,5.53456 1.66406,6.07451c0.4909,2.4658 0.84867,4.9496 1.00675,7.4424c0.34945,4.81461 0.94019,10.93413 -2.27976,15.12779z"></path></g><g style="mix-blend-mode: normal" text-anchor="none" font-size="none" font-weight="none" font-family="none" stroke-dashoffset="0" stroke-dasharray="" stroke-miterlimit="10" stroke-linejoin="miter" stroke-linecap="butt" stroke-width="1" stroke="none" fill-rule="none" fill="none" data-paper-data="{&quot;selected&quot;:false}"><path fill-rule="nonzero" fill="#ffffff" data-paper-data="{&quot;guideItem&quot;:null,&quot;selected&quot;:false}" d="M46.8177,135.72714v30.11159c-0.23297,0.07199 -2.22984,0.55796 -4.81744,0.55796c-2.74569,0 -4.81744,-0.55796 -4.81744,-0.55796v-30.11159c0,-1.97984 1.50597,-3.60871 3.33643,-3.60871c1.83046,0 6.29845,1.62887 6.29845,3.60871z"></path><path fill-rule="evenodd" fill="#009ff9" data-paper-data="{&quot;guideItem&quot;:null,&quot;selected&quot;:false}" d="M46.84266,165.83873v27.28582c0,1.79986 -2.30472,3.30274 -4.1851,3.68071v0.07199h-8.83614c-3.28651,0 -7.28025,0.50396 -9.72641,-2.5198c-1.66406,-2.08783 -1.19812,-6.2005 -0.14144,-8.45932c1.94695,-4.16667 5.64115,-7.24442 9.86785,-8.23434c0,0 0.19137,-0.054 0.23297,-0.054c1.19812,-0.25198 2.20487,-0.33297 3.12843,-0.30598v-11.48308c0,0 2.06343,0.55796 4.81744,0.55796c2.58761,0 4.58447,-0.48596 4.81744,-0.55796c0.02496,0.018 0.02496,0.018 0.02496,0.018z"></path><path fill-rule="nonzero" fill="#000000" d="M40.51925,132.13643c1.83878,0 6.30677,1.61087 6.30677,3.59971v26.65587v0v30.73254c0,1.80886 -2.2964,3.32073 -4.16846,3.6897v0.08999h-0.82371h-2.40456h-2.2548h-3.36971c-0.81539,0 -1.67238,0.027 -2.52937,0.027c-2.62921,0 -5.34162,-0.27898 -7.1804,-2.56479c-1.67238,-2.06983 -1.20644,-6.2095 -0.14144,-8.46832c1.95527,-4.16667 5.63283,-7.23542 9.85953,-8.22534c0,0 0.19137,-0.045 0.23297,-0.054c1.11492,-0.23398 2.06343,-0.30598 2.92874,-0.30598c0.06656,0 0.14144,0 0.20801,0v-11.47408v-3.45572v-26.65587c0.00832,-1.97984 1.49765,-3.59071 3.33643,-3.59071M40.51925,129.08567c-3.38635,0 -6.14869,2.97876 -6.14869,6.65047v26.65587v3.45572v8.63031c-0.28289,0.045 -0.56578,0.09899 -0.85699,0.16199l-0.32449,0.08099c-5.00049,1.16991 -9.40192,4.84161 -11.73992,9.81821c-1.38117,2.93377 -2.12999,8.55832 0.5325,11.85205c2.56265,3.17675 6.14037,3.60871 9.31039,3.60871c0.45762,0 0.90691,-0.009 1.34789,-0.018c0.39937,-0.009 0.79875,-0.018 1.18148,-0.018h3.36971h2.2548h2.40456h0.82371c0.45762,0 0.89027,-0.11699 1.28132,-0.33297c2.89546,-0.85493 5.70771,-3.27574 5.70771,-6.49748v-30.73254v-26.65587c-0.01664,-4.9946 -7.21368,-6.65947 -9.14399,-6.65947z"></path></g><g style="mix-blend-mode: normal" text-anchor="none" font-size="none" font-weight="none" font-family="none" stroke-dashoffset="0" stroke-dasharray="" stroke-miterlimit="10" stroke-linejoin="miter" stroke-linecap="butt" stroke-width="1" stroke="none" fill-rule="none" fill="none" data-paper-data="{&quot;selected&quot;:false}"><path fill-rule="evenodd" fill="#009ff9" data-paper-data="{&quot;guideItem&quot;:null,&quot;selected&quot;:false}" d="M92.73733,115.35277c0.37441,7.57739 -1.35621,18.68251 -6.02388,25.18898c-5.50803,7.70338 -15.55893,12.72498 -27.55677,13.7869c-1.43109,0.12599 -2.9953,0.17999 -4.50127,0.17999h-3.27819c-1.47269,0 -2.97866,-0.054 -4.45135,-0.17999c-10.42531,-0.93593 -24.02065,-4.91361 -29.40387,-18.60151c-4.05198,-10.31317 -3.12011,-21.54428 -1.83046,-30.15659c0.23297,-1.70086 0.6989,-3.51872 1.17316,-5.47156c1.05668,-4.40965 2.17991,-8.97228 1.38117,-13.20194c-0.34945,-1.87185 -1.12324,-3.7527 -1.87206,-5.55256c-0.4493,-1.06192 -0.89027,-2.13283 -1.21476,-3.14075c-2.87882,-9.02628 -3.35307,-18.40353 -1.38117,-27.79878c1.89702,-9.04428 5.85748,-16.72966 10.87461,-21.03132c8.36188,-7.24442 18.08829,-11.37509 26.84955,-11.37509h3.27819c8.60317,0 18.2963,4.13067 26.69146,11.37509c5.01713,4.31066 8.97758,11.98704 10.87461,21.03132c2.08839,10.0072 1.52261,19.28546 -1.75558,29.24766c-0.84035,2.5108 -1.73062,5.52556 -1.98855,8.7473c-0.19137,2.05184 0.23297,3.97768 0.63234,5.83153c0.14144,0.68395 0.30785,1.39489 0.42433,2.07883c0.32449,2.13283 0.77379,4.25666 1.19812,6.38949c0.83203,4.11267 1.67238,8.39633 1.88038,12.65299z"></path><path fill-rule="nonzero" fill="#000000" d="M93.586,102.02484c-0.42433,-2.07883 -0.84035,-4.15767 -1.17316,-6.2635c-0.14144,-0.73794 -0.28289,-1.49388 -0.4493,-2.23182c-0.37441,-1.70086 -0.6989,-3.29374 -0.58242,-4.86861c0.25793,-2.88877 1.08164,-5.67855 1.8471,-8.00936c3.41964,-10.36717 4.02702,-20.47336 1.8471,-30.94852c-2.03847,-9.68323 -6.37334,-17.98956 -11.8564,-22.73218c-8.87774,-7.64939 -19.23649,-12.04104 -28.42208,-12.04104h-3.49452c-9.21055,0 -19.5693,4.38265 -28.42208,12.04104c-5.50803,4.74262 -9.84289,13.04896 -11.8564,22.73218c-2.08839,9.9892 -1.58917,19.89741 1.47269,29.47264c0.34945,1.11591 0.82371,2.25882 1.3146,3.39273c0.68226,1.64687 1.38117,3.34773 1.68902,4.91361c0.6573,3.51872 -0.37441,7.73038 -1.35621,11.80706c-0.4909,2.02484 -0.95683,3.95068 -1.23972,5.77754c-1.33957,9.02628 -2.2964,20.77934 2.03847,31.83045c4.68432,11.93305 15.67541,19.00648 31.77515,20.42837c1.52261,0.15299 3.07018,0.22498 4.85072,0.20698h3.09514c1.58917,0 3.21163,-0.054 4.73424,-0.20698c12.77163,-1.11591 23.5464,-6.56048 29.54532,-14.92981c5.13361,-7.17243 7.00568,-18.82649 6.6063,-27.22282c-0.20801,-4.48164 -1.09828,-8.86429 -1.96359,-13.14795zM54.66372,154.50864h-3.27819c-1.47269,0 -2.97866,-0.054 -4.45135,-0.17999c-10.42531,-0.93593 -24.02065,-4.91361 -29.40387,-18.60151c-4.05198,-10.31317 -3.12011,-21.54428 -1.83046,-30.15659c0.23297,-1.70086 0.6989,-3.51872 1.17316,-5.47156c1.05668,-4.40965 2.17991,-8.97228 1.38117,-13.20194c-0.34945,-1.87185 -1.12324,-3.7527 -1.87206,-5.55256c-0.4493,-1.06192 -0.89027,-2.13283 -1.21476,-3.14075c-2.87882,-9.02628 -3.35307,-18.40353 -1.38117,-27.79878c1.89702,-9.04428 5.85748,-16.72966 10.87461,-21.03132c8.36188,-7.24442 18.08829,-11.37509 26.84955,-11.37509h3.27819c8.60317,0 18.2963,4.13067 26.69146,11.37509c5.01713,4.31066 8.97758,11.98704 10.87461,21.03132c2.08839,10.0072 1.52261,19.28546 -1.75558,29.24766c-0.84035,2.5108 -1.73062,5.52556 -1.98855,8.7473c-0.19137,2.05184 0.23297,3.97768 0.63234,5.83153c0.14144,0.68395 0.30785,1.39489 0.42433,2.07883c0.32449,2.13283 0.77379,4.25666 1.19812,6.38949c0.84035,4.13067 1.68902,8.41433 1.89702,12.67099c0.37441,7.57739 -1.35621,18.68251 -6.02388,25.18898c-5.50803,7.70338 -15.55893,12.72498 -27.55677,13.7869c-1.44773,0.11699 -3.02026,0.16199 -4.51791,0.16199z"></path></g><g style="mix-blend-mode: normal" text-anchor="none" font-size="none" font-weight="none" font-family="none" stroke-dashoffset="0" stroke-dasharray="" stroke-miterlimit="10" stroke-linejoin="miter" stroke-linecap="butt" stroke-width="1" stroke="none" fill-rule="nonzero" fill="none" data-paper-data="{&quot;selected&quot;:false}"><path fill="#ffffff" data-paper-data="{&quot;guideItem&quot;:null,&quot;selected&quot;:false}" d="M33.45533,3.98668c-2.72073,-1.08891 -5.74099,-1.3049 -8.8195,-0.26098c-4.13518,1.39489 -7.7545,4.28366 -10.75812,7.71238c-0.24961,0.26998 -0.43265,0.48596 -0.5325,0.60295c-0.94019,1.11591 -1.50597,2.4658 -1.71398,3.86969c-0.34113,2.33981 0.32449,4.83261 1.97191,6.59647c2.63753,2.82577 6.82263,2.71778 9.34368,-0.24298c0.00832,-0.009 0.00832,-0.009 0.01664,-0.018c0.74051,-0.86393 1.73894,-1.82685 2.82058,-2.70878c-0.00832,-0.036 -0.02496,-0.06299 -0.03328,-0.08999c3.13675,-2.69078 7.1388,-4.58063 10.16738,-1.2689c0.76547,0.83693 1.44773,1.74586 2.15495,2.63679c0.34945,0.44996 0.5741,0.89093 1.15652,0.97192c0.79043,0.10799 1.63078,-0.24298 2.338,-0.56695c0.66562,-0.31497 1.55589,-0.65695 2.09671,-1.16991c0.87363,-0.82793 0.24129,-2.62779 0.01664,-3.59071c-1.28964,-5.53456 -5.24178,-10.47516 -10.22563,-12.473z"></path><path fill="#000000" d="M46.50153,16.04572l-0.09152,-0.33297c-1.52261,-6.56048 -6.23189,-12.26602 -11.97288,-14.56983c-1.87206,-0.75594 -3.81901,-1.14291 -5.74099,-1.14291c-1.66406,0 -3.30315,0.27898 -4.90065,0.80994c-4.05198,1.39489 -7.92091,4.07667 -11.48199,8.00936c-0.16641,0.15299 -0.30785,0.33297 -0.46594,0.50396c-0.23297,0.27898 -0.4493,0.50396 -0.56578,0.62995c-1.28964,1.54788 -2.12999,3.41973 -2.41288,5.47156c-0.51586,3.39273 0.54082,6.83945 2.76233,9.22426c1.75558,1.89885 4.07694,2.94276 6.53974,2.94276c2.10503,0 4.16846,-0.80994 5.80756,-2.25882c0.34945,-0.27898 0.68226,-0.58495 0.98179,-0.93593v-0.027l0.06656,-0.054c0.63234,-0.75594 1.52261,-1.59287 2.4628,-2.38481l1.47269,-1.1879l-0.02496,-0.054c1.21476,-0.80994 2.34632,-1.2689 3.21163,-1.2689c0.68226,0 1.21476,0.27898 1.78054,0.86393c0.54082,0.61195 1.05668,1.2689 1.61413,1.97984l0.37441,0.50396l0.11648,0.15299c0.39937,0.53096 1.21476,1.64687 2.86218,1.87185c0.22465,0.045 0.43265,0.045 0.64066,0.045c1.19812,0 2.27144,-0.43197 3.13675,-0.83693l0.32449,-0.15299c0.77379,-0.33297 1.71398,-0.75594 2.5044,-1.52088c2.12167,-1.97084 1.32292,-4.9856 0.99843,-6.2815zM43.66431,20.0504c-0.54082,0.50396 -1.43109,0.86393 -2.08839,1.16991c-0.60738,0.27898 -1.33957,0.58495 -2.03847,0.58495c-0.09152,0 -0.20801,0 -0.30785,-0.027c-0.58242,-0.07199 -0.79875,-0.50396 -1.1482,-0.96292c-0.6989,-0.89093 -1.38117,-1.79986 -2.15495,-2.63679c-1.1482,-1.2689 -2.43784,-1.77286 -3.76909,-1.77286c-2.17991,0 -4.45135,1.36789 -6.3983,3.04176c0,0.027 0.02496,0.07199 0.02496,0.09899c-0.79875,0.65695 -1.57253,1.36789 -2.20487,2.05184c-0.20801,0.20698 -0.42433,0.43197 -0.60738,0.65695h-0.02496c-0.32449,0.37797 -0.68226,0.71094 -1.05668,1.01692c-0.37441,0.27898 -0.74883,0.53096 -1.17316,0.71094c-2.34632,1.08891 -5.15857,0.61195 -7.0972,-1.46688h-0.02496c-0.16641,-0.17999 -0.32449,-0.37797 -0.46594,-0.58495c-0.77379,-1.01692 -1.26468,-2.20482 -1.47269,-3.47372c-0.14144,-0.83693 -0.14144,-1.70086 -0.02496,-2.5378c0,-0.054 0.02496,-0.12599 0.04992,-0.17999c0.04992,-0.35097 0.11648,-0.68395 0.25793,-1.03492c0.02496,-0.20698 0.09152,-0.40497 0.19137,-0.58495c0.16641,-0.45896 0.39937,-0.89093 0.6573,-1.2959c0.16641,-0.27898 0.34945,-0.53096 0.56578,-0.78294c0.16641,-0.20698 0.54082,-0.62995 1.09828,-1.2149c0.11648,-0.12599 0.23297,-0.25198 0.37441,-0.37797l0.02496,-0.054c1.17316,-1.2689 2.48776,-2.4568 3.84397,-3.47372c1.83046,-1.36789 3.81901,-2.4838 5.949,-3.19474c1.35621,-0.45896 2.72073,-0.68395 4.05198,-0.68395c1.6391,0 3.25323,0.33297 4.7592,0.93593c4.99217,1.99784 8.95262,6.94744 10.24227,12.473c0.22465,0.96292 0.83203,2.76278 -0.03328,3.59971z"></path><path fill="#673101" data-paper-data="{&quot;guideItem&quot;:null,&quot;selected&quot;:false}" d="M25.78403,19.54644c-0.79875,0.65695 -1.57253,1.36789 -2.20487,2.05184c-0.20801,0.20698 -0.42433,0.43197 -0.60738,0.65695h-0.02496c-0.32449,0.37797 -0.68226,0.71094 -1.05668,1.01692c-0.37441,0.27898 -0.77379,0.50396 -1.17316,0.71094c-2.34632,1.08891 -5.15857,0.61195 -7.0972,-1.46688c-0.16641,-0.17999 -0.32449,-0.37797 -0.4909,-0.58495c-0.77379,-1.01692 -1.26468,-2.20482 -1.47269,-3.47372c-0.14144,-0.89093 -0.14144,-1.79986 0.02496,-2.70878c0.04992,-0.35097 0.11648,-0.68395 0.25793,-1.03492c0.02496,-0.20698 0.09152,-0.40497 0.19137,-0.58495c0.16641,-0.45896 0.39937,-0.89093 0.6573,-1.2959c0.16641,-0.27898 0.34945,-0.53096 0.56578,-0.78294c0.16641,-0.20698 0.54082,-0.62995 1.09828,-1.2149c0.11648,-0.12599 0.23297,-0.25198 0.37441,-0.37797c0.14144,-0.15299 0.28289,-0.27898 0.42433,-0.43197c-0.14144,0.12599 -0.25793,0.25198 -0.39937,0.37797c1.17316,-1.2689 2.48776,-2.4568 3.84397,-3.47372c0.11648,0.027 0.23297,0.054 0.32449,0.12599c0.14144,0.027 0.25793,0.07199 0.37441,0.12599c0.04992,0.027 0.06656,0.054 0.09152,0.054c0.11648,0.07199 0.23297,0.12599 0.32449,0.20698c0.30785,0.22498 0.56578,0.53096 0.77379,0.89093c0.37441,0.65695 0.51586,1.52088 0.32449,2.35781c-0.16641,0.71094 -0.56578,1.2419 -1.05668,1.64687c0.56578,-0.33297 1.21476,-0.45896 1.87206,-0.27898c1.40613,0.43197 2.27144,2.05184 1.89702,3.65371c-0.19137,0.78294 -0.63234,1.39489 -1.21476,1.79986c0.4909,-0.17999 1.00675,-0.27898 1.52261,-0.12599c0.94019,0.27898 1.58917,1.11591 1.83046,2.07883c0,0 0.02496,0.054 0.02496,0.08099z"></path></g><g style="mix-blend-mode: normal" text-anchor="none" font-size="none" font-weight="none" font-family="none" stroke-dashoffset="0" stroke-dasharray="" stroke-miterlimit="10" stroke-linejoin="miter" stroke-linecap="butt" stroke-width="1" stroke="none" fill-rule="nonzero" fill="none" data-paper-data="{&quot;selected&quot;:false}"><path fill="#ffffff" data-paper-data="{&quot;guideItem&quot;:null,&quot;selected&quot;:false}" d="M94.25162,15.91073c-0.20801,-1.40389 -0.77379,-2.76278 -1.71398,-3.86969c-0.09984,-0.11699 -0.29121,-0.33297 -0.5325,-0.60295c-3.00362,-3.41973 -6.61462,-6.3085 -10.75812,-7.71238c-3.07018,-1.03492 -6.09877,-0.82793 -8.8195,0.26098c-4.98385,1.99784 -8.93598,6.93844 -10.23395,12.464c-0.22465,0.96292 -0.85699,2.77178 0.01664,3.59071c0.54082,0.51296 1.42277,0.85493 2.09671,1.16991c0.70722,0.33297 1.53925,0.67495 2.338,0.56695c0.58242,-0.08099 0.80707,-0.52196 1.15652,-0.97192c0.6989,-0.89093 1.38949,-1.79986 2.15495,-2.63679c3.02858,-3.31174 7.03064,-1.42189 10.16738,1.2689c-0.00832,0.036 -0.02496,0.06299 -0.03328,0.08999c1.08164,0.89093 2.08007,1.85385 2.82058,2.70878c0.00832,0.009 0.00832,0.009 0.01664,0.018c2.52105,2.96076 6.70615,3.06875 9.34368,0.24298c1.65574,-1.75486 2.32136,-4.23866 1.98023,-6.58747z"></path><path fill="#000000" d="M97.01395,15.43377c-0.28289,-2.05184 -1.12324,-3.93269 -2.38792,-5.44456c-0.14144,-0.15299 -0.34945,-0.37797 -0.60738,-0.68395c-0.4909,-0.55796 -1.00675,-1.11591 -1.52261,-1.59287c-3.25323,-3.34773 -6.74775,-5.65155 -10.40035,-6.89345c-1.58917,-0.53096 -3.23659,-0.80994 -4.87568,-0.80994c-1.94695,0 -3.88557,0.37797 -5.76595,1.14291c-5.74099,2.30382 -10.45027,8.00936 -11.97288,14.56983l-0.09152,0.33297c-0.32449,1.2959 -1.12324,4.31066 0.98179,6.2815c0.79875,0.75594 1.73062,1.1879 2.5044,1.52088l0.32449,0.15299c0.86531,0.40497 1.94695,0.83693 3.13675,0.83693c0.20801,0 0.42433,0 0.6573,-0.027c1.61413,-0.22498 2.43784,-1.34089 2.83722,-1.87185l0.11648,-0.15299l0.39937,-0.50396c0.54082,-0.71094 1.05668,-1.36789 1.58917,-1.97984c0.56578,-0.58495 1.09828,-0.86393 1.78054,-0.86393c0.86531,0 1.98855,0.45896 3.21163,1.2689l-0.02496,0.054l1.47269,1.1879c0.95683,0.78294 1.83046,1.61987 2.4628,2.38481c1.43109,1.67387 3.32811,2.76278 5.36658,3.11375c0.4909,0.09899 0.98179,0.15299 1.49765,0.15299c2.4628,0 4.78416,-1.03492 6.53974,-2.94276c2.23816,-2.38481 3.28651,-5.83153 2.77065,-9.23326zM92.27971,22.5072c-1.97191,2.07883 -4.77584,2.5558 -7.12216,1.46688c-0.42433,-0.17999 -0.79875,-0.43197 -1.17316,-0.71094c-0.37441,-0.30598 -0.72386,-0.62995 -1.05668,-1.01692c-0.56578,-0.62995 -1.26468,-1.34089 -2.01351,-1.99784c-0.25793,-0.25198 -0.54082,-0.48596 -0.82371,-0.71094c0,-0.027 0.02496,-0.07199 0.02496,-0.09899c-1.94695,-1.67387 -4.21838,-3.04176 -6.3983,-3.04176c-1.33957,0 -2.62089,0.50396 -3.76909,1.77286c-0.77379,0.83693 -1.45605,1.74586 -2.15495,2.63679c-0.34945,0.45896 -0.56578,0.89093 -1.1482,0.96292c-0.09152,0.027 -0.20801,0.027 -0.30785,0.027c-0.6989,0 -1.40613,-0.30598 -2.03847,-0.58495c-0.6573,-0.30598 -1.54757,-0.65695 -2.08839,-1.16991c-0.86531,-0.83693 -0.23297,-2.63679 -0.02496,-3.59971c1.28964,-5.52556 5.2501,-10.46616 10.24227,-12.473c1.49765,-0.61195 3.12011,-0.93593 4.77584,-0.93593c1.3146,0 2.67081,0.22498 4.02702,0.68395c2.12999,0.71094 4.12686,1.82685 5.97396,3.22174c1.33957,1.01692 2.60425,2.15083 3.75245,3.39273c0.16641,0.17999 0.32449,0.33297 0.46594,0.48596c0.56578,0.58495 0.94019,1.01692 1.09828,1.2149c0.23297,0.27898 0.4493,0.58495 0.63234,0.89093c0.16641,0.27898 0.32449,0.55796 0.46594,0.86393c0,0.027 0.02496,0.054 0.02496,0.07199c0.14144,0.33297 0.25793,0.65695 0.34945,1.01692c0.11648,0.33297 0.19137,0.68395 0.23297,1.03492c0.34945,2.36681 -0.29953,4.85061 -1.94695,6.59647z"></path><path fill="#673101" data-paper-data="{&quot;guideItem&quot;:null,&quot;selected&quot;:false}" d="M92.27971,22.5072c-1.97191,2.07883 -4.77584,2.5558 -7.12216,1.46688c-0.39937,-0.20698 -0.79875,-0.43197 -1.17316,-0.71094c-0.37441,-0.30598 -0.72386,-0.62995 -1.05668,-1.01692c-0.56578,-0.62995 -1.26468,-1.34089 -2.01351,-1.99784c-0.25793,-0.25198 -0.54082,-0.48596 -0.82371,-0.71094c0,-0.027 0.02496,-0.07199 0.02496,-0.09899c0.25793,-0.96292 0.89027,-1.79986 1.8471,-2.07883c0.51586,-0.15299 1.00675,-0.054 1.49765,0.12599c-0.58242,-0.40497 -1.03171,-1.01692 -1.21476,-1.79986c-0.37441,-1.59287 0.4909,-3.22174 1.89702,-3.65371c0.6573,-0.17999 1.3146,-0.054 1.87206,0.27898c-0.4909,-0.40497 -0.89027,-0.93593 -1.05668,-1.64687c-0.34945,-1.46688 0.34945,-2.96976 1.57253,-3.50072c0.09152,-0.054 0.20801,-0.09899 0.32449,-0.12599c0.09152,-0.027 0.20801,-0.07199 0.34945,-0.09899c1.33957,1.01692 2.60425,2.15083 3.75245,3.39273c0.16641,0.17999 0.32449,0.33297 0.46594,0.48596c0.56578,0.58495 0.94019,1.01692 1.09828,1.2149c0.23297,0.27898 0.4493,0.58495 0.63234,0.89093c0.16641,0.27898 0.32449,0.55796 0.46594,0.86393c0,0.027 0.02496,0.054 0.02496,0.07199c0.14144,0.33297 0.25793,0.65695 0.34945,1.01692c0.11648,0.33297 0.19137,0.68395 0.23297,1.03492c0.34945,2.36681 -0.29953,4.85061 -1.94695,6.59647z"></path></g>
               </svg>