<svg viewBox="0 0 101 200" xml:space="preserve" xmlns:xlink="http://www.w3.org/1999/xlink" xmlns="http://www.w3.org/2000/svg">
                    <g style="mix-blend-mode: normal" text-anchor="none" font-size="none" font-weight="none" font-family="none" stroke-dashoffset="0" stroke-dasharray="" stroke-miterlimit="10" stroke-linejoin="miter" stroke-linecap="butt" stroke-width="1" stroke="none" fill-rule="nonzero" fill="none" data-paper-data="{&quot;selected&quot;:false}"><path fill="#ffffff" data-paper-data="{&quot;guideItem&quot;:null,&quot;selected&quot;:false}" d="M72.53538,16.41536c-2.0475,2.55232 -5.84683,3.03088 -8.47087,1.07866c-0.09609,-0.07596 -0.19218,-0.15192 -0.31784,-0.25067c-0.19218,-0.12154 -0.36219,-0.25067 -0.5322,-0.37221c-0.07392,-0.07596 -0.17001,-0.12154 -0.24393,-0.17471c-0.65786,-0.54693 -1.26398,-1.02549 -1.82575,-1.42808v-0.03038c-0.94614,-0.67606 -1.77401,-1.15462 -2.53535,-1.15462c-0.58394,0 -1.12354,0.27346 -1.67791,0.94952c-1.31572,1.6028 -0.77613,3.30434 -2.5797,3.60059c-0.92396,0.17471 -1.77401,0.52414 -2.40969,0.52414c-0.41393,0 -0.73178,-0.15192 -0.92396,-0.57731c-1.5079,-3.22838 -0.39176,-8.48494 1.5079,-11.33351c1.12354,-1.67876 2.77927,-2.82578 4.70111,-3.52463c1.38964,-0.50135 2.65362,-0.72923 3.8215,-0.72923c0.51003,0 0.99788,0.05317 1.48573,0.12154c0.41393,0.07596 0.80569,0.17471 1.19006,0.30385c1.12354,0.32664 2.16576,0.87356 3.25973,1.58001h0.02218c1.41181,0.90395 2.8458,2.02818 4.47936,3.22838c2.63144,1.9826 3.09712,5.63637 1.04962,8.18869z"></path><path fill="#000000" data-paper-data="{&quot;guideItem&quot;:null,&quot;selected&quot;:false}" d="M61.30741,15.44305c0.29567,0.22789 0.99788,0.75202 1.65574,1.25337c-0.65786,-0.54693 -1.26398,-1.02549 -1.82575,-1.42808c0.05174,0.04558 0.10348,0.09875 0.17001,0.17471z"></path><path fill="#000000" d="M76.65255,11.73611c-0.29567,-2.37761 -1.5079,-4.48175 -3.42974,-5.90224l-0.73178,-0.57731c-3.74759,-2.82578 -6.98515,-5.25656 -11.44233,-5.25656c-1.55965,0 -3.14147,0.30385 -4.81938,0.90395c-2.65362,0.97231 -4.70111,2.55232 -6.11293,4.65646c-2.40969,3.65377 -3.74759,9.98139 -1.75183,14.31122c0.65786,1.45087 1.99576,2.30164 3.57758,2.30164c0.75395,0 1.43399,-0.17471 2.0475,-0.34942c0.2661,-0.07596 0.56177,-0.15192 0.85004,-0.1975c2.74971,-0.50135 3.53323,-2.65107 3.89542,-3.67655c0.07392,-0.25067 0.14783,-0.42539 0.22175,-0.6001c0.48785,0.32664 1.16789,0.87356 1.70748,1.29895c0.5322,0.4026 1.09397,0.85077 1.70748,1.29895c1.55965,1.15462 3.40757,1.75472 5.35897,1.75472c2.77927,0 5.35897,-1.22299 7.08863,-3.3803c1.46355,-1.87626 2.12141,-4.20829 1.83314,-6.58589zM72.53538,16.41536c-2.0475,2.55232 -5.84683,3.03088 -8.47087,1.07866c-0.09609,-0.07596 -0.19218,-0.15192 -0.31784,-0.25067c-0.19218,-0.12154 -0.36219,-0.25067 -0.5322,-0.37221c-0.07392,-0.07596 -0.17001,-0.12154 -0.24393,-0.17471c-0.65786,-0.50135 -1.36007,-1.02549 -1.65574,-1.25337c-0.07392,-0.07596 -0.11827,-0.12154 -0.17001,-0.17471v-0.03038c-0.94614,-0.67606 -1.77401,-1.15462 -2.53535,-1.15462c-0.58394,0 -1.12354,0.27346 -1.67791,0.94952c-1.31572,1.6028 -0.77613,3.30434 -2.5797,3.60059c-0.92396,0.17471 -1.77401,0.52414 -2.40969,0.52414c-0.41393,0 -0.73178,-0.15192 -0.92396,-0.57731c-1.5079,-3.22838 -0.39176,-8.48494 1.5079,-11.33351c1.12354,-1.67876 2.77927,-2.82578 4.70111,-3.52463c1.38964,-0.50135 2.65362,-0.72923 3.8215,-0.72923c0.51003,0 0.99788,0.05317 1.48573,0.12154c0.41393,0.07596 0.80569,0.17471 1.19006,0.30385c1.12354,0.32664 2.16576,0.87356 3.25973,1.58001h0.02218c1.41181,0.90395 2.8458,2.02818 4.47936,3.22838c2.63144,1.9826 3.09712,5.63637 1.04962,8.18869z"></path><path fill="#683100" data-paper-data="{&quot;guideItem&quot;:null,&quot;selected&quot;:false}" d="M72.53538,16.41536c-2.0475,2.55232 -5.84683,3.03088 -8.47087,1.07866c-0.09609,-0.07596 -0.19218,-0.15192 -0.31784,-0.25067c-0.17001,-0.09875 -0.34002,-0.25067 -0.5322,-0.37221c-0.07392,-0.07596 -0.17001,-0.12154 -0.24393,-0.17471c-0.65786,-0.50135 -1.36007,-1.02549 -1.65574,-1.25337c-0.07392,-0.07596 -0.11827,-0.12154 -0.17001,-0.17471v-0.03038c-0.24393,-0.50135 0.7096,-1.10145 1.46355,-1.3977c0.43611,-0.1975 0.90179,-0.1975 1.36007,-0.12154c-0.58394,-0.22789 -1.04962,-0.65327 -1.31572,-1.22299c-0.5322,-1.2002 0.05174,-2.57511 1.26398,-3.07646c0.58394,-0.25067 1.19006,-0.22789 1.72966,-0.05317c-0.48785,-0.25067 -0.92396,-0.62289 -1.14571,-1.15462c-0.5322,-1.17741 0.41393,-2.52953 1.65574,-3.05367c0.09609,-0.05317 0.58394,-0.17471 0.82787,-0.15192h0.02218c1.41181,0.90395 2.8458,2.02818 4.47936,3.22838c2.63144,1.97501 3.09712,5.62877 1.04962,8.18109z"></path></g><g style="mix-blend-mode: normal" text-anchor="none" font-size="none" font-weight="none" font-family="none" stroke-dashoffset="0" stroke-dasharray="" stroke-miterlimit="10" stroke-linejoin="miter" stroke-linecap="butt" stroke-width="1" stroke="none" fill-rule="none" fill="none" data-paper-data="{&quot;selected&quot;:false}"><path fill-rule="evenodd" fill="#0088c5" data-paper-data="{&quot;guideItem&quot;:null,&quot;selected&quot;:false}" d="M52.38564,179.41433c1.84792,3.90444 1.89966,8.58369 0.11827,12.53371c-0.94614,2.14972 -3.62932,4.90714 -6.11293,4.778c-3.62932,-0.1975 -5.69899,-3.63098 -7.69475,-6.22887l-6.71904,-8.78119l-2.16576,-2.80299c-1.26398,-1.67876 -0.99788,-4.10194 0.63569,-5.43127l6.03901,-4.90714c2.60187,-2.95492 6.64513,-7.7785 8.64088,-11.31072l-0.43611,0.87356l8.50044,5.12743c-1.604,2.82578 -3.5554,5.65156 -5.79508,8.43177c-0.60612,0.75202 -0.39176,1.85347 0.46568,2.32443c1.26398,0.72923 2.91972,2.18011 4.43501,5.15781c-0.01478,0.06077 0.0887,0.23548 0.0887,0.23548z"></path><path fill-rule="evenodd" fill="#0088c5" data-paper-data="{&quot;guideItem&quot;:null,&quot;selected&quot;:false}" d="M54.93577,159.99848l-0.82787,1.6028c0.29567,-0.54693 0.56177,-1.07866 0.77613,-1.62558z"></path><path fill-rule="nonzero" fill="#ffffff" data-paper-data="{&quot;guideItem&quot;:null,&quot;selected&quot;:false}" d="M54.89142,159.97569c-0.22175,0.54693 -0.48785,1.07866 -0.77613,1.62558c-0.29567,0.54693 -0.60612,1.12424 -0.92396,1.67876l-8.50044,-5.12743l0.43611,-0.87356l0.36219,-0.69885c4.23544,-8.23427 5.28506,-16.5369 3.16364,-24.6952c-0.48785,-1.85347 -0.02218,-3.65377 1.2418,-4.95271c1.3379,-1.37491 3.33365,-1.95222 5.08548,-1.45087c1.604,0.42539 2.77927,1.67876 3.23756,3.42588c2.71275,10.42197 1.61878,20.85913 -3.32626,31.0684z"></path><path fill-rule="nonzero" fill="#ffffff" data-paper-data="{&quot;guideItem&quot;:null,&quot;selected&quot;:false}" d="M54.10791,161.60128l-0.90179,1.70155l-0.02218,-0.02279c0.31784,-0.55452 0.63569,-1.13183 0.92396,-1.67876z"></path><path fill-rule="nonzero" fill="#000000" d="M53.72354,125.28391c0.42872,0 0.85004,0.05317 1.26398,0.16712c1.604,0.44058 2.77927,1.70155 3.23756,3.44867c2.72014,10.42956 1.55965,20.85913 -3.34843,31.05321l0.06653,0.03798l-0.82787,1.5876v0l-0.89439,1.71674l-0.05174,-0.03038c-1.63356,2.87136 -3.58497,5.71993 -5.83204,8.51533c-0.57655,0.71404 -0.37698,1.76991 0.42872,2.20289c1.27137,0.69125 2.99363,2.14212 4.5311,5.21098c0.01478,0.03798 0.09609,0.22029 0.09609,0.22029c1.86271,3.91204 1.90706,8.59129 0.12566,12.5413c-0.93874,2.08895 -3.50366,4.77041 -5.94292,4.77041c-0.05913,0 -0.11088,0 -0.17001,-0.0076c-3.63671,-0.18231 -5.69899,-3.62338 -7.69475,-6.22887l-6.73383,-8.7736l-2.19533,-2.86376c-1.26398,-1.64837 -0.99049,-4.03358 0.61351,-5.33252l6.08336,-4.92233c0.01478,-0.0076 0.02218,-0.02279 0.03696,-0.03038c2.77188,-3.16761 7.16255,-8.43177 8.99568,-12.00198v0c4.22065,-8.21907 5.27767,-16.5293 3.14886,-24.6952c-0.48046,-1.83828 -0.02218,-3.63857 1.25659,-4.95271c1.01266,-1.04827 2.41708,-1.63318 3.80672,-1.63318M53.72354,122.28341c-2.18794,0 -4.33153,0.91914 -5.88378,2.51434c-2.00315,2.05857 -2.74971,4.99069 -2.01054,7.84686c1.92923,7.41388 0.95353,14.99487 -2.91233,22.52269c-1.26398,2.45357 -4.25022,6.43397 -8.43392,11.22716l-5.89857,4.778c-1.38964,1.12424 -2.26925,2.73463 -2.47622,4.54252c-0.20697,1.8003 0.28088,3.5854 1.37485,5.00589l2.19533,2.86376l6.73383,8.7736c0.23653,0.30385 0.46568,0.62289 0.7096,0.94193c1.93662,2.61309 4.59024,6.19089 9.13613,6.42637c0.10348,0.0076 0.20697,0.0076 0.31045,0.0076c4.12456,0 7.45821,-3.99559 8.59653,-6.50993c2.14359,-4.76281 2.08446,-10.41437 -0.15523,-15.11641l-0.0887,-0.1899c-1.38225,-2.76501 -2.9345,-4.48935 -4.27979,-5.55281c1.75922,-2.29405 3.34843,-4.65646 4.73807,-7.04167c0.15523,-0.17471 0.29567,-0.37221 0.40654,-0.58491l0.89439,-1.71674c0,-0.0076 0.00739,-0.0076 0.00739,-0.01519l0.82048,-1.57241c0.12566,-0.24308 0.21436,-0.49375 0.27349,-0.74443c4.99678,-10.71062 6.09814,-21.65673 3.25973,-32.54206c-0.72439,-2.77261 -2.70536,-4.86156 -5.29984,-5.5756c-0.65047,-0.1975 -1.3305,-0.28866 -2.01793,-0.28866z"></path></g><g style="mix-blend-mode: normal" text-anchor="none" font-size="none" font-weight="none" font-family="none" stroke-dashoffset="0" stroke-dasharray="" stroke-miterlimit="10" stroke-linejoin="miter" stroke-linecap="butt" stroke-width="1" stroke="none" fill-rule="none" fill="none" data-paper-data="{&quot;selected&quot;:false}"><path fill-rule="nonzero" fill="#ffffff" data-paper-data="{&quot;guideItem&quot;:null,&quot;selected&quot;:false}" d="M41.68987,162.39888l-10.17835,0.32664l-0.77613,-26.95127c-0.05174,-2.00539 4.6272,-3.75252 6.57121,-3.82848c1.92184,-0.05317 3.5554,1.52683 3.60714,3.50184z"></path><path fill-rule="evenodd" fill="#009ff9" data-paper-data="{&quot;guideItem&quot;:null,&quot;selected&quot;:false}" d="M62.24615,193.70276c-2.50578,3.12963 -6.71904,2.74982 -10.20053,2.85617l-11.70843,0.37221l-2.53535,0.07596c-2.0475,0.05317 -5.32941,-1.54962 -5.38115,-3.63098l-0.80569,-27.39945l-0.09609,-3.25117l10.17835,-0.32664h0.02218l0.48785,16.81796c0,0 2.3136,-3.12963 9.03264,-2.00539c0.05174,0.02279 0.24393,0.05317 0.24393,0.05317c4.50154,0.85077 8.47087,3.82848 10.66621,7.9608c1.16789,2.22568 1.79618,6.35041 0.09609,8.47734z"></path><path fill-rule="nonzero" fill="#000000" d="M37.41008,131.96096c1.89227,0 3.45931,1.54962 3.51105,3.50184l0.78352,26.94367l0.48785,16.80277c0,0 1.66313,-2.23328 6.25337,-2.23328c0.83526,0 1.75922,0.07596 2.79406,0.25067c0.04435,0.0076 0.24393,0.05317 0.24393,0.05317c4.49415,0.85837 8.46348,3.82088 10.65142,7.93802c1.18267,2.23328 1.79618,6.3656 0.09609,8.50013c-2.491,3.11444 -6.71165,2.74982 -10.18575,2.85617l-11.71583,0.35702l-2.53535,0.07596c-0.03696,0 -0.07392,0 -0.11827,0c-2.04011,0 -5.19636,-1.58001 -5.25549,-3.63098l-0.887,-30.65061v0l-0.78352,-26.94367c-0.05913,-1.9978 4.61981,-3.75252 6.55643,-3.81329c0.03696,-0.0076 0.07392,-0.0076 0.10348,-0.0076M37.41008,128.95287v0c-0.02957,0 -0.16262,0 -0.19218,0c-1.44138,0.04558 -3.48888,0.62289 -5.21114,1.48126c-3.53323,1.75472 -4.22805,3.91963 -4.1837,5.42368l0.78352,26.94367l0.887,30.65061c0.11827,4.05636 4.84156,6.54791 8.17521,6.54791c0.02957,0 0.1774,0 0.20697,0l2.53535,-0.07596l11.71583,-0.35702c0.40654,-0.01519 0.82787,-0.01519 1.2492,-0.02279c3.40018,-0.04558 8.05694,-0.10635 11.10971,-3.92723c2.69797,-3.37271 1.74444,-8.9559 0.21436,-11.84246c-2.60187,-4.89954 -7.34734,-8.43177 -12.68414,-9.44966l-0.20697,-0.04558c-1.23441,-0.21269 -2.32838,-0.30385 -3.37061,-0.30385c-1.32311,0 -2.47622,0.15952 -3.4667,0.4026l-0.34741,-12.05515l-0.78352,-26.94367c-0.09609,-3.60819 -2.92711,-6.42637 -6.43077,-6.42637z"></path></g><g style="mix-blend-mode: normal" text-anchor="none" font-size="none" font-weight="none" font-family="none" stroke-dashoffset="0" stroke-dasharray="" stroke-miterlimit="10" stroke-linejoin="miter" stroke-linecap="butt" stroke-width="1" stroke="none" fill-rule="nonzero" fill="none" data-paper-data="{&quot;selected&quot;:false}"><path fill="#ffffff" data-paper-data="{&quot;guideItem&quot;:null,&quot;selected&quot;:false}" d="M83.87423,110.13711c-1.21224,-5.39329 -1.11614,-10.7562 -1.09397,-16.49132c0.00739,-2.53713 0.19958,-11.7513 -4.76764,-9.66995c-1.79618,0.75202 -2.55752,3.62338 -3.17103,5.30973c-1.3305,3.66896 -2.10663,7.48984 -2.35795,11.31832c-0.28088,4.29185 0.10348,8.5685 0.9757,12.72361c2.60927,-1.32174 6.24598,-2.69665 10.41489,-3.1904z"></path><path fill="#0088c5" data-paper-data="{&quot;guideItem&quot;:null,&quot;selected&quot;:false}" d="M92.81818,127.12978c-0.04435,-0.05317 -0.09609,-0.09875 -0.14044,-0.15192c-1.22702,-1.34453 -2.28403,-2.67386 -3.23017,-4.02598c-1.35268,-1.93703 -2.46143,-3.92723 -3.40757,-6.13772c-0.46568,-1.08625 -0.89439,-2.22568 -1.29355,-3.44107c-0.3548,-1.07866 -0.63569,-2.15732 -0.87222,-3.23598c-4.16891,0.49375 -7.80562,1.86866 -10.4075,3.1904c0.42133,2.01299 0.95353,3.99559 1.5966,5.94022c1.84053,5.53762 4.33153,11.7589 8.32304,16.11911c1.94401,2.11934 4.98939,3.20559 7.93867,2.37001c0.61351,-0.17471 1.19745,-0.4026 1.6853,-0.66087c1.80357,-0.94952 3.25234,-2.65107 3.20799,-4.67925c-0.00739,-0.4026 -0.09609,-0.77481 -0.20697,-1.13183c-0.5322,-1.66356 -2.04011,-2.87895 -3.19321,-4.15511z"></path><path fill="#000000" d="M79.35052,83.672c3.58497,0 3.42974,7.69494 3.42235,9.97379c-0.02218,5.73512 -0.11088,11.09803 1.10136,16.49132c0.24393,1.07866 0.51742,2.14972 0.87222,3.23598c0.39915,1.20779 0.82787,2.35482 1.29355,3.44107c0.94614,2.21049 2.05489,4.20069 3.40757,6.13772c0.94614,1.35212 2.00315,2.68145 3.23017,4.02598c0.04435,0.05317 0.09609,0.10635 0.14044,0.15192c1.1531,1.28376 2.66101,2.49915 3.19321,4.15511c0.11088,0.35702 0.19958,0.72923 0.20697,1.13183c0.04435,2.02818 -1.40442,3.72973 -3.20799,4.67925c-0.49524,0.25827 -1.07179,0.48616 -1.6853,0.66087c-0.67264,0.1899 -1.35268,0.28106 -2.02532,0.28106c-2.26186,0 -4.41284,-1.01789 -5.91335,-2.65107c-3.9989,-4.36021 -6.48251,-10.58149 -8.32304,-16.11911c-0.64308,-1.94462 -1.17528,-3.92723 -1.5966,-5.94022c-0.87961,-4.15511 -1.25659,-8.42417 -0.9757,-12.72361c0.25132,-3.82848 1.02744,-7.64936 2.35795,-11.31832c0.61351,-1.68635 1.36746,-4.55012 3.16364,-5.30973c0.49524,-0.2051 0.93874,-0.30385 1.3379,-0.30385M79.35052,80.6715c-0.79091,0 -1.61139,0.17471 -2.44665,0.52414c-2.78667,1.16981 -3.85846,4.31463 -4.57546,6.39599l-0.22175,0.64568c-1.41181,3.88925 -2.26186,7.98359 -2.53535,12.16909c-0.28828,4.383 0.06653,8.94071 1.03484,13.55919c0.45089,2.14972 1.02005,4.26146 1.6927,6.27445c1.80357,5.42368 4.4498,12.28303 8.96612,17.20536c2.09924,2.28645 5.02635,3.593 8.03477,3.593c0.94614,0 1.88488,-0.12914 2.79406,-0.38741c0.79091,-0.22029 1.57443,-0.53173 2.24707,-0.88116c3.0232,-1.5876 4.86373,-4.43617 4.79721,-7.42147c-0.01478,-0.65327 -0.13305,-1.30654 -0.3548,-1.9978c-0.62829,-1.95982 -1.98097,-3.34232 -3.06016,-4.45896c-0.25871,-0.26587 -0.51742,-0.53173 -0.76134,-0.7976l-0.15523,-0.16712c-1.10875,-1.21539 -2.08446,-2.43838 -2.98624,-3.72973c-1.22702,-1.75472 -2.23968,-3.5854 -3.10451,-5.59079c-0.42872,-1.0027 -0.82048,-2.04337 -1.20485,-3.19799c-0.28088,-0.85077 -0.5322,-1.7851 -0.79091,-2.93972c-1.07179,-4.75521 -1.04962,-9.66235 -1.02744,-14.85814l0.00739,-0.94193v-0.22029c0.02218,-4.15511 -0.27349,-8.72802 -2.63883,-11.16639c-1.01266,-1.05587 -2.29142,-1.61039 -3.71063,-1.61039z"></path></g><g style="mix-blend-mode: normal" text-anchor="none" font-size="none" font-weight="none" font-family="none" stroke-dashoffset="0" stroke-dasharray="" stroke-miterlimit="10" stroke-linejoin="miter" stroke-linecap="butt" stroke-width="1" stroke="none" fill-rule="nonzero" fill="none" data-paper-data="{&quot;selected&quot;:false}"><path fill="#ffffff" data-paper-data="{&quot;guideItem&quot;:null,&quot;selected&quot;:false}" d="M22.82628,6.67705c2.35056,0.30385 4.5311,1.2002 6.25337,2.90174c2.94928,2.91694 5.16679,6.47955 4.39805,10.80178c-0.2661,1.50404 -2.6684,2.83338 -4.4498,2.94732c-2.11402,0.13673 -1.98097,-1.45087 -3.90281,-3.02328c-2.76449,-2.25607 -4.30935,1.16981 -7.31777,5.00589c-2.41708,3.10684 -6.81514,3.60819 -9.82355,1.10145c-3.00842,-2.49915 -3.51844,-7.02647 -1.13093,-10.14851c4.61241,-6.01618 8.75176,-10.51312 15.97344,-9.58639z"></path><path fill="#000000" data-paper-data="{&quot;guideItem&quot;:null,&quot;selected&quot;:false}" d="M18.63519,24.22424c0.68004,-0.85077 1.38964,-1.77751 1.67791,-2.18011c0.05174,-0.05317 0.09609,-0.12154 0.09609,-0.1975c-0.55438,0.69885 -1.11614,1.50404 -1.77401,2.37761z"></path><path fill="#000000" d="M31.10497,7.41388c-2.06967,-2.05097 -4.74546,-3.30434 -7.9165,-3.70694c-0.75395,-0.09875 -1.48573,-0.15192 -2.21751,-0.15192c-7.473,0 -12.02628,5.12743 -16.40955,10.86255c-3.36322,4.40579 -2.65362,10.83216 1.58182,14.3416c1.75183,1.45087 3.96934,2.27886 6.20902,2.27886c3.01581,0 5.84683,-1.3977 7.74649,-3.82848c0.5322,-0.69885 1.04962,-1.3977 1.5079,-2.05097c0.58394,-0.7976 1.3379,-1.82308 1.84792,-2.35482c0.34002,0.30385 0.58394,0.62289 0.85004,1.0027c0.7096,0.94952 1.87749,2.55232 4.47936,2.55232c0.11827,0 0.2661,0 0.41393,-0.02279c2.53535,-0.15192 6.54904,-1.97501 7.15515,-5.40848c0.83526,-4.70964 -0.93874,-9.23696 -5.2481,-13.51362zM33.46292,20.39576c-0.2661,1.50404 -2.65362,2.82578 -4.43501,2.92453c-0.09609,0.02279 -0.17001,0.02279 -0.24393,0.02279c-1.87749,0 -1.82575,-1.52683 -3.67367,-3.03088c-0.60612,-0.50135 -1.16789,-0.72923 -1.67791,-0.72923c-1.04962,0 -1.97358,0.90395 -3.01581,2.22568c0.02218,0.03798 0.02218,0.03798 -0.00739,0.03798c0,0.07596 -0.05174,0.15192 -0.09609,0.1975c-0.29567,0.4026 -0.99788,1.32933 -1.67791,2.18011c-0.29567,0.42539 -0.60612,0.7976 -0.82787,1.10145c-2.43187,3.09924 -6.81514,3.60059 -9.83834,1.10145c-2.99363,-2.49915 -3.50366,-7.03407 -1.12354,-10.1561c0.05174,-0.07596 0.11827,-0.15192 0.19218,-0.27346c1.41181,-1.8003 2.77927,-3.47905 4.19109,-4.87675c2.74971,-2.74982 5.74334,-4.55771 9.74225,-4.55771c0.60612,0 1.21963,0.05317 1.84792,0.12154c2.36534,0.30385 4.5311,1.2002 6.26076,2.90174c2.94928,2.90174 5.1594,6.47955 4.38327,10.80937z"></path><path fill="#683100" data-paper-data="{&quot;guideItem&quot;:null,&quot;selected&quot;:false}" d="M20.4092,21.82384c0.02957,0.02279 0.02957,0.02279 0,0.02279c0,0.07596 -0.05174,0.15192 -0.09609,0.1975c-0.29567,0.4026 -0.99788,1.32933 -1.67791,2.18011c-0.29567,0.42539 -0.60612,0.7976 -0.82787,1.10145c-2.43187,3.09924 -6.81514,3.60059 -9.83834,1.10145c-2.99363,-2.49915 -3.50366,-7.03407 -1.12354,-10.1561c0.05174,-0.07596 0.11827,-0.15192 0.19218,-0.27346c1.41181,-1.8003 2.77927,-3.47905 4.19109,-4.87675c0.19218,-0.02279 0.65786,-0.12154 0.75395,-0.09875c1.53747,0.27346 2.99363,1.64837 2.72753,3.22838c-0.11827,0.69885 -0.48785,1.27616 -0.9757,1.70155c0.56177,-0.37221 1.2418,-0.54693 1.95141,-0.42539c1.5079,0.27346 2.55752,1.75472 2.29142,3.34992c-0.11827,0.77481 -0.56177,1.42808 -1.12354,1.85347c0.48785,-0.22789 1.02005,-0.34942 1.55965,-0.25067c0.95353,0.14433 2.23968,0.64568 1.99576,1.34453z"></path></g><g style="mix-blend-mode: normal" text-anchor="none" font-size="none" font-weight="none" font-family="none" stroke-dashoffset="0" stroke-dasharray="" stroke-miterlimit="10" stroke-linejoin="miter" stroke-linecap="butt" stroke-width="1" stroke="none" fill-rule="nonzero" fill="none" data-paper-data="{&quot;selected&quot;:false}"><path fill="#000000" d="M47.87671,16.90911c9.14352,0 18.61227,3.82088 26.17397,9.07744c6.45294,4.48175 10.83622,12.57929 13.12025,20.10711c0.14044,0.45577 0.23653,0.90395 0.36219,1.35972c0.25871,0.77481 0.50263,1.54203 0.71699,2.30164c2.60187,9.161 1.04962,17.1294 -1.4266,26.22204c-0.53959,1.97501 -4.39066,11.60697 -4.45719,12.07794c-1.10875,5.29454 1.55965,11.7589 2.29882,16.97748c1.36746,9.70033 1.64095,19.7197 -2.30621,28.8807c-5.37376,12.48813 -17.88789,16.9243 -30.31331,17.78267c-1.22702,0.08356 -2.45404,0.12914 -3.68106,0.12914c-0.2661,0 -0.5322,0 -0.80569,-0.0076c-0.05913,0 -0.11827,-0.0076 -0.1774,-0.0076l-3.03798,-0.04558c-1.49312,-0.02279 -3.04538,-0.10635 -4.5311,-0.25067c-10.21531,-1.01029 -21.47285,-5.08945 -27.85927,-13.81746c-4.61981,-6.31243 -6.37164,-16.77238 -5.869,-24.55847c0.39915,-6.07695 2.21011,-11.9564 3.32626,-17.91181c0.43611,-2.33203 1.28615,-4.61089 1.10875,-6.9809c-0.03696,-0.50135 -0.11088,-0.9875 -0.1774,-1.48126c-0.36958,-1.07106 -3.14886,-9.11542 -3.85107,-12.19188c-2.06967,-7.00368 -2.62405,-14.3492 -1.58182,-21.77067c1.10136,-7.80888 4.19109,-16.51411 9.8753,-21.98336c7.30299,-7.03407 17.14133,-12.73121 27.07575,-13.52121c0,0 0.07392,-0.0076 0.1774,-0.01519l3.19321,-0.25827c0.887,-0.07596 1.76661,-0.11394 2.64622,-0.11394M47.87671,13.90862c-0.96831,0 -1.93662,0.03798 -2.87537,0.12154l-3.17843,0.25827l-0.24393,0.02279c-9.60919,0.75962 -20.12757,5.9782 -28.78323,14.31122c-5.46246,5.25656 -9.38744,13.90862 -10.76969,23.74568c-1.09397,7.78609 -0.53959,15.51901 1.64835,22.98606c0.59873,2.57511 2.4023,7.99119 3.8215,12.13871c0.05174,0.34942 0.0887,0.66846 0.11827,0.9875c0.0887,1.2002 -0.23653,2.56751 -0.58394,4.01838c-0.17001,0.72164 -0.34741,1.44328 -0.48046,2.17251c-0.3548,1.90664 -0.7983,3.86646 -1.23441,5.76551c-0.91657,4.02598 -1.86271,8.19629 -2.14359,12.51092c-0.52481,8.12032 1.25659,19.47662 6.44555,26.56386c6.03901,8.24946 16.94175,13.71871 29.91416,15.00247c1.52269,0.15192 3.17103,0.24308 4.77503,0.26587l3.03798,0.04558l0.16262,0.0076l0.85744,0.0076c1.29355,0 2.59448,-0.04558 3.87324,-0.12914c16.43172,-1.13183 27.77057,-7.90003 32.78953,-19.56018c4.56067,-10.59668 3.74759,-21.88461 2.52796,-30.52907c-0.25871,-1.80789 -0.71699,-3.71454 -1.1605,-5.568c-0.86483,-3.60819 -1.76661,-7.33792 -1.19006,-10.25485c0.17001,-0.49375 0.84265,-2.26366 1.44877,-3.82848c1.54486,-4.01838 2.66101,-6.95811 2.98624,-8.1583c2.40969,-8.83437 4.33153,-17.62315 1.4192,-27.87041c-0.22175,-0.77481 -0.46568,-1.56481 -0.73178,-2.34722l-0.11088,-0.42539c-0.08131,-0.31144 -0.16262,-0.62289 -0.25871,-0.94193c-2.87537,-9.48764 -8.07912,-17.40286 -14.27335,-21.7099c-8.89959,-6.20608 -18.77489,-9.60918 -27.80753,-9.60918z"></path><path fill="#009ff9" data-paper-data="{&quot;guideItem&quot;:null,&quot;selected&quot;:false}" d="M86.82352,75.98466c2.47622,-9.08504 4.02847,-17.06104 1.4266,-26.22204c-0.21436,-0.76721 -0.45828,-1.53443 -0.71699,-2.30164c-0.12566,-0.45577 -0.22175,-0.90395 -0.36219,-1.35972c-2.28403,-7.53542 -6.6673,-15.62536 -13.12025,-20.10711c-8.29347,-5.75791 -18.87837,-9.79908 -28.8128,-8.9711l-3.19321,0.25827c-0.11088,0.0076 -0.1774,0.01519 -0.1774,0.01519c-9.93443,0.78241 -19.77277,6.48714 -27.07575,13.52121c-5.68421,5.47685 -8.77393,14.17448 -9.8753,21.98336c-1.04223,7.42907 -0.48785,14.76699 1.58182,21.77067c0.70221,3.07646 3.48149,11.12082 3.85107,12.19188c0.07392,0.49375 0.14044,0.9875 0.1774,1.48126c0.1774,2.37001 -0.67264,4.64887 -1.10875,6.9809c-1.11614,5.95541 -2.92711,11.83486 -3.32626,17.91181c-0.51003,7.78609 1.2492,18.24604 5.869,24.55847c6.38642,8.72802 17.64396,12.80717 27.85927,13.81746c1.48573,0.14433 3.03798,0.22789 4.5311,0.25067l3.03798,0.04558c0.05913,0 0.11827,0.0076 0.1774,0.0076c1.49312,0.02279 2.98624,-0.01519 4.47936,-0.12154c12.42543,-0.85837 24.93956,-5.29454 30.31331,-17.78267c3.93977,-9.161 3.67367,-19.18037 2.30621,-28.8807c-0.73917,-5.21858 -3.40757,-11.68294 -2.29882,-16.97748c0.06653,-0.46337 3.92499,-10.10293 4.45719,-12.07034z"></path></g><path style="mix-blend-mode: normal" text-anchor="none" font-size="none" font-weight="none" font-family="none" stroke-dashoffset="0" stroke-dasharray="" stroke-miterlimit="10" stroke-linejoin="miter" stroke-linecap="butt" stroke-width="1" stroke="none" fill-rule="nonzero" fill="#009ff8" data-paper-data="{&quot;guideItem&quot;:null,&quot;selected&quot;:false}" d="M45.23788,17.02305c0,0 -0.07392,0.0076 -0.1774,0.01519z"></path><g style="mix-blend-mode: normal" text-anchor="none" font-size="none" font-weight="none" font-family="none" stroke-dashoffset="0" stroke-dasharray="" stroke-miterlimit="10" stroke-linejoin="miter" stroke-linecap="butt" stroke-width="1" stroke="none" fill-rule="nonzero" fill="none" data-paper-data="{&quot;selected&quot;:false}"><path fill="#ffffff" data-paper-data="{&quot;guideItem&quot;:null,&quot;selected&quot;:false}" d="M14.6289,118.17388c0.87961,-5.46166 2.95668,-10.37639 5.10026,-15.67093c0.94614,-2.33963 4.54589,-10.78659 -0.82048,-10.80937c-1.94401,-0.0076 -3.71063,2.34722 -4.8933,3.66136c-2.58709,2.87136 -4.72329,6.09974 -6.37903,9.54081c-1.85531,3.85886 -3.08233,7.9608 -3.81411,12.1463c2.90493,-0.1975 6.77079,-0.04558 10.80665,1.13183z"></path><path fill="#0088c5" data-paper-data="{&quot;guideItem&quot;:null,&quot;selected&quot;:false}" d="M16.59509,137.38463c-0.02218,-0.06837 -0.04435,-0.12914 -0.07392,-0.1975c-0.63569,-1.72433 -1.11614,-3.36511 -1.49312,-4.9831c-0.5322,-2.31684 -0.81309,-4.59569 -0.87222,-7.00368c-0.02957,-1.1926 0,-2.41559 0.07392,-3.69175c0.07392,-1.13943 0.21436,-2.24088 0.39176,-3.33473c-4.03586,-1.17741 -7.90911,-1.32933 -10.80665,-1.13183c-0.3548,2.02059 -0.59873,4.06396 -0.72439,6.11493c-0.3548,5.84147 -0.36219,12.57169 1.71487,18.16248c1.01266,2.71943 3.42235,4.91473 6.45294,5.30214c0.62829,0.08356 1.25659,0.09875 1.80357,0.05317c2.01793,-0.16712 3.98412,-1.17741 4.70111,-3.06886c0.14044,-0.37981 0.19958,-0.75202 0.22914,-1.12424c0.14044,-1.74712 -0.80569,-3.45626 -1.39703,-5.09704z"></path><path fill="#000000" d="M18.90869,91.69357c0,0 0.00739,0 0,0c5.36637,0.01519 1.77401,8.46215 0.82787,10.80937c-2.14359,5.29454 -4.22065,10.20927 -5.10026,15.67093c-0.1774,1.08625 -0.32523,2.1953 -0.39176,3.33473c-0.08131,1.27616 -0.10348,2.49915 -0.07392,3.69175c0.05913,2.41559 0.34002,4.68685 0.87222,7.00368c0.36958,1.62558 0.85744,3.25876 1.49312,4.9831c0.02218,0.06837 0.04435,0.12914 0.07392,0.1975c0.59134,1.63318 1.53747,3.34992 1.41181,5.09704c-0.02957,0.37221 -0.0887,0.75202 -0.22914,1.12424c-0.71699,1.89145 -2.68318,2.90174 -4.70111,3.06886c-0.20697,0.01519 -0.42133,0.02279 -0.64308,0.02279c-0.37698,0 -0.76874,-0.02279 -1.16789,-0.07596c-3.03059,-0.38741 -5.44767,-2.5827 -6.45294,-5.30214c-2.07706,-5.59079 -2.06967,-12.32101 -1.71487,-18.16248c0.12566,-2.05097 0.36958,-4.09434 0.72439,-6.11493c0.73178,-4.1855 1.96619,-8.27984 3.81411,-12.1463c1.65574,-3.44107 3.79194,-6.66945 6.37903,-9.54081c1.17528,-1.31414 2.94189,-3.66136 4.87851,-3.66136M18.91608,88.69308v0c-3.00842,0 -5.16679,2.47636 -6.59339,4.11713l-0.4435,0.50894c-2.74971,3.04607 -5.05591,6.49474 -6.85949,10.25485c-1.89227,3.93482 -3.25973,8.29504 -4.07282,12.93631c-0.37698,2.16491 -0.63569,4.33742 -0.76134,6.45676c-0.34741,5.71993 -0.4435,13.10342 1.90706,19.42345c1.46355,3.93482 4.84156,6.69984 8.82568,7.20878c0.51003,0.06837 1.02744,0.09875 1.53008,0.09875c0.30306,0 0.59873,-0.01519 0.87961,-0.03798c3.38539,-0.28866 6.1351,-2.1953 7.18472,-4.9831c0.22914,-0.60769 0.36219,-1.26097 0.41393,-1.9902c0.14783,-2.05857 -0.59134,-3.86646 -1.17528,-5.31733c-0.14044,-0.34942 -0.28088,-0.69885 -0.40654,-1.04068l-0.07392,-0.21269c-0.57655,-1.56481 -1.02744,-3.06886 -1.38225,-4.61848c-0.48046,-2.10414 -0.74656,-4.1931 -0.7983,-6.38839c-0.02957,-1.09385 0,-2.21049 0.07392,-3.42588c0.05174,-0.89635 0.17001,-1.86107 0.3548,-3.03088c0.77613,-4.81598 2.61666,-9.34331 4.56067,-14.1365l0.3548,-0.87356l0.08131,-0.2051c1.75183,-4.29944 3.26713,-9.13062 1.20485,-12.32101c-0.58394,-0.90395 -1.98836,-2.43078 -4.79721,-2.43838c0,0.01519 -0.00739,0.01519 -0.00739,0.01519z"></path></g><g style="mix-blend-mode: normal" text-anchor="none" font-size="none" font-weight="none" font-family="none" stroke-dashoffset="0" stroke-dasharray="" stroke-miterlimit="10" stroke-linejoin="miter" stroke-linecap="butt" stroke-width="1" stroke="none" fill-rule="none" fill="none" data-paper-data="{&quot;selected&quot;:false}"><path fill-rule="evenodd" fill="#ffffff" data-paper-data="{&quot;guideItem&quot;:null,&quot;selected&quot;:false}" d="M92.92166,78.02803c-5.08548,6.45676 -15.07165,10.83216 -26.71356,11.73611c-28.9015,2.18011 -43.89924,-6.63147 -45.87282,-26.97406c-0.2661,-2.87895 -1.21963,-17.71431 7.25864,-27.99954c5.06331,-6.1833 12.66196,-9.66235 22.52247,-10.33081c33.99437,-2.37761 36.59625,23.41904 36.69234,24.52049c0.05174,0.62289 0.48785,1.15462 1.07179,1.32933c0.31784,0.07596 7.62083,2.22568 8.93655,11.85765c0.85744,6.12253 -0.45828,11.45505 -3.89542,15.86084z"></path><path fill-rule="nonzero" fill="#000000" d="M99.71462,61.73421c-1.31572,-9.58639 -7.69475,-13.03506 -10.12661,-14.01496c-0.85004,-4.92993 -6.20902,-26.42713 -35.28053,-26.42713c-1.38964,0 -2.87537,0.05317 -4.38327,0.15192c-10.68838,0.75202 -18.9449,4.5805 -24.56997,11.38668c-9.01047,10.93851 -8.33043,25.92579 -7.9165,30.25561c1.95141,20.14509 15.19731,30.00494 40.44732,30.00494c2.70536,0 5.55116,-0.12154 8.54479,-0.34942c12.61022,-0.94952 23.10642,-5.62877 28.75367,-12.83756c3.97673,-5.05906 5.50681,-11.16639 4.5311,-18.17008zM20.34267,62.78248c-0.2661,-2.87895 -1.21963,-17.71431 7.25864,-27.99954c5.06331,-6.1833 12.66196,-9.66235 22.52247,-10.33081c33.99437,-2.37761 36.59625,23.41904 36.69234,24.52049c0.05174,0.62289 0.48785,1.15462 1.07179,1.32933c0.31784,0.07596 7.62083,2.22568 8.93655,11.85765c0.85004,6.13012 -0.46568,11.46265 -3.89542,15.86084c-5.08548,6.45676 -15.07165,10.83216 -26.71356,11.73611c-28.9015,2.18011 -43.90663,-6.62387 -45.87282,-26.97406z"></path><path fill-rule="evenodd" fill="#ffbeb8" data-paper-data="{&quot;guideItem&quot;:null,&quot;selected&quot;:false}" d="M62.97793,65.5399c0.14044,6.13012 -4.33153,11.21957 -9.99356,11.3563c-5.66203,0.13673 -10.37054,-4.71723 -10.51098,-10.84735c-0.14044,-6.12253 4.33153,-11.21197 9.99356,-11.3487c5.66203,-0.13673 10.37054,4.71723 10.51098,10.83976"></path><path fill-rule="evenodd" fill="#ffbeb8" data-paper-data="{&quot;guideItem&quot;:null,&quot;selected&quot;:false}" d="M96.27749,60.69353c-0.51003,-2.08136 -2.91233,-9.06225 -6.21641,-6.55551c-4.45719,3.3803 -2.39491,11.97919 -0.18479,16.24824c0.87222,1.67876 2.43926,3.64617 4.63459,3.22078c1.2418,-0.23548 1.70009,-2.65107 1.86271,-3.47905c0.6209,-3.09924 0.65786,-6.35801 -0.09609,-9.43446z"></path></g><g style="mix-blend-mode: normal" text-anchor="none" font-size="none" font-weight="none" font-family="none" stroke-dashoffset="0" stroke-dasharray="" stroke-miterlimit="10" stroke-linejoin="miter" stroke-linecap="butt" stroke-width="1" stroke="none" fill-rule="none" fill="none" data-paper-data="{&quot;selected&quot;:false}"><path fill-rule="evenodd" fill="#000000" data-paper-data="{&quot;guideItem&quot;:null,&quot;selected&quot;:false}" d="M80.57015,59.9567c0.02218,0.7976 -0.78352,1.46606 -1.81096,1.48885c-1.02744,0.02279 -1.8701,-0.6001 -1.88488,-1.3977c-0.02218,-0.79 0.79091,-1.46606 1.81836,-1.48885c1.02744,-0.03038 1.86271,0.6001 1.87749,1.3977"></path><path fill-rule="evenodd" fill="#000000" data-paper-data="{&quot;guideItem&quot;:null,&quot;selected&quot;:false}" d="M83.14985,58.164v0c-1.0644,0.02279 -1.95141,-1.02549 -1.98097,-2.34722l-0.00739,-0.33423c-0.02957,-1.32174 0.80569,-2.42318 1.8701,-2.44597c1.0644,-0.02279 1.95141,1.02549 1.98836,2.34722l0.00739,0.33423c0.02957,1.32933 -0.81309,2.42318 -1.87749,2.44597"></path><path fill-rule="evenodd" fill="#000000" data-paper-data="{&quot;guideItem&quot;:null,&quot;selected&quot;:false}" d="M66.6516,58.5742v0c-1.2492,0.03038 -2.29142,-1.01789 -2.32099,-2.33963l-0.00739,-0.33423c-0.02957,-1.32174 0.96092,-2.42318 2.21011,-2.45357c1.2492,-0.03038 2.29142,1.01789 2.32838,2.33963l0.00739,0.33423c0.02957,1.32174 -0.96092,2.42318 -2.21751,2.45357"></path><path fill-rule="nonzero" fill="#231815" data-paper-data="{&quot;guideItem&quot;:null,&quot;selected&quot;:false}" d="M87.03049,63.00277c-0.3548,-0.5925 -1.10875,-0.77481 -1.67052,-0.41779c-0.57655,0.35702 -0.75395,1.13183 -0.40654,1.71674c0.04435,0.07596 0.14044,0.23548 -0.27349,0.74443c-0.85004,1.04827 -1.99576,1.16222 -2.60927,1.14702c-1.1531,-0.03798 -2.25446,-0.60769 -2.87537,-1.48126c-0.04435,-0.06077 -0.10348,-0.09875 -0.16262,-0.15192c-0.04435,-0.04558 -0.08131,-0.10635 -0.14044,-0.14433c-0.00739,-0.0076 -0.02218,-0.0076 -0.02957,-0.01519c-0.09609,-0.06077 -0.19958,-0.09875 -0.30306,-0.12914c-0.04435,-0.01519 -0.0887,-0.03798 -0.13305,-0.05317c-0.10348,-0.02279 -0.19958,-0.0076 -0.30306,0c-0.05174,0.0076 -0.11088,-0.0076 -0.16262,0.0076c-0.08131,0.01519 -0.14783,0.06077 -0.22914,0.09115c-0.07392,0.03038 -0.14783,0.05317 -0.21436,0.09875c-0.00739,0.0076 -0.02218,0.0076 -0.03696,0.01519c-0.06653,0.04558 -0.10348,0.11394 -0.15523,0.16712c-0.04435,0.04558 -0.10348,0.08356 -0.14044,0.13673c-1.73705,2.61309 -6.52686,3.23598 -9.49832,1.22299c-0.68743,-0.46337 -1.08658,-0.87356 -1.2492,-1.09385c0.22175,-0.48616 0.12566,-1.07866 -0.28088,-1.45847c-0.49524,-0.46337 -1.26398,-0.42539 -1.72226,0.08356c-0.39176,0.44058 -0.56916,1.0027 -0.49524,1.5876c0.11827,0.97231 0.93135,1.97501 2.40969,2.97011c1.61878,1.09385 3.56279,1.61039 5.47724,1.61039c2.42447,0 4.76025,-0.87356 6.37164,-2.42318c1.03484,0.87356 2.36534,1.3977 3.76976,1.45087c0.06653,0 0.14044,0 0.20697,0c1.71487,0 3.29669,-0.73683 4.3537,-2.05097c1.35268,-1.61799 0.89439,-2.97011 0.50263,-3.63098z"></path></g>
               </svg>