<svg viewBox="0 0 111 200" xml:space="preserve" xmlns:xlink="http://www.w3.org/1999/xlink" xmlns="http://www.w3.org/2000/svg">
                    <g style="mix-blend-mode: normal" text-anchor="none" font-size="none" font-weight="none" font-family="none" stroke-dashoffset="0" stroke-dasharray="" stroke-miterlimit="10" stroke-linejoin="miter" stroke-linecap="butt" stroke-width="1" stroke="none" fill-rule="none" fill="none" data-paper-data="{&quot;selected&quot;:false}"><path fill-rule="nonzero" fill="#ffffff" data-paper-data="{&quot;guideItem&quot;:null,&quot;selected&quot;:false}" d="M70.80841,136.60096v29.71053c0,0 -2.07275,0.55052 -4.83921,0.55052c-2.76646,0 -4.83921,-0.55052 -4.83921,-0.55052v-29.71053c0,-1.95347 4.47982,-3.56065 6.35198,-3.56065c1.84709,0 3.32643,1.60717 3.32643,3.56065z"></path><path fill-rule="evenodd" fill="#009ff9" data-paper-data="{&quot;guideItem&quot;:null,&quot;selected&quot;:false}" d="M83.95534,194.46812c-2.45722,2.98348 -6.44392,2.48624 -9.74528,2.48624h-8.89278v-0.07104c-1.86381,-0.37294 -4.17894,-1.8558 -4.17894,-3.63168v-26.92239c0,0 2.07275,0.55052 4.83921,0.55052c2.76646,0 4.83921,-0.55052 4.83921,-0.55052v11.33014c0.94444,-0.02664 1.95574,0.05328 3.15928,0.3019c0.02507,0 0.23402,0.05328 0.23402,0.05328c4.2458,0.97674 7.93162,4.0135 9.88737,8.12467c1.08652,2.21097 1.53785,6.26887 -0.14208,8.32889z"></path><path fill-rule="nonzero" fill="#000000" d="M67.47361,133.05807c1.84709,0 3.34315,1.58942 3.34315,3.55177v26.30083v3.4097v11.32126c0.06686,0 0.13373,0 0.20895,0c0.86922,0 1.83037,0.07104 2.94197,0.3019c0.04179,0.00888 0.23402,0.05328 0.23402,0.05328c4.2458,0.97674 7.93998,4.00462 9.90408,8.11579c1.06145,2.22873 1.52949,6.31327 -0.14208,8.35553c-1.84709,2.24649 -4.57176,2.53063 -7.21285,2.53063c-0.86922,0 -1.73008,-0.02664 -2.54079,-0.02664h-3.38494h-2.26498h-2.41543h-0.82743v-0.08879c-1.88052,-0.36406 -4.1873,-1.8558 -4.1873,-3.64056v-30.32321v0v-26.30083c0.00836,-1.98011 4.50489,-3.56065 6.34363,-3.56065M67.47361,130.04795c-1.93903,0 -9.16859,1.64269 -9.16859,6.56189v26.30083v30.32321c0,3.20547 2.87511,5.60291 5.80036,6.4287c0.36775,0.19535 0.77728,0.3019 1.21189,0.3019h0.82743h2.41543h2.26498h3.38494c0.38446,0 0.78564,0.00888 1.18682,0.01776c0.45133,0.00888 0.90265,0.01776 1.35398,0.01776c3.17599,0 6.77824,-0.42621 9.35246,-3.56065c2.67452,-3.24987 1.92231,-8.79062 0.5349,-11.69419c-2.34856,-4.91032 -6.76988,-8.53312 -11.82639,-9.69632l-0.18387,-0.0444c-0.33431,-0.07104 -0.65191,-0.12431 -0.96951,-0.17759v-8.51536v-3.4097v-26.30083c-0.00836,-3.61392 -2.77481,-6.55301 -6.18483,-6.55301z"></path></g><g style="mix-blend-mode: normal" text-anchor="none" font-size="none" font-weight="none" font-family="none" stroke-dashoffset="0" stroke-dasharray="" stroke-miterlimit="10" stroke-linejoin="miter" stroke-linecap="butt" stroke-width="1" stroke="none" fill-rule="nonzero" fill="none" data-paper-data="{&quot;selected&quot;:false}"><path fill="#ffffff" data-paper-data="{&quot;guideItem&quot;:null,&quot;selected&quot;:false}" d="M14.25067,106.9881c0.09194,-0.39957 0.19223,-0.79915 0.30924,-1.2076c-0.14208,0.47949 -0.25909,0.9501 -0.35103,1.45622c0.02507,-0.07104 0.02507,-0.17759 0.04179,-0.24862z"></path><path fill="#ffffff" data-paper-data="{&quot;guideItem&quot;:null,&quot;selected&quot;:false}" d="M17.25115,98.41058c-1.06145,2.1577 -1.88888,4.41307 -2.52408,6.72172c-3.35151,0.37294 -7.05405,-1.67821 -8.99307,-3.58728c2.09783,-6.24223 5.68335,-11.9073 11.11597,-16.49796c1.20353,-1.03001 3.04227,-2.88581 4.74727,-2.61055c6.41885,0.98562 -3.2345,13.7187 -4.34609,15.97407z"></path><path fill="#0088c5" data-paper-data="{&quot;guideItem&quot;:null,&quot;selected&quot;:false}" d="M13.84949,110.14917c-0.82743,4.66169 -0.02507,8.64855 0.54326,13.28361c0.40118,3.33866 0.20895,7.42319 -3.98671,7.42319c-0.14208,0 -0.30924,0 -0.45133,-0.02664c-0.49311,-0.02664 -1.03638,-0.12431 -1.60471,-0.27526c-1.17846,-0.35518 -2.38199,-0.97674 -3.04227,-1.82916c-3.09241,-3.98686 -2.54915,-9.77624 -2.19812,-14.34026c0.16716,-2.37968 0.49311,-4.74161 0.96951,-7.06802c0.02507,-0.09767 0.06686,-0.35518 0.16716,-0.72811c0.05015,-0.22199 0.11701,-0.52389 0.19223,-0.82579c0.02507,-0.17759 0.06686,-0.32854 0.11701,-0.49725c0.3761,-1.48286 0.82743,-3.31202 1.06145,-3.65832c0.05015,-0.02664 0.06686,-0.05328 0.09194,-0.05328c0,0 0,0 0.02507,0c1.93903,1.90907 5.64157,3.96022 8.99307,3.58728c-0.05015,0.22199 -0.11701,0.42621 -0.16716,0.6482c-0.11701,0.39957 -0.20895,0.79915 -0.30924,1.2076c-0.02507,0.07104 -0.02507,0.17759 -0.05015,0.24862c-0.16716,1.15432 -0.25909,2.28201 -0.33431,2.73486c0.00836,0.06216 -0.01672,0.14207 -0.01672,0.16871z"></path><path fill="#000000" d="M26.169,82.5697c-0.42625,-0.97674 -1.51278,-2.70822 -4.15386,-3.1078c-0.25909,-0.05328 -0.49311,-0.05328 -0.75221,-0.05328c-2.40707,0 -4.41296,1.73149 -5.7335,2.91245l-0.45133,0.37294c-5.38247,4.56402 -9.3441,10.3534 -11.80132,17.22607c-0.80236,1.30527 -1.2704,3.50737 -1.95574,6.74836c-0.49311,2.40632 -0.8525,4.91032 -1.03638,7.46759l-0.05015,0.52389c-0.35103,4.74161 -0.82743,11.20582 2.87511,15.97407c1.32054,1.73149 3.40165,2.504 4.50489,2.83253c0.73549,0.20423 1.46263,0.32854 2.14797,0.37294c0.23402,0.02664 0.42625,0.02664 0.6352,0.02664c2.71631,0 4.32102,-1.22536 5.16517,-2.25537c1.55456,-1.88244 2.09783,-4.68833 1.62979,-8.55088c-0.09194,-0.79915 -0.19223,-1.58054 -0.30924,-2.33529c-0.46804,-3.56065 -0.86922,-6.61517 -0.25909,-10.02486c0.02507,-0.15095 0.06686,-0.47949 0.11701,-0.9501c0.06686,-0.57716 0.16716,-1.37631 0.28417,-2.1577c0.66027,-2.8059 1.57964,-5.41644 2.74138,-7.76949c0.11701,-0.24862 0.66027,-1.10105 1.08652,-1.77588c3.76104,-5.87817 6.97047,-11.48997 5.31561,-15.47682zM17.25115,98.41058c-1.06145,2.18434 -1.88888,4.41307 -2.52408,6.72172c-0.16716,0.63044 -0.33431,1.22536 -0.46804,1.8558c-0.19223,1.22536 -0.30924,2.504 -0.3761,2.98348c0,0.07104 -0.02507,0.15095 -0.02507,0.17759c-0.82743,4.66169 -0.02507,8.64855 0.54326,13.28361c0.40118,3.33866 0.20895,7.42319 -3.98671,7.42319c-0.14208,0 -0.30924,0 -0.45133,-0.02664c-0.49311,-0.02664 -1.03638,-0.12431 -1.60471,-0.27526c-1.17846,-0.35518 -2.38199,-0.97674 -3.04227,-1.82916c-3.09241,-3.98686 -2.54915,-9.77624 -2.19812,-14.34026c0.16716,-2.37968 0.49311,-4.74161 0.96951,-7.06802c0.02507,-0.09767 0.06686,-0.35518 0.16716,-0.72811c0.05015,-0.22199 0.11701,-0.52389 0.19223,-0.82579c0.02507,-0.17759 0.06686,-0.32854 0.11701,-0.49725c0.33431,-1.48286 0.80236,-3.31202 1.06145,-3.65832c0.05015,-0.02664 0.06686,-0.05328 0.09194,-0.05328c0,0 0,0 0.02507,0c2.1229,-6.24223 5.68335,-11.9073 11.11597,-16.49796c1.1116,-0.9501 2.80825,-2.62831 4.41296,-2.62831c0.11701,0 0.23402,0 0.33431,0.02664c6.41049,0.96786 -3.24286,13.70094 -4.35445,15.95631z"></path></g><g style="mix-blend-mode: normal" text-anchor="none" font-size="none" font-weight="none" font-family="none" stroke-dashoffset="0" stroke-dasharray="" stroke-miterlimit="10" stroke-linejoin="miter" stroke-linecap="butt" stroke-width="1" stroke="none" fill-rule="nonzero" fill="none" data-paper-data="{&quot;selected&quot;:false}"><path fill="#000000" d="M90.4912,88.66098c1.86381,0 3.62732,2.14882 4.81414,3.35642c5.40754,5.50524 8.6504,11.91618 10.28854,18.75333h0.00836c0.01672,0 0.03343,0 0.05015,0h0.00836c0.42625,0.00888 1.08652,5.71834 1.14503,6.28663c0.29253,2.504 0.39282,5.02575 0.32596,7.5475c-0.11701,4.85704 -0.11701,11.03712 -3.89477,14.85527c-0.81907,0.82579 -2.18976,1.33191 -3.51867,1.54502c-0.4764,0.07991 -0.9528,0.11543 -1.39577,0.11543c-0.12537,0 -0.24238,0 -0.36775,-0.00888c-5.49112,-0.27526 -4.881,-4.75937 -3.69418,-8.51536c1.53785,-4.8748 2.1229,-9.60753 1.8053,-14.45569c-0.04179,-0.49725 -0.07522,-0.99449 -0.13373,-1.49174c-0.03343,-0.35518 -0.07522,-0.71035 -0.11701,-1.06553c-0.11701,-0.88794 -0.25909,-1.77588 -0.43461,-2.65495c-0.02507,-0.13319 -0.04179,-0.26638 -0.06686,-0.39957c-0.44297,-2.19322 -1.06145,-4.35979 -1.87216,-6.4731c-0.96951,-2.52175 -10.11303,-17.13728 -3.04227,-17.3859c0.03343,-0.00888 0.06686,-0.00888 0.09194,-0.00888M90.4912,85.65086v0c-0.03343,0 -0.15044,0 -0.18387,0c-2.84168,0.09767 -4.14551,1.75812 -4.67205,2.73486c-2.1229,3.9691 0.76057,10.19357 4.17058,16.75546c0.42625,0.81691 0.91101,1.74925 1.01966,2.03339c0.72714,1.89132 1.30383,3.89806 1.73008,5.97585l0.06686,0.36406c0.1588,0.79915 0.29253,1.62493 0.40118,2.46848c0.04179,0.31966 0.07522,0.6482 0.10865,0.98562c0.05015,0.47061 0.08358,0.94122 0.12537,1.40295c0.29253,4.43083 -0.25909,8.78174 -1.67157,13.25697c-0.82743,2.62831 -1.71336,6.45534 0.17552,9.39442c1.22861,1.9002 3.26793,2.93909 6.06782,3.08116c0.16716,0.00888 0.32596,0.00888 0.50147,0.00888c0.59341,0 1.20353,-0.05328 1.82202,-0.15095c1.21189,-0.19535 3.47688,-0.75475 5.04816,-2.34417c4.48818,-4.5285 4.64698,-11.39229 4.76399,-16.40028l0.01672,-0.55052c0.06686,-2.72598 -0.05015,-5.41644 -0.35103,-7.99148c-0.42625,-3.68496 -0.71042,-6.15344 -1.50442,-7.5475c-1.93067,-7.44983 -5.5747,-13.93181 -10.84852,-19.29497l-0.45133,-0.47061c-1.42084,-1.47398 -3.54374,-3.7116 -6.33527,-3.7116z"></path><path fill="#ffffff" data-paper-data="{&quot;guideItem&quot;:null,&quot;selected&quot;:false}" d="M105.60224,110.77073c-2.74138,-0.07104 -6.48571,0.24862 -10.28854,1.67821c-0.45133,-2.1577 -1.06145,-4.3154 -1.86381,-6.39318c-0.96951,-2.53063 -10.12139,-17.14616 -3.04227,-17.40366c1.88888,-0.07104 3.67746,2.13106 4.881,3.35642c5.40754,5.50524 8.68383,11.91618 10.31362,18.76221z"></path><path fill="#0088c5" data-paper-data="{&quot;guideItem&quot;:null,&quot;selected&quot;:false}" d="M106.80577,117.0396c-0.06686,-0.55052 -0.73549,-6.26887 -1.15339,-6.26887c-0.02507,0 -0.02507,0 -0.05015,0c-2.74138,-0.07104 -6.48571,0.24862 -10.28854,1.67821c0.09194,0.47949 0.19223,0.9501 0.25909,1.42959c0.06686,0.42621 0.14208,0.82579 0.19223,1.252c0.06686,0.45285 0.14208,0.9057 0.16716,1.34967c0.09194,0.72811 0.16716,1.48286 0.19223,2.25537c0.23402,4.6173 -0.3761,9.17244 -1.86381,13.84301c-1.17846,3.76487 -1.79694,8.24898 3.70254,8.52424c0.54326,0.02664 1.15339,0 1.77187,-0.09767c1.32054,-0.22199 2.69124,-0.72811 3.51867,-1.5539c3.77776,-3.80927 3.77776,-10.0071 3.89477,-14.84639c0.03343,-2.52175 -0.05851,-5.06127 -0.34267,-7.56526z"></path></g><g style="mix-blend-mode: normal" text-anchor="none" font-size="none" font-weight="none" font-family="none" stroke-dashoffset="0" stroke-dasharray="" stroke-miterlimit="10" stroke-linejoin="miter" stroke-linecap="butt" stroke-width="1" stroke="none" fill-rule="nonzero" fill="none" data-paper-data="{&quot;selected&quot;:false}"><path fill="#ffffff" data-paper-data="{&quot;guideItem&quot;:null,&quot;selected&quot;:false}" d="M36.13158,3.59616c1.25368,0.39069 2.51572,0.96786 3.80283,1.73149c1.06145,0.62156 2.05604,1.42071 2.99212,2.24649c3.00048,2.64607 6.86182,10.98384 2.73302,14.3225c-2.98376,2.4152 -5.74186,-3.61392 -7.42179,-5.35429c-3.75269,-3.90694 -9.11844,0.39069 -12.02698,3.61392c-2.3402,2.61055 -6.2099,2.70822 -8.65876,0.21311c-2.44886,-2.49512 -2.55751,-6.62405 -0.24238,-9.25235c2.87511,-3.25875 6.40213,-6.038 10.46406,-7.35216c3.02555,-0.96786 5.69171,-0.99449 8.35787,-0.16871z"></path><path fill="#673101" data-paper-data="{&quot;guideItem&quot;:null,&quot;selected&quot;:false}" d="M27.1218,15.832c-0.4764,-0.14207 -0.9528,-0.06216 -1.39577,0.08879c0.5349,-0.33742 0.9528,-0.88794 1.11996,-1.58942c0.34267,-1.40295 -0.45133,-2.83253 -1.75515,-3.20547c-0.61012,-0.16871 -1.22025,-0.05328 -1.73844,0.23086c0.45968,-0.3463 0.82743,-0.83467 0.97787,-1.45622c0.34267,-1.40295 -0.44297,-2.84141 -1.75515,-3.20547c-0.11701,-0.03552 -0.23402,-0.01776 -0.35939,-0.02664c-2.67452,1.99787 -4.48818,3.97798 -4.89771,4.43971c-2.31513,2.62831 -2.19812,6.75724 0.25074,9.25235c2.4405,2.49512 6.31855,2.39744 8.65876,-0.21311c0.68535,-0.76363 1.62143,-1.62493 2.63273,-2.4152c-0.2173,-0.88794 -0.84415,-1.65157 -1.73844,-1.9002"></path><path fill="#000000" d="M32.32039,3.01012c1.29547,0 2.55751,0.20423 3.81119,0.58604c1.25368,0.39069 2.51572,0.96786 3.80283,1.73149c1.06145,0.62156 2.05604,1.42071 2.99212,2.24649c3.00048,2.64607 6.86182,10.98384 2.73302,14.3225c-0.48476,0.39069 -0.96951,0.5594 -1.43755,0.5594c-2.41543,0 -4.58012,-4.45747 -5.97588,-5.91369c-1.06145,-1.10993 -2.25663,-1.5539 -3.48523,-1.5539c-2.01425,0 -4.12879,1.19872 -5.93409,2.68158c0.00836,0.02664 0.02507,0.05328 0.03343,0.07991c-1.00294,0.78139 -1.93067,1.63381 -2.61601,2.39744c-0.00836,0.00888 -0.00836,0.00888 -0.01672,0.01776c-1.20353,1.34967 -2.8166,2.02451 -4.42967,2.02451c-1.52113,0 -3.04227,-0.6038 -4.22908,-1.8114c-1.52949,-1.56278 -2.14797,-3.75599 -1.83037,-5.8249c0.19223,-1.24312 0.71878,-2.44184 1.588,-3.42746c0.20059,-0.22199 0.74385,-0.81691 1.56292,-1.60717c2.56587,-2.53951 5.53291,-4.66169 8.90114,-5.74498c1.57964,-0.51501 3.08406,-0.76363 4.52997,-0.76363M32.32039,0c-1.7468,0 -3.49359,0.29302 -5.36576,0.89682c-3.46852,1.11881 -6.83674,3.27651 -10.01273,6.4287c-0.80236,0.77251 -1.39577,1.41183 -1.67993,1.72261c-1.24532,1.41183 -2.03932,3.13443 -2.33185,5.01687c-0.4764,3.11668 0.51819,6.29551 2.66616,8.47984c1.67157,1.70485 3.8697,2.64607 6.18483,2.64607c2.4405,0 4.79742,-1.08329 6.48571,-2.95685c0.59341,-0.65708 1.39577,-1.38519 2.25663,-2.06002c0.19223,-0.15095 0.35939,-0.31966 0.50147,-0.49725c1.4292,-1.08329 2.74138,-1.67821 3.72761,-1.67821c0.57669,0 1.04473,0.21311 1.50442,0.69259c0.24238,0.24862 0.68535,0.88794 1.07817,1.44735c1.57128,2.25537 3.73597,5.33653 6.88689,5.33653c1.1116,0 2.19812,-0.40845 3.15092,-1.18096c1.84709,-1.50062 2.85839,-3.72048 2.9169,-6.4287c0.09194,-4.67057 -2.80825,-10.18469 -5.54963,-12.59989c-1.2704,-1.11881 -2.35692,-1.93571 -3.42673,-2.56615c-1.51278,-0.88794 -2.95033,-1.53614 -4.38788,-1.98011c-1.53785,-0.48837 -3.05062,-0.71923 -4.60519,-0.71923z"></path></g><g style="mix-blend-mode: normal" text-anchor="none" font-size="none" font-weight="none" font-family="none" stroke-dashoffset="0" stroke-dasharray="" stroke-miterlimit="10" stroke-linejoin="miter" stroke-linecap="butt" stroke-width="1" stroke="none" fill-rule="nonzero" fill="none" data-paper-data="{&quot;selected&quot;:false}"><path fill="#ffffff" data-paper-data="{&quot;guideItem&quot;:null,&quot;selected&quot;:false}" d="M72.47998,3.59616c-1.25368,0.39069 -2.51572,0.96786 -3.80283,1.73149c-1.06145,0.62156 -2.05604,1.42071 -2.99212,2.24649c-3.00048,2.64607 -6.86182,10.98384 -2.73302,14.3225c2.98376,2.4152 5.74186,-3.61392 7.42179,-5.35429c3.75269,-3.90694 9.11844,0.39069 12.02698,3.61392c2.3402,2.61055 6.2099,2.70822 8.65876,0.21311c2.44886,-2.49512 2.55751,-6.62405 0.24238,-9.25235c-2.87511,-3.25875 -6.40213,-6.038 -10.46406,-7.35216c-3.01719,-0.96786 -5.69171,-0.99449 -8.35787,-0.16871z"></path><path fill="#673101" data-paper-data="{&quot;guideItem&quot;:null,&quot;selected&quot;:false}" d="M81.49813,15.832c0.4764,-0.14207 0.9528,-0.06216 1.39577,0.08879c-0.5349,-0.33742 -0.9528,-0.88794 -1.11996,-1.58942c-0.34267,-1.40295 0.45133,-2.83253 1.75515,-3.20547c0.61012,-0.16871 1.22025,-0.05328 1.73844,0.23086c-0.45968,-0.3463 -0.82743,-0.83467 -0.97787,-1.45622c-0.34267,-1.40295 0.44297,-2.84141 1.75515,-3.20547c0.11701,-0.03552 0.23402,-0.01776 0.35939,-0.02664c2.67452,1.99787 4.48818,3.97798 4.89771,4.43971c2.31513,2.62831 2.19812,6.75724 -0.25074,9.25235c-2.4405,2.49512 -6.31855,2.39744 -8.65876,-0.21311c-0.68535,-0.76363 -1.62143,-1.62493 -2.63273,-2.4152c0.2173,-0.88794 0.84415,-1.65157 1.73844,-1.9002"></path><path fill="#000000" d="M76.29953,3.01012c1.45427,0 2.95033,0.24862 4.53833,0.76363c3.36822,1.08329 6.33527,3.20547 8.90114,5.74498c0.81071,0.78139 1.36233,1.37631 1.56292,1.60717c0.86922,0.98562 1.39577,2.18434 1.588,3.42746c0.3176,2.0689 -0.30088,4.271 -1.83037,5.8249c-1.18682,1.2076 -2.70795,1.8114 -4.22908,1.8114c-1.61307,0 -3.22614,-0.67484 -4.42967,-2.02451c-0.00836,-0.00888 -0.00836,-0.00888 -0.01672,-0.01776c-0.68535,-0.76363 -1.61307,-1.60717 -2.61601,-2.39744c0.00836,-0.02664 0.02507,-0.05328 0.03343,-0.07991c-1.8053,-1.47398 -3.91984,-2.68158 -5.93409,-2.68158c-1.22861,0 -2.42378,0.45285 -3.48523,1.5539c-1.40412,1.45622 -3.56045,5.91369 -5.97588,5.91369c-0.46804,0 -0.9528,-0.16871 -1.43755,-0.5594c-4.12879,-3.33866 -0.26745,-11.67643 2.73302,-14.3225c0.93608,-0.82579 1.93067,-1.62493 2.99212,-2.24649c1.29547,-0.75475 2.54915,-1.34079 3.80283,-1.73149c1.24532,-0.39069 2.50736,-0.58604 3.80283,-0.58604M76.29953,0c-1.55456,0 -3.06734,0.23086 -4.60519,0.71035c-1.43755,0.44397 -2.86675,1.09217 -4.38788,1.98011c-1.06981,0.63044 -2.16469,1.44735 -3.43509,2.56615c-2.74138,2.42408 -5.64157,7.92932 -5.54963,12.59989c0.05851,2.70822 1.06145,4.92808 2.90854,6.4287c0.9528,0.77251 2.03932,1.18096 3.15092,1.18096c3.15928,0 5.31561,-3.08116 6.88689,-5.33653c0.39282,-0.5594 0.83579,-1.18984 1.07817,-1.44735c0.45968,-0.47949 0.92772,-0.69259 1.50442,-0.69259c0.98623,0 2.29006,0.59492 3.72761,1.67821c0.14208,0.18647 0.30924,0.35518 0.50147,0.49725c0.86922,0.67484 1.66322,1.40295 2.24827,2.06002c1.68829,1.89132 4.05357,2.96573 6.49407,2.96573c2.31513,0 4.51325,-0.94122 6.18483,-2.65495c2.14797,-2.18434 3.14256,-5.36317 2.6578,-8.47984c-0.28417,-1.87356 -1.08652,-3.60504 -2.31513,-4.99911c-0.30088,-0.32854 -0.89429,-0.97674 -1.73008,-1.77588c-3.14256,-3.11668 -6.51078,-5.27437 -9.9793,-6.39318c-1.84709,-0.59492 -3.60224,-0.88794 -5.34068,-0.88794z"></path></g><g style="mix-blend-mode: normal" text-anchor="none" font-size="none" font-weight="none" font-family="none" stroke-dashoffset="0" stroke-dasharray="" stroke-miterlimit="10" stroke-linejoin="miter" stroke-linecap="butt" stroke-width="1" stroke="none" fill-rule="none" fill="none" data-paper-data="{&quot;selected&quot;:false}"><g><path fill-rule="evenodd" fill="#009ff9" data-paper-data="{&quot;guideItem&quot;:null,&quot;selected&quot;:false}" d="M94.2606,113.54111c0.3761,7.49423 -1.37069,18.47807 -6.06782,24.92452c-5.54127,7.61854 -15.67101,12.58213 -27.74814,13.63879c-1.43755,0.12431 -3.01719,0.17759 -4.52997,0.17759h-3.20942c-1.51278,0 -3.09241,-0.05328 -4.52997,-0.17759c-12.08549,-1.05665 -22.20687,-6.02025 -27.74814,-13.63879c-4.69713,-6.44646 -6.44392,-17.42142 -6.06782,-24.92452c0.20895,-4.20884 1.06145,-8.45321 1.91395,-12.56438c0.42625,-2.07778 0.86922,-4.19109 1.20353,-6.29551c0.40118,-2.33529 0.16716,-6.69508 0.14208,-6.91707c-0.28417,-3.28538 -1.20353,-6.3399 -2.05604,-8.89718c-3.40165,-10.07814 -3.96163,-19.48144 -1.81366,-29.63062c1.95574,-9.17244 6.06782,-16.97745 11.23298,-21.36388c8.65876,-7.34328 18.68821,-11.53436 27.56427,-11.53436h3.54374c8.87606,0 18.90551,4.19109 27.56427,11.53436c5.16517,4.38643 9.27724,12.18256 11.23298,21.33724c2.14797,10.17581 1.57964,19.57912 -1.81366,29.65725c-0.86922,2.55727 -1.77187,5.61179 -2.05604,8.92381c-0.02507,0.12431 -0.09194,1.5539 -0.09194,3.20547c0,1.27864 0.05015,2.68158 0.20895,3.68496c0.35103,2.10442 0.77728,4.20884 1.22861,6.29551c0.81071,4.11117 1.68829,8.34665 1.89724,12.56438z"></path><path fill-rule="evenodd" fill="#ffffff" data-paper-data="{&quot;guideItem&quot;:null,&quot;selected&quot;:false}" d="M59.39991,21.50595c3.81119,0.53277 7.54716,1.61605 10.94882,3.15219c5.54963,2.504 12.02698,6.53525 15.0191,12.19144c1.32054,2.504 2.22319,5.23886 2.74138,8.04475c0.39282,2.12218 -0.10029,5.10567 1.10324,6.92595c2.43214,3.70272 2.99212,5.7805 3.66075,10.3978c0.62684,4.34204 0.27581,8.97709 -1.45427,12.99947c-4.49654,10.46883 -15.39521,14.89078 -25.35779,15.2282c-1.37905,0.0444 -2.78317,0.08879 -4.17894,0.13319c-6.47735,0.21311 -12.85441,0.08879 -19.33176,-0.13319c-9.97094,-0.33742 -20.86125,-4.75049 -25.35779,-15.2282c-1.73008,-4.02238 -2.08111,-8.65743 -1.45427,-12.99947c0.66863,-4.60842 1.22861,-6.69508 3.66075,-10.3978c1.20353,-1.82028 0.71042,-4.80376 1.10324,-6.92595c0.51819,-2.81478 1.41248,-5.54964 2.74138,-8.04475c2.99212,-5.65619 7.96505,-9.67857 13.52304,-12.19144c2.24827,-1.01225 4.58847,-1.79364 6.97047,-2.37968c4.66369,-1.14544 10.92374,-1.42959 15.66266,-0.77251z"></path><path fill-rule="nonzero" fill="#000000" d="M95.11311,100.3463c-0.42625,-2.06002 -0.8525,-4.11117 -1.20353,-6.18895c-0.25909,-1.65157 -0.14208,-5.01687 -0.09194,-6.14456c0.25909,-2.91245 1.1116,-5.74498 1.91395,-8.12467c3.54374,-10.50435 4.15386,-20.76008 1.91395,-31.33546c-2.09783,-9.82952 -6.56093,-18.22944 -12.24429,-23.04209c-9.13516,-7.74285 -19.7998,-12.18256 -29.31107,-12.18256h-3.54374c-9.51126,0 -20.17591,4.43971 -29.33614,12.18256c-5.66664,4.81264 -10.12139,13.21257 -12.22757,23.04209c-2.23991,10.58427 -1.62979,20.83111 1.91395,31.33546c0.80236,2.37968 1.65486,5.18558 1.88888,8.09803c0.06686,1.15432 0.19223,4.51074 -0.09194,6.1712c-0.33431,2.07778 -0.75221,4.13781 -1.17846,6.18895c-0.86922,4.20884 -1.77187,8.57752 -1.98082,13.03498c-0.40118,8.27562 1.4877,19.82774 6.65287,26.92239c6.04274,8.27562 16.89962,13.66542 29.75403,14.76647c1.53785,0.15095 3.15928,0.20423 4.76399,0.20423h3.20942c1.57964,0 3.2345,-0.05328 4.76399,-0.20423c12.86277,-1.10105 23.71965,-6.49085 29.75403,-14.76647c5.16517,-7.09465 7.05405,-18.62902 6.65287,-26.92239c-0.22566,-4.45747 -1.10324,-8.81726 -1.97246,-13.03498zM55.91467,152.27313h-3.20942c-1.51278,0 -3.09241,-0.05328 -4.52997,-0.17759c-12.08549,-1.05665 -22.20687,-6.02025 -27.74814,-13.63879c-4.69713,-6.44646 -6.44392,-17.42142 -6.06782,-24.92452c0.20895,-4.20884 1.06145,-8.45321 1.91395,-12.56438c0.42625,-2.07778 0.86922,-4.19109 1.20353,-6.29551c0.40118,-2.33529 0.16716,-6.69508 0.14208,-6.91707c-0.28417,-3.28538 -1.20353,-6.3399 -2.05604,-8.89718c-3.40165,-10.07814 -3.96163,-19.48144 -1.81366,-29.63062c1.95574,-9.17244 6.06782,-16.97745 11.23298,-21.36388c8.65876,-7.34328 18.68821,-11.53436 27.56427,-11.53436h3.54374c8.87606,0 18.90551,4.19109 27.56427,11.53436c5.16517,4.38643 9.27724,12.18256 11.23298,21.33724c2.14797,10.17581 1.57964,19.57912 -1.81366,29.65725c-0.86922,2.55727 -1.77187,5.61179 -2.05604,8.92381c-0.02507,0.12431 -0.09194,1.5539 -0.09194,3.20547c0,1.27864 0.05015,2.68158 0.20895,3.68496c0.35103,2.10442 0.77728,4.20884 1.22861,6.29551c0.82743,4.11117 1.69665,8.34665 1.91395,12.56438c0.3761,7.49423 -1.37069,18.47807 -6.06782,24.92452c-5.54127,7.61854 -15.67101,12.58213 -27.74814,13.63879c-1.45427,0.12431 -3.03391,0.17759 -4.54668,0.17759z"></path></g><g fill-rule="evenodd" fill="#fdbdb8"><path data-paper-data="{&quot;guideItem&quot;:null,&quot;selected&quot;:false}" d="M39.24071,63.84301c0,6.1712 -4.67205,11.17031 -10.43899,11.17031c-5.76693,0 -10.43063,-4.99911 -10.43063,-11.17031c0,-6.16232 4.67205,-11.16143 10.43063,-11.16143c5.75858,0 10.43899,4.99911 10.43899,11.16143"></path><path data-paper-data="{&quot;guideItem&quot;:null,&quot;selected&quot;:false}" d="M90.24046,63.84301c0,6.1712 -4.67205,11.17031 -10.43899,11.17031c-5.75858,0 -10.43063,-4.99911 -10.43063,-11.17031c0,-6.16232 4.67205,-11.16143 10.43063,-11.16143c5.76693,0 10.43899,4.99911 10.43899,11.16143"></path></g></g><g style="mix-blend-mode: normal" text-anchor="none" font-size="none" font-weight="none" font-family="none" stroke-dashoffset="0" stroke-dasharray="" stroke-miterlimit="10" stroke-linejoin="miter" stroke-linecap="butt" stroke-width="1" stroke="none" fill-rule="none" fill="none" data-paper-data="{&quot;selected&quot;:false}"><path fill-rule="evenodd" fill="#000000" data-paper-data="{&quot;guideItem&quot;:null,&quot;selected&quot;:false}" d="M56.10691,60.25573c0,0.80803 -0.80236,1.45622 -1.79694,1.45622c-1.00294,0 -1.8053,-0.6482 -1.8053,-1.45622c0,-0.79915 0.80236,-1.45622 1.8053,-1.45622c1.00294,0 1.79694,0.65708 1.79694,1.45622"></path><g fill-rule="evenodd" fill="#000000"><path data-paper-data="{&quot;guideItem&quot;:null,&quot;selected&quot;:false}" d="M64.65701,58.52424v0c-1.34562,0 -2.4405,-1.08329 -2.4405,-2.4152v-0.33742c0,-1.33191 1.09488,-2.4152 2.4405,-2.4152c1.34562,0 2.44886,1.08329 2.44886,2.4152v0.33742c-0.00836,1.33191 -1.10324,2.4152 -2.44886,2.4152"></path><path data-paper-data="{&quot;guideItem&quot;:null,&quot;selected&quot;:false}" d="M43.96291,58.52424v0c-1.34562,0 -2.4405,-1.08329 -2.4405,-2.4152v-0.33742c0,-1.33191 1.09488,-2.4152 2.4405,-2.4152c1.34562,0 2.44886,1.08329 2.44886,2.4152v0.33742c-0.00836,1.33191 -1.10324,2.4152 -2.44886,2.4152"></path></g><path fill-rule="nonzero" fill="#231815" d="M48.06663,69.50808c-1.93067,0 -3.8697,-0.51501 -5.48277,-1.70485c-1.02802,-0.75475 -2.2817,-1.94459 -2.40707,-3.31202c-0.06686,-0.66596 0.14208,-1.29639 0.57669,-1.78476c0.54326,-0.6038 1.43755,-0.62156 2.00589,-0.0444c0.42625,0.43509 0.54326,1.08329 0.34267,1.63381c0.19223,0.2575 0.58505,0.65708 1.10324,1.03889c2.68288,1.98011 7.0624,1.24312 9.1853,-0.73699c0.5349,-0.49725 1.3289,-0.49725 1.86381,0c2.1229,1.98011 6.50243,2.7171 9.1853,0.73699c0.51819,-0.38181 0.91101,-0.78139 1.10324,-1.03889c-0.20059,-0.55052 -0.08358,-1.19872 0.34267,-1.63381c0.56834,-0.57716 1.46263,-0.55052 2.00589,0.0444c0.43461,0.47949 0.64356,1.11881 0.57669,1.77588c-0.12537,1.36743 -1.37905,2.55727 -2.40707,3.31202c-3.51031,2.59279 -8.58354,1.98899 -11.7261,-0.19535c-1.73008,1.18984 -3.99506,1.90907 -6.26841,1.90907zM65.82711,64.79311h0.02507z"></path></g><g style="mix-blend-mode: normal" text-anchor="none" font-size="none" font-weight="none" font-family="none" stroke-dashoffset="0" stroke-dasharray="" stroke-miterlimit="10" stroke-linejoin="miter" stroke-linecap="butt" stroke-width="1" stroke="none" fill-rule="none" fill="none" data-paper-data="{&quot;selected&quot;:false}"><path fill-rule="nonzero" fill="#ffffff" data-paper-data="{&quot;guideItem&quot;:null,&quot;selected&quot;:false}" d="M39.16549,149.78689v5.26549c0,0 2.14797,-1.70485 4.90607,-1.70485c2.7581,0 4.76399,1.70485 4.76399,1.70485v-5.26549c0,-1.98011 -2.1229,-3.56065 -3.96163,-3.56065c-1.83037,0 -5.70843,1.58054 -5.70843,3.56065z"></path><path fill-rule="evenodd" fill="#009ff9" data-paper-data="{&quot;guideItem&quot;:null,&quot;selected&quot;:false}" d="M26.02691,184.90499c2.45722,3.01012 6.46899,2.504 9.77036,2.504h8.87606v-0.09767c1.88888,-0.35518 4.17894,-1.82916 4.17894,-3.63168v-28.62724c0,0 -2.00589,-1.70485 -4.76399,-1.70485c-2.7581,0 -4.90607,1.70485 -4.90607,1.70485v13.03498c-0.91937,0 -1.93903,0.05328 -3.14256,0.3019c-0.05015,0.02664 -0.23402,0.05328 -0.23402,0.05328c-4.2458,0.97674 -7.9567,4.0135 -9.91244,8.12467c-1.06981,2.22873 -1.54621,6.31327 0.13373,8.33777z"></path><path fill-rule="nonzero" fill="#000000" d="M44.87392,146.22625c1.84709,0 3.97835,1.58942 3.97835,3.55177v3.58728v0v30.32321c0,1.78476 -2.30677,3.27651 -4.1873,3.64056v0.08879h-0.82743h-2.41543h-2.26498h-3.38494c-0.81907,0 -1.67993,0.02664 -2.54079,0.02664c-2.64109,0 -5.36576,-0.27526 -7.21285,-2.53063c-1.67993,-2.04227 -1.21189,-6.1268 -0.14208,-8.35553c1.9641,-4.11117 5.65828,-7.13905 9.90408,-8.11579c0,0 0.19223,-0.0444 0.23402,-0.05328c1.11996,-0.23086 2.07275,-0.3019 2.94197,-0.3019c0.06686,0 0.14208,0 0.20895,0v-11.32126v-3.4097v-3.58728c0.00836,-1.95347 3.86134,-3.54289 5.70843,-3.54289M44.87392,143.21613c-2.43214,0 -8.53339,1.95347 -8.53339,6.56189v3.58728v3.4097v8.51536c-0.3176,0.05328 -0.6352,0.10655 -0.96951,0.17759l-0.18387,0.0444c-5.05651,1.1632 -9.47783,4.78601 -11.82639,9.69632c-1.38741,2.89469 -2.13962,8.44433 0.5349,11.69419c2.57423,3.13443 6.16811,3.56065 9.35246,3.56065c0.45968,0 0.91101,-0.00888 1.35398,-0.01776c0.40118,-0.00888 0.80236,-0.01776 1.18682,-0.01776h3.38494h2.26498h2.41543h0.82743c0.43461,0 0.84415,-0.10655 1.21189,-0.3019c2.93361,-0.82579 5.80036,-3.22323 5.80036,-6.4287v-30.32321v-3.58728c-0.00836,-3.87143 -3.60224,-6.57077 -6.82003,-6.57077z"></path></g>
               </svg>