<svg viewBox="0 0 100 201" xml:space="preserve" xmlns:xlink="http://www.w3.org/1999/xlink" xmlns="http://www.w3.org/2000/svg">
                    <g style="mix-blend-mode: normal" text-anchor="none" font-size="none" font-weight="none" font-family="none" stroke-dashoffset="0" stroke-dasharray="" stroke-miterlimit="10" stroke-linejoin="miter" stroke-linecap="butt" stroke-width="1" stroke="none" fill-rule="nonzero" fill="none" data-paper-data="{&quot;selected&quot;:false}"><path fill="#ffffff" data-paper-data="{&quot;guideItem&quot;:null,&quot;selected&quot;:false}" d="M72.02987,16.41474c-2.0782,2.55222 -5.9345,3.03076 -8.5979,1.07862c-0.09753,-0.07596 -0.19507,-0.15192 -0.32261,-0.25066c-0.19507,-0.12153 -0.36762,-0.25066 -0.54018,-0.3722c-0.07503,-0.07596 -0.17256,-0.12153 -0.24758,-0.17471c-0.66773,-0.5469 -1.28293,-1.02545 -1.85313,-1.42803v-0.03038c-0.96032,-0.67603 -1.80061,-1.15458 -2.57337,-1.15458c-0.5927,0 -1.14038,0.27345 -1.70307,0.94949c-1.33545,1.60273 -0.78777,3.30422 -2.61838,3.60046c-0.93782,0.17471 -1.80061,0.52412 -2.44583,0.52412c-0.42014,0 -0.74275,-0.15192 -0.93782,-0.57729c-1.53052,-3.22826 -0.39763,-8.48462 1.53052,-11.33308c1.14038,-1.67869 2.82095,-2.82567 4.77161,-3.5245c1.41048,-0.50133 2.69341,-0.72921 3.87881,-0.72921c0.51767,0 1.01284,0.05317 1.50801,0.12153c0.42014,0.07596 0.81778,0.17471 1.20791,0.30384c1.14038,0.32662 2.19824,0.87353 3.30862,1.57995h0.02251c1.43298,0.90391 2.88848,2.0281 4.54653,3.22826c2.6709,1.98253 3.14356,5.63616 1.06536,8.18838z"></path><path fill="#000000" data-paper-data="{&quot;guideItem&quot;:null,&quot;selected&quot;:false}" d="M60.63353,15.44246c0.3001,0.22788 1.01284,0.75199 1.68057,1.25332c-0.66773,-0.5469 -1.28293,-1.02545 -1.85313,-1.42803c0.05252,0.04558 0.09753,0.09875 0.17256,0.17471z"></path><path fill="#000000" d="M76.20879,11.73566c-0.3001,-2.37752 -1.53052,-4.48158 -3.48118,-5.90201l-0.74275,-0.57729c-3.80378,-2.82567 -7.08989,-5.25636 -11.61392,-5.25636c-1.58303,0 -3.18858,0.30384 -4.89165,0.90391c-2.69341,0.97227 -4.77161,2.55222 -6.20459,4.65629c-2.44583,3.65363 -3.80378,9.98101 -1.7781,14.31067c0.66773,1.45082 2.02568,2.30156 3.63123,2.30156c0.76526,0 1.45549,-0.17471 2.0782,-0.34941c0.27009,-0.07596 0.57019,-0.15192 0.86279,-0.19749c2.79094,-0.50133 3.58621,-2.65097 3.95383,-3.67641c0.07503,-0.25066 0.15005,-0.42537 0.22508,-0.60008c0.49517,0.32662 1.1854,0.87353 1.73309,1.2989c0.54018,0.40258 1.11037,0.85074 1.73309,1.2989c1.58303,1.15458 3.45867,1.75465 5.43934,1.75465c2.82095,0 5.43934,-1.22294 7.19493,-3.38017c1.4855,-1.87619 2.15323,-4.20813 1.86063,-6.58564zM72.02987,16.41474c-2.0782,2.55222 -5.9345,3.03076 -8.5979,1.07862c-0.09753,-0.07596 -0.19507,-0.15192 -0.32261,-0.25066c-0.19507,-0.12153 -0.36762,-0.25066 -0.54018,-0.3722c-0.07503,-0.07596 -0.17256,-0.12153 -0.24758,-0.17471c-0.66773,-0.50133 -1.38047,-1.02545 -1.68057,-1.25332c-0.07503,-0.07596 -0.12004,-0.12153 -0.17256,-0.17471v-0.03038c-0.96032,-0.67603 -1.80061,-1.15458 -2.57337,-1.15458c-0.5927,0 -1.14038,0.27345 -1.70307,0.94949c-1.33545,1.60273 -0.78777,3.30422 -2.61838,3.60046c-0.93782,0.17471 -1.80061,0.52412 -2.44583,0.52412c-0.42014,0 -0.74275,-0.15192 -0.93782,-0.57729c-1.53052,-3.22826 -0.39763,-8.48462 1.53052,-11.33308c1.14038,-1.67869 2.82095,-2.82567 4.77161,-3.5245c1.41048,-0.50133 2.69341,-0.72921 3.87881,-0.72921c0.51767,0 1.01284,0.05317 1.50801,0.12153c0.42014,0.07596 0.81778,0.17471 1.20791,0.30384c1.14038,0.32662 2.19824,0.87353 3.30862,1.57995h0.02251c1.43298,0.90391 2.88848,2.0281 4.54653,3.22826c2.6709,1.98253 3.14356,5.63616 1.06536,8.18838z"></path><path fill="#683100" data-paper-data="{&quot;guideItem&quot;:null,&quot;selected&quot;:false}" d="M72.02987,16.41474c-2.0782,2.55222 -5.9345,3.03076 -8.5979,1.07862c-0.09753,-0.07596 -0.19507,-0.15192 -0.32261,-0.25066c-0.17256,-0.09875 -0.34512,-0.25066 -0.54018,-0.3722c-0.07503,-0.07596 -0.17256,-0.12153 -0.24758,-0.17471c-0.66773,-0.50133 -1.38047,-1.02545 -1.68057,-1.25332c-0.07503,-0.07596 -0.12004,-0.12153 -0.17256,-0.17471v-0.03038c-0.24758,-0.50133 0.72024,-1.10141 1.4855,-1.39765c0.44265,-0.19749 0.91531,-0.19749 1.38047,-0.12153c-0.5927,-0.22788 -1.06536,-0.65325 -1.33545,-1.22294c-0.54018,-1.20015 0.05252,-2.57501 1.28293,-3.07634c0.5927,-0.25066 1.20791,-0.22788 1.75559,-0.05317c-0.49517,-0.25066 -0.93782,-0.62286 -1.16289,-1.15458c-0.54018,-1.17736 0.42014,-2.52943 1.68057,-3.05355c0.09753,-0.05317 0.5927,-0.17471 0.84028,-0.15192h0.02251c1.43298,0.90391 2.88848,2.0281 4.54653,3.22826c2.6709,1.97493 3.14356,5.62856 1.06536,8.18078z"></path></g><g style="mix-blend-mode: normal" text-anchor="none" font-size="none" font-weight="none" font-family="none" stroke-dashoffset="0" stroke-dasharray="" stroke-miterlimit="10" stroke-linejoin="miter" stroke-linecap="butt" stroke-width="1" stroke="none" fill-rule="none" fill="none" data-paper-data="{&quot;selected&quot;:false}"><path fill-rule="nonzero" fill="#000000" d="M53.46111,128.18838c1.90564,0 3.48868,1.52678 3.5637,3.47133l1.03535,26.93506l0.64522,16.79453c0,0 1.69557,-2.29396 6.45968,-2.29396c0.81027,0 1.71058,0.06836 2.70091,0.22028c0.04502,0.0076 0.24758,0.04558 0.24758,0.04558c4.56904,0.81276 8.62791,3.73718 10.88617,7.83897c1.22291,2.218 1.88314,6.35017 0.17256,8.49981c-2.49834,3.1447 -6.78979,2.81048 -10.31598,2.9548l-11.89151,0.47095l-2.57337,0.09875c-0.05252,0 -0.10504,0 -0.15755,0c-2.0782,0 -5.25177,-1.54197 -5.3268,-3.58526l-1.1854,-30.64185v0l-1.04285,-26.93506c-0.07503,-1.99772 4.65157,-3.79795 6.62474,-3.87391c0.06002,0 0.10504,0 0.15755,0M53.46111,125.188v0l-0.25509,0.0076c-2.05569,0.08355 -9.66326,2.0357 -9.4682,6.99582l1.04285,26.93506l1.1779,30.64185c0.15755,4.01063 4.93667,6.46411 8.2903,6.46411l0.27009,-0.0076l2.57337,-0.09875l11.89151,-0.47095c0.41264,-0.01519 0.84028,-0.02279 1.26793,-0.03798c3.45116,-0.07596 8.17776,-0.1899 11.23879,-4.03342c2.70841,-3.40296 1.68807,-8.97076 0.10504,-11.84201c-2.68591,-4.87657 -7.53254,-8.36308 -12.95687,-9.32776l-0.24758,-0.04558c-1.15539,-0.1823 -2.21325,-0.26586 -3.21859,-0.26586c-1.41798,0 -2.63339,0.16711 -3.68374,0.44056l-0.46516,-12.05469l-1.03535,-26.93506c-0.14255,-3.57007 -3.00852,-6.36536 -6.5272,-6.36536z"></path><path fill-rule="nonzero" fill="#ffffff" data-paper-data="{&quot;guideItem&quot;:null,&quot;selected&quot;:false}" d="M58.05266,158.59476l-10.33099,0.40258l-1.03535,-26.91986c-0.07503,-2.00532 4.67408,-3.80555 6.62474,-3.8815c1.98067,-0.07596 3.63123,1.4736 3.70625,3.47892z"></path><path fill-rule="evenodd" fill="#0088c2" data-paper-data="{&quot;guideItem&quot;:null,&quot;selected&quot;:false}" d="M79.18729,189.69237c-2.49834,3.1523 -6.79729,2.82567 -10.33099,2.9548l-11.88401,0.47854l-2.57337,0.09875c-2.0782,0.07596 -5.40933,-1.4736 -5.48435,-3.57767l-1.06536,-27.37562l-0.12004,-3.28143l10.33099,-0.40258l0.12004,3.28143l0.51767,13.5131c0,0 2.34829,-3.12951 9.16809,-2.05089c0.05252,0 0.24758,0.02279 0.24758,0.02279c4.56904,0.82795 8.62791,3.75237 10.90118,7.85416c1.20791,2.20281 1.87563,6.33498 0.17256,8.48462z"></path></g><g style="mix-blend-mode: normal" text-anchor="none" font-size="none" font-weight="none" font-family="none" stroke-dashoffset="0" stroke-dasharray="" stroke-miterlimit="10" stroke-linejoin="miter" stroke-linecap="butt" stroke-width="1" stroke="none" fill-rule="none" fill="none" data-paper-data="{&quot;selected&quot;:false}"><path fill-rule="nonzero" fill="#ffffff" data-paper-data="{&quot;guideItem&quot;:null,&quot;selected&quot;:false}" d="M39.04874,134.17395l-3.78128,26.67679l-10.23345,-1.50399l3.78128,-26.67679c0.2926,-1.97493 5.26678,-2.87885 7.21744,-2.60539c1.95816,0.30384 3.31612,2.12685 3.01602,4.10938z"></path><path fill-rule="evenodd" fill="#009ff8" data-paper-data="{&quot;guideItem&quot;:null,&quot;selected&quot;:false}" d="M50.4676,195.29814c-3.01602,2.65097 -7.16492,1.52678 -10.6761,1.02545l-11.76397,-1.72427l-2.54336,-0.3722c-2.04819,-0.30384 -5.06421,-2.45348 -4.77161,-4.52716l3.8563,-27.10216l0.47266,-3.25104l10.23345,1.50399l-0.47266,3.25104l-1.90564,13.38397c0,0 2.84346,-2.65097 9.39317,-0.34941c0.02251,0 0.22508,0.07596 0.22508,0.07596c4.35147,1.64831 7.81014,5.27915 9.31815,9.70756c0.78777,2.4003 0.71274,6.60084 -1.36546,8.37828z"></path><path fill-rule="nonzero" fill="#000000" d="M35.21495,130.02659c0.3076,0 0.5852,0.01519 0.81778,0.05317c1.95066,0.28105 3.30862,2.11166 3.02352,4.08659l-3.79628,26.67679l-2.3633,16.63502c0,0 1.38797,-1.2989 4.449,-1.2989c1.32045,0 2.9635,0.24307 4.92916,0.9343c0.03751,0.01519 0.24008,0.09115 0.24008,0.09115c4.34397,1.64071 7.81764,5.25636 9.30314,9.69996c0.81027,2.4079 0.71274,6.59324 -1.35046,8.38587c-1.4855,1.2913 -3.2486,1.68629 -5.07171,1.68629c-1.88314,0 -3.82629,-0.41018 -5.59689,-0.66844l-11.77898,-1.71667l-2.55086,-0.3722c-2.04819,-0.29624 -5.0492,-2.45348 -4.75661,-4.52716l4.31396,-30.35321v0l3.79628,-26.67679c0.24758,-1.72427 4.1339,-2.63578 6.39216,-2.63578M35.21495,127.02621v0c-2.971,0 -8.73295,1.09381 -9.32565,5.22598l-3.79628,26.67679l-4.31396,30.35321c-0.5852,4.10938 3.91632,7.43638 7.26995,7.92252l2.55086,0.3722l11.77898,1.71667c0.41264,0.06077 0.82528,0.12913 1.25292,0.19749c1.45549,0.23547 3.10605,0.50893 4.77161,0.50893c2.85096,0 5.14674,-0.78997 7.00737,-2.4079c3.2711,-2.84846 3.2636,-8.515 2.22075,-11.62932c-1.7706,-5.28675 -5.912,-9.60881 -11.08124,-11.55336l-0.19507,-0.07596c-2.18324,-0.76719 -4.16391,-1.13938 -6.00953,-1.13938c-0.2926,0 -0.5777,0.0076 -0.84779,0.02279l1.69557,-11.93316l3.79628,-26.67679c0.51017,-3.60805 -1.97317,-6.97303 -5.53687,-7.48956c-0.36762,-0.06836 -0.78777,-0.09115 -1.23792,-0.09115z"></path></g><g style="mix-blend-mode: normal" text-anchor="none" font-size="none" font-weight="none" font-family="none" stroke-dashoffset="0" stroke-dasharray="" stroke-miterlimit="10" stroke-linejoin="miter" stroke-linecap="butt" stroke-width="1" stroke="none" fill-rule="nonzero" fill="none" data-paper-data="{&quot;selected&quot;:false}"><path fill="#ffffff" data-paper-data="{&quot;guideItem&quot;:null,&quot;selected&quot;:false}" d="M67.09321,110.16331c-0.87029,-5.46905 -0.41264,-10.80896 -0.01501,-16.52867c0.18006,-2.52943 0.98283,-11.71288 -4.18641,-9.97341c-1.86813,0.63046 -2.82845,3.43335 -3.5637,5.07406c-1.59054,3.57007 -2.63339,7.32245 -3.13606,11.12799c-0.57019,4.26889 -0.46516,8.55298 0.14255,12.76111c2.73092,-1.13938 6.5047,-2.25598 10.75863,-2.46107z"></path><path fill="#0088c5" data-paper-data="{&quot;guideItem&quot;:null,&quot;selected&quot;:false}" d="M75.02339,127.73262c-0.04502,-0.05317 -0.09003,-0.10634 -0.12754,-0.15951c-1.14789,-1.42803 -2.13072,-2.82567 -3.00101,-4.23851c-1.23792,-2.02051 -2.22825,-4.08659 -3.03853,-6.35777c-0.39763,-1.1166 -0.75776,-2.28637 -1.08787,-3.5245c-0.2926,-1.10141 -0.49517,-2.19521 -0.66773,-3.28902c-4.25394,0.20509 -8.02771,1.32169 -10.75113,2.46107c0.2926,2.0357 0.69774,4.04861 1.22291,6.03114c1.493,5.65135 3.60122,12.0319 7.35998,16.6578c1.83062,2.24839 4.83913,3.53969 7.87766,2.91682c0.63021,-0.12913 1.23792,-0.31903 1.75559,-0.53931c1.88314,-0.82036 3.46617,-2.4155 3.5562,-4.4512c0.01501,-0.40258 -0.04502,-0.77478 -0.13505,-1.13938c-0.43515,-1.69389 -1.88314,-3.00798 -2.9635,-4.36764z"></path><path fill="#000000" d="M64.0922,83.44094c3.83379,0 3.15106,7.87695 2.98601,10.1937c-0.39763,5.71971 -0.85529,11.05963 0.01501,16.52867c0.17256,1.09381 0.38263,2.18762 0.66773,3.28902c0.32261,1.23813 0.68273,2.4079 1.08787,3.5245c0.81027,2.27117 1.80061,4.33726 3.03853,6.35777c0.87029,1.41284 1.84562,2.81048 3.00101,4.23851c0.04502,0.05317 0.09003,0.10634 0.12754,0.15951c1.08036,1.35967 2.53586,2.67376 2.9635,4.36764c0.09003,0.3646 0.15005,0.7368 0.13505,1.13938c-0.09003,2.0281 -1.67306,3.63084 -3.5562,4.4512c-0.51767,0.22788 -1.11788,0.41018 -1.75559,0.53931c-0.51767,0.10634 -1.03535,0.15951 -1.54552,0.15951c-2.49084,0 -4.81663,-1.20775 -6.33964,-3.07634c-3.75877,-4.6259 -5.86698,-11.00646 -7.35998,-16.6578c-0.52518,-1.98253 -0.93031,-4.00304 -1.22291,-6.03114c-0.61521,-4.20813 -0.71274,-8.49221 -0.14255,-12.76111c0.51017,-3.80555 1.55302,-7.56551 3.13606,-11.12799c0.72775,-1.64071 1.68807,-4.4436 3.5637,-5.07406c0.44265,-0.15192 0.84028,-0.22028 1.20041,-0.22028M64.0922,80.44056c-0.68273,0 -1.40297,0.12153 -2.13072,0.3722c-2.89598,0.97227 -4.20142,4.04102 -5.05671,6.06153l-0.27009,0.62286c-1.68807,3.78276 -2.82095,7.80858 -3.37614,11.96354c-0.5777,4.35245 -0.53268,8.92518 0.15005,13.59666c0.31511,2.18002 0.75025,4.32207 1.29794,6.37296c1.46299,5.53741 3.69125,12.56362 7.93768,17.78959c2.12322,2.61299 5.34931,4.17015 8.62791,4.17015c0.71274,0 1.43298,-0.07596 2.13072,-0.21269c0.81778,-0.16711 1.62805,-0.41777 2.33329,-0.72921c3.16607,-1.37486 5.21426,-4.08659 5.34931,-7.07178c0.03001,-0.65325 -0.04502,-1.31409 -0.22508,-2.02051c-0.50267,-1.99772 -1.7781,-3.47133 -2.80595,-4.65629c-0.24758,-0.28864 -0.49517,-0.56969 -0.72024,-0.85074l-0.14255,-0.17471c-1.04285,-1.2989 -1.95066,-2.58261 -2.78344,-3.92708c-1.12538,-1.83821 -2.03319,-3.72959 -2.77594,-5.79567c-0.36762,-1.02545 -0.69774,-2.09647 -1.00534,-3.27383c-0.22508,-0.86593 -0.42014,-1.81542 -0.60771,-2.99278c-0.76526,-4.8234 -0.42014,-9.71515 -0.05252,-14.89556l0.06752,-0.94189l0.01501,-0.22028c0.3001,-4.23092 0.2926,-8.90239 -2.0632,-11.46981c-1.02785,-1.12419 -2.3708,-1.71667 -3.89381,-1.71667z"></path></g><g style="mix-blend-mode: normal" text-anchor="none" font-size="none" font-weight="none" font-family="none" stroke-dashoffset="0" stroke-dasharray="" stroke-miterlimit="10" stroke-linejoin="miter" stroke-linecap="butt" stroke-width="1" stroke="none" fill-rule="nonzero" fill="none" data-paper-data="{&quot;selected&quot;:false}"><path fill="#ffffff" data-paper-data="{&quot;guideItem&quot;:null,&quot;selected&quot;:false}" d="M21.66537,6.8591c2.38581,0.30384 4.59905,1.20015 6.34714,2.90163c2.99351,2.91682 5.24427,6.4793 4.46401,10.80137c-0.27009,1.50399 -2.70841,2.83327 -4.51652,2.94721c-2.14572,0.13673 -2.01068,-1.45082 -3.96134,-3.02317c-2.80595,-2.25598 -4.37398,1.16977 -7.42751,5.0057c-2.45333,3.10672 -6.91734,3.60805 -9.97087,1.10141c-3.05353,-2.49905 -3.57121,-7.02621 -1.14789,-10.14812c4.68158,-6.01595 8.883,-10.51272 16.21297,-9.58602z"></path><path fill="#000000" data-paper-data="{&quot;guideItem&quot;:null,&quot;selected&quot;:false}" d="M17.40394,24.39803c0.69023,-0.85074 1.43298,-1.77744 1.73309,-2.18002c0.07503,-0.09875 0.12004,-0.19749 0.15005,-0.30384c-0.6002,0.7368 -1.1929,1.58754 -1.88314,2.48386z"></path><path fill="#000000" d="M30.05321,7.61109c-2.10071,-2.07368 -4.79412,-3.327 -8.03521,-3.72959c-0.74275,-0.09875 -1.50801,-0.15192 -2.22825,-0.15192c-7.61507,0 -12.23663,5.12723 -16.68563,10.86213c-3.41365,4.40562 -2.69341,10.83175 1.60554,14.34106c1.7781,1.4736 4.02886,2.27877 6.30213,2.27877c3.06103,0 5.9345,-1.39765 7.86265,-3.82833c0.54018,-0.69882 1.06536,-1.39765 1.55302,-2.05089c0.5927,-0.79757 1.35796,-1.82302 1.87563,-2.35473c0.32261,0.30384 0.57019,0.62286 0.84028,1.00266c0.72024,0.94949 1.90564,2.55222 4.54653,2.55222c0.15005,0 0.27009,0 0.42014,-0.02279c2.57337,-0.15192 6.64724,-1.97493 7.26245,-5.40828c0.86279,-4.68667 -0.91531,-9.23661 -5.3193,-13.49032zM32.47652,20.56969c-0.27009,1.50399 -2.71592,2.82567 -4.52403,2.9548h-0.24758c-1.87563,0 -1.83062,-1.52678 -3.70625,-3.03076c-0.61521,-0.50133 -1.1854,-0.72921 -1.73309,-0.72921c-1.03535,0 -1.98067,0.87353 -2.99351,2.14964c-0.02251,0.09875 -0.07503,0.19749 -0.15005,0.30384c-0.2926,0.40258 -1.03535,1.32928 -1.73309,2.18002c-0.2926,0.42537 -0.61521,0.79757 -0.84028,1.10141c-2.44583,3.09913 -6.91734,3.60046 -9.96336,1.10141c-3.04603,-2.49905 -3.57121,-7.0338 -1.14789,-10.15572c1.50801,-1.89897 2.94099,-3.65363 4.449,-5.15761c2.82095,-2.74972 5.85948,-4.55754 9.91085,-4.55754c0.5927,0 1.20791,0.05317 1.87563,0.12153c2.3708,0.30384 4.59905,1.20015 6.32463,2.90163c2.99351,2.93961 5.24427,6.4869 4.47901,10.81656z"></path><path fill="#683100" data-paper-data="{&quot;guideItem&quot;:null,&quot;selected&quot;:false}" d="M19.27957,21.92176c-0.02251,0.09875 -0.07503,0.19749 -0.15005,0.30384c-0.2926,0.40258 -1.03535,1.32928 -1.73309,2.18002c-0.2926,0.42537 -0.61521,0.79757 -0.84028,1.10141c-2.44583,3.09913 -6.91734,3.60046 -9.96336,1.10141c-3.05353,-2.50665 -3.57871,-7.0414 -1.15539,-10.16331c1.50801,-1.89897 2.94099,-3.65363 4.449,-5.15761c0.22508,-0.02279 0.66773,-0.12153 0.78777,-0.09875c1.53052,0.27345 3.01602,1.64831 2.74593,3.22826c-0.09753,0.69882 -0.49517,1.27611 -0.99033,1.70148c0.57019,-0.3722 1.26043,-0.5469 1.98067,-0.42537c1.56053,0.27345 2.59588,1.77744 2.32579,3.34979c-0.12004,0.77478 -0.54018,1.42803 -1.14038,1.8534c0.49517,-0.22788 1.03535,-0.34941 1.60554,-0.25066c0.91531,0.15192 2.15323,0.62286 2.0782,1.27611z"></path></g><g style="mix-blend-mode: normal" text-anchor="none" font-size="none" font-weight="none" font-family="none" stroke-dashoffset="0" stroke-dasharray="" stroke-miterlimit="10" stroke-linejoin="miter" stroke-linecap="butt" stroke-width="1" stroke="none" fill-rule="nonzero" fill="none" data-paper-data="{&quot;selected&quot;:false}"><path fill="#000000" d="M47.09146,17.09077c9.28063,0 18.89138,3.82074 26.56647,9.0771c6.54971,4.48158 10.99871,12.57881 13.317,20.10634c0.14255,0.45575 0.24008,0.90391 0.36762,1.35967c0.26259,0.77478 0.51017,1.54197 0.72775,2.30156c2.64089,9.16065 1.06536,17.12875 -1.44799,26.22104c-0.54768,1.97493 -4.4565,11.60653 -4.52403,12.07748c-1.12538,5.29434 1.58303,11.75845 2.33329,16.97683c1.38797,9.69996 1.66556,19.71895 -2.34079,28.87961c-5.45434,12.48766 -18.15613,16.92366 -30.76789,17.782c-1.24542,0.08355 -2.49084,0.12913 -3.72876,0.12913c-0.27009,0 -0.54018,0 -0.81778,-0.0076c-0.06002,0 -0.12004,-0.0076 -0.18006,-0.0076l-3.08354,-0.04558c-1.51551,-0.02279 -3.09104,-0.10634 -4.59905,-0.25066c-10.3685,-1.01025 -21.79486,-5.08925 -28.27705,-13.81694c-4.68908,-6.31219 -6.46718,-16.77174 -5.95701,-24.55754c0.40514,-6.07672 2.24326,-11.95594 3.37614,-17.91113c0.44265,-2.33194 1.30544,-4.61071 1.12538,-6.98063c-0.03751,-0.50133 -0.11254,-0.98747 -0.18006,-1.4812c-0.37513,-1.07102 -3.19608,-9.11508 -3.90882,-12.19142c-2.10071,-7.00342 -2.6634,-14.34865 -1.60554,-21.76984c1.11788,-7.80858 4.25394,-16.51348 10.02338,-21.98253c7.4125,-7.0338 17.39837,-12.73073 27.48178,-13.5207c0,0 0.07503,-0.0076 0.18006,-0.01519l3.24109,-0.25826c0.8928,-0.07596 1.7856,-0.11394 2.6784,-0.11394M47.09146,14.09039c-0.98283,0 -1.96566,0.03798 -2.91849,0.12153l-3.22609,0.25826l-0.24758,0.02279c-9.75329,0.75959 -20.4294,5.97797 -29.21486,14.31067c-5.54437,5.25636 -9.52822,13.90809 -10.93119,23.74478c-1.11037,7.7858 -0.54768,15.51842 1.67306,22.98519c0.60771,2.56741 2.43832,7.99088 3.87881,12.13825c0.05252,0.34941 0.09003,0.66844 0.12004,0.98747c0.09003,1.20015 -0.24008,2.56741 -0.5927,4.01823c-0.17256,0.72161 -0.35262,1.44322 -0.48766,2.17243c-0.36012,1.90657 -0.81027,3.86631 -1.25292,5.76529c-0.93031,4.02583 -1.89064,8.19597 -2.17573,12.51044c-0.53268,8.12002 1.27543,19.47588 6.54221,26.56286c6.12957,8.24915 17.1958,13.71819 30.36275,15.0019c1.54552,0.15192 3.21859,0.24307 4.84664,0.26586l3.08354,0.04558l0.16506,0.0076l0.87029,0.0076c1.31294,0 2.63339,-0.04558 3.93133,-0.12913c16.67813,-1.13179 28.18701,-7.89973 33.28123,-19.55944c4.62906,-10.60387 3.80378,-21.88378 2.56587,-30.52791c-0.26259,-1.80782 -0.72775,-3.71439 -1.1779,-5.56779c-0.8778,-3.60805 -1.79311,-7.33764 -1.20791,-10.25446c0.17256,-0.49373 0.85529,-2.26358 1.4705,-3.82833c1.56803,-4.02583 2.70091,-6.96544 3.03102,-8.15799c2.44583,-8.84163 4.39648,-17.62248 1.44049,-27.86935c-0.22508,-0.78238 -0.47266,-1.56476 -0.74275,-2.34713l-0.11254,-0.42537c-0.08253,-0.31143 -0.16506,-0.62286 -0.26259,-0.94189c-2.91849,-9.48728 -8.20027,-17.4022 -14.48739,-21.70908c-9.03305,-6.20585 -19.05643,-9.60881 -28.22453,-9.60881z"></path><path fill="#009ff9" data-paper-data="{&quot;guideItem&quot;:null,&quot;selected&quot;:false}" d="M86.6223,76.15648c2.51335,-9.08469 4.08888,-17.06039 1.44799,-26.22104c-0.21757,-0.76719 -0.46516,-1.53437 -0.72775,-2.30156c-0.12754,-0.45575 -0.22508,-0.90391 -0.36762,-1.35967c-2.31828,-7.53513 -6.76728,-15.62476 -13.317,-20.10634c-8.41784,-5.75769 -19.16147,-9.79871 -29.24487,-8.97076l-3.24109,0.25826c-0.11254,0.0076 -0.18006,0.01519 -0.18006,0.01519c-10.0834,0.78238 -20.06927,6.4869 -27.48178,13.5207c-5.76945,5.47664 -8.90551,14.17395 -10.01588,21.98253c-1.05786,7.42879 -0.49517,14.76643 1.60554,21.76984c0.71274,3.07634 3.53369,11.12039 3.90882,12.19142c0.07503,0.49373 0.14255,0.98747 0.18006,1.4812c0.18006,2.36992 -0.68273,4.64869 -1.12538,6.98063c-1.13288,5.95518 -2.971,11.83441 -3.37614,17.91113c-0.51767,7.7858 1.26793,18.24535 5.95701,24.55754c6.48219,8.72769 17.90855,12.80668 28.27705,13.81694c1.50801,0.14432 3.08354,0.22788 4.59905,0.25066l3.08354,0.04558c0.06002,0 0.12004,0.0076 0.18006,0.0076c1.51551,0.02279 3.03102,-0.01519 4.54653,-0.12153c12.61176,-0.85834 25.31354,-5.29434 30.76789,-17.782c3.99885,-9.16065 3.72876,-19.17964 2.34079,-28.87961c-0.75025,-5.21838 -3.45867,-11.68249 -2.33329,-16.97683c0.06002,-0.45575 3.97634,-10.09495 4.51652,-12.06988z"></path></g><path style="mix-blend-mode: normal" text-anchor="none" font-size="none" font-weight="none" font-family="none" stroke-dashoffset="0" stroke-dasharray="" stroke-miterlimit="10" stroke-linejoin="miter" stroke-linecap="butt" stroke-width="1" stroke="none" fill-rule="nonzero" fill="#009ff8" data-paper-data="{&quot;guideItem&quot;:null,&quot;selected&quot;:false}" d="M44.42056,17.19711c0,0 -0.07503,0.0076 -0.18006,0.01519z"></path><g style="mix-blend-mode: normal" text-anchor="none" font-size="none" font-weight="none" font-family="none" stroke-dashoffset="0" stroke-dasharray="" stroke-miterlimit="10" stroke-linejoin="miter" stroke-linecap="butt" stroke-width="1" stroke="none" fill-rule="nonzero" fill="none" data-paper-data="{&quot;selected&quot;:false}"><path fill="#ffffff" data-paper-data="{&quot;guideItem&quot;:null,&quot;selected&quot;:false}" d="M24.68139,117.78959c-1.64305,-5.27915 -1.96566,-10.62666 -2.39331,-16.34637c-0.18756,-2.52943 -0.71274,-11.73566 -5.57438,-9.2518c-1.7631,0.89632 -2.30328,3.82074 -2.79094,5.54501c-1.05786,3.75997 -1.55302,7.63388 -1.50051,11.4774c0.05252,4.30687 0.77276,8.53019 1.98067,12.6016c2.52085,-1.53437 6.09956,-3.19787 10.27847,-4.02583z"></path><path fill="#0088c5" data-paper-data="{&quot;guideItem&quot;:null,&quot;selected&quot;:false}" d="M35.04989,133.99924c-0.05252,-0.04558 -0.10504,-0.09115 -0.15005,-0.14432c-1.34295,-1.23813 -2.51335,-2.47626 -3.57871,-3.75237c-1.51551,-1.81542 -2.79094,-3.71439 -3.92382,-5.84125c-0.55519,-1.04823 -1.08036,-2.14964 -1.58303,-3.327c-0.45015,-1.04823 -0.81027,-2.10406 -1.13288,-3.1523c-4.17891,0.82795 -7.75012,2.49145 -10.28597,4.01823c0.5852,1.96734 1.27543,3.90429 2.0782,5.78807c2.29577,5.3703 5.29679,11.37106 9.67827,15.39689c2.13072,1.95974 5.29679,2.78769 8.21527,1.72427c0.60771,-0.22028 1.1779,-0.49373 1.65806,-0.79757c1.74809,-1.09381 3.08354,-2.90163 2.88097,-4.92214c-0.03751,-0.40258 -0.15755,-0.75959 -0.3001,-1.109c-0.66773,-1.61033 -2.28827,-2.69654 -3.5562,-3.8815z"></path><path fill="#000000" d="M18.24422,91.76605c3.44366,0 3.87881,7.43638 4.04387,9.66958c0.42764,5.71971 0.75025,11.06722 2.39331,16.34637c0.33011,1.05583 0.69023,2.10406 1.13288,3.1523c0.50267,1.17736 1.02034,2.27877 1.58303,3.327c1.13288,2.12685 2.40831,4.01823 3.92382,5.84125c1.06536,1.27611 2.23575,2.50665 3.57871,3.75237c0.05252,0.04558 0.10504,0.09115 0.15005,0.14432c1.26043,1.18496 2.88848,2.27117 3.5562,3.8891c0.14255,0.34941 0.25509,0.70642 0.3001,1.109c0.20257,2.02051 -1.13288,3.83593 -2.88097,4.92214c-0.48016,0.29624 -1.05035,0.57729 -1.65806,0.79757c-0.87029,0.31903 -1.7706,0.46335 -2.64839,0.46335c-2.0707,0 -4.06637,-0.82036 -5.56688,-2.18762c-4.38148,-4.01823 -7.38999,-10.01899 -9.67827,-15.39689c-0.80277,-1.88378 -1.493,-3.82074 -2.0782,-5.78807c-1.20791,-4.0714 -1.92815,-8.29472 -1.98067,-12.6016c-0.04502,-3.84352 0.44265,-7.70984 1.50051,-11.4774c0.48766,-1.73186 1.02785,-4.64869 2.79094,-5.54501c0.57019,-0.28864 1.08036,-0.41777 1.53802,-0.41777M18.24422,88.76567c-0.93782,0 -1.90564,0.25066 -2.86597,0.7444c-2.72342,1.39005 -3.57121,4.61071 -4.1339,6.74516l-0.18006,0.66084c-1.12538,3.99544 -1.66556,8.1428 -1.62055,12.33574c0.05252,4.39043 0.75776,8.90999 2.10821,13.42955c0.62271,2.10406 1.36546,4.16255 2.19824,6.1147c2.24326,5.26396 5.46184,11.88758 10.41352,16.42993c2.05569,1.88378 4.80912,2.97 7.55505,2.97c1.25292,0 2.48334,-0.22028 3.65373,-0.64565c0.78777,-0.28864 1.54552,-0.65325 2.20574,-1.06343c2.93349,-1.83061 4.57654,-4.8158 4.27644,-7.7858c-0.06752,-0.64565 -0.23258,-1.2913 -0.51017,-1.96734c-0.78777,-1.89897 -2.25826,-3.17509 -3.44366,-4.19294c-0.2851,-0.24307 -0.57019,-0.48614 -0.83278,-0.7368l-0.16506,-0.15192c-1.21541,-1.12419 -2.30328,-2.26358 -3.31612,-3.47133c-1.38047,-1.64831 -2.55086,-3.39537 -3.57871,-5.32472c-0.51017,-0.96468 -0.99033,-1.97493 -1.4705,-3.09153c-0.35262,-0.82036 -0.67523,-1.73946 -1.02785,-2.87125c-1.44799,-4.65629 -1.81561,-9.54804 -2.19824,-14.72845l-0.06752,-0.94189l-0.01501,-0.22028c-0.24758,-3.35739 -0.8928,-12.23699 -6.98486,-12.23699z"></path></g><g style="mix-blend-mode: normal" text-anchor="none" font-size="none" font-weight="none" font-family="none" stroke-dashoffset="0" stroke-dasharray="" stroke-miterlimit="10" stroke-linejoin="miter" stroke-linecap="butt" stroke-width="1" stroke="none" fill-rule="evenodd" fill="none" data-paper-data="{&quot;selected&quot;:false}"><path fill="#000000" d="M99.72172,61.90657c-1.33545,-9.55564 -7.78763,-13.01177 -10.27847,-14.01443c-0.76526,-4.98291 -5.85948,-26.42613 -35.65954,-26.42613c-1.45549,0 -2.99351,0.05317 -4.59905,0.15192c-10.84866,0.75199 -19.2515,4.58033 -24.93842,11.38625c-9.14559,10.93809 -8.47786,25.9248 -8.05772,30.25446c1.98067,20.14432 15.44771,30.0038 41.05386,30.0038c2.74593,0 5.6344,-0.12153 8.67293,-0.34941c12.82933,-0.94949 23.45292,-5.62856 29.18485,-12.83707c4.02886,-5.05887 5.58939,-11.16597 4.62156,-18.16939zM19.15953,62.9548c-0.2926,-2.87885 -1.26043,-17.71363 7.33748,-27.99848c5.16174,-6.18306 12.85184,-9.66198 22.88272,-10.33042c34.42912,-2.37752 37.12253,23.41815 37.22006,24.51956c0.05252,0.62286 0.49517,1.15458 1.11037,1.32928c0.3001,0.07596 7.73511,2.2256 9.07056,11.8572c0.84028,6.12989 -0.49517,11.485 -3.97634,15.86024c-5.13923,6.45651 -15.27516,10.83175 -27.11415,11.73566c-29.3349,2.20281 -44.53503,-6.62362 -46.53071,-26.97303z"></path><path fill="#ffffff" data-paper-data="{&quot;guideItem&quot;:null,&quot;selected&quot;:false}" d="M92.80439,78.19977c-5.13923,6.45651 -15.27516,10.83175 -27.11415,11.73566c-29.3349,2.20281 -44.53503,-6.63122 -46.53821,-26.97303c-0.2926,-2.87885 -1.26043,-17.71363 7.33748,-27.99848c5.16174,-6.18306 12.85184,-9.66198 22.88272,-10.33042c34.42912,-2.37752 37.12253,23.41815 37.22006,24.51956c0.05252,0.62286 0.49517,1.15458 1.11037,1.32928c0.3001,0.07596 7.73511,2.2256 9.07056,11.8572c0.84779,6.12229 -0.48766,11.4774 -3.96884,15.86024z"></path><path fill="#ffbeb8" data-paper-data="{&quot;guideItem&quot;:null,&quot;selected&quot;:false}" d="M62.41913,65.71971c0.14255,6.12989 -4.39648,11.21914 -10.14342,11.35587c-5.74694,0.13673 -10.52605,-4.71705 -10.6686,-10.84694c-0.14255,-6.12229 4.39648,-11.21155 10.14342,-11.34827c5.74694,-0.13673 10.52605,4.70946 10.6686,10.83935"></path><path fill="#ffbeb8" data-paper-data="{&quot;guideItem&quot;:null,&quot;selected&quot;:false}" d="M96.21804,60.86593c-0.51767,-2.08128 -2.956,-9.06191 -6.30963,-6.55526c-4.52403,3.38017 -2.43082,11.97873 -0.18756,16.24763c0.8853,1.67869 2.47584,3.64603 4.70409,3.22066c1.26043,-0.23547 1.72558,-2.65097 1.89064,-3.47892c0.63021,-3.09153 0.66773,-6.35017 -0.09753,-9.43411z"></path></g><g style="mix-blend-mode: normal" text-anchor="none" font-size="none" font-weight="none" font-family="none" stroke-dashoffset="0" stroke-dasharray="" stroke-miterlimit="10" stroke-linejoin="miter" stroke-linecap="butt" stroke-width="1" stroke="none" fill-rule="none" fill="none" data-paper-data="{&quot;selected&quot;:false}"><path fill-rule="evenodd" fill="#000000" data-paper-data="{&quot;guideItem&quot;:null,&quot;selected&quot;:false}" d="M80.27516,60.12913c0.02251,0.79757 -0.79527,1.46601 -1.83812,1.4888c-1.04285,0.02279 -1.89814,-0.60008 -1.91315,-1.39765c-0.02251,-0.78997 0.80277,-1.46601 1.84562,-1.4888c1.04285,-0.02279 1.89064,0.60767 1.90564,1.39765"></path><path fill-rule="evenodd" fill="#000000" data-paper-data="{&quot;guideItem&quot;:null,&quot;selected&quot;:false}" d="M82.89354,58.34409v0c-1.08036,0.02279 -1.98067,-1.02545 -2.01068,-2.34713l-0.0075,-0.33422c-0.03001,-1.32169 0.81778,-2.42309 1.89814,-2.44588c1.08036,-0.02279 1.98067,1.02545 2.01818,2.34713l0.0075,0.33422c0.03001,1.32169 -0.82528,2.4155 -1.90564,2.44588"></path><path fill-rule="evenodd" fill="#000000" data-paper-data="{&quot;guideItem&quot;:null,&quot;selected&quot;:false}" d="M66.14789,58.75427v0c-1.26793,0.03038 -2.32579,-1.01785 -2.3558,-2.33954l-0.0075,-0.33422c-0.03001,-1.32169 0.97533,-2.42309 2.24326,-2.45348c1.26793,-0.03038 2.32579,1.01785 2.3633,2.33954l0.0075,0.33422c0.03001,1.32169 -0.97533,2.42309 -2.25076,2.45348"></path><path fill-rule="nonzero" fill="#231815" data-paper-data="{&quot;guideItem&quot;:null,&quot;selected&quot;:false}" d="M86.82487,63.18268c-0.36012,-0.59248 -1.12538,-0.76719 -1.69557,-0.41777c-0.5852,0.35701 -0.76526,1.13179 -0.41264,1.71667c0.04502,0.07596 0.14255,0.23547 -0.27759,0.75199c-0.85529,1.04064 -1.98817,1.17736 -2.64839,1.14698c-1.1704,-0.03798 -2.28827,-0.60767 -2.91849,-1.4812c-0.04502,-0.06077 -0.10504,-0.09875 -0.15755,-0.14432c-0.05252,-0.04558 -0.08253,-0.10634 -0.14255,-0.15192c-0.0075,-0.0076 -0.02251,-0.0076 -0.03001,-0.01519c-0.08253,-0.05317 -0.18006,-0.08355 -0.27009,-0.11394c-0.06002,-0.02279 -0.11254,-0.05317 -0.17256,-0.06077c-0.08253,-0.01519 -0.16506,-0.0076 -0.24758,0c-0.07503,0 -0.15005,-0.0076 -0.22508,0.0076c-0.06752,0.01519 -0.12754,0.05317 -0.18756,0.07596c-0.08253,0.03038 -0.17256,0.06077 -0.24758,0.11394c-0.0075,0.0076 -0.02251,0.0076 -0.03001,0.01519c-0.06002,0.04558 -0.09753,0.11394 -0.15005,0.16711c-0.04502,0.05317 -0.10504,0.08355 -0.14255,0.14432c-1.7631,2.61299 -6.62474,3.23585 -9.64075,1.22294c-0.70524,-0.47095 -1.10287,-0.87353 -1.27543,-1.09381c0.22508,-0.48614 0.12754,-1.07862 -0.2851,-1.45841c-0.50267,-0.46335 -1.28293,-0.42537 -1.74809,0.08355c-0.39763,0.44056 -0.57019,1.00266 -0.50267,1.58754c0.12004,0.97227 0.94532,1.97493 2.44583,2.97c1.64305,1.09381 3.61622,1.61033 5.55938,1.61033c2.46083,0 4.83163,-0.86593 6.46718,-2.42309c1.05035,0.87353 2.40081,1.39765 3.82629,1.45082c0.06752,0 0.13505,0 0.21007,0c1.74059,0 3.34613,-0.7368 4.41899,-2.05089c1.35046,-1.64831 0.8778,-3.00038 0.48016,-3.65363z"></path></g>
               </svg>