<svg viewBox="0 0 110 200" xml:space="preserve" xmlns:xlink="http://www.w3.org/1999/xlink" xmlns="http://www.w3.org/2000/svg">
                    <g style="mix-blend-mode: normal" text-anchor="none" font-size="none" font-weight="none" font-family="none" stroke-dashoffset="0" stroke-dasharray="" stroke-miterlimit="10" stroke-linejoin="miter" stroke-linecap="butt" stroke-width="1" stroke="none" fill-rule="nonzero" fill="none" data-paper-data="{&quot;selected&quot;:false}"><path fill="#ffffff" data-paper-data="{&quot;guideItem&quot;:null,&quot;selected&quot;:false}" d="M105.16756,100.74713c-2.04681,1.7611 -5.92143,3.63782 -9.27382,3.04189c-0.49696,-2.33034 -1.23819,-4.64289 -2.19,-6.8576c-1.00235,-2.33034 -10.0319,-15.6364 -3.54612,-16.24122c1.76043,-0.17789 3.49558,1.80557 4.65797,2.89069c5.23916,4.91862 8.54101,10.78894 10.35197,17.16624z"></path><path fill="#0088c5" data-paper-data="{&quot;guideItem&quot;:null,&quot;selected&quot;:false}" d="M104.13994,127.93738c-0.71596,0.8005 -1.971,1.37864 -3.18393,1.62768c-0.57277,0.12452 -1.12027,0.20457 -1.61723,0.20457c-0.02527,0 -0.02527,0 -0.05054,0c-4.6327,0 -4.6327,-4.24264 -4.01781,-7.68478c0.78335,-4.59842 1.82781,-8.51196 1.23819,-13.25269c-0.02527,-0.27573 -0.09265,-1.73441 -0.23585,-3.16641c-0.11792,-0.6315 -0.23585,-1.25411 -0.37904,-1.88562c3.35239,0.60482 7.20174,-1.25411 9.24855,-3.04189c0,0 0,0 0.02527,0l0.06738,0.05337c0.02527,0.05337 0.06738,0.09784 0.09265,0.17789l0.37904,1.48537c0.06738,0.32909 0.14319,0.67598 0.21058,1.03175c0.28638,1.37864 0.49696,2.864 0.5475,3.11305c0.37904,2.35702 0.57277,4.74073 0.61489,7.10664c0.10108,4.58952 0.37062,10.41537 -2.93966,14.23108z"></path><path fill="#000000" d="M109.96872,114.17771l-0.02527,-0.52477c-0.05054,-2.58828 -0.26112,-5.12319 -0.64015,-7.53358c-0.52223,-3.29094 -0.90127,-5.55012 -1.61723,-6.90207c-2.11419,-6.99991 -5.80351,-13.03033 -10.95844,-17.87779l-0.42958,-0.42693c-1.33085,-1.2808 -3.35239,-3.26425 -5.92143,-3.26425c-0.14319,0 -0.31165,0.02668 -0.45485,0.02668c-2.71223,0.24904 -3.87462,1.9123 -4.34631,2.89069c-1.87835,3.88686 1.06973,9.66824 4.51477,15.76092c0.40431,0.70266 0.90127,1.58321 1.01919,1.83225c1.01919,2.43707 1.81096,5.0965 2.3332,7.93383c0.06738,0.8005 0.11792,1.60989 0.16846,2.16134c0.05054,0.49809 0.06738,0.85386 0.06738,0.97839c0.42958,3.44214 -0.14319,6.47514 -0.80862,10.01512c-0.14319,0.75603 -0.28638,1.50316 -0.40431,2.31255c-0.69069,3.91355 -0.28638,6.80423 1.28031,8.78769c0.876,1.10291 2.56904,2.43707 5.54239,2.43707c0.75808,0 1.52458,-0.09784 2.25739,-0.24904c1.13712,-0.24904 3.25973,-0.92502 4.68324,-2.56159c3.9757,-4.55394 3.8325,-11.05577 3.73985,-15.7965zM104.13994,127.93738c-0.71596,0.8005 -1.971,1.37864 -3.18393,1.62768c-0.57277,0.12452 -1.12027,0.20457 -1.61723,0.20457c-0.02527,0 -0.02527,0 -0.05054,0c-4.6327,0 -4.6327,-4.24264 -4.01781,-7.68478c0.78335,-4.59842 1.82781,-8.51196 1.23819,-13.25269c-0.02527,-0.27573 -0.09265,-1.73441 -0.23585,-3.16641c-0.11792,-0.6315 -0.23585,-1.25411 -0.37904,-1.88562c-0.49696,-2.33034 -1.23819,-4.64289 -2.19,-6.8576c-1.00235,-2.33034 -10.0319,-15.6364 -3.54612,-16.24122c0.06738,-0.02668 0.14319,-0.02668 0.21058,-0.02668c1.66777,0 3.32712,1.88562 4.44739,2.90848c5.20547,4.91862 8.50732,10.79783 10.31828,17.17513c0,0 0,0 0.02527,0l0.06738,0.05337c0.02527,0.02668 0.05054,0.07116 0.09265,0.17789l0.37904,1.48537c0.06738,0.32909 0.14319,0.67598 0.21058,1.03175c0.28638,1.37864 0.49696,2.864 0.5475,3.11305c0.37904,2.35702 0.57277,4.74073 0.61489,7.10664c0.1095,4.58952 0.37904,10.41537 -2.93123,14.23108z"></path></g><g style="mix-blend-mode: normal" text-anchor="none" font-size="none" font-weight="none" font-family="none" stroke-dashoffset="0" stroke-dasharray="" stroke-miterlimit="10" stroke-linejoin="miter" stroke-linecap="butt" stroke-width="1" stroke="none" fill-rule="nonzero" fill="none" data-paper-data="{&quot;selected&quot;:false}"><path fill="#000000" d="M23.37096,85.94681c0.12635,0 0.26112,0.00889 0.38746,0.02668c7.05012,1.12959 -3.66404,14.996 -4.90224,17.45975c-1.03604,2.0724 -1.88677,4.21596 -2.56904,6.41288c-0.04212,0.13342 -0.07581,0.26683 -0.1095,0.40025c-0.26954,0.88055 -0.50539,1.76999 -0.71596,2.66833c-0.08423,0.36467 -0.16004,0.72045 -0.23585,1.08512c-0.1095,0.49809 -0.20215,1.00507 -0.28638,1.51205c-0.83389,4.9364 -0.75808,9.87281 0.26112,15.05826c0.75808,3.84239 0.90969,8.30739 -3.9757,8.30739c-0.20215,0 -0.41273,-0.00889 -0.63173,-0.02668c-0.5475,-0.03558 -1.14554,-0.15121 -1.752,-0.32909c-1.314,-0.38246 -2.628,-1.07623 -3.36081,-2.02793c-3.36923,-4.38495 -2.71223,-10.72667 -2.30793,-15.71645c0.21058,-2.59717 0.58119,-5.16766 1.13712,-7.70257c0.12635,-0.56924 1.38139,-6.30615 1.81939,-6.30615c0,0 0,0 0.00842,0c0.02527,0 0.05054,0.00889 0.06738,0.00889c2.36689,-6.81313 6.30047,-12.99475 12.29771,-17.96673c1.24662,-1.03175 3.0997,-2.864 4.86854,-2.864M23.37096,82.9316c-2.54377,0 -4.70851,1.85004 -6.13201,3.07747l-0.49696,0.42693c-5.85405,4.85636 -10.20036,11.06466 -12.92102,18.46482c-0.92654,1.2808 -1.45719,3.70008 -2.29108,7.4891c-0.57277,2.59717 -0.97708,5.32776 -1.19608,8.1295l-0.04212,0.56924c-0.41273,5.12319 -0.9855,12.14089 2.9902,17.30855c1.40666,1.82336 3.62193,2.67722 4.80958,3.033c0.77492,0.22236 1.57512,0.37357 2.31635,0.42693c0.28638,0.01779 0.56435,0.02668 0.82546,0.02668c3.08285,0 4.78431,-1.36974 5.66874,-2.51712c2.10577,-2.73948 1.6425,-6.67971 1.10342,-9.4103c-0.94339,-4.79409 -1.02762,-9.33914 -0.25269,-13.91977c0.07581,-0.43583 0.16846,-0.90723 0.26112,-1.37864c0.07581,-0.34688 0.14319,-0.68487 0.219,-1.02286c0.20215,-0.84497 0.42115,-1.68105 0.66542,-2.48154l0.07581,-0.27573c0.67385,-2.17913 1.47404,-4.18038 2.409,-6.03931c0.14319,-0.28462 0.72439,-1.18296 1.23819,-1.97456c4.11889,-6.32393 7.66501,-12.34546 5.92143,-16.60589c-0.42115,-1.03175 -1.54985,-2.82843 -4.35474,-3.28204c-0.26954,-0.01779 -0.53908,-0.04447 -0.81704,-0.04447z"></path><path fill="#ffffff" data-paper-data="{&quot;guideItem&quot;:null,&quot;selected&quot;:false}" d="M18.8646,103.43325c-1.12027,2.2325 -2.02154,4.57173 -2.7375,6.95544c0.06738,-0.20457 0.11792,-0.42693 0.19373,-0.6315c-3.66404,-1.90341 -7.3702,-2.68612 -10.12455,-2.98853c2.35004,-6.80423 6.30047,-12.97696 12.31455,-17.94895c1.33085,-1.12959 3.35239,-3.13973 5.25601,-2.83732c7.03328,1.12959 -3.66404,14.9871 -4.90224,17.45086z"></path><path fill="#0088c5" data-paper-data="{&quot;guideItem&quot;:null,&quot;selected&quot;:false}" d="M14.84679,115.98328c-0.75808,4.79409 -0.64015,9.5615 0.35377,14.58685c0.78335,3.9936 0.92654,8.68985 -4.61585,8.28071c-0.5475,-0.05337 -1.13712,-0.15121 -1.76043,-0.32909c-1.30558,-0.37357 -2.61116,-1.07623 -3.35239,-2.03682c-3.37766,-4.36716 -2.71223,-10.71778 -2.30793,-15.71645c0.21058,-2.58828 0.57277,-5.16766 1.13712,-7.70257c0.11792,-0.55145 1.38139,-6.29725 1.81096,-6.29725h0.06738c2.75435,0.30241 6.46893,1.07623 10.12455,2.98853c-0.06738,0.20457 -0.11792,0.42693 -0.19373,0.6315c-0.21058,0.67598 -0.40431,1.35195 -0.5475,2.03682c-0.28638,1.20075 -0.52223,2.37481 -0.71596,3.55777z"></path></g><g style="mix-blend-mode: normal" text-anchor="none" font-size="none" font-weight="none" font-family="none" stroke-dashoffset="0" stroke-dasharray="" stroke-miterlimit="10" stroke-linejoin="miter" stroke-linecap="butt" stroke-width="1" stroke="none" fill-rule="none" fill="none" data-paper-data="{&quot;selected&quot;:false}"><path fill-rule="nonzero" fill="#ffffff" data-paper-data="{&quot;guideItem&quot;:null,&quot;selected&quot;:false}" d="M72.64602,136.49382v29.76074c0,0 -2.08893,0.55145 -4.87697,0.55145c-2.78804,0 -4.87697,-0.55145 -4.87697,-0.55145v-29.76074c0,-1.95677 4.51477,-3.56666 6.40155,-3.56666c1.8615,0 3.35239,1.60989 3.35239,3.56666z"></path><path fill-rule="evenodd" fill="#009ff9" data-paper-data="{&quot;guideItem&quot;:null,&quot;selected&quot;:false}" d="M85.89553,194.45877c-2.47639,2.98853 -6.4942,2.49044 -9.82132,2.49044h-8.96217v-0.07116c-1.87835,-0.37357 -4.21154,-1.85893 -4.21154,-3.63782v-26.96789c0,0 2.08893,0.55145 4.87697,0.55145c2.78804,0 4.87697,-0.55145 4.87697,-0.55145v11.34928c0.95181,-0.02668 1.971,0.05337 3.18393,0.30241c0.02527,0 0.23585,0.05337 0.23585,0.05337c4.27893,0.97839 7.99351,4.02028 9.96451,8.1384c1.095,2.21471 1.54985,6.27946 -0.14319,8.34297z"></path><path fill-rule="nonzero" fill="#000000" d="M69.28521,132.94494c1.8615,0 3.36923,1.5921 3.36923,3.55777v26.34528v3.41546v11.34039c0.06738,0 0.13477,0 0.21058,0c0.876,0 1.84466,0.07116 2.96493,0.30241c0.04212,0.00889 0.23585,0.05337 0.23585,0.05337c4.27893,0.97839 8.00193,4.01138 9.98136,8.1295c1.06973,2.2325 1.54143,6.32393 -0.14319,8.36965c-1.8615,2.25029 -4.60743,2.53491 -7.26912,2.53491c-0.876,0 -1.74358,-0.02668 -2.56062,-0.02668h-3.41135h-2.28266h-2.43427h-0.83389v-0.08894c-1.89519,-0.36467 -4.21997,-1.85893 -4.21997,-3.64671v-30.37446v0v-26.34528c0.00842,-1.98346 4.54004,-3.56666 6.39312,-3.56666M69.28521,129.92973c-1.95416,0 -9.24013,1.64547 -9.24013,6.57298v26.34528v30.37446c0,3.21089 2.89754,5.61238 5.84562,6.43956c0.37062,0.19568 0.78335,0.30241 1.22135,0.30241h0.83389h2.43427h2.28266h3.41135c0.38746,0 0.79177,0.00889 1.19608,0.01779c0.45485,0.00889 0.90969,0.01779 1.36454,0.01779c3.20077,0 6.83112,-0.42693 9.42543,-3.56666c2.69539,-3.25536 1.93731,-8.80548 0.53908,-11.71396c-2.36689,-4.91862 -6.8227,-8.54754 -11.91867,-9.71271l-0.18531,-0.04447c-0.33692,-0.07116 -0.657,-0.12452 -0.97708,-0.17789v-8.52975v-3.41546v-26.34528c-0.00842,-3.62003 -2.79647,-6.56408 -6.23308,-6.56408z"></path></g><g style="mix-blend-mode: normal" text-anchor="none" font-size="none" font-weight="none" font-family="none" stroke-dashoffset="0" stroke-dasharray="" stroke-miterlimit="10" stroke-linejoin="miter" stroke-linecap="butt" stroke-width="1" stroke="none" fill-rule="none" fill="none" data-paper-data="{&quot;selected&quot;:false}"><path fill-rule="evenodd" fill="#009ff9" data-paper-data="{&quot;guideItem&quot;:null,&quot;selected&quot;:false}" d="M50.51857,154.97643v28.67562c0,1.81446 -2.30793,3.29094 -4.21154,3.64671v0.09784h-8.94532c-3.32712,0 -7.3702,0.50698 -9.84659,-2.50823c-1.68462,-2.03682 -1.21292,-6.12826 -0.14319,-8.36965c1.97943,-4.11812 5.71085,-7.15112 9.98978,-8.1295c0,0 0.19373,-0.02668 0.23585,-0.05337c1.21292,-0.24904 2.24054,-0.30241 3.16708,-0.30241v-13.05701c0,0 0,0 0.00842,-0.00889v0.3113c0,0 2.08893,0.55145 4.86854,0.55145c2.7712,0 4.86012,-0.55145 4.86012,-0.55145v-0.3113c0.00842,0 0.01685,0.00889 0.01685,0.00889z"></path><path fill-rule="nonzero" fill="#000000" d="M50.50172,144.44543c-1.19608,-0.83608 -2.61958,-1.31637 -3.98412,-1.31637c-1.33927,0 -3.79881,0.58703 -5.74455,1.86783c-1.60881,1.06733 -2.86385,2.60607 -2.86385,4.69626v15.53856c-0.31165,0.04447 -0.64015,0.10673 -0.97708,0.17789l-0.18531,0.04447c-5.09597,1.16517 -9.55178,4.79409 -11.91867,9.71271c-1.39823,2.89958 -2.15631,8.4497 0.53908,11.71396c2.59431,3.13973 6.21624,3.55777 9.42543,3.55777c0.45485,0 0.91812,-0.00889 1.36454,-0.00889c0.40431,-0.00889 0.80862,-0.01779 1.19608,-0.01779h8.95374c0.438,0 0.85073,-0.11563 1.22135,-0.30241c2.9565,-0.82718 5.84562,-3.22868 5.84562,-6.44846v-33.9678c0,-2.24139 -1.21292,-4.09143 -2.87227,-5.24771zM50.52699,183.66094c0,1.78778 -2.32477,3.28204 -4.21997,3.64671v0.08894h-8.95374c-0.82546,0 -1.68462,0.03558 -2.56062,0.03558c-2.67012,0 -5.41605,-0.28462 -7.27755,-2.53491c-1.68462,-2.04572 -1.21292,-6.13715 -0.14319,-8.36965c1.97943,-4.11812 5.70243,-7.15112 9.98136,-8.1295c0,0 0.19373,-0.04447 0.23585,-0.05337c1.12869,-0.24015 2.08893,-0.30241 2.97335,-0.30241h0.20215v-18.3492c0,-0.06226 0,-0.12452 0.00842,-0.18678c0.23585,-1.87672 3.942,-3.37099 5.74455,-3.37099c1.77727,0 3.82408,1.46758 3.98412,3.31762c0.01685,0.08005 0.01685,0.1601 0.01685,0.24015v3.59335h0.00842z"></path><path fill-rule="nonzero" fill="#ffffff" data-paper-data="{&quot;guideItem&quot;:null,&quot;selected&quot;:false}" d="M50.50172,149.45299v5.82585c0,0 -2.08893,0.55145 -4.86012,0.55145c-2.77962,0 -4.86854,-0.55145 -4.86854,-0.55145v-5.77248c0.23585,-1.87672 3.942,-3.37099 5.74455,-3.37099c1.77727,0 3.82408,1.46758 3.98412,3.31762z"></path></g><g style="mix-blend-mode: normal" text-anchor="none" font-size="none" font-weight="none" font-family="none" stroke-dashoffset="0" stroke-dasharray="" stroke-miterlimit="10" stroke-linejoin="miter" stroke-linecap="butt" stroke-width="1" stroke="none" fill-rule="none" fill="none" data-paper-data="{&quot;selected&quot;:false}"><path fill-rule="evenodd" fill="#009ff9" data-paper-data="{&quot;guideItem&quot;:null,&quot;selected&quot;:false}" d="M96.87082,114.63133c0.37904,7.4891 -1.37296,18.46482 -6.09832,24.89549c-5.57608,7.61363 -15.75117,12.57671 -27.89727,13.62626c-1.44877,0.12452 -3.03231,0.17789 -4.55689,0.17789h-3.3187c-1.49089,0 -3.01547,-0.05337 -4.50635,-0.17789c-10.55413,-0.92502 -24.31745,-4.85636 -29.76719,-18.38477c-4.10204,-10.19301 -3.15866,-21.29325 -1.85308,-29.80521c0.23585,-1.68105 0.70754,-3.47772 1.18766,-5.40781c1.06973,-4.35827 2.20685,-8.86774 1.39823,-13.04812c-0.35377,-1.85004 -1.13712,-3.70897 -1.89519,-5.48786c-0.45485,-1.04954 -0.90127,-2.10798 -1.22977,-3.10415c-2.91439,-8.92111 -3.3945,-18.1891 -1.39823,-27.47487c1.92046,-8.9389 5.92985,-16.53473 11.00898,-20.78627c8.4652,-7.16001 18.31179,-11.24255 27.1813,-11.24255h3.3187c8.70947,0 18.52237,4.08254 27.02126,11.24255c5.07912,4.26043 9.08851,11.84737 11.00898,20.78627c2.11419,9.8906 1.54143,19.06075 -1.77727,28.90688c-0.85073,2.48154 -1.752,5.46118 -2.01312,8.64538c-0.19373,2.02793 0.23585,3.93134 0.64015,5.76359c0.14319,0.67598 0.31165,1.37864 0.42958,2.05461c0.3285,2.10798 0.78335,4.20706 1.21292,6.31504c0.83389,4.06475 1.69304,8.2896 1.90362,12.50556z"></path><path fill-rule="nonzero" fill="#000000" d="M97.72155,101.44979c-0.42958,-2.05461 -0.85073,-4.10922 -1.18766,-6.19052c-0.14319,-0.72934 -0.28638,-1.47647 -0.45485,-2.20582c-0.37904,-1.68105 -0.70754,-3.25536 -0.58962,-4.81188c0.26112,-2.85511 1.095,-5.61238 1.86993,-7.91604c3.46189,-10.24638 4.07677,-20.23481 1.86993,-30.58792c-2.06366,-9.5704 -6.45208,-17.77995 -12.0029,-22.46731c-8.98743,-7.56026 -19.47418,-11.90074 -28.77327,-11.90074h-3.5377c-9.32436,0 -19.8111,4.33158 -28.77327,11.90074c-5.55924,4.69626 -9.94767,12.9147 -11.98605,22.4851c-2.11419,9.87281 -1.60881,19.66557 1.49089,29.12924c0.35377,1.10291 0.83389,2.2325 1.33085,3.3532c0.69069,1.62768 1.39823,3.30873 1.70989,4.85636c0.66542,3.47772 -0.37904,7.64031 -1.37296,11.66948c-0.49696,2.00125 -0.96866,3.90465 -1.25504,5.71022c-1.35612,8.92111 -2.32477,20.53722 2.06366,31.45957c4.7422,11.79401 15.8691,18.78502 32.16777,20.19034c1.54143,0.15121 3.10812,0.22236 4.91066,0.20457h3.13339c1.60881,0 3.25131,-0.05337 4.79274,-0.20457c12.92944,-1.10291 23.83734,-6.48403 29.91038,-14.75585c5.19704,-7.08886 7.09224,-18.60713 6.68793,-26.90563c-0.22742,-4.44721 -1.12869,-8.7788 -2.00469,-13.01254zM58.32677,153.33096h-3.3187c-1.49089,0 -3.01547,-0.05337 -4.50635,-0.17789c-10.55413,-0.92502 -24.31745,-4.85636 -29.76719,-18.38477c-4.10204,-10.19301 -3.15866,-21.29325 -1.85308,-29.80521c0.23585,-1.68105 0.70754,-3.47772 1.18766,-5.40781c1.06973,-4.35827 2.20685,-8.86774 1.39823,-13.04812c-0.35377,-1.85004 -1.13712,-3.70897 -1.89519,-5.48786c-0.45485,-1.04954 -0.90127,-2.10798 -1.22977,-3.10415c-2.91439,-8.92111 -3.3945,-18.1891 -1.39823,-27.47487c1.92046,-8.9389 5.92985,-16.53473 11.00898,-20.78627c8.4652,-7.16001 18.31179,-11.24255 27.1813,-11.24255h3.3187c8.70947,0 18.52237,4.08254 27.02126,11.24255c5.07912,4.26043 9.08851,11.84737 11.00898,20.78627c2.11419,9.8906 1.54143,19.06075 -1.77727,28.90688c-0.85073,2.48154 -1.752,5.46118 -2.01312,8.64538c-0.19373,2.02793 0.23585,3.93134 0.64015,5.76359c0.14319,0.67598 0.31165,1.37864 0.42958,2.05461c0.3285,2.10798 0.78335,4.20706 1.21292,6.31504c0.85073,4.08254 1.70989,8.31629 1.92046,12.52335c0.37904,7.4891 -1.37296,18.46482 -6.09832,24.89549c-5.57608,7.61363 -15.75117,12.57671 -27.89727,13.62626c-1.46562,0.10673 -3.05758,0.1601 -4.57374,0.1601z"></path></g><g style="mix-blend-mode: normal" text-anchor="none" font-size="none" font-weight="none" font-family="none" stroke-dashoffset="0" stroke-dasharray="" stroke-miterlimit="10" stroke-linejoin="miter" stroke-linecap="butt" stroke-width="1" stroke="none" fill-rule="nonzero" fill="none" data-paper-data="{&quot;selected&quot;:false}"><path fill="#ffffff" data-paper-data="{&quot;guideItem&quot;:null,&quot;selected&quot;:false}" d="M36.98266,3.94912c-2.75435,-1.07623 -5.81193,-1.28969 -8.92847,-0.25794c-4.18627,1.37864 -7.85032,4.23375 -10.89105,7.62252c-0.25269,0.26683 -0.438,0.4803 -0.53908,0.59593c-0.95181,1.10291 -1.52458,2.43707 -1.73516,3.8246c-0.34535,2.31255 0.3285,4.77631 1.99627,6.51961c2.67012,2.79285 6.90693,2.68612 9.45913,-0.24015c0.00842,-0.00889 0.00842,-0.00889 0.01685,-0.01779c0.74965,-0.85386 1.76043,-1.80557 2.85543,-2.67722c-0.00842,-0.03558 -0.02527,-0.06226 -0.03369,-0.08894c3.1755,-2.65943 7.22701,-4.52726 10.29301,-1.25411c0.77492,0.82718 1.46562,1.72552 2.18158,2.60607c0.35377,0.44472 0.58119,0.88055 1.17081,0.9606c0.80019,0.10673 1.65093,-0.24015 2.36689,-0.56035c0.67385,-0.3113 1.57512,-0.64929 2.12262,-1.15628c0.88442,-0.81829 0.24427,-2.59717 0.01685,-3.54887c-1.30558,-5.47896 -5.30655,-10.35311 -10.35197,-12.32767z"></path><path fill="#000000" d="M50.19007,15.85876l-0.09265,-0.32909c-1.54143,-6.48403 -6.30889,-12.1231 -12.12082,-14.40007c-1.89519,-0.74713 -3.8662,-1.12959 -5.81193,-1.12959c-1.68462,0 -3.34397,0.27573 -4.9612,0.8005c-4.10204,1.37864 -8.01878,4.02917 -11.62386,7.91604c-0.16846,0.15121 -0.31165,0.32909 -0.47169,0.49809c-0.23585,0.27573 -0.45485,0.49809 -0.57277,0.62261c-1.30558,1.52984 -2.15631,3.37988 -2.4427,5.40781c-0.52223,3.3532 0.5475,6.75976 2.79647,9.11678c1.77727,1.87672 4.12731,2.90848 6.62055,2.90848c2.13104,0 4.21997,-0.8005 5.87932,-2.2325c0.35377,-0.27573 0.69069,-0.57814 0.99392,-0.92502v-0.02668l0.06738,-0.05337c0.64015,-0.74713 1.54143,-1.57431 2.49323,-2.35702l1.49089,-1.17406l-0.02527,-0.05337c1.22977,-0.8005 2.37531,-1.25411 3.25131,-1.25411c0.69069,0 1.22977,0.27573 1.80254,0.85386c0.5475,0.60482 1.06973,1.25411 1.63408,1.95677l0.37904,0.49809l0.11792,0.15121c0.40431,0.52477 1.22977,1.62768 2.89754,1.85004c0.21058,0.02668 0.42958,0.02668 0.64015,0.02668c1.21292,0 2.2995,-0.42693 3.1755,-0.82718l0.3285,-0.15121c0.78335,-0.32909 1.73516,-0.74713 2.53535,-1.50316c2.15631,-1.93009 1.34769,-4.90972 1.01919,-6.19052zM47.31779,19.81677c-0.5475,0.49809 -1.44877,0.85386 -2.11419,1.15628c-0.61489,0.27573 -1.35612,0.57814 -2.06366,0.57814c-0.09265,0 -0.21058,0 -0.31165,-0.02668c-0.58962,-0.07116 -0.80862,-0.49809 -1.16239,-0.9517c-0.70754,-0.88055 -1.39823,-1.77888 -2.18158,-2.60607c-1.16239,-1.25411 -2.46796,-1.7522 -3.81566,-1.7522c-2.20685,0 -4.50635,1.35195 -6.47735,3.00632c0,0.02668 0.02527,0.07116 0.02527,0.09784c-0.80862,0.64929 -1.59196,1.35195 -2.23212,2.02793c-0.21058,0.20457 -0.42958,0.42693 -0.61489,0.64929h-0.02527c-0.3285,0.37357 -0.69069,0.70266 -1.06973,1.00507c-0.37904,0.27573 -0.75808,0.52477 -1.18766,0.70266c-2.37531,1.07623 -5.22231,0.60482 -7.18489,-1.44979h-0.02527c-0.16846,-0.17789 -0.3285,-0.37357 -0.47169,-0.57814c-0.78335,-1.00507 -1.28031,-2.17913 -1.49089,-3.43325c-0.14319,-0.82718 -0.14319,-1.68105 -0.02527,-2.50823c0,-0.05337 0.02527,-0.12452 0.05054,-0.17789c0.05054,-0.34688 0.11792,-0.67598 0.26112,-1.02286c0.02527,-0.20457 0.09265,-0.40025 0.19373,-0.57814c0.16846,-0.45362 0.40431,-0.88055 0.66542,-1.2808c0.16846,-0.27573 0.35377,-0.52477 0.57277,-0.77381c0.16846,-0.20457 0.5475,-0.62261 1.11185,-1.20075c0.11792,-0.12452 0.23585,-0.24904 0.37904,-0.37357l0.02527,-0.05337c1.18766,-1.25411 2.5185,-2.42818 3.89147,-3.43325c1.85308,-1.35195 3.8662,-2.45486 6.02251,-3.15752c1.37296,-0.45362 2.75435,-0.67598 4.10204,-0.67598c1.65935,0 3.29343,0.32909 4.81801,0.92502c5.05385,1.97456 9.06324,6.86649 10.36882,12.32767c0.22742,0.9517 0.84231,2.73059 -0.03369,3.55777z"></path><path fill="#673101" data-paper-data="{&quot;guideItem&quot;:null,&quot;selected&quot;:false}" d="M29.21658,19.31869c-0.80862,0.64929 -1.59196,1.35195 -2.23212,2.02793c-0.21058,0.20457 -0.42958,0.42693 -0.61489,0.64929h-0.02527c-0.3285,0.37357 -0.69069,0.70266 -1.06973,1.00507c-0.37904,0.27573 -0.78335,0.49809 -1.18766,0.70266c-2.37531,1.07623 -5.22231,0.60482 -7.18489,-1.44979c-0.16846,-0.17789 -0.3285,-0.37357 -0.49696,-0.57814c-0.78335,-1.00507 -1.28031,-2.17913 -1.49089,-3.43325c-0.14319,-0.88055 -0.14319,-1.77888 0.02527,-2.67722c0.05054,-0.34688 0.11792,-0.67598 0.26112,-1.02286c0.02527,-0.20457 0.09265,-0.40025 0.19373,-0.57814c0.16846,-0.45362 0.40431,-0.88055 0.66542,-1.2808c0.16846,-0.27573 0.35377,-0.52477 0.57277,-0.77381c0.16846,-0.20457 0.5475,-0.62261 1.11185,-1.20075c0.11792,-0.12452 0.23585,-0.24904 0.37904,-0.37357c0.14319,-0.15121 0.28638,-0.27573 0.42958,-0.42693c-0.14319,0.12452 -0.26112,0.24904 -0.40431,0.37357c1.18766,-1.25411 2.5185,-2.42818 3.89147,-3.43325c0.11792,0.02668 0.23585,0.05337 0.3285,0.12452c0.14319,0.02668 0.26112,0.07116 0.37904,0.12452c0.05054,0.02668 0.06738,0.05337 0.09265,0.05337c0.11792,0.07116 0.23585,0.12452 0.3285,0.20457c0.31165,0.22236 0.57277,0.52477 0.78335,0.88055c0.37904,0.64929 0.52223,1.50316 0.3285,2.33034c-0.16846,0.70266 -0.57277,1.22743 -1.06973,1.62768c0.57277,-0.32909 1.22977,-0.45362 1.89519,-0.27573c1.4235,0.42693 2.2995,2.02793 1.92046,3.61114c-0.19373,0.77381 -0.64015,1.37864 -1.22977,1.77888c0.49696,-0.17789 1.01919,-0.27573 1.54143,-0.12452c0.95181,0.27573 1.60881,1.10291 1.85308,2.05461c0,0.00889 0.02527,0.05337 0.02527,0.08005z"></path></g><g style="mix-blend-mode: normal" text-anchor="none" font-size="none" font-weight="none" font-family="none" stroke-dashoffset="0" stroke-dasharray="" stroke-miterlimit="10" stroke-linejoin="miter" stroke-linecap="butt" stroke-width="1" stroke="none" fill-rule="nonzero" fill="none" data-paper-data="{&quot;selected&quot;:false}"><path fill="#ffffff" data-paper-data="{&quot;guideItem&quot;:null,&quot;selected&quot;:false}" d="M98.53016,15.73423c-0.21058,-1.38753 -0.78335,-2.73059 -1.73516,-3.8246c-0.10108,-0.11563 -0.29481,-0.32909 -0.53908,-0.59593c-3.04073,-3.37988 -6.69635,-6.23499 -10.89105,-7.62252c-3.10812,-1.02286 -6.17412,-0.81829 -8.92847,0.25794c-5.04543,1.97456 -9.0464,6.8576 -10.3604,12.31878c-0.22742,0.9517 -0.86758,2.73948 0.01685,3.54887c0.5475,0.50698 1.44035,0.84497 2.12262,1.15628c0.71596,0.32909 1.55827,0.66708 2.36689,0.56035c0.58962,-0.08005 0.81704,-0.51588 1.17081,-0.9606c0.70754,-0.88055 1.40666,-1.77888 2.18158,-2.60607c3.066,-3.27315 7.11751,-1.40532 10.29301,1.25411c-0.00842,0.03558 -0.02527,0.06226 -0.03369,0.08894c1.095,0.88055 2.10577,1.83225 2.85543,2.67722c0.00842,0.00889 0.00842,0.00889 0.01685,0.01779c2.5522,2.92627 6.78901,3.033 9.45913,0.24015c1.67619,-1.74331 2.35004,-4.19817 2.00469,-6.51072z"></path><path fill="#000000" d="M101.32663,15.26283c-0.28638,-2.02793 -1.13712,-3.88686 -2.41743,-5.38113c-0.14319,-0.15121 -0.35377,-0.37357 -0.61489,-0.67598c-0.49696,-0.55145 -1.01919,-1.10291 -1.54143,-1.57431c-3.29343,-3.30873 -6.83112,-5.5857 -10.52886,-6.81313c-1.60881,-0.52477 -3.27658,-0.8005 -4.93593,-0.8005c-1.971,0 -3.93358,0.37357 -5.8372,1.12959c-5.81193,2.27697 -10.5794,7.91604 -12.12082,14.40007l-0.09265,0.32909c-0.3285,1.2808 -1.13712,4.26043 0.99392,6.20831c0.80862,0.74713 1.752,1.17406 2.53535,1.50316l0.3285,0.15121c0.876,0.40025 1.971,0.82718 3.1755,0.82718c0.21058,0 0.42958,0 0.66542,-0.02668c1.63408,-0.22236 2.46796,-1.32527 2.87227,-1.85004l0.11792,-0.15121l0.40431,-0.49809c0.5475,-0.70266 1.06973,-1.35195 1.60881,-1.95677c0.57277,-0.57814 1.11185,-0.85386 1.80254,-0.85386c0.876,0 2.01312,0.45362 3.25131,1.25411l-0.02527,0.05337l1.49089,1.17406c0.96866,0.77381 1.85308,1.601 2.49323,2.35702c1.44877,1.65436 3.36923,2.73059 5.43289,3.07747c0.49696,0.09784 0.99392,0.15121 1.51616,0.15121c2.49323,0 4.84328,-1.02286 6.62055,-2.90848c2.26581,-2.36592 3.32712,-5.77248 2.80489,-9.12568zM96.53389,22.25385c-1.99627,2.05461 -4.83485,2.52602 -7.21016,1.44979c-0.42958,-0.17789 -0.80862,-0.42693 -1.18766,-0.70266c-0.37904,-0.30241 -0.73281,-0.62261 -1.06973,-1.00507c-0.57277,-0.62261 -1.28031,-1.32527 -2.03839,-1.97456c-0.26112,-0.24904 -0.5475,-0.4803 -0.83389,-0.70266c0,-0.02668 0.02527,-0.07116 0.02527,-0.09784c-1.971,-1.65436 -4.27051,-3.00632 -6.47735,-3.00632c-1.35612,0 -2.65327,0.49809 -3.81566,1.7522c-0.78335,0.82718 -1.47404,1.72552 -2.18158,2.60607c-0.35377,0.45362 -0.57277,0.88055 -1.16239,0.9517c-0.09265,0.02668 -0.21058,0.02668 -0.31165,0.02668c-0.70754,0 -1.4235,-0.30241 -2.06366,-0.57814c-0.66542,-0.30241 -1.56669,-0.64929 -2.11419,-1.15628c-0.876,-0.82718 -0.23585,-2.60607 -0.02527,-3.55777c1.30558,-5.46118 5.31497,-10.34421 10.36882,-12.32767c1.51616,-0.60482 3.15866,-0.92502 4.83485,-0.92502c1.33085,0 2.70381,0.22236 4.07677,0.67598c2.15631,0.70266 4.17785,1.80557 6.04778,3.1842c1.35612,1.00507 2.63643,2.12577 3.79881,3.3532c0.16846,0.17789 0.3285,0.32909 0.47169,0.4803c0.57277,0.57814 0.95181,1.00507 1.11185,1.20075c0.23585,0.27573 0.45485,0.57814 0.64015,0.88055c0.16846,0.27573 0.3285,0.55145 0.47169,0.85386c0,0.02668 0.02527,0.05337 0.02527,0.07116c0.14319,0.32909 0.26112,0.64929 0.35377,1.00507c0.11792,0.32909 0.19373,0.67598 0.23585,1.02286c0.35377,2.33034 -0.30323,4.7852 -1.971,6.51961z"></path><path fill="#673101" data-paper-data="{&quot;guideItem&quot;:null,&quot;selected&quot;:false}" d="M96.53389,22.25385c-1.99627,2.05461 -4.83485,2.52602 -7.21016,1.44979c-0.40431,-0.20457 -0.80862,-0.42693 -1.18766,-0.70266c-0.37904,-0.30241 -0.73281,-0.62261 -1.06973,-1.00507c-0.57277,-0.62261 -1.28031,-1.32527 -2.03839,-1.97456c-0.26112,-0.24904 -0.5475,-0.4803 -0.83389,-0.70266c0,-0.02668 0.02527,-0.07116 0.02527,-0.09784c0.26112,-0.9517 0.90127,-1.77888 1.86993,-2.05461c0.52223,-0.15121 1.01919,-0.05337 1.51616,0.12452c-0.58962,-0.40025 -1.04446,-1.00507 -1.22977,-1.77888c-0.37904,-1.57431 0.49696,-3.1842 1.92046,-3.61114c0.66542,-0.17789 1.33085,-0.05337 1.89519,0.27573c-0.49696,-0.40025 -0.90127,-0.92502 -1.06973,-1.62768c-0.35377,-1.44979 0.35377,-2.93516 1.59196,-3.45993c0.09265,-0.05337 0.21058,-0.09784 0.3285,-0.12452c0.09265,-0.02668 0.21058,-0.07116 0.35377,-0.09784c1.35612,1.00507 2.63643,2.12577 3.79881,3.3532c0.16846,0.17789 0.3285,0.32909 0.47169,0.4803c0.57277,0.57814 0.95181,1.00507 1.11185,1.20075c0.23585,0.27573 0.45485,0.57814 0.64015,0.88055c0.16846,0.27573 0.3285,0.55145 0.47169,0.85386c0,0.02668 0.02527,0.05337 0.02527,0.07116c0.14319,0.32909 0.26112,0.64929 0.35377,1.00507c0.11792,0.32909 0.19373,0.67598 0.23585,1.02286c0.35377,2.33034 -0.30323,4.7852 -1.971,6.51961z"></path></g>
               </svg>