<svg viewBox="0 0 101 200" xml:space="preserve" xmlns:xlink="http://www.w3.org/1999/xlink" xmlns="http://www.w3.org/2000/svg">
                    <g style="mix-blend-mode: normal" text-anchor="none" font-size="none" font-weight="none" font-family="none" stroke-dashoffset="0" stroke-dasharray="" stroke-miterlimit="10" stroke-linejoin="miter" stroke-linecap="butt" stroke-width="1" stroke="none" fill-rule="nonzero" fill="none" data-paper-data="{&quot;selected&quot;:false}"><path fill="#ffffff" data-paper-data="{&quot;guideItem&quot;:null,&quot;selected&quot;:false}" d="M27.96809,16.39481c2.07826,2.54912 5.93467,3.02708 8.59815,1.07731c0.09754,-0.07587 0.19507,-0.15173 0.32262,-0.25036c0.19507,-0.12139 0.36763,-0.25036 0.5402,-0.37175c0.07503,-0.07587 0.17256,-0.12139 0.24759,-0.17449c0.66774,-0.54624 1.28297,-1.0242 1.85318,-1.4263v-0.02276c0.96035,-0.67521 1.80066,-1.15318 2.57344,-1.15318c0.59272,0 1.14042,0.27312 1.70312,0.94833c1.33549,1.60079 0.78779,3.3002 2.61846,3.59609c0.93784,0.17449 1.80066,0.52348 2.4459,0.52348c0.42015,0 0.74277,-0.15173 0.93784,-0.57659c1.53056,-3.22434 0.39765,-8.47432 -1.53056,-11.31932c-1.14042,-1.67666 -2.82103,-2.82224 -4.77175,-3.52022c-1.41052,-0.50072 -2.69349,-0.72832 -3.87892,-0.72832c-0.51769,0 -1.01287,0.05311 -1.50805,0.12139c-0.42015,0.07587 -0.8178,0.17449 -1.20794,0.30347c-1.14042,0.32623 -2.19831,0.87247 -3.30871,1.57803h-0.02251c-1.43302,0.90281 -2.88856,2.02564 -4.54667,3.22434c-2.67098,1.97254 -3.14365,5.62173 -1.06539,8.17085z"></path><path fill="#000000" data-paper-data="{&quot;guideItem&quot;:null,&quot;selected&quot;:false}" d="M39.36476,15.42372c-0.30011,0.2276 -1.01287,0.75108 -1.68062,1.2518c0.66774,-0.54624 1.28297,-1.0242 1.85318,-1.4263c-0.05252,0.04552 -0.09754,0.09863 -0.17256,0.17449z"></path><path fill="#000000" d="M23.78906,11.72142c0.30011,-2.37463 1.53056,-4.47614 3.48128,-5.89485l0.74277,-0.57659c3.80389,-2.82224 7.0901,-5.24998 11.61425,-5.24998c1.58308,0 3.18867,0.30347 4.89179,0.90281c2.69349,0.97109 4.77175,2.54912 6.20477,4.65063c2.4459,3.64919 3.80389,9.96889 1.77815,14.2933c-0.66774,1.44906 -2.02574,2.29876 -3.63133,2.29876c-0.76528,0 -1.45553,-0.17449 -2.07826,-0.34899c-0.2701,-0.07587 -0.57021,-0.15173 -0.86282,-0.19725c-2.79102,-0.50072 -3.58631,-2.64775 -3.95395,-3.67195c-0.07503,-0.25036 -0.15005,-0.42485 -0.22508,-0.59935c-0.49518,0.32623 -1.18543,0.87247 -1.73313,1.29732c-0.5402,0.40209 -1.11041,0.84971 -1.73313,1.29732c-1.58308,1.15318 -3.45877,1.75252 -5.43949,1.75252c-2.82103,0 -5.43949,-1.22146 -7.19514,-3.37607c-1.48554,-1.87391 -2.15329,-4.20302 -1.86068,-6.57765zM27.96809,16.39481c2.07826,2.54912 5.93467,3.02708 8.59815,1.07731c0.09754,-0.07587 0.19507,-0.15173 0.32262,-0.25036c0.19507,-0.12139 0.36763,-0.25036 0.5402,-0.37175c0.07503,-0.07587 0.17256,-0.12139 0.24759,-0.17449c0.66774,-0.50072 1.38051,-1.0242 1.68062,-1.2518c0.07503,-0.07587 0.12004,-0.12139 0.17256,-0.17449v-0.02276c0.96035,-0.67521 1.80066,-1.15318 2.57344,-1.15318c0.59272,0 1.14042,0.27312 1.70312,0.94833c1.33549,1.60079 0.78779,3.3002 2.61846,3.59609c0.93784,0.17449 1.80066,0.52348 2.4459,0.52348c0.42015,0 0.74277,-0.15173 0.93784,-0.57659c1.53056,-3.22434 0.39765,-8.47432 -1.53056,-11.31932c-1.14042,-1.67666 -2.82103,-2.82224 -4.77175,-3.52022c-1.41052,-0.50072 -2.69349,-0.72832 -3.87892,-0.72832c-0.51769,0 -1.01287,0.05311 -1.50805,0.12139c-0.42015,0.07587 -0.8178,0.17449 -1.20794,0.30347c-1.14042,0.32623 -2.19831,0.87247 -3.30871,1.57803h-0.02251c-1.43302,0.90281 -2.88856,2.02564 -4.54667,3.22434c-2.67098,1.97254 -3.14365,5.62173 -1.06539,8.17085z"></path><path fill="#683100" data-paper-data="{&quot;guideItem&quot;:null,&quot;selected&quot;:false}" d="M27.96809,16.39481c2.07826,2.54912 5.93467,3.02708 8.59815,1.07731c0.09754,-0.07587 0.19507,-0.15173 0.32262,-0.25036c0.17256,-0.09863 0.34513,-0.25036 0.5402,-0.37175c0.07503,-0.07587 0.17256,-0.12139 0.24759,-0.17449c0.66774,-0.50072 1.38051,-1.0242 1.68062,-1.2518c0.07503,-0.07587 0.12004,-0.12139 0.17256,-0.17449v-0.02276c0.24759,-0.50072 -0.72026,-1.10007 -1.48554,-1.39595c-0.44266,-0.19725 -0.91534,-0.19725 -1.38051,-0.12139c0.59272,-0.2276 1.06539,-0.65245 1.33549,-1.22146c0.5402,-1.1987 -0.05252,-2.57188 -1.28297,-3.0726c-0.59272,-0.25036 -1.20794,-0.2276 -1.75564,-0.05311c0.49518,-0.25036 0.93784,-0.62211 1.16293,-1.15318c0.5402,-1.17594 -0.42015,-2.52636 -1.68062,-3.04984c-0.09754,-0.05311 -0.59272,-0.17449 -0.84031,-0.15173h-0.02251c-1.43302,0.90281 -2.88856,2.02564 -4.54667,3.22434c-2.67098,1.96495 -3.14365,5.61414 -1.06539,8.16327z"></path></g><g style="mix-blend-mode: normal" text-anchor="none" font-size="none" font-weight="none" font-family="none" stroke-dashoffset="0" stroke-dasharray="" stroke-miterlimit="10" stroke-linejoin="miter" stroke-linecap="butt" stroke-width="1" stroke="none" fill-rule="none" fill="none" data-paper-data="{&quot;selected&quot;:false}"><path fill-rule="evenodd" fill="#009ff8" data-paper-data="{&quot;guideItem&quot;:null,&quot;selected&quot;:false}" d="M63.25351,159.44162l0.61523,1.67666c-0.19507,-0.57659 -0.39765,-1.12283 -0.59272,-1.69942z"></path><path fill-rule="evenodd" fill="#009ff8" data-paper-data="{&quot;guideItem&quot;:null,&quot;selected&quot;:false}" d="M61.3253,191.38153c0.69025,2.276 2.9936,5.37137 5.48451,5.59897c3.68385,0.32623 6.22728,-2.77672 8.59815,-5.07549l7.96042,-7.72324l2.54343,-2.47326c1.50805,-1.47182 1.58308,-3.92231 0.12004,-5.44723l-5.40948,-5.72036c-2.19831,-3.3002 -5.61206,-8.64881 -7.16512,-12.44215l0.34513,0.97109l-9.22088,3.87679c1.20794,3.04984 2.76851,6.09969 4.6442,9.14953c0.51769,0.82695 0.12004,1.89667 -0.78779,2.24566c-1.358,0.52348 -3.24119,1.72218 -5.13938,4.47614c-0.02251,0.02276 -0.12004,0.19725 -0.12004,0.19725c-2.42339,3.59609 -3.09113,8.21637 -1.85318,12.36628z"></path><path fill-rule="nonzero" fill="#ffffff" data-paper-data="{&quot;guideItem&quot;:null,&quot;selected&quot;:false}" d="M63.27602,159.41886c0.19507,0.57659 0.39765,1.12283 0.59272,1.69942c0.22508,0.59935 0.44266,1.1987 0.72026,1.8208l9.22088,-3.87679l-0.34513,-0.97109l-0.2701,-0.72832c-3.11364,-8.72468 -3.03861,-17.09279 0.19507,-24.86913c0.74277,-1.75252 0.51769,-3.59609 -0.57021,-5.07549c-1.16293,-1.54768 -3.09113,-2.39739 -4.9218,-2.17738c-1.65811,0.2276 -3.0161,1.29732 -3.72887,2.95122c-4.13401,9.95372 -4.44913,20.45368 -0.89283,31.22677z"></path><path fill-rule="nonzero" fill="#ffffff" data-paper-data="{&quot;guideItem&quot;:null,&quot;selected&quot;:false}" d="M63.86874,161.11828l0.66774,1.85115l0.05252,-0.02276c-0.2776,-0.62969 -0.49518,-1.22904 -0.72026,-1.82839z"></path><path fill-rule="nonzero" fill="#000000" d="M68.49043,125.21812c-0.19507,0 -0.39765,0.01517 -0.59272,0.03793c-1.66561,0.21243 -3.02361,1.28974 -3.72136,2.9588c-4.14902,9.93096 -4.41162,20.41575 -0.87032,31.18883l-0.06752,0.03035l0.62273,1.69183v0l0.66774,1.82839l0.06002,-0.02276c1.25296,3.0726 2.82103,6.16797 4.70422,9.24816c0.48018,0.78901 0.13505,1.79804 -0.72777,2.11668c-1.373,0.50072 -3.30121,1.69183 -5.26693,4.51407c-0.02251,0.03035 -0.12755,0.19725 -0.12755,0.19725c-2.40088,3.60367 -3.08363,8.22396 -1.83817,12.38904c0.67525,2.25324 2.97859,5.35619 5.49201,5.57621c0.18007,0.01517 0.36013,0.02276 0.5402,0.02276c3.39124,0 5.79962,-2.91328 8.04295,-5.09066l7.96042,-7.73082l2.59595,-2.51878c1.49305,-1.44906 1.54557,-3.84645 0.11254,-5.35619l-5.43949,-5.73553c-0.0075,-0.01517 -0.02251,-0.02276 -0.03001,-0.03793c-2.35586,-3.52022 -6.05472,-9.35437 -7.41271,-13.14771v0c-3.12114,-8.72468 -3.05362,-17.10037 0.20257,-24.87672c0.72777,-1.74494 0.51769,-3.59609 -0.58521,-5.07549c-1.03538,-1.38078 -2.67848,-2.20772 -4.32158,-2.20772M68.49043,122.22138c2.60345,0 5.09437,1.26698 6.68495,3.39883c1.73313,2.32152 2.08576,5.32585 0.95285,8.04947c-2.95608,7.0632 -3.0011,14.69539 -0.14255,22.69175c0.93034,2.60982 3.39874,6.97216 6.94754,12.298l5.28193,5.56103c1.24546,1.30491 1.9057,3.02708 1.86818,4.8403c-0.03751,1.81322 -0.77278,3.50505 -2.06326,4.75685l-2.59595,2.51878l-7.96042,7.73082c-0.2776,0.26553 -0.5552,0.54624 -0.84031,0.83453c-2.26583,2.26842 -5.07936,5.09825 -9.25839,5.09825c-0.2626,0 -0.5327,-0.01517 -0.80279,-0.03793c-4.31408,-0.38692 -7.24015,-4.92375 -8.06545,-7.69289c-1.50055,-5.01479 -0.67525,-10.591 2.21331,-14.93058l0.11254,-0.17449c1.77065,-2.54154 3.56381,-4.02094 5.05685,-4.89341c-1.45553,-2.51878 -2.731,-5.07549 -3.80389,-7.6322c-0.13505,-0.19725 -0.24759,-0.40968 -0.33012,-0.63728l-0.66774,-1.82839l-0.62273,-1.69183c-0.09003,-0.25795 -0.15005,-0.51589 -0.17256,-0.77384c-3.56381,-11.30415 -3.17366,-22.28207 1.16293,-32.65306c1.1029,-2.64016 3.38374,-4.42303 6.09223,-4.76443c0.31512,-0.04552 0.63773,-0.06828 0.95285,-0.06828z"></path></g><g style="mix-blend-mode: normal" text-anchor="none" font-size="none" font-weight="none" font-family="none" stroke-dashoffset="0" stroke-dasharray="" stroke-miterlimit="10" stroke-linejoin="miter" stroke-linecap="butt" stroke-width="1" stroke="none" fill-rule="none" fill="none" data-paper-data="{&quot;selected&quot;:false}"><path fill-rule="nonzero" fill="#ffffff" data-paper-data="{&quot;guideItem&quot;:null,&quot;selected&quot;:false}" d="M35.52335,160.01821l1.73313,0.44761c2.00323,0.50072 4.27657,1.04696 6.18226,1.50216l1.87569,0.44761c2.10077,-7.5715 4.71923,-16.06858 8.82323,-23.86769c0.86282,-1.64631 0.8178,-3.4747 -0.12004,-5.02238c-1.01287,-1.62355 -2.86605,-2.62499 -4.71923,-2.57188c-1.73313,0.07587 -3.18867,1.0242 -4.05148,2.64775c-4.53916,8.59571 -7.33018,17.71489 -9.72356,26.41681z"></path><path fill-rule="nonzero" fill="#000000" d="M49.44845,130.95365c-0.05252,0 -0.11254,0 -0.16506,0c-1.71813,0.06069 -3.18867,1.0242 -4.04398,2.64016v0c-4.51665,8.59571 -7.31518,17.71489 -9.73106,26.4244h-0.0075l-0.39014,1.43388c-0.03001,0.10621 -0.06002,0.22001 -0.09003,0.32623l-0.51019,1.85115v0l-0.18757,0.67521c-0.70526,2.60223 -1.44803,5.24239 -2.20581,7.89014c-0.20257,0.71315 -0.84031,1.13041 -1.51556,1.13041c-0.2851,0 -0.58521,-0.07587 -0.85531,-0.23519c-1.17793,-0.70556 -2.88106,-1.35043 -5.31945,-1.60079c-0.03751,0 -0.24009,-0.01517 -0.24009,-0.01517c-0.38264,-0.03035 -0.75778,-0.04552 -1.14042,-0.04552c-3.90143,0 -7.72783,1.63114 -10.44383,4.49131c-1.61309,1.69942 -3.15866,5.24239 -2.12328,7.5715c1.51556,3.40642 5.43949,4.12715 8.57564,5.09066l10.56387,3.23951l2.19831,0.67521c0.48768,0.15173 0.98286,0.22001 1.47054,0.22001c2.16829,0 4.16403,-1.41871 4.83177,-3.62643l1.44053,-4.80237l0.01501,0.00759l0.12004,-0.46279l0.34513,-1.15318l-0.03751,-0.03793l1.19294,-4.58994c1.47054,-5.67483 3.0011,-11.58486 3.56381,-13.67878l0.02251,-0.08345c2.1908,-8.01912 4.89179,-17.28245 9.33342,-25.73401c0.87032,-1.6539 0.8253,-3.48987 -0.12004,-5.02997c-0.97536,-1.57803 -2.74601,-2.57188 -4.54667,-2.57188M49.44845,127.94932v0c2.83604,0 5.54453,1.52492 7.06759,3.98301c1.50055,2.43532 1.59058,5.43965 0.22508,8.02671c-4.29157,8.17085 -6.94754,17.25211 -9.09333,25.12708c-0.59272,2.18496 -2.1758,8.315 -3.57881,13.71671l-1.07289,4.12715c-0.01501,0.20484 -0.05252,0.40968 -0.11254,0.60693l-0.34513,1.15318l-0.09003,0.35657c-0.03751,0.14415 -0.08253,0.28829 -0.14255,0.42485l-1.34299,4.48373c-1.03538,3.44435 -4.11151,5.7507 -7.66781,5.7507c-0.78779,0 -1.56807,-0.12139 -2.32585,-0.34899l-2.19831,-0.67521l-10.56387,-3.23951c-0.36763,-0.1138 -0.74277,-0.22001 -1.12541,-0.33381c-3.12114,-0.90281 -7.39771,-2.13186 -9.2959,-6.39557c-1.77815,-3.99059 0.70526,-8.79296 2.68598,-10.8793c3.2637,-3.44435 7.84787,-5.41689 12.58211,-5.41689c0.45767,0 0.91534,0.01517 1.38051,0.05311l0.24009,0.01517c1.9057,0.19725 3.59382,0.61452 5.05685,1.23663c0.59272,-2.08634 1.17043,-4.16509 1.73313,-6.22108l0.18757,-0.6828l0.50268,-1.85115l0.06002,-0.22001l0.03001,-0.12139l0.39014,-1.4263c0.01501,-0.06069 0.03751,-0.12139 0.05252,-0.18208c2.28084,-8.20879 5.11687,-17.70731 9.91863,-26.84925c1.34299,-2.55671 3.79639,-4.13474 6.5574,-4.23337l0.2851,0.01517v0z"></path><path fill-rule="evenodd" fill="#0088c2" data-paper-data="{&quot;guideItem&quot;:null,&quot;selected&quot;:false}" d="M10.48668,183.4838c1.53056,3.42159 5.43949,4.12715 8.57564,5.09825l10.57887,3.22434l2.04825,0.65245c2.74601,0.82695 5.63456,-0.72832 6.47487,-3.52022l1.41052,-4.65063l0.12004,-0.44761l0.34513,-1.15318l-0.02251,-0.05311l1.18543,-4.57477c1.31298,-5.02238 2.64097,-10.2496 3.33872,-12.82149c0.09754,-0.37175 0.17256,-0.69797 0.24759,-0.94833l0.51769,-1.87391l-1.87569,-0.44761c-1.9057,-0.44761 -4.17903,-1.00144 -6.18226,-1.50216l-1.73313,-0.44761c-0.17256,0.57659 -0.34513,1.17594 -0.49518,1.75252l-0.51769,1.87391l-0.17256,0.67521c-0.69025,2.52636 -1.41052,5.12101 -2.15329,7.70048c-0.32262,1.07731 -1.53056,1.60079 -2.49842,1.04696c-1.16293,-0.69797 -2.86605,-1.32767 -5.26693,-1.57803c-0.02251,0 -0.22508,-0.02276 -0.22508,-0.02276c-4.29907,-0.34899 -8.59815,1.32767 -11.59175,4.44579c-1.59058,1.69942 -3.15115,5.24998 -2.10827,7.5715z"></path></g><path style="mix-blend-mode: normal" text-anchor="none" font-size="none" font-weight="none" font-family="none" stroke-dashoffset="0" stroke-dasharray="" stroke-miterlimit="10" stroke-linejoin="miter" stroke-linecap="butt" stroke-width="1" stroke="none" fill-rule="evenodd" fill="#0088c2" data-paper-data="{&quot;guideItem&quot;:null,&quot;selected&quot;:false}" d="M35.02817,161.76314c0.15005,-0.57659 0.32262,-1.17594 0.49518,-1.75252h-0.02251z"></path><g style="mix-blend-mode: normal" text-anchor="none" font-size="none" font-weight="none" font-family="none" stroke-dashoffset="0" stroke-dasharray="" stroke-miterlimit="10" stroke-linejoin="miter" stroke-linecap="butt" stroke-width="1" stroke="none" fill-rule="nonzero" fill="none" data-paper-data="{&quot;selected&quot;:false}"><path fill="#ffffff" data-paper-data="{&quot;guideItem&quot;:null,&quot;selected&quot;:false}" d="M38.48694,110.78826c0.52519,-5.50793 -0.2626,-10.79584 -1.02037,-16.47826c-0.33762,-2.51119 -1.71063,-11.6152 3.5488,-10.21167c1.9057,0.50831 3.03861,3.2471 3.87142,4.83271c1.80816,3.45194 3.08363,7.13148 3.8264,10.89447c0.83281,4.21819 0.99787,8.49708 0.65274,12.73045c-2.78352,-0.96351 -6.62493,-1.83598 -10.87898,-1.7677z"></path><path fill="#0088c5" data-paper-data="{&quot;guideItem&quot;:null,&quot;selected&quot;:false}" d="M31.67444,128.80662c0.03751,-0.06069 0.08253,-0.1138 0.12004,-0.17449c1.05789,-1.49458 1.95071,-2.95122 2.731,-4.41545c1.11041,-2.09392 1.96572,-4.21819 2.63346,-6.53213c0.33012,-1.138 0.61523,-2.32911 0.86282,-3.58091c0.21758,-1.12283 0.36013,-2.2229 0.46517,-3.32296c4.26156,-0.06828 8.09546,0.80419 10.88649,1.76011c-0.16506,2.0484 -0.44266,4.08163 -0.84781,6.0921c-1.14042,5.72794 -2.84354,12.22972 -6.30231,17.07761c-1.68812,2.35946 -4.60669,3.83886 -7.68281,3.41401c-0.63773,-0.09104 -1.25296,-0.23519 -1.78565,-0.43244c-1.93571,-0.69797 -3.60882,-2.18496 -3.8264,-4.20302c-0.04502,-0.40209 -0.0075,-0.78143 0.06002,-1.14559c0.33012,-1.707 1.69562,-3.11054 2.68598,-4.53683z"></path><path fill="#000000" d="M39.99499,83.95418c-4.05148,0 -2.84354,8.02671 -2.52843,10.35582c0.75778,5.67483 1.54557,10.97034 1.02037,16.47826c-0.10504,1.10007 -0.24009,2.20014 -0.46517,3.32296c-0.24759,1.2518 -0.5327,2.44291 -0.86282,3.58091c-0.66774,2.31394 -1.52306,4.43821 -2.63346,6.53213c-0.78029,1.46423 -1.66561,2.92087 -2.731,4.41545c-0.03751,0.06069 -0.08253,0.1138 -0.12004,0.17449c-0.99036,1.4263 -2.36337,2.82983 -2.67848,4.54442c-0.06752,0.36416 -0.10504,0.74349 -0.06002,1.14559c0.21758,2.01806 1.8982,3.50505 3.8264,4.20302c0.5327,0.18967 1.14042,0.3414 1.78565,0.43244c0.35263,0.04552 0.70526,0.07587 1.05789,0.07587c2.67848,0 5.13188,-1.39595 6.62493,-3.48229c3.45877,-4.84789 5.16189,-11.34208 6.30231,-17.07761c0.39765,-2.01047 0.67525,-4.05129 0.84781,-6.0921c0.34513,-4.23337 0.18007,-8.51225 -0.65274,-12.73045c-0.74277,-3.76299 -2.01824,-7.44253 -3.8264,-10.89447c-0.83281,-1.58562 -1.96572,-4.32441 -3.87142,-4.83271c-0.38264,-0.10621 -0.72026,-0.15173 -1.03538,-0.15173M39.99499,80.94985c0.57021,0 1.16293,0.08345 1.77815,0.24277c2.94858,0.78901 4.44163,3.75541 5.43199,5.72036l0.30761,0.60693c1.9207,3.66437 3.30121,7.60185 4.11901,11.70624c0.84781,4.30165 1.0879,8.86124 0.70526,13.56498c-0.18007,2.18496 -0.48018,4.35475 -0.89283,6.4335c-1.11791,5.61414 -2.89606,12.76079 -6.80499,18.23837c-2.11577,2.9588 -5.49201,4.7265 -9.03331,4.7265c-0.48768,0 -0.97536,-0.03035 -1.45553,-0.09863c-0.8253,-0.1138 -1.6506,-0.31105 -2.37837,-0.57659c-3.24869,-1.16835 -5.462,-3.74023 -5.78462,-6.70662c-0.06752,-0.64487 -0.03751,-1.3125 0.09754,-2.02564c0.37514,-2.02564 1.56057,-3.57333 2.50592,-4.82513c0.22508,-0.30347 0.45767,-0.59935 0.66024,-0.89523l0.13505,-0.18967c0.96035,-1.35043 1.78565,-2.69327 2.52843,-4.08922c1.00537,-1.90426 1.79316,-3.84645 2.40088,-5.95554c0.30011,-1.04696 0.56271,-2.13944 0.80279,-3.32296c0.17256,-0.88005 0.30761,-1.83598 0.42015,-3.0195c0.46517,-4.85547 -0.18757,-9.71095 -0.87782,-14.85472l-0.12755,-0.93316l-0.03001,-0.22001c-0.57771,-4.28647 -0.86282,-9.02056 1.45553,-11.70624c1.01287,-1.16835 2.4534,-1.8208 4.03648,-1.8208z"></path></g><g style="mix-blend-mode: normal" text-anchor="none" font-size="none" font-weight="none" font-family="none" stroke-dashoffset="0" stroke-dasharray="" stroke-miterlimit="10" stroke-linejoin="miter" stroke-linecap="butt" stroke-width="1" stroke="none" fill-rule="nonzero" fill="none" data-paper-data="{&quot;selected&quot;:false}"><path fill="#ffffff" data-paper-data="{&quot;guideItem&quot;:null,&quot;selected&quot;:false}" d="M78.33403,6.85077c-2.38587,0.30347 -4.59918,1.1987 -6.34732,2.89811c-2.9936,2.91328 -5.24442,6.47144 -4.46414,10.78826c0.2701,1.50216 2.70849,2.82983 4.51665,2.94363c2.14579,0.13656 2.01074,-1.44906 3.96145,-3.0195c2.80603,-2.25324 4.3741,1.16835 7.42772,4.99962c2.4534,3.10295 6.91753,3.60367 9.97115,1.10007c3.05362,-2.49602 3.57131,-7.01768 1.14792,-10.1358c-4.68171,-6.00865 -8.88325,-10.50755 -16.21344,-9.57439z"></path><path fill="#000000" data-paper-data="{&quot;guideItem&quot;:null,&quot;selected&quot;:false}" d="M83.1433,25.08914c-0.76528,-0.94833 -1.87569,-2.39739 -2.27333,-2.89811c-0.05252,-0.07587 -0.09754,-0.15173 -0.12004,-0.2276c0.74277,0.90281 1.50805,1.97254 2.39338,3.12571z"></path><path fill="#000000" d="M69.92345,7.59426c2.12328,-2.07116 4.81676,-3.32296 8.03544,-3.72506c0.76528,-0.09863 1.53056,-0.15173 2.25082,-0.15173c7.61529,0 12.23698,5.15135 16.68611,10.87171c3.41375,4.36993 2.69349,10.79584 -1.60559,14.32365c-1.80066,1.44906 -4.02898,2.24566 -6.30231,2.24566c-3.09113,0 -5.93467,-1.39595 -7.86288,-3.82369c-0.57021,-0.69797 -1.06539,-1.39595 -1.56057,-2.0484c-0.59272,-0.7966 -1.358,-1.8208 -1.87569,-2.35187c-0.34513,0.32623 -0.57021,0.65245 -0.84031,1.00144c-0.72026,0.94833 -1.92821,2.54912 -4.54667,2.54912h-0.44266c-2.54343,-0.17449 -6.62493,-2.00288 -7.24015,-5.42447c-0.84781,-4.67339 0.93034,-9.21781 5.30444,-13.46635zM67.52257,20.53714c0.2701,1.50216 2.71599,2.82224 4.52416,2.95122h0.24759c1.87569,0 1.83067,-1.52492 3.70636,-3.02708c0.61523,-0.50072 1.18543,-0.72832 1.70312,-0.72832c1.06539,0 2.02574,0.90281 3.03861,2.2229c0.02251,0.07587 0.07503,0.15173 0.12004,0.2276c0.39765,0.50072 1.50805,1.94978 2.27333,2.89811c0.09754,0.12139 0.19507,0.27312 0.30011,0.37175c0.17256,0.2276 0.36763,0.44761 0.57021,0.62211c2.52843,2.53395 6.57991,2.81466 9.39344,0.48555c3.06112,-2.49602 3.58631,-7.02526 1.14042,-10.12063c-0.05252,-0.07587 -0.12004,-0.15173 -0.19507,-0.27312c-1.43302,-1.79804 -2.79102,-3.4747 -4.22405,-4.90099c-2.82103,-2.74638 -5.85965,-4.55201 -9.91113,-4.55201c-0.59272,0 -1.20794,0.05311 -1.87569,0.12139c-2.37087,0.30347 -4.59918,1.1987 -6.32482,2.89811c-3.02361,2.93604 -5.27443,6.47902 -4.48664,10.80343z"></path><path fill="#683100" data-paper-data="{&quot;guideItem&quot;:null,&quot;selected&quot;:false}" d="M80.74992,21.96343c0.02251,0.07587 0.07503,0.15173 0.12004,0.2276c0.39765,0.50072 1.50805,1.94978 2.27333,2.89811c0.09754,0.12139 0.19507,0.27312 0.30011,0.37175c0.17256,0.2276 0.36763,0.42485 0.57021,0.62211c2.52092,2.52636 6.57241,2.80707 9.38594,0.47796c3.06112,-2.49602 3.58631,-7.02526 1.14042,-10.12063c-0.05252,-0.07587 -0.12004,-0.15173 -0.19507,-0.27312c-1.43302,-1.79804 -2.79102,-3.4747 -4.22405,-4.90099c-0.19507,-0.02276 -0.66774,-0.12139 -0.78779,-0.07587c-1.56057,0.25036 -3.0161,1.62355 -2.74601,3.20158c0.09754,0.69797 0.49518,1.27456 0.99036,1.69942c-0.59272,-0.34899 -1.26046,-0.54624 -2.00323,-0.42485c-1.53056,0.27312 -2.57344,1.77528 -2.32585,3.34572c0.15005,0.77384 0.57021,1.4263 1.16293,1.85115c-0.49518,-0.19725 -1.03538,-0.34899 -1.60559,-0.2276c-0.96785,0.15173 -2.25833,0.62969 -2.05575,1.32767z"></path></g><g style="mix-blend-mode: normal" text-anchor="none" font-size="none" font-weight="none" font-family="none" stroke-dashoffset="0" stroke-dasharray="" stroke-miterlimit="10" stroke-linejoin="miter" stroke-linecap="butt" stroke-width="1" stroke="none" fill-rule="nonzero" fill="none" data-paper-data="{&quot;selected&quot;:false}"><path fill="#000000" d="M52.90722,17.07003c-9.2809,0 -18.89192,3.8161 -26.56723,9.06608c-6.5499,4.47614 -10.99903,12.56354 -13.31738,20.08194c-0.14255,0.4552 -0.24009,0.90281 -0.36763,1.35802c-0.2626,0.77384 -0.51019,1.5401 -0.72777,2.29876c-2.64097,9.14953 -1.06539,17.10796 1.44803,26.18921c0.5477,1.97254 4.45663,11.59244 4.52416,12.06282c1.12541,5.28791 -1.58308,11.74418 -2.33335,16.95622c-1.38801,9.68819 -1.66561,19.69502 2.34086,28.84455c5.4545,12.4725 18.15665,16.90312 30.76877,17.76041c1.24546,0.08345 2.49091,0.12897 3.73637,0.12897c0.2701,0 0.5402,0 0.8178,-0.00759c0.06002,0 0.12004,-0.00759 0.18007,-0.00759l3.08363,-0.04552c1.51556,-0.02276 3.09113,-0.10621 4.59918,-0.25036c10.3688,-1.00903 21.79548,-5.08307 28.27786,-13.80017c4.68922,-6.30453 6.46737,-16.75138 5.95718,-24.52773c-0.40515,-6.06934 -2.24332,-11.94143 -3.37624,-17.88939c-0.44266,-2.32911 -1.30548,-4.60511 -1.12541,-6.97216c0.03751,-0.50072 0.11254,-0.98627 0.18007,-1.4794c0.37514,-1.06972 3.19617,-9.10401 3.90893,-12.17662c2.10077,-6.99492 2.66348,-14.33123 1.60559,-21.74342c-1.11791,-7.7991 -4.25406,-16.49344 -10.02367,-21.95585c-7.41271,-7.02526 -17.39887,-12.71527 -27.48257,-13.50429c0,0 -0.07503,-0.00759 -0.18007,-0.01517l-3.24119,-0.25795c-0.90033,-0.07587 -1.79316,-0.1138 -2.68598,-0.1138M52.90722,14.07329c0.98286,0 1.96572,0.03793 2.91857,0.12139l3.22618,0.25795l0.24759,0.02276c9.75357,0.75867 20.42998,5.97072 29.2157,14.2933c5.54453,5.24998 9.52849,13.89121 10.9315,23.71595c1.11041,7.77634 0.5477,15.49958 -1.67311,22.95729c-0.60772,2.5643 -2.43839,7.98119 -3.87892,12.12351c-0.05252,0.34899 -0.09003,0.66763 -0.12004,0.98627c-0.09003,1.1987 0.24009,2.5643 0.59272,4.01335c0.17256,0.72073 0.35263,1.44147 0.48768,2.16979c0.36013,1.90426 0.8103,3.86162 1.25296,5.75829c0.93034,4.02094 1.89069,8.18603 2.1758,12.49526c0.5327,8.11016 -1.27547,19.45224 -6.5424,26.53061c-6.12975,8.23913 -17.1963,13.70154 -30.36362,14.98369c-1.54557,0.15173 -3.21868,0.24277 -4.84678,0.26553l-3.08363,0.04552l-0.16506,0.00759l-0.87032,0.00759c-1.31298,0 -2.63346,-0.04552 -3.93144,-0.12897c-16.67861,-1.13041 -28.18782,-7.89014 -33.28219,-19.5357c-4.6292,-10.58342 -3.80389,-21.85722 -2.56594,-30.49086c0.2626,-1.80563 0.72777,-3.70989 1.17793,-5.56103c0.87782,-3.60367 1.79316,-7.32873 1.20794,-10.24202c-0.17256,-0.49313 -0.85531,-2.26083 -1.47054,-3.83127c-1.56807,-4.01335 -2.70099,-6.9494 -3.03111,-8.14809c-2.4459,-8.82331 -4.39661,-17.60109 -1.44053,-27.83552c0.22508,-0.77384 0.47267,-1.56286 0.74277,-2.34428l0.11254,-0.42485c0.08253,-0.31105 0.16506,-0.62211 0.2626,-0.94075c2.91857,-9.47576 8.2005,-17.38108 14.48781,-21.68273c9.03331,-6.19073 19.05698,-9.58956 28.22534,-9.58956z"></path><path fill="#009ff9" data-paper-data="{&quot;guideItem&quot;:null,&quot;selected&quot;:false}" d="M13.37524,76.06403c-2.51342,-9.07367 -4.089,-17.03968 -1.44803,-26.18921c0.21758,-0.76625 0.46517,-1.53251 0.72777,-2.29876c0.12755,-0.4552 0.22508,-0.90281 0.36763,-1.35802c2.31835,-7.52598 6.76748,-15.6058 13.31738,-20.08952c8.41808,-5.7507 19.16202,-9.78681 29.24571,-8.95987l3.24119,0.25795c0.11254,0.00759 0.18007,0.01517 0.18007,0.01517c10.08369,0.78143 20.06985,6.47902 27.48257,13.50429c5.76961,5.46999 8.90576,14.15674 10.02367,21.95585c1.05789,7.41977 0.49518,14.7485 -1.60559,21.74342c-0.71276,3.0726 -3.53379,11.1069 -3.90893,12.17662c-0.07503,0.49313 -0.14255,0.98627 -0.18007,1.4794c-0.18007,2.36704 0.68275,4.64305 1.12541,6.97216c1.13291,5.94796 2.97109,11.82004 3.37624,17.88939c0.51769,7.77634 -1.26796,18.2232 -5.95718,24.52773c-6.48237,8.71709 -17.90906,12.79114 -28.27786,13.80017c-1.50805,0.14415 -3.08363,0.2276 -4.59918,0.25036l-3.08363,0.04552c-0.06002,0 -0.12004,0.00759 -0.18007,0.00759c-1.51556,0.02276 -3.03111,-0.01517 -4.54667,-0.12139c-12.61212,-0.85729 -25.31427,-5.28791 -30.76877,-17.76041c-3.99896,-9.14953 -3.72887,-19.15636 -2.34086,-28.84455c0.75027,-5.21205 3.45877,-11.66831 2.33335,-16.95622c-0.06752,-0.44761 -3.98396,-10.07511 -4.52416,-12.04764z"></path></g><path style="mix-blend-mode: normal" text-anchor="none" font-size="none" font-weight="none" font-family="none" stroke-dashoffset="0" stroke-dasharray="" stroke-miterlimit="10" stroke-linejoin="miter" stroke-linecap="butt" stroke-width="1" stroke="none" fill-rule="nonzero" fill="#009ff8" data-paper-data="{&quot;guideItem&quot;:null,&quot;selected&quot;:false}" d="M55.5857,17.17624c0,0 0.07503,0.00759 0.18007,0.01517z"></path><g style="mix-blend-mode: normal" text-anchor="none" font-size="none" font-weight="none" font-family="none" stroke-dashoffset="0" stroke-dasharray="" stroke-miterlimit="10" stroke-linejoin="miter" stroke-linecap="butt" stroke-width="1" stroke="none" fill-rule="nonzero" fill="none" data-paper-data="{&quot;selected&quot;:false}"><path fill="#ffffff" data-paper-data="{&quot;guideItem&quot;:null,&quot;selected&quot;:false}" d="M68.79804,114.25537c3.21118,-4.47614 5.1919,-9.43783 7.39021,-14.71815c0.96785,-2.3367 4.35159,-10.88688 8.1855,-6.97974c1.38801,1.41871 0.99036,4.35475 0.90783,6.1528c-0.17256,3.90714 -0.92284,7.73082 -2.16829,11.34967c-1.39551,4.05887 -3.39874,7.82945 -5.82213,11.30415c-1.9207,-2.26083 -4.78675,-4.98445 -8.49311,-7.10872z"></path><path fill="#0088c5" data-paper-data="{&quot;guideItem&quot;:null,&quot;selected&quot;:false}" d="M53.88258,126.28784c0.06002,-0.03035 0.12755,-0.06069 0.18757,-0.08345c1.66561,-0.74349 3.16616,-1.5401 4.56917,-2.40498c2.01074,-1.23663 3.8114,-2.62499 5.55203,-4.2713c0.85531,-0.81177 1.69562,-1.69183 2.54343,-2.64016c0.75027,-0.84971 1.42552,-1.72976 2.06326,-2.62499c3.70636,2.12427 6.57241,4.84789 8.49311,7.10872c-1.17043,1.67666 -2.43089,3.29262 -3.78889,4.81754c-3.85641,4.35475 -8.58314,9.07367 -14.00013,11.47864c-2.63346,1.16835 -5.89716,0.94075 -8.32805,-1.00144c-0.51019,-0.40209 -0.96035,-0.84971 -1.32048,-1.28215c-1.31298,-1.5932 -2.01074,-3.74023 -1.18543,-5.59138c0.16506,-0.36416 0.38264,-0.67521 0.63023,-0.95592c1.13291,-1.32008 3.0161,-1.82839 4.58418,-2.54912z"></path><path fill="#000000" d="M82.3405,91.55603c-2.94858,0 -5.35696,6.07693 -6.15225,7.98877c-2.19831,5.28033 -4.17903,10.24202 -7.39021,14.71815c-0.63773,0.89523 -1.31298,1.77528 -2.06326,2.62499c-0.84031,0.95592 -1.68062,1.82839 -2.54343,2.64016c-1.74064,1.64631 -3.5413,3.03467 -5.55203,4.2713c-1.40301,0.86488 -2.90356,1.66148 -4.56917,2.40498c-0.06002,0.03035 -0.12755,0.06069 -0.18757,0.08345c-1.56807,0.72073 -3.45126,1.22146 -4.59168,2.54154c-0.24759,0.28071 -0.46517,0.58417 -0.63023,0.95592c-0.8253,1.85115 -0.12755,3.99818 1.18543,5.59138c0.36013,0.44003 0.8178,0.88005 1.32048,1.28215c1.46304,1.16835 3.21868,1.71459 4.95932,1.71459c1.16293,0 2.31835,-0.24277 3.37624,-0.71315c5.41698,-2.40498 10.14372,-7.12389 14.00013,-11.47864c1.35049,-1.52492 2.61846,-3.14088 3.78889,-4.81754c2.42339,-3.46711 4.42662,-7.23769 5.82213,-11.30415c1.24546,-3.62643 1.99573,-7.45012 2.16829,-11.34967c0.08253,-1.79046 0.48018,-4.73409 -0.90783,-6.1528c-0.69776,-0.70556 -1.373,-1.00144 -2.03324,-1.00144M82.3405,88.5517c1.04288,0 2.60345,0.32623 4.13401,1.89667c2.14579,2.19255 1.94321,5.51551 1.80816,7.71565l-0.03751,0.6828c-0.18757,4.14233 -0.96785,8.24672 -2.32585,12.19938c-1.42552,4.14233 -3.51129,8.19361 -6.20477,12.04764c-1.25296,1.79046 -2.59595,3.50505 -3.99896,5.09066c-3.78138,4.26371 -8.89826,9.50611 -15.0205,12.22214c-1.42552,0.62969 -3.0011,0.96351 -4.56167,0.96351c-2.51342,0 -4.86178,-0.81936 -6.79749,-2.35946c-0.65274,-0.52348 -1.26046,-1.11524 -1.75564,-1.71459c-2.21331,-2.6781 -2.82854,-6.02382 -1.62059,-8.74744c0.2626,-0.59176 0.62273,-1.14559 1.1029,-1.69942c1.34299,-1.54768 3.13615,-2.276 4.58418,-2.86776c0.34513,-0.14415 0.69025,-0.28071 1.02037,-0.43244l0.21008,-0.09104c1.50805,-0.67521 2.88856,-1.40354 4.23155,-2.23048c1.82317,-1.12283 3.48128,-2.39739 5.06435,-3.89955c0.78779,-0.75108 1.56057,-1.54768 2.35586,-2.45808c0.59272,-0.66763 1.18543,-1.4263 1.87569,-2.3898c2.83604,-3.94507 4.71173,-8.46673 6.69245,-13.24634l0.36013,-0.87247l0.08253,-0.20484c1.96572,-4.74167 4.55417,-9.60473 8.80072,-9.60473z"></path></g><g style="mix-blend-mode: normal" text-anchor="none" font-size="none" font-weight="none" font-family="none" stroke-dashoffset="0" stroke-dasharray="" stroke-miterlimit="10" stroke-linejoin="miter" stroke-linecap="butt" stroke-width="1" stroke="none" fill-rule="none" fill="none" data-paper-data="{&quot;selected&quot;:false}"><path fill-rule="evenodd" fill="#ffffff" data-paper-data="{&quot;guideItem&quot;:null,&quot;selected&quot;:false}" d="M7.20048,78.09726c5.13938,6.44868 15.27559,10.84895 27.11493,11.72142c29.33574,2.20014 44.53631,-6.62317 46.53955,-26.94029c0.30011,-2.85259 1.26046,-17.66937 -7.33769,-27.96449c-2.57344,-3.09536 -5.78462,-5.50034 -9.61102,-7.22252c-3.8264,-1.72218 -8.25302,-2.74638 -13.27236,-3.09536c-1.50805,-0.09863 -2.94108,-0.15173 -4.32158,-0.15173c-30.34862,0 -32.82452,23.59457 -32.89205,24.64153c-0.07503,0.62211 -0.49518,1.15318 -1.11041,1.32767c-0.30011,0.07587 -7.73533,2.2229 -9.07082,11.8428c-0.86282,6.14521 0.47267,11.46347 3.96145,15.84098z"></path><path fill-rule="nonzero" fill="#000000" d="M0.27544,61.8466c1.33549,-9.57439 7.78785,-13.01874 10.27876,-14.02018c0.76528,-4.97686 5.90466,-26.39405 35.69057,-26.39405c1.48554,0 2.9936,0.05311 4.56917,0.15173c10.85648,0.75108 19.25955,4.57477 24.93913,11.40278c9.14585,10.92482 8.47811,25.86298 8.03544,30.18739c-1.95071,20.11987 -15.42565,29.96738 -41.02503,29.96738c-2.74601,0 -5.65707,-0.09863 -8.67318,-0.32623c-12.8297,-0.97109 -23.45359,-5.64449 -29.18569,-12.84425c-4.03648,-5.05273 -5.58955,-11.14483 -4.6292,-18.12457zM80.84745,62.87839c0.30011,-2.85259 1.26046,-17.66937 -7.33769,-27.96449c-2.57344,-3.09536 -5.78462,-5.50034 -9.61102,-7.22252c-3.8264,-1.72218 -8.25302,-2.74638 -13.27236,-3.09536c-1.50805,-0.09863 -2.94108,-0.15173 -4.32158,-0.15173c-30.34862,0 -32.82452,23.59457 -32.89205,24.64153c-0.07503,0.62211 -0.49518,1.15318 -1.11041,1.32767c-0.30011,0.07587 -7.73533,2.2229 -9.07082,11.8428c-0.84031,6.14521 0.49518,11.47106 3.97646,15.84098c5.13938,6.44868 15.27559,10.84895 27.11493,11.72142c29.32074,2.19255 44.52131,-6.62317 46.52454,-26.94029z"></path><path fill-rule="evenodd" fill="#ffbeb8" data-paper-data="{&quot;guideItem&quot;:null,&quot;selected&quot;:false}" d="M37.57911,65.63235c-0.14255,6.12245 4.39661,11.20552 10.14372,11.34208c5.7471,0.13656 10.52636,-4.70374 10.66891,-10.83378c0.14255,-6.11486 -4.39661,-11.19794 -10.14372,-11.3345c-5.7471,-0.13656 -10.52636,4.71133 -10.66891,10.82619"></path><path fill-rule="evenodd" fill="#ffbeb8" data-paper-data="{&quot;guideItem&quot;:null,&quot;selected&quot;:false}" d="M3.77923,60.79205c0.51769,-2.07875 2.95608,-9.05091 6.30981,-6.5473c4.52416,3.37607 2.43089,11.96419 0.18757,16.2279c-0.88532,1.67666 -2.47591,3.64161 -4.70422,3.21675c-1.26046,-0.23519 -1.72563,-2.64775 -1.89069,-3.4747c-0.63023,-3.08778 -0.66774,-6.34246 0.09754,-9.42265z"></path></g><g style="mix-blend-mode: normal" text-anchor="none" font-size="none" font-weight="none" font-family="none" stroke-dashoffset="0" stroke-dasharray="" stroke-miterlimit="10" stroke-linejoin="miter" stroke-linecap="butt" stroke-width="1" stroke="none" fill-rule="none" fill="none" data-paper-data="{&quot;selected&quot;:false}"><path fill-rule="evenodd" fill="#000000" data-paper-data="{&quot;guideItem&quot;:null,&quot;selected&quot;:false}" d="M19.72257,60.05614c-0.02251,0.7966 0.79529,1.46423 1.83817,1.48699c1.04288,0.02276 1.8982,-0.59935 1.9132,-1.39595c0.02251,-0.78901 -0.80279,-1.46423 -1.84568,-1.48699c-1.04288,-0.02276 -1.89069,0.60693 -1.9057,1.39595"></path><path fill-rule="evenodd" fill="#000000" data-paper-data="{&quot;guideItem&quot;:null,&quot;selected&quot;:false}" d="M17.10411,58.27327v0c1.0804,0.02276 1.98073,-1.0242 2.01074,-2.34428l0.0075,-0.33381c0.03001,-1.32008 -0.8178,-2.42015 -1.8982,-2.44291c-1.0804,-0.02276 -1.98073,1.0242 -2.01824,2.34428l-0.0075,0.33381c-0.03001,1.32008 0.8253,2.41256 1.9057,2.44291"></path><path fill-rule="evenodd" fill="#000000" data-paper-data="{&quot;guideItem&quot;:null,&quot;selected&quot;:false}" d="M33.85024,58.68295v0c1.26796,0.03035 2.32585,-1.01661 2.35586,-2.3367l0.0075,-0.33381c0.03001,-1.32008 -0.97536,-2.42015 -2.24332,-2.4505c-1.26796,-0.03035 -2.32585,1.01661 -2.36337,2.3367l-0.0075,0.33381c-0.03001,1.32008 0.97536,2.42015 2.25082,2.4505"></path><path fill-rule="nonzero" fill="#231815" data-paper-data="{&quot;guideItem&quot;:null,&quot;selected&quot;:false}" d="M13.17267,63.0984c0.35263,-0.59176 1.11791,-0.76625 1.69562,-0.40968c0.58521,0.36416 0.76528,1.13041 0.40515,1.71459c-0.04502,0.07587 -0.14255,0.23519 0.2776,0.74349c0.86282,1.04696 2.04075,1.16076 2.64847,1.14559c1.17043,-0.03793 2.28834,-0.60693 2.91857,-1.4794c0.04502,-0.06069 0.10504,-0.09863 0.15756,-0.15173c0.05252,-0.04552 0.08253,-0.10621 0.14255,-0.15173c0.0075,-0.00759 0.02251,-0.00759 0.03001,-0.01517c0.09003,-0.06069 0.18757,-0.09104 0.2851,-0.12139c0.05252,-0.01517 0.10504,-0.04552 0.15756,-0.06069c0.09754,-0.01517 0.18757,-0.00759 0.2851,0c0.06002,0 0.12755,-0.00759 0.18757,0.00759c0.07503,0.01517 0.15005,0.05311 0.22508,0.09104c0.07503,0.03035 0.15756,0.05311 0.22508,0.10621c0.0075,0.00759 0.02251,0.00759 0.03001,0.01517c0.06002,0.04552 0.09754,0.10621 0.15005,0.15932c0.04502,0.05311 0.10504,0.08345 0.15005,0.14415c1.76315,2.60982 6.62493,3.23192 9.64103,1.22146c0.69776,-0.46279 1.1029,-0.87247 1.26796,-1.09248c-0.22508,-0.48555 -0.12755,-1.07731 0.2851,-1.45664c0.50268,-0.46279 1.28297,-0.42485 1.74814,0.08345c0.39765,0.44003 0.57771,1.00144 0.50268,1.58562c-0.12004,0.97109 -0.94535,1.97254 -2.4459,2.96639c-1.6431,1.09248 -3.61632,1.60838 -5.55954,1.60838c-2.4609,0 -4.83177,-0.87247 -6.46737,-2.42015c-1.05038,0.87247 -2.40088,1.39595 -3.8264,1.44906c-0.06752,0 -0.14255,0 -0.21008,0c-1.74064,0 -3.34623,-0.73591 -4.41912,-2.0484c-1.358,-1.62355 -0.88532,-2.97398 -0.48768,-3.63402z"></path></g>
               </svg>