<svg viewBox="0 0 111 201" xml:space="preserve" xmlns:xlink="http://www.w3.org/1999/xlink" xmlns="http://www.w3.org/2000/svg">
                    <g style="mix-blend-mode: normal" text-anchor="none" font-size="none" font-weight="none" font-family="none" stroke-dashoffset="0" stroke-dasharray="" stroke-miterlimit="10" stroke-linejoin="miter" stroke-linecap="butt" stroke-width="1" stroke="none" fill-rule="none" fill="none" data-paper-data="{&quot;selected&quot;:false}"><path fill-rule="nonzero" fill="#ffffff" data-paper-data="{&quot;guideItem&quot;:null,&quot;selected&quot;:false}" d="M48.88282,135.96055v30.00224c-0.23286,0.07173 -2.22877,0.55593 -4.81512,0.55593c-2.74437,0 -4.81512,-0.55593 -4.81512,-0.55593v-30.00224c0,-1.97265 1.50524,-3.59561 3.33483,-3.59561c1.82958,0 6.29541,1.62295 6.29541,3.59561z"></path><path fill-rule="evenodd" fill="#009ff9" data-paper-data="{&quot;guideItem&quot;:null,&quot;selected&quot;:false}" d="M48.90777,165.96279v27.18673c0,1.79332 -2.30361,3.29074 -4.18308,3.66734v0.07173h-8.83188c-3.28493,0 -7.27673,0.50213 -9.72171,-2.51065c-1.66326,-2.08025 -1.19755,-6.17799 -0.14137,-8.4286c1.94601,-4.15154 5.63844,-7.21811 9.8631,-8.20444c0,0 0.19128,-0.0538 0.23286,-0.0538c1.19755,-0.25106 2.20381,-0.33176 3.12692,-0.30486v-11.44138c0,0 2.06243,0.55593 4.81512,0.55593c2.58636,0 4.58226,-0.4842 4.81512,-0.55593c0.02495,0.01793 0.02495,0.01793 0.02495,0.01793z"></path><path fill-rule="nonzero" fill="#000000" d="M42.5874,132.38287c1.83789,0 6.30373,1.60502 6.30373,3.58664v26.55907v0v30.62094c0,1.80229 -2.29529,3.30868 -4.16645,3.67631v0.08967h-0.82331h-2.4034h-2.25371h-3.36809c-0.81499,0 -1.67157,0.0269 -2.52814,0.0269c-2.62794,0 -5.33905,-0.27796 -7.17694,-2.55548c-1.67157,-2.06232 -1.20586,-6.18695 -0.14137,-8.43757c1.95433,-4.15154 5.63012,-7.20915 9.85478,-8.19547c0,0 0.19128,-0.04483 0.23286,-0.0538c1.11438,-0.23313 2.06243,-0.30486 2.92733,-0.30486c0.06653,0 0.14137,0 0.20791,0v-11.43241v-3.44317v-26.55907c0.00832,-1.97265 1.49692,-3.57767 3.33483,-3.57767M42.5874,129.3432c-3.38472,0 -6.14572,2.96794 -6.14572,6.62632v26.55907v3.44317v8.59897c-0.28276,0.04483 -0.56551,0.09863 -0.85658,0.1614l-0.32434,0.0807c-4.99808,1.16566 -9.39739,4.82403 -11.73425,9.78256c-1.3805,2.92311 -2.12896,8.52724 0.53225,11.80901c2.56142,3.16521 6.13741,3.59561 9.3059,3.59561c0.45739,0 0.90648,-0.00897 1.34724,-0.01793c0.39918,-0.00897 0.79836,-0.01793 1.18091,-0.01793h3.36809h2.25371h2.4034h0.82331c0.45739,0 0.88985,-0.11657 1.28071,-0.33176c2.89406,-0.85183 5.70496,-3.26384 5.70496,-6.47388v-30.62094v-26.55907c-0.01663,-4.97646 -7.2102,-6.63528 -9.13958,-6.63528z"></path></g><g style="mix-blend-mode: normal" text-anchor="none" font-size="none" font-weight="none" font-family="none" stroke-dashoffset="0" stroke-dasharray="" stroke-miterlimit="10" stroke-linejoin="miter" stroke-linecap="butt" stroke-width="1" stroke="none" fill-rule="nonzero" fill="none" data-paper-data="{&quot;selected&quot;:false}"><path fill="#ffffff" data-paper-data="{&quot;guideItem&quot;:null,&quot;selected&quot;:false}" d="M103.25459,101.51984c-1.90443,2.08025 -5.61348,4.5102 -9.11463,4.27707c-0.79836,-2.37615 -1.788,-4.68056 -2.98554,-6.88635c-1.26408,-2.30442 -11.9089,-15.11769 -5.33073,-16.53441c1.76305,-0.3766 3.75895,1.47052 5.07293,2.48375c5.85465,4.5102 9.84646,10.23089 12.35797,16.65994z"></path><path fill="#0088c5" data-paper-data="{&quot;guideItem&quot;:null,&quot;selected&quot;:false}" d="M105.08418,130.00672c-0.65699,0.95943 -1.85452,1.66779 -3.07702,2.09818c-0.56551,0.20623 -1.13101,0.33176 -1.64662,0.4035c-0.28276,0.0269 -0.56551,0.0538 -0.82331,0.0538c-0.8649,0 -1.54683,-0.17933 -2.11233,-0.52903c-0.28276,-0.17933 -0.51561,-0.3766 -0.73183,-0.60973c-0.34928,-0.35866 -0.59046,-0.76216 -0.77341,-1.23739c-0.0499,-0.15243 -0.11642,-0.30486 -0.16632,-0.4842c-0.46571,-1.41672 -0.49066,-3.13831 -0.37423,-4.70746c0.34928,-4.9137 0.98964,-9.11007 -0.09148,-13.97893c-0.06653,-0.30486 -0.3077,-1.82022 -0.59046,-3.29074c-0.16632,-0.65456 -0.37423,-1.29119 -0.56551,-1.92782c3.50115,0.22416 7.2102,-2.20578 9.11463,-4.27707l0.19128,0.22416c0.14137,0.30486 0.34928,0.86079 0.56551,1.51536c0.11642,0.33176 0.23286,0.68146 0.33265,1.04013c0.09148,0.35866 0.20791,0.70836 0.3077,1.06703c0.0499,0.17933 0.09148,0.33176 0.14137,0.50213c0.09148,0.30486 0.16632,0.60973 0.23286,0.86079c0.11642,0.3766 0.19128,0.63663 0.20791,0.73526c0.63204,2.40305 1.08111,4.8599 1.38882,7.34364c0.58214,4.78816 1.45534,10.84062 -1.53019,15.19839z"></path><path fill="#0088c5" data-paper-data="{&quot;guideItem&quot;:null,&quot;selected&quot;:false}" d="M94.70547,107.72473c-0.19128,-0.65456 -0.37423,-1.29119 -0.59046,-1.92782h0.02495c0.19128,0.63663 0.39918,1.26429 0.56551,1.92782z"></path><path fill="#000000" d="M109.47517,114.96077l-0.06653,-0.52903c-0.33265,-2.68101 -0.82331,-5.29029 -1.45534,-7.77404c-0.91479,-3.47007 -1.50524,-5.69379 -2.37014,-6.95808c-2.88574,-7.06568 -7.27673,-12.885 -13.03159,-17.3145l-0.49066,-0.3766c-1.4304,-1.13876 -3.40135,-2.70791 -5.72991,-2.70791c-0.34928,0 -0.70688,0.0538 -1.03122,0.09863c-2.67784,0.58283 -3.68411,2.40305 -4.05834,3.44317c-1.48029,4.23223 2.11233,9.89913 6.27046,15.79915c0.51561,0.73526 1.08111,1.56915 1.24744,1.82022c1.31397,2.40305 2.39509,5.11096 3.21839,8.02511c0.16632,0.83389 0.3077,1.64985 0.39918,2.25062c0.09148,0.4842 0.16632,0.83389 0.19128,0.98633c0.79836,3.56871 0.54056,6.81462 0.23286,10.58059c-0.06653,0.80699 -0.14137,1.62295 -0.19128,2.45685c-0.28276,3.9453 0.37423,6.78772 1.97096,8.66174c0.84825,0.98633 2.42003,2.17888 4.98145,2.17888c0.37423,0 0.74846,-0.0269 1.14764,-0.07173c0.70688,-0.07173 1.45534,-0.27796 2.18717,-0.52903c1.13101,-0.3766 3.19344,-1.31809 4.45752,-3.16521c3.52609,-5.20063 2.7111,-11.93454 2.12065,-16.87514zM105.08418,130.00672c-0.65699,0.95943 -1.85452,1.66779 -3.07702,2.09818c-0.56551,0.20623 -1.13101,0.33176 -1.64662,0.4035c-0.28276,0.0269 -0.56551,0.0538 -0.82331,0.0538c-0.8649,0 -1.54683,-0.17933 -2.11233,-0.52903c-0.28276,-0.15243 -0.54056,-0.3766 -0.73183,-0.60973c-0.34928,-0.35866 -0.59046,-0.76216 -0.77341,-1.23739c-0.06653,-0.15243 -0.14137,-0.30486 -0.16632,-0.4842c-0.46571,-1.41672 -0.49066,-3.13831 -0.37423,-4.70746c0.34928,-4.9137 0.98964,-9.11007 -0.09148,-13.97893c-0.06653,-0.30486 -0.3077,-1.82022 -0.59046,-3.29074c-0.19128,-0.65456 -0.37423,-1.29119 -0.59046,-1.92782c-0.77341,-2.37615 -1.76305,-4.68056 -2.9606,-6.88635c-1.26408,-2.30442 -11.9089,-15.11769 -5.33073,-16.53441c0.16632,-0.0269 0.33265,-0.0538 0.49066,-0.0538c1.64662,0 3.40135,1.62295 4.58226,2.52858c5.84634,4.4833 9.8132,10.23089 12.32471,16.65994c0.02495,0 0.02495,0 0.02495,0l0.19128,0.22416c0.16632,0.30486 0.37423,0.86079 0.56551,1.51536c0.11642,0.33176 0.23286,0.68146 0.33265,1.04013c0.09148,0.35866 0.20791,0.70836 0.3077,1.06703c0.0499,0.17933 0.09148,0.33176 0.14137,0.50213c0.09148,0.30486 0.16632,0.60973 0.23286,0.86079c0.11642,0.3766 0.19128,0.63663 0.20791,0.73526c0.63204,2.40305 1.08111,4.8599 1.38882,7.34364c0.59046,4.79713 1.46366,10.84959 -1.52187,15.20735z"></path></g><g style="mix-blend-mode: normal" text-anchor="none" font-size="none" font-weight="none" font-family="none" stroke-dashoffset="0" stroke-dasharray="" stroke-miterlimit="10" stroke-linejoin="miter" stroke-linecap="butt" stroke-width="1" stroke="none" fill-rule="nonzero" fill="none" data-paper-data="{&quot;selected&quot;:false}"><path fill="#000000" d="M21.8882,89.19076c0.11642,0 0.23286,0.00897 0.34928,0.0269c6.64469,1.04013 -3.35146,14.43623 -4.4991,16.81237c-0.96469,1.99059 -1.74642,4.06187 -2.37845,6.17799c-0.04158,0.12553 -0.06653,0.25106 -0.09979,0.38556c-0.24118,0.85183 -0.46571,1.70365 -0.65699,2.57341c-0.07484,0.3497 -0.14137,0.69043 -0.21623,1.04013c-0.09979,0.4842 -0.18296,0.96839 -0.26612,1.45259c-0.75678,4.74333 -0.64867,9.48666 0.34928,14.46312c0.74015,3.70321 0.90648,8.00717 -3.74232,8.00717c-0.17465,0 -0.34928,-0.00897 -0.54056,-0.01793c-0.51561,-0.03587 -1.08111,-0.1345 -1.64662,-0.30486c-1.23913,-0.35866 -2.47825,-1.01323 -3.17681,-1.91885c-3.20176,-4.1874 -2.61963,-10.28469 -2.27866,-15.08182c0.18296,-2.49271 0.50729,-4.9675 1.0229,-7.40641c0.11642,-0.54696 1.26408,-6.07039 1.67157,-6.07039v0c0.01663,0 0.04158,0.00897 0.06653,0.00897c2.17886,-6.55458 5.83802,-12.52634 11.45151,-17.35037c1.17259,-1.01323 2.9107,-2.79758 4.59058,-2.79758M21.8882,86.15109c-2.46161,0 -4.51573,1.82919 -5.87128,3.03968l-0.46571,0.41246c-5.49705,4.7254 -9.56371,10.75095 -12.08354,17.91527c-0.87321,1.30912 -1.37218,3.66734 -2.10401,7.20915c-0.52393,2.50168 -0.88153,5.13786 -1.08111,7.83681l-0.04158,0.54696c-0.3576,4.94956 -0.85658,11.72831 2.95228,16.70477c1.35555,1.76642 3.4762,2.59135 4.61553,2.92311c0.74015,0.2152 1.50524,0.3497 2.21212,0.39453c0.24949,0.01793 0.48234,0.0269 0.70688,0.0269c2.98554,0 4.63217,-1.35396 5.48042,-2.49271c2.02085,-2.68998 1.54683,-6.53665 1.01459,-9.19076c-0.91479,-4.57297 -1.0229,-8.93073 -0.32434,-13.30643c0.07484,-0.42143 0.14969,-0.86976 0.24118,-1.31809c0.06653,-0.34073 0.13306,-0.65456 0.1996,-0.97736c0.17465,-0.79803 0.38255,-1.59605 0.60709,-2.38512l0.07484,-0.269c0.61541,-2.08922 1.35555,-3.9991 2.21212,-5.78346c0.13306,-0.269 0.67362,-1.12979 1.14764,-1.89195c3.85043,-6.14212 7.16862,-11.98834 5.47211,-16.13091c-0.41581,-1.01323 -1.51356,-2.77965 -4.21634,-3.20108c-0.24949,-0.04483 -0.49897,-0.06277 -0.74846,-0.06277z"></path><path fill="#ffffff" data-paper-data="{&quot;guideItem&quot;:null,&quot;selected&quot;:false}" d="M17.73006,106.03004c-0.96469,1.97265 -1.7381,3.9991 -2.34519,6.09729c-3.45125,-1.82022 -6.9524,-2.58238 -9.55539,-2.80655c2.18717,-6.55458 5.87128,-12.50841 11.48477,-17.3414c1.24744,-1.06703 3.14355,-3.03968 4.93154,-2.76171c6.61975,1.04013 -3.35977,14.42726 -4.51573,16.81237z"></path><path fill="#0088c5" data-paper-data="{&quot;guideItem&quot;:null,&quot;selected&quot;:false}" d="M14.47009,132.10491c0.77341,3.84667 0.91479,8.32997 -4.27457,7.99821c-0.51561,-0.0269 -1.08111,-0.12553 -1.64662,-0.30486c-1.24744,-0.35866 -2.48656,-1.01323 -3.19344,-1.92782c-3.19344,-4.17844 -2.603,-10.27572 -2.27866,-15.09079c0.19128,-2.48375 0.51561,-4.95853 1.03122,-7.38848c0.11642,-0.55593 1.26408,-6.07935 1.66326,-6.07935c0.02495,0 0.02495,0 0.0499,0c2.603,0.22416 6.10414,0.98633 9.55539,2.80655c-0.49066,1.62295 -0.8649,3.23694 -1.14764,4.833c-0.88985,5.00336 -0.81499,9.93499 0.24118,15.15355z"></path></g><g style="mix-blend-mode: normal" text-anchor="none" font-size="none" font-weight="none" font-family="none" stroke-dashoffset="0" stroke-dasharray="" stroke-miterlimit="10" stroke-linejoin="miter" stroke-linecap="butt" stroke-width="1" stroke="none" fill-rule="nonzero" fill="none" data-paper-data="{&quot;selected&quot;:false}"><path fill="#ffffff" data-paper-data="{&quot;guideItem&quot;:null,&quot;selected&quot;:false}" d="M37.24835,3.63147c1.24744,0.39453 2.50319,0.97736 3.7839,1.74849c1.05617,0.62766 2.0458,1.43466 2.97723,2.26855c2.98554,2.67205 6.82766,11.09168 2.71942,14.46312c-2.96891,2.43892 -5.71328,-3.64941 -7.38485,-5.40686c-3.73401,-3.9453 -9.07305,0.39453 -11.96711,3.64941c-2.32856,2.63618 -6.17899,2.73481 -8.61565,0.2152c-2.43667,-2.51961 -2.54477,-6.68908 -0.24118,-9.3432c2.86079,-3.29074 6.37027,-6.09729 10.41198,-7.42434c3.01049,-0.97736 5.66338,-1.00426 8.31627,-0.17037z"></path><path fill="#673101" data-paper-data="{&quot;guideItem&quot;:null,&quot;selected&quot;:false}" d="M28.28341,15.99641c-0.47402,-0.14347 -0.94806,-0.06277 -1.38882,0.08967c0.53225,-0.34073 0.94806,-0.89666 1.11438,-1.60502c0.34097,-1.41672 -0.44908,-2.86035 -1.74642,-3.23694c-0.60709,-0.17037 -1.21418,-0.0538 -1.72978,0.23313c0.45739,-0.3497 0.82331,-0.84286 0.97301,-1.47052c0.34097,-1.41672 -0.44076,-2.86931 -1.74642,-3.23694c-0.11642,-0.03587 -0.23286,-0.01793 -0.3576,-0.0269c-2.66121,2.01748 -4.46584,4.01704 -4.87333,4.4833c-2.30361,2.65411 -2.18717,6.82358 0.24949,9.3432c2.42835,2.51961 6.2871,2.42098 8.61565,-0.2152c0.68193,-0.77113 1.61336,-1.64089 2.61963,-2.43892c-0.22454,-0.90563 -0.83994,-1.67675 -1.72978,-1.91885"></path><path fill="#000000" d="M33.45614,3.03968c1.28902,0 2.54477,0.20623 3.79222,0.5918c1.24744,0.39453 2.50319,0.97736 3.7839,1.74849c1.05617,0.62766 2.0458,1.43466 2.97723,2.26855c2.98554,2.67205 6.82766,11.09168 2.71942,14.46312c-0.48234,0.39453 -0.96469,0.5649 -1.4304,0.5649c-2.4034,0 -4.55731,-4.50123 -5.95444,-5.97176c-1.05617,-1.12082 -2.2454,-1.56915 -3.46788,-1.56915c-2.00422,0 -4.10824,1.21049 -5.90455,2.70791c0.00832,0.0269 0.02495,0.0538 0.03326,0.0807c-0.99795,0.78906 -1.92106,1.64985 -2.603,2.42098c-0.00832,0.00897 -0.00832,0.00897 -0.01663,0.01793c-1.19755,1.36292 -2.80258,2.04438 -4.40762,2.04438c-1.51356,0 -3.02712,-0.60973 -4.20803,-1.82919c-1.52187,-1.57812 -2.13728,-3.79287 -1.82126,-5.88209c0.19128,-1.25532 0.7152,-2.46581 1.5801,-3.46111c0.1996,-0.22416 0.74015,-0.82493 1.55515,-1.62295c2.55309,-2.56445 5.50537,-4.70746 8.85683,-5.80139c1.5801,-0.52006 3.0687,-0.77113 4.51573,-0.77113M33.45614,0c-1.7381,0 -3.4762,0.2959 -5.33905,0.90563c-3.45125,1.12979 -6.80271,3.30868 -9.96289,6.49182c-0.79836,0.78009 -1.38882,1.42569 -1.67157,1.73952c-1.23913,1.42569 -2.02917,3.16521 -2.32024,5.06613c-0.47402,3.14728 0.51561,6.35732 2.65289,8.5631c1.66326,1.72159 3.85043,2.67205 6.15404,2.67205c2.42835,0 4.77354,-1.09393 6.45343,-2.98588c0.59046,-0.66353 1.38882,-1.39879 2.2454,-2.08025c0.19128,-0.15243 0.3576,-0.3228 0.49897,-0.50213c1.42208,-1.09393 2.72774,-1.69469 3.70906,-1.69469c0.57383,0 1.03953,0.2152 1.49692,0.69939c0.24118,0.25106 0.68193,0.89666 1.0728,1.46156c1.56346,2.27752 3.71737,5.38893 6.85261,5.38893c1.10606,0 2.18717,-0.41246 3.13523,-1.19256c1.83789,-1.51536 2.84416,-3.75701 2.90238,-6.49182c0.09148,-4.71643 -2.79426,-10.28469 -5.522,-12.7236c-1.26408,-1.12979 -2.34519,-1.95472 -3.40967,-2.59135c-1.50524,-0.89666 -2.93565,-1.55122 -4.36604,-1.99955c-1.53852,-0.49316 -3.03544,-0.72629 -4.58226,-0.72629z"></path></g><g style="mix-blend-mode: normal" text-anchor="none" font-size="none" font-weight="none" font-family="none" stroke-dashoffset="0" stroke-dasharray="" stroke-miterlimit="10" stroke-linejoin="miter" stroke-linecap="butt" stroke-width="1" stroke="none" fill-rule="nonzero" fill="none" data-paper-data="{&quot;selected&quot;:false}"><path fill="#ffffff" data-paper-data="{&quot;guideItem&quot;:null,&quot;selected&quot;:false}" d="M73.41582,3.63147c-1.24744,0.39453 -2.50319,0.97736 -3.7839,1.74849c-1.05617,0.62766 -2.0458,1.43466 -2.97723,2.26855c-2.98554,2.67205 -6.82766,11.09168 -2.71942,14.46312c2.96891,2.43892 5.71328,-3.64941 7.38485,-5.40686c3.73401,-3.9453 9.07305,0.39453 11.96711,3.64941c2.32856,2.63618 6.17899,2.73481 8.61565,0.2152c2.43667,-2.51961 2.54477,-6.68908 0.24118,-9.3432c-2.86079,-3.29074 -6.37027,-6.09729 -10.41198,-7.42434c-3.01049,-0.97736 -5.66338,-1.00426 -8.31627,-0.17037z"></path><path fill="#673101" data-paper-data="{&quot;guideItem&quot;:null,&quot;selected&quot;:false}" d="M82.38907,15.99641c0.47402,-0.14347 0.94806,-0.06277 1.38882,0.08967c-0.53225,-0.34073 -0.94806,-0.89666 -1.11438,-1.60502c-0.34097,-1.41672 0.44908,-2.86035 1.74642,-3.23694c0.60709,-0.17037 1.21418,-0.0538 1.72978,0.23313c-0.45739,-0.3497 -0.82331,-0.84286 -0.97301,-1.47052c-0.34097,-1.41672 0.44076,-2.86931 1.74642,-3.23694c0.11642,-0.03587 0.23286,-0.01793 0.3576,-0.0269c2.66121,2.01748 4.46584,4.01704 4.87333,4.4833c2.30361,2.65411 2.18717,6.82358 -0.24949,9.3432c-2.42835,2.51961 -6.2871,2.42098 -8.61565,-0.2152c-0.68193,-0.77113 -1.61336,-1.64089 -2.61963,-2.43892c0.21623,-0.90563 0.83162,-1.67675 1.72978,-1.91885"></path><path fill="#000000" d="M77.20804,3.03968c1.43871,0 2.93565,0.25106 4.51573,0.77113c3.35146,1.09393 6.30373,3.23694 8.85683,5.80139c0.80667,0.78906 1.35555,1.38982 1.55515,1.62295c0.8649,0.99529 1.38882,2.20578 1.5801,3.46111c0.31602,2.08922 -0.29939,4.31293 -1.82126,5.88209c-1.18091,1.21946 -2.69447,1.82919 -4.20803,1.82919c-1.60504,0 -3.21008,-0.68146 -4.40762,-2.04438c-0.00832,-0.00897 -0.00832,-0.00897 -0.01663,-0.01793c-0.68193,-0.77113 -1.60504,-1.62295 -2.603,-2.42098c0.00832,-0.0269 0.02495,-0.0538 0.03326,-0.0807c-1.79631,-1.48846 -3.90033,-2.70791 -5.90455,-2.70791c-1.2225,0 -2.41172,0.4573 -3.46788,1.56915c-1.39713,1.47052 -3.54273,5.97176 -5.95444,5.97176c-0.46571,0 -0.94806,-0.17037 -1.4304,-0.5649c-4.10824,-3.37144 -0.26612,-11.79108 2.71942,-14.46312c0.93143,-0.83389 1.92106,-1.64089 2.97723,-2.26855c1.28902,-0.76216 2.53646,-1.35396 3.7839,-1.74849c1.25576,-0.39453 2.50319,-0.5918 3.79222,-0.5918M77.20804,0c-1.54683,0 -3.05207,0.23313 -4.58226,0.71733c-1.4304,0.44833 -2.85248,1.10289 -4.36604,1.99955c-1.06448,0.63663 -2.15391,1.46156 -3.41799,2.59135c-2.72774,2.44788 -5.61348,8.00717 -5.522,12.7236c0.05821,2.73481 1.05617,4.97646 2.89406,6.49182c0.94806,0.78009 2.02917,1.19256 3.13523,1.19256c3.14355,0 5.28915,-3.11141 6.85261,-5.38893c0.39086,-0.5649 0.83162,-1.20152 1.0728,-1.46156c0.45739,-0.4842 0.92311,-0.69939 1.49692,-0.69939c0.98132,0 2.27866,0.60076 3.70906,1.69469c0.14137,0.1883 0.3077,0.35866 0.49897,0.50213c0.8649,0.68146 1.65494,1.41672 2.23708,2.08025c1.67989,1.90989 4.03339,2.99484 6.46174,2.99484c2.30361,0 4.49078,-0.95046 6.15404,-2.68101c2.13728,-2.20578 3.12692,-5.41583 2.64458,-8.5631c-0.28276,-1.89195 -1.08111,-3.64044 -2.30361,-5.0482c-0.29939,-0.33176 -0.88985,-0.98633 -1.72147,-1.79332c-3.12692,-3.14728 -6.47837,-5.32616 -9.92963,-6.45595c-1.82958,-0.60076 -3.57599,-0.89666 -5.3141,-0.89666z"></path></g><g style="mix-blend-mode: normal" text-anchor="none" font-size="none" font-weight="none" font-family="none" stroke-dashoffset="0" stroke-dasharray="" stroke-miterlimit="10" stroke-linejoin="miter" stroke-linecap="butt" stroke-width="1" stroke="none" fill-rule="none" fill="none" data-paper-data="{&quot;selected&quot;:false}"><g><path fill-rule="evenodd" fill="#009ff9" data-paper-data="{&quot;guideItem&quot;:null,&quot;selected&quot;:false}" d="M95.0797,114.63797c0.37423,7.56781 -1.36387,18.68639 -6.03762,25.18718c-5.522,7.69334 -15.59301,12.70567 -27.61002,13.7458c-1.4304,0.12553 -3.00218,0.20623 -4.50742,0.20623h-3.19344c-1.50524,0 -3.07702,-0.07173 -4.50742,-0.20623c-12.02532,-1.04013 -22.09633,-6.05245 -27.61002,-13.7458c-4.67375,-6.50975 -6.41185,-17.61937 -6.03762,-25.18718c0.20791,-4.23223 1.08111,-8.5093 1.90443,-12.66084c0.44908,-2.12508 0.8649,-4.23223 1.2225,-6.35732c0.37423,-2.37615 0.14137,-6.78772 0.11642,-7.01188c-0.28276,-3.29074 -1.17259,-6.38422 -2.0458,-8.9666c-3.38472,-10.17709 -3.94192,-19.69962 -1.788,-29.94844c1.92938,-9.2625 6.01267,-17.11724 11.17707,-21.57364c8.59902,-7.38848 18.57854,-11.61175 27.40211,-11.61175h0.06653l1.6882,-0.0269l1.69652,0.0269h0.06653c8.83188,0 18.82803,4.23223 27.42705,11.62071c5.13945,4.4564 9.23106,12.30217 11.17707,21.57364c2.13728,10.25779 1.57178,19.77135 -1.80463,29.94844c-0.84825,2.58238 -1.76305,5.66689 -2.0458,9.01143c-0.02495,0.17933 -0.25781,4.58193 0.14137,6.95808c0.34928,2.12508 0.77341,4.25017 1.19755,6.38422c0.84825,4.12464 1.72147,8.4017 1.90443,12.63394z"></path><path fill-rule="evenodd" fill="#ffffff" data-paper-data="{&quot;guideItem&quot;:null,&quot;selected&quot;:false}" d="M60.40086,21.7171c3.79222,0.538 7.50959,1.63192 10.89431,3.18314c5.522,2.52858 11.96711,6.59942 14.94434,12.31114c1.31397,2.52858 2.21212,5.29029 2.72774,8.12374c0.39086,2.14302 -0.09979,5.15579 1.09775,6.99395c2.42003,3.73907 2.97723,5.83726 3.64253,10.49989c0.62372,4.38467 0.27444,9.06523 -1.44703,13.1271c-4.47415,10.57162 -15.31857,15.03699 -25.23156,15.37772c-1.37218,0.04483 -2.76932,0.08967 -4.15813,0.1345c-6.44511,0.2152 -12.79042,0.08967 -19.23553,-0.1345c-9.92131,-0.34073 -20.75741,-4.79713 -25.23156,-15.37772c-1.72147,-4.06187 -2.07075,-8.74243 -1.44703,-13.1271c0.6653,-4.65367 1.2225,-6.76082 3.64253,-10.49989c1.19755,-1.83815 0.70688,-4.85093 1.09775,-6.99395c0.51561,-2.84241 1.40545,-5.60412 2.72774,-8.12374c2.97723,-5.71172 7.9254,-9.77359 13.45572,-12.31114c2.23708,-1.02219 4.56563,-1.81125 6.93577,-2.40305c4.64048,-1.15669 10.86105,-1.44362 15.58469,-0.78009z"></path><path fill-rule="nonzero" fill="#000000" d="M95.92796,101.34051c-0.42413,-2.08025 -0.84825,-4.15154 -1.17259,-6.24972c-0.28276,-1.66779 -0.16632,-5.06613 -0.09148,-6.20489c0.23286,-2.95898 1.08111,-5.81932 1.87948,-8.20444c3.52609,-10.60749 4.13318,-20.96391 1.90443,-31.64313c-2.08738,-9.92603 -6.52827,-18.40843 -12.16671,-23.26833c-9.08969,-7.81887 -19.72619,-12.30217 -29.16515,-12.30217h-0.09148l-1.6882,-0.0269l-1.6882,0.0269h-0.06653c-9.46392,0 -20.07548,4.4833 -29.16515,12.30217c-5.65507,4.8599 -10.09596,13.3423 -12.16671,23.26833c-2.25371,10.68819 -1.64662,21.03564 1.87948,31.64313c0.79836,2.37615 1.64662,5.23649 1.90443,8.15064c0.06653,1.19256 0.16632,4.58193 -0.09148,6.24972c-0.34928,2.08025 -0.77341,4.15154 -1.19755,6.24972c-0.84825,4.25017 -1.7381,8.66174 -1.97096,13.13607c-0.39918,8.38377 1.48029,20.04932 6.61975,27.18673c6.01267,8.38377 16.81549,13.7996 29.63087,14.93835c1.50524,0.12553 3.14355,0.20623 4.72364,0.20623h3.19344c1.59673,0 3.24335,-0.07173 4.74027,-0.20623c12.82369,-1.13876 23.60157,-6.55458 29.60592,-14.91145c5.13945,-7.16431 7.01894,-18.83883 6.61975,-27.21363c-0.21623,-4.46537 -1.11438,-8.86797 -1.97927,-13.1271zM56.92465,153.77718h-3.19344c-1.50524,0 -3.07702,-0.07173 -4.50742,-0.20623c-12.02532,-1.04013 -22.09633,-6.05245 -27.61002,-13.7458c-4.67375,-6.50975 -6.41185,-17.61937 -6.03762,-25.18718c0.20791,-4.23223 1.08111,-8.5093 1.90443,-12.66084c0.44908,-2.12508 0.8649,-4.23223 1.2225,-6.35732c0.37423,-2.37615 0.14137,-6.78772 0.11642,-7.01188c-0.28276,-3.29074 -1.17259,-6.38422 -2.0458,-8.9666c-3.38472,-10.17709 -3.94192,-19.69962 -1.788,-29.94844c1.92938,-9.2625 6.01267,-17.11724 11.17707,-21.57364c8.59902,-7.38848 18.57854,-11.61175 27.40211,-11.61175h0.06653l1.6882,-0.0269l1.69652,0.0269h0.06653c8.83188,0 18.82803,4.23223 27.42705,11.62071c5.13945,4.4564 9.23106,12.30217 11.17707,21.57364c2.13728,10.25779 1.57178,19.77135 -1.80463,29.94844c-0.84825,2.58238 -1.76305,5.66689 -2.0458,9.01143c-0.02495,0.17933 -0.25781,4.58193 0.14137,6.95808c0.34928,2.12508 0.77341,4.25017 1.19755,6.38422c0.84825,4.12464 1.71315,8.4017 1.90443,12.63394c0.37423,7.56781 -1.36387,18.68639 -6.03762,25.18718c-5.522,7.69334 -15.59301,12.70567 -27.61002,13.7458c-1.4304,0.12553 -3.00218,0.20623 -4.50742,0.20623z"></path></g><g fill-rule="evenodd" fill="#fdbdb8"><path data-paper-data="{&quot;guideItem&quot;:null,&quot;selected&quot;:false}" d="M40.34201,64.46985c0,6.23179 -4.6488,11.27998 -10.38702,11.27998c-5.73823,0 -10.3787,-5.0482 -10.3787,-11.27998c0,-6.22282 4.6488,-11.27102 10.3787,-11.27102c5.72991,0 10.38702,5.0482 10.38702,11.27102"></path><path data-paper-data="{&quot;guideItem&quot;:null,&quot;selected&quot;:false}" d="M91.08789,64.46985c0,6.23179 -4.6488,11.27998 -10.38702,11.27998c-5.72991,0 -10.3787,-5.0482 -10.3787,-11.27998c0,-6.22282 4.6488,-11.27102 10.3787,-11.27102c5.73823,0 10.38702,5.0482 10.38702,11.27102"></path></g></g><g style="mix-blend-mode: normal" text-anchor="none" font-size="none" font-weight="none" font-family="none" stroke-dashoffset="0" stroke-dasharray="" stroke-miterlimit="10" stroke-linejoin="miter" stroke-linecap="butt" stroke-width="1" stroke="none" fill-rule="none" fill="none" data-paper-data="{&quot;selected&quot;:false}"><path fill-rule="evenodd" fill="#000000" data-paper-data="{&quot;guideItem&quot;:null,&quot;selected&quot;:false}" d="M57.12425,60.84734c0,0.81596 -0.79836,1.47052 -1.788,1.47052c-0.98964,0 -1.79631,-0.65456 -1.79631,-1.47052c0,-0.80699 0.79836,-1.47052 1.79631,-1.47052c0.99795,0 1.788,0.66353 1.788,1.47052"></path><g fill-rule="evenodd" fill="#000000"><path data-paper-data="{&quot;guideItem&quot;:null,&quot;selected&quot;:false}" d="M65.63179,59.09886v0c-1.33892,0 -2.42835,-1.09393 -2.42835,-2.43892v-0.34073c0,-1.34499 1.08943,-2.43892 2.42835,-2.43892c1.33892,0 2.43667,1.09393 2.43667,2.43892v0.34073c-0.00832,1.34499 -1.09775,2.43892 -2.43667,2.43892"></path><path data-paper-data="{&quot;guideItem&quot;:null,&quot;selected&quot;:false}" d="M45.03238,59.09886v0c-1.33892,0 -2.42835,-1.09393 -2.42835,-2.43892v-0.34073c0,-1.34499 1.08943,-2.43892 2.42835,-2.43892c1.33892,0 2.43667,1.09393 2.43667,2.43892v0.34073c0,1.34499 -1.08943,2.43892 -2.43667,2.43892"></path></g><path fill-rule="nonzero" fill="#231815" d="M61.5485,70.19054c-2.27035,0 -4.52405,-0.72629 -6.21225,-1.91885c-3.1186,2.20578 -8.17489,2.81551 -11.66772,0.19727c-1.0229,-0.76216 -2.26203,-1.96369 -2.39509,-3.34454c-0.06653,-0.67249 0.14137,-1.30912 0.57383,-1.80229c0.53225,-0.60973 1.4304,-0.62766 1.98759,-0.0538c0.42413,0.43936 0.54056,1.09393 0.34097,1.64985c0.19128,0.26003 0.58214,0.66353 1.09775,1.04909c2.66952,1.99955 7.02725,1.25532 9.13958,-0.74423c0.53225,-0.50213 1.32229,-0.50213 1.85452,0c2.11233,1.99955 6.46174,2.74378 9.13958,0.74423c0.51561,-0.38556 0.90648,-0.78906 1.09775,-1.04909c-0.1996,-0.55593 -0.08316,-1.21049 0.34097,-1.64985c0.56551,-0.57386 1.45534,-0.55593 1.98759,0.0538c0.43244,0.49316 0.64035,1.12979 0.57383,1.80229c-0.13306,1.38086 -1.3805,2.58238 -2.39509,3.34454c-1.61336,1.20152 -3.54273,1.72159 -5.46379,1.72159zM66.78775,65.42928h0.02495z"></path></g><g style="mix-blend-mode: normal" text-anchor="none" font-size="none" font-weight="none" font-family="none" stroke-dashoffset="0" stroke-dasharray="" stroke-miterlimit="10" stroke-linejoin="miter" stroke-linecap="butt" stroke-width="1" stroke="none" fill-rule="none" fill="none" data-paper-data="{&quot;selected&quot;:false}"><path fill-rule="nonzero" fill="#ffffff" data-paper-data="{&quot;guideItem&quot;:null,&quot;selected&quot;:false}" d="M70.56333,154.32414v5.31719c0,0 -2.13728,-1.72159 -4.88165,-1.72159c-2.74437,0 -4.74027,1.72159 -4.74027,1.72159v-5.31719c0,-1.99955 2.11233,-3.59561 3.94192,-3.59561c1.82958,0 5.68002,1.59605 5.68002,3.59561z"></path><path fill-rule="evenodd" fill="#009ff9" data-paper-data="{&quot;guideItem&quot;:null,&quot;selected&quot;:false}" d="M83.64483,189.79601c-2.44498,3.03968 -6.43679,2.52858 -9.72171,2.52858h-8.83188v-0.09863c-1.87948,-0.35866 -4.15813,-1.84712 -4.15813,-3.66734v-28.90832c0,0 1.99591,-1.72159 4.74027,-1.72159c2.74437,0 4.88165,1.72159 4.88165,1.72159v13.16297c0.91479,0 1.92938,0.0538 3.12692,0.30486c0.0499,0.0269 0.23286,0.0538 0.23286,0.0538c4.22466,0.98633 7.91709,4.0529 9.8631,8.20444c1.06448,2.24165 1.53019,6.36629 -0.13306,8.41964z"></path><path fill-rule="nonzero" fill="#000000" d="M64.89164,150.7375c1.83789,0 5.6717,1.60502 5.6717,3.58664v3.62251v3.44317v11.43241c0.06653,0 0.13306,0 0.20791,0c0.8649,0 1.82126,0.07173 2.92733,0.30486c0.04158,0.00897 0.23286,0.0538 0.23286,0.0538c4.22466,0.98633 7.90045,4.04394 9.85478,8.19547c1.05617,2.25062 1.52187,6.37525 -0.14137,8.43757c-1.83789,2.26855 -4.549,2.55548 -7.17694,2.55548c-0.8649,0 -1.72147,-0.0269 -2.52814,-0.0269h-3.36809h-2.26203h-2.4034h-0.82331v-0.08967c-1.87116,-0.36763 -4.16645,-1.87402 -4.16645,-3.67631v-30.62094v0v-3.62251c0.01663,-1.99059 2.13728,-3.59561 3.97518,-3.59561M64.89164,147.69783c-3.20176,0 -6.77776,2.71688 -6.77776,6.62632v3.62251v30.62094c0,3.23694 2.86079,5.65792 5.77149,6.49182c0.36592,0.19727 0.77341,0.30486 1.20586,0.30486h0.82331h2.4034h2.25371h3.36809c0.38255,0 0.78173,0.00897 1.18091,0.01793c0.44908,0.00897 0.89816,0.01793 1.34724,0.01793c3.16018,0 6.7445,-0.4304 9.3059,-3.59561c2.66121,-3.28178 1.91275,-8.87693 0.53225,-11.80901c-2.33687,-4.95853 -6.73618,-8.6169 -11.76752,-9.79153l-0.18296,-0.04483c-0.33265,-0.07173 -0.64867,-0.12553 -0.96469,-0.17933v-8.59897v-3.44317v-3.62251c-0.00832,-4.6447 -6.08751,-6.61735 -8.49923,-6.61735z"></path></g>
               </svg>