<svg viewBox="0 0 110 201" xml:space="preserve" xmlns:xlink="http://www.w3.org/1999/xlink" xmlns="http://www.w3.org/2000/svg">
                    <g style="mix-blend-mode: normal" text-anchor="none" font-size="none" font-weight="none" font-family="none" stroke-dashoffset="0" stroke-dasharray="" stroke-miterlimit="10" stroke-linejoin="miter" stroke-linecap="butt" stroke-width="1" stroke="none" fill-rule="none" fill="none" data-paper-data="{&quot;selected&quot;:false}"><path fill-rule="nonzero" fill="#ffffff" data-paper-data="{&quot;guideItem&quot;:null,&quot;selected&quot;:false}" d="M70.55342,131.06959v30.13736c0,0 -2.06239,0.55843 -4.81501,0.55843c-2.74431,0 -4.81501,-0.55843 -4.81501,-0.55843v-30.13736c0,-1.98154 4.45742,-3.6118 6.32022,-3.6118c1.82954,0 3.3098,1.63026 3.3098,3.6118z"></path><path fill-rule="evenodd" fill="#009ff9" data-paper-data="{&quot;guideItem&quot;:null,&quot;selected&quot;:false}" d="M83.63461,189.76808c-2.44493,3.02635 -6.4117,2.52195 -9.69655,2.52195h-8.85662v-0.07206c-1.85449,-0.37829 -4.15804,-1.88246 -4.15804,-3.68385v-27.30916c0,0 2.06239,0.55843 4.81501,0.55843c2.74431,0 4.81501,-0.55843 4.81501,-0.55843v11.49291c0.93972,-0.02702 1.94596,0.05404 3.14348,0.30624c0.02495,0 0.23285,0.05404 0.23285,0.05404c4.22457,0.99077 7.89196,4.07116 9.83792,8.24139c1.08941,2.24274 1.53016,6.35893 -0.13306,8.44855z"></path><path fill-rule="nonzero" fill="#000000" d="M67.2353,127.4758c1.83785,0 3.32643,1.61225 3.32643,3.60279v26.67868v3.45868v11.4839c0.06653,0 0.13306,0 0.2079,0c0.86487,0 1.82122,0.07206 2.92726,0.30624c0.04158,0.00901 0.23285,0.05404 0.23285,0.05404c4.22457,0.99077 7.90028,4.06215 9.85455,8.23238c1.05614,2.26075 1.52184,6.40396 -0.14137,8.47557c-1.83785,2.27877 -4.5489,2.56699 -7.17678,2.56699c-0.86487,0 -1.72143,-0.02702 -2.52809,-0.02702h-3.36801h-2.26197h-2.40335h-0.82329v-0.09007c-1.87112,-0.36929 -4.16636,-1.88246 -4.16636,-3.69286v-30.75884v0v-26.67868c0.01663,-2.00856 4.48237,-3.6118 6.32022,-3.6118M67.2353,124.42244c-1.92933,0 -9.12274,1.66629 -9.12274,6.65616v26.67868v30.75884c0,3.25152 2.86073,5.6834 5.77136,6.52105c0.36591,0.19815 0.7734,0.30624 1.20583,0.30624h0.82329h2.40335h2.25366h3.36801c0.38254,0 0.78171,0.00901 1.18088,0.01801c0.44907,0.00901 0.89814,0.01801 1.3472,0.01801c3.16011,0 6.74434,-0.43234 9.30569,-3.6118c2.66115,-3.29655 1.9127,-8.91691 0.53223,-11.86219c-2.33682,-4.98086 -6.73602,-8.65571 -11.76725,-9.83562l-0.18295,-0.04503c-0.33264,-0.07206 -0.64865,-0.1261 -0.96467,-0.18014v-8.63769v-3.45868v-26.67868c-0.00832,-3.66584 -2.76925,-6.64715 -6.1539,-6.64715z"></path></g><g style="mix-blend-mode: normal" text-anchor="none" font-size="none" font-weight="none" font-family="none" stroke-dashoffset="0" stroke-dasharray="" stroke-miterlimit="10" stroke-linejoin="miter" stroke-linecap="butt" stroke-width="1" stroke="none" fill-rule="none" fill="none" data-paper-data="{&quot;selected&quot;:false}"><path fill-rule="nonzero" fill="#ffffff" data-paper-data="{&quot;guideItem&quot;:null,&quot;selected&quot;:false}" d="M48.88171,135.67216v30.13736c-0.23285,0.07206 -2.22871,0.55843 -4.81501,0.55843c-2.74431,0 -4.81501,-0.55843 -4.81501,-0.55843v-30.13736c0,-1.98154 1.50521,-3.6118 3.33475,-3.6118c1.82954,0 6.29527,1.63026 6.29527,3.6118z"></path><path fill-rule="evenodd" fill="#009ff9" data-paper-data="{&quot;guideItem&quot;:null,&quot;selected&quot;:false}" d="M48.90666,165.80951v27.30916c0,1.8014 -2.30355,3.30556 -4.18299,3.68385v0.07206h-8.83168c-3.28485,0 -7.27657,0.50439 -9.7215,-2.52195c-1.66322,-2.08962 -1.19752,-6.20581 -0.14137,-8.46656c1.94596,-4.17023 5.6383,-7.25062 9.86287,-8.24139c0,0 0.19127,-0.05404 0.23285,-0.05404c1.19752,-0.2522 2.20376,-0.33326 3.12685,-0.30624v-11.49291c0,0 2.06239,0.55843 4.81501,0.55843c2.5863,0 4.58216,-0.48638 4.81501,-0.55843c0.02495,0.01801 0.02495,0.01801 0.02495,0.01801z"></path><path fill-rule="nonzero" fill="#000000" d="M42.58644,132.07837c1.83785,0 6.30359,1.61225 6.30359,3.60279v26.67868v0v30.75884c0,1.8104 -2.29524,3.32358 -4.16636,3.69286v0.09007h-0.82329h-2.40335h-2.25366h-3.36801c-0.81498,0 -1.67153,0.02702 -2.52809,0.02702c-2.62788,0 -5.33892,-0.27922 -7.17678,-2.56699c-1.67153,-2.07161 -1.20583,-6.21482 -0.14137,-8.47557c1.95428,-4.17023 5.62999,-7.24161 9.85455,-8.23238c0,0 0.19127,-0.04503 0.23285,-0.05404c1.11435,-0.23418 2.06239,-0.30624 2.92726,-0.30624c0.06653,0 0.14137,0 0.2079,0v-11.4839v-3.45868v-26.67868c0.00832,-1.98154 1.49689,-3.59379 3.33475,-3.59379M42.58644,129.025c-3.38464,0 -6.14558,2.98131 -6.14558,6.65616v26.67868v3.45868v8.63769c-0.28275,0.04503 -0.56549,0.09908 -0.85656,0.16213l-0.32433,0.08106c-4.99796,1.17091 -9.39717,4.84576 -11.73399,9.82662c-1.38047,2.93628 -2.12892,8.56564 0.53223,11.86219c2.56135,3.17946 6.13727,3.6118 9.30569,3.6118c0.45738,0 0.90645,-0.00901 1.3472,-0.01801c0.39917,-0.00901 0.79834,-0.01801 1.18088,-0.01801h3.36801h2.25366h2.40335h0.82329c0.45738,0 0.88982,-0.11709 1.28068,-0.33326c2.894,-0.85566 5.70483,-3.27854 5.70483,-6.50304v-30.75884v-26.67868c-0.01663,-4.99887 -7.21004,-6.66517 -9.13937,-6.66517z"></path></g><g style="mix-blend-mode: normal" text-anchor="none" font-size="none" font-weight="none" font-family="none" stroke-dashoffset="0" stroke-dasharray="" stroke-miterlimit="10" stroke-linejoin="miter" stroke-linecap="butt" stroke-width="1" stroke="none" fill-rule="nonzero" fill="none" data-paper-data="{&quot;selected&quot;:false}"><path fill="#ffffff" data-paper-data="{&quot;guideItem&quot;:null,&quot;selected&quot;:false}" d="M103.25224,101.97704c-1.87943,2.0626 -5.61335,4.50349 -9.11442,4.29633c-0.0499,-0.09908 -0.09148,-0.22517 -0.14137,-0.36028c-0.28275,-0.81063 -0.56549,-1.63026 -0.88982,-2.41387c-0.2578,-0.6395 -0.5156,-1.26998 -0.82329,-1.88246c-0.0499,-0.09908 -0.06653,-0.20716 -0.11643,-0.27922c-0.33264,-0.65751 -0.65697,-1.32403 -1.00625,-1.98154c-1.26404,-2.31479 -11.90863,-15.18577 -5.33061,-16.60887c0.16632,-0.02702 0.33264,-0.05404 0.49065,-0.05404c1.62164,0 3.38464,1.63026 4.58216,2.53997c3.85034,2.95429 6.8774,6.458 9.2059,10.37604c0.34928,0.53141 0.65697,1.08984 0.96467,1.65728c0.83992,1.53119 1.54679,3.10741 2.17881,4.71065z"></path><path fill="#0088c5" data-paper-data="{&quot;guideItem&quot;:null,&quot;selected&quot;:false}" d="M105.08178,130.59222c-0.65697,0.96375 -1.85449,1.6753 -3.07695,2.10763c-0.56549,0.20716 -1.13099,0.33326 -1.64658,0.40531c-0.28275,0.02702 -0.56549,0.05404 -0.82329,0.05404c-0.86487,0 -1.54679,-0.18014 -2.11228,-0.53141c-0.28275,-0.18014 -0.5156,-0.37829 -0.73182,-0.61247c-0.34928,-0.36028 -0.59044,-0.76559 -0.7734,-1.24296c-0.0499,-0.15312 -0.11643,-0.30624 -0.16632,-0.48638c-0.4657,-1.4231 -0.49065,-3.15244 -0.37422,-4.72866c0.34928,-4.93583 0.98961,-9.15109 -0.09148,-14.04188c-0.06653,-0.30624 -0.30769,-1.82842 -0.59044,-3.30556c-0.09148,-0.33326 -0.19127,-0.65751 -0.28275,-0.96375c-0.09148,-0.33326 -0.19127,-0.65751 -0.28275,-0.96375c3.50107,0.20716 7.23499,-2.23373 9.11442,-4.29633l0.09148,0.05404c0.37422,0.53141 1.40542,4.25129 1.76301,5.52128c0.06653,0.20716 0.09148,0.36028 0.11643,0.40531c0.63202,2.41387 1.08109,4.88178 1.38879,7.37672c0.57381,4.79171 1.46363,10.87143 -1.52184,15.24882z"></path><path fill="#0088c5" data-paper-data="{&quot;guideItem&quot;:null,&quot;selected&quot;:false}" d="M94.42056,107.24613c-0.09148,-0.33326 -0.2079,-0.65751 -0.30769,-0.96375h0.02495c0.09979,0.29723 0.19127,0.63049 0.28275,0.96375z"></path><path fill="#000000" data-paper-data="{&quot;guideItem&quot;:null,&quot;selected&quot;:false}" d="M101.07343,97.2754c0.82329,1.52218 1.53016,3.0984 2.16218,4.70164c0.02495,0 0.02495,0 0.02495,0c-0.64034,-1.60324 -1.3472,-3.17946 -2.18713,-4.70164z"></path><path fill="#000000" d="M109.47267,115.47851l-0.06653,-0.53141c-0.33264,-2.69309 -0.82329,-5.31412 -1.48026,-7.80905c-0.88982,-3.4857 -1.48026,-5.71943 -2.34513,-6.98942c-2.88568,-7.0975 -7.27657,-12.94303 -13.05624,-17.39248l-0.4657,-0.37829c-1.43037,-1.14389 -3.40128,-2.72011 -5.72978,-2.72011c-0.34928,0 -0.70687,0.05404 -1.03119,0.09908c-2.67778,0.58545 -3.68402,2.41387 -4.05825,3.45868c-1.48026,4.25129 2.11228,9.94371 6.27032,15.8703c0.5156,0.73857 1.08109,1.57622 1.22246,1.82842c1.33889,2.41387 2.41998,5.13398 3.24327,8.06125c0.16632,0.83765 0.30769,1.65728 0.39917,2.26075c0.09148,0.48638 0.16632,0.83765 0.19127,0.99077c0.79834,3.58478 0.54055,6.84531 0.23285,10.62824c-0.06653,0.81063 -0.14137,1.63026 -0.19127,2.46791c-0.28275,3.96307 0.37422,6.81828 1.97091,8.70074c0.84824,0.99077 2.41998,2.1887 4.98133,2.1887c0.34928,0 0.74845,-0.02702 1.14762,-0.07206c0.70687,-0.07206 1.45531,-0.27922 2.18713,-0.53141c1.13099,-0.37829 3.19337,-1.32403 4.45742,-3.17946c3.53433,-5.22405 2.71104,-11.98829 2.1206,-16.95114zM105.08178,130.59222c-0.65697,0.96375 -1.85449,1.6753 -3.07695,2.10763c-0.56549,0.20716 -1.13099,0.33326 -1.64658,0.40531c-0.28275,0.02702 -0.56549,0.05404 -0.82329,0.05404c-0.86487,0 -1.54679,-0.18014 -2.11228,-0.53141c-0.28275,-0.15312 -0.54055,-0.37829 -0.73182,-0.61247c-0.34928,-0.36028 -0.59044,-0.76559 -0.7734,-1.24296c-0.06653,-0.15312 -0.14137,-0.30624 -0.16632,-0.48638c-0.4657,-1.4231 -0.49065,-3.15244 -0.37422,-4.72866c0.34928,-4.93583 0.98961,-9.15109 -0.09148,-14.04188c-0.06653,-0.30624 -0.30769,-1.82842 -0.59044,-3.30556c-0.19127,-0.65751 -0.37422,-1.29701 -0.59044,-1.9365c-0.0499,-0.1261 -0.68192,-1.98154 -1.00625,-2.77415c-0.2578,-0.6395 -0.5156,-1.26998 -0.82329,-1.88246c-0.0499,-0.09908 -0.06653,-0.20716 -0.11643,-0.27922c-0.33264,-0.68453 -0.65697,-1.32403 -1.00625,-1.98154c-1.26404,-2.31479 -11.90863,-15.18577 -5.33061,-16.60887c0.16632,-0.02702 0.33264,-0.05404 0.49065,-0.05404c1.62164,0 3.38464,1.63026 4.58216,2.53997c3.85034,2.95429 6.8774,6.458 9.2059,10.37604c0.34928,0.53141 0.68192,1.08984 0.96467,1.65728c0.84824,1.52218 1.54679,3.0984 2.18713,4.70164l0.09148,0.05404c0.23285,0.27922 0.63202,1.47714 1.00625,2.74713c0.33264,1.07183 0.60707,2.1887 0.74845,2.77415c0.06653,0.20716 0.09148,0.36028 0.11643,0.40531c0.63202,2.41387 1.08109,4.88178 1.38879,7.37672c0.57381,4.80973 1.46363,10.88944 -1.52184,15.26683z"></path></g><g style="mix-blend-mode: normal" text-anchor="none" font-size="none" font-weight="none" font-family="none" stroke-dashoffset="0" stroke-dasharray="" stroke-miterlimit="10" stroke-linejoin="miter" stroke-linecap="butt" stroke-width="1" stroke="none" fill-rule="nonzero" fill="none" data-paper-data="{&quot;selected&quot;:false}"><path fill="#000000" d="M21.88771,89.59244c0.11643,0 0.23285,0.00901 0.34928,0.02702c6.64455,1.04481 -3.35138,14.50124 -4.499,16.88809c-0.96467,1.99955 -1.74638,4.08016 -2.3784,6.20581c-0.04158,0.1261 -0.06653,0.2522 -0.09979,0.3873c-0.24117,0.85566 -0.4657,1.71133 -0.65697,2.585c-0.07484,0.35127 -0.14969,0.69354 -0.21622,1.04481c-0.09979,0.48638 -0.18295,0.97275 -0.26611,1.45913c-0.75676,4.76469 -0.64865,9.52939 0.34928,14.52826c0.74013,3.71988 0.90645,8.04323 -3.74224,8.04323c-0.17464,0 -0.34928,-0.00901 -0.54055,-0.01801c-0.5156,-0.03603 -1.08109,-0.1351 -1.64658,-0.30624c-1.2391,-0.36028 -2.47819,-1.01779 -3.17674,-1.92749c-3.20169,-4.20626 -2.61957,-10.33101 -2.27861,-15.14974c0.17464,-2.50394 0.50728,-4.98987 1.02288,-7.43977c0.11643,-0.54943 1.26404,-6.09773 1.67153,-6.09773v0c0.01663,0 0.04158,0.00901 0.06653,0.00901c2.17881,-6.5841 5.83789,-12.58275 11.45124,-17.42851c1.17257,-1.01779 2.91063,-2.81018 4.59048,-2.81018M21.88771,86.53908c-2.46156,0 -4.51563,1.83742 -5.87115,3.05337l-0.4657,0.41432c-5.49693,4.74668 -9.56349,10.79937 -12.08326,17.99595c-0.8815,1.31502 -1.37215,3.68385 -2.10397,7.24161c-0.52391,2.51295 -0.88982,5.17001 -1.08109,7.8721l-0.04158,0.54943c-0.35759,4.97185 -0.85656,11.78113 2.95221,16.78c1.35552,1.78338 3.47612,2.60302 4.61542,2.93628c0.74013,0.21617 1.50521,0.35127 2.21208,0.39631c0.24948,0.01801 0.48233,0.02702 0.70687,0.02702c2.98547,0 4.63206,-1.36005 5.4803,-2.50394c2.02081,-2.70209 1.54679,-6.56609 1.01456,-9.23215c-0.91477,-4.59356 -1.02288,-8.97095 -0.32433,-13.36636c0.07484,-0.42333 0.14969,-0.87368 0.24117,-1.32403c0.06653,-0.33326 0.13306,-0.65751 0.19959,-0.98176c0.17464,-0.80162 0.38254,-1.60324 0.60707,-2.39586l0.07484,-0.27021c0.61539,-2.08962 1.35552,-4.01711 2.21208,-5.8095c0.13306,-0.27021 0.6736,-1.13488 1.14762,-1.90047c3.85034,-6.16978 7.16846,-12.04233 5.47198,-16.20356c-0.4158,-1.01779 -1.51353,-2.79216 -4.21625,-3.21549c-0.24948,-0.04503 -0.49896,-0.06305 -0.74845,-0.06305z"></path><path fill="#ffffff" data-paper-data="{&quot;guideItem&quot;:null,&quot;selected&quot;:false}" d="M17.73798,106.50755c-0.96467,1.98154 -1.73806,4.01711 -2.34513,6.12475c-3.45117,-1.82842 -6.95224,-2.59401 -9.55518,-2.81918c2.18713,-6.5841 5.87115,-12.56474 11.48451,-17.4195c1.24741,-1.07183 3.14348,-3.05337 4.93144,-2.77415c6.61128,1.04481 -3.36801,14.49223 -4.51563,16.88809z"></path><path fill="#0088c5" data-paper-data="{&quot;guideItem&quot;:null,&quot;selected&quot;:false}" d="M14.46976,132.69985c0.7734,3.86399 0.91477,8.36748 -4.27446,8.03423c-0.5156,-0.02702 -1.08109,-0.1261 -1.66322,-0.30624c-1.22246,-0.36028 -2.46156,-1.01779 -3.16843,-1.9365c-3.19337,-4.19725 -2.60293,-10.322 -2.27861,-15.15875c0.19127,-2.49493 0.5156,-4.98086 1.03119,-7.42175c0.11643,-0.55843 1.26404,-6.10673 1.66322,-6.10673c0.02495,0 0.02495,0 0.0499,0c2.60293,0.22517 6.104,0.99077 9.55518,2.81918c-0.49065,1.63026 -0.86487,3.25152 -1.14762,4.85476c-0.88982,5.0259 -0.82329,9.97973 0.23285,15.2218z"></path></g><g style="mix-blend-mode: normal" text-anchor="none" font-size="none" font-weight="none" font-family="none" stroke-dashoffset="0" stroke-dasharray="" stroke-miterlimit="10" stroke-linejoin="miter" stroke-linecap="butt" stroke-width="1" stroke="none" fill-rule="nonzero" fill="none" data-paper-data="{&quot;selected&quot;:false}"><path fill="#ffffff" data-paper-data="{&quot;guideItem&quot;:null,&quot;selected&quot;:false}" d="M37.24752,3.64784c1.24741,0.39631 2.50314,0.98176 3.78382,1.75636c1.05614,0.63049 2.04576,1.44112 2.97716,2.27877c2.98547,2.68408 6.8275,11.14163 2.71936,14.52826c-2.96884,2.4499 -5.71315,-3.66584 -7.38468,-5.43121c-3.73392,-3.96307 -9.07284,0.39631 -11.96684,3.66584c-2.3285,2.64805 -6.17885,2.74713 -8.61546,0.21617c-2.43661,-2.53096 -2.54472,-6.71921 -0.24117,-9.38527c2.86073,-3.30556 6.37012,-6.12475 10.41173,-7.45778c3.01042,-0.98176 5.66325,-1.00878 8.31608,-0.17113z"></path><path fill="#673101" data-paper-data="{&quot;guideItem&quot;:null,&quot;selected&quot;:false}" d="M28.28277,16.06846c-0.47402,-0.14411 -0.94803,-0.06305 -1.38879,0.09007c0.53223,-0.34227 0.94803,-0.9007 1.11435,-1.61225c0.34096,-1.4231 -0.44907,-2.87323 -1.74638,-3.25152c-0.60707,-0.17113 -1.21415,-0.05404 -1.72974,0.23418c0.45738,-0.35127 0.82329,-0.84666 0.97298,-1.47714c0.34096,-1.4231 -0.44075,-2.88223 -1.74638,-3.25152c-0.11643,-0.03603 -0.23285,-0.01801 -0.35759,-0.02702c-2.66115,2.02657 -4.46573,4.03513 -4.87322,4.50349c-2.30355,2.66607 -2.18713,6.85431 0.24948,9.38527c2.4283,2.53096 6.28696,2.43188 8.61546,-0.21617c0.68192,-0.7746 1.61332,-1.64828 2.61957,-2.4499c-0.22453,-0.90971 -0.83992,-1.68431 -1.72974,-1.92749"></path><path fill="#000000" d="M33.45537,3.05338c1.28899,0 2.54472,0.20716 3.79213,0.59446c1.24741,0.39631 2.50314,0.98176 3.78382,1.75636c1.05614,0.63049 2.04576,1.44112 2.97716,2.27877c2.98547,2.68408 6.8275,11.14163 2.71936,14.52826c-0.48233,0.39631 -0.96467,0.56744 -1.43037,0.56744c-2.40335,0 -4.55721,-4.5215 -5.95431,-5.99865c-1.05614,-1.12587 -2.24534,-1.57622 -3.46781,-1.57622c-2.00418,0 -4.10814,1.21594 -5.90442,2.72011c0.00832,0.02702 0.02495,0.05404 0.03326,0.08106c-0.99793,0.79261 -1.92101,1.65728 -2.60293,2.43188c-0.00832,0.00901 -0.00832,0.00901 -0.01663,0.01801c-1.19752,1.36906 -2.80252,2.05359 -4.40752,2.05359c-1.51353,0 -3.02705,-0.61247 -4.20794,-1.83742c-1.52184,-1.58523 -2.13723,-3.80995 -1.82122,-5.90858c0.19127,-1.26098 0.71518,-2.47692 1.58006,-3.47669c0.19959,-0.22517 0.74013,-0.82864 1.55511,-1.63026c2.55304,-2.576 5.50524,-4.72866 8.85662,-5.82752c1.58006,-0.5224 3.06863,-0.7746 4.51563,-0.7746M33.45537,0.00001c-1.73806,0 -3.47612,0.29723 -5.33892,0.90971c-3.45117,1.13488 -6.80255,3.32358 -9.96266,6.52105c-0.79834,0.78361 -1.38879,1.43211 -1.67153,1.74735c-1.2391,1.43211 -2.02912,3.17946 -2.32019,5.08894c-0.47402,3.16145 0.5156,6.38595 2.65283,8.60167c1.66322,1.72934 3.85034,2.68408 6.1539,2.68408c2.4283,0 4.77343,-1.09885 6.45328,-2.99932c0.59044,-0.66652 1.38879,-1.40509 2.24534,-2.08962c0.19127,-0.15312 0.35759,-0.32425 0.49896,-0.50439c1.42205,-1.09885 2.72767,-1.70232 3.70897,-1.70232c0.57381,0 1.03951,0.21617 1.49689,0.70254c0.24117,0.2522 0.68192,0.9007 1.07277,1.46814c1.56342,2.28777 3.71729,5.4132 6.85245,5.4132c1.10604,0 2.18713,-0.41432 3.13516,-1.19793c1.83785,-1.52218 2.8441,-3.77392 2.90231,-6.52105c0.09148,-4.73767 -2.7942,-10.33101 -5.52188,-12.78091c-1.26404,-1.13488 -2.34513,-1.96352 -3.40959,-2.60302c-1.50521,-0.9007 -2.93558,-1.55821 -4.36594,-2.00856c-1.53847,-0.49538 -3.03537,-0.72957 -4.58216,-0.72957z"></path></g><g style="mix-blend-mode: normal" text-anchor="none" font-size="none" font-weight="none" font-family="none" stroke-dashoffset="0" stroke-dasharray="" stroke-miterlimit="10" stroke-linejoin="miter" stroke-linecap="butt" stroke-width="1" stroke="none" fill-rule="nonzero" fill="none" data-paper-data="{&quot;selected&quot;:false}"><path fill="#ffffff" data-paper-data="{&quot;guideItem&quot;:null,&quot;selected&quot;:false}" d="M73.41415,3.64784c-1.24741,0.39631 -2.50314,0.98176 -3.78382,1.75636c-1.05614,0.63049 -2.04576,1.44112 -2.97716,2.27877c-2.98547,2.68408 -6.8275,11.14163 -2.71936,14.52826c2.96884,2.4499 5.71315,-3.66584 7.38468,-5.43121c3.73392,-3.96307 9.07284,0.39631 11.96684,3.66584c2.3285,2.64805 6.17885,2.74713 8.61546,0.21617c2.43661,-2.53096 2.54472,-6.71921 0.24117,-9.38527c-2.86073,-3.30556 -6.37012,-6.12475 -10.41173,-7.45778c-3.01042,-0.98176 -5.66325,-1.00878 -8.31608,-0.17113z"></path><path fill="#673101" data-paper-data="{&quot;guideItem&quot;:null,&quot;selected&quot;:false}" d="M82.3872,16.06846c0.47402,-0.14411 0.94803,-0.06305 1.38879,0.09007c-0.53223,-0.34227 -0.94803,-0.9007 -1.11435,-1.61225c-0.34096,-1.4231 0.44907,-2.87323 1.74638,-3.25152c0.60707,-0.17113 1.21415,-0.05404 1.72974,0.23418c-0.45738,-0.35127 -0.82329,-0.84666 -0.97298,-1.47714c-0.34096,-1.4231 0.44075,-2.88223 1.74638,-3.25152c0.11643,-0.03603 0.23285,-0.01801 0.35759,-0.02702c2.66115,2.02657 4.46573,4.03513 4.87322,4.50349c2.30355,2.66607 2.18713,6.85431 -0.24948,9.38527c-2.4283,2.53096 -6.28696,2.43188 -8.61546,-0.21617c-0.68192,-0.7746 -1.61332,-1.64828 -2.61957,-2.4499c0.21622,-0.90971 0.83161,-1.68431 1.72974,-1.92749"></path><path fill="#000000" d="M77.20628,3.05338c1.43868,0 2.93558,0.2522 4.51563,0.7746c3.35138,1.09885 6.30359,3.25152 8.85662,5.82752c0.80666,0.79261 1.35552,1.39608 1.55511,1.63026c0.86487,0.99977 1.38879,2.21572 1.58006,3.47669c0.31601,2.09863 -0.29938,4.33236 -1.82122,5.90858c-1.18088,1.22495 -2.69441,1.83742 -4.20794,1.83742c-1.605,0 -3.21001,-0.68453 -4.40752,-2.05359c-0.00832,-0.00901 -0.00832,-0.00901 -0.01663,-0.01801c-0.68192,-0.7746 -1.605,-1.63026 -2.60293,-2.43188c0.00832,-0.02702 0.02495,-0.05404 0.03326,-0.08106c-1.79627,-1.49516 -3.90024,-2.72011 -5.90442,-2.72011c-1.22246,0 -2.41166,0.45936 -3.46781,1.57622c-1.3971,1.47714 -3.54265,5.99865 -5.95431,5.99865c-0.4657,0 -0.94803,-0.17113 -1.43037,-0.56744c-4.10814,-3.38662 -0.26611,-11.84418 2.71936,-14.52826c0.9314,-0.83765 1.92101,-1.64828 2.97716,-2.27877c1.28899,-0.76559 2.5364,-1.36005 3.78382,-1.75636c1.25573,-0.39631 2.50314,-0.59446 3.79213,-0.59446M77.20628,0.00001c-1.54679,0 -3.052,0.23418 -4.58216,0.72056c-1.43037,0.45035 -2.85242,1.10786 -4.36594,2.00856c-1.06446,0.6395 -2.15386,1.46814 -3.41791,2.60302c-2.72767,2.45891 -5.61335,8.04323 -5.52188,12.78091c0.05821,2.74713 1.05614,4.99887 2.894,6.52105c0.94803,0.78361 2.02912,1.19793 3.13516,1.19793c3.14348,0 5.28903,-3.12542 6.85245,-5.4132c0.39086,-0.56744 0.83161,-1.20694 1.07277,-1.46814c0.45738,-0.48638 0.92308,-0.70254 1.49689,-0.70254c0.9813,0 2.27861,0.60347 3.70897,1.70232c0.14137,0.18915 0.30769,0.36028 0.49896,0.50439c0.86487,0.68453 1.6549,1.4231 2.23703,2.08962c1.67985,1.91849 4.0333,3.00833 6.46159,3.00833c2.30355,0 4.49068,-0.95474 6.1539,-2.69309c2.13723,-2.21572 3.12685,-5.44022 2.64451,-8.60167c-0.28275,-1.90047 -1.08109,-3.65683 -2.30355,-5.07093c-0.29938,-0.33326 -0.88982,-0.99077 -1.72143,-1.8014c-3.12685,-3.16145 -6.47823,-5.35015 -9.9294,-6.48503c-1.82954,-0.60347 -3.57591,-0.9007 -5.31397,-0.9007z"></path></g><g style="mix-blend-mode: normal" text-anchor="none" font-size="none" font-weight="none" font-family="none" stroke-dashoffset="0" stroke-dasharray="" stroke-miterlimit="10" stroke-linejoin="miter" stroke-linecap="butt" stroke-width="1" stroke="none" fill-rule="none" fill="none" data-paper-data="{&quot;selected&quot;:false}"><g><g><path fill-rule="evenodd" fill="#009ff9" data-paper-data="{&quot;guideItem&quot;:null,&quot;selected&quot;:false}" d="M95.08585,115.15425c0.37422,7.60189 -1.36384,18.77055 -6.03747,25.30061c-5.52188,7.72799 -15.59265,12.76289 -27.60938,13.8077c-1.43037,0.1261 -3.0021,0.20716 -4.50732,0.20716h-3.19337c-1.50521,0 -3.07695,-0.07206 -4.50732,-0.20716c-12.02505,-1.04481 -22.09582,-6.07971 -27.60938,-13.8077c-4.67364,-6.53907 -6.4117,-17.69872 -6.03747,-25.30061c0.2079,-4.25129 1.08109,-8.54762 1.90438,-12.71786c0.44907,-2.13465 0.86487,-4.25129 1.22246,-6.38595c0.37422,-2.38685 0.14137,-6.81828 0.11643,-7.04346c-0.28275,-3.30556 -1.17257,-6.41297 -2.04576,-9.00698c-3.38464,-10.22292 -3.94182,-19.78834 -1.80459,-30.08331c1.94596,-9.30421 6.03747,-17.19433 11.17681,-21.67079c8.63209,-7.44877 18.61139,-11.69106 27.48464,-11.66404l1.68816,-0.02702l1.69648,0.02702h0.06653c8.83168,0 18.81097,4.25129 27.42643,11.67305c5.13934,4.47647 9.23085,12.35758 11.17681,21.67079c2.13723,10.30399 1.57174,19.86039 -1.80459,30.08331c-0.84824,2.59401 -1.76301,5.69241 -2.04576,9.05202c-0.02495,0.09908 -0.09148,1.50417 -0.09148,3.12542c0,1.32403 0.0499,2.80117 0.23285,3.86399c0.33264,2.13465 0.7734,4.25129 1.19752,6.38595c0.83992,4.17023 1.68816,8.46656 1.90438,12.71786z"></path><path fill-rule="nonzero" fill="#000000" d="M95.92577,101.7969c-0.42412,-2.10763 -0.84824,-4.19725 -1.17257,-6.27787c-0.28275,-1.6753 -0.16632,-5.08894 -0.11643,-6.23283c0.2578,-2.9723 1.10604,-5.84553 1.90438,-8.24139c3.52602,-10.65526 4.13309,-21.05832 1.90438,-31.78563c-2.08734,-9.97073 -6.52812,-18.49133 -12.16642,-23.37311c-9.11442,-7.85409 -19.72574,-12.35758 -29.18944,-12.35758h-0.06653l-1.68816,-0.02702l-1.68816,0.02702h-0.06653c-9.4637,0 -20.07502,4.50349 -29.16449,12.35758c-5.65493,4.88178 -10.09572,13.40239 -12.18306,23.37311c-2.22871,10.73632 -1.62164,21.13038 1.90438,31.78563c0.79834,2.41387 1.64658,5.26008 1.90438,8.18735c0.0499,1.19793 0.16632,4.60257 -0.11643,6.27787c-0.33264,2.08962 -0.74845,4.17023 -1.17257,6.27787c-0.86487,4.26931 -1.76301,8.70074 -1.97091,13.19523c-0.39917,8.42153 1.48026,20.13961 6.6196,27.30916c6.01253,8.42153 16.81511,13.86174 29.60524,15.00563c1.53016,0.1261 3.16843,0.20716 4.74017,0.20716h3.19337c1.59669,0 3.21832,-0.07206 4.74017,-0.20716c12.79845,-1.14389 23.60103,-6.5841 29.60524,-15.00563c5.13934,-7.16956 7.01877,-18.89664 6.6196,-27.30916c-0.21622,-4.48548 -1.10604,-8.9079 -1.97923,-13.18622zM56.92336,154.46972h-3.19337c-1.50521,0 -3.07695,-0.07206 -4.50732,-0.20716c-12.02505,-1.04481 -22.09582,-6.07971 -27.60938,-13.8077c-4.67364,-6.53907 -6.4117,-17.69872 -6.03747,-25.30061c0.2079,-4.25129 1.08109,-8.54762 1.90438,-12.71786c0.44907,-2.13465 0.86487,-4.25129 1.22246,-6.38595c0.37422,-2.38685 0.14137,-6.81828 0.11643,-7.04346c-0.28275,-3.30556 -1.17257,-6.41297 -2.04576,-9.00698c-3.38464,-10.22292 -3.94182,-19.78834 -1.80459,-30.08331c1.94596,-9.30421 6.03747,-17.19433 11.17681,-21.67079c8.64041,-7.44877 18.6197,-11.69106 27.49296,-11.66404l1.68816,-0.02702l1.69648,0.02702h0.06653c8.83168,0 18.81097,4.25129 27.42643,11.67305c5.13934,4.47647 9.23085,12.35758 11.17681,21.67079c2.13723,10.30399 1.57174,19.86039 -1.80459,30.08331c-0.84824,2.59401 -1.76301,5.69241 -2.04576,9.05202c-0.02495,0.09908 -0.09148,1.50417 -0.09148,3.12542c0,1.32403 0.0499,2.80117 0.23285,3.86399c0.33264,2.13465 0.7734,4.25129 1.19752,6.38595c0.84824,4.17023 1.68816,8.46656 1.90438,12.71786c0.37422,7.60189 -1.36384,18.77055 -6.03747,25.30061c-5.52188,7.72799 -15.59265,12.76289 -27.60938,13.8077c-1.43868,0.1261 -3.01042,0.20716 -4.51563,0.20716z"></path></g><path fill-rule="evenodd" fill="#ffffff" data-paper-data="{&quot;guideItem&quot;:null,&quot;selected&quot;:false}" d="M60.39948,21.81492c3.79213,0.54042 7.50942,1.63927 10.89406,3.19748c5.52188,2.53997 11.96684,6.62914 14.94399,12.36658c1.31394,2.53997 2.21208,5.31412 2.72767,8.16032c0.39086,2.15267 -0.09979,5.17901 1.09772,7.02544c2.41998,3.75591 2.97716,5.86354 3.64244,10.54717c0.62371,4.40441 0.27443,9.10606 -1.447,13.18622c-4.47405,10.61923 -15.31822,15.10471 -25.23099,15.44697c-1.37215,0.04503 -2.76925,0.09007 -4.15804,0.1351c-6.44496,0.21617 -12.79013,0.09007 -19.23509,-0.1351c-9.92108,-0.34227 -20.75693,-4.81873 -25.23099,-15.44697c-1.72143,-4.08016 -2.0707,-8.78181 -1.447,-13.18622c0.66529,-4.67462 1.22246,-6.79126 3.64244,-10.54717c1.19752,-1.84643 0.70687,-4.87278 1.09772,-7.02544c0.5156,-2.85521 1.40542,-5.62936 2.72767,-8.16032c2.97716,-5.73745 7.92522,-9.81761 13.45542,-12.36658c2.23703,-1.0268 4.56553,-1.81941 6.93561,-2.41387c4.64037,-1.1619 10.8608,-1.45012 15.58433,-0.78361z"></path></g><g fill-rule="evenodd" fill="#fdbdb8"><path data-paper-data="{&quot;guideItem&quot;:null,&quot;selected&quot;:false}" d="M40.3411,64.7602c0,6.25985 -4.64869,11.33078 -10.38678,11.33078c-5.73809,0 -10.37847,-5.07093 -10.37847,-11.33078c0,-6.25084 4.64869,-11.32177 10.37847,-11.32177c5.72978,0 10.38678,5.07093 10.38678,11.32177"></path><path data-paper-data="{&quot;guideItem&quot;:null,&quot;selected&quot;:false}" d="M91.08582,64.7602c0,6.25985 -4.64869,11.33078 -10.38678,11.33078c-5.72978,0 -10.37847,-5.07093 -10.37847,-11.33078c0,-6.25084 4.64869,-11.32177 10.37847,-11.32177c5.73809,0 10.38678,5.07093 10.38678,11.32177"></path></g></g><g style="mix-blend-mode: normal" text-anchor="none" font-size="none" font-weight="none" font-family="none" stroke-dashoffset="0" stroke-dasharray="" stroke-miterlimit="10" stroke-linejoin="miter" stroke-linecap="butt" stroke-width="1" stroke="none" fill-rule="none" fill="none" data-paper-data="{&quot;selected&quot;:false}"><path fill-rule="evenodd" fill="#000000" data-paper-data="{&quot;guideItem&quot;:null,&quot;selected&quot;:false}" d="M57.12295,61.12138c0,0.81964 -0.79834,1.47714 -1.78796,1.47714c-0.98961,0 -1.79627,-0.65751 -1.79627,-1.47714c0,-0.81063 0.79834,-1.47714 1.79627,-1.47714c0.99793,0 1.78796,0.66652 1.78796,1.47714"></path><g fill-rule="evenodd" fill="#000000"><path data-paper-data="{&quot;guideItem&quot;:null,&quot;selected&quot;:false}" d="M65.6303,59.36502v0c-1.33889,0 -2.4283,-1.09885 -2.4283,-2.4499v-0.34227c0,-1.35105 1.08941,-2.4499 2.4283,-2.4499c1.33889,0 2.43661,1.09885 2.43661,2.4499v0.34227c-0.00832,1.35105 -1.09772,2.4499 -2.43661,2.4499"></path><path data-paper-data="{&quot;guideItem&quot;:null,&quot;selected&quot;:false}" d="M45.03137,59.36502v0c-1.33889,0 -2.4283,-1.09885 -2.4283,-2.4499v-0.34227c0,-1.35105 1.08941,-2.4499 2.4283,-2.4499c1.33889,0 2.43661,1.09885 2.43661,2.4499v0.34227c0,1.35105 -1.08941,2.4499 -2.43661,2.4499"></path></g><path fill-rule="nonzero" fill="#231815" d="M61.5471,70.50665c-2.27029,0 -4.52395,-0.72957 -6.21211,-1.92749c-3.12685,2.22472 -8.17471,2.82819 -11.66746,0.19815c-1.02288,-0.76559 -2.27029,-1.97253 -2.39503,-3.3596c-0.06653,-0.67552 0.14137,-1.31502 0.57381,-1.8104c0.53223,-0.61247 1.43037,-0.63049 1.98754,-0.05404c0.42412,0.44134 0.54055,1.09885 0.34096,1.65728c0.19127,0.2612 0.58213,0.66652 1.09772,1.05382c2.66946,2.00856 7.02709,1.26098 9.13937,-0.74758c0.53223,-0.50439 1.32226,-0.50439 1.85449,0c2.11228,2.00856 6.46991,2.75614 9.13937,0.74758c0.5156,-0.3873 0.90645,-0.79261 1.09772,-1.05382c-0.19959,-0.55843 -0.08316,-1.21594 0.34096,-1.65728c0.56549,-0.57645 1.45531,-0.55843 1.98754,0.05404c0.43244,0.49538 0.64034,1.13488 0.57381,1.8104c-0.13306,1.38707 -1.38047,2.59401 -2.39503,3.3596c-1.61332,1.20694 -3.54265,1.72934 -5.46366,1.72934zM66.78623,65.72395h0.02495z"></path></g>
               </svg>