<svg viewBox="0 0 111 200" xml:space="preserve" xmlns:xlink="http://www.w3.org/1999/xlink" xmlns="http://www.w3.org/2000/svg">
                    <g style="mix-blend-mode: normal" text-anchor="none" font-size="none" font-weight="none" font-family="none" stroke-dashoffset="0" stroke-dasharray="" stroke-miterlimit="10" stroke-linejoin="miter" stroke-linecap="butt" stroke-width="1" stroke="none" fill-rule="none" fill="none" data-paper-data="{&quot;selected&quot;:false}"><path fill-rule="evenodd" fill="#009ff9" data-paper-data="{&quot;guideItem&quot;:null,&quot;selected&quot;:false}" d="M58.93503,154.96265v28.67307c0,1.8143 2.30788,3.29064 4.21145,3.64639v0.09783h8.94513c3.32705,0 7.37004,0.50694 9.84638,-2.508c1.68458,-2.03664 1.2129,-6.12771 0.14319,-8.36891c-1.97938,-4.11775 -5.71073,-7.15048 -9.98957,-8.12878c0,0 -0.19373,-0.02668 -0.23584,-0.05336c-1.2129,-0.24902 -2.24049,-0.30238 -3.16701,-0.30238v-13.05585c0,0 0,0 -0.00842,-0.00889v0.31128c0,0 -2.08888,0.55141 -4.86844,0.55141c-2.77114,0 -4.86002,-0.55141 -4.86002,-0.55141v-0.31128c-0.00842,0 -0.01685,0.00889 -0.01685,0.00889z"></path><path fill-rule="nonzero" fill="#000000" d="M56.07966,149.67983v33.96478c0,3.21949 2.88906,5.62078 5.8455,6.44788c0.37061,0.18677 0.78333,0.30238 1.22132,0.30238h8.95355c0.38745,0 0.79175,0.00889 1.19605,0.01779c0.44641,0 0.90967,0.00889 1.36451,0.00889c3.20913,0 6.83098,-0.418 9.42523,-3.55745c2.69533,-3.26396 1.93727,-8.81359 0.53907,-11.71291c-2.36684,-4.91818 -6.82255,-8.54678 -11.91841,-9.71185l-0.1853,-0.04447c-0.33692,-0.07115 -0.66541,-0.1334 -0.97706,-0.17787v-15.53718c0,-2.09 -1.25501,-3.6286 -2.86379,-4.69584c-1.94569,-1.28068 -4.40518,-1.86766 -5.74442,-1.86766c-1.36451,0 -2.78798,0.48026 -3.98403,1.31626c-1.65931,1.15617 -2.87221,3.00605 -2.87221,5.24724zM58.92661,153.27286h0.00842v-3.59303c0,-0.08004 0,-0.16009 0.01685,-0.24013c0.16004,-1.84988 2.2068,-3.31732 3.98403,-3.31732c1.8025,0 5.50858,1.49413 5.74442,3.37069c0.00842,0.06226 0.00842,0.12451 0.00842,0.18677v18.34756h0.20215c0.88441,0 1.84462,0.06226 2.97329,0.30238c0.04211,0.00889 0.23584,0.05336 0.23584,0.05336c4.27884,0.9783 8.00176,4.01103 9.98114,8.12878c1.06971,2.2323 1.54139,6.32337 -0.14319,8.36891c-1.86146,2.25009 -4.60733,2.53469 -7.27739,2.53469c-0.87598,0 -1.73512,-0.03557 -2.56056,-0.03557h-8.95355v-0.08894c-1.89515,-0.36464 -4.21988,-1.85877 -4.21988,-3.64639z"></path><path fill-rule="nonzero" fill="#ffffff" data-paper-data="{&quot;guideItem&quot;:null,&quot;selected&quot;:false}" d="M58.95187,149.4397v5.82533c0,0 2.08888,0.55141 4.86002,0.55141c2.77956,0 4.86844,-0.55141 4.86844,-0.55141v-5.77197c-0.23584,-1.87656 -3.94192,-3.37069 -5.74442,-3.37069c-1.77723,0 -3.824,1.46745 -3.98403,3.31732z"></path></g><g style="mix-blend-mode: normal" text-anchor="none" font-size="none" font-weight="none" font-family="none" stroke-dashoffset="0" stroke-dasharray="" stroke-miterlimit="10" stroke-linejoin="miter" stroke-linecap="butt" stroke-width="1" stroke="none" fill-rule="nonzero" fill="none" data-paper-data="{&quot;selected&quot;:false}"><path fill="#ffffff" data-paper-data="{&quot;guideItem&quot;:null,&quot;selected&quot;:false}" d="M16.28143,96.95838c-0.95179,2.20562 -1.66774,4.49128 -2.16469,6.85699c-3.37759,0.60477 -7.25212,-1.28068 -9.27362,-3.04162c1.81092,-6.37673 5.08744,-12.24653 10.31806,-17.1736c1.16236,-1.07613 2.92275,-3.05941 4.65787,-2.89043c6.49406,0.61366 -2.53529,13.91853 -3.53762,16.24867z"></path><path fill="#0088c5" data-paper-data="{&quot;guideItem&quot;:null,&quot;selected&quot;:false}" d="M10.69704,129.79367c-0.02527,0 -0.02527,0 -0.05054,0c-0.49695,0 -1.04444,-0.07115 -1.6172,-0.20455c-1.2129,-0.24902 -2.45107,-0.82711 -3.15859,-1.62753c-3.32705,-3.81537 -3.06594,-9.6407 -2.97329,-14.22981c0.05054,-2.35681 0.26111,-4.74031 0.61487,-7.10601c0.02527,-0.12451 0.09265,-0.55141 0.19373,-1.12949c0.05054,-0.2757 0.11792,-0.60477 0.16846,-0.95162c0.14319,-0.64924 0.28638,-1.40519 0.4043,-2.05443c0.06738,-0.30238 0.14319,-0.60477 0.21057,-0.85379c0.05054,-0.24902 0.11792,-0.48026 0.19373,-0.63145c0.02527,-0.07115 0.06738,-0.12451 0.09265,-0.17787c0.02527,-0.02668 0.05054,-0.05336 0.06738,-0.05336c0,0 0,0 0.02527,0c2.0215,1.77873 5.89603,3.6375 9.24835,3.04162c-0.16846,0.63145 -0.28638,1.254 -0.4043,1.88545c-0.11792,1.43187 -0.21057,2.89043 -0.23584,3.16613c-0.57276,4.74031 0.45484,8.6624 1.26344,13.25151c0.5896,3.43294 0.5896,7.6752 -4.043,7.6752z"></path><path fill="#000000" d="M24.40953,80.59409c-0.45484,-0.9783 -1.64247,-2.63252 -4.32937,-2.89043c-0.16846,0 -0.31165,-0.02668 -0.47168,-0.02668c-2.56899,0 -4.56522,1.98328 -5.89603,3.26396l-0.45484,0.42689c-5.15482,4.87371 -8.86932,10.92138 -10.9582,17.94735c-0.73279,1.35183 -1.09498,3.59303 -1.59193,6.80363c-0.37903,2.43686 -0.61487,4.97154 -0.66541,7.55959v0.52472c-0.11792,4.74031 -0.26111,11.24155 3.70608,15.7862c1.42347,1.62753 3.56289,2.31234 4.7084,2.56137c0.73279,0.15119 1.47401,0.24902 2.18996,0.24902c3.04067,0 4.7084,-1.33404 5.58439,-2.43686c1.56666,-1.98328 1.99623,-4.87371 1.30555,-8.78691c-0.14319,-0.80043 -0.28638,-1.55639 -0.42957,-2.31234c-0.66541,-3.53967 -1.23817,-6.57239 -0.8086,-10.01423c0.02527,-0.15119 0.05054,-0.48026 0.06738,-0.95162c0.05054,-0.57809 0.09265,-1.37851 0.16846,-2.18783c0.52222,-2.83707 1.30555,-5.49626 2.34999,-7.93312c0.09265,-0.24902 0.59803,-1.12949 1.00233,-1.83209c3.47866,-6.08324 6.40141,-11.86411 4.5231,-15.75062zM16.28143,96.95838c-0.92652,2.20562 -1.66774,4.51797 -2.16469,6.85699c-0.16846,0.63145 -0.28638,1.254 -0.4043,1.88545c-0.11792,1.43187 -0.21057,2.89043 -0.23584,3.16613c-0.57276,4.74031 0.45484,8.6624 1.26344,13.25151c0.59803,3.44184 0.59803,7.6841 -4.043,7.6841c-0.02527,0 -0.02527,0 -0.05054,0c-0.49695,0 -1.04444,-0.07115 -1.6172,-0.20455c-1.2129,-0.24902 -2.45107,-0.82711 -3.15859,-1.62753c-3.32705,-3.81537 -3.06594,-9.6407 -2.97329,-14.22981c0.05054,-2.35681 0.26111,-4.74031 0.61487,-7.10601c0.02527,-0.12451 0.09265,-0.55141 0.19373,-1.12949c0.05054,-0.30238 0.11792,-0.60477 0.16846,-0.95162c0.11792,-0.67592 0.26111,-1.40519 0.4043,-2.05443c0.06738,-0.30238 0.14319,-0.60477 0.21057,-0.85379c0.05054,-0.24902 0.11792,-0.48026 0.19373,-0.63145c0.02527,-0.09783 0.06738,-0.15119 0.09265,-0.17787c0.02527,-0.02668 0.05054,-0.05336 0.06738,-0.05336c0,0 0,0 0.02527,0c1.81092,-6.37673 5.08744,-12.24653 10.29279,-17.1736c1.12025,-1.03166 2.77956,-2.90822 4.44729,-2.90822c0.06738,0 0.14319,0 0.21057,0.02668c6.49406,0.59587 -2.53529,13.90075 -3.53762,16.23088z"></path></g><g style="mix-blend-mode: normal" text-anchor="none" font-size="none" font-weight="none" font-family="none" stroke-dashoffset="0" stroke-dasharray="" stroke-miterlimit="10" stroke-linejoin="miter" stroke-linecap="butt" stroke-width="1" stroke="none" fill-rule="nonzero" fill="none" data-paper-data="{&quot;selected&quot;:false}"><path fill="#000000" d="M86.62112,85.97474c1.77723,0 3.63027,1.83209 4.86844,2.86375c6.00553,4.97154 9.93903,11.16151 12.29744,17.96514c0.02527,0 0.05054,-0.00889 0.06738,-0.00889c0,0 0,0 0.00842,0c0.42957,0 1.693,5.73639 1.81935,6.30559c0.55591,2.53469 0.92652,5.11384 1.13709,7.70189c0.39588,4.99822 1.06129,11.33938 -2.30788,15.71505c-0.72437,0.94273 -2.04677,1.64532 -3.36074,2.02775c-0.60645,0.17787 -1.20448,0.2846 -1.75196,0.32906c-0.219,0.01779 -0.42957,0.02668 -0.63172,0.02668c-4.88529,0 -4.73367,-4.4646 -3.97561,-8.30665c1.01917,-5.18499 1.1034,-10.12095 0.26111,-15.05692c-0.09265,-0.50694 -0.1853,-1.00498 -0.28638,-1.51192c-0.07581,-0.36464 -0.15161,-0.72038 -0.23584,-1.08502c-0.21057,-0.89826 -0.44641,-1.78762 -0.71595,-2.66809c-0.04211,-0.1334 -0.06738,-0.26681 -0.1095,-0.40021c-0.68226,-2.19673 -1.53297,-4.34009 -2.56899,-6.41231c-1.23817,-2.46354 -11.9521,-16.32871 -4.90213,-17.4582c0.12634,-0.01779 0.26111,-0.02668 0.38745,-0.02668M86.62112,82.9598v0v0c-0.27796,0 -0.54749,0.01779 -0.81702,0.06226c-2.80483,0.45358 -3.92507,2.25009 -4.35464,3.28175c-1.74354,4.25116 1.8025,10.28104 5.9213,16.60441c0.5138,0.79153 1.09498,1.68979 1.23817,1.97439c0.93494,1.85877 1.73512,3.85094 2.37526,5.94095l0.10107,0.37353c0.24426,0.80043 0.46326,1.63643 0.66541,2.49022c0.07581,0.32906 0.14319,0.66702 0.219,0.99609c0.10107,0.48026 0.1853,0.96051 0.26953,1.43187c0.76648,4.53575 0.69068,9.08929 -0.25269,13.88296c-0.53907,2.73035 -1.00233,6.67912 1.1034,9.40946c0.88441,1.14728 2.58583,2.5169 5.66862,2.5169c0.26111,0 0.53907,-0.00889 0.82544,-0.02668c0.74122,-0.05336 1.54139,-0.20455 2.32472,-0.42689c1.19605,-0.34685 3.41128,-1.20953 4.80948,-3.02383c3.97561,-5.15831 3.40285,-12.18428 2.99013,-17.30701l-0.04211,-0.56919c-0.22742,-2.80149 -0.63172,-5.53184 -1.20448,-8.13767c-0.83387,-3.79758 -1.36451,-6.20776 -2.29103,-7.48844c-2.7206,-7.3995 -7.06682,-13.60726 -12.92074,-18.46318l-0.49695,-0.42689c-1.42347,-1.23621 -3.57974,-3.08609 -6.13188,-3.09498v0z"></path><path fill="#ffffff" data-paper-data="{&quot;guideItem&quot;:null,&quot;selected&quot;:false}" d="M93.68794,109.783c0.16846,0.49804 0.31165,1.00498 0.45484,1.50302c-0.75806,-2.68588 -1.73512,-5.31839 -2.99855,-7.83529c-1.23817,-2.46354 -11.96053,-16.31982 -4.89371,-17.44931c1.87831,-0.30238 3.92507,1.70758 5.25589,2.83707c6.01396,4.97154 9.9643,11.14372 12.31429,17.94735c-2.76271,0.2846 -6.46879,1.06724 -10.13276,2.99715z"></path><path fill="#0088c5" data-paper-data="{&quot;guideItem&quot;:null,&quot;selected&quot;:false}" d="M104.50295,136.51725c-0.71595,0.95162 -2.04677,1.65422 -3.35232,2.03664c-0.59803,0.17787 -1.2129,0.2757 -1.76039,0.32906c-5.517,0.40021 -5.39908,-4.29562 -4.61575,-8.27997c0.97706,-4.8915 1.12025,-9.61402 0.42957,-14.28317c-0.11792,-0.77375 -0.26111,-1.58307 -0.42957,-2.35681c-0.16846,-0.77375 -0.35376,-1.58307 -0.57276,-2.35681c-0.02527,-0.09783 -0.05054,-0.20455 -0.06738,-0.30238c-0.14319,-0.49804 -0.28638,-1.00498 -0.45484,-1.50302c3.66396,-1.92992 7.37004,-2.71256 10.12433,-2.98826c0.02527,0 0.02527,0 0.05054,0c0.42957,0 1.70985,5.74529 1.82777,6.29669c0.54749,2.53469 0.92652,5.12273 1.13709,7.70189c0.39588,4.98933 1.06129,11.33938 -2.3163,15.70615z"></path></g><g style="mix-blend-mode: normal" text-anchor="none" font-size="none" font-weight="none" font-family="none" stroke-dashoffset="0" stroke-dasharray="" stroke-miterlimit="10" stroke-linejoin="miter" stroke-linecap="butt" stroke-width="1" stroke="none" fill-rule="none" fill="none" data-paper-data="{&quot;selected&quot;:false}"><path fill-rule="nonzero" fill="#ffffff" data-paper-data="{&quot;guideItem&quot;:null,&quot;selected&quot;:false}" d="M46.73024,136.48168v29.75809c-0.23584,0.07115 -2.25734,0.55141 -4.87686,0.55141c-2.77956,0 -4.87686,-0.55141 -4.87686,-0.55141v-29.75809c0,-1.9566 1.52455,-3.56635 3.37759,-3.56635c1.85304,0 6.37614,1.60975 6.37614,3.56635z"></path><path fill-rule="evenodd" fill="#009ff9" data-paper-data="{&quot;guideItem&quot;:null,&quot;selected&quot;:false}" d="M46.75551,166.23977v26.96549c0,1.77873 -2.33315,3.26396 -4.23672,3.6375v0.07115h-8.94513c-3.32705,0 -7.37004,0.49804 -9.84638,-2.49022c-1.68458,-2.06332 -1.2129,-6.12771 -0.14319,-8.36001c1.97096,-4.11775 5.71073,-7.15937 9.98957,-8.13767c0,0 0.19373,-0.05336 0.23584,-0.05336c1.2129,-0.24902 2.23207,-0.32906 3.16701,-0.30238v-11.34827c0,0 2.08888,0.55141 4.87686,0.55141c2.61952,0 4.64102,-0.48026 4.87686,-0.55141c0.02527,0.01779 0.02527,0.01779 0.02527,0.01779z"></path><path fill-rule="nonzero" fill="#000000" d="M40.3541,132.93312c1.86146,0 6.38456,1.59196 6.38456,3.55745v26.34294v0v30.37175c0,1.78762 -2.32472,3.28175 -4.21988,3.64639v0.08894h-0.83387h-2.43422h-2.28261h-3.41128c-0.82544,0 -1.693,0.02668 -2.56056,0.02668c-2.66164,0 -5.40751,-0.2757 -7.26897,-2.53469c-1.693,-2.04554 -1.22132,-6.13661 -0.14319,-8.36891c1.97938,-4.11775 5.70231,-7.15048 9.98114,-8.12878c0,0 0.19373,-0.04447 0.23584,-0.05336c1.12867,-0.23123 2.08888,-0.30238 2.96486,-0.30238c0.06738,0 0.14319,0 0.21057,0v-11.33938v-3.41515v-26.34294c0.00842,-1.9566 1.51612,-3.54856 3.37759,-3.54856M40.3541,129.91818c-3.42812,0 -6.22453,2.94379 -6.22453,6.57239v26.34294v3.41515v8.52899c-0.28638,0.04447 -0.57276,0.09783 -0.86756,0.16009l-0.32849,0.08004c-5.06217,1.15617 -9.51788,4.78477 -11.88472,9.70295c-1.3982,2.89932 -2.15626,8.45784 0.53907,11.71291c2.59426,3.13945 6.21611,3.56635 9.42523,3.56635c0.46326,0 0.9181,-0.00889 1.36451,-0.01779c0.4043,-0.00889 0.8086,-0.01779 1.19605,-0.01779h3.41128h2.28261h2.43422h0.83387c0.46326,0 0.90125,-0.11562 1.29713,-0.32906c2.93117,-0.8449 5.77811,-3.23728 5.77811,-6.4212v-30.37175v-26.34294c-0.01685,-4.93597 -7.30266,-6.58129 -9.25677,-6.58129z"></path></g><path style="mix-blend-mode: normal" text-anchor="none" font-size="none" font-weight="none" font-family="none" stroke-dashoffset="0" stroke-dasharray="" stroke-miterlimit="10" stroke-linejoin="miter" stroke-linecap="butt" stroke-width="1" stroke="none" fill-rule="evenodd" fill="#009ff9" data-paper-data="{&quot;guideItem&quot;:null,&quot;selected&quot;:false}" d="M32.86613,188.66951c-0.06738,0.02668 -0.11792,0 -0.16846,0l-1.82777,-0.2757z"></path><path style="mix-blend-mode: normal" text-anchor="none" font-size="none" font-weight="none" font-family="none" stroke-dashoffset="0" stroke-dasharray="" stroke-miterlimit="10" stroke-linejoin="miter" stroke-linecap="butt" stroke-width="1" stroke="none" fill-rule="evenodd" fill="#009ff9" data-paper-data="{&quot;guideItem&quot;:null,&quot;selected&quot;:false}" d="M33.55681,188.66951l-0.02527,0.09783l-0.66541,-0.09783c0.21057,0.01779 0.45484,0.01779 0.69068,0z"></path><g style="mix-blend-mode: normal" text-anchor="none" font-size="none" font-weight="none" font-family="none" stroke-dashoffset="0" stroke-dasharray="" stroke-miterlimit="10" stroke-linejoin="miter" stroke-linecap="butt" stroke-width="1" stroke="none" fill-rule="none" fill="none" data-paper-data="{&quot;selected&quot;:false}"><path fill-rule="evenodd" fill="#009ff9" data-paper-data="{&quot;guideItem&quot;:null,&quot;selected&quot;:false}" d="M93.08992,114.62113c0.37903,7.48844 -1.37293,18.46318 -6.09818,24.89328c-5.57596,7.61295 -15.75084,12.5756 -27.89667,13.62504c-1.44874,0.12451 -3.03225,0.17787 -4.55679,0.17787h-3.31863c-1.49085,0 -3.0154,-0.05336 -4.50626,-0.17787c-10.5539,-0.92494 -24.31693,-4.85592 -29.76655,-18.38314c-4.10196,-10.1921 -3.15859,-21.29136 -1.85304,-29.80256c0.23584,-1.6809 0.70752,-3.47741 1.18763,-5.40733c1.06971,-4.35788 2.2068,-8.86695 1.3982,-13.04696c-0.35376,-1.84988 -1.13709,-3.70864 -1.89515,-5.48737c-0.45484,-1.04945 -0.90125,-2.10779 -1.22974,-3.10388c-2.91433,-8.92031 -3.39443,-18.18748 -1.3982,-27.47243c1.92042,-8.9381 5.92973,-16.53326 11.00874,-20.78442c8.46502,-7.15937 18.3114,-11.24155 27.18072,-11.24155h3.31863c8.70929,0 18.52197,4.08218 27.02068,11.24155c5.07901,4.26005 9.08832,11.84632 11.00874,20.78442c2.11415,9.88972 1.54139,19.05905 -1.77723,28.9043c-0.85071,2.48132 -1.75196,5.46069 -2.01307,8.64461c-0.19373,2.02775 0.23584,3.93099 0.64014,5.76307c0.14319,0.67592 0.31165,1.37851 0.42957,2.05443c0.32849,2.10779 0.78333,4.20669 1.2129,6.31448c0.83387,4.06439 1.693,8.28887 1.90358,12.50445z"></path><path fill-rule="nonzero" fill="#000000" d="M93.94063,101.44077c-0.42957,-2.05443 -0.85071,-4.10886 -1.18763,-6.18997c-0.14319,-0.72928 -0.28638,-1.47634 -0.45484,-2.20562c-0.37903,-1.6809 -0.70752,-3.25507 -0.5896,-4.81145c0.26111,-2.85486 1.09498,-5.61188 1.86989,-7.91533c3.46181,-10.24546 4.07669,-20.23301 1.86989,-30.5852c-2.06361,-9.56955 -6.45195,-17.77837 -12.00264,-22.46531c-8.98724,-7.55959 -19.47376,-11.89968 -28.77265,-11.89968h-3.53762c-9.32416,0 -19.81068,4.3312 -28.77265,11.89968c-5.55912,4.69584 -9.94745,12.91355 -11.9858,22.4831c-2.11415,9.87193 -1.60878,19.66382 1.49085,29.12665c0.35376,1.10281 0.83387,2.2323 1.33082,3.3529c0.69068,1.62753 1.3982,3.30843 1.70985,4.85592c0.66541,3.47741 -0.37903,7.63963 -1.37293,11.66845c-0.49695,2.00107 -0.96863,3.9043 -1.25501,5.70971c-1.35609,8.92031 -2.32472,20.5354 2.06361,31.45678c4.7421,11.79296 15.86876,18.78335 32.16708,20.18855c1.54139,0.15119 3.10805,0.22234 4.91055,0.20455h3.13332c1.60878,0 3.25124,-0.05336 4.79263,-0.20455c12.92916,-1.10281 23.83683,-6.48346 29.90974,-14.75454c5.19693,-7.08822 7.09209,-18.60548 6.68779,-26.90324c-0.22742,-4.44682 -1.12867,-8.77801 -2.00465,-13.01138zM54.54669,153.31732h-3.31863c-1.49085,0 -3.0154,-0.05336 -4.50626,-0.17787c-10.5539,-0.92494 -24.31693,-4.85592 -29.76655,-18.38314c-4.10196,-10.1921 -3.15859,-21.29136 -1.85304,-29.80256c0.23584,-1.6809 0.70752,-3.47741 1.18763,-5.40733c1.06971,-4.35788 2.2068,-8.86695 1.3982,-13.04696c-0.35376,-1.84988 -1.13709,-3.70864 -1.89515,-5.48737c-0.45484,-1.04945 -0.90125,-2.10779 -1.22974,-3.10388c-2.91433,-8.92031 -3.39443,-18.18748 -1.3982,-27.47243c1.92042,-8.9381 5.92973,-16.53326 11.00874,-20.78442c8.46502,-7.15937 18.3114,-11.24155 27.18072,-11.24155h3.31863c8.70929,0 18.52197,4.08218 27.02068,11.24155c5.07901,4.26005 9.08832,11.84632 11.00874,20.78442c2.11415,9.88972 1.54139,19.05905 -1.77723,28.9043c-0.85071,2.48132 -1.75196,5.46069 -2.01307,8.64461c-0.19373,2.02775 0.23584,3.93099 0.64014,5.76307c0.14319,0.67592 0.31165,1.37851 0.42957,2.05443c0.32849,2.10779 0.78333,4.20669 1.2129,6.31448c0.85071,4.08218 1.70985,8.31555 1.92042,12.52223c0.37903,7.48844 -1.37293,18.46318 -6.09818,24.89328c-5.57596,7.61295 -15.75084,12.5756 -27.89667,13.62504c-1.46559,0.10672 -3.05752,0.16009 -4.57364,0.16009z"></path></g><g style="mix-blend-mode: normal" text-anchor="none" font-size="none" font-weight="none" font-family="none" stroke-dashoffset="0" stroke-dasharray="" stroke-miterlimit="10" stroke-linejoin="miter" stroke-linecap="butt" stroke-width="1" stroke="none" fill-rule="nonzero" fill="none" data-paper-data="{&quot;selected&quot;:false}"><path fill="#ffffff" data-paper-data="{&quot;guideItem&quot;:null,&quot;selected&quot;:false}" d="M33.20305,3.94877c-2.75429,-1.07613 -5.81181,-1.28958 -8.92828,-0.25792c-4.18618,1.37851 -7.85015,4.23337 -10.89082,7.62184c-0.25269,0.26681 -0.43799,0.48026 -0.53907,0.59587c-0.95179,1.10281 -1.52455,2.43686 -1.73512,3.82426c-0.34534,2.31234 0.32849,4.77588 1.99623,6.51903c2.67006,2.7926 6.90678,2.68588 9.45892,-0.24013c0.00842,-0.00889 0.00842,-0.00889 0.01685,-0.01779c0.74964,-0.85379 1.76039,-1.80541 2.85537,-2.67698c-0.00842,-0.03557 -0.02527,-0.06226 -0.03369,-0.08894c3.17544,-2.6592 7.22685,-4.52686 10.29279,-1.254c0.77491,0.82711 1.46559,1.72536 2.18153,2.60583c0.35376,0.44468 0.58118,0.88047 1.17078,0.96051c0.80018,0.10672 1.65089,-0.24013 2.36684,-0.5603c0.67383,-0.31128 1.57508,-0.64924 2.12257,-1.15617c0.88441,-0.81821 0.24426,-2.59694 0.01685,-3.54856c-1.30555,-5.47848 -5.30643,-10.35219 -10.35175,-12.32657z"></path><path fill="#000000" d="M46.41017,15.85735l-0.09265,-0.32906c-1.54139,-6.48346 -6.30876,-12.12202 -12.12056,-14.39879c-1.89515,-0.74707 -3.86611,-1.12949 -5.81181,-1.12949c-1.68458,0 -3.34389,0.2757 -4.96109,0.80043c-4.10196,1.37851 -8.01861,4.02882 -11.62361,7.91533c-0.16846,0.15119 -0.31165,0.32906 -0.47168,0.49804c-0.23584,0.2757 -0.45484,0.49804 -0.57276,0.62255c-1.30555,1.5297 -2.15626,3.37958 -2.44264,5.40733c-0.52222,3.3529 0.54749,6.75916 2.79641,9.11597c1.77723,1.87656 4.12722,2.90822 6.6204,2.90822c2.131,0 4.21988,-0.80043 5.87919,-2.2323c0.35376,-0.2757 0.69068,-0.57809 0.9939,-0.92494v-0.02668l0.06738,-0.05336c0.64014,-0.74707 1.54139,-1.57417 2.49318,-2.35681l1.49085,-1.17396l-0.02527,-0.05336c1.22974,-0.80043 2.37526,-1.254 3.25124,-1.254c0.69068,0 1.22974,0.2757 1.8025,0.85379c0.54749,0.60477 1.06971,1.254 1.63404,1.9566l0.37903,0.49804l0.11792,0.15119c0.4043,0.52472 1.22974,1.62753 2.89748,1.84988c0.21057,0.02668 0.42957,0.02668 0.64014,0.02668c1.2129,0 2.29945,-0.42689 3.17544,-0.82711l0.32849,-0.15119c0.78333,-0.32906 1.73512,-0.74707 2.53529,-1.50302c2.15626,-1.92992 1.34767,-4.90928 1.01917,-6.18997zM43.53796,19.81501c-0.54749,0.49804 -1.44874,0.85379 -2.11415,1.15617c-0.61487,0.2757 -1.35609,0.57809 -2.06361,0.57809c-0.09265,0 -0.21057,0 -0.31165,-0.02668c-0.5896,-0.07115 -0.8086,-0.49804 -1.16236,-0.95162c-0.70752,-0.88047 -1.3982,-1.77873 -2.18153,-2.60583c-1.16236,-1.254 -2.46791,-1.75205 -3.81558,-1.75205c-2.2068,0 -4.50626,1.35183 -6.47722,3.00605c0,0.02668 0.02527,0.07115 0.02527,0.09783c-0.8086,0.64924 -1.59193,1.35183 -2.23207,2.02775c-0.21057,0.20455 -0.42957,0.42689 -0.61487,0.64924h-0.02527c-0.32849,0.37353 -0.69068,0.7026 -1.06971,1.00498c-0.37903,0.2757 -0.75806,0.52472 -1.18763,0.7026c-2.37526,1.07613 -5.2222,0.60477 -7.18474,-1.44966h-0.02527c-0.16846,-0.17787 -0.32849,-0.37353 -0.47168,-0.57809c-0.78333,-1.00498 -1.28028,-2.17894 -1.49085,-3.43294c-0.14319,-0.82711 -0.14319,-1.6809 -0.02527,-2.508c0,-0.05336 0.02527,-0.12451 0.05054,-0.17787c0.05054,-0.34685 0.11792,-0.67592 0.26111,-1.02277c0.02527,-0.20455 0.09265,-0.40021 0.19373,-0.57809c0.16846,-0.45358 0.4043,-0.88047 0.66541,-1.28068c0.16846,-0.2757 0.35376,-0.52472 0.57276,-0.77375c0.16846,-0.20455 0.54749,-0.62255 1.11182,-1.20064c0.11792,-0.12451 0.23584,-0.24902 0.37903,-0.37353l0.02527,-0.05336c1.18763,-1.254 2.51845,-2.42796 3.89138,-3.43294c1.85304,-1.35183 3.86611,-2.45464 6.02238,-3.15724c1.37293,-0.45358 2.75429,-0.67592 4.10196,-0.67592c1.65931,0 3.29336,0.32906 4.8179,0.92494c5.05374,1.97439 9.06305,6.86588 10.3686,12.32657c0.22742,0.95162 0.84229,2.73035 -0.03369,3.55745z"></path><path fill="#673101" data-paper-data="{&quot;guideItem&quot;:null,&quot;selected&quot;:false}" d="M25.43713,19.31697c-0.8086,0.64924 -1.59193,1.35183 -2.23207,2.02775c-0.21057,0.20455 -0.42957,0.42689 -0.61487,0.64924h-0.02527c-0.32849,0.37353 -0.69068,0.7026 -1.06971,1.00498c-0.37903,0.2757 -0.78333,0.49804 -1.18763,0.7026c-2.37526,1.07613 -5.2222,0.60477 -7.18474,-1.44966c-0.16846,-0.17787 -0.32849,-0.37353 -0.49695,-0.57809c-0.78333,-1.00498 -1.28028,-2.17894 -1.49085,-3.43294c-0.14319,-0.88047 -0.14319,-1.77873 0.02527,-2.67698c0.05054,-0.34685 0.11792,-0.67592 0.26111,-1.02277c0.02527,-0.20455 0.09265,-0.40021 0.19373,-0.57809c0.16846,-0.45358 0.4043,-0.88047 0.66541,-1.28068c0.16846,-0.2757 0.35376,-0.52472 0.57276,-0.77375c0.16846,-0.20455 0.54749,-0.62255 1.11182,-1.20064c0.11792,-0.12451 0.23584,-0.24902 0.37903,-0.37353c0.14319,-0.15119 0.28638,-0.2757 0.42957,-0.42689c-0.14319,0.12451 -0.26111,0.24902 -0.4043,0.37353c1.18763,-1.254 2.51845,-2.42796 3.89138,-3.43294c0.11792,0.02668 0.23584,0.05336 0.32849,0.12451c0.14319,0.02668 0.26111,0.07115 0.37903,0.12451c0.05054,0.02668 0.06738,0.05336 0.09265,0.05336c0.11792,0.07115 0.23584,0.12451 0.32849,0.20455c0.31165,0.22234 0.57276,0.52472 0.78333,0.88047c0.37903,0.64924 0.52222,1.50302 0.32849,2.33013c-0.16846,0.7026 -0.57276,1.22732 -1.06971,1.62753c0.57276,-0.32906 1.22974,-0.45358 1.89515,-0.2757c1.42347,0.42689 2.29945,2.02775 1.92042,3.61081c-0.19373,0.77375 -0.64014,1.37851 -1.22974,1.77873c0.49695,-0.17787 1.01917,-0.2757 1.54139,-0.12451c0.95179,0.2757 1.60878,1.10281 1.85304,2.05443c0,0.00889 0.02527,0.05336 0.02527,0.08004z"></path></g><g style="mix-blend-mode: normal" text-anchor="none" font-size="none" font-weight="none" font-family="none" stroke-dashoffset="0" stroke-dasharray="" stroke-miterlimit="10" stroke-linejoin="miter" stroke-linecap="butt" stroke-width="1" stroke="none" fill-rule="nonzero" fill="none" data-paper-data="{&quot;selected&quot;:false}"><path fill="#ffffff" data-paper-data="{&quot;guideItem&quot;:null,&quot;selected&quot;:false}" d="M94.74923,15.73284c-0.21057,-1.38741 -0.78333,-2.73035 -1.73512,-3.82426c-0.10107,-0.11562 -0.2948,-0.32906 -0.53907,-0.59587c-3.04067,-3.37958 -6.69621,-6.23444 -10.89082,-7.62184c-3.10805,-1.02277 -6.17399,-0.81821 -8.92828,0.25792c-5.04532,1.97439 -9.0462,6.85699 -10.36018,12.31768c-0.22742,0.95162 -0.86756,2.73924 0.01685,3.54856c0.54749,0.50694 1.44032,0.8449 2.12257,1.15617c0.71595,0.32906 1.55824,0.66702 2.36684,0.5603c0.5896,-0.08004 0.81702,-0.51583 1.17078,-0.96051c0.70752,-0.88047 1.40663,-1.77873 2.18153,-2.60583c3.06594,-3.27286 7.11736,-1.40519 10.29279,1.254c-0.00842,0.03557 -0.02527,0.06226 -0.03369,0.08894c1.09498,0.88047 2.10573,1.83209 2.85537,2.67698c0.00842,0.00889 0.00842,0.00889 0.01685,0.01779c2.55214,2.926 6.78886,3.03273 9.45892,0.24013c1.67616,-1.74315 2.34999,-4.19779 2.00465,-6.51014z"></path><path fill="#000000" d="M97.54563,15.26147c-0.28638,-2.02775 -1.13709,-3.88652 -2.41737,-5.38065c-0.14319,-0.15119 -0.35376,-0.37353 -0.61487,-0.67592c-0.49695,-0.55141 -1.01917,-1.10281 -1.54139,-1.57417c-3.29336,-3.30843 -6.83098,-5.5852 -10.52863,-6.81252c-1.60878,-0.52472 -3.27651,-0.80043 -4.93582,-0.80043c-1.97096,0 -3.9335,0.37353 -5.83707,1.12949c-5.81181,2.27677 -10.57917,7.91533 -12.12056,14.39879l-0.09265,0.32906c-0.32849,1.28068 -1.13709,4.26005 0.9939,6.20776c0.8086,0.74707 1.75196,1.17396 2.53529,1.50302l0.32849,0.15119c0.87598,0.40021 1.97096,0.82711 3.17544,0.82711c0.21057,0 0.42957,0 0.66541,-0.02668c1.63404,-0.22234 2.46791,-1.32515 2.87221,-1.84988l0.11792,-0.15119l0.4043,-0.49804c0.54749,-0.7026 1.06971,-1.35183 1.60878,-1.9566c0.57276,-0.57809 1.11182,-0.85379 1.8025,-0.85379c0.87598,0 2.01307,0.45358 3.25124,1.254l-0.02527,0.05336l1.49085,1.17396c0.96863,0.77375 1.85304,1.60085 2.49318,2.35681c1.44874,1.65422 3.36916,2.73035 5.43277,3.0772c0.49695,0.09783 0.9939,0.15119 1.51612,0.15119c2.49318,0 4.84317,-1.02277 6.6204,-2.90822c2.26576,-2.36571 3.32705,-5.77197 2.80483,-9.12487zM92.753,22.25187c-1.99623,2.05443 -4.83475,2.52579 -7.21001,1.44966c-0.42957,-0.17787 -0.8086,-0.42689 -1.18763,-0.7026c-0.37903,-0.30238 -0.73279,-0.62255 -1.06971,-1.00498c-0.57276,-0.62255 -1.28028,-1.32515 -2.03834,-1.97439c-0.26111,-0.24902 -0.54749,-0.48026 -0.83387,-0.7026c0,-0.02668 0.02527,-0.07115 0.02527,-0.09783c-1.97096,-1.65422 -4.27041,-3.00605 -6.47722,-3.00605c-1.35609,0 -2.65322,0.49804 -3.81558,1.75205c-0.78333,0.82711 -1.47401,1.72536 -2.18153,2.60583c-0.35376,0.45358 -0.57276,0.88047 -1.16236,0.95162c-0.09265,0.02668 -0.21057,0.02668 -0.31165,0.02668c-0.70752,0 -1.42347,-0.30238 -2.06361,-0.57809c-0.66541,-0.30238 -1.56666,-0.64924 -2.11415,-1.15617c-0.87598,-0.82711 -0.23584,-2.60583 -0.02527,-3.55745c1.30555,-5.46069 5.31485,-10.34329 10.3686,-12.32657c1.51612,-0.60477 3.15859,-0.92494 4.83475,-0.92494c1.33082,0 2.70375,0.22234 4.07669,0.67592c2.15626,0.7026 4.17776,1.80541 6.04765,3.18392c1.35609,1.00498 2.63637,2.12558 3.79873,3.3529c0.16846,0.17787 0.32849,0.32906 0.47168,0.48026c0.57276,0.57809 0.95179,1.00498 1.11182,1.20064c0.23584,0.2757 0.45484,0.57809 0.64014,0.88047c0.16846,0.2757 0.32849,0.55141 0.47168,0.85379c0,0.02668 0.02527,0.05336 0.02527,0.07115c0.14319,0.32906 0.26111,0.64924 0.35376,1.00498c0.11792,0.32906 0.19373,0.67592 0.23584,1.02277c0.35376,2.33013 -0.30322,4.78477 -1.97096,6.51903z"></path><path fill="#673101" data-paper-data="{&quot;guideItem&quot;:null,&quot;selected&quot;:false}" d="M92.753,22.25187c-1.99623,2.05443 -4.83475,2.52579 -7.21001,1.44966c-0.4043,-0.20455 -0.8086,-0.42689 -1.18763,-0.7026c-0.37903,-0.30238 -0.73279,-0.62255 -1.06971,-1.00498c-0.57276,-0.62255 -1.28028,-1.32515 -2.03834,-1.97439c-0.26111,-0.24902 -0.54749,-0.48026 -0.83387,-0.7026c0,-0.02668 0.02527,-0.07115 0.02527,-0.09783c0.26111,-0.95162 0.90125,-1.77873 1.86989,-2.05443c0.52222,-0.15119 1.01917,-0.05336 1.51612,0.12451c-0.5896,-0.40021 -1.04444,-1.00498 -1.22974,-1.77873c-0.37903,-1.57417 0.49695,-3.18392 1.92042,-3.61081c0.66541,-0.17787 1.33082,-0.05336 1.89515,0.2757c-0.49695,-0.40021 -0.90125,-0.92494 -1.06971,-1.62753c-0.35376,-1.44966 0.35376,-2.9349 1.59193,-3.45962c0.09265,-0.05336 0.21057,-0.09783 0.32849,-0.12451c0.09265,-0.02668 0.21057,-0.07115 0.35376,-0.09783c1.35609,1.00498 2.63637,2.12558 3.79873,3.3529c0.16846,0.17787 0.32849,0.32906 0.47168,0.48026c0.57276,0.57809 0.95179,1.00498 1.11182,1.20064c0.23584,0.2757 0.45484,0.57809 0.64014,0.88047c0.16846,0.2757 0.32849,0.55141 0.47168,0.85379c0,0.02668 0.02527,0.05336 0.02527,0.07115c0.14319,0.32906 0.26111,0.64924 0.35376,1.00498c0.11792,0.32906 0.19373,0.67592 0.23584,1.02277c0.35376,2.33013 -0.30322,4.78477 -1.97096,6.51903z"></path></g>
               </svg>