<svg viewBox="0 0 100 200" xml:space="preserve" xmlns:xlink="http://www.w3.org/1999/xlink" xmlns="http://www.w3.org/2000/svg">
                    <g style="mix-blend-mode: normal" text-anchor="none" font-size="none" font-weight="none" font-family="none" stroke-dashoffset="0" stroke-dasharray="" stroke-miterlimit="10" stroke-linejoin="miter" stroke-linecap="butt" stroke-width="1" stroke="none" fill-rule="nonzero" fill="none" data-paper-data="{&quot;selected&quot;:false}"><path fill="#ffffff" data-paper-data="{&quot;guideItem&quot;:null,&quot;selected&quot;:false}" d="M27.96484,16.41411c2.07835,2.55212 5.93494,3.03065 8.59853,1.07858c0.09754,-0.07596 0.19508,-0.15191 0.32263,-0.25066c0.19508,-0.12153 0.36765,-0.25066 0.54022,-0.37218c0.07503,-0.07596 0.17257,-0.12153 0.2476,-0.1747c0.66777,-0.54688 1.28303,-1.02541 1.85326,-1.42797v-0.02279c0.96039,-0.67601 1.80074,-1.15453 2.57356,-1.15453c0.59274,0 1.14047,0.27344 1.7032,0.94945c1.33555,1.60267 0.78782,3.30409 2.61858,3.60032c0.93789,0.1747 1.80074,0.5241 2.44601,0.5241c0.42017,0 0.74281,-0.15191 0.93789,-0.57727c1.53063,-3.22813 0.39766,-8.4843 -1.53063,-11.33265c-1.14047,-1.67863 -2.82116,-2.82557 -4.77196,-3.52436c-1.41058,-0.50131 -2.69361,-0.72918 -3.87909,-0.72918c-0.51771,0 -1.01292,0.05317 -1.50812,0.12153c-0.42017,0.07596 -0.81784,0.1747 -1.208,0.30382c-1.14047,0.32661 -2.1984,0.8735 -3.30886,1.57989h-0.02251c-1.43309,0.90388 -2.88869,2.02803 -4.54687,3.22813c-2.6711,1.97486 -3.14379,5.62835 -1.06544,8.18047z"></path><path fill="#000000" data-paper-data="{&quot;guideItem&quot;:null,&quot;selected&quot;:false}" d="M39.36202,15.44187c-0.30012,0.22787 -1.01292,0.75197 -1.68069,1.25328c0.66777,-0.54688 1.28303,-1.02541 1.85326,-1.42797c-0.05252,0.04557 -0.09754,0.09874 -0.17257,0.1747z"></path><path fill="#000000" d="M23.78562,11.73522c0.30012,-2.37743 1.53063,-4.48141 3.48143,-5.90179l0.74281,-0.57727c3.80406,-2.82557 7.09041,-5.25616 11.61477,-5.25616c1.58315,0 3.18881,0.30382 4.89201,0.90388c2.69361,0.97224 4.77196,2.55212 6.20505,4.65611c2.44601,3.65349 3.80406,9.98063 1.77823,14.31013c-0.66777,1.45076 -2.02583,2.30147 -3.63149,2.30147c-0.76531,0 -1.4556,-0.1747 -2.07835,-0.3494c-0.27011,-0.07596 -0.57023,-0.15191 -0.86285,-0.19749c-2.79115,-0.50131 -3.58647,-2.65087 -3.95413,-3.67628c-0.07503,-0.25066 -0.15006,-0.42535 -0.22509,-0.60005c-0.4952,0.32661 -1.18549,0.8735 -1.73321,1.29885c-0.54022,0.40257 -1.11046,0.85071 -1.73321,1.29885c-1.58315,1.15453 -3.45892,1.75459 -5.43974,1.75459c-2.82116,0 -5.43974,-1.22289 -7.19546,-3.38005c-1.48561,-1.87612 -2.15338,-4.20797 -1.86076,-6.58539zM27.96484,16.41411c2.07835,2.55212 5.93494,3.03065 8.59853,1.07858c0.09754,-0.07596 0.19508,-0.15191 0.32263,-0.25066c0.19508,-0.12153 0.36765,-0.25066 0.54022,-0.37218c0.07503,-0.07596 0.17257,-0.12153 0.2476,-0.1747c0.66777,-0.50131 1.38057,-1.02541 1.68069,-1.25328c0.07503,-0.07596 0.12005,-0.12153 0.17257,-0.1747v-0.02279c0.96039,-0.67601 1.80074,-1.15453 2.57356,-1.15453c0.59274,0 1.14047,0.27344 1.7032,0.94945c1.33555,1.60267 0.78782,3.30409 2.61858,3.60032c0.93789,0.1747 1.80074,0.5241 2.44601,0.5241c0.42017,0 0.74281,-0.15191 0.93789,-0.57727c1.53063,-3.22813 0.39766,-8.4843 -1.53063,-11.33265c-1.14047,-1.67863 -2.82116,-2.82557 -4.77196,-3.52436c-1.41058,-0.50131 -2.69361,-0.72918 -3.87909,-0.72918c-0.51771,0 -1.01292,0.05317 -1.50812,0.12153c-0.42017,0.07596 -0.81784,0.1747 -1.208,0.30382c-1.14047,0.32661 -2.1984,0.8735 -3.30886,1.57989h-0.02251c-1.43309,0.90388 -2.88869,2.02803 -4.54687,3.22813c-2.6711,1.97486 -3.14379,5.62835 -1.06544,8.18047z"></path><path fill="#683100" data-paper-data="{&quot;guideItem&quot;:null,&quot;selected&quot;:false}" d="M27.96484,16.41411c2.07835,2.55212 5.93494,3.03065 8.59853,1.07858c0.09754,-0.07596 0.19508,-0.15191 0.32263,-0.25066c0.17257,-0.09874 0.34514,-0.25066 0.54022,-0.37218c0.07503,-0.07596 0.17257,-0.12153 0.2476,-0.1747c0.66777,-0.50131 1.38057,-1.02541 1.68069,-1.25328c0.07503,-0.07596 0.12005,-0.12153 0.17257,-0.1747v-0.02279c0.2476,-0.50131 -0.7203,-1.10136 -1.48561,-1.39759c-0.44268,-0.19749 -0.91538,-0.19749 -1.38057,-0.12153c0.59274,-0.22787 1.06544,-0.65322 1.33555,-1.22289c0.54022,-1.20011 -0.05252,-2.57491 -1.28303,-3.07622c-0.59274,-0.25066 -1.208,-0.22787 -1.75572,-0.05317c0.4952,-0.25066 0.93789,-0.62284 1.16298,-1.15453c0.54022,-1.17732 -0.42017,-2.52934 -1.68069,-3.05344c-0.09754,-0.05317 -0.59274,-0.1747 -0.84035,-0.15191h-0.02251c-1.43309,0.90388 -2.88869,2.02803 -4.54687,3.22813c-2.6711,1.96726 -3.14379,5.62075 -1.06544,8.17288z"></path></g><g style="mix-blend-mode: normal" text-anchor="none" font-size="none" font-weight="none" font-family="none" stroke-dashoffset="0" stroke-dasharray="" stroke-miterlimit="10" stroke-linejoin="miter" stroke-linecap="butt" stroke-width="1" stroke="none" fill-rule="none" fill="none" data-paper-data="{&quot;selected&quot;:false}"><path fill-rule="nonzero" fill="#000000" d="M46.53497,128.19111c-1.90578,0 -3.48893,1.52672 -3.56396,3.47119l-1.04293,26.93403l-0.64527,16.79389c0,0 -1.6957,-2.29387 -6.46015,-2.29387c-0.81033,0 -1.7107,0.06836 -2.70111,0.22027c-0.04502,0.0076 -0.2476,0.04557 -0.2476,0.04557c-4.56938,0.81273 -8.62855,3.73704 -10.88697,7.83867c-1.223,2.21792 -1.88327,6.34993 -0.17257,8.49949c2.49853,3.14458 6.79029,2.81038 10.31674,2.95469l11.89239,0.47093l2.57356,0.09874c0.05252,0 0.10504,0 0.15756,0c2.07835,0 5.25216,-1.54191 5.33469,-3.58513l1.18549,-30.64069v0l1.04293,-26.93403c0.07503,-1.99765 -4.65191,-3.7978 -6.62522,-3.87376c-0.06002,0 -0.10504,0 -0.15756,0M46.53497,125.19084v0l0.2551,0.0076c2.05584,0.08355 9.66397,2.03562 9.46889,6.99556l-1.04293,26.93403l-1.17798,30.64069c-0.15756,4.01048 -4.93703,6.46386 -8.29841,6.46386l-0.27011,-0.0076l-2.57356,-0.09874l-11.89239,-0.47093c-0.41267,-0.01519 -0.84035,-0.02279 -1.26802,-0.03798c-3.45142,-0.07596 -8.17836,-0.18989 -11.23962,-4.03327c-2.70861,-3.39524 -1.68819,-8.97042 -0.10504,-11.84156c2.6861,-4.87638 7.5331,-8.36277 12.96533,-9.32741l0.2476,-0.04557c1.15547,-0.18229 2.21341,-0.26585 3.21882,-0.26585c1.41808,0 2.63358,0.1671 3.68401,0.44055l0.46519,-12.05423l1.04293,-26.93403c0.13506,-3.56994 3.00123,-6.36512 6.52018,-6.36512z"></path><path fill-rule="nonzero" fill="#ffffff" data-paper-data="{&quot;guideItem&quot;:null,&quot;selected&quot;:false}" d="M41.92057,158.59633l10.33175,0.40257l1.03543,-26.91884c0.09754,-2.00524 -4.64441,-3.8054 -6.62522,-3.88136c-1.9508,-0.07596 -3.60898,1.47355 -3.70652,3.47879z"></path><path fill-rule="evenodd" fill="#0088c2" data-paper-data="{&quot;guideItem&quot;:null,&quot;selected&quot;:false}" d="M20.8144,189.69276c2.49853,3.15218 6.77528,2.82557 10.30924,2.95469l11.88488,0.47852l2.57356,0.09874c2.07835,0.07596 5.40972,-1.47355 5.51477,-3.57753l1.03543,-27.37458l0.12005,-3.2813l-10.33175,-0.40257l-0.12005,3.2813l-0.51771,13.51259c0,0 -2.32596,-3.12939 -9.16877,-2.05081c-0.02251,0 -0.2476,0.02279 -0.2476,0.02279c-4.56938,0.82792 -8.62855,3.75223 -10.87197,7.85386c-1.24551,2.20273 -1.88327,6.33474 -0.18007,8.4843z"></path></g><g style="mix-blend-mode: normal" text-anchor="none" font-size="none" font-weight="none" font-family="none" stroke-dashoffset="0" stroke-dasharray="" stroke-miterlimit="10" stroke-linejoin="miter" stroke-linecap="butt" stroke-width="1" stroke="none" fill-rule="none" fill="none" data-paper-data="{&quot;selected&quot;:false}"><path fill-rule="nonzero" fill="#ffffff" data-paper-data="{&quot;guideItem&quot;:null,&quot;selected&quot;:false}" d="M60.93338,134.17645l3.80406,26.67578l10.23421,-1.50393l-3.80406,-26.67578c-0.27011,-1.97486 -5.23715,-2.87874 -7.19546,-2.60529c-1.9583,0.30382 -3.31636,2.12677 -3.03875,4.10922z"></path><path fill-rule="evenodd" fill="#009ff8" data-paper-data="{&quot;guideItem&quot;:null,&quot;selected&quot;:false}" d="M49.51369,195.29832c3.03875,2.65087 7.19546,1.52672 10.67689,1.02541l11.78734,-1.7242l2.54355,-0.37218c2.04834,-0.30382 5.04207,-2.45338 4.77196,-4.52698l-3.85658,-27.10114l-0.47269,-3.25092l-10.23421,1.50393l0.47269,3.25092l1.90578,13.38346c0,0 -2.86618,-2.65087 -9.39386,-0.3494c-0.05252,0 -0.2476,0.07596 -0.2476,0.07596c-4.32178,1.64825 -7.81071,5.27895 -9.29632,9.70719c-0.81033,2.40021 -0.71279,6.60058 1.34305,8.37796z"></path><path fill-rule="nonzero" fill="#000000" d="M64.78247,130.02924c-0.30763,0 -0.58524,0.01519 -0.81784,0.05317c-1.9508,0.28104 -3.30886,2.11158 -3.02374,4.08644l3.79656,26.67578l2.36347,16.63439c0,0 -1.38807,-1.29885 -4.44933,-1.29885c-1.32054,0 -2.96372,0.24306 -4.92953,0.93426c-0.03752,0.01519 -0.2401,0.09115 -0.2401,0.09115c-4.34429,1.64065 -7.81821,5.25616 -9.30382,9.69959c-0.81033,2.40781 -0.71279,6.59299 1.35056,8.38555c1.48561,1.29125 3.24884,1.68623 5.07208,1.68623c1.88327,0 3.82657,-0.41016 5.6048,-0.66841l11.77984,-1.71661l2.55105,-0.37218c2.04834,-0.29623 5.04958,-2.45338 4.75695,-4.52698l-4.31427,-30.35206v0l-3.79656,-26.67578c-0.2551,-1.7242 -4.1417,-2.63568 -6.40013,-2.63568M64.78247,127.02898v0c2.97122,0 8.73359,1.09377 9.32633,5.22578l3.79656,26.67578l4.31427,30.35206c0.58524,4.10922 -3.91661,7.4361 -7.27049,7.92222l-2.55105,0.37218l-11.77984,1.71661c-0.41267,0.06076 -0.82534,0.12913 -1.25301,0.19749c-1.4556,0.23546 -3.10628,0.50891 -4.77196,0.50891c-2.85117,0 -5.14712,-0.78994 -7.00788,-2.40781c-3.27134,-2.84835 -3.26384,-8.51468 -2.22091,-11.62888c1.77073,-5.28654 5.91243,-9.60845 11.08205,-11.55292l0.19508,-0.07596c2.1834,-0.76716 4.17171,-1.13934 6.00997,-1.13934c0.29262,0 0.57774,0.0076 0.84785,0.02279l-1.6957,-11.9327l-3.79656,-26.67578c-0.51021,-3.60791 1.97331,-6.97277 5.53728,-7.48927c0.36765,-0.06836 0.78782,-0.09115 1.23801,-0.09115v0z"></path></g><g style="mix-blend-mode: normal" text-anchor="none" font-size="none" font-weight="none" font-family="none" stroke-dashoffset="0" stroke-dasharray="" stroke-miterlimit="10" stroke-linejoin="miter" stroke-linecap="butt" stroke-width="1" stroke="none" fill-rule="nonzero" fill="none" data-paper-data="{&quot;selected&quot;:false}"><path fill="#ffffff" data-paper-data="{&quot;guideItem&quot;:null,&quot;selected&quot;:false}" d="M32.90186,110.16672c0.87036,-5.46884 0.41267,-10.80855 0.01501,-16.52805c-0.18007,-2.52934 -0.9829,-11.71243 4.18672,-9.97304c1.86827,0.63044 2.82866,3.43322 3.56396,5.07387c1.59065,3.56994 2.63358,7.32217 3.13629,11.12757c0.57023,4.26873 0.46519,8.55266 -0.14256,12.76062c-2.73112,-1.13934 -6.50517,-2.2559 -10.75942,-2.46098z"></path><path fill="#0088c5" data-paper-data="{&quot;guideItem&quot;:null,&quot;selected&quot;:false}" d="M24.9711,127.73537c0.04502,-0.05317 0.09004,-0.10634 0.12755,-0.15951c1.14797,-1.42797 2.13088,-2.82557 3.00123,-4.23835c1.23801,-2.02043 2.22842,-4.08644 3.03875,-6.35753c0.39766,-1.11655 0.75781,-2.28628 1.08795,-3.52436c0.29262,-1.10136 0.4952,-2.19513 0.66777,-3.2889c4.25425,0.20508 8.0283,1.32164 10.75192,2.46098c-0.29262,2.03562 -0.69779,4.04846 -1.223,6.03091c-1.49311,5.65113 -3.60148,12.03145 -7.36052,16.65717c-1.83075,2.2483 -4.83949,3.53955 -7.87824,2.91671c-0.63026,-0.12913 -1.23801,-0.31902 -1.75572,-0.53929c-1.88327,-0.82033 -3.46642,-2.4154 -3.55646,-4.45103c-0.01501,-0.40257 0.04502,-0.77475 0.13506,-1.13934c0.43518,-1.69382 1.88327,-3.00786 2.96372,-4.36748z"></path><path fill="#000000" d="M35.9031,83.44537c-3.83408,0 -3.1513,7.87665 -2.98623,10.19331c0.39766,5.71949 0.85535,11.05921 -0.01501,16.52805c-0.17257,1.09377 -0.38266,2.18754 -0.66777,3.2889c-0.32263,1.23808 -0.68278,2.40781 -1.08795,3.52436c-0.81033,2.27109 -1.80074,4.33709 -3.03875,6.35753c-0.87036,1.41278 -1.84576,2.81038 -3.00123,4.23835c-0.04502,0.05317 -0.09004,0.10634 -0.12755,0.15951c-1.08044,1.35961 -2.53604,2.67365 -2.96372,4.36748c-0.09004,0.36459 -0.15006,0.73677 -0.13506,1.13934c0.09004,2.02803 1.67319,3.6307 3.55646,4.45103c0.51771,0.22787 1.11796,0.41016 1.75572,0.53929c0.51771,0.10634 1.03543,0.15951 1.54564,0.15951c2.49102,0 4.81698,-1.2077 6.34011,-3.07622c3.75904,-4.62573 5.86741,-11.00604 7.36052,-16.65717c0.52522,-1.98245 0.93038,-4.00289 1.223,-6.03091c0.61525,-4.20797 0.71279,-8.49189 0.14256,-12.76062c-0.51021,-3.8054 -1.55314,-7.56523 -3.13629,-11.12757c-0.7278,-1.64065 -1.68819,-4.44343 -3.56396,-5.07387c-0.44268,-0.15191 -0.84035,-0.22027 -1.20049,-0.22027M35.9031,80.4451c0.68278,0 1.40308,0.12153 2.13088,0.37218c2.89619,0.97224 4.20173,4.04086 5.05708,6.0613l0.27011,0.62284c1.68819,3.78261 2.82116,7.80829 3.37639,11.96309c0.57774,4.35228 0.53272,8.92484 -0.15006,13.59614c-0.31513,2.17234 -0.75031,4.3219 -1.29803,6.37272c-1.4631,5.5372 -3.69152,12.56314 -7.93826,17.78892c-2.12337,2.61289 -5.3497,4.16999 -8.62855,4.16999c-0.71279,0 -1.43309,-0.07596 -2.13088,-0.21268c-0.81784,-0.1671 -1.62817,-0.41776 -2.33346,-0.72918c-3.1663,-1.37481 -5.21464,-4.08644 -5.3497,-7.07151c-0.03001,-0.65322 0.04502,-1.31404 0.22509,-2.02043c0.50271,-1.99765 1.77823,-3.47119 2.80615,-4.65611c0.2476,-0.28863 0.4877,-0.56967 0.7203,-0.85071l0.14256,-0.1747c1.04293,-1.29125 1.9508,-2.57491 2.77614,-3.92693c1.12546,-1.83814 2.03334,-3.72944 2.77614,-5.79545c0.36765,-1.02541 0.69779,-2.09639 1.00541,-3.27371c0.22509,-0.8659 0.42017,-1.81535 0.60775,-2.99267c0.76531,-4.82321 0.42017,-9.71478 0.05252,-14.89499l-0.06753,-0.94186l-0.01501,-0.22027c-0.30012,-4.23075 -0.29262,-8.90205 2.06335,-11.46937c1.03543,-1.12415 2.37848,-1.71661 3.9016,-1.71661z"></path></g><g style="mix-blend-mode: normal" text-anchor="none" font-size="none" font-weight="none" font-family="none" stroke-dashoffset="0" stroke-dasharray="" stroke-miterlimit="10" stroke-linejoin="miter" stroke-linecap="butt" stroke-width="1" stroke="none" fill-rule="nonzero" fill="none" data-paper-data="{&quot;selected&quot;:false}"><path fill="#ffffff" data-paper-data="{&quot;guideItem&quot;:null,&quot;selected&quot;:false}" d="M78.33304,6.86643c-2.38598,0.30382 -4.59939,1.20011 -6.34761,2.90152c-2.99373,2.91671 -5.24466,6.47906 -4.46433,10.80096c0.27011,1.50393 2.70861,2.83316 4.51686,2.9471c2.14588,0.13672 2.01083,-1.45076 3.96163,-3.02305c2.80615,-2.2559 4.3743,1.16972 7.42805,5.00551c2.45351,3.1066 6.91784,3.60791 9.9716,1.10136c3.05375,-2.49896 3.57147,-7.02594 1.14797,-10.14773c-4.68192,-6.01572 -8.88365,-10.51232 -16.21416,-9.58566z"></path><path fill="#000000" data-paper-data="{&quot;guideItem&quot;:null,&quot;selected&quot;:false}" d="M82.57978,24.40469c-0.66777,-0.85071 -1.41058,-1.77737 -1.7032,-2.17994c-0.07503,-0.09874 -0.12005,-0.1747 -0.12005,-0.27344c0.54022,0.72918 1.15547,1.5571 1.82325,2.45338z"></path><path fill="#000000" d="M69.92958,7.6184c2.12337,-2.0736 4.81698,-3.32688 8.0358,-3.72944c0.76531,-0.09874 1.50812,-0.15191 2.25093,-0.15191c7.58562,0 12.20752,5.12704 16.68686,10.86172c3.4139,4.40545 2.6711,10.83134 -1.62817,14.34051c-1.77823,1.47355 -4.00665,2.27868 -6.30259,2.27868c-3.06126,0 -5.93494,-1.39759 -7.83322,-3.82819c-0.57023,-0.6988 -1.08795,-1.39759 -1.56064,-2.05081c-0.59274,-0.79754 -1.35806,-1.82295 -1.87577,-2.35464c-0.34514,0.30382 -0.57023,0.62284 -0.84035,1.00262c-0.7203,0.94945 -1.92829,2.55212 -4.54687,2.55212c-0.15006,0 -0.30012,0 -0.44268,-0.02279c-2.54355,-0.15191 -6.62522,-1.97486 -7.24048,-5.40807c-0.86285,-4.68649 0.92288,-9.23626 5.29718,-13.4898zM67.52859,20.57651c0.27011,1.50393 2.69361,2.82557 4.52436,2.95469h0.2476c1.87577,0 1.83075,-1.52672 3.70652,-3.03065c0.61525,-0.50131 1.18549,-0.72918 1.7032,-0.72918c1.06544,0 1.98081,0.8735 3.03875,2.17994c0,0.09874 0.05252,0.1747 0.12005,0.27344c0.30012,0.40257 1.03543,1.32923 1.7032,2.17994c0.30012,0.42535 0.61525,0.79754 0.84035,1.10136c2.46851,3.09901 6.91784,3.60032 9.9866,1.10136c3.06126,-2.49896 3.55646,-7.03353 1.14047,-10.15533c-1.48561,-1.8989 -2.94121,-3.65349 -4.44933,-5.15742c-2.79115,-2.74961 -5.8299,-4.55737 -9.88906,-4.55737c-0.59274,0 -1.23801,0.05317 -1.87577,0.12153c-2.37097,0.30382 -4.59939,1.20011 -6.35511,2.90152c-2.98623,2.9395 -5.22965,6.48665 -4.44183,10.81615z"></path><path fill="#683100" data-paper-data="{&quot;guideItem&quot;:null,&quot;selected&quot;:false}" d="M80.74903,21.95131c0,0.09874 0.05252,0.1747 0.12005,0.27344c0.30012,0.40257 1.03543,1.32923 1.7032,2.17994c0.30012,0.42535 0.61525,0.79754 0.84035,1.10136c2.46851,3.09901 6.91784,3.60032 9.9866,1.10136c3.06126,-2.49896 3.55646,-7.03353 1.14047,-10.15533c-1.48561,-1.8989 -2.94121,-3.65349 -4.44933,-5.15742c-0.22509,-0.02279 -0.66777,-0.12153 -0.76531,-0.09874c-1.56064,0.27344 -3.01624,1.64825 -2.76864,3.22813c0.12005,0.6988 0.4952,1.27606 0.99041,1.70142c-0.57023,-0.37218 -1.26052,-0.54688 -1.98081,-0.42535c-1.53063,0.27344 -2.57356,1.77737 -2.32596,3.34966c0.12005,0.77475 0.57023,1.42797 1.16298,1.85333c-0.4952,-0.22787 -1.03543,-0.3494 -1.60566,-0.25066c-0.93038,0.15191 -2.1909,0.62284 -2.04834,1.29885z"></path></g><g style="mix-blend-mode: normal" text-anchor="none" font-size="none" font-weight="none" font-family="none" stroke-dashoffset="0" stroke-dasharray="" stroke-miterlimit="10" stroke-linejoin="miter" stroke-linecap="butt" stroke-width="1" stroke="none" fill-rule="nonzero" fill="none" data-paper-data="{&quot;selected&quot;:false}"><path fill="#000000" d="M52.90508,17.09772c-9.28131,0 -18.89276,3.82059 -26.56842,9.07675c-6.55019,4.48141 -10.99952,12.57833 -13.31797,20.10558c-0.14256,0.45574 -0.2401,0.90388 -0.36765,1.35961c-0.26261,0.77475 -0.51021,1.54191 -0.7278,2.30147c-2.64109,9.16031 -1.06544,17.1281 1.4481,26.22004c0.54773,1.97486 4.45683,11.60609 4.52436,12.07702c1.12546,5.29414 -1.58315,11.758 -2.33346,16.97619c-1.38807,9.69959 -1.66568,19.7182 2.34096,28.87851c5.45474,12.48718 18.15746,16.92302 30.77015,17.78132c1.24551,0.08355 2.49102,0.12913 3.73654,0.12913c0.27011,0 0.54022,0 0.81784,-0.0076c0.06002,0 0.12005,-0.0076 0.18007,-0.0076l3.08377,-0.04557c1.51562,-0.02279 3.09127,-0.10634 4.59939,-0.25066c10.36926,-1.01022 21.79646,-5.08906 28.27912,-13.81641c4.68943,-6.31195 6.46766,-16.77111 5.95745,-24.55661c-0.40517,-6.07649 -2.24342,-11.95549 -3.37639,-17.91045c-0.44268,-2.33185 -1.30554,-4.61054 -1.12546,-6.98037c0.03752,-0.50131 0.11255,-0.98743 0.18007,-1.48114c0.37515,-1.07098 3.19631,-9.11473 3.90911,-12.19095c2.10086,-7.00315 2.66359,-14.34811 1.59816,-21.76902c-1.11796,-7.80829 -4.25425,-16.51286 -10.02412,-21.98169c-7.41305,-7.03353 -17.39965,-12.73024 -27.48379,-13.52019c0,0 -0.07503,-0.0076 -0.18007,-0.01519l-3.24133,-0.25825c-0.89287,-0.07596 -1.78573,-0.11393 -2.6786,-0.11393M52.90508,14.09745c0.9829,0 1.96581,0.03798 2.9187,0.12153l3.22633,0.25825l0.2476,0.02279c9.75401,0.75956 20.4309,5.97774 29.21701,14.31013c5.54478,5.25616 9.52892,13.90756 10.93199,23.74388c1.11046,7.7855 0.54773,15.51783 -1.67319,22.98432c-0.60775,2.56732 -2.4385,7.99058 -3.87909,12.13778c-0.05252,0.3494 -0.09004,0.66841 -0.12005,0.98743c-0.09004,1.20011 0.2401,2.56732 0.59274,4.01808c0.17257,0.72158 0.35264,1.44317 0.4877,2.17234c0.36015,1.9065 0.81033,3.86617 1.25301,5.76507c0.93038,4.02567 1.89078,8.19566 2.17589,12.50997c0.53272,8.11971 -1.27552,19.47514 -6.54269,26.56185c-6.13002,8.24883 -17.19707,13.71767 -30.36498,15.00133c-1.54564,0.15191 -3.21882,0.24306 -4.84699,0.26585l-3.08377,0.04557l-0.16507,0.0076l-0.87036,0.0076c-1.31304,0 -2.63358,-0.04557 -3.93162,-0.12913c-16.67935,-1.13175 -28.18908,-7.89943 -33.28368,-19.5587c-4.6294,-10.59588 -3.80406,-21.88295 -2.56605,-30.52676c0.26261,-1.80776 0.7278,-3.71425 1.17798,-5.56758c0.87786,-3.60791 1.79324,-7.33736 1.208,-10.25407c-0.17257,-0.49371 -0.85535,-2.26349 -1.4706,-3.83578c-1.56814,-4.01808 -2.70111,-6.95758 -3.03125,-8.15768c-2.44601,-8.84129 -4.39681,-17.62181 -1.44059,-27.86829c0.22509,-0.77475 0.47269,-1.5647 0.74281,-2.34704l0.11255,-0.42535c0.08253,-0.31142 0.16507,-0.62284 0.26261,-0.94186c2.9187,-9.48692 8.20087,-17.40154 14.48845,-21.70825c9.02621,-6.19802 19.05783,-9.60085 28.2266,-9.60085z"></path><path fill="#009ff9" data-paper-data="{&quot;guideItem&quot;:null,&quot;selected&quot;:false}" d="M13.37134,76.16118c-2.51353,-9.08435 -4.08918,-17.05974 -1.4481,-26.22004c0.21759,-0.76716 0.46519,-1.53431 0.7278,-2.30147c0.12755,-0.45574 0.22509,-0.90388 0.36765,-1.35961c2.31845,-7.53484 6.76778,-15.62417 13.31797,-20.10558c8.41846,-5.75747 19.16288,-9.79834 29.24702,-8.97042l3.24133,0.25825c0.11255,0.0076 0.18007,0.01519 0.18007,0.01519c10.08414,0.78235 20.07075,6.48665 27.48379,13.52019c5.76987,5.47643 8.90616,14.17341 10.02412,21.98169c1.05793,7.42851 0.4952,14.76587 -1.60566,21.76902c-0.71279,3.07622 -3.53395,11.11997 -3.90911,12.19095c-0.07503,0.49371 -0.14256,0.98743 -0.18007,1.48114c-0.18007,2.36983 0.68278,4.64851 1.12546,6.98037c1.13297,5.95496 2.97122,11.83396 3.37639,17.91045c0.51771,7.7855 -1.26802,18.24465 -5.95745,24.55661c-6.48266,8.72736 -17.90986,12.8062 -28.27912,13.81641c-1.50812,0.14432 -3.08377,0.22787 -4.59939,0.25066l-3.08377,0.04557c-0.06002,0 -0.12005,0.0076 -0.18007,0.0076c-1.51562,0.02279 -3.03125,-0.01519 -4.54687,-0.12153c-12.61268,-0.8583 -25.3154,-5.29414 -30.77015,-17.78132c-3.99914,-9.16031 -3.72903,-19.17891 -2.34096,-28.87851c0.75031,-5.21818 3.45892,-11.68205 2.33346,-16.97619c-0.06753,-0.45574 -3.98414,-10.09457 -4.52436,-12.06942z"></path></g><path style="mix-blend-mode: normal" text-anchor="none" font-size="none" font-weight="none" font-family="none" stroke-dashoffset="0" stroke-dasharray="" stroke-miterlimit="10" stroke-linejoin="miter" stroke-linecap="butt" stroke-width="1" stroke="none" fill-rule="nonzero" fill="#009ff8" data-paper-data="{&quot;guideItem&quot;:null,&quot;selected&quot;:false}" d="M55.57618,17.20406c0,0 0.07503,0.0076 0.18007,0.01519z"></path><g style="mix-blend-mode: normal" text-anchor="none" font-size="none" font-weight="none" font-family="none" stroke-dashoffset="0" stroke-dasharray="" stroke-miterlimit="10" stroke-linejoin="miter" stroke-linecap="butt" stroke-width="1" stroke="none" fill-rule="nonzero" fill="none" data-paper-data="{&quot;selected&quot;:false}"><path fill="#ffffff" data-paper-data="{&quot;guideItem&quot;:null,&quot;selected&quot;:false}" d="M75.3168,117.79272c1.64318,-5.27895 1.96581,-10.62626 2.39348,-16.34575c0.18758,-2.52934 0.71279,-11.73522 5.57479,-9.25145c1.76322,0.89628 2.30345,3.82059 2.79115,5.5448c1.05793,3.75983 1.55314,7.63359 1.50062,11.47697c-0.05252,4.30671 -0.77282,8.52987 -1.98081,12.60112c-2.52854,-1.53431 -6.10001,-3.19775 -10.27922,-4.02567z"></path><path fill="#0088c5" data-paper-data="{&quot;guideItem&quot;:null,&quot;selected&quot;:false}" d="M64.94753,134.00175c0.05252,-0.04557 0.10504,-0.09115 0.15006,-0.14432c1.34305,-1.23808 2.51353,-2.47617 3.57897,-3.75223c1.51562,-1.81535 2.79115,-3.71425 3.92411,-5.84102c0.55523,-1.04819 1.08044,-2.14956 1.58315,-3.32688c0.45019,-1.04819 0.81033,-2.10398 1.13297,-3.15218c4.17922,0.82792 7.75069,2.49136 10.28673,4.01808c-0.58524,1.96726 -1.27552,3.90414 -2.07835,5.78785c-2.29594,5.3701 -5.29718,11.37063 -9.67898,15.3963c-2.13088,1.95967 -5.29718,2.78759 -8.21588,1.7242c-0.60775,-0.22027 -1.17798,-0.49371 -1.65818,-0.79754c-1.74822,-1.09377 -3.08377,-2.90152 -2.88118,-4.92196c0.03752,-0.40257 0.15756,-0.75956 0.30012,-1.10896c0.66777,-1.61027 2.28844,-2.69644 3.55646,-3.88136z"></path><path fill="#000000" d="M81.75444,91.77016c-3.44392,0 -3.87909,7.4361 -4.04416,9.66921c-0.42768,5.71949 -0.75031,11.0668 -2.39348,16.34575c-0.33014,1.05579 -0.69028,2.10398 -1.13297,3.15218c-0.50271,1.17732 -1.02042,2.27868 -1.58315,3.32688c-1.13297,2.12677 -2.40849,4.01808 -3.92411,5.84102c-1.06544,1.27606 -2.23592,2.50655 -3.57897,3.75223c-0.05252,0.04557 -0.10504,0.09115 -0.15006,0.14432c-1.26052,1.18492 -2.88869,2.27109 -3.55646,3.88895c-0.14256,0.3494 -0.2551,0.70639 -0.30012,1.10896c-0.20258,2.02043 1.13297,3.83578 2.88118,4.92196c0.4802,0.29623 1.05043,0.57727 1.65818,0.79754c0.87036,0.31902 1.77073,0.46333 2.64859,0.46333c2.07085,0 4.06667,-0.82033 5.56729,-2.18754c4.3818,-4.01808 7.39054,-10.01861 9.67898,-15.3963c0.80283,-1.88371 1.49311,-3.82059 2.07835,-5.78785c1.208,-4.07125 1.92829,-8.29441 1.98081,-12.60112c0.04502,-3.84338 -0.44268,-7.70954 -1.50062,-11.47697c-0.4877,-1.7318 -1.02792,-4.64851 -2.79115,-5.5448c-0.57023,-0.28863 -1.08044,-0.41776 -1.53813,-0.41776M81.75444,88.76989c0.93789,0 1.90578,0.25066 2.86618,0.74437c2.72362,1.39 3.57147,4.61054 4.1342,6.7449l0.18007,0.66082c1.12546,3.99529 1.66568,8.14249 1.62067,12.33527c-0.05252,4.39026 -0.75781,8.90965 -2.10837,13.42904c-0.62276,2.10398 -1.36556,4.16239 -2.1984,6.11447c-2.24342,5.26376 -5.46224,11.88713 -10.41428,16.4293c-2.05584,1.88371 -4.80948,2.96988 -7.55561,2.96988c-1.25301,0 -2.48352,-0.22027 -3.654,-0.64563c-0.78782,-0.28863 -1.54564,-0.65322 -2.20591,-1.06339c-2.93371,-1.83054 -4.57688,-4.81562 -4.27676,-7.7855c0.06753,-0.65322 0.2326,-1.29125 0.51021,-1.96726c0.78782,-1.8989 2.25843,-3.17496 3.44392,-4.19278c0.28512,-0.24306 0.57023,-0.48612 0.83284,-0.73677l0.16507,-0.15191c1.2155,-1.12415 2.30345,-2.26349 3.31636,-3.47119c1.38057,-1.64825 2.55105,-3.39524 3.57897,-5.32452c0.51021,-0.96464 0.99041,-1.97486 1.4706,-3.09141c0.35264,-0.82033 0.67528,-1.73939 1.03543,-2.87114c1.4481,-4.65611 1.81575,-9.54768 2.1984,-14.72789l0.06753,-0.94186l0.01501,-0.22027c0.2401,-3.35726 0.88536,-12.23653 6.97787,-12.23653z"></path></g><g style="mix-blend-mode: normal" text-anchor="none" font-size="none" font-weight="none" font-family="none" stroke-dashoffset="0" stroke-dasharray="" stroke-miterlimit="10" stroke-linejoin="miter" stroke-linecap="butt" stroke-width="1" stroke="none" fill-rule="none" fill="none" data-paper-data="{&quot;selected&quot;:false}"><path fill-rule="evenodd" fill="#ffffff" data-paper-data="{&quot;guideItem&quot;:null,&quot;selected&quot;:false}" d="M7.1963,78.2044c5.13961,6.45627 15.27628,10.83134 27.11614,11.73522c29.31455,2.17994 44.5383,-6.63097 46.54163,-26.97201c0.27011,-2.87874 1.26052,-17.71296 -7.33802,-27.99742c-5.16212,-6.18283 -12.87529,-9.66162 -22.8844,-10.33003c-34.43165,-2.37743 -37.14777,23.41726 -37.24531,24.51863c-0.05252,0.62284 -0.4952,1.15453 -1.08795,1.32923c-0.32263,0.07596 -7.73568,2.22551 -9.07123,11.85675c-0.87786,6.12206 0.4877,11.47697 3.96913,15.85963z"></path><path fill-rule="nonzero" fill="#000000" d="M0.27846,61.91181c1.33555,-9.55528 7.7882,-13.01128 10.27922,-14.0139c0.76531,-4.98272 5.88242,-26.42513 35.66216,-26.42513c1.4556,0 2.99373,0.05317 4.59939,0.15191c10.84946,0.75197 19.25291,4.58015 24.94025,11.38582c9.14626,10.96046 8.45598,25.92382 8.0358,30.25331c-1.98081,20.14356 -15.42634,30.00266 -41.02686,30.00266c-2.76864,0 -5.65732,-0.12153 -8.67356,-0.3494c-12.83027,-0.94945 -23.45464,-5.62835 -29.21701,-12.83658c-4.00665,-5.05868 -5.56729,-11.16555 -4.59939,-18.1687zM80.85407,62.96001c0.27011,-2.87874 1.26052,-17.71296 -7.33802,-27.99742c-5.16212,-6.18283 -12.87529,-9.66162 -22.8844,-10.33003c-34.43165,-2.37743 -37.14777,23.41726 -37.24531,24.51863c-0.05252,0.62284 -0.4952,1.15453 -1.08795,1.32923c-0.32263,0.07596 -7.73568,2.22551 -9.07123,11.85675c-0.86285,6.12966 0.4952,11.48456 3.97663,15.85963c5.13961,6.45627 15.27628,10.83134 27.11614,11.73522c29.30704,2.17994 44.5308,-6.62337 46.53412,-26.97201z"></path><path fill-rule="evenodd" fill="#ffbeb8" data-paper-data="{&quot;guideItem&quot;:null,&quot;selected&quot;:false}" d="M37.57629,65.72481c-0.14256,6.12966 4.39681,11.21872 10.14417,11.35544c5.74736,0.13672 10.52683,-4.71687 10.66938,-10.84653c0.14256,-6.12966 -4.39681,-11.21112 -10.14417,-11.35544c-5.74736,-0.14432 -10.52683,4.71687 -10.66938,10.84653"></path><path fill-rule="evenodd" fill="#ffbeb8" data-paper-data="{&quot;guideItem&quot;:null,&quot;selected&quot;:false}" d="M3.77489,60.87122c0.51771,-2.0812 2.95621,-9.06156 6.31009,-6.55501c4.52436,3.38005 2.431,11.97828 0.18758,16.24701c-0.88536,1.67863 -2.47602,3.64589 -4.70443,3.22054c-1.26052,-0.23546 -1.72571,-2.65087 -1.89078,-3.47879c-0.63026,-3.09141 -0.66777,-6.34993 0.09754,-9.43375z"></path></g><g style="mix-blend-mode: normal" text-anchor="none" font-size="none" font-weight="none" font-family="none" stroke-dashoffset="0" stroke-dasharray="" stroke-miterlimit="10" stroke-linejoin="miter" stroke-linecap="butt" stroke-width="1" stroke="none" fill-rule="none" fill="none" data-paper-data="{&quot;selected&quot;:false}"><path fill-rule="evenodd" fill="#000000" data-paper-data="{&quot;guideItem&quot;:null,&quot;selected&quot;:false}" d="M19.71895,60.13444c-0.02251,0.79754 0.79533,1.46595 1.83826,1.48874c1.04293,0.02279 1.89828,-0.60005 1.91329,-1.39759c0.02251,-0.78994 -0.80283,-1.46595 -1.84576,-1.48874c-1.04293,-0.02279 -1.89078,0.60765 -1.90578,1.39759"></path><path fill-rule="evenodd" fill="#000000" data-paper-data="{&quot;guideItem&quot;:null,&quot;selected&quot;:false}" d="M17.10037,58.34947v0c1.08044,0.02279 1.98081,-1.02541 2.01083,-2.34704l0.0075,-0.33421c0.03001,-1.32164 -0.81784,-2.423 -1.89828,-2.44579c-1.08044,-0.02279 -1.98081,1.02541 -2.01833,2.34704l-0.0075,0.33421c-0.03001,1.32164 0.82534,2.4154 1.90578,2.44579"></path><path fill-rule="evenodd" fill="#000000" data-paper-data="{&quot;guideItem&quot;:null,&quot;selected&quot;:false}" d="M33.84725,58.75964v0c1.26802,0.03038 2.32596,-1.01781 2.35597,-2.33945l0.0075,-0.33421c0.03001,-1.32164 -0.9754,-2.423 -2.24342,-2.45338c-1.26802,-0.03038 -2.32596,1.01781 -2.36347,2.33945l-0.0075,0.33421c-0.03001,1.32164 0.9754,2.423 2.25093,2.45338"></path><path fill-rule="nonzero" fill="#231815" data-paper-data="{&quot;guideItem&quot;:null,&quot;selected&quot;:false}" d="M13.16875,63.18028c0.35264,-0.59246 1.11796,-0.77475 1.6957,-0.41016c0.58524,0.36459 0.76531,1.13175 0.40517,1.71661c-0.04502,0.07596 -0.14256,0.23546 0.27761,0.74437c0.86285,1.0406 1.98832,1.17732 2.64859,1.14694c1.17048,-0.03798 2.28844,-0.60765 2.9187,-1.48114c0.04502,-0.06076 0.10504,-0.09115 0.15006,-0.14432c0.05252,-0.05317 0.09004,-0.11393 0.15006,-0.15191c0.0075,-0.0076 0.02251,-0.0076 0.03001,-0.01519c0.08253,-0.05317 0.16507,-0.07596 0.2551,-0.10634c0.06753,-0.02279 0.12005,-0.06076 0.18758,-0.06836c0.08253,-0.01519 0.16507,-0.0076 0.2476,0c0.07503,0 0.15006,-0.0076 0.22509,0.0076c0.06753,0.01519 0.13506,0.05317 0.20258,0.08355c0.08253,0.03038 0.16507,0.06076 0.2401,0.11393c0.0075,0.0076 0.02251,0.0076 0.03001,0.01519c0.06002,0.04557 0.09754,0.11393 0.15006,0.1671c0.04502,0.04557 0.10504,0.08355 0.14256,0.14432c1.76322,2.61289 6.62522,3.23573 9.64146,1.22289c0.69779,-0.46333 1.10295,-0.8735 1.26802,-1.09377c-0.22509,-0.48612 -0.12755,-1.07858 0.28512,-1.45836c0.50271,-0.46333 1.28303,-0.42535 1.74822,0.08355c0.39766,0.44055 0.57774,1.00262 0.50271,1.58748c-0.12005,0.97224 -0.93789,1.97486 -2.44601,2.96988c-1.64318,1.09377 -3.61649,1.61027 -5.55978,1.61027c-2.46101,0 -4.83199,-0.8659 -6.46766,-2.423c-1.05043,0.8735 -2.40099,1.39759 -3.82657,1.45076c-0.06753,0 -0.13506,0 -0.21009,0c-1.74072,0 -3.33887,-0.73677 -4.41932,-2.04322c-1.34305,-1.64825 -0.87786,-3.00786 -0.47269,-3.66868z"></path></g>
               </svg>