<svg viewBox="0 0 110 200" xml:space="preserve" xmlns:xlink="http://www.w3.org/1999/xlink" xmlns="http://www.w3.org/2000/svg">
                    <g style="mix-blend-mode: normal" text-anchor="none" font-size="none" font-weight="none" font-family="none" stroke-dashoffset="0" stroke-dasharray="" stroke-miterlimit="10" stroke-linejoin="miter" stroke-linecap="butt" stroke-width="1" stroke="none" fill-rule="none" fill="none" data-paper-data="{&quot;selected&quot;:false}"><path fill-rule="evenodd" fill="#009ff9" data-paper-data="{&quot;guideItem&quot;:null,&quot;selected&quot;:false}" d="M50.70251,159.5176v29.01629c0,1.83602 -2.27941,3.33003 -4.15951,3.69004v0.099h-8.8348c-3.28601,0 -7.27914,0.51301 -9.72493,-2.53803c-1.6638,-2.06102 -1.19794,-6.20106 -0.14142,-8.46908c1.95497,-4.16704 5.6403,-7.23607 9.86636,-8.22608c0,0 0.19134,-0.027 0.23293,-0.054c1.19794,-0.252 2.21286,-0.306 3.12795,-0.306v-13.21213c0,0 0,0 0.00832,-0.009v0.315c0,0 2.06312,0.55801 4.80839,0.55801c2.73696,0 4.80007,-0.55801 4.80007,-0.55801v-0.315c0.00832,0 0.01664,0.009 0.01664,0.009z"></path><path fill-rule="nonzero" fill="#000000" d="M50.68587,148.86149c-1.1813,-0.84601 -2.58722,-1.33201 -3.9349,-1.33201c-1.32272,0 -3.75188,0.59401 -5.67357,1.89002c-1.58893,1.08001 -2.82847,2.63703 -2.82847,4.75205v15.72316c-0.3078,0.045 -0.63225,0.108 -0.96501,0.18l-0.18302,0.045c-5.03301,1.17901 -9.43377,4.85105 -11.77141,9.8281c-1.38096,2.93403 -2.12967,8.55009 0.53242,11.85312c2.56226,3.17703 6.13944,3.60004 9.30898,3.60004c0.44923,0 0.90677,-0.009 1.34768,-0.009c0.39931,-0.009 0.79863,-0.018 1.1813,-0.018h8.84312c0.43259,0 0.84022,-0.117 1.20626,-0.306c2.91998,-0.83701 5.7734,-3.26703 5.7734,-6.52507v-34.37134c0,-2.26802 -1.19794,-4.14004 -2.83679,-5.31005zM50.71083,188.54289c0,1.80902 -2.29605,3.32103 -4.16783,3.69004v0.09h-8.84312c-0.81526,0 -1.6638,0.036 -2.52898,0.036c-2.63713,0 -5.34913,-0.288 -7.18763,-2.56503c-1.6638,-2.07002 -1.19794,-6.21006 -0.14142,-8.46908c1.95497,-4.16704 5.63198,-7.23607 9.85804,-8.22608c0,0 0.19134,-0.045 0.23293,-0.054c1.11475,-0.243 2.06312,-0.306 2.93661,-0.306h0.19966v-18.56719c0,-0.063 0,-0.126 0.00832,-0.189c0.23293,-1.89902 3.8933,-3.41103 5.67357,-3.41103c1.75531,0 3.77683,1.48501 3.9349,3.35703c0.01664,0.081 0.01664,0.162 0.01664,0.243v3.63604h0.00832z"></path><path fill-rule="nonzero" fill="#ffffff" data-paper-data="{&quot;guideItem&quot;:null,&quot;selected&quot;:false}" d="M50.68587,153.92854v5.89506c0,0 -2.06312,0.55801 -4.80007,0.55801c-2.74528,0 -4.80839,-0.55801 -4.80839,-0.55801v-5.84106c0.23293,-1.89902 3.8933,-3.41103 5.67357,-3.41103c1.75531,0 3.77683,1.48501 3.9349,3.35703z"></path></g><g style="mix-blend-mode: normal" text-anchor="none" font-size="none" font-weight="none" font-family="none" stroke-dashoffset="0" stroke-dasharray="" stroke-miterlimit="10" stroke-linejoin="miter" stroke-linecap="butt" stroke-width="1" stroke="none" fill-rule="nonzero" fill="none" data-paper-data="{&quot;selected&quot;:false}"><path fill="#ffffff" data-paper-data="{&quot;guideItem&quot;:null,&quot;selected&quot;:false}" d="M103.24544,102.38502c-1.90506,2.07902 -5.63198,4.51805 -9.13428,4.29304c-0.77367,-2.35802 -1.76363,-4.67105 -2.96157,-6.88507c-1.26449,-2.34002 -11.90452,-15.16515 -5.30753,-16.58717c1.76363,-0.378 3.7602,1.47601 5.04964,2.46602c5.82331,4.52705 9.81644,10.2871 12.35374,16.71317z"></path><path fill="#0088c5" data-paper-data="{&quot;guideItem&quot;:null,&quot;selected&quot;:false}" d="M105.07562,130.98731c-0.6572,0.93601 -1.85514,1.67402 -3.07804,2.10602c-0.56569,0.207 -1.12307,0.333 -1.64717,0.378c-1.24785,0.153 -2.20454,-0.027 -2.93661,-0.459c-0.68216,-0.405 -1.17298,-1.07101 -1.48079,-1.82702c-0.63225,-1.50302 -0.6572,-3.45603 -0.54074,-5.25605c0.09151,-1.42201 0.20798,-2.79003 0.3078,-4.14004c0.25789,-3.27603 0.3494,-6.42606 -0.42427,-9.8821c-0.06655,-0.279 -0.3078,-1.80002 -0.59065,-3.27603c-0.19134,-0.65701 -0.37436,-1.32301 -0.60729,-1.95302h0.02496c3.47735,0.225 7.20427,-2.18702 9.10933,-4.26604c0.02496,0 0.02496,-0.027 0.02496,-0.027c0,0 0,0 0.02496,0c0.02496,0 0.04991,0 0.06655,0.054c0.37436,0.53101 1.40591,4.23904 1.76363,5.53506c0.06655,0.207 0.09151,0.36 0.11647,0.405c0.63225,2.41202 1.08147,4.87805 1.38928,7.36207c0.59065,4.80605 1.46415,10.88111 -1.52238,15.24615z"></path><path fill="#000000" d="M109.46806,115.90316l-0.06655,-0.55801c-0.33276,-2.66403 -0.82358,-5.31005 -1.45583,-7.77608c-0.91509,-3.48303 -1.50574,-5.74206 -2.37092,-6.98407c-2.8867,-7.08307 -7.27914,-12.93313 -13.02758,-17.37917l-0.49082,-0.378c-1.43087,-1.17001 -3.37752,-2.71803 -5.7318,-2.71803c-0.3494,0 -0.70712,0.027 -1.03156,0.099c-2.67872,0.58501 -3.68533,2.41202 -4.05968,3.45603c-1.48079,4.23904 2.11303,9.9091 6.27254,15.84916c0.51578,0.71101 1.10643,1.54802 1.24785,1.82702c1.31441,2.41202 2.39588,5.13005 3.21946,8.05508c0.16638,0.81001 0.3078,1.64702 0.42427,2.23202c0.06655,0.50401 0.14142,0.86401 0.16638,0.99001c0.79863,3.58204 0.54074,6.85807 0.23293,10.64711c-0.06655,0.78301 -0.14142,1.62902 -0.19134,2.46602c-0.28285,3.96004 0.37436,6.80407 1.97161,8.65809c0.86518,1.01701 2.42083,2.21402 4.97477,2.21402c0.37436,0 0.74871,-0.027 1.14802,-0.072c0.70712,-0.099 1.45583,-0.279 2.17958,-0.53101c1.12307,-0.405 3.1945,-1.35001 4.45899,-3.20403c3.56054,-5.18405 2.72032,-11.97012 2.12967,-16.89317zM105.07562,130.98731c-0.6572,0.93601 -1.85514,1.67402 -3.07804,2.10602c-0.56569,0.207 -1.12307,0.333 -1.64717,0.378c-0.28285,0.054 -0.56569,0.072 -0.82358,0.072c-0.86518,0 -1.54734,-0.207 -2.11303,-0.53101c-0.68216,-0.405 -1.17298,-1.07101 -1.48079,-1.82702c-0.63225,-1.50302 -0.68216,-3.48303 -0.56569,-5.25605c0.09151,-1.42201 0.23293,-2.79003 0.33276,-4.14004c0.25789,-3.27603 0.3494,-6.42606 -0.42427,-9.8821c-0.06655,-0.279 -0.3078,-1.80002 -0.59065,-3.27603c-0.19134,-0.65701 -0.37436,-1.32301 -0.60729,-1.95302c-0.77367,-2.38502 -1.73868,-4.69805 -2.93661,-6.88507c-1.26449,-2.34002 -11.90452,-15.16515 -5.30753,-16.58717c0.14142,-0.054 0.3078,-0.054 0.46587,-0.054c1.64717,0 3.40248,1.62902 4.57546,2.51103c5.84827,4.51805 9.81644,10.2871 12.32879,16.74017c0.02496,0 0.02496,-0.027 0.02496,-0.027c0,0 0,0 0.02496,0c0.02496,0 0.04991,0 0.06655,0.054c0.39931,0.378 1.43087,4.22104 1.76363,5.53506c0.06655,0.207 0.09151,0.36 0.11647,0.405c0.63225,2.41202 1.08147,4.87805 1.38928,7.36207c0.59897,4.81505 1.47247,10.89011 -1.51406,15.25515z"></path></g><g style="mix-blend-mode: normal" text-anchor="none" font-size="none" font-weight="none" font-family="none" stroke-dashoffset="0" stroke-dasharray="" stroke-miterlimit="10" stroke-linejoin="miter" stroke-linecap="butt" stroke-width="1" stroke="none" fill-rule="nonzero" fill="none" data-paper-data="{&quot;selected&quot;:false}"><path fill="#000000" d="M21.88543,90.0369c0.11647,0 0.23293,0.009 0.3494,0.027c6.63858,1.04401 -3.35256,14.48114 -4.50059,16.86617c-0.96501,1.99802 -1.74699,4.07704 -2.37924,6.20106c-0.0416,0.126 -0.06655,0.252 -0.09983,0.387c-0.24125,0.85501 -0.45755,1.71002 -0.6572,2.58303c-0.07487,0.351 -0.14142,0.69301 -0.21629,1.04401c-0.09983,0.486 -0.18302,0.97201 -0.26621,1.45801c-0.75703,4.76105 -0.64888,9.5221 0.3494,14.50815c0.74039,3.70804 0.90677,8.02808 -3.74356,8.02808c-0.1747,0 -0.3494,-0.009 -0.54074,-0.018c-0.51578,-0.036 -1.08147,-0.135 -1.64717,-0.306c-1.23953,-0.36 -2.47907,-1.01701 -3.16955,-1.92602c-3.20282,-4.19404 -2.62049,-10.3141 -2.27941,-15.12915c0.1747,-2.50203 0.50746,-4.98605 1.02324,-7.43407c0.11647,-0.54901 1.26449,-6.09306 1.67212,-6.09306v0c0.01664,0 0.0416,0.009 0.06655,0.009c2.17958,-6.57907 5.83995,-12.56413 11.45529,-17.40617c1.17298,-1.01701 2.91166,-2.79903 4.58378,-2.79903M21.88543,86.98587c-2.46243,0 -4.51723,1.83602 -5.87323,3.05103l-0.46587,0.414c-5.49887,4.74305 -9.55855,10.78211 -12.07922,17.97318c-0.8735,1.31401 -1.37264,3.68104 -2.10471,7.23607c-0.5241,2.51103 -0.88182,5.15705 -1.08147,7.86608l-0.0416,0.54901c-0.35772,4.96805 -0.84854,11.77212 2.95325,16.75817c1.356,1.77302 3.47735,2.60103 4.61706,2.93403c0.74039,0.216 1.50574,0.351 2.21286,0.396c0.24957,0.018 0.4825,0.027 0.70712,0.027c2.98653,0 4.63369,-1.35901 5.48223,-2.50203c2.0132,-2.70003 1.54734,-6.55207 1.01492,-9.21609c-0.91509,-4.59005 -1.02324,-8.96409 -0.32444,-13.35613c0.07487,-0.423 0.14974,-0.87301 0.24125,-1.32301c0.06655,-0.342 0.1331,-0.65701 0.19966,-0.98101c0.1747,-0.80101 0.38267,-1.60202 0.60729,-2.39402l0.07487,-0.27c0.61561,-2.08802 1.356,-4.01404 2.21286,-5.80506c0.1331,-0.27 0.67384,-1.13401 1.14802,-1.89902c3.85171,-6.15606 7.17099,-12.03312 5.47391,-16.18216c-0.41595,-1.01701 -1.51406,-2.79003 -4.21774,-3.21303c-0.24957,-0.045 -0.49914,-0.063 -0.75703,-0.063z"></path><path fill="#ffffff" data-paper-data="{&quot;guideItem&quot;:null,&quot;selected&quot;:false}" d="M14.37335,117.11817c0.14974,-0.78301 0.34108,-1.57502 0.54074,-2.36702c-0.19134,0.78301 -0.38267,1.57502 -0.54074,2.36702z"></path><path fill="#ffffff" data-paper-data="{&quot;guideItem&quot;:null,&quot;selected&quot;:false}" d="M17.73424,106.93007c-1.07315,2.23202 -1.92169,4.57205 -2.5789,6.96607c0.07487,-0.279 0.14974,-0.56701 0.23293,-0.84601c-3.45239,-1.85402 -6.94638,-2.59203 -9.55855,-2.81703c2.17958,-6.60607 5.87323,-12.57313 11.48025,-17.39717c1.24785,-1.08901 3.14459,-3.05103 4.93318,-2.77203c6.6469,1.04401 -3.36088,14.48114 -4.50891,16.86617z"></path><path fill="#ffffff" data-paper-data="{&quot;guideItem&quot;:null,&quot;selected&quot;:false}" d="M15.15534,113.90514c-0.07487,0.279 -0.15806,0.56701 -0.23293,0.84601c0.07487,-0.288 0.14974,-0.56701 0.23293,-0.84601z"></path><path fill="#0088c5" data-paper-data="{&quot;guideItem&quot;:null,&quot;selected&quot;:false}" d="M14.47318,133.10233c0.77367,3.86104 0.91509,8.36108 -4.27598,8.02808c-0.51578,-0.054 -1.08147,-0.153 -1.64717,-0.306c-1.24785,-0.36 -2.48739,-1.01701 -3.1945,-1.93502c-3.1945,-4.19404 -2.60385,-10.3141 -2.27941,-15.13815c0.19134,-2.49302 0.51578,-4.97705 1.03156,-7.44307c0.11647,-0.53101 1.26449,-6.07506 1.6638,-6.07506c0.02496,0 0.02496,0 0.04991,0c2.60385,0.225 6.10616,0.96301 9.55855,2.81703c-0.39931,1.35001 -0.74871,2.71803 -1.0066,4.06804c-0.11647,0.61201 -0.20798,1.19701 -0.3078,1.78202c-0.6988,4.67105 -0.55737,9.32409 0.40763,14.20214z"></path></g><g style="mix-blend-mode: normal" text-anchor="none" font-size="none" font-weight="none" font-family="none" stroke-dashoffset="0" stroke-dasharray="" stroke-miterlimit="10" stroke-linejoin="miter" stroke-linecap="butt" stroke-width="1" stroke="none" fill-rule="none" fill="none" data-paper-data="{&quot;selected&quot;:false}"><path fill-rule="nonzero" fill="#ffffff" data-paper-data="{&quot;guideItem&quot;:null,&quot;selected&quot;:false}" d="M72.55657,135.73936v30.1143c0,0 -2.06312,0.55801 -4.81671,0.55801c-2.7536,0 -4.81671,-0.55801 -4.81671,-0.55801v-30.1143c0,-1.98002 4.45899,-3.60904 6.32245,-3.60904c1.8385,0 3.31097,1.62902 3.31097,3.60904z"></path><path fill-rule="evenodd" fill="#009ff9" data-paper-data="{&quot;guideItem&quot;:null,&quot;selected&quot;:false}" d="M85.64239,194.39294c-2.44579,3.02403 -6.41396,2.52003 -9.69998,2.52003h-8.85144v-0.072c-1.85514,-0.378 -4.15951,-1.88102 -4.15951,-3.68104v-27.28827c0,0 2.06312,0.55801 4.81671,0.55801c2.7536,0 4.81671,-0.55801 4.81671,-0.55801v11.48411c0.94005,-0.027 1.94665,0.054 3.14459,0.306c0.02496,0 0.23293,0.054 0.23293,0.054c4.22606,0.99001 7.89475,4.06804 9.8414,8.23508c1.08147,2.24102 1.5307,6.35406 -0.14142,8.44208z"></path><path fill-rule="nonzero" fill="#000000" d="M69.23729,132.14832c1.8385,0 3.32761,1.61102 3.32761,3.60004v26.65827v3.45603v11.47511c0.06655,0 0.1331,0 0.20798,0c0.86518,0 1.82187,0.072 2.92829,0.306c0.0416,0.009 0.23293,0.054 0.23293,0.054c4.22606,0.99001 7.90307,4.05904 9.85804,8.22608c1.05652,2.25902 1.52238,6.39906 -0.14142,8.46908c-1.8385,2.27702 -4.5505,2.56503 -7.17931,2.56503c-0.86518,0 -1.72204,-0.027 -2.52898,-0.027h-3.3692h-2.25445h-2.4042h-0.82358v-0.09c-1.87178,-0.369 -4.16783,-1.88102 -4.16783,-3.69004v-30.73531v0v-26.65827c0.00832,-2.00702 4.48395,-3.60904 6.31414,-3.60904M69.23729,129.09729c-1.93001,0 -9.12596,1.66502 -9.12596,6.65107v26.65827v30.73531c0,3.24903 2.86174,5.67906 5.7734,6.51607c0.36604,0.198 0.77367,0.306 1.20626,0.306h0.82358h2.4042h2.25445h3.3692c0.38267,0 0.78199,0.009 1.1813,0.018c0.44923,0.009 0.89845,0.018 1.34768,0.018c3.16123,0 6.74672,-0.432 9.30898,-3.60904c2.66209,-3.29403 1.91337,-8.91009 0.53242,-11.85312c-2.33764,-4.97705 -6.73841,-8.64909 -11.77141,-9.8281l-0.18302,-0.045c-0.33276,-0.072 -0.64888,-0.126 -0.96501,-0.18v-8.63109v-3.45603v-26.65827c-0.00832,-3.66304 -2.76191,-6.64207 -6.15607,-6.64207z"></path></g><g style="mix-blend-mode: normal" text-anchor="none" font-size="none" font-weight="none" font-family="none" stroke-dashoffset="0" stroke-dasharray="" stroke-miterlimit="10" stroke-linejoin="miter" stroke-linecap="butt" stroke-width="1" stroke="none" fill-rule="none" fill="none" data-paper-data="{&quot;selected&quot;:false}"><path fill-rule="evenodd" fill="#009ff9" data-paper-data="{&quot;guideItem&quot;:null,&quot;selected&quot;:false}" d="M96.60686,115.36315c0.37436,7.57808 -1.356,18.68419 -6.02297,25.19125c-5.50719,7.70408 -15.55657,12.72613 -27.55259,13.78814c-1.43087,0.126 -2.99485,0.18 -4.50059,0.18h-3.27769c-1.47247,0 -2.97821,-0.054 -4.45068,-0.18c-10.42373,-0.93601 -24.01701,-4.91405 -29.39941,-18.60319c-4.05136,-10.3141 -3.11963,-21.54622 -1.83018,-30.1593c0.23293,-1.70102 0.6988,-3.51904 1.17298,-5.47205c1.05652,-4.41004 2.17958,-8.97309 1.38096,-13.20313c-0.3494,-1.87202 -1.12307,-3.75304 -1.87178,-5.55306c-0.44923,-1.06201 -0.89014,-2.13302 -1.21458,-3.14103c-2.87838,-9.02709 -3.35256,-18.40518 -1.38096,-27.80128c1.89674,-9.04509 5.85659,-16.73117 10.87296,-21.03321c8.36061,-7.24507 18.08555,-11.37611 26.84548,-11.37611h3.27769c8.60187,0 18.29352,4.13104 26.68741,11.37611c5.01637,4.31104 8.97622,11.98812 10.87296,21.03321c2.08807,10.0081 1.52238,19.28719 -1.75531,29.25029c-0.84022,2.51103 -1.73036,5.52606 -1.98825,8.74809c-0.19134,2.05202 0.23293,3.97804 0.63225,5.83206c0.14142,0.68401 0.3078,1.39501 0.42427,2.07902c0.32444,2.13302 0.77367,4.25704 1.19794,6.39006c0.8319,4.11304 1.67212,8.39708 1.8801,12.65413z"></path><path fill-rule="nonzero" fill="#000000" d="M97.4554,102.03402c-0.42427,-2.07902 -0.84022,-4.15804 -1.17298,-6.26406c-0.14142,-0.73801 -0.28285,-1.49401 -0.44923,-2.23202c-0.37436,-1.70102 -0.6988,-3.29403 -0.58233,-4.86905c0.25789,-2.88903 1.08147,-5.67906 1.84682,-8.01008c3.41912,-10.3681 4.02641,-20.4752 1.84682,-30.95131c-2.03816,-9.6841 -6.37237,-17.99118 -11.8546,-22.73423c-8.87639,-7.65008 -19.23357,-12.04212 -28.41777,-12.04212h-3.49399c-9.20915,0 -19.56633,4.38304 -28.41777,12.04212c-5.50719,4.74305 -9.8414,13.05013 -11.8546,22.73423c-2.08807,9.9901 -1.58893,19.8992 1.47247,29.47529c0.3494,1.11601 0.82358,2.25902 1.31441,3.39303c0.68216,1.64702 1.38096,3.34803 1.68876,4.91405c0.6572,3.51904 -0.37436,7.73108 -1.356,11.80812c-0.49082,2.02502 -0.95669,3.95104 -1.23953,5.77806c-1.33936,9.02709 -2.29605,20.78121 2.03816,31.83332c4.68361,11.93412 15.67303,19.00819 31.77034,20.4302c1.52238,0.153 3.06972,0.225 4.84999,0.207h3.09468c1.58893,0 3.21114,-0.054 4.73352,-0.207c12.76969,-1.11601 23.54282,-6.56107 29.54084,-14.93115c5.13283,-7.17307 7.00461,-18.82819 6.6053,-27.22527c-0.20798,-4.48204 -1.09811,-8.86509 -1.96329,-13.14913zM58.53903,154.52255h-3.27769c-1.47247,0 -2.97821,-0.054 -4.45068,-0.18c-10.42373,-0.93601 -24.01701,-4.91405 -29.39941,-18.60319c-4.05136,-10.3141 -3.11963,-21.54622 -1.83018,-30.1593c0.23293,-1.70102 0.6988,-3.51904 1.17298,-5.47205c1.05652,-4.41004 2.17958,-8.97309 1.38096,-13.20313c-0.3494,-1.87202 -1.12307,-3.75304 -1.87178,-5.55306c-0.44923,-1.06201 -0.89014,-2.13302 -1.21458,-3.14103c-2.87838,-9.02709 -3.35256,-18.40518 -1.38096,-27.80128c1.89674,-9.04509 5.85659,-16.73117 10.87296,-21.03321c8.36061,-7.24507 18.08555,-11.37611 26.84548,-11.37611h3.27769c8.60187,0 18.29352,4.13104 26.68741,11.37611c5.01637,4.31104 8.97622,11.98812 10.87296,21.03321c2.08807,10.0081 1.52238,19.28719 -1.75531,29.25029c-0.84022,2.51103 -1.73036,5.52606 -1.98825,8.74809c-0.19134,2.05202 0.23293,3.97804 0.63225,5.83206c0.14142,0.68401 0.3078,1.39501 0.42427,2.07902c0.32444,2.13302 0.77367,4.25704 1.19794,6.39006c0.84022,4.13104 1.68876,8.41508 1.89674,12.67213c0.37436,7.57808 -1.356,18.68419 -6.02297,25.19125c-5.50719,7.70408 -15.55657,12.72613 -27.55259,13.78814c-1.44751,0.117 -3.0198,0.162 -4.51723,0.162z"></path></g><g style="mix-blend-mode: normal" text-anchor="none" font-size="none" font-weight="none" font-family="none" stroke-dashoffset="0" stroke-dasharray="" stroke-miterlimit="10" stroke-linejoin="miter" stroke-linecap="butt" stroke-width="1" stroke="none" fill-rule="nonzero" fill="none" data-paper-data="{&quot;selected&quot;:false}"><path fill="#ffffff" data-paper-data="{&quot;guideItem&quot;:null,&quot;selected&quot;:false}" d="M37.33385,3.98704c-2.72032,-1.08901 -5.74012,-1.30501 -8.81816,-0.261c-4.13455,1.39501 -7.75333,4.28404 -10.75649,7.71308c-0.24957,0.27 -0.43259,0.486 -0.53242,0.60301c-0.94005,1.11601 -1.50574,2.46602 -1.71372,3.87004c-0.34108,2.34002 0.32444,4.83305 1.97161,6.59707c2.63713,2.82603 6.8216,2.71803 9.34226,-0.243c0.00832,-0.009 0.00832,-0.009 0.01664,-0.018c0.74039,-0.86401 1.73868,-1.82702 2.82015,-2.70903c-0.00832,-0.036 -0.02496,-0.063 -0.03328,-0.09c3.13627,-2.69103 7.13772,-4.58105 10.16584,-1.26901c0.76535,0.83701 1.44751,1.74602 2.15463,2.63703c0.3494,0.45 0.57401,0.89101 1.15634,0.97201c0.79031,0.108 1.63053,-0.243 2.33764,-0.56701c0.66552,-0.315 1.55566,-0.65701 2.09639,-1.17001c0.8735,-0.82801 0.24125,-2.62803 0.01664,-3.59104c-1.28945,-5.53506 -5.24098,-10.4761 -10.22407,-12.47412z"></path><path fill="#000000" d="M50.37807,16.04716l-0.09151,-0.333c-1.52238,-6.56107 -6.23095,-12.26712 -11.97107,-14.57115c-1.87178,-0.75601 -3.81843,-1.14301 -5.74012,-1.14301c-1.6638,0 -3.30265,0.279 -4.8999,0.81001c-4.05136,1.39501 -7.91971,4.07704 -11.48025,8.01008c-0.16638,0.153 -0.3078,0.333 -0.46587,0.50401c-0.23293,0.279 -0.44923,0.50401 -0.56569,0.63001c-1.28945,1.54802 -2.12967,3.42003 -2.41252,5.47205c-0.51578,3.39303 0.54074,6.84007 2.76191,9.22509c1.75531,1.89902 4.07632,2.94303 6.53875,2.94303c2.10471,0 4.16783,-0.81001 5.80668,-2.25902c0.3494,-0.279 0.68216,-0.58501 0.98164,-0.93601v-0.027l0.06655,-0.054c0.63225,-0.75601 1.52238,-1.59302 2.46243,-2.38502l1.47247,-1.18801l-0.02496,-0.054c1.21458,-0.81001 2.34596,-1.26901 3.21114,-1.26901c0.68216,0 1.21458,0.279 1.78027,0.86401c0.54074,0.61201 1.05652,1.26901 1.61389,1.98002l0.37436,0.50401l0.11647,0.153c0.39931,0.53101 1.21458,1.64702 2.86174,1.87202c0.22461,0.045 0.43259,0.045 0.64056,0.045c1.19794,0 2.27109,-0.432 3.13627,-0.83701l0.32444,-0.153c0.77367,-0.333 1.71372,-0.75601 2.50402,-1.52102c2.12135,-1.97102 1.32272,-4.98605 0.99828,-6.28206zM47.54128,20.0522c-0.54074,0.50401 -1.43087,0.86401 -2.08807,1.17001c-0.60729,0.279 -1.33936,0.58501 -2.03816,0.58501c-0.09151,0 -0.20798,0 -0.3078,-0.027c-0.58233,-0.072 -0.79863,-0.50401 -1.14802,-0.96301c-0.6988,-0.89101 -1.38096,-1.80002 -2.15463,-2.63703c-1.14802,-1.26901 -2.43747,-1.77302 -3.76852,-1.77302c-2.17958,0 -4.45068,1.36801 -6.39733,3.04203c0,0.027 0.02496,0.072 0.02496,0.099c-0.79863,0.65701 -1.57229,1.36801 -2.20454,2.05202c-0.20798,0.207 -0.42427,0.432 -0.60729,0.65701h-0.02496c-0.32444,0.378 -0.68216,0.71101 -1.05652,1.01701c-0.37436,0.279 -0.74871,0.53101 -1.17298,0.71101c-2.34596,1.08901 -5.15779,0.61201 -7.09612,-1.46701h-0.02496c-0.16638,-0.18 -0.32444,-0.378 -0.46587,-0.58501c-0.77367,-1.01701 -1.26449,-2.20502 -1.47247,-3.47403c-0.14142,-0.83701 -0.14142,-1.70102 -0.02496,-2.53803c0,-0.054 0.02496,-0.126 0.04991,-0.18c0.04991,-0.351 0.11647,-0.68401 0.25789,-1.03501c0.02496,-0.207 0.09151,-0.405 0.19134,-0.58501c0.16638,-0.459 0.39931,-0.89101 0.6572,-1.29601c0.16638,-0.279 0.3494,-0.53101 0.56569,-0.78301c0.16638,-0.207 0.54074,-0.63001 1.09811,-1.21501c0.11647,-0.126 0.23293,-0.252 0.37436,-0.378l0.02496,-0.054c1.17298,-1.26901 2.48739,-2.45702 3.84339,-3.47403c1.83018,-1.36801 3.81843,-2.48402 5.9481,-3.19503c1.356,-0.459 2.72032,-0.68401 4.05136,-0.68401c1.63885,0 3.25274,0.333 4.75848,0.93601c4.99141,1.99802 8.95126,6.94807 10.24071,12.47412c0.22461,0.96301 0.8319,2.76303 -0.03328,3.60004z"></path><path fill="#673101" data-paper-data="{&quot;guideItem&quot;:null,&quot;selected&quot;:false}" d="M29.66371,19.5482c-0.79863,0.65701 -1.57229,1.36801 -2.20454,2.05202c-0.20798,0.207 -0.42427,0.432 -0.60729,0.65701h-0.02496c-0.32444,0.378 -0.68216,0.71101 -1.05652,1.01701c-0.37436,0.279 -0.77367,0.50401 -1.17298,0.71101c-2.34596,1.08901 -5.15779,0.61201 -7.09612,-1.46701c-0.16638,-0.18 -0.32444,-0.378 -0.49082,-0.58501c-0.77367,-1.01701 -1.26449,-2.20502 -1.47247,-3.47403c-0.14142,-0.89101 -0.14142,-1.80002 0.02496,-2.70903c0.04991,-0.351 0.11647,-0.68401 0.25789,-1.03501c0.02496,-0.207 0.09151,-0.405 0.19134,-0.58501c0.16638,-0.459 0.39931,-0.89101 0.6572,-1.29601c0.16638,-0.279 0.3494,-0.53101 0.56569,-0.78301c0.16638,-0.207 0.54074,-0.63001 1.09811,-1.21501c0.11647,-0.126 0.23293,-0.252 0.37436,-0.378c0.14142,-0.153 0.28285,-0.279 0.42427,-0.432c-0.14142,0.126 -0.25789,0.252 -0.39931,0.378c1.17298,-1.26901 2.48739,-2.45702 3.84339,-3.47403c0.11647,0.027 0.23293,0.054 0.32444,0.126c0.14142,0.027 0.25789,0.072 0.37436,0.126c0.04991,0.027 0.06655,0.054 0.09151,0.054c0.11647,0.072 0.23293,0.126 0.32444,0.207c0.3078,0.225 0.56569,0.53101 0.77367,0.89101c0.37436,0.65701 0.51578,1.52102 0.32444,2.35802c-0.16638,0.71101 -0.56569,1.24201 -1.05652,1.64702c0.56569,-0.333 1.21458,-0.459 1.87178,-0.279c1.40591,0.432 2.27109,2.05202 1.89674,3.65404c-0.19134,0.78301 -0.63225,1.39501 -1.21458,1.80002c0.49082,-0.18 1.0066,-0.279 1.52238,-0.126c0.94005,0.279 1.58893,1.11601 1.83018,2.07902c0,0 0.02496,0.054 0.02496,0.081z"></path></g><g style="mix-blend-mode: normal" text-anchor="none" font-size="none" font-weight="none" font-family="none" stroke-dashoffset="0" stroke-dasharray="" stroke-miterlimit="10" stroke-linejoin="miter" stroke-linecap="butt" stroke-width="1" stroke="none" fill-rule="nonzero" fill="none" data-paper-data="{&quot;selected&quot;:false}"><path fill="#ffffff" data-paper-data="{&quot;guideItem&quot;:null,&quot;selected&quot;:false}" d="M98.12092,15.91216c-0.20798,-1.40401 -0.77367,-2.76303 -1.71372,-3.87004c-0.09983,-0.117 -0.29117,-0.333 -0.53242,-0.60301c-3.00317,-3.42003 -6.61362,-6.30906 -10.75649,-7.71308c-3.06972,-1.03501 -6.09784,-0.82801 -8.81816,0.261c-4.98309,1.99802 -8.93463,6.93907 -10.23239,12.46512c-0.22461,0.96301 -0.85686,2.77203 0.01664,3.59104c0.54074,0.51301 1.42255,0.85501 2.09639,1.17001c0.70712,0.333 1.53902,0.67501 2.33764,0.56701c0.58233,-0.081 0.80694,-0.52201 1.15634,-0.97201c0.6988,-0.89101 1.38928,-1.80002 2.15463,-2.63703c3.02812,-3.31203 7.02957,-1.42201 10.16584,1.26901c-0.00832,0.036 -0.02496,0.063 -0.03328,0.09c1.08147,0.89101 2.07975,1.85402 2.82015,2.70903c0.00832,0.009 0.00832,0.009 0.01664,0.018c2.52066,2.96103 6.70513,3.06903 9.34226,0.243c1.65548,-1.75502 2.32101,-4.23904 1.97993,-6.58807z"></path><path fill="#000000" d="M100.88284,15.43515c-0.28285,-2.05202 -1.12307,-3.93304 -2.38756,-5.44505c-0.14142,-0.153 -0.3494,-0.378 -0.60729,-0.68401c-0.49082,-0.55801 -1.0066,-1.11601 -1.52238,-1.59302c-3.25274,-3.34803 -6.74672,-5.65206 -10.39877,-6.89407c-1.58893,-0.53101 -3.2361,-0.81001 -4.87495,-0.81001c-1.94665,0 -3.88498,0.378 -5.76508,1.14301c-5.74012,2.30402 -10.44869,8.01008 -11.97107,14.57115l-0.09151,0.333c-0.32444,1.29601 -1.12307,4.31104 0.98164,6.28206c0.79863,0.75601 1.73036,1.18801 2.50402,1.52102l0.32444,0.153c0.86518,0.405 1.94665,0.83701 3.13627,0.83701c0.20798,0 0.42427,0 0.6572,-0.027c1.61389,-0.225 2.43747,-1.34101 2.83679,-1.87202l0.11647,-0.153l0.39931,-0.50401c0.54074,-0.71101 1.05652,-1.36801 1.58893,-1.98002c0.56569,-0.58501 1.09811,-0.86401 1.78027,-0.86401c0.86518,0 1.98825,0.459 3.21114,1.26901l-0.02496,0.054l1.47247,1.18801c0.95669,0.78301 1.83018,1.62002 2.46243,2.38502c1.43087,1.67402 3.32761,2.76303 5.36577,3.11403c0.49082,0.099 0.98164,0.153 1.49742,0.153c2.46243,0 4.78344,-1.03501 6.53875,-2.94303c2.23782,-2.38502 3.28601,-5.83206 2.77023,-9.23409zM96.14931,22.50923c-1.97161,2.07902 -4.77512,2.55603 -7.12108,1.46701c-0.42427,-0.18 -0.79863,-0.432 -1.17298,-0.71101c-0.37436,-0.306 -0.72375,-0.63001 -1.05652,-1.01701c-0.56569,-0.63001 -1.26449,-1.34101 -2.0132,-1.99802c-0.25789,-0.252 -0.54074,-0.486 -0.82358,-0.71101c0,-0.027 0.02496,-0.072 0.02496,-0.099c-1.94665,-1.67402 -4.21774,-3.04203 -6.39733,-3.04203c-1.33936,0 -2.62049,0.50401 -3.76852,1.77302c-0.77367,0.83701 -1.45583,1.74602 -2.15463,2.63703c-0.3494,0.459 -0.56569,0.89101 -1.14802,0.96301c-0.09151,0.027 -0.20798,0.027 -0.3078,0.027c-0.6988,0 -1.40591,-0.306 -2.03816,-0.58501c-0.6572,-0.306 -1.54734,-0.65701 -2.08807,-1.17001c-0.86518,-0.83701 -0.23293,-2.63703 -0.02496,-3.60004c1.28945,-5.52606 5.2493,-10.4671 10.24071,-12.47412c1.49742,-0.61201 3.11963,-0.93601 4.77512,-0.93601c1.31441,0 2.67041,0.225 4.02641,0.68401c2.12967,0.71101 4.12623,1.82702 5.97306,3.22203c1.33936,1.01701 2.60385,2.15102 3.75188,3.39303c0.16638,0.18 0.32444,0.333 0.46587,0.486c0.56569,0.58501 0.94005,1.01701 1.09811,1.21501c0.23293,0.279 0.44923,0.58501 0.63225,0.89101c0.16638,0.279 0.32444,0.55801 0.46587,0.86401c0,0.027 0.02496,0.054 0.02496,0.072c0.14142,0.333 0.25789,0.65701 0.3494,1.01701c0.11647,0.333 0.19134,0.68401 0.23293,1.03501c0.3494,2.36702 -0.29948,4.85105 -1.94665,6.59707z"></path><path fill="#673101" data-paper-data="{&quot;guideItem&quot;:null,&quot;selected&quot;:false}" d="M96.14931,22.50923c-1.97161,2.07902 -4.77512,2.55603 -7.12108,1.46701c-0.39931,-0.207 -0.79863,-0.432 -1.17298,-0.71101c-0.37436,-0.306 -0.72375,-0.63001 -1.05652,-1.01701c-0.56569,-0.63001 -1.26449,-1.34101 -2.0132,-1.99802c-0.25789,-0.252 -0.54074,-0.486 -0.82358,-0.71101c0,-0.027 0.02496,-0.072 0.02496,-0.099c0.25789,-0.96301 0.89014,-1.80002 1.84682,-2.07902c0.51578,-0.153 1.0066,-0.054 1.49742,0.126c-0.58233,-0.405 -1.03156,-1.01701 -1.21458,-1.80002c-0.37436,-1.59302 0.49082,-3.22203 1.89674,-3.65404c0.6572,-0.18 1.31441,-0.054 1.87178,0.279c-0.49082,-0.405 -0.89014,-0.93601 -1.05652,-1.64702c-0.3494,-1.46701 0.3494,-2.97003 1.57229,-3.50104c0.09151,-0.054 0.20798,-0.099 0.32444,-0.126c0.09151,-0.027 0.20798,-0.072 0.3494,-0.099c1.33936,1.01701 2.60385,2.15102 3.75188,3.39303c0.16638,0.18 0.32444,0.333 0.46587,0.486c0.56569,0.58501 0.94005,1.01701 1.09811,1.21501c0.23293,0.279 0.44923,0.58501 0.63225,0.89101c0.16638,0.279 0.32444,0.55801 0.46587,0.86401c0,0.027 0.02496,0.054 0.02496,0.072c0.14142,0.333 0.25789,0.65701 0.3494,1.01701c0.11647,0.333 0.19134,0.68401 0.23293,1.03501c0.3494,2.36702 -0.29948,4.85105 -1.94665,6.59707z"></path></g>
               </svg>