<svg viewBox="0 0 110 200" xml:space="preserve" xmlns:xlink="http://www.w3.org/1999/xlink" xmlns="http://www.w3.org/2000/svg">
                    <g style="mix-blend-mode: normal" text-anchor="none" font-size="none" font-weight="none" font-family="none" stroke-dashoffset="0" stroke-dasharray="" stroke-miterlimit="10" stroke-linejoin="miter" stroke-linecap="butt" stroke-width="1" stroke="none" fill-rule="nonzero" fill="none" data-paper-data="{&quot;selected&quot;:false}"><path fill="#ffffff" data-paper-data="{&quot;guideItem&quot;:null,&quot;selected&quot;:false}" d="M103.24877,102.38502c-1.90512,2.07902 -5.63216,4.51805 -9.13458,4.29304c-0.77369,-2.35802 -1.76369,-4.67105 -2.96167,-6.88507c-1.26453,-2.34002 -11.9049,-15.16515 -5.30771,-16.58717c1.76369,-0.378 3.76032,1.47601 5.04981,2.46602c5.8235,4.52705 9.81676,10.2871 12.35414,16.71317z"></path><path fill="#0088c5" data-paper-data="{&quot;guideItem&quot;:null,&quot;selected&quot;:false}" d="M105.07901,130.98731c-0.65722,0.93601 -1.8552,1.67402 -3.07814,2.10602c-0.56571,0.207 -1.1231,0.333 -1.64722,0.378c-1.24789,0.153 -2.20461,-0.027 -2.93671,-0.459c-0.68218,-0.405 -1.17302,-1.07101 -1.48083,-1.82702c-0.63227,-1.50302 -0.65722,-3.45603 -0.54075,-5.25605c0.09151,-1.42201 0.20798,-2.79003 0.30781,-4.14004c0.2579,-3.27603 0.34941,-6.42606 -0.42428,-9.8821c-0.06655,-0.279 -0.30781,-1.80002 -0.59067,-3.27603c-0.19134,-0.65701 -0.37437,-1.32301 -0.60731,-1.95302h0.02496c3.47746,0.225 7.2045,-2.18702 9.10962,-4.26604c0.02496,0 0.02496,-0.027 0.02496,-0.027c0,0 0,0 0.02496,0c0.02496,0 0.04992,0 0.06655,0.054c0.37437,0.53101 1.40596,4.23904 1.76369,5.53506c0.06655,0.207 0.09151,0.36 0.11647,0.405c0.63227,2.41202 1.08151,4.87805 1.38932,7.36207c0.59067,4.80605 1.45588,10.88111 -1.52243,15.24615z"></path><path fill="#000000" d="M109.47159,115.90316l-0.06655,-0.55801c-0.33277,-2.66403 -0.82361,-5.31005 -1.45588,-7.77608c-0.91512,-3.48303 -1.50579,-5.74206 -2.371,-6.98407c-2.88679,-7.08307 -7.27938,-12.93313 -13.028,-17.37917l-0.49084,-0.378c-1.43092,-1.17001 -3.37763,-2.71803 -5.73199,-2.71803c-0.34941,0 -0.70714,0.027 -1.03159,0.099c-2.67881,0.58501 -3.68544,2.41202 -4.05981,3.45603c-1.48083,4.23904 2.1131,9.9091 6.27274,15.84916c0.5158,0.71101 1.10647,1.54802 1.24789,1.82702c1.31445,2.41202 2.39595,5.13005 3.21956,8.05508c0.16639,0.81001 0.30781,1.64702 0.42428,2.23202c0.06655,0.50401 0.14143,0.86401 0.16639,0.99001c0.79865,3.58204 0.54075,6.85807 0.23294,10.64711c-0.06655,0.78301 -0.14143,1.62902 -0.19134,2.46602c-0.28286,3.96004 0.37437,6.80407 1.97167,8.65809c0.86521,1.01701 2.42091,2.21402 4.97493,2.21402c0.37437,0 0.74874,-0.027 1.14806,-0.072c0.70714,-0.099 1.45588,-0.279 2.17965,-0.53101c1.1231,-0.405 3.19461,-1.35001 4.45914,-3.20403c3.56066,-5.18405 2.71209,-11.97012 2.12974,-16.89317zM105.07901,130.98731c-0.65722,0.93601 -1.8552,1.67402 -3.07814,2.10602c-0.56571,0.207 -1.1231,0.333 -1.64722,0.378c-0.28286,0.054 -0.56571,0.072 -0.82361,0.072c-0.86521,0 -1.54739,-0.207 -2.1131,-0.53101c-0.68218,-0.405 -1.17302,-1.07101 -1.48083,-1.82702c-0.63227,-1.50302 -0.68218,-3.48303 -0.56571,-5.25605c0.09151,-1.42201 0.23294,-2.79003 0.33277,-4.14004c0.2579,-3.27603 0.34941,-6.42606 -0.42428,-9.8821c-0.06655,-0.279 -0.30781,-1.80002 -0.59067,-3.27603c-0.19134,-0.65701 -0.37437,-1.32301 -0.60731,-1.95302c-0.77369,-2.38502 -1.73873,-4.69805 -2.93671,-6.88507c-1.26453,-2.34002 -11.9049,-15.16515 -5.30771,-16.58717c0.14143,-0.054 0.30781,-0.054 0.46588,-0.054c1.64722,0 3.40259,1.62902 4.57561,2.51103c5.84846,4.51805 9.81676,10.2871 12.32918,16.74017c0.02496,0 0.02496,-0.027 0.02496,-0.027c0,0 0,0 0.02496,0c0.02496,0 0.04992,0 0.06655,0.054c0.39933,0.378 1.43092,4.22104 1.76369,5.53506c0.06655,0.207 0.09151,0.36 0.11647,0.405c0.63227,2.41202 1.08151,4.87805 1.38932,7.36207c0.59899,4.81505 1.46419,10.89011 -1.51411,15.25515z"></path></g><g style="mix-blend-mode: normal" text-anchor="none" font-size="none" font-weight="none" font-family="none" stroke-dashoffset="0" stroke-dasharray="" stroke-miterlimit="10" stroke-linejoin="miter" stroke-linecap="butt" stroke-width="1" stroke="none" fill-rule="nonzero" fill="none" data-paper-data="{&quot;selected&quot;:false}"><path fill="#000000" d="M21.88613,90.0369c0.11647,0 0.23294,0.009 0.34941,0.027c6.63879,1.04401 -3.35267,14.48114 -4.50073,16.86617c-0.96504,1.99802 -1.74705,4.07704 -2.37932,6.20106c-0.0416,0.126 -0.06655,0.252 -0.09983,0.387c-0.24126,0.85501 -0.45756,1.71002 -0.65722,2.58303c-0.07487,0.351 -0.14143,0.69301 -0.2163,1.04401c-0.09983,0.486 -0.18302,0.97201 -0.26622,1.45801c-0.75706,4.76105 -0.6489,9.5221 0.34941,14.50815c0.74042,3.70804 0.9068,8.02808 -3.74368,8.02808c-0.17471,0 -0.34941,-0.009 -0.54075,-0.018c-0.5158,-0.036 -1.08151,-0.135 -1.64722,-0.306c-1.23957,-0.36 -2.47915,-1.01701 -3.16965,-1.92602c-3.20293,-4.19404 -2.62058,-10.3141 -2.27948,-15.12915c0.17471,-2.50203 0.50748,-4.98605 1.02327,-7.43407c0.11647,-0.54901 1.26453,-6.09306 1.67218,-6.09306v0c0.01664,0 0.0416,0.009 0.06655,0.009c2.17965,-6.57907 5.84014,-12.56413 11.45566,-17.40617c1.17302,-1.01701 2.91175,-2.79903 4.58393,-2.79903M21.88613,86.98587c-2.46251,0 -4.51737,1.83602 -5.87342,3.05103l-0.46588,0.414c-5.49905,4.74305 -9.55886,10.78211 -12.07961,17.97318c-0.87353,1.31401 -1.37268,3.68104 -2.10478,7.23607c-0.52412,2.51103 -0.88184,5.15705 -1.08151,7.86608l-0.0416,0.54901c-0.35773,4.96805 -0.84857,11.77212 2.95335,16.75817c1.35604,1.77302 3.47746,2.60103 4.6172,2.93403c0.74042,0.216 1.50579,0.351 2.21293,0.396c0.24958,0.018 0.48252,0.027 0.70714,0.027c2.98662,0 4.63384,-1.35901 5.48241,-2.50203c2.01327,-2.70003 1.54739,-6.55207 1.01495,-9.21609c-0.91512,-4.59005 -1.02327,-8.96409 -0.32445,-13.35613c0.07487,-0.423 0.14975,-0.87301 0.24126,-1.32301c0.06655,-0.342 0.13311,-0.65701 0.19966,-0.98101c0.17471,-0.80101 0.38269,-1.60202 0.60731,-2.39402l0.07487,-0.27c0.61563,-2.08802 1.35604,-4.01404 2.21293,-5.80506c0.13311,-0.27 0.67386,-1.13401 1.14806,-1.89902c3.85183,-6.15606 7.17123,-12.03312 5.47409,-16.18216c-0.41596,-1.01701 -1.51411,-2.79003 -4.21788,-3.21303c-0.2579,-0.045 -0.50748,-0.063 -0.75706,-0.063z"></path><path fill="#ffffff" data-paper-data="{&quot;guideItem&quot;:null,&quot;selected&quot;:false}" d="M14.37382,117.11817c0.14975,-0.78301 0.34109,-1.57502 0.54075,-2.36702c-0.19966,0.78301 -0.38269,1.57502 -0.54075,2.36702z"></path><path fill="#ffffff" data-paper-data="{&quot;guideItem&quot;:null,&quot;selected&quot;:false}" d="M17.73481,106.93007c-1.07319,2.23202 -1.92176,4.57205 -2.57898,6.96607c0.07487,-0.279 0.14975,-0.56701 0.23294,-0.84601c-3.4525,-1.85402 -6.94661,-2.59203 -9.55886,-2.81703c2.17965,-6.60607 5.87342,-12.57313 11.48062,-17.39717c1.24789,-1.08901 3.14469,-3.05103 4.93334,-2.77203c6.63879,1.04401 -3.36099,14.48114 -4.50905,16.86617z"></path><path fill="#ffffff" data-paper-data="{&quot;guideItem&quot;:null,&quot;selected&quot;:false}" d="M15.14751,113.90514c-0.07487,0.279 -0.15807,0.56701 -0.23294,0.84601c0.07487,-0.288 0.15807,-0.56701 0.23294,-0.84601z"></path><path fill="#0088c5" data-paper-data="{&quot;guideItem&quot;:null,&quot;selected&quot;:false}" d="M14.46533,133.10233c0.77369,3.86104 0.91512,8.36108 -4.27611,8.02808c-0.5158,-0.054 -1.08151,-0.153 -1.64722,-0.306c-1.24789,-0.36 -2.48747,-1.01701 -3.19461,-1.93502c-3.19461,-4.19404 -2.60394,-10.3141 -2.27948,-15.13815c0.19134,-2.49302 0.5158,-4.97705 1.03159,-7.44307c0.11647,-0.53101 1.26453,-6.07506 1.66386,-6.07506c0.02496,0 0.02496,0 0.04992,0c2.60394,0.225 6.10636,0.96301 9.55886,2.81703c-0.39933,1.35001 -0.74874,2.71803 -1.00663,4.06804c-0.11647,0.61201 -0.20798,1.19701 -0.30781,1.78202c-0.6905,4.67105 -0.54907,9.32409 0.40765,14.20214z"></path></g><g style="mix-blend-mode: normal" text-anchor="none" font-size="none" font-weight="none" font-family="none" stroke-dashoffset="0" stroke-dasharray="" stroke-miterlimit="10" stroke-linejoin="miter" stroke-linecap="butt" stroke-width="1" stroke="none" fill-rule="none" fill="none" data-paper-data="{&quot;selected&quot;:false}"><path fill-rule="nonzero" fill="#ffffff" data-paper-data="{&quot;guideItem&quot;:null,&quot;selected&quot;:false}" d="M50.74574,131.14031v30.1143c-0.23294,0.072 -2.22957,0.55801 -4.81687,0.55801c-2.74536,0 -4.81687,-0.55801 -4.81687,-0.55801v-30.1143c0,-1.98002 1.50579,-3.60904 3.33603,-3.60904c1.83024,0 6.2977,1.62902 6.2977,3.60904z"></path><path fill-rule="evenodd" fill="#009ff9" data-paper-data="{&quot;guideItem&quot;:null,&quot;selected&quot;:false}" d="M50.7707,161.25461v27.28827c0,1.80002 -2.30444,3.30303 -4.1846,3.68104v0.072h-8.83508c-3.28612,0 -7.27938,0.50401 -9.72525,-2.52003c-1.66386,-2.08802 -1.19798,-6.20106 -0.14143,-8.46008c1.94671,-4.16704 5.64048,-7.24507 9.86668,-8.23508c0,0 0.19134,-0.054 0.23294,-0.054c1.19798,-0.252 2.20461,-0.333 3.12805,-0.306v-11.48411c0,0 2.06318,0.55801 4.81687,0.55801c2.5873,0 4.58393,-0.486 4.81687,-0.55801c0.02496,0.018 0.02496,0.018 0.02496,0.018z"></path><path fill-rule="nonzero" fill="#000000" d="M44.44804,127.54928c1.83856,0 6.30602,1.61102 6.30602,3.60004v26.65827v0v30.73531c0,1.80902 -2.29612,3.32103 -4.16796,3.69004v0.09h-0.82361h-2.40427h-2.25453h-3.36931c-0.81529,0 -1.67218,0.027 -2.52906,0.027c-2.62889,0 -5.34098,-0.279 -7.17955,-2.56503c-1.67218,-2.07002 -1.2063,-6.21006 -0.14143,-8.46908c1.95503,-4.16704 5.63216,-7.23607 9.85836,-8.22608c0,0 0.19134,-0.045 0.23294,-0.054c1.11478,-0.234 2.06318,-0.306 2.92839,-0.306c0.06655,0 0.14143,0 0.20798,0v-11.47511v-3.45603v-26.65827c0.00832,-1.98902 1.49747,-3.59104 3.33603,-3.59104M44.44804,124.49824c-3.38595,0 -6.14795,2.97903 -6.14795,6.65107v26.65827v3.45603v8.63109c-0.28286,0.045 -0.56571,0.099 -0.85689,0.162l-0.32445,0.081c-4.99989,1.17001 -9.4008,4.84205 -11.73851,9.8191c-1.381,2.93403 -2.12974,8.55909 0.53243,11.85312c2.56234,3.17703 6.13963,3.60904 9.30928,3.60904c0.45756,0 0.9068,-0.009 1.34772,-0.018c0.39933,-0.009 0.79865,-0.018 1.18134,-0.018h3.36931h2.25453h2.40427h0.82361c0.45756,0 0.89016,-0.117 1.28117,-0.333c2.89511,-0.85501 5.70703,-3.27603 5.70703,-6.49806v-30.73531v-26.65827c-0.01664,-5.00405 -7.21282,-6.66007 -9.1429,-6.66007z"></path></g><g style="mix-blend-mode: normal" text-anchor="none" font-size="none" font-weight="none" font-family="none" stroke-dashoffset="0" stroke-dasharray="" stroke-miterlimit="10" stroke-linejoin="miter" stroke-linecap="butt" stroke-width="1" stroke="none" fill-rule="none" fill="none" data-paper-data="{&quot;selected&quot;:false}"><path fill-rule="nonzero" fill="#ffffff" data-paper-data="{&quot;guideItem&quot;:null,&quot;selected&quot;:false}" d="M72.60883,135.73936v30.1143c0,0 -2.06318,0.55801 -4.81687,0.55801c-2.75368,0 -4.81687,-0.55801 -4.81687,-0.55801v-30.1143c0,-1.98002 4.45914,-3.60904 6.32266,-3.60904c1.83856,0 3.31108,1.62902 3.31108,3.60904z"></path><path fill-rule="evenodd" fill="#009ff9" data-paper-data="{&quot;guideItem&quot;:null,&quot;selected&quot;:false}" d="M85.69507,194.39294c-2.44587,3.02403 -6.41417,2.52003 -9.70029,2.52003h-8.85172v-0.072c-1.8552,-0.378 -4.15964,-1.88102 -4.15964,-3.68104v-27.28827c0,0 2.06318,0.55801 4.81687,0.55801c2.75368,0 4.81687,-0.55801 4.81687,-0.55801v11.48411c0.94008,-0.027 1.94671,0.054 3.14469,0.306c0.02496,0 0.23294,0.054 0.23294,0.054c4.2262,0.99001 7.895,4.06804 9.84172,8.23508c1.08151,2.24102 1.53075,6.35406 -0.14143,8.44208z"></path><path fill-rule="nonzero" fill="#000000" d="M69.28943,132.14832c1.83856,0 3.32772,1.61102 3.32772,3.60004v26.65827v3.45603v11.47511c0.06655,0 0.13311,0 0.20798,0c0.86521,0 1.82192,0.072 2.92839,0.306c0.0416,0.009 0.23294,0.054 0.23294,0.054c4.2262,0.99001 7.90332,4.05904 9.85836,8.22608c1.05655,2.25902 1.52243,6.39906 -0.14143,8.46908c-1.83856,2.27702 -4.55065,2.56503 -7.17955,2.56503c-0.86521,0 -1.72209,-0.027 -2.52906,-0.027h-3.36931h-2.25453h-2.40427h-0.82361v-0.09c-1.87184,-0.369 -4.16796,-1.88102 -4.16796,-3.69004v-30.73531v0v-26.65827c0.00832,-2.00702 4.4841,-3.60904 6.31434,-3.60904M69.28943,129.09729c-1.93007,0 -9.12626,1.66502 -9.12626,6.65107v26.65827v30.73531c0,3.24903 2.86183,5.67906 5.77359,6.51607c0.36605,0.198 0.77369,0.306 1.2063,0.306h0.82361h2.40427h2.25453h3.36931c0.38269,0 0.78201,0.009 1.18134,0.018c0.44924,0.009 0.89848,0.018 1.34772,0.018c3.16133,0 6.74694,-0.432 9.30928,-3.60904c2.66217,-3.29403 1.91344,-8.91009 0.53243,-11.85312c-2.33772,-4.97705 -6.73862,-8.64909 -11.77179,-9.8281l-0.18302,-0.045c-0.33277,-0.072 -0.6489,-0.126 -0.96504,-0.18v-8.63109v-3.45603v-26.65827c-0.00832,-3.66304 -2.762,-6.64207 -6.15627,-6.64207z"></path></g><g style="mix-blend-mode: normal" text-anchor="none" font-size="none" font-weight="none" font-family="none" stroke-dashoffset="0" stroke-dasharray="" stroke-miterlimit="10" stroke-linejoin="miter" stroke-linecap="butt" stroke-width="1" stroke="none" fill-rule="none" fill="none" data-paper-data="{&quot;selected&quot;:false}"><path fill-rule="evenodd" fill="#009ff9" data-paper-data="{&quot;guideItem&quot;:null,&quot;selected&quot;:false}" d="M96.65989,115.36315c0.37437,7.57808 -1.35604,18.68419 -6.02316,25.19125c-5.50737,7.70408 -15.55707,12.72613 -27.55348,13.78814c-1.43092,0.126 -2.99494,0.18 -4.50073,0.18h-3.2778c-1.47251,0 -2.9783,-0.054 -4.45082,-0.18c-10.42407,-0.93601 -24.01778,-4.91405 -29.40036,-18.60319c-4.05149,-10.3141 -3.11973,-21.54622 -1.83024,-30.1593c0.23294,-1.70102 0.69882,-3.51904 1.17302,-5.47205c1.05655,-4.41004 2.17965,-8.97309 1.381,-13.20313c-0.34941,-1.87202 -1.1231,-3.75304 -1.87184,-5.55306c-0.44924,-1.06201 -0.89016,-2.13302 -1.21462,-3.14103c-2.87847,-9.02709 -3.35267,-18.40518 -1.381,-27.80128c1.8968,-9.04509 5.85678,-16.73117 10.87331,-21.03321c8.36088,-7.24507 18.08613,-11.37611 26.84634,-11.37611h3.2778c8.60214,0 18.29411,4.13104 26.68827,11.37611c5.01653,4.31104 8.97651,11.98812 10.87331,21.03321c2.08814,10.0081 1.52243,19.28719 -1.75537,29.25029c-0.84025,2.51103 -1.73041,5.52606 -1.98831,8.74809c-0.19134,2.05202 0.23294,3.97804 0.63227,5.83206c0.14143,0.68401 0.30781,1.39501 0.42428,2.07902c0.32445,2.13302 0.77369,4.25704 1.19798,6.39006c0.83193,4.11304 1.67218,8.39708 1.88016,12.65413z"></path><path fill-rule="nonzero" fill="#000000" d="M97.50846,102.03402c-0.42428,-2.07902 -0.84025,-4.15804 -1.17302,-6.26406c-0.14143,-0.73801 -0.28286,-1.49401 -0.44924,-2.23202c-0.37437,-1.70102 -0.69882,-3.29403 -0.58235,-4.86905c0.2579,-2.88903 1.08151,-5.67906 1.84688,-8.01008c3.41923,-10.3681 4.02654,-20.4752 1.84688,-30.95131c-2.03823,-9.6841 -6.37257,-17.99118 -11.85498,-22.73423c-8.87668,-7.65008 -19.23419,-12.04212 -28.41869,-12.04212h-3.4941c-9.20945,0 -19.56696,4.38304 -28.41869,12.04212c-5.50737,4.74305 -9.84172,13.05013 -11.85498,22.73423c-2.08814,9.9901 -1.58898,19.8992 1.47251,29.47529c0.34941,1.11601 0.82361,2.25902 1.31445,3.39303c0.68218,1.64702 1.381,3.34803 1.68882,4.91405c0.65722,3.51904 -0.37437,7.73108 -1.35604,11.80812c-0.49084,2.02502 -0.95672,3.95104 -1.23957,5.77806c-1.33941,9.02709 -2.29612,20.78121 2.03823,31.83332c4.68376,11.93412 15.67354,19.00819 31.77136,20.4302c1.52243,0.153 3.06982,0.225 4.85014,0.207h3.09478c1.58898,0 3.21125,-0.054 4.73367,-0.207c12.77011,-1.11601 23.54358,-6.56107 29.54179,-14.93115c5.133,-7.17307 7.00484,-18.82819 6.60551,-27.22527c-0.20798,-4.48204 -1.09815,-8.86509 -1.96335,-13.14913zM58.59083,154.52255h-3.2778c-1.47251,0 -2.9783,-0.054 -4.45082,-0.18c-10.42407,-0.93601 -24.01778,-4.91405 -29.40036,-18.60319c-4.05149,-10.3141 -3.11973,-21.54622 -1.83024,-30.1593c0.23294,-1.70102 0.69882,-3.51904 1.17302,-5.47205c1.05655,-4.41004 2.17965,-8.97309 1.381,-13.20313c-0.34941,-1.87202 -1.1231,-3.75304 -1.87184,-5.55306c-0.44924,-1.06201 -0.89016,-2.13302 -1.21462,-3.14103c-2.87847,-9.02709 -3.35267,-18.40518 -1.381,-27.80128c1.8968,-9.04509 5.85678,-16.73117 10.87331,-21.03321c8.36088,-7.24507 18.08613,-11.37611 26.84634,-11.37611h3.2778c8.60214,0 18.29411,4.13104 26.68827,11.37611c5.01653,4.31104 8.97651,11.98812 10.87331,21.03321c2.08814,10.0081 1.52243,19.28719 -1.75537,29.25029c-0.84025,2.51103 -1.73041,5.52606 -1.98831,8.74809c-0.19134,2.05202 0.23294,3.97804 0.63227,5.83206c0.14143,0.68401 0.30781,1.39501 0.42428,2.07902c0.32445,2.13302 0.77369,4.25704 1.19798,6.39006c0.84025,4.13104 1.68882,8.41508 1.8968,12.67213c0.37437,7.57808 -1.35604,18.68419 -6.02316,25.19125c-5.50737,7.70408 -15.55707,12.72613 -27.55348,13.78814c-1.44756,0.117 -3.0199,0.162 -4.51737,0.162z"></path></g><g style="mix-blend-mode: normal" text-anchor="none" font-size="none" font-weight="none" font-family="none" stroke-dashoffset="0" stroke-dasharray="" stroke-miterlimit="10" stroke-linejoin="miter" stroke-linecap="butt" stroke-width="1" stroke="none" fill-rule="nonzero" fill="none" data-paper-data="{&quot;selected&quot;:false}"><path fill="#ffffff" data-paper-data="{&quot;guideItem&quot;:null,&quot;selected&quot;:false}" d="M37.38497,3.98704c-2.72041,-1.08901 -5.74031,-1.30501 -8.81844,-0.261c-4.13469,1.39501 -7.75358,4.28404 -10.75684,7.71308c-0.24958,0.27 -0.4326,0.486 -0.53243,0.60301c-0.94008,1.11601 -1.50579,2.46602 -1.71377,3.87004c-0.34109,2.34002 0.32445,4.83305 1.97167,6.59707c2.63721,2.82603 6.82182,2.71803 9.34256,-0.243c0.00832,-0.009 0.00832,-0.009 0.01664,-0.018c0.74042,-0.86401 1.73873,-1.82702 2.82024,-2.70903c-0.00832,-0.036 -0.02496,-0.063 -0.03328,-0.09c3.13637,-2.69103 7.13795,-4.58105 10.16617,-1.26901c0.76537,0.83701 1.44756,1.74602 2.1547,2.63703c0.34941,0.45 0.57403,0.89101 1.15638,0.97201c0.79033,0.108 1.63058,-0.243 2.33772,-0.56701c0.66554,-0.315 1.55571,-0.65701 2.09646,-1.17001c0.87353,-0.82801 0.24126,-2.62803 0.01664,-3.59104c-1.28949,-5.53506 -5.24115,-10.4761 -10.2244,-12.47412z"></path><path fill="#000000" d="M50.42961,16.04716l-0.09151,-0.333c-1.52243,-6.56107 -6.23115,-12.26712 -11.97145,-14.57115c-1.87184,-0.75601 -3.81855,-1.14301 -5.74031,-1.14301c-1.66386,0 -3.30276,0.279 -4.90006,0.81001c-4.05149,1.39501 -7.91996,4.07704 -11.48062,8.01008c-0.16639,0.153 -0.30781,0.333 -0.46588,0.50401c-0.23294,0.279 -0.44924,0.50401 -0.56571,0.63001c-1.28949,1.54802 -2.12974,3.42003 -2.41259,5.47205c-0.5158,3.39303 0.54075,6.84007 2.762,9.22509c1.75537,1.89902 4.07645,2.94303 6.53896,2.94303c2.10478,0 4.16796,-0.81001 5.80686,-2.25902c0.34941,-0.279 0.68218,-0.58501 0.98168,-0.93601v-0.027l0.06655,-0.054c0.63227,-0.75601 1.52243,-1.59302 2.46251,-2.38502l1.47251,-1.18801l-0.02496,-0.054c1.21462,-0.81001 2.34604,-1.26901 3.21125,-1.26901c0.68218,0 1.21462,0.279 1.78033,0.86401c0.54075,0.61201 1.05655,1.26901 1.61394,1.98002l0.37437,0.50401l0.11647,0.153c0.39933,0.53101 1.21462,1.64702 2.86183,1.87202c0.22462,0.045 0.4326,0.045 0.64059,0.045c1.19798,0 2.27117,-0.432 3.13637,-0.83701l0.32445,-0.153c0.77369,-0.333 1.71377,-0.75601 2.50411,-1.52102c2.12142,-1.97102 1.32277,-4.98605 0.99831,-6.28206zM47.59273,20.0522c-0.54075,0.50401 -1.43092,0.86401 -2.08814,1.17001c-0.60731,0.279 -1.33941,0.58501 -2.03823,0.58501c-0.09151,0 -0.20798,0 -0.30781,-0.027c-0.58235,-0.072 -0.79865,-0.50401 -1.14806,-0.96301c-0.69882,-0.89101 -1.381,-1.80002 -2.1547,-2.63703c-1.14806,-1.26901 -2.43755,-1.77302 -3.76864,-1.77302c-2.17965,0 -4.45082,1.36801 -6.39753,3.04203c0,0.027 0.02496,0.072 0.02496,0.099c-0.79865,0.65701 -1.57235,1.36801 -2.20461,2.05202c-0.20798,0.207 -0.42428,0.432 -0.60731,0.65701h-0.02496c-0.32445,0.378 -0.68218,0.71101 -1.05655,1.01701c-0.37437,0.279 -0.74874,0.53101 -1.17302,0.71101c-2.34604,1.08901 -5.15796,0.61201 -7.09635,-1.46701h-0.02496c-0.16639,-0.18 -0.32445,-0.378 -0.46588,-0.58501c-0.77369,-1.01701 -1.26453,-2.20502 -1.47251,-3.47403c-0.14143,-0.83701 -0.14143,-1.70102 -0.02496,-2.53803c0,-0.054 0.02496,-0.126 0.04992,-0.18c0.04992,-0.351 0.11647,-0.68401 0.2579,-1.03501c0.02496,-0.207 0.09151,-0.405 0.19134,-0.58501c0.16639,-0.459 0.39933,-0.89101 0.65722,-1.29601c0.16639,-0.279 0.34941,-0.53101 0.56571,-0.78301c0.16639,-0.207 0.54075,-0.63001 1.09815,-1.21501c0.11647,-0.126 0.23294,-0.252 0.37437,-0.378l0.02496,-0.054c1.17302,-1.26901 2.48747,-2.45702 3.84351,-3.47403c1.83024,-1.36801 3.81855,-2.48402 5.94829,-3.19503c1.35604,-0.459 2.72041,-0.68401 4.05149,-0.68401c1.6389,0 3.25284,0.333 4.75863,0.93601c4.99157,1.99802 8.95155,6.94807 10.24104,12.47412c0.22462,0.96301 0.83193,2.76303 -0.03328,3.60004z"></path><path fill="#673101" data-paper-data="{&quot;guideItem&quot;:null,&quot;selected&quot;:false}" d="M29.71458,19.5482c-0.79865,0.65701 -1.57235,1.36801 -2.20461,2.05202c-0.20798,0.207 -0.42428,0.432 -0.60731,0.65701h-0.02496c-0.32445,0.378 -0.68218,0.71101 -1.05655,1.01701c-0.37437,0.279 -0.77369,0.50401 -1.17302,0.71101c-2.34604,1.08901 -5.15796,0.61201 -7.09635,-1.46701c-0.16639,-0.18 -0.32445,-0.378 -0.49084,-0.58501c-0.77369,-1.01701 -1.26453,-2.20502 -1.47251,-3.47403c-0.14143,-0.89101 -0.14143,-1.80002 0.02496,-2.70903c0.04992,-0.351 0.11647,-0.68401 0.2579,-1.03501c0.02496,-0.207 0.09151,-0.405 0.19134,-0.58501c0.16639,-0.459 0.39933,-0.89101 0.65722,-1.29601c0.16639,-0.279 0.34941,-0.53101 0.56571,-0.78301c0.16639,-0.207 0.54075,-0.63001 1.09815,-1.21501c0.11647,-0.126 0.23294,-0.252 0.37437,-0.378c0.14143,-0.153 0.28286,-0.279 0.42428,-0.432c-0.14143,0.126 -0.2579,0.252 -0.39933,0.378c1.17302,-1.26901 2.48747,-2.45702 3.84351,-3.47403c0.11647,0.027 0.23294,0.054 0.32445,0.126c0.14143,0.027 0.2579,0.072 0.37437,0.126c0.04992,0.027 0.06655,0.054 0.09151,0.054c0.11647,0.072 0.23294,0.126 0.32445,0.207c0.30781,0.225 0.56571,0.53101 0.77369,0.89101c0.37437,0.65701 0.5158,1.52102 0.32445,2.35802c-0.16639,0.71101 -0.56571,1.24201 -1.05655,1.64702c0.56571,-0.333 1.21462,-0.459 1.87184,-0.279c1.40596,0.432 2.27117,2.05202 1.8968,3.65404c-0.19134,0.78301 -0.63227,1.39501 -1.21462,1.80002c0.49084,-0.18 1.00663,-0.279 1.52243,-0.126c0.94008,0.279 1.58898,1.11601 1.83024,2.07902c0,0 0.02496,0.054 0.02496,0.081z"></path></g><g style="mix-blend-mode: normal" text-anchor="none" font-size="none" font-weight="none" font-family="none" stroke-dashoffset="0" stroke-dasharray="" stroke-miterlimit="10" stroke-linejoin="miter" stroke-linecap="butt" stroke-width="1" stroke="none" fill-rule="nonzero" fill="none" data-paper-data="{&quot;selected&quot;:false}"><path fill="#ffffff" data-paper-data="{&quot;guideItem&quot;:null,&quot;selected&quot;:false}" d="M98.174,15.91216c-0.20798,-1.40401 -0.77369,-2.76303 -1.71377,-3.87004c-0.09983,-0.117 -0.29118,-0.333 -0.53243,-0.60301c-3.00326,-3.42003 -6.61383,-6.30906 -10.75684,-7.71308c-3.06982,-1.03501 -6.09804,-0.82801 -8.81844,0.261c-4.98325,1.99802 -8.93491,6.93907 -10.23272,12.46512c-0.22462,0.96301 -0.85689,2.77203 0.01664,3.59104c0.54075,0.51301 1.4226,0.85501 2.09646,1.17001c0.70714,0.333 1.53907,0.67501 2.33772,0.56701c0.58235,-0.081 0.80697,-0.52201 1.15638,-0.97201c0.69882,-0.89101 1.38932,-1.80002 2.1547,-2.63703c3.02822,-3.31203 7.0298,-1.42201 10.16617,1.26901c-0.00832,0.036 -0.02496,0.063 -0.03328,0.09c1.08151,0.89101 2.07982,1.85402 2.82024,2.70903c0.00832,0.009 0.00832,0.009 0.01664,0.018c2.52074,2.96103 6.70535,3.06903 9.34256,0.243c1.65554,-1.75502 2.32108,-4.23904 1.97999,-6.58807z"></path><path fill="#000000" d="M100.936,15.43515c-0.28286,-2.05202 -1.1231,-3.93304 -2.38764,-5.44505c-0.14143,-0.153 -0.34941,-0.378 -0.60731,-0.68401c-0.49084,-0.55801 -1.00663,-1.11601 -1.52243,-1.59302c-3.25284,-3.34803 -6.74694,-5.65206 -10.39911,-6.89407c-1.58898,-0.53101 -3.2362,-0.81001 -4.8751,-0.81001c-1.94671,0 -3.88511,0.378 -5.76527,1.14301c-5.74031,2.30402 -10.44903,8.01008 -11.97145,14.57115l-0.09151,0.333c-0.32445,1.29601 -1.1231,4.31104 0.98168,6.28206c0.79865,0.75601 1.73041,1.18801 2.50411,1.52102l0.32445,0.153c0.86521,0.405 1.94671,0.83701 3.13637,0.83701c0.20798,0 0.42428,0 0.65722,-0.027c1.61394,-0.225 2.43755,-1.34101 2.83688,-1.87202l0.11647,-0.153l0.39933,-0.50401c0.54075,-0.71101 1.05655,-1.36801 1.58898,-1.98002c0.56571,-0.58501 1.09815,-0.86401 1.78033,-0.86401c0.86521,0 1.98831,0.459 3.21125,1.26901l-0.02496,0.054l1.47251,1.18801c0.95672,0.78301 1.83024,1.62002 2.46251,2.38502c1.43092,1.67402 3.32772,2.76303 5.36594,3.11403c0.49084,0.099 0.98168,0.153 1.49747,0.153c2.46251,0 4.78359,-1.03501 6.53896,-2.94303c2.23789,-2.38502 3.28612,-5.83206 2.77032,-9.23409zM96.20233,22.50923c-1.97167,2.07902 -4.77527,2.55603 -7.12131,1.46701c-0.42428,-0.18 -0.79865,-0.432 -1.17302,-0.71101c-0.37437,-0.306 -0.72378,-0.63001 -1.05655,-1.01701c-0.56571,-0.63001 -1.26453,-1.34101 -2.01327,-1.99802c-0.2579,-0.252 -0.54075,-0.486 -0.82361,-0.71101c0,-0.027 0.02496,-0.072 0.02496,-0.099c-1.94671,-1.67402 -4.21788,-3.04203 -6.39753,-3.04203c-1.33941,0 -2.62058,0.50401 -3.76864,1.77302c-0.77369,0.83701 -1.45588,1.74602 -2.1547,2.63703c-0.34941,0.459 -0.56571,0.89101 -1.14806,0.96301c-0.09151,0.027 -0.20798,0.027 -0.30781,0.027c-0.69882,0 -1.40596,-0.306 -2.03823,-0.58501c-0.65722,-0.306 -1.54739,-0.65701 -2.08814,-1.17001c-0.86521,-0.83701 -0.23294,-2.63703 -0.02496,-3.60004c1.28949,-5.52606 5.24947,-10.4671 10.24104,-12.47412c1.49747,-0.61201 3.11973,-0.93601 4.77527,-0.93601c1.31445,0 2.67049,0.225 4.02654,0.68401c2.12974,0.71101 4.12637,1.82702 5.97325,3.22203c1.33941,1.01701 2.60394,2.15102 3.752,3.39303c0.16639,0.18 0.32445,0.333 0.46588,0.486c0.56571,0.58501 0.94008,1.01701 1.09815,1.21501c0.23294,0.279 0.44924,0.58501 0.63227,0.89101c0.16639,0.279 0.32445,0.55801 0.46588,0.86401c0,0.027 0.02496,0.054 0.02496,0.072c0.14143,0.333 0.2579,0.65701 0.34941,1.01701c0.11647,0.333 0.19134,0.68401 0.23294,1.03501c0.34941,2.36702 -0.29949,4.85105 -1.94671,6.59707z"></path><path fill="#673101" data-paper-data="{&quot;guideItem&quot;:null,&quot;selected&quot;:false}" d="M96.20233,22.50923c-1.97167,2.07902 -4.77527,2.55603 -7.12131,1.46701c-0.39933,-0.207 -0.79865,-0.432 -1.17302,-0.71101c-0.37437,-0.306 -0.72378,-0.63001 -1.05655,-1.01701c-0.56571,-0.63001 -1.26453,-1.34101 -2.01327,-1.99802c-0.2579,-0.252 -0.54075,-0.486 -0.82361,-0.71101c0,-0.027 0.02496,-0.072 0.02496,-0.099c0.2579,-0.96301 0.89016,-1.80002 1.84688,-2.07902c0.5158,-0.153 1.00663,-0.054 1.49747,0.126c-0.58235,-0.405 -1.03159,-1.01701 -1.21462,-1.80002c-0.37437,-1.59302 0.49084,-3.22203 1.8968,-3.65404c0.65722,-0.18 1.31445,-0.054 1.87184,0.279c-0.49084,-0.405 -0.89016,-0.93601 -1.05655,-1.64702c-0.34941,-1.46701 0.34941,-2.97003 1.57235,-3.50104c0.09151,-0.054 0.20798,-0.099 0.32445,-0.126c0.09151,-0.027 0.20798,-0.072 0.34941,-0.099c1.33941,1.01701 2.60394,2.15102 3.752,3.39303c0.16639,0.18 0.32445,0.333 0.46588,0.486c0.56571,0.58501 0.94008,1.01701 1.09815,1.21501c0.23294,0.279 0.44924,0.58501 0.63227,0.89101c0.16639,0.279 0.32445,0.55801 0.46588,0.86401c0,0.027 0.02496,0.054 0.02496,0.072c0.14143,0.333 0.2579,0.65701 0.34941,1.01701c0.11647,0.333 0.19134,0.68401 0.23294,1.03501c0.34941,2.36702 -0.29949,4.85105 -1.94671,6.59707z"></path></g>
               </svg>