<svg viewBox="0 0 110 200" xml:space="preserve" xmlns:xlink="http://www.w3.org/1999/xlink" xmlns="http://www.w3.org/2000/svg">
                    <g style="mix-blend-mode: normal" text-anchor="none" font-size="none" font-weight="none" font-family="none" stroke-dashoffset="0" stroke-dasharray="" stroke-miterlimit="10" stroke-linejoin="miter" stroke-linecap="butt" stroke-width="1" stroke="none" fill-rule="none" fill="none" data-paper-data="{&quot;selected&quot;:false}"><path fill-rule="nonzero" fill="#ffffff" data-paper-data="{&quot;guideItem&quot;:null,&quot;selected&quot;:false}" d="M70.73375,135.68437v30.14007c0,0 -2.06281,0.55848 -4.81599,0.55848c-2.75318,0 -4.81599,-0.55848 -4.81599,-0.55848v-30.14007c0,-1.98171 4.45832,-3.61212 6.3215,-3.61212c1.83823,0 3.31047,1.63041 3.31047,3.61212z"></path><path fill-rule="evenodd" fill="#009ff9" data-paper-data="{&quot;guideItem&quot;:null,&quot;selected&quot;:false}" d="M83.81759,194.38815c-2.44542,3.02662 -6.413,2.52218 -9.69851,2.52218h-8.8501v-0.07206c-1.85486,-0.37833 -4.15888,-1.88263 -4.15888,-3.68419v-27.31162c0,0 2.06281,0.55848 4.81599,0.55848c2.75318,0 4.81599,-0.55848 4.81599,-0.55848v11.49394c0.93991,-0.02702 1.94636,0.05405 3.14411,0.30626c0.02495,0 0.2329,0.05405 0.2329,0.05405c4.22542,0.99086 7.89356,4.07152 9.83992,8.24213c1.08131,2.24294 1.53047,6.3595 -0.1414,8.44931z"></path><path fill-rule="nonzero" fill="#000000" d="M67.41496,132.09026c1.83823,0 3.32711,1.61239 3.32711,3.60312v26.68108v3.45899v11.48493c0.06654,0 0.13308,0 0.20794,0c0.86505,0 1.82159,0.07206 2.92785,0.30626c0.04159,0.00901 0.2329,0.05405 0.2329,0.05405c4.22542,0.99086 7.90188,4.06251 9.85655,8.23312c1.05636,2.26096 1.52215,6.40454 -0.1414,8.47633c-1.83823,2.27897 -4.54982,2.56722 -7.17823,2.56722c-0.86505,0 -1.72178,-0.02702 -2.5286,-0.02702h-3.36869h-2.25411h-2.40383h-0.82346v-0.09008c-1.8715,-0.36932 -4.1672,-1.88263 -4.1672,-3.69319v-30.76161v0v-26.68108c0.00832,-2.00874 4.48328,-3.61212 6.31318,-3.61212M67.41496,129.03662c-1.92972,0 -9.12459,1.66644 -9.12459,6.65676v26.68108v30.76161c0,3.25181 2.86131,5.68392 5.77253,6.52164c0.36598,0.19817 0.77355,0.30626 1.20608,0.30626h0.82346h2.40383h2.25411h3.36869c0.38262,0 0.78187,0.00901 1.18112,0.01802c0.44916,0.00901 0.89832,0.01802 1.34748,0.01802c3.16075,0 6.74571,-0.43237 9.30758,-3.61212c2.66168,-3.29685 1.91309,-8.91771 0.53234,-11.86326c-2.33729,-4.98131 -6.73739,-8.65649 -11.76964,-9.83651l-0.18299,-0.04504c-0.33271,-0.07206 -0.64879,-0.12611 -0.96486,-0.18016v-8.63847v-3.45899v-26.68108c-0.00832,-3.66617 -2.7615,-6.64775 -6.15515,-6.64775z"></path></g><g style="mix-blend-mode: normal" text-anchor="none" font-size="none" font-weight="none" font-family="none" stroke-dashoffset="0" stroke-dasharray="" stroke-miterlimit="10" stroke-linejoin="miter" stroke-linecap="butt" stroke-width="1" stroke="none" fill-rule="nonzero" fill="none" data-paper-data="{&quot;selected&quot;:false}"><path fill="#ffffff" data-paper-data="{&quot;guideItem&quot;:null,&quot;selected&quot;:false}" d="M18.8309,99.36495c-1.19776,2.21592 -2.18757,4.53092 -2.98608,6.91798c-3.52673,0.20718 -7.23646,-2.23393 -9.11627,-4.29672c2.51196,-6.45859 6.50449,-12.20556 12.35188,-16.73648c1.31421,-1.01788 3.31047,-2.87349 5.07384,-2.49516c6.57935,1.43224 -4.05907,14.29537 -5.32337,16.61037z"></path><path fill="#0088c5" data-paper-data="{&quot;guideItem&quot;:null,&quot;selected&quot;:false}" d="M15.84482,106.28293c-0.19131,0.63955 -0.39925,1.2701 -0.56561,1.93668c-0.2828,1.47728 -0.5157,2.99959 -0.59056,3.30586c-1.08131,4.88222 -0.44916,9.10688 -0.0915,14.04315c0.16636,2.34203 0.04991,4.98131 -1.31421,6.45859c-0.20794,0.25222 -0.44916,0.4594 -0.73196,0.61253c-0.56561,0.36031 -1.24766,0.53146 -2.11271,0.53146c-0.25785,0 -0.54065,-0.02702 -0.82346,-0.05405c-0.5157,-0.07206 -1.08131,-0.20718 -1.64692,-0.40535c-1.19776,-0.43237 -2.42047,-1.14399 -3.05262,-2.10782c-3.00271,-4.37779 -2.11271,-10.44904 -1.5471,-15.2592c0.30776,-2.49516 0.7486,-4.96329 1.38907,-7.37738c0.02495,-0.09909 0.0915,-0.36031 0.20794,-0.73864c0.06654,-0.25222 0.1414,-0.55848 0.2329,-0.86475c0.04991,-0.18016 0.0915,-0.33329 0.1414,-0.50444c0.0915,-0.36031 0.20794,-0.71162 0.30776,-1.07193c0.0915,-0.36031 0.20794,-0.71162 0.33271,-1.0449c0.20794,-0.65757 0.42421,-1.22506 0.56561,-1.52232c0.06654,-0.15313 0.1414,-0.22519 0.19131,-0.22519c1.87981,2.05378 5.58954,4.49489 9.10795,4.28771z"></path><path fill="#0088c5" data-paper-data="{&quot;guideItem&quot;:null,&quot;selected&quot;:false}" d="M15.86977,106.28293c-0.20794,0.63955 -0.39925,1.2701 -0.59056,1.93668c0.16636,-0.65757 0.3743,-1.29712 0.56561,-1.93668z"></path><path fill="#000000" d="M28.76231,83.21398c-0.3743,-1.0449 -1.38907,-2.87349 -4.05907,-3.45899c-0.33271,-0.05405 -0.68206,-0.09909 -1.0314,-0.09909c-2.32897,0 -4.30028,1.57636 -5.73094,2.72035l-0.46579,0.37833c-5.78085,4.44985 -10.17263,10.30491 -13.05889,17.39405c-0.86505,1.24308 -1.45561,3.51304 -2.34561,6.97203c-0.6571,2.52218 -1.14785,5.13444 -1.48056,7.83678l-0.04991,0.53146c-0.6072,4.96329 -1.43066,11.72814 2.11271,16.93465c1.2643,1.85561 3.33542,2.80142 4.45832,3.17975c0.73196,0.25222 1.48056,0.4594 2.18757,0.53146c0.39925,0.05405 0.79851,0.07206 1.14785,0.07206c2.56187,0 4.13393,-1.19804 4.98234,-2.18889c1.59701,-1.88263 2.25411,-4.72909 1.97131,-8.70153c-0.04991,-0.83772 -0.11645,-1.65743 -0.19131,-2.46813c-0.30776,-3.79228 -0.56561,-7.04409 0.2329,-10.62919c0.02495,-0.15313 0.0915,-0.50444 0.19131,-0.99086c0.0915,-0.61253 0.2329,-1.42323 0.39925,-2.26096c0.82346,-2.92753 1.90477,-5.64789 3.24393,-8.06197c0.1414,-0.25222 0.73196,-1.08994 1.22271,-1.82858c4.15056,-5.91812 7.74384,-11.61104 6.26328,-15.86272zM18.8309,99.36495c-1.19776,2.21592 -2.18757,4.53092 -2.96112,6.91798c-0.20794,0.63955 -0.39925,1.2701 -0.59056,1.93668c-0.2828,1.47728 -0.5157,2.99959 -0.59056,3.30586c-1.08131,4.88222 -0.44916,9.10688 -0.0915,14.04315c0.16636,2.34203 0.04991,4.98131 -1.31421,6.45859c-0.19131,0.22519 -0.44916,0.4594 -0.73196,0.61253c-0.56561,0.36031 -1.24766,0.53146 -2.11271,0.53146c-0.25785,0 -0.54065,-0.02702 -0.82346,-0.05405c-0.5157,-0.07206 -1.08131,-0.20718 -1.64692,-0.40535c-1.19776,-0.43237 -2.42047,-1.14399 -3.05262,-2.10782c-3.00271,-4.37779 -2.11271,-10.44904 -1.5471,-15.2592c0.30776,-2.49516 0.7486,-4.96329 1.38907,-7.37738c0.02495,-0.09909 0.0915,-0.36031 0.20794,-0.73864c0.06654,-0.25222 0.1414,-0.55848 0.2329,-0.86475c0.04991,-0.18016 0.0915,-0.33329 0.1414,-0.50444c0.0915,-0.36031 0.20794,-0.71162 0.30776,-1.07193c0.0915,-0.36031 0.20794,-0.71162 0.33271,-1.0449c0.19131,-0.65757 0.39925,-1.22506 0.56561,-1.52232c0.06654,-0.15313 0.1414,-0.22519 0.19131,-0.22519h0.02495c2.51196,-6.45859 6.47954,-12.23258 12.32693,-16.73648c1.19776,-0.91879 2.96112,-2.5402 4.58309,-2.5402c0.16636,0 0.33271,0.02702 0.49075,0.05405c6.57103,1.41422 -4.06739,14.27735 -5.33169,16.59235z"></path></g><g style="mix-blend-mode: normal" text-anchor="none" font-size="none" font-weight="none" font-family="none" stroke-dashoffset="0" stroke-dasharray="" stroke-miterlimit="10" stroke-linejoin="miter" stroke-linecap="butt" stroke-width="1" stroke="none" fill-rule="nonzero" fill="none" data-paper-data="{&quot;selected&quot;:false}"><path fill="#000000" d="M88.11787,89.6005c1.67187,0 3.4186,1.79255 4.58309,2.80142c5.61449,4.84619 9.27431,10.84538 11.45356,17.43008c0.01664,0 0.04159,-0.00901 0.06654,-0.00901v0c0.40757,0 1.55542,5.5488 1.67187,6.09828c0.50738,2.45012 0.84009,4.93627 1.02309,7.44044c0.34103,4.81917 0.92327,10.94447 -2.27907,15.15111c-0.69037,0.90979 -1.93804,1.56736 -3.17739,1.92767c-0.57393,0.16214 -1.13953,0.27023 -1.64692,0.30626c-0.18299,0.00901 -0.36598,0.01802 -0.54065,0.01802c-4.65795,0 -4.48328,-4.32374 -3.74299,-8.04396c0.98981,-4.99932 1.09794,-9.75544 0.34935,-14.52957c-0.08318,-0.48642 -0.16636,-0.97284 -0.26617,-1.45926c-0.06654,-0.3513 -0.13308,-0.6936 -0.21626,-1.0449c-0.19131,-0.86475 -0.40757,-1.7295 -0.6571,-2.58524c-0.03327,-0.12611 -0.06654,-0.25222 -0.09981,-0.38734c-0.62383,-2.12584 -1.41402,-4.19763 -2.37888,-6.20637c-1.14785,-2.38706 -11.13749,-15.84471 -4.49991,-16.88961c0.12477,-0.00901 0.24122,-0.01802 0.35766,-0.01802M88.11787,86.54686v0c-0.24953,0 -0.49907,0.01802 -0.7486,0.05405c-2.70327,0.42337 -3.80122,2.1979 -4.21711,3.21578c-1.69682,4.1616 1.62196,10.03468 5.47309,16.20502c0.47411,0.76566 1.01477,1.63041 1.14785,1.90064c0.85673,1.79255 1.59701,3.72022 2.18757,5.72896l0.0915,0.36031c0.22458,0.79269 0.42421,1.59438 0.6072,2.39607c0.06654,0.31527 0.13308,0.63955 0.19963,0.96383c0.0915,0.46841 0.16636,0.91879 0.24953,1.37819c0.69037,4.35977 0.58224,8.73756 -0.33271,13.33153c-0.53234,2.66631 -0.99813,6.52164 1.01477,9.23299c0.85673,1.14399 2.49533,2.50417 5.48141,2.50417c0.22458,0 0.46579,-0.00901 0.70701,-0.02702c0.70701,-0.04504 1.47224,-0.18916 2.21253,-0.40535c1.13953,-0.33329 3.26056,-1.153 4.61636,-2.93654c3.80122,-4.99932 3.31047,-11.80921 2.95281,-16.78152l-0.04159,-0.54948c-0.19131,-2.71135 -0.55729,-5.35964 -1.08131,-7.88182c-0.73196,-3.55808 -1.22271,-5.93613 -2.10439,-7.24226c-2.52028,-7.19723 -6.57935,-13.25046 -12.08571,-17.98856l-0.46579,-0.41436c-1.34748,-1.20704 -3.40197,-3.04463 -5.86402,-3.04463z"></path><path fill="#ffffff" data-paper-data="{&quot;guideItem&quot;:null,&quot;selected&quot;:false}" d="M104.17948,109.823c-2.58682,0.22519 -6.10524,0.99086 -9.55711,2.81944c-0.6072,-2.10782 -1.38907,-4.14358 -2.34561,-6.1253c-1.14785,-2.38706 -11.12917,-15.84471 -4.48328,-16.88961c1.76337,-0.27924 3.65982,1.70247 4.93243,2.7744c5.59786,4.8552 9.26599,10.82737 11.45356,17.42107z"></path><path fill="#0088c5" data-paper-data="{&quot;guideItem&quot;:null,&quot;selected&quot;:false}" d="M104.64527,138.51281c-0.70701,0.91879 -1.94636,1.57636 -3.16907,1.93668c-0.59056,0.18016 -1.14785,0.27924 -1.66355,0.30626c-5.19029,0.33329 -5.04888,-4.17061 -4.27533,-8.03495c1.05636,-5.24253 1.13122,-10.19682 0.2329,-15.20515c-0.2828,-1.60339 -0.6571,-3.2338 -1.14785,-4.8552c3.45187,-1.82858 6.9786,-2.59424 9.55711,-2.81944c0.02495,0 0.02495,0 0.04991,0c0.39925,0 1.57206,5.5488 1.66355,6.10728c0.5157,2.44111 0.84841,4.93627 1.0314,7.42242c0.32439,4.81016 0.91495,10.94447 -2.27907,15.1421z"></path></g><g style="mix-blend-mode: normal" text-anchor="none" font-size="none" font-weight="none" font-family="none" stroke-dashoffset="0" stroke-dasharray="" stroke-miterlimit="10" stroke-linejoin="miter" stroke-linecap="butt" stroke-width="1" stroke="none" fill-rule="nonzero" fill="none" data-paper-data="{&quot;selected&quot;:false}"><path fill="#ffffff" data-paper-data="{&quot;guideItem&quot;:null,&quot;selected&quot;:false}" d="M36.57269,3.64816c1.24766,0.39634 2.50365,0.98185 3.78458,1.75652c1.05636,0.63055 2.04617,1.44125 2.97776,2.27897c2.98608,2.68432 6.82888,11.14264 2.71991,14.52957c-2.96944,2.45012 -5.7143,-3.66617 -7.38617,-5.4317c-3.73468,-3.96343 -9.07468,0.39634 -11.96926,3.66617c-2.32897,2.64829 -6.1801,2.74738 -8.6172,0.21619c-2.4371,-2.53119 -2.54524,-6.71981 -0.24122,-9.38612c2.86131,-3.30586 6.37141,-6.1253 10.41384,-7.45845c3.01103,-0.98185 5.6644,-1.00887 8.31776,-0.17115z"></path><path fill="#673101" data-paper-data="{&quot;guideItem&quot;:null,&quot;selected&quot;:false}" d="M27.60614,16.0699c-0.47411,-0.14412 -0.94823,-0.06305 -1.38907,0.09008c0.53234,-0.3423 0.94823,-0.90078 1.11458,-1.61239c0.34103,-1.42323 -0.44916,-2.87349 -1.74673,-3.25181c-0.6072,-0.17115 -1.21439,-0.05405 -1.7301,0.2342c0.45748,-0.3513 0.82346,-0.84673 0.97318,-1.47728c0.34103,-1.42323 -0.44084,-2.88249 -1.74673,-3.25181c-0.11645,-0.03603 -0.2329,-0.01802 -0.35766,-0.02702c-2.66168,2.02675 -4.46664,4.03549 -4.87421,4.5039c-2.30402,2.66631 -2.18757,6.85493 0.24953,9.38612c2.42879,2.53119 6.28823,2.4321 8.6172,-0.21619c0.68206,-0.77467 1.61365,-1.64843 2.6201,-2.45012c-0.21626,-0.90979 -0.84009,-1.68446 -1.7301,-1.92767"></path><path fill="#000000" d="M32.77979,3.05364c1.28925,0 2.54524,0.20718 3.7929,0.59451c1.24766,0.39634 2.50365,0.98185 3.78458,1.75652c1.05636,0.63055 2.04617,1.44125 2.97776,2.27897c2.98608,2.68432 6.82888,11.14264 2.71991,14.52957c-0.48243,0.39634 -0.96486,0.56749 -1.43066,0.56749c-2.40383,0 -4.55813,-4.52191 -5.95552,-5.99919c-1.05636,-1.12597 -2.2458,-1.57636 -3.46851,-1.57636c-2.00458,0 -4.10898,1.21605 -5.90561,2.72035c0.00832,0.02702 0.02495,0.05405 0.03327,0.08107c-0.99813,0.79269 -1.9214,1.65743 -2.60346,2.4321c-0.00832,0.00901 -0.00832,0.00901 -0.01664,0.01802c-1.19776,1.36918 -2.80309,2.05378 -4.40842,2.05378c-1.51383,0 -3.02767,-0.61253 -4.20879,-1.83759c-1.52215,-1.58537 -2.13767,-3.8103 -1.82159,-5.90911c0.19131,-1.26109 0.71533,-2.47714 1.58038,-3.47701c0.19963,-0.22519 0.74028,-0.82872 1.55542,-1.63041c2.55355,-2.57623 5.50636,-4.72909 8.85842,-5.82804c1.58038,-0.52245 3.06926,-0.77467 4.51655,-0.77467M32.77979,0c-1.73841,0 -3.47683,0.29726 -5.34,0.90979c-3.45187,1.13498 -6.80393,3.32388 -9.96468,6.52164c-0.79851,0.78368 -1.38907,1.43224 -1.67187,1.74751c-1.23935,1.43224 -2.02953,3.17975 -2.32066,5.0894c-0.47411,3.16173 0.5157,6.38652 2.65337,8.60244c1.66355,1.7295 3.85112,2.68432 6.15515,2.68432c2.42879,0 4.7744,-1.09895 6.45459,-2.99959c0.59056,-0.66658 1.38907,-1.40522 2.2458,-2.08981c0.19131,-0.15313 0.35766,-0.32428 0.49907,-0.50444c1.42234,-1.09895 2.72823,-1.70247 3.70972,-1.70247c0.57393,0 1.03972,0.21619 1.4972,0.70261c0.24122,0.25222 0.68206,0.90078 1.07299,1.46827c1.56374,2.28798 3.71804,5.41368 6.85384,5.41368c1.10626,0 2.18757,-0.41436 3.1358,-1.19804c1.83823,-1.52232 2.84468,-3.77426 2.9029,-6.52164c0.0915,-4.7381 -2.79477,-10.33194 -5.523,-12.78206c-1.2643,-1.13498 -2.34561,-1.9637 -3.41028,-2.60325c-1.50552,-0.90078 -2.93617,-1.55835 -4.36683,-2.00874c-1.53047,-0.49543 -3.03598,-0.72963 -4.58309,-0.72963z"></path></g><g style="mix-blend-mode: normal" text-anchor="none" font-size="none" font-weight="none" font-family="none" stroke-dashoffset="0" stroke-dasharray="" stroke-miterlimit="10" stroke-linejoin="miter" stroke-linecap="butt" stroke-width="1" stroke="none" fill-rule="nonzero" fill="none" data-paper-data="{&quot;selected&quot;:false}"><path fill="#ffffff" data-paper-data="{&quot;guideItem&quot;:null,&quot;selected&quot;:false}" d="M72.74665,3.64816c-1.24766,0.39634 -2.50365,0.98185 -3.78458,1.75652c-1.05636,0.63055 -2.04617,1.44125 -2.97776,2.27897c-2.98608,2.68432 -6.82888,11.14264 -2.71991,14.52957c2.96944,2.45012 5.7143,-3.66617 7.38617,-5.4317c3.73468,-3.96343 9.07468,0.39634 11.96926,3.66617c2.32897,2.64829 6.1801,2.74738 8.6172,0.21619c2.4371,-2.53119 2.54524,-6.71981 0.24122,-9.38612c-2.86131,-3.30586 -6.37141,-6.1253 -10.41384,-7.45845c-3.00271,-0.98185 -5.6644,-1.00887 -8.31776,-0.17115z"></path><path fill="#673101" data-paper-data="{&quot;guideItem&quot;:null,&quot;selected&quot;:false}" d="M81.72151,16.0699c0.47411,-0.14412 0.94823,-0.06305 1.38907,0.09008c-0.53234,-0.3423 -0.94823,-0.90078 -1.11458,-1.61239c-0.34103,-1.42323 0.44916,-2.87349 1.74673,-3.25181c0.6072,-0.17115 1.21439,-0.05405 1.7301,0.2342c-0.45748,-0.3513 -0.82346,-0.84673 -0.97318,-1.47728c-0.34103,-1.42323 0.44084,-2.88249 1.74673,-3.25181c0.11645,-0.03603 0.2329,-0.01802 0.35766,-0.02702c2.66168,2.02675 4.46664,4.03549 4.87421,4.5039c2.30402,2.66631 2.18757,6.85493 -0.24953,9.38612c-2.42879,2.53119 -6.28823,2.4321 -8.6172,-0.21619c-0.68206,-0.77467 -1.61365,-1.64843 -2.6201,-2.45012c0.21626,-0.90979 0.83178,-1.68446 1.7301,-1.92767"></path><path fill="#000000" d="M76.54786,3.05364c1.43897,0 2.93617,0.25222 4.51655,0.77467c3.35206,1.09895 6.30487,3.25181 8.85842,5.82804c0.80682,0.79269 1.3558,1.39621 1.55542,1.63041c0.86505,0.99986 1.38907,2.21592 1.58038,3.47701c0.31608,2.09882 -0.29944,4.33275 -1.82159,5.90911c-1.18112,1.22506 -2.69496,1.83759 -4.20879,1.83759c-1.60533,0 -3.21066,-0.68459 -4.40842,-2.05378c-0.00832,-0.00901 -0.00832,-0.00901 -0.01664,-0.01802c-0.68206,-0.77467 -1.60533,-1.63041 -2.60346,-2.4321c0.00832,-0.02702 0.02495,-0.05405 0.03327,-0.08107c-1.79664,-1.49529 -3.90103,-2.72035 -5.90561,-2.72035c-1.22271,0 -2.41215,0.4594 -3.46851,1.57636c-1.39738,1.47728 -3.54337,5.99919 -5.95552,5.99919c-0.46579,0 -0.94823,-0.17115 -1.43066,-0.56749c-4.10898,-3.38693 -0.26617,-11.84525 2.71991,-14.52957c0.93159,-0.83772 1.9214,-1.64843 2.97776,-2.27897c1.28925,-0.76566 2.53692,-1.36018 3.78458,-1.75652c1.24766,-0.39634 2.50365,-0.59451 3.7929,-0.59451M76.54786,0c-1.5471,0 -3.05262,0.2342 -4.58309,0.72062c-1.43066,0.45039 -2.85299,1.10796 -4.36683,2.00874c-1.06467,0.63955 -2.1543,1.46827 -3.4186,2.60325c-2.72823,2.45913 -5.61449,8.04396 -5.523,12.78206c0.05822,2.74738 1.05636,4.99932 2.89458,6.52164c0.94823,0.78368 2.02953,1.19804 3.1358,1.19804c3.14411,0 5.2901,-3.1257 6.85384,-5.41368c0.39093,-0.56749 0.83178,-1.20704 1.07299,-1.46827c0.45748,-0.48642 0.92327,-0.70261 1.4972,-0.70261c0.9815,0 2.27907,0.60352 3.70972,1.70247c0.1414,0.18916 0.30776,0.36031 0.49907,0.50444c0.86505,0.68459 1.65524,1.42323 2.23748,2.08981c1.68019,1.91866 4.03412,3.0086 6.4629,3.0086c2.30402,0 4.49159,-0.95483 6.15515,-2.69333c2.13767,-2.21592 3.12748,-5.44071 2.64505,-8.60244c-0.2828,-1.90064 -1.08131,-3.65716 -2.30402,-5.07139c-0.29944,-0.33329 -0.89,-0.99086 -1.72178,-1.80156c-3.12748,-3.16173 -6.47954,-5.35063 -9.93141,-6.48561c-1.83823,-0.60352 -3.58496,-0.90078 -5.31505,-0.90078z"></path></g><g style="mix-blend-mode: normal" text-anchor="none" font-size="none" font-weight="none" font-family="none" stroke-dashoffset="0" stroke-dasharray="" stroke-miterlimit="10" stroke-linejoin="miter" stroke-linecap="butt" stroke-width="1" stroke="none" fill-rule="none" fill="none" data-paper-data="{&quot;selected&quot;:false}"><g><path fill-rule="evenodd" fill="#009ff9" data-paper-data="{&quot;guideItem&quot;:null,&quot;selected&quot;:false}" d="M94.43106,115.16462c0.3743,7.60258 -1.36411,18.77224 -6.0387,25.30289c-5.523,7.72869 -15.59581,12.76404 -27.61498,13.80894c-1.43066,0.12611 -3.00271,0.20718 -4.53318,0.20718h-3.16907c-1.53047,0 -3.07757,-0.07206 -4.50823,-0.20718c-12.02749,-1.0449 -22.1003,-6.08026 -27.61498,-13.80894c-4.67458,-6.53966 -6.413,-17.70031 -6.0387,-25.30289c0.19131,-4.25168 1.05636,-8.54839 1.90477,-12.719c0.42421,-2.13485 0.84841,-4.25168 1.19776,-6.38652c0.39925,-2.36905 0.16636,-6.79187 0.1414,-7.04409c-0.2828,-3.30586 -1.19776,-6.41355 -2.04617,-9.00779c-3.38533,-10.22384 -3.96757,-19.79012 -1.80495,-30.08602c1.94636,-9.30505 6.0387,-17.19587 11.17908,-21.67275c8.58393,-7.42242 18.5902,-11.66509 27.42367,-11.66509h0.06654l1.68851,-0.02702l1.69682,0.02702h0.06654c8.83347,0 18.81478,4.25168 27.40703,11.6741c5.16533,4.47687 9.23272,12.35869 11.17908,21.67275c2.16262,10.30491 1.59701,19.86218 -1.78832,30.08602c-0.86505,2.59424 -1.78832,5.69292 -2.04617,9.05283c-0.02495,0.09909 -0.0915,1.54934 -0.0915,3.2338c0,1.29712 0.04991,2.72035 0.20794,3.76526c0.34935,2.13485 0.77355,4.25168 1.22271,6.38652c0.83178,4.1616 1.69682,8.45832 1.91309,12.70999z"></path><path fill-rule="evenodd" fill="#ffffff" data-paper-data="{&quot;guideItem&quot;:null,&quot;selected&quot;:false}" d="M59.72934,21.81687c3.7929,0.54047 7.51094,1.63942 10.89627,3.19777c5.523,2.5402 11.96926,6.62973 14.94702,12.3677c1.31421,2.5402 2.21253,5.3146 2.72823,8.16106c0.39093,2.15286 -0.09981,5.17948 1.09794,7.02608c2.42047,3.75625 2.97776,5.86407 3.64318,10.54812c0.62383,4.40481 0.27449,9.10688 -1.44729,13.18741c-4.47496,10.62019 -15.32132,15.10607 -25.2361,15.44836c-1.37243,0.04504 -2.76982,0.09008 -4.15888,0.13512c-6.44627,0.21619 -12.79272,0.09008 -19.23899,-0.13512c-9.92309,-0.3423 -20.76114,-4.81917 -25.2361,-15.44836c-1.72178,-4.08053 -2.07112,-8.7826 -1.44729,-13.18741c0.66542,-4.67504 1.22271,-6.79187 3.64318,-10.54812c1.19776,-1.8466 0.70701,-4.87322 1.09794,-7.02608c0.5157,-2.85547 1.4057,-5.62987 2.72823,-8.16106c2.97776,-5.73796 7.92683,-9.81849 13.45814,-12.3677c2.23748,-1.02689 4.56645,-1.81957 6.93702,-2.41409c4.64131,-1.16201 10.863,-1.45025 15.58749,-0.78368z"></path><path fill-rule="nonzero" fill="#000000" d="M95.27115,101.80606c-0.42421,-2.10782 -0.84841,-4.19763 -1.19776,-6.27843c-0.25785,-1.67545 -0.1414,-5.0894 -0.0915,-6.23339c0.25785,-2.97257 1.10626,-5.82804 1.90477,-8.24213c3.52673,-10.65622 4.13393,-21.06022 1.87981,-31.7885c-2.06281,-9.97163 -6.50449,-18.493 -12.16889,-23.37522c-9.09132,-7.85479 -19.72974,-12.35869 -29.1704,-12.35869h-0.06654l-1.68851,-0.02702l-1.68851,0.02702h-0.06654c-9.46562,0 -20.10404,4.5039 -29.19535,12.35869c-5.63944,4.88222 -10.07281,13.40359 -12.16889,23.37522c-2.25411,10.73729 -1.62196,21.13228 1.90477,31.7885c0.79851,2.38706 1.64692,5.26055 1.87981,8.18808c0.06654,1.19804 0.19131,4.60298 -0.0915,6.27843c-0.34935,2.08981 -0.7486,4.17061 -1.1728,6.27843c-0.86505,4.26969 -1.76337,8.70153 -1.97131,13.19641c-0.42421,8.42229 1.48056,20.14142 6.62094,27.33865c6.01374,8.39526 16.81852,13.83597 29.61124,14.97996c1.50552,0.12611 3.14411,0.20718 4.74113,0.20718h3.16907c1.59701,0 3.24393,-0.07206 4.74113,-0.20718c12.82599,-1.14399 23.62245,-6.5847 29.63619,-14.97996c5.14038,-7.19723 7.02019,-18.92537 6.62094,-27.33865c-0.2329,-4.48588 -1.1229,-8.90871 -1.97131,-13.18741zM56.2442,154.48363h-3.16907c-1.53047,0 -3.07757,-0.07206 -4.50823,-0.20718c-12.02749,-1.0449 -22.1003,-6.08026 -27.61498,-13.80894c-4.67458,-6.53966 -6.413,-17.70031 -6.0387,-25.30289c0.19131,-4.25168 1.05636,-8.54839 1.90477,-12.719c0.42421,-2.13485 0.84841,-4.25168 1.19776,-6.38652c0.39925,-2.36905 0.16636,-6.79187 0.1414,-7.04409c-0.2828,-3.30586 -1.19776,-6.41355 -2.04617,-9.00779c-3.38533,-10.22384 -3.96757,-19.79012 -1.80495,-30.08602c1.94636,-9.30505 6.0387,-17.19587 11.17908,-21.67275c8.58393,-7.42242 18.5902,-11.66509 27.42367,-11.66509h0.06654l1.68851,-0.02702l1.69682,0.02702h0.06654c8.83347,0 18.81478,4.25168 27.40703,11.6741c5.16533,4.47687 9.23272,12.35869 11.17908,21.67275c2.16262,10.30491 1.59701,19.86218 -1.78832,30.08602c-0.86505,2.59424 -1.78832,5.69292 -2.04617,9.05283c-0.02495,0.09909 -0.0915,1.54934 -0.0915,3.2338c0,1.29712 0.04991,2.72035 0.20794,3.76526c0.34935,2.13485 0.77355,4.25168 1.22271,6.38652c0.82346,4.17061 1.68851,8.46732 1.90477,12.719c0.3743,7.60258 -1.36411,18.77224 -6.0387,25.30289c-5.523,7.72869 -15.59581,12.76404 -27.61498,13.80894c-1.43066,0.1171 -3.00271,0.19817 -4.52486,0.19817z"></path></g><g fill-rule="evenodd" fill="#fdbdb8"><path data-paper-data="{&quot;guideItem&quot;:null,&quot;selected&quot;:false}" d="M39.6669,64.76602c0,6.26042 -4.64963,11.3318 -10.38889,11.3318c-5.73926,0 -10.38057,-5.07139 -10.38057,-11.3318c0,-6.25141 4.64963,-11.32279 10.38057,-11.32279c5.73094,0 10.38889,5.07139 10.38889,11.32279"></path><path data-paper-data="{&quot;guideItem&quot;:null,&quot;selected&quot;:false}" d="M90.42189,64.76602c0,6.26042 -4.64963,11.3318 -10.38889,11.3318c-5.73094,0 -10.38057,-5.07139 -10.38057,-11.3318c0,-6.25141 4.64963,-11.32279 10.38057,-11.32279c5.73926,0 10.38889,5.07139 10.38889,11.32279"></path></g></g><g style="mix-blend-mode: normal" text-anchor="none" font-size="none" font-weight="none" font-family="none" stroke-dashoffset="0" stroke-dasharray="" stroke-miterlimit="10" stroke-linejoin="miter" stroke-linecap="butt" stroke-width="1" stroke="none" fill-rule="none" fill="none" data-paper-data="{&quot;selected&quot;:false}"><path fill-rule="evenodd" fill="#000000" data-paper-data="{&quot;guideItem&quot;:null,&quot;selected&quot;:false}" d="M56.45214,61.12687c0,0.81971 -0.79851,1.47728 -1.78832,1.47728c-0.98981,0 -1.79664,-0.65757 -1.79664,-1.47728c0,-0.8107 0.79851,-1.47728 1.79664,-1.47728c0.99813,0 1.78832,0.66658 1.78832,1.47728"></path><g fill-rule="evenodd" fill="#000000"><path data-paper-data="{&quot;guideItem&quot;:null,&quot;selected&quot;:false}" d="M64.96122,59.37036v0c-1.33916,0 -2.42879,-1.09895 -2.42879,-2.45012v-0.3423c0,-1.35117 1.08963,-2.45012 2.42879,-2.45012c1.33916,0 2.4371,1.09895 2.4371,2.45012v0.3423c-0.00832,1.35117 -1.09794,2.45012 -2.4371,2.45012"></path><path data-paper-data="{&quot;guideItem&quot;:null,&quot;selected&quot;:false}" d="M44.36643,59.37036v0c-1.33916,0 -2.42879,-1.09895 -2.42879,-2.45012v-0.3423c0,-1.35117 1.08963,-2.45012 2.42879,-2.45012c1.33916,0 2.4371,1.09895 2.4371,2.45012v0.3423c-0.00832,1.35117 -1.09794,2.45012 -2.4371,2.45012"></path></g><path fill-rule="nonzero" fill="#231815" d="M60.8772,70.51299c-2.27075,0 -4.52486,-0.72963 -6.21337,-1.92767c-3.12748,2.22492 -8.17636,2.82845 -11.66982,0.19817c-1.02309,-0.76566 -2.27075,-1.97271 -2.39552,-3.35991c-0.06654,-0.67558 0.1414,-1.31514 0.57393,-1.81057c0.53234,-0.61253 1.43066,-0.63055 1.98795,-0.05405c0.42421,0.44138 0.54065,1.09895 0.34103,1.65743c0.19131,0.26123 0.58224,0.66658 1.09794,1.05391c2.67,2.00874 7.02851,1.26109 9.14122,-0.74765c0.53234,-0.50444 1.32252,-0.50444 1.85486,0c2.11271,2.00874 6.4629,2.75638 9.14122,0.74765c0.5157,-0.38734 0.90664,-0.79269 1.09794,-1.05391c-0.19963,-0.55848 -0.08318,-1.21605 0.34103,-1.65743c0.56561,-0.5765 1.45561,-0.55848 1.98795,0.05405c0.43252,0.49543 0.64047,1.13498 0.57393,1.81057c-0.13308,1.3872 -1.38075,2.59424 -2.39552,3.35991c-1.61365,1.20704 -3.54337,1.7295 -5.46477,1.7295zM66.1257,65.72986h0.02495z"></path></g><g style="mix-blend-mode: normal" text-anchor="none" font-size="none" font-weight="none" font-family="none" stroke-dashoffset="0" stroke-dasharray="" stroke-miterlimit="10" stroke-linejoin="miter" stroke-linecap="butt" stroke-width="1" stroke="none" fill-rule="none" fill="none" data-paper-data="{&quot;selected&quot;:false}"><path fill-rule="nonzero" fill="#ffffff" data-paper-data="{&quot;guideItem&quot;:null,&quot;selected&quot;:false}" d="M39.24269,154.13232v5.34162c0,0 2.13767,-1.7295 4.88253,-1.7295c2.74486,0 4.74113,1.7295 4.74113,1.7295v-5.34162c0,-2.00874 -2.11271,-3.61212 -3.94262,-3.61212c-1.82159,0 -5.68103,1.60339 -5.68103,3.61212z"></path><path fill-rule="evenodd" fill="#009ff9" data-paper-data="{&quot;guideItem&quot;:null,&quot;selected&quot;:false}" d="M26.16716,189.76715c2.44542,3.05364 6.43795,2.5402 9.72347,2.5402h8.83347v-0.09909c1.87981,-0.36031 4.15888,-1.85561 4.15888,-3.68419v-29.04112c0,0 -1.99626,-1.7295 -4.74113,-1.7295c-2.74486,0 -4.88253,1.7295 -4.88253,1.7295v13.22344c-0.91495,0 -1.92972,0.05405 -3.12748,0.30626c-0.04991,0.02702 -0.2329,0.05405 -0.2329,0.05405c-4.22542,0.99086 -7.91851,4.07152 -9.86487,8.24213c-1.06467,2.25195 -1.53879,6.39553 0.13308,8.45832z"></path><path fill-rule="nonzero" fill="#000000" d="M44.92372,150.52921c1.83823,0 3.95926,1.61239 3.95926,3.60312v3.63915v0v30.76161c0,1.81057 -2.2957,3.32388 -4.1672,3.69319v0.09008h-0.82346h-2.40383h-2.25411h-3.36869c-0.81514,0 -1.67187,0.02702 -2.5286,0.02702c-2.62841,0 -5.34,-0.27924 -7.17823,-2.56722c-1.67187,-2.07179 -1.20608,-6.21538 -0.1414,-8.47633c1.95467,-4.17061 5.63113,-7.24226 9.85655,-8.23312c0,0 0.19131,-0.04504 0.2329,-0.05405c1.11458,-0.2342 2.06281,-0.30626 2.92785,-0.30626c0.06654,0 0.1414,0 0.20794,0v-11.48493v-3.45899v-3.63915c0.00832,-1.98171 3.84281,-3.59411 5.68103,-3.59411M44.92372,147.47557c-2.42047,0 -8.49244,1.98171 -8.49244,6.65676v3.63915v3.45899v8.63847c-0.31608,0.05405 -0.63215,0.10809 -0.96486,0.18016l-0.18299,0.04504c-5.03225,1.18002 -9.43234,4.8552 -11.76964,9.83651c-1.38075,2.93654 -2.12935,8.56641 0.53234,11.86326c2.56187,3.17975 6.13851,3.61212 9.30758,3.61212c0.45748,0 0.90664,-0.00901 1.34748,-0.01802c0.39925,-0.00901 0.79851,-0.01802 1.18112,-0.01802h3.36869h2.25411h2.40383h0.82346c0.43252,0 0.84009,-0.10809 1.20608,-0.30626c2.91954,-0.83772 5.77253,-3.26983 5.77253,-6.52164v-30.76161v-3.63915c-0.00832,-3.9364 -3.58496,-6.66577 -6.7873,-6.66577z"></path></g>
               </svg>