<svg viewBox="0 0 100 200" xml:space="preserve" xmlns:xlink="http://www.w3.org/1999/xlink" xmlns="http://www.w3.org/2000/svg">
                    <g style="mix-blend-mode: normal" text-anchor="none" font-size="none" font-weight="none" font-family="none" stroke-dashoffset="0" stroke-dasharray="" stroke-miterlimit="10" stroke-linejoin="miter" stroke-linecap="butt" stroke-width="1" stroke="none" fill-rule="none" fill="none" data-paper-data="{&quot;selected&quot;:false}"><path fill-rule="evenodd" fill="#0088c5" data-paper-data="{&quot;guideItem&quot;:null,&quot;selected&quot;:false}" d="M47.50313,192.07928c0.24393,0.51608 0.56177,1.06208 0.97571,1.6006c0.22175,0.26926 0.43611,0.53852 0.68004,0.78534c0.22175,0.26926 0.48785,0.51608 0.73178,0.74046c1.0718,0.91249 2.33579,1.57816 3.55543,1.57816h0.16262c3.62934,-0.19447 5.69903,-3.57517 7.6948,-6.13313l6.71909,-8.64622l2.18795,-2.81227c0.2661,-0.34405 0.46568,-0.71803 0.58395,-1.08452c0.29567,-0.93493 0.24393,-1.97457 -0.17001,-2.85714c-0.22175,-0.49364 -0.56177,-0.93493 -1.02006,-1.3089l-6.09079,-4.85415c0,-0.02244 -0.02218,-0.02244 -0.02218,-0.02244c-0.70961,-0.78534 -1.48574,-1.69783 -2.31361,-2.68512c-0.41394,-0.49364 -0.85005,-0.98728 -1.26399,-1.50337c-1.8775,-2.28871 -3.77718,-4.77936 -4.98942,-6.82124l0.39176,0.74046l-8.47093,5.04862c0.8057,1.37622 1.67792,2.78235 2.63146,4.16604c0.97571,1.37622 2.01794,2.78235 3.11931,4.13613c0.63569,0.74046 0.39176,1.82498 -0.43611,2.28871c-0.60612,0.34405 -1.31573,0.86013 -2.06969,1.65295c-0.19219,0.19447 -0.39176,0.41885 -0.58395,0.66567c-0.60612,0.74046 -1.19007,1.62304 -1.77402,2.75991c-0.02218,0.05236 -0.09609,0.22438 -0.09609,0.22438c-1.89229,3.83695 -1.91446,8.44428 -0.13305,12.34106z"></path><path fill-rule="nonzero" fill="#ffffff" data-paper-data="{&quot;guideItem&quot;:null,&quot;selected&quot;:false}" d="M43.99205,158.12266c0.34002,0.81526 0.73178,1.62304 1.12354,2.43829v0.02244c0.09609,0.26926 0.24393,0.53852 0.3622,0.78534l0.41394,0.78534c0,0.02244 0,0.02244 0,0.02244c0.29567,0.53852 0.60612,1.10696 0.92397,1.65295h0.02218l8.47093,-5.04862l-0.39176,-0.74046c-0.14783,-0.29918 -0.29567,-0.56844 -0.43611,-0.81526c-2.80147,-5.39267 -4.21329,-10.81526 -4.21329,-16.21541c0,-2.70755 0.3622,-5.42259 1.0718,-8.1077c0.46568,-1.82498 0.02218,-3.59761 -1.26399,-4.87659c-1.02006,-1.03216 -2.40971,-1.6006 -3.79935,-1.6006c-0.43611,0 -0.85005,0.05236 -1.26399,0.17203c-1.60401,0.41885 -2.80147,1.65295 -3.23758,3.37322c-0.53221,1.99701 -0.90179,3.99402 -1.14572,5.96111c-0.8944,7.45699 0.22175,14.87659 3.36324,22.19147z"></path><path fill-rule="nonzero" fill="#000000" data-paper-data="{&quot;guideItem&quot;:null,&quot;selected&quot;:false}" d="M52.58864,172.1466c0.02218,0.02244 0.05174,0.05236 0.07392,0.07479c0.58395,0.71803 0.39176,1.75019 -0.41394,2.16904c-0.02218,0.02244 -0.07392,0.02244 -0.09609,0.05236c0.82787,-0.47868 1.0718,-1.55572 0.43611,-2.29619z"></path><path fill-rule="nonzero" fill="#000000" d="M42.21803,161.27898c-5.01899,-10.546 -6.11297,-21.3089 -3.25976,-32.05684c0.70961,-2.73747 2.70538,-4.77936 5.30727,-5.46746c0.63569,-0.19447 1.31573,-0.26926 2.01794,-0.26926c2.16578,0 4.33156,0.89005 5.86904,2.46073c1.99577,2.01945 2.74973,4.92895 2.01794,7.73373c-1.95142,7.29245 -0.94614,14.75692 2.89756,22.17651c1.26399,2.41586 4.25764,6.33508 8.44876,11.03964l5.89122,4.70456c1.38965,1.10696 2.26187,2.70755 2.48362,4.48766c0.19219,1.77263 -0.29567,3.52281 -1.38965,4.92895l-2.18795,2.81227l-6.71909,8.64622c-0.24393,0.29918 -0.46568,0.61331 -0.70961,0.93493c-1.95142,2.56545 -4.60505,6.08826 -9.15836,6.30516c-0.09609,0.02244 -0.19219,0.02244 -0.29567,0.02244c-4.13937,0 -7.47305,-3.94166 -8.59659,-6.40239c-2.1436,-4.70456 -2.09186,-10.27674 0.14783,-14.90651l0.09609,-0.17203c1.36008,-2.73747 2.91974,-4.4353 4.25764,-5.46746c-1.75184,-2.26627 -3.33367,-4.58489 -4.72332,-6.94839zM43.99205,158.12266c0.34002,0.81526 0.73178,1.62304 1.12354,2.43829v0.02244c0.09609,0.26926 0.24393,0.53852 0.3622,0.78534l0.41394,0.78534c0,0.02244 0,0.02244 0,0.02244c0.29567,0.53852 0.60612,1.10696 0.92397,1.65295h0.02218c0.8057,1.37622 1.67792,2.78235 2.63146,4.16604c0.97571,1.37622 2.01794,2.78235 3.11931,4.13613c0.63569,0.74046 0.39176,1.82498 -0.43611,2.28871c-0.60612,0.34405 -1.31573,0.86013 -2.06969,1.65295c-0.19219,0.19447 -0.39176,0.41885 -0.58395,0.66567c-0.60612,0.74046 -1.19007,1.62304 -1.77402,2.75991c-0.02218,0.05236 -0.09609,0.22438 -0.09609,0.22438c-1.8775,3.84443 -1.89968,8.45176 -0.11827,12.34106c0.24393,0.51608 0.56177,1.06208 0.97571,1.6006c0.19219,0.26926 0.43611,0.53852 0.68004,0.78534c0.22175,0.26926 0.48785,0.51608 0.73178,0.74046c1.0718,0.91249 2.33579,1.57816 3.55543,1.57816h0.15523c3.62934,-0.19447 5.69903,-3.57517 7.6948,-6.13313l6.71909,-8.64622l2.18795,-2.81227c0.2661,-0.34405 0.46568,-0.71803 0.58395,-1.08452c0.34002,-0.93493 0.2661,-1.97457 -0.17001,-2.85714c-0.22175,-0.49364 -0.56177,-0.93493 -1.02006,-1.3089l-6.09079,-4.85415c0,-0.02244 -0.02218,-0.02244 -0.02218,-0.02244c-0.70961,-0.78534 -1.48574,-1.69783 -2.31361,-2.68512c-0.41394,-0.49364 -0.85005,-0.98728 -1.26399,-1.50337c-1.8775,-2.28871 -3.77718,-4.77936 -4.98942,-6.82124c-0.14783,-0.29918 -0.29567,-0.56844 -0.43611,-0.81526c-2.80147,-5.39267 -4.21329,-10.81526 -4.21329,-16.21541c0,-2.70755 0.3622,-5.42259 1.0718,-8.1077c0.46568,-1.82498 0.02218,-3.59761 -1.26399,-4.87659c-1.02006,-1.03216 -2.40971,-1.6006 -3.79935,-1.6006c-0.43611,0 -0.85005,0.05236 -1.26399,0.17203c-1.60401,0.41885 -2.80147,1.65295 -3.23758,3.37322c-0.53221,1.99701 -0.90179,3.99402 -1.14572,5.96111c-0.90179,7.45699 0.21436,14.87659 3.35585,22.19147z"></path></g><g style="mix-blend-mode: normal" text-anchor="none" font-size="none" font-weight="none" font-family="none" stroke-dashoffset="0" stroke-dasharray="" stroke-miterlimit="10" stroke-linejoin="miter" stroke-linecap="butt" stroke-width="1" stroke="none" fill-rule="none" fill="none" data-paper-data="{&quot;selected&quot;:false}"><path fill-rule="nonzero" fill="#ffffff" data-paper-data="{&quot;guideItem&quot;:null,&quot;selected&quot;:false}" d="M58.28767,162.97681l10.17842,0.32162l0.77613,-26.53702c0.07392,-1.97457 -4.60505,-3.69484 -6.54908,-3.76963c-1.95142,-0.05236 -3.55543,1.50337 -3.62934,3.44802z"></path><path fill-rule="evenodd" fill="#009ff9" data-paper-data="{&quot;guideItem&quot;:null,&quot;selected&quot;:false}" d="M37.76082,193.79955c2.48362,3.08153 6.71909,2.70755 10.2006,2.81227l11.70851,0.36649l2.53537,0.07479c2.04751,0.05236 5.30727,-1.5258 5.38119,-3.57517l0.77613,-26.97831l0.09609,-3.2012l-10.17842,-0.32162l-0.09609,3.23111l-0.39176,13.32835c0,0 -2.31361,-3.08153 -9.0327,-1.97457c-0.05174,0.02244 -0.24393,0.05236 -0.24393,0.05236c-4.50157,0.8377 -8.47093,3.76963 -10.66628,7.83844c-1.18268,2.19147 -1.79619,6.2528 -0.0887,8.34705z"></path><path fill-rule="nonzero" fill="#000000" d="M62.58227,133.00673c-1.89229,0 -3.45933,1.5258 -3.51108,3.44802l-0.78352,26.52954l-0.48785,16.5445c0,0 -1.66314,-2.19895 -6.25341,-2.19895c-0.83527,0 -1.75923,0.07479 -2.79408,0.24682c-0.04435,0.00748 -0.24393,0.05236 -0.24393,0.05236c-4.49418,0.84518 -8.46354,3.76215 -10.6515,7.81601c-1.18268,2.19895 -1.79619,6.26776 -0.09609,8.36948c2.49102,3.06657 6.7117,2.70755 10.18582,2.81227l11.71591,0.35153l2.53537,0.07479c0.03696,0 0.07392,0 0.11827,0c2.04012,0 5.19639,-1.55572 5.25553,-3.57517l0.88701,-30.17951v0l0.78352,-26.52954c0.05913,-1.96709 -4.61984,-3.69484 -6.55647,-3.75467c-0.02957,-0.00748 -0.06653,-0.00748 -0.10348,-0.00748M62.58227,130.04488v0c0.02957,0 0.16262,0 0.19219,0c2.02534,0.05984 9.53534,1.91473 9.3949,6.7988l-0.78352,26.52954l-0.88701,30.17951c-0.11827,3.99402 -4.84159,6.44727 -8.17526,6.44727c-0.02957,0 -0.1774,0 -0.20697,0l-2.53537,-0.07479l-11.71591,-0.35153c-0.40655,-0.01496 -0.82787,-0.01496 -1.2492,-0.02244c-3.4002,-0.04488 -8.05699,-0.10471 -11.10978,-3.86687c-2.69798,-3.32087 -1.74445,-8.81825 -0.21436,-11.66043c2.60189,-4.82423 7.34739,-8.30217 12.68422,-9.30441l0.20697,-0.04488c1.23442,-0.20942 2.33579,-0.29918 3.37063,-0.29918c1.32312,0 2.47623,0.15707 3.46673,0.39641l0.34741,-11.86986l0.78352,-26.52954c0.10348,-3.55273 2.92713,-6.3276 6.43081,-6.3276z"></path></g><g style="mix-blend-mode: normal" text-anchor="none" font-size="none" font-weight="none" font-family="none" stroke-dashoffset="0" stroke-dasharray="" stroke-miterlimit="10" stroke-linejoin="miter" stroke-linecap="butt" stroke-width="1" stroke="none" fill-rule="nonzero" fill="none" data-paper-data="{&quot;selected&quot;:false}"><path fill="#ffffff" data-paper-data="{&quot;guideItem&quot;:null,&quot;selected&quot;:false}" d="M16.1252,108.60883c1.21225,-5.3104 1.11615,-10.59088 1.09398,-16.23785c-0.00739,-2.49813 -0.19958,-11.57068 4.76767,-9.52132c1.79619,0.74046 2.55754,3.56769 3.17106,5.22812c1.33051,3.61257 2.10665,7.37472 2.35796,11.14435c0.28089,4.22588 -0.10348,8.4368 -0.97571,12.52805c-2.61668,-1.30142 -6.25341,-2.6552 -10.41496,-3.14136z"></path><path fill="#0088c5" data-paper-data="{&quot;guideItem&quot;:null,&quot;selected&quot;:false}" d="M7.18119,125.34031c0.04435,-0.05236 0.09609,-0.09723 0.14044,-0.14959c1.22703,-1.32386 2.28405,-2.63276 3.23019,-3.9641c1.35269,-1.90726 2.46145,-3.86687 3.40759,-6.04338c0.46568,-1.06956 0.8944,-2.19147 1.29355,-3.38818c0.3548,-1.06208 0.63569,-2.12416 0.87223,-3.18624c4.16894,0.48616 7.80568,1.83994 10.40757,3.14136c-0.42133,1.98205 -0.95353,3.93418 -1.59662,5.84892c-1.84054,5.45251 -4.33156,11.57816 -8.3231,15.87135c-1.94403,2.08676 -4.98942,3.15632 -7.93873,2.33358c-0.61351,-0.17203 -1.19746,-0.39641 -1.68532,-0.65071c-1.80358,-0.93493 -3.25236,-2.61032 -3.20801,-4.60733c0.00739,-0.39641 0.09609,-0.7629 0.20697,-1.11444c0.52481,-1.63052 2.04012,-2.82723 3.19323,-4.09125z"></path><path fill="#000000" d="M20.64155,82.55797c-3.58499,0 -3.42977,7.57666 -3.42237,9.82049c0.02218,5.64697 0.11088,10.92745 -1.10137,16.23785c-0.24393,1.06208 -0.51742,2.11668 -0.87223,3.18624c-0.39915,1.18923 -0.82787,2.31862 -1.29355,3.38818c-0.94614,2.17651 -2.0549,4.13613 -3.40759,6.04338c-0.94614,1.33134 -2.00316,2.64024 -3.23019,3.9641c-0.04435,0.05236 -0.09609,0.10471 -0.14044,0.14959c-1.15311,1.26402 -2.66103,2.46073 -3.19323,4.09125c-0.11088,0.35153 -0.19958,0.71803 -0.20697,1.11444c-0.04435,1.99701 1.40443,3.6724 3.20801,4.60733c0.49525,0.2543 1.0718,0.47868 1.68532,0.65071c0.67265,0.18699 1.35269,0.27674 2.02534,0.27674c2.26187,0 4.41287,-1.00224 5.91339,-2.61032c3.99893,-4.29319 6.48255,-10.41885 8.3231,-15.87135c0.64308,-1.91473 1.17529,-3.86687 1.59662,-5.84892c0.87962,-4.09125 1.2566,-8.29469 0.97571,-12.52805c-0.25132,-3.76963 -1.02745,-7.53179 -2.35796,-11.14435c-0.61351,-1.66043 -1.36747,-4.48018 -3.16366,-5.22812c-0.49525,-0.20942 -0.93875,-0.29918 -1.3379,-0.29918M20.64155,79.59611c0.79092,0 1.6114,0.17203 2.44667,0.51608c2.78669,1.15183 3.85849,4.24832 4.57549,6.29768l0.22175,0.63575c1.41182,3.82947 2.26187,7.86088 2.53537,11.98205c0.28828,4.31563 -0.06653,8.80329 -1.03484,13.35079c-0.4509,2.11668 -1.02006,4.19596 -1.69271,6.17801c-1.80358,5.34031 -4.44983,12.09424 -8.96618,16.94091c-2.09925,2.25131 -5.02638,3.53777 -8.03482,3.53777c-0.94614,0 -1.88489,-0.12715 -2.79408,-0.38145c-0.79092,-0.2169 -1.57444,-0.52356 -2.24709,-0.86761c-3.02322,-1.5632 -4.86376,-4.36799 -4.79724,-7.3074c0.01478,-0.64323 0.13305,-1.28646 0.3548,-1.96709c0.6283,-1.92969 1.98099,-3.29095 3.06018,-4.39043c0.25871,-0.26178 0.51742,-0.52356 0.76135,-0.78534l0.15523,-0.16455c1.10876,-1.19671 2.08447,-2.4009 2.98626,-3.6724c1.22703,-1.72775 2.2397,-3.53029 3.10453,-5.51234c0.42872,-0.98728 0.82048,-2.01197 1.20485,-3.14884c0.28089,-0.8377 0.53221,-1.75767 0.79092,-2.89454c1.0718,-4.6896 1.04963,-9.52132 1.02745,-14.62977l-0.00739,-0.92745v-0.2169c-0.02218,-4.09125 0.27349,-8.59387 2.63885,-10.99476c1.01267,-1.03216 2.29883,-1.57816 3.71065,-1.57816z"></path></g><g style="mix-blend-mode: normal" text-anchor="none" font-size="none" font-weight="none" font-family="none" stroke-dashoffset="0" stroke-dasharray="" stroke-miterlimit="10" stroke-linejoin="miter" stroke-linecap="butt" stroke-width="1" stroke="none" fill-rule="nonzero" fill="none" data-paper-data="{&quot;selected&quot;:false}"><path fill="#ffffff" data-paper-data="{&quot;guideItem&quot;:null,&quot;selected&quot;:false}" d="M27.56022,16.16305c2.04751,2.51309 5.84687,2.98429 8.47093,1.06208c0.09609,-0.07479 0.19219,-0.14959 0.31784,-0.24682c0.19219,-0.11967 0.3622,-0.24682 0.53221,-0.36649c0.07392,-0.07479 0.17001,-0.11967 0.24393,-0.17203c0.65786,-0.53852 1.26399,-1.00972 1.82576,-1.40613v-0.02244c0.94614,-0.66567 1.77402,-1.13687 2.53537,-1.13687c0.58395,0 1.12354,0.26926 1.67792,0.93493c1.31573,1.57816 0.77613,3.25355 2.57972,3.54525c0.92397,0.17203 1.77402,0.51608 2.40971,0.51608c0.41394,0 0.73178,-0.14959 0.92397,-0.56844c1.50791,-3.17876 0.39176,-8.35453 -1.50791,-11.15931c-1.12354,-1.65295 -2.77929,-2.78235 -4.70115,-3.47046c-1.38965,-0.49364 -2.65363,-0.71803 -3.82153,-0.71803c-0.51003,0 -0.99788,0.05236 -1.48574,0.11967c-0.41394,0.07479 -0.8057,0.17203 -1.19007,0.29918c-1.12354,0.32162 -2.16578,0.86013 -3.25976,1.55572h-0.02218c-1.41182,0.89005 -2.84582,1.99701 -4.47939,3.17876c-2.63146,1.94465 -3.09714,5.54226 -1.04963,8.05535z"></path><path fill="#000000" data-paper-data="{&quot;guideItem&quot;:null,&quot;selected&quot;:false}" d="M38.78087,15.1982c-0.29567,0.22438 -0.99788,0.74046 -1.65575,1.23411c0.65786,-0.53852 1.26399,-1.00972 1.82576,-1.40613c-0.04435,0.05236 -0.09609,0.09723 -0.17001,0.17203z"></path><path fill="#000000" d="M23.44302,11.55572c0.29567,-2.34106 1.50791,-4.41286 3.42977,-5.81152l0.73178,-0.56844c3.74761,-2.78235 6.98519,-5.17577 11.44241,-5.17577c1.55966,0 3.14149,0.29918 4.81941,0.89005c2.65363,0.95737 4.70115,2.51309 6.11297,4.58489c2.40971,3.59761 3.74761,9.82797 1.75184,14.09125c-0.65786,1.42857 -1.99577,2.26627 -3.5776,2.26627c-0.75396,0 -1.434,-0.17203 -2.04751,-0.34405c-0.2661,-0.07479 -0.56177,-0.14959 -0.85005,-0.19447c-2.74973,-0.49364 -3.53325,-2.61032 -3.89545,-3.62004c-0.07392,-0.24682 -0.14783,-0.41885 -0.22175,-0.59088c-0.48785,0.32162 -1.16789,0.86013 -1.70749,1.27898c-0.53221,0.39641 -1.09398,0.8377 -1.70749,1.27898c-1.55966,1.13687 -3.40759,1.72775 -5.35901,1.72775c-2.77929,0 -5.35901,-1.20419 -7.08868,-3.32835c-1.47096,-1.8549 -2.12882,-4.14361 -1.83315,-6.48467zM27.56022,16.16305c2.04751,2.51309 5.84687,2.98429 8.47093,1.06208c0.09609,-0.07479 0.19219,-0.14959 0.31784,-0.24682c0.19219,-0.11967 0.3622,-0.24682 0.53221,-0.36649c0.07392,-0.07479 0.17001,-0.11967 0.24393,-0.17203c0.65786,-0.49364 1.36008,-1.00972 1.65575,-1.23411c0.07392,-0.07479 0.11827,-0.11967 0.17001,-0.17203v-0.02244c0.94614,-0.66567 1.77402,-1.13687 2.53537,-1.13687c0.58395,0 1.12354,0.26926 1.67792,0.93493c1.31573,1.57816 0.77613,3.25355 2.57972,3.54525c0.92397,0.17203 1.77402,0.51608 2.40971,0.51608c0.41394,0 0.73178,-0.14959 0.92397,-0.56844c1.50791,-3.17876 0.39176,-8.35453 -1.50791,-11.15931c-1.12354,-1.65295 -2.77929,-2.78235 -4.70115,-3.47046c-1.38965,-0.49364 -2.65363,-0.71803 -3.82153,-0.71803c-0.51003,0 -0.99788,0.05236 -1.48574,0.11967c-0.41394,0.07479 -0.8057,0.17203 -1.19007,0.29918c-1.12354,0.32162 -2.16578,0.86013 -3.25976,1.55572h-0.02218c-1.41182,0.89005 -2.84582,1.99701 -4.47939,3.17876c-2.63146,1.94465 -3.09714,5.54226 -1.04963,8.05535z"></path><path fill="#683100" data-paper-data="{&quot;guideItem&quot;:null,&quot;selected&quot;:false}" d="M27.56022,16.16305c2.04751,2.51309 5.84687,2.98429 8.47093,1.06208c0.09609,-0.07479 0.19219,-0.14959 0.31784,-0.24682c0.17001,-0.09723 0.34002,-0.24682 0.53221,-0.36649c0.07392,-0.07479 0.17001,-0.11967 0.24393,-0.17203c0.65786,-0.49364 1.36008,-1.00972 1.65575,-1.23411c0.07392,-0.07479 0.11827,-0.11967 0.17001,-0.17203v-0.02244c0.24393,-0.49364 -0.70961,-1.08452 -1.46356,-1.37622c-0.43611,-0.19447 -0.90179,-0.19447 -1.36008,-0.11967c0.58395,-0.22438 1.04963,-0.64323 1.31573,-1.20419c0.53221,-1.18175 -0.05174,-2.53553 -1.26399,-3.02917c-0.58395,-0.24682 -1.19007,-0.22438 -1.72967,-0.05236c0.48785,-0.24682 0.92397,-0.61331 1.14572,-1.13687c0.53221,-1.15931 -0.41394,-2.49065 -1.65575,-3.00673c-0.09609,-0.05236 -0.58395,-0.17203 -0.82787,-0.14959h-0.02218c-1.41182,0.89005 -2.84582,1.99701 -4.47939,3.17876c-2.63146,1.93717 -3.09714,5.53478 -1.04963,8.04787z"></path></g><g style="mix-blend-mode: normal" text-anchor="none" font-size="none" font-weight="none" font-family="none" stroke-dashoffset="0" stroke-dasharray="" stroke-miterlimit="10" stroke-linejoin="miter" stroke-linecap="butt" stroke-width="1" stroke="none" fill-rule="nonzero" fill="none" data-paper-data="{&quot;selected&quot;:false}"><path fill="#ffffff" data-paper-data="{&quot;guideItem&quot;:null,&quot;selected&quot;:false}" d="M77.17356,6.74645c-2.35057,0.29918 -4.53114,1.18175 -6.25341,2.85714c-2.9493,2.8721 -5.16683,6.37996 -4.39808,10.63575c0.2661,1.48093 2.66842,2.78983 4.44983,2.90202c2.11404,0.13463 1.98099,-1.42857 3.90284,-2.97681c2.76451,-2.22139 4.30938,1.15183 7.31782,4.92895c2.4171,3.05909 6.81518,3.55273 9.82362,1.08452c3.00844,-2.46073 3.51847,-6.91847 1.13094,-9.99252c-4.61984,-5.92371 -8.75182,-10.35153 -15.97355,-9.43904z"></path><path fill="#000000" data-paper-data="{&quot;guideItem&quot;:null,&quot;selected&quot;:false}" d="M81.37207,24.01645c-0.68004,-0.8377 -1.41182,-1.75019 -1.70749,-2.1466c-0.07392,-0.09723 -0.11827,-0.19447 -0.14783,-0.29918c0.56177,0.7255 1.16789,1.54076 1.85533,2.44577z"></path><path fill="#000000" d="M68.90221,7.46447c2.06969,-2.01945 4.7455,-3.25355 7.91655,-3.64996c0.73178,-0.09723 1.48574,-0.14959 2.18795,-0.14959c7.50261,0 12.05593,5.04862 16.43923,10.69559c3.36324,4.33807 2.65363,10.66567 -1.58183,14.12117c-1.75184,1.45101 -3.96936,2.24383 -6.20906,2.24383c-3.01583,0 -5.84687,-1.37622 -7.74654,-3.76963c-0.53221,-0.68811 -1.04963,-1.37622 -1.53748,-2.01945c-0.58395,-0.78534 -1.3379,-1.79506 -1.82576,-2.31862c-0.34002,0.29918 -0.58395,0.61331 -0.85005,0.98728c-0.70961,0.93493 -1.8775,2.51309 -4.47939,2.51309c-0.14783,0 -0.2661,0 -0.41394,-0.02244c-2.53537,-0.14959 -6.54908,-1.94465 -7.1552,-5.32536c-0.82787,-4.60733 0.92397,-9.09499 5.25553,-13.30591zM66.51468,20.24682c0.2661,1.48093 2.67581,2.78235 4.45722,2.87958c0.09609,0.02244 0.17001,0.02244 0.24393,0.02244c1.8775,0 1.82576,-1.50337 3.65152,-2.98429c0.63569,-0.49364 1.16789,-0.71803 1.70749,-0.71803c1.02006,0 1.92185,0.8377 2.9493,2.11668c0.02218,0.09723 0.07392,0.19447 0.14783,0.29918c0.29567,0.39641 1.02006,1.3089 1.70749,2.1466c0.29567,0.41885 0.60612,0.78534 0.82787,1.08452c2.40971,3.05161 6.81518,3.54525 9.81623,1.08452c3.01583,-2.46073 3.53325,-6.92595 1.14572,-10c-0.05174,-0.07479 -0.11827,-0.14959 -0.19219,-0.26926c-1.41182,-1.77263 -2.77929,-3.42558 -4.19112,-4.8018c-2.77929,-2.70755 -5.77295,-4.48766 -9.76449,-4.48766c-0.58395,0 -1.19007,0.05236 -1.82576,0.11967c-2.36536,0.29918 -4.55331,1.18175 -6.2608,2.85714c-2.9567,2.89454 -5.17422,6.39491 -4.42026,10.65071z"></path><path fill="#683100" data-paper-data="{&quot;guideItem&quot;:null,&quot;selected&quot;:false}" d="M79.51675,21.57816c0.02218,0.09723 0.07392,0.19447 0.14783,0.29918c0.29567,0.39641 1.02006,1.3089 1.70749,2.1466c0.29567,0.41885 0.60612,0.78534 0.82787,1.08452c2.40971,3.05161 6.81518,3.54525 9.81623,1.08452c3.01583,-2.46073 3.53325,-6.92595 1.14572,-10c-0.05174,-0.07479 -0.11827,-0.14959 -0.19219,-0.26926c-1.41182,-1.77263 -2.77929,-3.42558 -4.19112,-4.8018c-0.22175,-0.02244 -0.65786,-0.11967 -0.77613,-0.09723c-1.50791,0.26926 -2.97148,1.62304 -2.70538,3.17876c0.11827,0.68811 0.48785,1.25654 0.97571,1.67539c-0.56177,-0.36649 -1.24181,-0.53852 -1.95142,-0.41885c-1.53748,0.26926 -2.55754,1.72775 -2.29144,3.29843c0.11827,0.7629 0.53221,1.40613 1.12354,1.82498c-0.48785,-0.22438 -1.02006,-0.34405 -1.58183,-0.24682c-0.90918,0.13463 -2.151,0.60583 -2.0549,1.24159z"></path></g><g style="mix-blend-mode: normal" text-anchor="none" font-size="none" font-weight="none" font-family="none" stroke-dashoffset="0" stroke-dasharray="" stroke-miterlimit="10" stroke-linejoin="miter" stroke-linecap="butt" stroke-width="1" stroke="none" fill-rule="nonzero" fill="none" data-paper-data="{&quot;selected&quot;:false}"><path fill="#000000" d="M52.11557,16.82124c-9.14358,0 -18.6124,3.76215 -26.17415,8.93792c-6.45299,4.41286 -10.83629,12.38594 -13.12034,19.79806c-0.14044,0.44877 -0.23654,0.89005 -0.3622,1.33882c-0.25871,0.7629 -0.50264,1.51832 -0.717,2.26627c-2.60189,9.02019 -1.04963,16.86612 1.42661,25.819c0.5396,1.94465 4.39069,11.42857 4.45722,11.8923c1.10876,5.21316 -1.55966,11.57816 -2.29883,16.71653c-1.36747,9.55123 -1.64097,19.4166 2.30622,28.4368c5.37379,12.29619 17.88801,16.66417 30.31352,17.50935c1.22703,0.08227 2.45406,0.12715 3.67369,0.12715c0.2661,0 0.5396,0 0.8057,-0.00748c0.05913,0 0.11827,-0.00748 0.1774,-0.00748l3.038,-0.04488c1.49313,-0.02244 3.0454,-0.10471 4.53114,-0.24682c10.21538,-0.99476 21.473,-5.01122 27.85946,-13.60509c4.61984,-6.21541 6.37168,-16.51458 5.86904,-24.181c-0.39915,-5.98355 -2.21013,-11.77263 -3.32628,-17.6365c-0.43611,-2.29619 -1.28616,-4.54001 -1.10876,-6.8736c0.03696,-0.49364 0.11088,-0.97233 0.1774,-1.45849c0.36959,-1.0546 3.14888,-8.97532 3.8511,-12.00449c2.06969,-6.89604 2.62407,-14.12865 1.58183,-21.43605c-1.10137,-7.68886 -4.19112,-16.26028 -9.87536,-21.64547c-7.30304,-6.92595 -17.14144,-12.53553 -27.07594,-13.31339c0,0 -0.07392,-0.00748 -0.1774,-0.01496l-3.19323,-0.2543c-0.87223,-0.07479 -1.75184,-0.11219 -2.63885,-0.11219M52.11557,13.86687c0.96832,0 1.93664,0.0374 2.87539,0.11967l3.17845,0.2543l0.24393,0.02244c9.60926,0.74794 20.1277,5.88631 28.78343,14.09125c5.46249,5.17577 9.38751,13.69484 10.76976,23.3807c1.09398,7.66642 0.5396,15.28048 -1.64836,22.63276c-0.48046,2.03441 -1.76663,6.05086 -3.82153,11.95213c-0.05174,0.34405 -0.0887,0.65819 -0.11827,0.97233c-0.0887,1.18175 0.23654,2.52805 0.58395,3.95662c0.17001,0.71055 0.34741,1.42109 0.48046,2.13912c0.3548,1.87734 0.79831,3.80703 1.23442,5.67689c0.91658,3.9641 1.86272,8.07031 2.1436,12.31862c0.52481,7.99551 -1.2566,19.17726 -6.4456,26.15557c-6.03905,8.12266 -16.94186,13.50785 -29.91437,14.77188c-1.5227,0.14959 -3.17106,0.23934 -4.77506,0.26178l-3.038,0.04488l-0.16262,0.00748l-0.85744,0.00748c-1.29355,0 -2.5945,-0.04488 -3.87327,-0.12715c-16.43183,-1.11444 -27.77076,-7.77861 -32.78975,-19.25954c-4.5607,-10.43381 -3.74761,-21.54824 -2.52797,-30.05984c0.25871,-1.7801 0.717,-3.65744 1.1605,-5.48242c0.86483,-3.55273 1.76663,-7.22513 1.19007,-10.09723c-0.17001,-0.48616 -0.84266,-2.22887 -1.44878,-3.77711c-1.54487,-3.95662 -2.66103,-6.85116 -2.98626,-8.03291c-2.40971,-8.69858 -4.33156,-17.35228 -1.41921,-27.44203c0.22175,-0.7629 0.46568,-1.54076 0.73178,-2.31114l0.11088,-0.41885c0.08131,-0.30666 0.16262,-0.61331 0.25871,-0.92745c2.87539,-9.34181 8.07917,-17.13538 14.27345,-21.37622c8.89965,-6.10322 18.77502,-9.454 27.80772,-9.454z"></path><path fill="#009ff9" data-paper-data="{&quot;guideItem&quot;:null,&quot;selected&quot;:false}" d="M13.1685,74.9813c-2.47623,-8.9454 -4.0285,-16.7988 -1.42661,-25.819c0.21436,-0.75542 0.45829,-1.51085 0.717,-2.26627c0.12566,-0.44877 0.22175,-0.89005 0.3622,-1.33882c2.28405,-7.4196 6.66735,-15.38519 13.12034,-19.80553c8.29353,-5.66941 18.8785,-9.64847 28.813,-8.83321l3.19323,0.2543c0.11088,0.00748 0.1774,0.01496 0.1774,0.01496c9.9345,0.77038 19.7729,6.38743 27.07594,13.31339c5.68425,5.39267 8.77399,13.95662 9.87536,21.64547c1.04224,7.31488 0.48785,14.54001 -1.58183,21.43605c-0.70222,3.02917 -3.48151,10.94989 -3.8511,12.00449c-0.07392,0.48616 -0.14044,0.97233 -0.1774,1.45849c-0.1774,2.33358 0.67265,4.57741 1.10876,6.8736c1.11615,5.86387 2.92713,11.65295 3.32628,17.6365c0.51003,7.66642 -1.2492,17.96559 -5.86904,24.181c-6.38646,8.59387 -17.64408,12.61032 -27.85946,13.60509c-1.48574,0.14211 -3.038,0.22438 -4.53114,0.24682l-3.038,0.04488c-0.05913,0 -0.11827,0.00748 -0.1774,0.00748c-1.49313,0.02244 -2.98626,-0.01496 -4.47939,-0.11967c-12.42551,-0.84518 -24.93973,-5.21316 -30.31352,-17.50935c-3.9398,-9.02019 -3.67369,-18.88556 -2.30622,-28.4368c0.73917,-5.13837 3.40759,-11.50337 2.29883,-16.71653c-0.05913,-0.44129 -3.91762,-9.93269 -4.45722,-11.87734z"></path></g><path style="mix-blend-mode: normal" text-anchor="none" font-size="none" font-weight="none" font-family="none" stroke-dashoffset="0" stroke-dasharray="" stroke-miterlimit="10" stroke-linejoin="miter" stroke-linecap="butt" stroke-width="1" stroke="none" fill-rule="nonzero" fill="#009ff8" data-paper-data="{&quot;guideItem&quot;:null,&quot;selected&quot;:false}" d="M54.75442,16.92595c0,0 0.07392,0.00748 0.1774,0.01496z"></path><g style="mix-blend-mode: normal" text-anchor="none" font-size="none" font-weight="none" font-family="none" stroke-dashoffset="0" stroke-dasharray="" stroke-miterlimit="10" stroke-linejoin="miter" stroke-linecap="butt" stroke-width="1" stroke="none" fill-rule="none" fill="none" data-paper-data="{&quot;selected&quot;:false}"><path fill-rule="evenodd" fill="#ffffff" data-paper-data="{&quot;guideItem&quot;:null,&quot;selected&quot;:false}" d="M7.07771,76.99327c5.06334,6.35752 15.04958,10.66567 26.71374,11.55572c28.9017,2.1466 43.89953,-6.52954 45.85095,-26.55946c0.29567,-2.8347 1.24181,-17.44203 -7.22912,-27.56918c-5.08552,-6.08826 -12.66205,-9.51384 -22.5448,-10.17203c-33.96504,-2.31862 -36.57432,23.05909 -36.67041,24.14361c-0.05174,0.61331 -0.48785,1.13687 -1.0718,1.3089c-0.31784,0.07479 -7.64306,2.19147 -8.95879,11.67539c-0.83527,6.02842 0.48046,11.30142 3.91023,15.61705z"></path><path fill-rule="nonzero" fill="#000000" d="M0.2847,60.94989c1.29355,-9.40912 7.64306,-12.8347 10.10451,-13.79955c0.75396,-4.90651 5.79512,-26.02094 35.13293,-26.02094c1.434,0 2.9493,0.05236 4.53114,0.14959c10.68845,0.74046 18.9672,4.5101 24.57014,11.21167c9.01053,10.77038 8.35266,25.5273 7.93873,29.79058c-1.95142,19.83545 -15.21959,29.54375 -40.44759,29.54375c-2.70538,0 -5.5512,-0.11967 -8.54485,-0.34405c-12.61031,-0.93493 -23.10657,-5.54226 -28.75386,-12.64024c-3.96936,-4.9813 -5.50685,-10.98728 -4.53114,-17.8908zM79.64241,61.98953c0.29567,-2.8347 1.24181,-17.44203 -7.22912,-27.56918c-5.08552,-6.08826 -12.66205,-9.51384 -22.5448,-10.17203c-33.96504,-2.31862 -36.57432,23.05909 -36.67041,24.14361c-0.05174,0.61331 -0.48785,1.13687 -1.0718,1.3089c-0.31784,0.07479 -7.64306,2.19147 -8.95879,11.67539c-0.82787,6.0359 0.48785,11.3089 3.91762,15.61705c5.06334,6.35752 15.04958,10.66567 26.71374,11.55572c28.89431,2.13912 43.89214,-6.52954 45.84356,-26.55946z"></path><path fill-rule="evenodd" fill="#ffbeb8" data-paper-data="{&quot;guideItem&quot;:null,&quot;selected&quot;:false}" d="M37.01425,64.70456c-0.14044,6.0359 4.33156,11.04712 9.99363,11.18175c5.66207,0.13463 10.37061,-4.64473 10.51844,-10.68811c0.14044,-6.02842 -4.33156,-11.03964 -9.99363,-11.17427c-5.66207,-0.13463 -10.37061,4.64473 -10.51844,10.68063"></path><path fill-rule="evenodd" fill="#ffbeb8" data-paper-data="{&quot;guideItem&quot;:null,&quot;selected&quot;:false}" d="M3.71447,59.92521c0.51003,-2.04936 2.91234,-8.92296 6.21645,-6.45475c4.45722,3.32835 2.39492,11.79506 0.18479,15.9985c-0.87223,1.65295 -2.43927,3.59013 -4.63462,3.17128c-1.24181,-0.23186 -1.7001,-2.61032 -1.86272,-3.42558c-0.61351,-3.04413 -0.65786,-6.2528 0.09609,-9.28945z"></path></g><g style="mix-blend-mode: normal" text-anchor="none" font-size="none" font-weight="none" font-family="none" stroke-dashoffset="0" stroke-dasharray="" stroke-miterlimit="10" stroke-linejoin="miter" stroke-linecap="butt" stroke-width="1" stroke="none" fill-rule="none" fill="none" data-paper-data="{&quot;selected&quot;:false}"><path fill-rule="evenodd" fill="#000000" data-paper-data="{&quot;guideItem&quot;:null,&quot;selected&quot;:false}" d="M19.42191,59.1997c-0.02218,0.78534 0.78352,1.44353 1.81098,1.46597c1.02745,0.02244 1.87011,-0.59088 1.88489,-1.37622c0.02218,-0.77786 -0.79092,-1.44353 -1.81837,-1.46597c-1.02006,-0.02244 -1.85533,0.59835 -1.8775,1.37622"></path><path fill-rule="evenodd" fill="#000000" data-paper-data="{&quot;guideItem&quot;:null,&quot;selected&quot;:false}" d="M16.8422,57.44203v0c1.06441,0.02244 1.95142,-1.00972 1.98099,-2.31114l0.00739,-0.32909c0.02957,-1.30142 -0.8057,-2.38594 -1.87011,-2.40838c-1.06441,-0.02244 -1.95142,1.00972 -1.98838,2.31114l-0.00739,0.32909c-0.02218,1.30142 0.81309,2.37846 1.8775,2.40838"></path><path fill-rule="evenodd" fill="#000000" data-paper-data="{&quot;guideItem&quot;:null,&quot;selected&quot;:false}" d="M33.34056,57.84592v0c1.2492,0.02992 2.29144,-1.00224 2.32101,-2.30366l0.00739,-0.32909c0.02957,-1.30142 -0.96093,-2.38594 -2.21013,-2.41586c-1.2492,-0.02992 -2.29144,1.00224 -2.3284,2.30366l-0.00739,0.32909c-0.02218,1.30142 0.96832,2.38594 2.21752,2.41586"></path><path fill-rule="nonzero" fill="#231815" data-paper-data="{&quot;guideItem&quot;:null,&quot;selected&quot;:false}" d="M12.96892,62.19895c0.3548,-0.5834 1.10876,-0.7629 1.67053,-0.41137c0.57656,0.35153 0.75396,1.11444 0.40655,1.69035c-0.04435,0.07479 -0.14044,0.23186 0.27349,0.73298c0.85005,1.03216 2.00316,1.15183 2.60928,1.12939c1.15311,-0.0374 2.25448,-0.59835 2.87539,-1.45849c0.03696,-0.05236 0.09609,-0.08975 0.14783,-0.13463c0.05174,-0.05236 0.0887,-0.11219 0.15523,-0.15707c0.00739,-0.00748 0.02218,-0.00748 0.02957,-0.01496c0.08131,-0.05236 0.17001,-0.08227 0.25871,-0.11219c0.05913,-0.02244 0.11827,-0.05236 0.1774,-0.06731c0.08131,-0.01496 0.17001,-0.00748 0.25132,0c0.07392,0 0.14044,-0.00748 0.21436,0.00748c0.06653,0.01496 0.13305,0.05236 0.19958,0.07479c0.08131,0.02992 0.16262,0.05984 0.23654,0.11219c0.00739,0.00748 0.02218,0.00748 0.02957,0.01496c0.05913,0.04488 0.0887,0.10471 0.14044,0.15707c0.05174,0.05236 0.11088,0.08975 0.14783,0.14959c1.73706,2.57292 6.52691,3.18624 9.49838,1.20419c0.68743,-0.45625 1.08659,-0.86013 1.2492,-1.07704c-0.22175,-0.47868 -0.12566,-1.06208 0.28089,-1.43605c0.49525,-0.45625 1.26399,-0.41885 1.72228,0.08227c0.39176,0.43381 0.56916,0.98728 0.49525,1.5632c-0.11827,0.95737 -0.93136,1.94465 -2.40971,2.92446c-1.61879,1.07704 -3.56282,1.58564 -5.47728,1.58564c-2.42449,0 -4.76028,-0.86013 -6.37168,-2.38594c-1.03484,0.86013 -2.36536,1.37622 -3.76979,1.42857c-0.06653,0 -0.13305,0 -0.19958,0c-1.71488,0 -3.29672,-0.7255 -4.35373,-2.01945c-1.3379,-1.6006 -0.87962,-2.93194 -0.48785,-3.58265z"></path></g><g style="mix-blend-mode: normal" text-anchor="none" font-size="none" font-weight="none" font-family="none" stroke-dashoffset="0" stroke-dasharray="" stroke-miterlimit="10" stroke-linejoin="miter" stroke-linecap="butt" stroke-width="1" stroke="none" fill-rule="nonzero" fill="none" data-paper-data="{&quot;selected&quot;:false}"><path fill="#ffffff" data-paper-data="{&quot;guideItem&quot;:null,&quot;selected&quot;:false}" d="M85.36361,116.52954c-0.87962,-5.37771 -2.9567,-10.2169 -5.1003,-15.43007c-0.94614,-2.30366 -4.54592,-10.62079 0.82048,-10.64323c1.94403,-0.00748 3.71065,2.31114 4.89333,3.60509c2.58711,2.82723 4.72332,6.00598 6.37907,9.39417c1.85533,3.79955 3.08235,7.83844 3.81414,11.95961c-2.89756,-0.20194 -6.77083,-0.04488 -10.80672,1.11444z"></path><path fill="#0088c5" data-paper-data="{&quot;guideItem&quot;:null,&quot;selected&quot;:false}" d="M83.39741,135.44503c0.02218,-0.06731 0.04435,-0.12715 0.07392,-0.19447c0.63569,-1.69783 1.11615,-3.31339 1.49313,-4.90651c0.53221,-2.28123 0.81309,-4.52506 0.87223,-6.89604c0.02957,-1.17427 0,-2.37846 -0.07392,-3.635c-0.07392,-1.12191 -0.21436,-2.20643 -0.39176,-3.28347c4.03589,-1.15931 7.90916,-1.3089 10.80672,-1.11444c0.3548,1.98953 0.59873,4.0015 0.72439,6.02094c0.3548,5.75168 0.3622,12.37846 -1.71488,17.88332c-1.01267,2.67764 -3.42237,4.83919 -6.45299,5.22064c-0.6283,0.08227 -1.2566,0.09723 -1.80358,0.05236c-2.01794,-0.16455 -3.98415,-1.15931 -4.70115,-3.02169c-0.14044,-0.37397 -0.19958,-0.74046 -0.22914,-1.10696c-0.14044,-1.72027 0.81309,-3.41062 1.39704,-5.0187z"></path><path fill="#000000" d="M81.09119,90.45625c-0.00739,0 -0.00739,0 0,0c-5.3664,0.01496 -1.77402,8.33209 -0.82787,10.64323c2.1436,5.21316 4.22068,10.05236 5.1003,15.43007c0.1774,1.06956 0.32524,2.16156 0.39176,3.28347c0.08131,1.25654 0.10348,2.46073 0.07392,3.635c-0.05913,2.37846 -0.34002,4.61481 -0.87223,6.89604c-0.36959,1.6006 -0.85744,3.20868 -1.49313,4.90651c-0.02218,0.06731 -0.04435,0.12715 -0.07392,0.19447c-0.59134,1.60808 -1.53748,3.29843 -1.41182,5.0187c0.02957,0.36649 0.0887,0.74046 0.22914,1.10696c0.717,1.86238 2.6832,2.85714 4.70115,3.02169c0.20697,0.01496 0.42133,0.02244 0.64308,0.02244c0.37698,0 0.76874,-0.02244 1.16789,-0.07479c3.03061,-0.38145 5.44771,-2.54301 6.45299,-5.22064c2.07708,-5.50486 2.06969,-12.13164 1.71488,-17.88332c-0.12566,-2.01945 -0.36959,-4.03141 -0.72439,-6.02094c-0.73178,-4.12117 -1.9662,-8.15258 -3.81414,-11.95961c-1.65575,-3.38818 -3.79196,-6.56694 -6.37907,-9.39417c-1.18268,-1.29394 -2.94191,-3.60509 -4.87855,-3.60509M81.08379,87.50187v0c3.00844,0 5.16683,2.43829 6.59343,4.05385l0.4435,0.50112c2.74973,2.99925 5.05595,6.39491 6.85953,10.09723c1.89229,3.87435 3.25976,8.16754 4.07285,12.73747c0.37698,2.13164 0.63569,4.27076 0.76135,6.35752c0.34741,5.63201 0.4435,12.90202 -1.90707,19.12491c-1.46356,3.87435 -4.84159,6.59686 -8.82574,7.09798c-0.51003,0.06731 -1.02745,0.09723 -1.53009,0.09723c-0.30306,0 -0.59873,-0.01496 -0.87962,-0.0374c-3.38542,-0.28422 -6.13514,-2.16156 -7.18477,-4.90651c-0.22914,-0.59835 -0.3622,-1.24159 -0.41394,-1.95961c-0.14783,-2.02693 0.59134,-3.80703 1.17529,-5.2356c0.14044,-0.34405 0.28089,-0.68811 0.40655,-1.02468l0.07392,-0.20942c0.57656,-1.54076 1.02745,-3.02169 1.38226,-4.54749c0.48046,-2.0718 0.74657,-4.12865 0.79831,-6.2902c0.02957,-1.07704 0,-2.17651 -0.07392,-3.37322c-0.05174,-0.88257 -0.17001,-1.83246 -0.3622,-2.98429c-0.77613,-4.74196 -2.61668,-9.1997 -4.5607,-13.91922l-0.3548,-0.86013l-0.08131,-0.20194c-1.75184,-4.23336 -3.26715,-8.99028 -1.20485,-12.13164c0.58395,-0.89005 1.98838,-2.39342 4.79724,-2.4009c0.00739,0.01496 0.00739,0.01496 0.01478,0.01496z"></path></g>
               </svg>