<svg viewBox="0 0 110 200" xml:space="preserve" xmlns:xlink="http://www.w3.org/1999/xlink" xmlns="http://www.w3.org/2000/svg">
                    <g style="mix-blend-mode: normal" text-anchor="none" font-size="none" font-weight="none" font-family="none" stroke-dashoffset="0" stroke-dasharray="" stroke-miterlimit="10" stroke-linejoin="miter" stroke-linecap="butt" stroke-width="1" stroke="none" fill-rule="nonzero" fill="none" data-paper-data="{&quot;selected&quot;:false}"><path fill="#ffffff" data-paper-data="{&quot;guideItem&quot;:null,&quot;selected&quot;:false}" d="M18.83614,99.78402c-1.19813,2.21382 -2.17992,4.51764 -2.96203,6.88445c-3.50286,0.22498 -7.23036,-2.21382 -9.13571,-4.29266c2.5377,-6.42549 6.53145,-12.19402 12.35568,-16.71166c1.28965,-0.98992 3.28653,-2.84377 5.05044,-2.4658c6.59802,1.42189 -4.04368,14.25486 -5.30837,16.58567z"></path><path fill="#0088c5" data-paper-data="{&quot;guideItem&quot;:null,&quot;selected&quot;:false}" d="M15.89907,106.66847c-0.23297,0.63895 -0.42434,1.2959 -0.60738,1.95284c-0.28289,1.47588 -0.51586,2.99676 -0.59074,3.27574c-1.08164,4.87761 -0.4493,9.11627 -0.11648,14.02088c0.09152,1.2419 0.09152,2.56479 -0.11648,3.7617v0.027c-0.09152,0.53096 -0.23297,1.01692 -0.42434,1.47588c-0.19137,0.48596 -0.4493,0.89093 -0.77379,1.2419c-0.20801,0.22498 -0.4493,0.40497 -0.70723,0.58495c-0.14145,0.07199 -0.30785,0.17999 -0.46594,0.22498c-0.65731,0.25198 -1.45606,0.35997 -2.46282,0.22498c-0.51586,-0.054 -1.08164,-0.17999 -1.64742,-0.37797c-1.22309,-0.43197 -2.42121,-1.16991 -3.07852,-2.10583c-2.97868,-4.36465 -2.11336,-10.43916 -1.52262,-15.23578c0.30785,-2.4928 0.74883,-4.9496 1.38949,-7.36141c0.02496,-0.09899 0.09152,-0.37797 0.20801,-0.73794c0.06656,-0.25198 0.14145,-0.55796 0.23297,-0.89093c0.46594,-1.62887 1.1482,-3.91469 1.4311,-4.31965c0.02496,-0.054 0.04992,-0.054 0.06656,-0.054c0.01664,0 0.02496,0 0.02496,0v0.027c1.90535,2.06084 5.63286,4.49964 9.13571,4.26566z"></path><path fill="#000000" d="M28.7706,83.65731c-0.37441,-1.04392 -1.38949,-2.87077 -4.06032,-3.45572c-0.33281,-0.07199 -0.68227,-0.09899 -1.03172,-0.09899c-2.34633,0 -4.29329,1.57487 -5.7327,2.71778l-0.4909,0.37797c-5.74934,4.44564 -10.14247,10.28618 -13.02963,17.37761c-0.86531,1.2419 -1.45606,3.50072 -2.34633,6.95644c-0.65731,2.4928 -1.1482,5.12959 -1.48102,7.79338l-0.06656,0.55796c-0.59074,4.93161 -1.4311,11.70806 2.13832,16.89165c1.26469,1.85385 3.33645,2.78978 4.45969,3.20374c0.72387,0.25198 1.48102,0.43197 2.17992,0.53096c0.39938,0.054 0.77379,0.07199 1.1482,0.07199c2.56266,0 4.11024,-1.1969 4.97555,-2.21382c1.5975,-1.85385 2.25481,-4.69762 1.97192,-8.65731c-0.04992,-0.83693 -0.11648,-1.67387 -0.19137,-2.4658c-0.30785,-3.7887 -0.56578,-7.06443 0.23297,-10.61915c0.02496,-0.15299 0.09152,-0.50396 0.16641,-1.01692c0.11648,-0.58495 0.25793,-1.42189 0.39938,-2.23182c0.84867,-2.92477 1.92199,-5.64255 3.23661,-8.05436c0.14145,-0.27898 0.72387,-1.11591 1.24805,-1.82685c4.16016,-5.93053 7.74622,-11.60007 6.27352,-15.83873zM18.83614,99.78402c-1.19813,2.18683 -2.16328,4.49964 -2.93707,6.88445c-0.23297,0.63895 -0.42434,1.2959 -0.60738,1.95284c-0.28289,1.47588 -0.51586,2.99676 -0.59074,3.27574c-1.08164,4.87761 -0.4493,9.11627 -0.11648,14.02088c0.09152,1.2419 0.09152,2.56479 -0.11648,3.7617v0.027c-0.09152,0.53096 -0.20801,1.01692 -0.42434,1.47588c-0.19137,0.48596 -0.4493,0.89093 -0.77379,1.2419c-0.19137,0.22498 -0.42434,0.43197 -0.70723,0.58495c-0.14145,0.07199 -0.30785,0.17999 -0.46594,0.22498c-0.46594,0.20698 -1.00676,0.30598 -1.64742,0.30598c-0.25793,0 -0.54082,-0.027 -0.82371,-0.07199c-0.51586,-0.054 -1.08164,-0.17999 -1.64742,-0.37797c-1.22309,-0.43197 -2.42121,-1.16991 -3.07852,-2.10583c-2.97868,-4.36465 -2.11336,-10.43916 -1.52262,-15.23578c0.30785,-2.4928 0.74883,-4.9496 1.38949,-7.36141c0.02496,-0.09899 0.09152,-0.37797 0.20801,-0.73794c0.04992,-0.25198 0.14145,-0.55796 0.23297,-0.89093c0.4493,-1.67387 1.12324,-4.01368 1.4311,-4.31965c0.02496,-0.054 0.04992,-0.054 0.06656,-0.054c0.01664,0 0.02496,0 0.02496,0c2.5377,-6.45248 6.50649,-12.19402 12.35568,-16.71166c1.17317,-0.89093 2.93707,-2.5108 4.57618,-2.5108c0.16641,0 0.33281,0 0.46594,0.054c6.61466,1.40389 -4.02704,14.23686 -5.29173,16.56767z"></path></g><g style="mix-blend-mode: normal" text-anchor="none" font-size="none" font-weight="none" font-family="none" stroke-dashoffset="0" stroke-dasharray="" stroke-miterlimit="10" stroke-linejoin="miter" stroke-linecap="butt" stroke-width="1" stroke="none" fill-rule="nonzero" fill="none" data-paper-data="{&quot;selected&quot;:false}"><path fill="#000000" d="M88.11114,90.0288c1.67238,0 3.41133,1.79086 4.5845,2.79878c5.61622,4.84161 9.27716,10.82613 11.45708,17.40461c0.01664,0 0.0416,-0.009 0.06656,-0.009v0c0.4077,0 1.5559,5.54356 1.67238,6.09251c0.50754,2.4478 0.84035,4.93161 1.0234,7.43341c0.34113,4.81461 0.92356,10.93413 -2.27977,15.12779c-0.69059,0.90893 -1.93864,1.56587 -3.17004,1.92585c-0.56578,0.16199 -1.13988,0.26998 -1.64742,0.30598c-0.18305,0.009 -0.36609,0.018 -0.54082,0.018c-4.65106,0 -4.48465,-4.31965 -3.74415,-8.02736c0.99012,-4.9946 1.09828,-9.74622 0.34945,-14.50684c-0.0832,-0.48596 -0.16641,-0.97192 -0.26625,-1.45788c-0.06656,-0.35097 -0.13313,-0.69294 -0.21633,-1.04392c-0.19137,-0.86393 -0.4077,-1.72786 -0.65731,-2.58279c-0.03328,-0.12599 -0.06656,-0.25198 -0.09984,-0.38697c-0.62402,-2.12383 -1.41445,-4.19366 -2.37961,-6.2005c-1.1482,-2.38481 -11.14091,-15.82073 -4.50129,-16.86465c0.11648,-0.018 0.23297,-0.027 0.34945,-0.027M88.11114,86.97804v0c-0.24961,0 -0.49922,0.018 -0.74883,0.054c-2.7041,0.42297 -3.80239,2.19582 -4.2184,3.21274c-1.69735,4.14867 1.62246,10.0252 5.47477,16.18071c0.47426,0.76494 1.01508,1.62887 1.1482,1.89885c0.85699,1.79086 1.5975,3.7077 2.18824,5.71454l0.09152,0.35997c0.22465,0.79194 0.42434,1.59287 0.60738,2.39381c0.06656,0.31497 0.13313,0.63895 0.19969,0.95392c0.09152,0.46796 0.16641,0.91793 0.24961,1.37689c0.69059,4.35565 0.58242,8.7293 -0.33281,13.31893c-0.5325,2.66379 -0.99844,6.51548 1.01508,9.21526c0.84867,1.14291 2.4961,2.5018 5.48309,2.5018c0.22465,0 0.46594,-0.009 0.70723,-0.027c0.70723,-0.045 1.4727,-0.18898 2.21321,-0.40497c1.13988,-0.33297 3.26157,-1.15191 4.61778,-2.93377c3.80239,-4.9856 3.31149,-11.78906 2.95371,-16.75666l-0.0416,-0.54896c-0.19137,-2.70878 -0.55746,-5.35457 -1.08164,-7.86537c-0.73219,-3.55472 -1.22309,-5.92153 -2.10504,-7.23542c-2.52106,-7.19042 -6.58138,-13.22894 -12.08111,-17.97156l-0.46594,-0.41397c-1.36453,-1.1879 -3.41133,-3.02376 -5.87415,-3.02376z"></path><path fill="#ffffff" data-paper-data="{&quot;guideItem&quot;:null,&quot;selected&quot;:false}" d="M95.03365,114.51584c0.37441,1.44888 0.68227,2.92477 0.89027,4.36465c-0.23297,-1.46688 -0.51586,-2.91577 -0.89027,-4.36465z"></path><path fill="#ffffff" data-paper-data="{&quot;guideItem&quot;:null,&quot;selected&quot;:false}" d="M104.16937,110.22318c-2.60426,0.22498 -6.10712,0.96292 -9.56005,2.81677c-0.60738,-2.07883 -1.38949,-4.13967 -2.34633,-6.11951c-1.1482,-2.38481 -11.15755,-15.82073 -4.50961,-16.86465c1.78887,-0.27898 3.6859,1.67387 4.93395,2.77178c5.61622,4.82361 9.30212,10.79914 11.48205,17.39561z"></path><path fill="#0088c5" data-paper-data="{&quot;guideItem&quot;:null,&quot;selected&quot;:false}" d="M104.64363,138.87689c-0.70723,0.91793 -1.94696,1.57487 -3.195,1.93485c-0.56578,0.15299 -1.12324,0.25198 -1.64742,0.30598c-5.19188,0.33297 -5.05044,-4.16667 -4.27665,-8.02736c0.96516,-4.85061 1.1066,-9.47624 0.39938,-14.11987c0.02496,-0.027 0,-0.054 0,-0.07199c-0.20801,-1.44888 -0.51586,-2.92477 -0.89027,-4.36465c-0.14145,-0.48596 -0.28289,-0.98992 -0.42434,-1.47588c3.45293,-1.85385 6.94747,-2.59179 9.56005,-2.81677c0.02496,0 0.02496,0 0.04992,0c0.39938,0 1.54758,5.53456 1.66406,6.07451c0.51586,2.4658 0.84867,4.9496 1.00676,7.4424c0.35777,4.80562 0.9402,10.92513 -2.24649,15.11879z"></path></g><g style="mix-blend-mode: normal" text-anchor="none" font-size="none" font-weight="none" font-family="none" stroke-dashoffset="0" stroke-dasharray="" stroke-miterlimit="10" stroke-linejoin="miter" stroke-linecap="butt" stroke-width="1" stroke="none" fill-rule="none" fill="none" data-paper-data="{&quot;selected&quot;:false}"><path fill-rule="nonzero" fill="#ffffff" data-paper-data="{&quot;guideItem&quot;:null,&quot;selected&quot;:false}" d="M68.50014,131.12851v30.11159c0,0 -2.06344,0.55796 -4.81747,0.55796c-2.74571,0 -4.81747,-0.55796 -4.81747,-0.55796v-30.11159c0,-1.97984 4.45969,-3.60871 6.32345,-3.60871c1.83047,0 3.31149,1.62887 3.31149,3.60871z"></path><path fill-rule="evenodd" fill="#009ff9" data-paper-data="{&quot;guideItem&quot;:null,&quot;selected&quot;:false}" d="M81.58801,189.77682c-2.44617,3.02376 -6.41497,2.5198 -9.7015,2.5198h-8.86114v-0.07199c-1.85543,-0.37797 -4.16016,-1.88085 -4.16016,-3.68071v-27.28582c0,0 2.06344,0.55796 4.81747,0.55796c2.74571,0 4.81747,-0.55796 4.81747,-0.55796v11.48308c0.9402,-0.027 1.94696,0.054 3.14508,0.30598c0.02496,0 0.23297,0.054 0.23297,0.054c4.22672,0.98992 7.89599,4.06767 9.84294,8.23434c1.08996,2.24082 1.53094,6.35349 -0.13313,8.44132z"></path><path fill-rule="nonzero" fill="#000000" d="M65.18034,127.5378c1.83879,0 3.32813,1.61087 3.32813,3.59971v26.65587v3.45572v11.47408c0.06656,0 0.13313,0 0.20801,0c0.86531,0 1.82215,0.07199 2.92875,0.30598c0.0416,0.009 0.23297,0.054 0.23297,0.054c4.22672,0.98992 7.90431,4.05868 9.85958,8.22534c1.05668,2.25882 1.52262,6.39849 -0.14145,8.46832c-1.83879,2.27682 -4.55122,2.56479 -7.18044,2.56479c-0.86531,0 -1.72231,-0.027 -2.52938,-0.027h-3.36973h-2.26313h-2.40457h-0.82371v-0.08999c-1.87207,-0.36897 -4.16848,-1.88085 -4.16848,-3.6897v-30.73254v0v-26.65587c0.01664,-2.00684 4.48465,-3.60871 6.32345,-3.60871M65.18034,124.48704c-1.93031,0 -9.12739,1.66487 -9.12739,6.65047v26.65587v30.73254c0,3.24874 2.86219,5.67855 5.7743,6.51548c0.36609,0.19798 0.77379,0.30598 1.20645,0.30598h0.82371h2.40457h2.25481h3.36973c0.38273,0 0.78211,0.009 1.18149,0.018c0.4493,0.009 0.89859,0.018 1.34789,0.018c3.16172,0 6.74778,-0.43197 9.31044,-3.60871c2.6625,-3.29374 1.91367,-8.90929 0.5325,-11.85205c-2.33801,-4.9766 -6.73946,-8.64831 -11.77326,-9.82721l-0.18305,-0.045c-0.33281,-0.07199 -0.64899,-0.12599 -0.96516,-0.17999v-8.63031v-3.45572v-26.65587c-0.00832,-3.66271 -2.77067,-6.64147 -6.15704,-6.64147z"></path></g><g style="mix-blend-mode: normal" text-anchor="none" font-size="none" font-weight="none" font-family="none" stroke-dashoffset="0" stroke-dasharray="" stroke-miterlimit="10" stroke-linejoin="miter" stroke-linecap="butt" stroke-width="1" stroke="none" fill-rule="none" fill="none" data-paper-data="{&quot;selected&quot;:false}"><path fill-rule="nonzero" fill="#ffffff" data-paper-data="{&quot;guideItem&quot;:null,&quot;selected&quot;:false}" d="M46.81738,135.72714v30.11159c-0.23297,0.07199 -2.22985,0.55796 -4.81747,0.55796c-2.74571,0 -4.81747,-0.55796 -4.81747,-0.55796v-30.11159c0,-1.97984 1.50598,-3.60871 3.33645,-3.60871c1.83047,0 6.29848,1.62887 6.29848,3.60871z"></path><path fill-rule="evenodd" fill="#009ff9" data-paper-data="{&quot;guideItem&quot;:null,&quot;selected&quot;:false}" d="M46.84234,165.83873v27.28582c0,1.79986 -2.30473,3.30274 -4.18512,3.68071v0.07199h-8.83618c-3.28653,0 -7.28028,0.50396 -9.72646,-2.5198c-1.66406,-2.08783 -1.19813,-6.2005 -0.14145,-8.45932c1.94696,-4.16667 5.64118,-7.24442 9.8679,-8.23434c0,0 0.19137,-0.054 0.23297,-0.054c1.19813,-0.25198 2.20489,-0.33297 3.12844,-0.30598v-11.48308c0,0 2.06344,0.55796 4.81747,0.55796c2.58762,0 4.5845,-0.48596 4.81747,-0.55796c0.02496,0.018 0.02496,0.018 0.02496,0.018z"></path><path fill-rule="nonzero" fill="#000000" d="M40.5189,132.13643c1.83879,0 6.3068,1.61087 6.3068,3.59971v26.65587v0v30.73254c0,1.80886 -2.29641,3.32073 -4.16848,3.6897v0.08999h-0.82371h-2.40457h-2.25481h-3.36973c-0.81539,0 -1.67238,0.027 -2.52938,0.027c-2.62922,0 -5.34165,-0.27898 -7.18044,-2.56479c-1.67238,-2.06983 -1.20645,-6.2095 -0.14145,-8.46832c1.95528,-4.16667 5.63286,-7.23542 9.85958,-8.22534c0,0 0.19137,-0.045 0.23297,-0.054c1.11492,-0.23398 2.06344,-0.30598 2.92875,-0.30598c0.06656,0 0.14145,0 0.20801,0v-11.47408v-3.45572v-26.65587c0.00832,-1.97984 1.49766,-3.59071 3.33645,-3.59071M40.5189,129.08567c-3.38637,0 -6.14872,2.97876 -6.14872,6.65047v26.65587v3.45572v8.63031c-0.28289,0.045 -0.56578,0.09899 -0.85699,0.16199l-0.32449,0.08099c-5.00051,1.16991 -9.40196,4.84161 -11.73998,9.81821c-1.38117,2.93377 -2.13,8.55832 0.5325,11.85205c2.56266,3.17675 6.1404,3.60871 9.31044,3.60871c0.45762,0 0.90692,-0.009 1.34789,-0.018c0.39938,-0.009 0.79875,-0.018 1.18149,-0.018h3.36973h2.25481h2.40457h0.82371c0.45762,0 0.89027,-0.11699 1.28133,-0.33297c2.89547,-0.85493 5.70774,-3.27574 5.70774,-6.49748v-30.73254v-26.65587c-0.01664,-4.9946 -7.21372,-6.65947 -9.14403,-6.65947z"></path></g><path style="mix-blend-mode: normal" text-anchor="none" font-size="none" font-weight="none" font-family="none" stroke-dashoffset="0" stroke-dasharray="" stroke-miterlimit="10" stroke-linejoin="miter" stroke-linecap="butt" stroke-width="1" stroke="none" fill-rule="nonzero" fill="#0088c5" data-paper-data="{&quot;guideItem&quot;:null,&quot;selected&quot;:false}" d="M92.37947,107.32541c-0.09152,-0.33297 -0.20801,-0.65695 -0.30785,-0.96292h0.02496c0.09984,0.29698 0.19137,0.62995 0.28289,0.96292z"></path><g style="mix-blend-mode: normal" text-anchor="none" font-size="none" font-weight="none" font-family="none" stroke-dashoffset="0" stroke-dasharray="" stroke-miterlimit="10" stroke-linejoin="miter" stroke-linecap="butt" stroke-width="1" stroke="none" fill-rule="none" fill="none" data-paper-data="{&quot;selected&quot;:false}"><path fill-rule="evenodd" fill="#009ff9" data-paper-data="{&quot;guideItem&quot;:null,&quot;selected&quot;:false}" d="M92.73724,115.35277c0.37441,7.57739 -1.35621,18.68251 -6.02391,25.18898c-5.50805,7.70338 -15.559,12.72498 -27.55691,13.7869c-1.4311,0.12599 -2.99532,0.17999 -4.50129,0.17999h-3.27821c-1.4727,0 -2.97868,-0.054 -4.45137,-0.17999c-10.42536,-0.93593 -24.02077,-4.91361 -29.40402,-18.60151c-4.052,-10.31317 -3.12012,-21.54428 -1.83047,-30.15659c0.23297,-1.70086 0.69891,-3.51872 1.17317,-5.47156c1.05668,-4.40965 2.17992,-8.97228 1.38117,-13.20194c-0.34945,-1.87185 -1.12324,-3.7527 -1.87207,-5.55256c-0.4493,-1.06192 -0.89027,-2.13283 -1.21477,-3.14075c-2.87883,-9.02628 -3.35309,-18.40353 -1.38117,-27.79878c1.89703,-9.04428 5.85751,-16.72966 10.87466,-21.03132c8.36192,-7.24442 18.08838,-11.37509 26.84968,-11.37509h3.27821c8.60321,0 18.29639,4.13067 26.69159,11.37509c5.01715,4.31066 8.97763,11.98704 10.87466,21.03132c2.0884,10.0072 1.52262,19.28546 -1.75559,29.24766c-0.84035,2.5108 -1.73063,5.52556 -1.98856,8.7473c-0.19137,2.05184 0.23297,3.97768 0.63234,5.83153c0.14145,0.68395 0.30785,1.39489 0.42434,2.07883c0.32449,2.13283 0.77379,4.25666 1.19813,6.38949c0.83203,4.11267 1.67238,8.39633 1.88039,12.65299z"></path><path fill-rule="nonzero" fill="#000000" d="M93.58592,102.02484c-0.42434,-2.07883 -0.84035,-4.15767 -1.17317,-6.2635c-0.14145,-0.73794 -0.28289,-1.49388 -0.4493,-2.23182c-0.37441,-1.70086 -0.69891,-3.29374 -0.58242,-4.86861c0.25793,-2.88877 1.08164,-5.67855 1.84711,-8.00936c3.41965,-10.36717 4.02704,-20.47336 1.84711,-30.94852c-2.03848,-9.68323 -6.37337,-17.98956 -11.85646,-22.73218c-8.87778,-7.64939 -19.23659,-12.04104 -28.42222,-12.04104h-3.49454c-9.2106,0 -19.5694,4.38265 -28.42222,12.04104c-5.50805,4.74262 -9.84294,13.04896 -11.85646,22.73218c-2.0884,9.9892 -1.58918,19.89741 1.4727,29.47264c0.34945,1.11591 0.82371,2.25882 1.31461,3.39273c0.68227,1.64687 1.38117,3.34773 1.68903,4.91361c0.65731,3.51872 -0.37441,7.73038 -1.35621,11.80706c-0.4909,2.02484 -0.95684,3.95068 -1.23973,5.77754c-1.33957,9.02628 -2.29641,20.77934 2.03848,31.83045c4.68434,11.93305 15.67549,19.00648 31.77531,20.42837c1.52262,0.15299 3.0702,0.22498 4.85075,0.20698h3.09516c1.58918,0 3.21164,-0.054 4.73426,-0.20698c12.7717,-1.11591 23.54651,-6.56048 29.54547,-14.92981c5.13364,-7.17243 7.00571,-18.82649 6.60634,-27.22282c-0.20801,-4.48164 -1.09828,-8.86429 -1.9636,-13.14795zM54.66345,154.50864h-3.27821c-1.4727,0 -2.97868,-0.054 -4.45137,-0.17999c-10.42536,-0.93593 -24.02077,-4.91361 -29.40402,-18.60151c-4.052,-10.31317 -3.12012,-21.54428 -1.83047,-30.15659c0.23297,-1.70086 0.69891,-3.51872 1.17317,-5.47156c1.05668,-4.40965 2.17992,-8.97228 1.38117,-13.20194c-0.34945,-1.87185 -1.12324,-3.7527 -1.87207,-5.55256c-0.4493,-1.06192 -0.89027,-2.13283 -1.21477,-3.14075c-2.87883,-9.02628 -3.35309,-18.40353 -1.38117,-27.79878c1.89703,-9.04428 5.85751,-16.72966 10.87466,-21.03132c8.36192,-7.24442 18.08838,-11.37509 26.84968,-11.37509h3.27821c8.60321,0 18.29639,4.13067 26.69159,11.37509c5.01715,4.31066 8.97763,11.98704 10.87466,21.03132c2.0884,10.0072 1.52262,19.28546 -1.75559,29.24766c-0.84035,2.5108 -1.73063,5.52556 -1.98856,8.7473c-0.19137,2.05184 0.23297,3.97768 0.63234,5.83153c0.14145,0.68395 0.30785,1.39489 0.42434,2.07883c0.32449,2.13283 0.77379,4.25666 1.19813,6.38949c0.84035,4.13067 1.68903,8.41433 1.89703,12.67099c0.37441,7.57739 -1.35621,18.68251 -6.02391,25.18898c-5.50805,7.70338 -15.559,12.72498 -27.55691,13.7869c-1.44774,0.11699 -3.02028,0.16199 -4.51794,0.16199z"></path></g><g style="mix-blend-mode: normal" text-anchor="none" font-size="none" font-weight="none" font-family="none" stroke-dashoffset="0" stroke-dasharray="" stroke-miterlimit="10" stroke-linejoin="miter" stroke-linecap="butt" stroke-width="1" stroke="none" fill-rule="nonzero" fill="none" data-paper-data="{&quot;selected&quot;:false}"><path fill="#ffffff" data-paper-data="{&quot;guideItem&quot;:null,&quot;selected&quot;:false}" d="M33.45495,3.98668c-2.72075,-1.08891 -5.74102,-1.3049 -8.81954,-0.26098c-4.1352,1.39489 -7.75454,4.28366 -10.75818,7.71238c-0.24961,0.26998 -0.43266,0.48596 -0.5325,0.60295c-0.9402,1.11591 -1.50598,2.4658 -1.71399,3.86969c-0.34113,2.33981 0.32449,4.83261 1.97192,6.59647c2.63754,2.82577 6.82266,2.71778 9.34372,-0.24298c0.00832,-0.009 0.00832,-0.009 0.01664,-0.018c0.74051,-0.86393 1.73895,-1.82685 2.82059,-2.70878c-0.00832,-0.036 -0.02496,-0.06299 -0.03328,-0.08999c3.13676,-2.69078 7.13884,-4.58063 10.16743,-1.2689c0.76547,0.83693 1.44774,1.74586 2.15496,2.63679c0.34945,0.44996 0.5741,0.89093 1.15652,0.97192c0.79043,0.10799 1.63078,-0.24298 2.33801,-0.56695c0.66563,-0.31497 1.5559,-0.65695 2.09672,-1.16991c0.87363,-0.82793 0.24129,-2.62779 0.01664,-3.59071c-1.28965,-5.53456 -5.2418,-10.47516 -10.22568,-12.473z"></path><path fill="#000000" d="M46.50121,16.04572l-0.09152,-0.33297c-1.52262,-6.56048 -6.23192,-12.26602 -11.97294,-14.56983c-1.87207,-0.75594 -3.81903,-1.14291 -5.74102,-1.14291c-1.66406,0 -3.30317,0.27898 -4.90067,0.80994c-4.052,1.39489 -7.92095,4.07667 -11.48205,8.00936c-0.16641,0.15299 -0.30785,0.33297 -0.46594,0.50396c-0.23297,0.27898 -0.4493,0.50396 -0.56578,0.62995c-1.28965,1.54788 -2.13,3.41973 -2.41289,5.47156c-0.51586,3.39273 0.54082,6.83945 2.76235,9.22426c1.75559,1.89885 4.07696,2.94276 6.53977,2.94276c2.10504,0 4.16848,-0.80994 5.80759,-2.25882c0.34945,-0.27898 0.68227,-0.58495 0.9818,-0.93593v-0.027l0.06656,-0.054c0.63234,-0.75594 1.52262,-1.59287 2.46282,-2.38481l1.4727,-1.1879l-0.02496,-0.054c1.21477,-0.80994 2.34633,-1.2689 3.21164,-1.2689c0.68227,0 1.21477,0.27898 1.78055,0.86393c0.54082,0.61195 1.05668,1.2689 1.61414,1.97984l0.37441,0.50396l0.11648,0.15299c0.39938,0.53096 1.21477,1.64687 2.86219,1.87185c0.22465,0.045 0.43266,0.045 0.64066,0.045c1.19813,0 2.27145,-0.43197 3.13676,-0.83693l0.32449,-0.15299c0.77379,-0.33297 1.71399,-0.75594 2.50442,-1.52088c2.12168,-1.97084 1.32293,-4.9856 0.99844,-6.2815zM43.66398,20.0504c-0.54082,0.50396 -1.4311,0.86393 -2.0884,1.16991c-0.60738,0.27898 -1.33957,0.58495 -2.03848,0.58495c-0.09152,0 -0.20801,0 -0.30785,-0.027c-0.58242,-0.07199 -0.79875,-0.50396 -1.1482,-0.96292c-0.69891,-0.89093 -1.38117,-1.79986 -2.15496,-2.63679c-1.1482,-1.2689 -2.43785,-1.77286 -3.76911,-1.77286c-2.17992,0 -4.45137,1.36789 -6.39833,3.04176c0,0.027 0.02496,0.07199 0.02496,0.09899c-0.79875,0.65695 -1.57254,1.36789 -2.20489,2.05184c-0.20801,0.20698 -0.42434,0.43197 -0.60738,0.65695h-0.02496c-0.32449,0.37797 -0.68227,0.71094 -1.05668,1.01692c-0.37441,0.27898 -0.74883,0.53096 -1.17317,0.71094c-2.34633,1.08891 -5.1586,0.61195 -7.09724,-1.46688h-0.02496c-0.16641,-0.17999 -0.32449,-0.37797 -0.46594,-0.58495c-0.77379,-1.01692 -1.26469,-2.20482 -1.4727,-3.47372c-0.14145,-0.83693 -0.14145,-1.70086 -0.02496,-2.5378c0,-0.054 0.02496,-0.12599 0.04992,-0.17999c0.04992,-0.35097 0.11648,-0.68395 0.25793,-1.03492c0.02496,-0.20698 0.09152,-0.40497 0.19137,-0.58495c0.16641,-0.45896 0.39938,-0.89093 0.65731,-1.2959c0.16641,-0.27898 0.34945,-0.53096 0.56578,-0.78294c0.16641,-0.20698 0.54082,-0.62995 1.09828,-1.2149c0.11648,-0.12599 0.23297,-0.25198 0.37441,-0.37797l0.02496,-0.054c1.17317,-1.2689 2.48778,-2.4568 3.84399,-3.47372c1.83047,-1.36789 3.81903,-2.4838 5.94903,-3.19474c1.35621,-0.45896 2.72075,-0.68395 4.052,-0.68395c1.6391,0 3.25325,0.33297 4.75922,0.93593c4.99219,1.99784 8.95267,6.94744 10.24232,12.473c0.22465,0.96292 0.83203,2.76278 -0.03328,3.59971z"></path><path fill="#673101" data-paper-data="{&quot;guideItem&quot;:null,&quot;selected&quot;:false}" d="M25.78361,19.54644c-0.79875,0.65695 -1.57254,1.36789 -2.20489,2.05184c-0.20801,0.20698 -0.42434,0.43197 -0.60738,0.65695h-0.02496c-0.32449,0.37797 -0.68227,0.71094 -1.05668,1.01692c-0.37441,0.27898 -0.77379,0.50396 -1.17317,0.71094c-2.34633,1.08891 -5.1586,0.61195 -7.09724,-1.46688c-0.16641,-0.17999 -0.32449,-0.37797 -0.4909,-0.58495c-0.77379,-1.01692 -1.26469,-2.20482 -1.4727,-3.47372c-0.14145,-0.89093 -0.14145,-1.79986 0.02496,-2.70878c0.04992,-0.35097 0.11648,-0.68395 0.25793,-1.03492c0.02496,-0.20698 0.09152,-0.40497 0.19137,-0.58495c0.16641,-0.45896 0.39938,-0.89093 0.65731,-1.2959c0.16641,-0.27898 0.34945,-0.53096 0.56578,-0.78294c0.16641,-0.20698 0.54082,-0.62995 1.09828,-1.2149c0.11648,-0.12599 0.23297,-0.25198 0.37441,-0.37797c0.14145,-0.15299 0.28289,-0.27898 0.42434,-0.43197c-0.14145,0.12599 -0.25793,0.25198 -0.39938,0.37797c1.17317,-1.2689 2.48778,-2.4568 3.84399,-3.47372c0.11648,0.027 0.23297,0.054 0.32449,0.12599c0.14145,0.027 0.25793,0.07199 0.37441,0.12599c0.04992,0.027 0.06656,0.054 0.09152,0.054c0.11648,0.07199 0.23297,0.12599 0.32449,0.20698c0.30785,0.22498 0.56578,0.53096 0.77379,0.89093c0.37441,0.65695 0.51586,1.52088 0.32449,2.35781c-0.16641,0.71094 -0.56578,1.2419 -1.05668,1.64687c0.56578,-0.33297 1.21477,-0.45896 1.87207,-0.27898c1.40613,0.43197 2.27145,2.05184 1.89703,3.65371c-0.19137,0.78294 -0.63234,1.39489 -1.21477,1.79986c0.4909,-0.17999 1.00676,-0.27898 1.52262,-0.12599c0.9402,0.27898 1.58918,1.11591 1.83047,2.07883c0,0 0.02496,0.054 0.02496,0.08099z"></path></g><g style="mix-blend-mode: normal" text-anchor="none" font-size="none" font-weight="none" font-family="none" stroke-dashoffset="0" stroke-dasharray="" stroke-miterlimit="10" stroke-linejoin="miter" stroke-linecap="butt" stroke-width="1" stroke="none" fill-rule="nonzero" fill="none" data-paper-data="{&quot;selected&quot;:false}"><path fill="#ffffff" data-paper-data="{&quot;guideItem&quot;:null,&quot;selected&quot;:false}" d="M94.25154,15.91073c-0.20801,-1.40389 -0.77379,-2.76278 -1.71399,-3.86969c-0.09984,-0.11699 -0.29121,-0.33297 -0.5325,-0.60295c-3.00364,-3.41973 -6.61466,-6.3085 -10.75818,-7.71238c-3.0702,-1.03492 -6.0988,-0.82793 -8.81954,0.26098c-4.98387,1.99784 -8.93603,6.93844 -10.234,12.464c-0.22465,0.96292 -0.85699,2.77178 0.01664,3.59071c0.54082,0.51296 1.42278,0.85493 2.09672,1.16991c0.70723,0.33297 1.53926,0.67495 2.33801,0.56695c0.58242,-0.08099 0.80707,-0.52196 1.15652,-0.97192c0.69891,-0.89093 1.38949,-1.79986 2.15496,-2.63679c3.0286,-3.31174 7.03067,-1.42189 10.16743,1.2689c-0.00832,0.036 -0.02496,0.06299 -0.03328,0.08999c1.08164,0.89093 2.08008,1.85385 2.82059,2.70878c0.00832,0.009 0.00832,0.009 0.01664,0.018c2.52106,2.96076 6.70618,3.06875 9.34372,0.24298c1.65574,-1.75486 2.32137,-4.23866 1.98024,-6.58747z"></path><path fill="#000000" d="M97.01389,15.43377c-0.28289,-2.05184 -1.12324,-3.93269 -2.38793,-5.44456c-0.14145,-0.15299 -0.34945,-0.37797 -0.60738,-0.68395c-0.4909,-0.55796 -1.00676,-1.11591 -1.52262,-1.59287c-3.25325,-3.34773 -6.74778,-5.65155 -10.4004,-6.89345c-1.58918,-0.53096 -3.23661,-0.80994 -4.87571,-0.80994c-1.94696,0 -3.88559,0.37797 -5.76598,1.14291c-5.74102,2.30382 -10.45033,8.00936 -11.97294,14.56983l-0.09152,0.33297c-0.32449,1.2959 -1.12324,4.31066 0.9818,6.2815c0.79875,0.75594 1.73063,1.1879 2.50442,1.52088l0.32449,0.15299c0.86531,0.40497 1.94696,0.83693 3.13676,0.83693c0.20801,0 0.42434,0 0.65731,-0.027c1.61414,-0.22498 2.43785,-1.34089 2.83723,-1.87185l0.11648,-0.15299l0.39938,-0.50396c0.54082,-0.71094 1.05668,-1.36789 1.58918,-1.97984c0.56578,-0.58495 1.09828,-0.86393 1.78055,-0.86393c0.86531,0 1.98856,0.45896 3.21164,1.2689l-0.02496,0.054l1.4727,1.1879c0.95684,0.78294 1.83047,1.61987 2.46282,2.38481c1.4311,1.67387 3.32813,2.76278 5.36661,3.11375c0.4909,0.09899 0.9818,0.15299 1.49766,0.15299c2.46282,0 4.78419,-1.03492 6.53977,-2.94276c2.23817,-2.38481 3.28653,-5.83153 2.77067,-9.23326zM92.27963,22.5072c-1.97192,2.07883 -4.77587,2.5558 -7.1222,1.46688c-0.42434,-0.17999 -0.79875,-0.43197 -1.17317,-0.71094c-0.37441,-0.30598 -0.72387,-0.62995 -1.05668,-1.01692c-0.56578,-0.62995 -1.26469,-1.34089 -2.01352,-1.99784c-0.25793,-0.25198 -0.54082,-0.48596 -0.82371,-0.71094c0,-0.027 0.02496,-0.07199 0.02496,-0.09899c-1.94696,-1.67387 -4.2184,-3.04176 -6.39833,-3.04176c-1.33957,0 -2.6209,0.50396 -3.76911,1.77286c-0.77379,0.83693 -1.45606,1.74586 -2.15496,2.63679c-0.34945,0.45896 -0.56578,0.89093 -1.1482,0.96292c-0.09152,0.027 -0.20801,0.027 -0.30785,0.027c-0.69891,0 -1.40613,-0.30598 -2.03848,-0.58495c-0.65731,-0.30598 -1.54758,-0.65695 -2.0884,-1.16991c-0.86531,-0.83693 -0.23297,-2.63679 -0.02496,-3.59971c1.28965,-5.52556 5.25012,-10.46616 10.24232,-12.473c1.49766,-0.61195 3.12012,-0.93593 4.77587,-0.93593c1.31461,0 2.67082,0.22498 4.02704,0.68395c2.13,0.71094 4.12688,1.82685 5.97399,3.22174c1.33957,1.01692 2.60426,2.15083 3.75247,3.39273c0.16641,0.17999 0.32449,0.33297 0.46594,0.48596c0.56578,0.58495 0.9402,1.01692 1.09828,1.2149c0.23297,0.27898 0.4493,0.58495 0.63234,0.89093c0.16641,0.27898 0.32449,0.55796 0.46594,0.86393c0,0.027 0.02496,0.054 0.02496,0.07199c0.14145,0.33297 0.25793,0.65695 0.34945,1.01692c0.11648,0.33297 0.19137,0.68395 0.23297,1.03492c0.34945,2.36681 -0.29953,4.85061 -1.94696,6.59647z"></path><path fill="#673101" data-paper-data="{&quot;guideItem&quot;:null,&quot;selected&quot;:false}" d="M92.27963,22.5072c-1.97192,2.07883 -4.77587,2.5558 -7.1222,1.46688c-0.39938,-0.20698 -0.79875,-0.43197 -1.17317,-0.71094c-0.37441,-0.30598 -0.72387,-0.62995 -1.05668,-1.01692c-0.56578,-0.62995 -1.26469,-1.34089 -2.01352,-1.99784c-0.25793,-0.25198 -0.54082,-0.48596 -0.82371,-0.71094c0,-0.027 0.02496,-0.07199 0.02496,-0.09899c0.25793,-0.96292 0.89027,-1.79986 1.84711,-2.07883c0.51586,-0.15299 1.00676,-0.054 1.49766,0.12599c-0.58242,-0.40497 -1.03172,-1.01692 -1.21477,-1.79986c-0.37441,-1.59287 0.4909,-3.22174 1.89703,-3.65371c0.65731,-0.17999 1.31461,-0.054 1.87207,0.27898c-0.4909,-0.40497 -0.89027,-0.93593 -1.05668,-1.64687c-0.34945,-1.46688 0.34945,-2.96976 1.57254,-3.50072c0.09152,-0.054 0.20801,-0.09899 0.32449,-0.12599c0.09152,-0.027 0.20801,-0.07199 0.34945,-0.09899c1.33957,1.01692 2.60426,2.15083 3.75247,3.39273c0.16641,0.17999 0.32449,0.33297 0.46594,0.48596c0.56578,0.58495 0.9402,1.01692 1.09828,1.2149c0.23297,0.27898 0.4493,0.58495 0.63234,0.89093c0.16641,0.27898 0.32449,0.55796 0.46594,0.86393c0,0.027 0.02496,0.054 0.02496,0.07199c0.14145,0.33297 0.25793,0.65695 0.34945,1.01692c0.11648,0.33297 0.19137,0.68395 0.23297,1.03492c0.34945,2.36681 -0.29953,4.85061 -1.94696,6.59647z"></path></g>
               </svg>