<svg viewBox="0 0 116 200" xml:space="preserve" xmlns:xlink="http://www.w3.org/1999/xlink" xmlns="http://www.w3.org/2000/svg">
                    <g style="mix-blend-mode: normal" text-anchor="none" font-size="none" font-weight="none" font-family="none" stroke-dashoffset="0" stroke-dasharray="" stroke-miterlimit="10" stroke-linejoin="miter" stroke-linecap="butt" stroke-width="1" stroke="none" fill-rule="nonzero" fill="none" data-paper-data="{&quot;selected&quot;:false}"><path fill="#ffffff" data-paper-data="{&quot;guideItem&quot;:null,&quot;selected&quot;:false}" d="M80.03499,16.41411c-2.0282,2.55212 -5.79171,3.03065 -8.39103,1.07858c-0.09519,-0.07596 -0.19037,-0.15191 -0.31485,-0.25066c-0.19037,-0.12153 -0.35878,-0.25066 -0.52719,-0.37218c-0.07322,-0.07596 -0.16841,-0.12153 -0.24163,-0.1747c-0.65166,-0.54688 -1.25206,-1.02541 -1.80854,-1.42797v-0.03038c-0.93722,-0.67601 -1.75728,-1.15453 -2.51145,-1.15453c-0.57844,0 -1.11295,0.27344 -1.6621,0.94945c-1.30332,1.60267 -0.76881,3.30409 -2.55538,3.60032c-0.91525,0.1747 -1.75728,0.5241 -2.38698,0.5241c-0.41003,0 -0.72488,-0.15191 -0.91525,-0.57727c-1.49369,-3.22813 -0.38807,-8.4843 1.49369,-11.33265c1.11295,-1.67863 2.75308,-2.82557 4.6568,-3.52436c1.37654,-0.50131 2.6286,-0.72918 3.78548,-0.72918c0.50522,0 0.98847,0.05317 1.47173,0.12153c0.41003,0.07596 0.7981,0.1747 1.17884,0.30382c1.11295,0.32661 2.14535,0.8735 3.22901,1.57989h0.02197c1.3985,0.90388 2.81898,2.02803 4.43714,3.22813c2.60664,1.98245 3.06792,5.63594 1.03973,8.18807z"></path><path fill="#000000" data-paper-data="{&quot;guideItem&quot;:null,&quot;selected&quot;:false}" d="M68.91285,15.44187c0.29288,0.22787 0.98847,0.75197 1.64013,1.25328c-0.65166,-0.54688 -1.25206,-1.02541 -1.80854,-1.42797c0.05125,0.04557 0.10251,0.09874 0.16841,0.1747z"></path><path fill="#000000" d="M84.11336,11.73522c-0.29288,-2.37743 -1.49369,-4.48141 -3.39742,-5.90179l-0.72488,-0.57727c-3.71226,-2.82557 -6.9193,-5.25616 -11.33448,-5.25616c-1.54495,0 -3.11186,0.30382 -4.77395,0.90388c-2.6286,0.97224 -4.6568,2.55212 -6.05531,4.65611c-2.38698,3.65349 -3.71226,9.98063 -1.73532,14.31013c0.65166,1.45076 1.97694,2.30147 3.54386,2.30147c0.74685,0 1.42047,-0.1747 2.0282,-0.3494c0.26359,-0.07596 0.55647,-0.15191 0.84203,-0.19749c2.72379,-0.50131 3.49992,-2.65087 3.8587,-3.67628c0.07322,-0.25066 0.14644,-0.42535 0.21966,-0.60005c0.48325,0.32661 1.15688,0.8735 1.69139,1.29885c0.52719,0.40257 1.08366,0.85071 1.69139,1.29885c1.54495,1.15453 3.37545,1.75459 5.30846,1.75459c2.75308,0 5.30846,-1.22289 7.02181,-3.38005c1.44976,-1.87612 2.10142,-4.20797 1.81586,-6.58539zM80.03499,16.41411c-2.0282,2.55212 -5.79171,3.03065 -8.39103,1.07858c-0.09519,-0.07596 -0.19037,-0.15191 -0.31485,-0.25066c-0.19037,-0.12153 -0.35878,-0.25066 -0.52719,-0.37218c-0.07322,-0.07596 -0.16841,-0.12153 -0.24163,-0.1747c-0.65166,-0.50131 -1.34725,-1.02541 -1.64013,-1.25328c-0.07322,-0.07596 -0.11715,-0.12153 -0.16841,-0.1747v-0.03038c-0.93722,-0.67601 -1.75728,-1.15453 -2.51145,-1.15453c-0.57844,0 -1.11295,0.27344 -1.6621,0.94945c-1.30332,1.60267 -0.76881,3.30409 -2.55538,3.60032c-0.91525,0.1747 -1.75728,0.5241 -2.38698,0.5241c-0.41003,0 -0.72488,-0.15191 -0.91525,-0.57727c-1.49369,-3.22813 -0.38807,-8.4843 1.49369,-11.33265c1.11295,-1.67863 2.75308,-2.82557 4.6568,-3.52436c1.37654,-0.50131 2.6286,-0.72918 3.78548,-0.72918c0.50522,0 0.98847,0.05317 1.47173,0.12153c0.41003,0.07596 0.7981,0.1747 1.17884,0.30382c1.11295,0.32661 2.14535,0.8735 3.22901,1.57989h0.02197c1.3985,0.90388 2.81898,2.02803 4.43714,3.22813c2.60664,1.98245 3.06792,5.63594 1.03973,8.18807z"></path><path fill="#683100" data-paper-data="{&quot;guideItem&quot;:null,&quot;selected&quot;:false}" d="M80.03499,16.41411c-2.0282,2.55212 -5.79171,3.03065 -8.39103,1.07858c-0.09519,-0.07596 -0.19037,-0.15191 -0.31485,-0.25066c-0.16841,-0.09874 -0.33681,-0.25066 -0.52719,-0.37218c-0.07322,-0.07596 -0.16841,-0.12153 -0.24163,-0.1747c-0.65166,-0.50131 -1.34725,-1.02541 -1.64013,-1.25328c-0.07322,-0.07596 -0.11715,-0.12153 -0.16841,-0.1747v-0.03038c-0.24163,-0.50131 0.70291,-1.10136 1.44976,-1.39759c0.432,-0.19749 0.89329,-0.19749 1.34725,-0.12153c-0.57844,-0.22787 -1.03973,-0.65322 -1.30332,-1.22289c-0.52719,-1.20011 0.05125,-2.57491 1.25206,-3.07622c0.57844,-0.25066 1.17884,-0.22787 1.71335,-0.05317c-0.48325,-0.25066 -0.91525,-0.62284 -1.13491,-1.15453c-0.52719,-1.17732 0.41003,-2.52934 1.64013,-3.05344c0.09519,-0.05317 0.57844,-0.1747 0.82007,-0.15191h0.02197c1.3985,0.90388 2.81898,2.02803 4.43714,3.22813c2.60664,1.97486 3.06792,5.62835 1.03973,8.18047z"></path></g><g style="mix-blend-mode: normal" text-anchor="none" font-size="none" font-weight="none" font-family="none" stroke-dashoffset="0" stroke-dasharray="" stroke-miterlimit="10" stroke-linejoin="miter" stroke-linecap="butt" stroke-width="1" stroke="none" fill-rule="none" fill="none" data-paper-data="{&quot;selected&quot;:false}"><path fill-rule="evenodd" fill="#0088c5" data-paper-data="{&quot;guideItem&quot;:null,&quot;selected&quot;:false}" d="M50.37351,156.50754l8.05422,5.65113c-0.02197,0.02279 -0.02197,0.05317 -0.05125,0.07596c-0.31485,0.50131 -0.65166,1.00262 -1.01044,1.50393c-0.19037,0.30382 -0.41003,0.62284 -0.65166,0.92666c-0.38807,0.54688 -0.7981,1.07858 -1.20813,1.60267c-0.48325,0.65322 -1.01044,1.29885 -1.54495,1.92928c-0.57844,0.6988 -1.20813,1.39759 -1.8305,2.10398c-0.05125,0.05317 -0.09519,0.09874 -0.09519,0.15191c-0.35878,0.60005 -0.29288,1.35202 0.16841,1.87612c0.07322,0.07596 0.14644,0.12153 0.21966,0.1747c0.02197,0.02279 0.07322,0.05317 0.09519,0.07596c0.14644,0.09874 0.31485,0.19749 0.46129,0.32661c0.16841,0.09874 0.33681,0.25066 0.50522,0.42535c0.16841,0.15191 0.33681,0.32661 0.50522,0.50131c0.19037,0.1747 0.35878,0.37218 0.52719,0.60005c0.33681,0.42535 0.67363,0.92666 1.03973,1.50393c0.35878,0.60005 0.70291,1.29885 1.03973,2.0736c0,0.02279 0.07322,0.22787 0.07322,0.22787c1.61817,4.02567 1.37654,8.68178 -0.62969,12.50997c-0.14644,0.30382 -0.33681,0.60005 -0.57844,0.92666c-0.14644,0.19749 -0.29288,0.40257 -0.46129,0.60005c-0.11715,0.12153 -0.21966,0.25066 -0.33681,0.37218c-0.21966,0.25066 -0.46129,0.47852 -0.72488,0.6988c-1.13491,1.02541 -2.53342,1.80016 -3.8587,1.80016c-0.11715,0 -0.24163,-0.02279 -0.38807,-0.02279c-3.57314,-0.42535 -5.40365,-4.00289 -7.21219,-6.72971l-6.12853,-9.18309l-1.95498,-2.95469c-0.21966,-0.32661 -0.41003,-0.6988 -0.50522,-1.04819c-0.29288,-0.97224 -0.19037,-2.00524 0.21966,-2.87874c0,-0.02279 0.02197,-0.02279 0.02197,-0.02279c0.14644,-0.27344 0.31485,-0.5241 0.50522,-0.75197c0.11715,-0.12153 0.21966,-0.25066 0.33681,-0.3494c0.09519,-0.09874 0.19037,-0.19749 0.31485,-0.27344l6.29693,-4.52698c0.02197,0 0.02197,0 0.05125,-0.02279c2.72379,-2.80278 7.02181,-7.32976 9.2111,-10.70981z"></path><path fill-rule="evenodd" fill="#0088c5" data-paper-data="{&quot;guideItem&quot;:null,&quot;selected&quot;:false}" d="M60.3827,159.01409l-0.91525,1.52672c0.31485,-0.50131 0.60041,-1.02541 0.89329,-1.5495z"></path><path fill-rule="nonzero" fill="#ffffff" data-paper-data="{&quot;guideItem&quot;:null,&quot;selected&quot;:false}" d="M58.42772,162.16627c0.35878,-0.5241 0.70291,-1.07858 1.03973,-1.62546l-0.98847,1.67863z"></path><path fill-rule="nonzero" fill="#ffffff" data-paper-data="{&quot;guideItem&quot;:null,&quot;selected&quot;:false}" d="M60.36074,158.98371l-0.02197,-0.02279c4.62751,-8.35517 6.61178,-17.06734 5.83565,-25.99977c0.79078,8.93244 -1.1642,17.66739 -5.81368,26.02256z"></path><path fill-rule="nonzero" fill="#000000" d="M68.3637,127.60624c-0.55647,-2.82557 -2.38698,-5.02829 -4.89843,-5.90179c-0.7981,-0.27344 -1.64013,-0.42535 -2.51145,-0.42535c-1.99891,0 -3.95389,0.75197 -5.44758,2.14956c-2.10142,1.92928 -3.01667,4.80043 -2.4602,7.67916c1.44976,7.53484 0.02197,15.03931 -4.24677,22.29311c-1.3985,2.37743 -4.60555,6.15244 -9.02072,10.65664l-6.1212,4.38267c-1.44976,1.04819 -2.40894,2.60529 -2.72379,4.37507c-0.31485,1.77737 0.05125,3.60032 1.03973,5.08146l1.99891,3.00027l6.12853,9.20588c0.21966,0.30382 0.432,0.65322 0.62969,0.97224c1.75728,2.72682 4.17355,6.47906 8.66194,7.00315c0.24163,0.02279 0.46129,0.05317 0.70291,0.05317c3.49992,0 6.99252,-3.07622 8.49354,-5.95496c2.40894,-4.62573 2.70182,-10.26167 0.76881,-15.11526l-0.07322,-0.1747c-1.20813,-2.87874 -2.6286,-4.6789 -3.88067,-5.83343c1.88176,-2.17994 3.59511,-4.42824 5.11077,-6.72971c0.16841,-0.15191 0.31485,-0.3494 0.432,-0.54688l0.98847,-1.64825l0.91525,-1.5495c0.14644,-0.22787 0.24163,-0.47852 0.31485,-0.72918c5.5867,-10.34522 7.34398,-21.18416 5.19863,-32.24336zM59.46745,160.54081l-0.98847,1.67863l-0.05125,-0.05317c-0.02197,0.02279 -0.02197,0.05317 -0.05125,0.07596c-0.31485,0.50131 -0.65166,1.00262 -1.01044,1.50393c-0.19037,0.30382 -0.41003,0.62284 -0.65166,0.92666c-0.38807,0.54688 -0.7981,1.07858 -1.20813,1.60267c-0.48325,0.65322 -1.01044,1.29885 -1.54495,1.92928c-0.57844,0.6988 -1.20813,1.39759 -1.8305,2.10398c-0.05125,0.05317 -0.09519,0.09874 -0.09519,0.15191c-0.432,0.60005 -0.35878,1.39759 0.16841,1.87612c0.07322,0.07596 0.14644,0.12153 0.21966,0.1747c0.02197,0.02279 0.07322,0.05317 0.09519,0.07596c0.14644,0.07596 0.29288,0.19749 0.46129,0.32661c0.16841,0.09874 0.33681,0.25066 0.50522,0.42535c0.16841,0.12153 0.33681,0.30382 0.50522,0.50131c0.19037,0.1747 0.35878,0.37218 0.52719,0.60005c0.35878,0.42535 0.70291,0.92666 1.03973,1.50393c0.35878,0.60005 0.70291,1.29885 1.03973,2.0736c0,0.02279 0.07322,0.22787 0.07322,0.22787c1.61817,4.02567 1.37654,8.68178 -0.62969,12.50997c-0.14644,0.30382 -0.33681,0.60005 -0.57844,0.92666c-0.14644,0.19749 -0.29288,0.40257 -0.46129,0.60005c-0.11715,0.12153 -0.21966,0.25066 -0.33681,0.37218c-0.21966,0.25066 -0.46129,0.50131 -0.72488,0.6988c-1.13491,1.02541 -2.53342,1.80016 -3.8587,1.80016c-0.11715,0 -0.24163,-0.02279 -0.38807,-0.02279c-3.57314,-0.42535 -5.40365,-4.00289 -7.21219,-6.72971l-6.12853,-9.18309l-1.95498,-2.95469l-0.03661,-0.06076c-0.21966,-0.32661 -0.35878,-0.65322 -0.46129,-1.00262c-0.31485,-0.97224 -0.21966,-2.00524 0.21966,-2.87874c0,-0.02279 0.02197,-0.02279 0.02197,-0.02279c0.11715,-0.27344 0.29288,-0.54688 0.50522,-0.75197c0.09519,-0.15191 0.21966,-0.25066 0.33681,-0.3494c0.09519,-0.09874 0.19037,-0.19749 0.31485,-0.27344l6.29693,-4.52698c0.02197,0 0.02197,0 0.05125,-0.02279c2.72379,-2.80278 7.02181,-7.32976 9.2111,-10.70981c0.14644,-0.25066 0.29288,-0.44814 0.41003,-0.67601c3.47064,-5.90179 5.23524,-11.96309 5.23524,-18.09274c0,-2.12677 -0.21966,-4.23075 -0.62969,-6.35753c-0.31485,-1.67863 0.11715,-3.2813 1.15688,-4.45103c0.11715,-0.15191 0.26359,-0.27344 0.38807,-0.40257c0.98847,-0.92666 2.29179,-1.39759 3.54386,-1.39759c0.55647,0 1.08366,0.07596 1.56691,0.25066c0.19037,0.07596 0.38807,0.15191 0.55647,0.25066c0.35878,0.1747 0.70291,0.40257 0.98847,0.67601c0.72488,0.67601 1.2301,1.62546 1.44976,2.74961c0.31485,1.60267 0.52719,3.17496 0.65166,4.75485c0.76881,8.93244 -1.20813,17.63701 -5.83565,25.99977l0.02197,0.02279l0.02197,0.02279z"></path><path fill-rule="nonzero" fill="#ffffff" data-paper-data="{&quot;guideItem&quot;:null,&quot;selected&quot;:false}" d="M60.33145,158.96092l0.02197,0.02279c-0.29288,0.5241 -0.57844,1.04819 -0.89329,1.5495c-0.33681,0.54688 -0.67363,1.10136 -1.03973,1.62546l-8.05422,-5.65113l0.48325,-0.85071c0.14644,-0.25066 0.29288,-0.44814 0.41003,-0.67601c3.47064,-5.90179 5.23524,-11.96309 5.23524,-18.09274c0,-2.12677 -0.21966,-4.23075 -0.62969,-6.35753c-0.31485,-1.67863 0.11715,-3.2813 1.15688,-4.45103c0.11715,-0.15191 0.26359,-0.27344 0.38807,-0.40257c0.98847,-0.92666 2.29179,-1.39759 3.54386,-1.39759c0.55647,0 1.06169,0.09874 1.56691,0.27344c0.19037,0.07596 0.38807,0.15191 0.55647,0.22787c0.35878,0.19749 0.70291,0.42535 0.98847,0.67601c0.72488,0.67601 1.2301,1.62546 1.44976,2.74961c0.31485,1.60267 0.52719,3.17496 0.65166,4.75485c0.77613,8.93244 -1.20081,17.6446 -5.83565,25.99977z"></path></g><g style="mix-blend-mode: normal" text-anchor="none" font-size="none" font-weight="none" font-family="none" stroke-dashoffset="0" stroke-dasharray="" stroke-miterlimit="10" stroke-linejoin="miter" stroke-linecap="butt" stroke-width="1" stroke="none" fill-rule="none" fill="none" data-paper-data="{&quot;selected&quot;:false}"><path fill-rule="nonzero" fill="#ffffff" data-paper-data="{&quot;guideItem&quot;:null,&quot;selected&quot;:false}" d="M55.85038,162.16627l-9.81882,2.47617l-6.12853,-26.17447c-0.46129,-1.95207 3.71226,-4.65611 5.59402,-5.12704c1.85979,-0.47852 3.74155,0.6988 4.19551,2.65087z"></path><path fill-rule="evenodd" fill="#009ff9" data-paper-data="{&quot;guideItem&quot;:null,&quot;selected&quot;:false}" d="M81.98997,188.4091c-1.78657,3.57753 -5.96012,4.13201 -9.3136,4.98272l-11.29055,2.85595l-2.43823,0.60005c-1.95498,0.50131 -5.44758,-0.37218 -5.93083,-2.40021l-6.24568,-26.59983l-0.73952,-3.20535l9.81882,-2.47617l0.74685,3.20535l3.0606,13.13281c0,0 1.64013,-3.55475 8.36906,-3.88136c0.05125,0 0.26359,0 0.26359,0c4.51036,-0.09874 8.9475,1.95207 11.91292,5.50682c1.5962,1.92169 3.01667,5.85622 1.78657,8.27921z"></path><path fill-rule="nonzero" fill="#000000" d="M46.31711,133.22699c1.56691,0 2.9947,1.10896 3.38277,2.75721l6.14317,26.18966l3.82941,16.33056c0,0 1.62549,-3.54715 8.36906,-3.87376c0.04393,0 0.24895,0 0.24895,0c0.12447,0 0.24895,-0.0076 0.37342,-0.0076c4.39321,0 8.66927,2.03562 11.5395,5.49922c1.5962,1.92928 3.01667,5.84862 1.79389,8.29441c-1.79389,3.57753 -5.9528,4.11682 -9.30628,4.95993l-11.28323,2.84835l-2.44555,0.61524c-0.35878,0.09115 -0.77613,0.13672 -1.21545,0.13672c-1.93301,0 -4.33463,-0.88109 -4.7227,-2.54453l-6.9852,-29.79758v0l-6.14317,-26.18966c-0.45396,-1.93688 3.72691,-4.65611 5.59402,-5.12704c0.27824,-0.05317 0.54915,-0.09115 0.82739,-0.09115M46.31711,130.22673c-0.50522,0 -1.01776,0.06076 -1.50834,0.18989c-1.39118,0.3494 -3.2583,1.35202 -4.75199,2.55972c-3.07525,2.46857 -3.30955,4.73206 -2.96542,6.19802l6.14317,26.18966l6.9852,29.79758c0.77613,3.31928 4.45179,4.8384 7.53435,4.8384c0.67363,0 1.31796,-0.07596 1.8964,-0.22027l2.44555,-0.61524l11.28323,-2.84835c0.39539,-0.09874 0.7981,-0.18989 1.20813,-0.28863c3.28758,-0.76716 7.79062,-1.82295 9.97991,-6.20561c1.94033,-3.87376 -0.09519,-9.13752 -2.15999,-11.62888c-3.39009,-4.10163 -8.52283,-6.54742 -13.7361,-6.54742l-0.44664,0.0076h-0.20502c-2.84826,0.13672 -4.99361,0.76716 -6.60446,1.5647l-2.75308,-11.73522l-6.14317,-26.18966c-0.71024,-2.99267 -3.25097,-5.06627 -6.20175,-5.06627z"></path></g><g style="mix-blend-mode: normal" text-anchor="none" font-size="none" font-weight="none" font-family="none" stroke-dashoffset="0" stroke-dasharray="" stroke-miterlimit="10" stroke-linejoin="miter" stroke-linecap="butt" stroke-width="1" stroke="none" fill-rule="nonzero" fill="none" data-paper-data="{&quot;selected&quot;:false}"><path fill="#ffffff" data-paper-data="{&quot;guideItem&quot;:null,&quot;selected&quot;:false}" d="M94.95726,108.21465c-2.41627,-4.93715 -3.56582,-10.16293 -4.86914,-15.7381c-0.57844,-2.46098 -2.53342,-11.46178 -6.82412,-8.21085c-1.55227,1.17732 -1.61817,4.1472 -1.81586,5.93217c-0.42468,3.88895 -0.29288,7.7855 0.35146,11.56811c0.72488,4.23835 2.07945,8.28681 3.88799,12.1074c2.1966,-1.92169 5.37436,-4.1548 9.26967,-5.65873z"></path><path fill="#0088c5" data-paper-data="{&quot;guideItem&quot;:null,&quot;selected&quot;:false}" d="M107.49255,122.50199c-0.05858,-0.03798 -0.10983,-0.07596 -0.16841,-0.11393c-1.48637,-1.00262 -2.81165,-2.02803 -4.03443,-3.1142c-1.74996,-1.54191 -3.27294,-3.20535 -4.69341,-5.11185c-0.70291,-0.94186 -1.37654,-1.94448 -2.04284,-3.02305c-0.59308,-0.96464 -1.10562,-1.93688 -1.58888,-2.92431c-3.89531,1.50393 -7.07307,3.73704 -9.26967,5.66632c0.87132,1.84573 1.84515,3.6383 2.91416,5.3701c3.05328,4.92196 6.88269,10.34522 11.73719,13.58855c2.36501,1.57989 5.53544,1.87612 8.17869,0.3494c0.54915,-0.31902 1.05437,-0.6836 1.47173,-1.05579c1.50834,-1.36721 2.51145,-3.37245 1.99891,-5.33212c-0.10251,-0.38738 -0.27091,-0.72918 -0.46129,-1.04819c-0.90793,-1.48874 -2.64325,-2.29387 -4.04175,-3.25092z"></path><path fill="#000000" d="M85.03593,83.57449c3.06792,0 4.55429,6.81326 5.04487,8.90965c1.31064,5.57518 2.4602,10.80096 4.86914,15.7381c0.48325,0.98743 0.99579,1.95967 1.58888,2.92431c0.6663,1.07858 1.33993,2.0812 2.04284,3.02305c1.42047,1.9065 2.95077,3.56994 4.69341,5.11185c1.22278,1.07858 2.54806,2.10398 4.03443,3.1142c0.05858,0.03798 0.10983,0.07596 0.16841,0.11393c1.40583,0.95705 3.14114,1.76218 4.03443,3.24333c0.19037,0.31902 0.35878,0.65322 0.46129,1.04819c0.51254,1.95967 -0.49058,3.9725 -1.99891,5.33212c-0.41735,0.37218 -0.92257,0.73677 -1.47173,1.05579c-1.18617,0.6836 -2.48216,1.00262 -3.75619,1.00262c-1.57423,0 -3.11918,-0.47852 -4.4225,-1.35202c-4.8545,-3.24333 -8.68391,-8.66659 -11.73719,-13.58855c-1.06901,-1.7242 -2.04284,-3.52436 -2.91416,-5.3701c-1.80854,-3.82059 -3.16311,-7.86905 -3.88799,-12.1074c-0.64434,-3.78261 -0.78346,-7.67916 -0.35146,-11.56811c0.19769,-1.78497 0.26359,-4.75485 1.81586,-5.93217c0.65898,-0.49371 1.25206,-0.6988 1.78657,-0.6988M85.03593,80.56663c-1.19349,0 -2.36501,0.43295 -3.48528,1.27606c-2.40894,1.82295 -2.71647,5.14223 -2.92148,7.33736l-0.0659,0.67601c-0.45396,4.12442 -0.32949,8.3096 0.38074,12.43401c0.73952,4.3219 2.13071,8.66659 4.13694,12.90494c0.9299,1.97486 1.96962,3.88136 3.07525,5.67392c2.98738,4.82321 7.12432,10.82374 12.60119,14.49242c1.79389,1.20011 3.86602,1.83054 5.98941,1.83054c1.81586,0 3.60243,-0.47852 5.16934,-1.39c0.71024,-0.41016 1.39118,-0.90388 1.95498,-1.41278c2.54074,-2.29387 3.64636,-5.50682 2.89952,-8.38555c-0.16841,-0.63044 -0.42468,-1.23808 -0.80542,-1.85333c-1.05437,-1.74699 -2.67254,-2.75721 -3.97585,-3.56994c-0.31485,-0.19749 -0.62237,-0.38738 -0.91525,-0.59246l-0.18305,-0.12913c-1.34725,-0.91147 -2.57003,-1.85333 -3.73423,-2.87874c-1.58888,-1.39759 -2.98738,-2.92431 -4.28338,-4.6637c-0.64434,-0.8659 -1.26671,-1.78497 -1.8964,-2.80278c-0.46861,-0.75956 -0.9299,-1.60267 -1.44244,-2.65846c-2.13071,-4.35988 -3.24365,-9.12233 -4.42982,-14.17341l-0.21234,-0.91907l-0.05125,-0.21268c-0.76149,-3.2813 -2.55538,-10.98325 -7.80527,-10.98325z"></path></g><g style="mix-blend-mode: normal" text-anchor="none" font-size="none" font-weight="none" font-family="none" stroke-dashoffset="0" stroke-dasharray="" stroke-miterlimit="10" stroke-linejoin="miter" stroke-linecap="butt" stroke-width="1" stroke="none" fill-rule="nonzero" fill="none" data-paper-data="{&quot;selected&quot;:false}"><path fill="#ffffff" data-paper-data="{&quot;guideItem&quot;:null,&quot;selected&quot;:false}" d="M41.426,20.56891c-0.26359,1.50393 -2.6286,2.82557 -4.41518,2.95469h-0.21966c-1.61817,0 -1.78657,-1.15453 -3.03864,-2.45338c-0.14644,-0.1747 -0.35878,-0.37218 -0.60041,-0.57727c-0.60041,-0.50131 -1.15688,-0.72918 -1.6621,-0.72918c-1.03973,0 -1.95498,0.8735 -2.96542,2.20273c0,0 0,0 -0.02197,0.02279c0,0 0.02197,0.02279 0,0.05317c-0.21966,0.25066 -0.432,0.5241 -0.62969,0.79754c-0.24163,0.32661 -0.48325,0.65322 -0.72488,1.00262c-0.09519,0.12153 -0.16841,0.22787 -0.24163,0.3494c-0.07322,0.07596 -0.11715,0.15191 -0.16841,0.19749c-0.07322,0.09874 -0.11715,0.19749 -0.19037,0.27344c-0.11715,0.15191 -0.24163,0.30382 -0.33681,0.44814c-0.09519,0.12153 -0.19037,0.25066 -0.29288,0.37218c-2.40894,3.09901 -6.7509,3.60032 -9.7456,1.10136c-2.96542,-2.49896 -3.47064,-7.03353 -1.11295,-10.15533c0.26359,-0.32661 0.52719,-0.67601 0.76881,-1.00262c1.03973,-1.32923 2.07213,-2.57491 3.11186,-3.67628c0.14644,-0.1747 0.29288,-0.32661 0.432,-0.47852h0.02197c2.72379,-2.74961 5.68921,-4.55737 9.65042,-4.55737c0.60041,0 1.20813,0.05317 1.8305,0.12153c2.31376,0.30382 4.4884,1.20011 6.20175,2.90152c2.92148,2.95469 5.11809,6.50184 4.34928,10.83134z"></path><path fill="#000000" d="M27.14807,23.85021c-0.14644,0.1747 -0.26359,0.3494 -0.41003,0.54688c0.05125,-0.05317 0.09519,-0.12153 0.16841,-0.19749c0.60041,-0.79754 1.2301,-1.62546 1.49369,-1.97486c0.05125,-0.07596 0.09519,-0.12153 0.09519,-0.1747c0.02197,-0.02279 0,-0.05317 0,-0.05317c-0.21966,0.27344 -0.41003,0.54688 -0.62969,0.85071c-0.2343,0.32661 -0.47593,0.65322 -0.71756,1.00262zM18.94742,11.7656l0.46129,-0.47852h-0.02197c-0.15376,0.15191 -0.3002,0.30382 -0.43932,0.47852zM18.94742,11.7656c-1.03973,1.10136 -2.07213,2.35464 -3.11186,3.67628c1.0324,-1.32923 2.07213,-2.55212 3.11186,-3.67628z"></path><path fill="#000000" d="M39.08296,7.6108c-2.07213,-2.0736 -4.70073,-3.32688 -7.84188,-3.72944c-0.74685,-0.09874 -1.47173,-0.15191 -2.1966,-0.15191c-7.40256,0 -11.91292,5.12704 -16.25487,10.86172c-3.35348,4.40545 -2.6286,10.83134 1.56691,14.34051c1.73532,1.47355 3.90996,2.27868 6.15049,2.27868c2.98738,0 5.79171,-1.39759 7.64418,-3.82819c0.55647,-0.6988 1.06169,-1.39759 1.52298,-2.05081c0.57844,-0.79754 1.32528,-1.82295 1.8305,-2.35464c0.33681,0.30382 0.57844,0.62284 0.84203,1.00262c0.67363,0.94945 1.85979,2.55212 4.43714,2.55212c0.11715,0 0.26359,0 0.41003,-0.02279c2.48216,-0.15191 6.46534,-1.97486 7.06574,-5.40807c0.85668,-4.68649 -0.90793,-9.23626 -5.17666,-13.4898zM41.426,20.56891c-0.26359,1.50393 -2.6286,2.82557 -4.41518,2.95469h-0.21966c-1.61817,0 -1.78657,-1.15453 -3.03864,-2.45338c-0.16841,-0.19749 -0.38807,-0.37218 -0.60041,-0.57727c-0.60041,-0.50131 -1.15688,-0.72918 -1.6621,-0.72918c-1.03973,0 -1.95498,0.8735 -2.96542,2.20273c0,0 0,0 -0.02197,0.02279c0,0 0.02197,0.02279 0,0.05317c0,0.05317 -0.05125,0.09874 -0.09519,0.1747c-0.26359,0.3494 -0.89329,1.17732 -1.49369,1.97486c-0.07322,0.07596 -0.11715,0.15191 -0.16841,0.19749c-0.07322,0.09874 -0.11715,0.19749 -0.19037,0.27344c-0.11715,0.15191 -0.24163,0.30382 -0.33681,0.44814c-0.09519,0.12153 -0.19037,0.25066 -0.29288,0.37218c-2.40894,3.09901 -6.7509,3.60032 -9.7456,1.10136c-2.96542,-2.49896 -3.47064,-7.03353 -1.11295,-10.15533c0.26359,-0.32661 0.52719,-0.67601 0.76881,-1.00262c1.03973,-1.32923 2.07213,-2.57491 3.11186,-3.67628c0.14644,-0.1747 0.29288,-0.32661 0.432,-0.47852h0.02197c2.72379,-2.74961 5.68921,-4.55737 9.65042,-4.55737c0.60041,0 1.20813,0.05317 1.8305,0.12153c2.31376,0.30382 4.4884,1.20011 6.20175,2.90152c2.91416,2.95469 5.11077,6.50184 4.34196,10.83134z"></path><path fill="#683100" data-paper-data="{&quot;guideItem&quot;:null,&quot;selected&quot;:false}" d="M28.51729,21.9741c0,0 0,0 -0.02197,0.02279c0,0 0.02197,0.02279 0,0.05317c0,0.05317 -0.05125,0.09874 -0.09519,0.1747c-0.26359,0.3494 -0.89329,1.17732 -1.49369,1.97486c-0.07322,0.07596 -0.11715,0.15191 -0.16841,0.19749c-0.07322,0.09874 -0.11715,0.19749 -0.19037,0.27344c-0.11715,0.15191 -0.24163,0.30382 -0.33681,0.44814c-0.09519,0.12153 -0.19037,0.25066 -0.29288,0.37218c-2.40894,3.09901 -6.7509,3.60032 -9.7456,1.10136c-2.96542,-2.49896 -3.47064,-7.03353 -1.11295,-10.15533c0.26359,-0.32661 0.52719,-0.67601 0.76881,-1.00262c1.03973,-1.32923 2.07213,-2.57491 3.11186,-3.67628c0.14644,-0.1747 0.29288,-0.32661 0.432,-0.47852h0.02197c0.21966,-0.02279 0.65166,-0.12153 0.74685,-0.09874c1.52298,0.27344 2.94345,1.64825 2.70182,3.22813c-0.11715,0.6988 -0.48325,1.27606 -0.96651,1.70142c0.55647,-0.37218 1.2301,-0.54688 1.93301,-0.42535c1.49369,0.27344 2.53342,1.77737 2.26982,3.34966c-0.11715,0.77475 -0.55647,1.42797 -1.11295,1.85333c0.48325,-0.22787 0.98847,-0.3494 1.54495,-0.25066c0.92257,0.15951 2.17464,0.66082 2.00623,1.33683z"></path></g><g style="mix-blend-mode: normal" text-anchor="none" font-size="none" font-weight="none" font-family="none" stroke-dashoffset="0" stroke-dasharray="" stroke-miterlimit="10" stroke-linejoin="miter" stroke-linecap="butt" stroke-width="1" stroke="none" fill-rule="nonzero" fill="none" data-paper-data="{&quot;selected&quot;:false}"><path fill="#000000" d="M55.69661,17.09012c9.05733,0 18.43684,3.82059 25.92726,9.07675c6.39212,4.48141 10.73407,12.57833 12.99658,20.10558c0.13912,0.45574 0.2343,0.90388 0.35878,1.35961c0.25627,0.77475 0.4979,1.54191 0.71024,2.30147c2.57735,9.16031 1.03973,17.1281 -1.41315,26.22004c-0.53451,1.97486 -4.34928,11.60609 -4.41518,12.07702c-1.0983,5.29414 1.54495,11.758 2.27715,16.97619c1.35457,9.69959 1.62549,19.7182 -2.28447,28.87851c-5.32311,12.48718 -17.71928,16.92302 -30.02759,17.78132c-1.21545,0.08355 -2.43091,0.12913 -3.64636,0.12913c-0.26359,0 -0.52719,0 -0.7981,-0.0076c-0.05858,0 -0.11715,-0.0076 -0.17573,-0.0076l-3.00935,-0.04557c-1.47905,-0.02279 -3.01667,-0.10634 -4.4884,-0.25066c-10.11903,-1.01022 -21.27046,-5.08906 -27.59668,-13.81641c-4.57626,-6.31195 -6.31158,-16.77111 -5.81368,-24.55661c0.39539,-6.07649 2.18928,-11.95549 3.29491,-17.91045c0.432,-2.33185 1.27403,-4.61054 1.0983,-6.98037c-0.03661,-0.50131 -0.10983,-0.98743 -0.17573,-1.48114c-0.3661,-1.07098 -3.11918,-9.11473 -3.81477,-12.19095c-2.05016,-7.00315 -2.59932,-14.34811 -1.56691,-21.76902c1.09098,-7.80829 4.15158,-16.51286 9.78221,-21.98169c7.23415,-7.03353 16.97975,-12.73024 26.82054,-13.52019c0,0 0.07322,-0.0076 0.17573,-0.01519l3.16311,-0.25825c0.87864,-0.07596 1.74996,-0.11393 2.62128,-0.11393M55.69661,14.08986c-0.95918,0 -1.91837,0.03798 -2.84826,0.12153l-3.14847,0.25825l-0.24163,0.02279c-9.51862,0.75956 -19.93785,5.97774 -28.51193,14.31013c-5.41097,5.25616 -9.29896,13.90756 -10.66818,23.74388c-1.08366,7.7855 -0.53451,15.51783 1.63281,22.98432c0.59308,2.57491 2.37966,7.99058 3.78548,12.13778c0.05125,0.3494 0.08786,0.66841 0.11715,0.98743c0.08786,1.20011 -0.2343,2.56732 -0.57844,4.01808c-0.16841,0.72158 -0.34413,1.44317 -0.47593,2.17234c-0.35146,1.9065 -0.79078,3.86617 -1.22278,5.76507c-0.90793,4.02567 -1.84515,8.19566 -2.12338,12.50997c-0.51986,8.11971 1.24474,19.47514 6.3848,26.56185c5.98209,8.24883 16.78206,13.71767 29.6322,15.00133c1.50834,0.15191 3.14114,0.24306 4.73002,0.26585l3.00935,0.04557l0.16108,0.0076l0.84935,0.0076c1.28135,0 2.57003,-0.04557 3.83674,-0.12913c16.27684,-1.13175 27.50881,-7.89943 32.48046,-19.5587c4.51768,-10.60347 3.71226,-21.88295 2.50413,-30.52676c-0.25627,-1.80776 -0.71024,-3.71425 -1.14956,-5.56758c-0.85668,-3.60791 -1.74996,-7.33736 -1.17884,-10.25407c0.16841,-0.49371 0.83471,-2.26349 1.43512,-3.83578c1.5303,-4.01808 2.63593,-6.95758 2.95809,-8.15768c2.38698,-8.83369 4.2907,-17.62181 1.40583,-27.86829c-0.21966,-0.77475 -0.46129,-1.5647 -0.72488,-2.34704l-0.10983,-0.42535c-0.08054,-0.31142 -0.16108,-0.62284 -0.25627,-0.94186c-2.84826,-9.48692 -8.00296,-17.40154 -14.13881,-21.70825c-8.80838,-6.19802 -18.59792,-9.60085 -27.54542,-9.60085z"></path><path fill="#009ff9" data-paper-data="{&quot;guideItem&quot;:null,&quot;selected&quot;:false}" d="M94.27631,76.15358c2.45288,-9.08435 3.9905,-17.05974 1.41315,-26.22004c-0.21234,-0.76716 -0.45396,-1.53431 -0.71024,-2.30147c-0.12447,-0.45574 -0.21966,-0.90388 -0.35878,-1.35961c-2.2625,-7.53484 -6.60446,-15.62417 -12.99658,-20.10558c-8.2153,-5.75747 -18.70043,-9.79834 -28.54122,-8.97042l-3.16311,0.25825c-0.10983,0.0076 -0.17573,0.01519 -0.17573,0.01519c-9.84079,0.78235 -19.58639,6.48665 -26.82054,13.52019c-5.63063,5.47643 -8.69123,14.17341 -9.78221,21.98169c-1.0324,7.42851 -0.48325,14.76587 1.56691,21.76902c0.69559,3.07622 3.44867,11.11997 3.81477,12.19095c0.07322,0.49371 0.13912,0.98743 0.17573,1.48114c0.17573,2.36983 -0.6663,4.64851 -1.0983,6.98037c-1.10562,5.95496 -2.89952,11.83396 -3.29491,17.91045c-0.50522,7.7855 1.23742,18.24465 5.81368,24.55661c6.32622,8.72736 17.47765,12.8062 27.59668,13.81641c1.47173,0.14432 3.00935,0.22787 4.4884,0.25066l3.00935,0.04557c0.05858,0 0.11715,0.0076 0.17573,0.0076c1.47905,0.02279 2.95809,-0.01519 4.43714,-0.12153c12.30831,-0.8583 24.70448,-5.29414 30.02759,-17.78132c3.90263,-9.16031 3.63904,-19.17891 2.28447,-28.87851c-0.7322,-5.21818 -3.37545,-11.68205 -2.27715,-16.97619c0.0659,-0.45574 3.88799,-10.09457 4.41518,-12.06942z"></path></g><path style="mix-blend-mode: normal" text-anchor="none" font-size="none" font-weight="none" font-family="none" stroke-dashoffset="0" stroke-dasharray="" stroke-miterlimit="10" stroke-linejoin="miter" stroke-linecap="butt" stroke-width="1" stroke="none" fill-rule="nonzero" fill="#009ff8" data-paper-data="{&quot;guideItem&quot;:null,&quot;selected&quot;:false}" d="M53.08998,17.19646c0,0 -0.07322,0.0076 -0.17573,0.01519z"></path><g style="mix-blend-mode: normal" text-anchor="none" font-size="none" font-weight="none" font-family="none" stroke-dashoffset="0" stroke-dasharray="" stroke-miterlimit="10" stroke-linejoin="miter" stroke-linecap="butt" stroke-width="1" stroke="none" fill-rule="none" fill="none" data-paper-data="{&quot;selected&quot;:false}"><path fill-rule="evenodd" fill="#ffffff" data-paper-data="{&quot;guideItem&quot;:null,&quot;selected&quot;:false}" d="M100.30233,78.1968c-5.01558,6.45627 -14.90762,10.83134 -26.46176,11.73522c-28.60711,2.20273 -43.46348,-6.63097 -45.41846,-26.97201c-0.26359,-2.87874 -1.20813,-17.71296 7.19022,-27.99742c5.01558,-6.18283 12.54261,-9.66162 22.31018,-10.33003c33.60073,-2.37743 36.2513,23.41726 36.34649,24.51863c0.05125,0.62284 0.48325,1.15453 1.06169,1.32923c0.31485,0.07596 7.549,2.22551 8.85232,11.85675c0.84203,6.12206 -0.48325,11.47697 -3.88067,15.85963z"></path><path fill-rule="nonzero" fill="#000000" d="M107.05323,61.90422c-1.30332,-9.55528 -7.60025,-13.01128 -10.03116,-14.0139c-0.74685,-4.98272 -5.76243,-26.42513 -34.83083,-26.42513c-1.44976,0 -2.92148,0.05317 -4.45911,0.15191c-10.58763,0.75197 -18.78829,4.58015 -24.33838,11.38582c-8.92554,10.96046 -8.25191,25.92382 -7.84188,30.25331c1.93301,20.14356 15.05406,30.00266 40.03678,30.00266c2.70182,0 5.5208,-0.12153 8.46425,-0.3494c12.52065,-0.94945 22.91059,-5.62835 28.51193,-12.83658c3.93192,-5.05868 5.43294,-11.16555 4.4884,-18.1687zM28.42211,62.95241c-0.26359,-2.87874 -1.20813,-17.71296 7.19022,-27.99742c5.01558,-6.18283 12.54261,-9.66162 22.31018,-10.33003c33.60073,-2.37743 36.2513,23.41726 36.34649,24.51863c0.05125,0.62284 0.48325,1.15453 1.06169,1.32923c0.31485,0.07596 7.549,2.22551 8.85232,11.85675c0.84203,6.12966 -0.48325,11.48456 -3.88067,15.85963c-5.01558,6.45627 -14.90762,10.83134 -26.46176,11.73522c-28.60711,2.20273 -43.46348,-6.62337 -45.41846,-26.97201z"></path><path fill-rule="evenodd" fill="#ffbeb8" data-paper-data="{&quot;guideItem&quot;:null,&quot;selected&quot;:false}" d="M70.66281,65.71722c0.13912,6.12966 -4.2907,11.21872 -9.89937,11.35544c-5.60866,0.13672 -10.27279,-4.71687 -10.41191,-10.84653c-0.13912,-6.12206 4.2907,-11.21112 9.89937,-11.34784c5.60866,-0.13672 10.26547,4.70928 10.41191,10.83894"></path><path fill-rule="evenodd" fill="#ffbeb8" data-paper-data="{&quot;guideItem&quot;:null,&quot;selected&quot;:false}" d="M103.64117,60.86362c-0.50522,-2.0812 -2.88487,-9.06156 -6.15782,-6.55501c-4.41518,3.38005 -2.37233,11.97828 -0.18305,16.24701c0.864,1.67863 2.41627,3.64589 4.5909,3.22054c1.2301,-0.23546 1.68406,-2.65087 1.84515,-3.47879c0.61505,-3.09141 0.65166,-6.34993 -0.09519,-9.43375z"></path></g><g style="mix-blend-mode: normal" text-anchor="none" font-size="none" font-weight="none" font-family="none" stroke-dashoffset="0" stroke-dasharray="" stroke-miterlimit="10" stroke-linejoin="miter" stroke-linecap="butt" stroke-width="1" stroke="none" fill-rule="none" fill="none" data-paper-data="{&quot;selected&quot;:false}"><path fill-rule="evenodd" fill="#000000" data-paper-data="{&quot;guideItem&quot;:null,&quot;selected&quot;:false}" d="M88.08189,60.12685c0.02197,0.79754 -0.77613,1.46595 -1.79389,1.48874c-1.01776,0.02279 -1.85247,-0.60005 -1.86711,-1.39759c-0.02197,-0.78994 0.78346,-1.46595 1.80122,-1.48874c1.01776,-0.02279 1.84515,0.60765 1.85979,1.39759"></path><path fill-rule="evenodd" fill="#000000" data-paper-data="{&quot;guideItem&quot;:null,&quot;selected&quot;:false}" d="M90.63727,58.34188v0c-1.05437,0.02279 -1.93301,-1.02541 -1.9623,-2.34704l-0.00732,-0.33421c-0.02929,-1.32164 0.7981,-2.423 1.85247,-2.44579c1.05437,-0.02279 1.93301,1.02541 1.96962,2.34704l0.00732,0.33421c0.02929,1.32164 -0.80542,2.4154 -1.85979,2.44579"></path><path fill-rule="evenodd" fill="#000000" data-paper-data="{&quot;guideItem&quot;:null,&quot;selected&quot;:false}" d="M74.29453,58.75204v0c-1.23742,0.03038 -2.26982,-1.01781 -2.29911,-2.33945l-0.00732,-0.33421c-0.02929,-1.32164 0.95186,-2.423 2.18928,-2.45338c1.23742,-0.03038 2.26982,1.01781 2.30643,2.33945l0.00732,0.33421c0.02929,1.32164 -0.95186,2.423 -2.1966,2.45338"></path><path fill-rule="nonzero" fill="#231815" data-paper-data="{&quot;guideItem&quot;:null,&quot;selected&quot;:false}" d="M94.47401,63.17269c-0.34413,-0.59246 -1.09098,-0.76716 -1.65478,-0.41016c-0.57112,0.36459 -0.74685,1.13175 -0.39539,1.71661c0.04393,0.07596 0.13912,0.23546 -0.27091,0.74437c-0.83471,1.0406 -1.94766,1.16972 -2.58467,1.14694c-1.14223,-0.03798 -2.23321,-0.60765 -2.84826,-1.48114c-0.04393,-0.06076 -0.10251,-0.09115 -0.14644,-0.14432c-0.05125,-0.05317 -0.08786,-0.11393 -0.14644,-0.15191c-0.00732,-0.0076 -0.02197,-0.0076 -0.02929,-0.01519c-0.08054,-0.05317 -0.17573,-0.08355 -0.27091,-0.11393c-0.05125,-0.01519 -0.10251,-0.05317 -0.16108,-0.06076c-0.09519,-0.01519 -0.18305,-0.0076 -0.27824,0c-0.05858,0 -0.12447,-0.0076 -0.18305,0.0076c-0.07322,0.01519 -0.14644,0.05317 -0.21234,0.09115c-0.07322,0.03038 -0.15376,0.05317 -0.21966,0.10634c-0.00732,0.0076 -0.02197,0.0076 -0.03661,0.01519c-0.0659,0.04557 -0.10251,0.11393 -0.14644,0.1671c-0.04393,0.04557 -0.10251,0.08355 -0.13912,0.13672c-1.72067,2.61289 -6.46534,3.23573 -9.40879,1.22289c-0.68095,-0.46333 -1.07634,-0.8735 -1.23742,-1.09377c0.21966,-0.48612 0.12447,-1.07858 -0.27824,-1.45836c-0.49058,-0.46333 -1.25206,-0.42535 -1.70603,0.08355c-0.38807,0.44055 -0.5638,1.00262 -0.49058,1.58748c0.11715,0.97224 0.91525,1.97486 2.38698,2.96988c1.60352,1.09377 3.52921,1.61027 5.42561,1.61027c2.40162,0 4.71538,-0.8659 6.31158,-2.423c1.02508,0.8735 2.34304,1.39759 3.73423,1.45076c0.0659,0 0.1318,0 0.20502,0c1.69871,0 3.2583,-0.73677 4.31267,-2.04322c1.31796,-1.64065 0.864,-3.00027 0.46861,-3.66108z"></path></g><g style="mix-blend-mode: normal" text-anchor="none" font-size="none" font-weight="none" font-family="none" stroke-dashoffset="0" stroke-dasharray="" stroke-miterlimit="10" stroke-linejoin="miter" stroke-linecap="butt" stroke-width="1" stroke="none" fill-rule="nonzero" fill="none" data-paper-data="{&quot;selected&quot;:false}"><path fill="#ffffff" data-paper-data="{&quot;guideItem&quot;:null,&quot;selected&quot;:false}" d="M17.88572,116.94201c2.11606,-5.08146 5.25721,-9.335 8.55211,-13.94554c1.45708,-2.03562 6.87537,-9.3426 1.728,-10.68702c-1.86711,-0.48612 -4.10765,1.35961 -5.55741,2.33945c-3.15579,2.14196 -5.96012,4.73966 -8.35442,7.67916c-2.67986,3.2889 -4.81789,6.95758 -6.49463,10.83894c2.84094,0.5165 6.52392,1.62546 10.12635,3.77502z"></path><path fill="#0088c5" data-paper-data="{&quot;guideItem&quot;:null,&quot;selected&quot;:false}" d="M15.30838,136.06775c-0.00732,-0.06836 -0.01464,-0.13672 -0.02197,-0.20508c-0.20502,-1.83054 -0.29288,-3.53955 -0.27091,-5.21059c0.02929,-2.37743 0.28556,-4.65611 0.79078,-7.01075c0.24895,-1.16213 0.55647,-2.33945 0.9299,-3.56234c0.33681,-1.08617 0.7322,-2.12677 1.14956,-3.13699c-3.60975,-2.14196 -7.29273,-3.25092 -10.12635,-3.77502c-0.81274,1.87612 -1.52298,3.7978 -2.11606,5.75747c-1.69871,5.58277 -3.27294,12.1074 -2.57735,18.04717c0.33681,2.89393 2.14535,5.62075 4.97165,6.7449c0.58576,0.23546 1.17884,0.40257 1.728,0.49371c1.97694,0.33421 4.10765,-0.15191 5.23524,-1.81535c0.22698,-0.32661 0.3661,-0.67601 0.48325,-1.033c0.51986,-1.66344 0.00732,-3.56234 -0.17573,-5.29414z"></path><path fill="#000000" d="M27.5215,92.22589c0.21966,0 0.432,0.02279 0.64434,0.08355c5.14738,1.34442 -0.27091,8.6514 -1.728,10.68702c-3.29491,4.60294 -6.43605,8.86408 -8.55211,13.94554c-0.42468,1.01022 -0.82007,2.05081 -1.14956,3.13699c-0.37342,1.22289 -0.68095,2.40021 -0.9299,3.56234c-0.50522,2.35464 -0.76149,4.63332 -0.79078,7.01075c-0.02197,1.66344 0.0659,3.38005 0.27091,5.21059c0.00732,0.06836 0.01464,0.13672 0.02197,0.20508c0.18305,1.7318 0.69559,3.6307 0.17573,5.29414c-0.10983,0.35699 -0.25627,0.70639 -0.48325,1.033c-0.90793,1.33683 -2.4602,1.91409 -4.06372,1.91409c-0.38807,0 -0.78346,-0.03038 -1.1642,-0.09874c-0.54183,-0.09115 -1.13491,-0.25825 -1.728,-0.49371c-2.8263,-1.13175 -4.63484,-3.85097 -4.97165,-6.7449c-0.69559,-5.93977 0.87864,-12.47199 2.57735,-18.04717c0.59308,-1.95967 1.31064,-3.88136 2.11606,-5.75747c1.67674,-3.88136 3.81477,-7.55004 6.49463,-10.83894c2.38698,-2.93191 5.19863,-5.5372 8.35442,-7.67916c1.28135,-0.8735 3.18508,-2.423 4.90575,-2.423M27.5215,89.22563c-2.36501,0 -4.43714,1.46595 -5.9528,2.52934l-0.54915,0.37978c-3.34616,2.27109 -6.37015,5.05108 -8.97679,8.24883c-2.73111,3.34966 -5.05951,7.23862 -6.92663,11.54533c-0.864,2.00524 -1.61817,4.04846 -2.24054,6.07649c-1.6621,5.46884 -3.47064,12.60112 -2.68718,19.31564c0.49058,4.18518 3.09721,7.70195 6.80215,9.19069c0.76149,0.30382 1.55227,0.53169 2.29911,0.66082c0.54183,0.09115 1.0983,0.13672 1.63281,0.13672c2.71647,0 5.05951,-1.16213 6.42873,-3.19016c0.35878,-0.53169 0.64434,-1.13175 0.864,-1.82295c0.62237,-1.95967 0.33681,-3.89655 0.10251,-5.45365c-0.05858,-0.37218 -0.10983,-0.74437 -0.14644,-1.10896l-0.02197,-0.22787c-0.19037,-1.65584 -0.27091,-3.23573 -0.25627,-4.82321c0.02197,-2.16475 0.26359,-4.25354 0.72488,-6.3955c0.22698,-1.06339 0.51254,-2.14956 0.864,-3.30409c0.26359,-0.8583 0.59308,-1.76218 1.04705,-2.85595c1.86711,-4.48141 4.69341,-8.42353 7.67347,-12.58593l0.54183,-0.75956l0.1318,-0.18229c2.68718,-3.73704 5.26453,-8.05135 4.02711,-11.65167c-0.35146,-1.02541 -1.34725,-2.84835 -4.04175,-3.55475c-0.42468,-0.11393 -0.87864,-0.1671 -1.33993,-0.1671z"></path></g>
               </svg>