<svg viewBox="0 0 701 400" xml:space="preserve" xmlns:xlink="http://www.w3.org/1999/xlink" xmlns="http://www.w3.org/2000/svg">
                    <g style="mix-blend-mode: normal" text-anchor="none" font-size="none" font-weight="none" font-family="none" stroke-dashoffset="0" stroke-dasharray="" stroke-miterlimit="10" stroke-linejoin="miter" stroke-linecap="butt" stroke-width="1" stroke="none" fill-rule="nonzero" fill="none" data-paper-data="{&quot;selected&quot;:false,&quot;guideItem&quot;:null}"><rect fill="#ab602c" data-paper-data="{&quot;guideItem&quot;:null,&quot;selected&quot;:false}" height="240" width="240" transform="scale(0.41665,0.41666)" y="0.00192" x="0"></rect><path fill="#713f1d" data-paper-data="{&quot;guideItem&quot;:null,&quot;selected&quot;:false}" d="M100.00014,0v100h-99.9974l1.77079,-1.76666h96.46416v-96.46668z"></path><path fill="#dc874f" data-paper-data="{&quot;guideItem&quot;:null,&quot;selected&quot;:false}" d="M100.00014,0l-1.76246,1.76666h-96.46416v96.46668l-1.77079,1.76666v-100z"></path></g><g style="mix-blend-mode: normal" text-anchor="none" font-size="none" font-weight="none" font-family="none" stroke-dashoffset="0" stroke-dasharray="" stroke-miterlimit="10" stroke-linejoin="miter" stroke-linecap="butt" stroke-width="1" stroke="none" fill-rule="nonzero" fill="none" data-paper-data="{&quot;selected&quot;:false,&quot;guideItem&quot;:null}"><path fill="#8f5025" data-paper-data="{&quot;guideItem&quot;:null,&quot;selected&quot;:false}" d="M65.19611,17.42918c-7.92062,0.575 -14.2038,7.04582 -14.47879,15.04582h-36.23239c-5.42903,0 -10.01224,-3.62084 -11.47887,-8.57916l-0.03749,0.05834c-0.56249,-1.20416 -1.42913,-2.04584 -2.32494,-2.62918v-19.55834h36.91988c0.62498,1.00833 1.10414,2.1125 1.4083,3.2875l0.16249,0.00833c0,0 0.00001,3.45417 6.22068,3.45417h8.28728v0.00417c5.54568,0.0125 10.19973,3.79167 11.55387,8.90834z"></path><path fill="#8f5025" data-paper-data="{&quot;guideItem&quot;:null,&quot;selected&quot;:false}" d="M97.10778,69.11666v29.11668h-23.97439c-0.23332,-0.54582 -0.42914,-1.11249 -0.57914,-1.69583l-0.16251,-0.00418c0,0 0,-3.45833 -6.22067,-3.45833h-8.29145c-6.604,-0.01667 -11.94552,-5.37083 -11.94552,-11.97917c0,-6.60418 5.34153,-11.95833 11.94552,-11.975v-0.00417z"></path><path fill="#945326" data-paper-data="{&quot;guideItem&quot;:null,&quot;selected&quot;:false}" d="M97.10778,48.66666h-8.79144c0.00834,0.17917 0.0125,0.35835 0.0125,0.53752c0,6.15416 -4.98321,11.14581 -11.13305,11.16249h-29.05341c-6.16234,0 -11.16221,-4.99582 -11.16221,-11.16249c0,-6.16667 4.99987,-11.16251 11.16221,-11.16251h3.38742c-0.53331,-1.575 -0.82498,-3.2625 -0.82498,-5.0125c0,-0.1875 0.00417,-0.37083 0.0125,-0.55417c0.27499,-8 6.55817,-14.47083 14.47879,-15.04582c0.37916,-0.02917 0.76248,-0.04168 1.1458,-0.04168h30.76587z"></path><path fill="#8f5025" data-paper-data="{&quot;guideItem&quot;:null,&quot;selected&quot;:false}" d="M30.7345,64.4c0,-5.27083 -4.27072,-9.54584 -9.53725,-9.55834v0h-5.53737c-5.27902,0 -9.55808,4.27918 -9.55808,9.55834c0,5.27917 4.27905,9.55834 9.55808,9.55834h5.53737v0c5.26653,-0.0125 9.53725,-4.2875 9.53725,-9.55834z"></path></g><g style="mix-blend-mode: normal" text-anchor="none" font-size="none" font-weight="none" font-family="none" stroke-dashoffset="0" stroke-dasharray="" stroke-miterlimit="10" stroke-linejoin="miter" stroke-linecap="butt" stroke-width="1" stroke="none" fill-rule="nonzero" fill="none" data-paper-data="{&quot;selected&quot;:false,&quot;guideItem&quot;:null}"><rect fill="#ab602c" data-paper-data="{&quot;guideItem&quot;:null,&quot;selected&quot;:false}" height="240" width="240" transform="scale(0.41665,0.41666)" y="240.00576" x="0"></rect><path fill="#713f1d" data-paper-data="{&quot;guideItem&quot;:null,&quot;selected&quot;:false}" d="M100.00014,100v100h-99.9974l1.77079,-1.76666h96.46416v-96.46668z"></path><path fill="#dc874f" data-paper-data="{&quot;guideItem&quot;:null,&quot;selected&quot;:false}" d="M100.00014,100l-1.76246,1.76666h-96.46416v96.46668l-1.77079,1.76666v-100z"></path></g><g style="mix-blend-mode: normal" text-anchor="none" font-size="none" font-weight="none" font-family="none" stroke-dashoffset="0" stroke-dasharray="" stroke-miterlimit="10" stroke-linejoin="miter" stroke-linecap="butt" stroke-width="1" stroke="none" fill-rule="nonzero" fill="none" data-paper-data="{&quot;selected&quot;:false,&quot;guideItem&quot;:null}"><path fill="#8f5025" data-paper-data="{&quot;guideItem&quot;:null,&quot;selected&quot;:false}" d="M65.19611,117.42918c-7.92062,0.575 -14.2038,7.04582 -14.47879,15.04582h-36.23239c-5.42903,0 -10.01224,-3.62084 -11.47887,-8.57916l-0.03749,0.05834c-0.56249,-1.20416 -1.42913,-2.04584 -2.32494,-2.62918v-19.55834h36.91988c0.62498,1.00833 1.10414,2.1125 1.4083,3.2875l0.16249,0.00833c0,0 0.00001,3.45417 6.22068,3.45417h8.28728v0.00417c5.54568,0.0125 10.19973,3.79167 11.55387,8.90834z"></path><path fill="#8f5025" data-paper-data="{&quot;guideItem&quot;:null,&quot;selected&quot;:false}" d="M97.10778,169.11666v29.11668h-23.97439c-0.23332,-0.54582 -0.42914,-1.11249 -0.57914,-1.69583l-0.16251,-0.00418c0,0 0,-3.45833 -6.22067,-3.45833h-8.29145c-6.604,-0.01667 -11.94552,-5.37083 -11.94552,-11.97917c0,-6.60418 5.34153,-11.95833 11.94552,-11.975v-0.00417z"></path><path fill="#945326" data-paper-data="{&quot;guideItem&quot;:null,&quot;selected&quot;:false}" d="M97.10778,148.66666h-8.79144c0.00834,0.17917 0.0125,0.35835 0.0125,0.53752c0,6.15416 -4.98321,11.14581 -11.13305,11.16249h-29.05341c-6.16234,0 -11.16221,-4.99582 -11.16221,-11.16249c0,-6.16667 4.99987,-11.16251 11.16221,-11.16251h3.38742c-0.53331,-1.575 -0.82498,-3.2625 -0.82498,-5.0125c0,-0.1875 0.00417,-0.37083 0.0125,-0.55417c0.27499,-8 6.55817,-14.47083 14.47879,-15.04582c0.37916,-0.02917 0.76248,-0.04168 1.1458,-0.04168h30.76587z"></path><path fill="#8f5025" data-paper-data="{&quot;guideItem&quot;:null,&quot;selected&quot;:false}" d="M30.7345,164.4c0,-5.27083 -4.27072,-9.54584 -9.53725,-9.55834v0h-5.53737c-5.27902,0 -9.55808,4.27918 -9.55808,9.55834c0,5.27917 4.27905,9.55834 9.55808,9.55834h5.53737v0c5.26653,-0.0125 9.53725,-4.2875 9.53725,-9.55834z"></path></g><g style="mix-blend-mode: normal" text-anchor="none" font-size="none" font-weight="none" font-family="none" stroke-dashoffset="0" stroke-dasharray="" stroke-miterlimit="10" stroke-linejoin="miter" stroke-linecap="butt" stroke-width="1" stroke="none" fill-rule="nonzero" fill="none" data-paper-data="{&quot;selected&quot;:false,&quot;guideItem&quot;:null}"><rect fill="#ab602c" data-paper-data="{&quot;guideItem&quot;:null,&quot;selected&quot;:false}" height="240" width="240" transform="scale(0.41665,0.41666)" y="720.01344" x="0"></rect><path fill="#713f1d" data-paper-data="{&quot;guideItem&quot;:null,&quot;selected&quot;:false}" d="M100.00014,300v100h-99.9974l1.77079,-1.76666h96.46416v-96.46668z"></path><path fill="#dc874f" data-paper-data="{&quot;guideItem&quot;:null,&quot;selected&quot;:false}" d="M100.00014,300l-1.76246,1.76666h-96.46416v96.46668l-1.77079,1.76666v-100z"></path></g><g style="mix-blend-mode: normal" text-anchor="none" font-size="none" font-weight="none" font-family="none" stroke-dashoffset="0" stroke-dasharray="" stroke-miterlimit="10" stroke-linejoin="miter" stroke-linecap="butt" stroke-width="1" stroke="none" fill-rule="nonzero" fill="none" data-paper-data="{&quot;selected&quot;:false,&quot;guideItem&quot;:null}"><path fill="#8f5025" data-paper-data="{&quot;guideItem&quot;:null,&quot;selected&quot;:false}" d="M65.19611,317.42918c-7.92062,0.575 -14.2038,7.04582 -14.47879,15.04582h-36.23239c-5.42903,0 -10.01224,-3.62084 -11.47887,-8.57916l-0.03749,0.05834c-0.56249,-1.20416 -1.42913,-2.04584 -2.32494,-2.62918v-19.55834h36.91988c0.62498,1.00833 1.10414,2.1125 1.4083,3.2875l0.16249,0.00833c0,0 0.00001,3.45417 6.22068,3.45417h8.28728v0.00417c5.54568,0.0125 10.19973,3.79167 11.55387,8.90834z"></path><path fill="#8f5025" data-paper-data="{&quot;guideItem&quot;:null,&quot;selected&quot;:false}" d="M97.10778,369.11666v29.11668h-23.97439c-0.23332,-0.54582 -0.42914,-1.11249 -0.57914,-1.69583l-0.16251,-0.00418c0,0 0,-3.45833 -6.22067,-3.45833h-8.29145c-6.604,-0.01667 -11.94552,-5.37083 -11.94552,-11.97917c0,-6.60418 5.34153,-11.95833 11.94552,-11.975v-0.00417z"></path><path fill="#945326" data-paper-data="{&quot;guideItem&quot;:null,&quot;selected&quot;:false}" d="M97.10778,348.66666h-8.79144c0.00834,0.17917 0.0125,0.35835 0.0125,0.53752c0,6.15416 -4.98321,11.14581 -11.13305,11.16249h-29.05341c-6.16234,0 -11.16221,-4.99582 -11.16221,-11.16249c0,-6.16667 4.99987,-11.16251 11.16221,-11.16251h3.38742c-0.53331,-1.575 -0.82498,-3.2625 -0.82498,-5.0125c0,-0.1875 0.00417,-0.37083 0.0125,-0.55417c0.27499,-8 6.55817,-14.47083 14.47879,-15.04582c0.37916,-0.02917 0.76248,-0.04168 1.1458,-0.04168h30.76587z"></path><path fill="#8f5025" data-paper-data="{&quot;guideItem&quot;:null,&quot;selected&quot;:false}" d="M30.7345,364.4c0,-5.27083 -4.27072,-9.54584 -9.53725,-9.55834v0h-5.53737c-5.27902,0 -9.55808,4.27918 -9.55808,9.55834c0,5.27917 4.27905,9.55834 9.55808,9.55834h5.53737v0c5.26653,-0.0125 9.53725,-4.2875 9.53725,-9.55834z"></path></g><g style="mix-blend-mode: normal" text-anchor="none" font-size="none" font-weight="none" font-family="none" stroke-dashoffset="0" stroke-dasharray="" stroke-miterlimit="10" stroke-linejoin="miter" stroke-linecap="butt" stroke-width="1" stroke="none" fill-rule="nonzero" fill="none" data-paper-data="{&quot;selected&quot;:false,&quot;guideItem&quot;:null}"><rect fill="#ab602c" data-paper-data="{&quot;guideItem&quot;:null,&quot;selected&quot;:false}" height="240" width="240" transform="scale(0.41665,0.41666)" y="480.0096" x="0"></rect><path fill="#713f1d" data-paper-data="{&quot;guideItem&quot;:null,&quot;selected&quot;:false}" d="M100.00014,200v100h-99.9974l1.77079,-1.76666h96.46416v-96.46668z"></path><path fill="#dc874f" data-paper-data="{&quot;guideItem&quot;:null,&quot;selected&quot;:false}" d="M100.00014,200l-1.76246,1.76666h-96.46416v96.46668l-1.77079,1.76666v-100z"></path></g><g style="mix-blend-mode: normal" text-anchor="none" font-size="none" font-weight="none" font-family="none" stroke-dashoffset="0" stroke-dasharray="" stroke-miterlimit="10" stroke-linejoin="miter" stroke-linecap="butt" stroke-width="1" stroke="none" fill-rule="nonzero" fill="none" data-paper-data="{&quot;selected&quot;:false,&quot;guideItem&quot;:null}"><path fill="#8f5025" data-paper-data="{&quot;guideItem&quot;:null,&quot;selected&quot;:false}" d="M65.19611,217.42918c-7.92062,0.575 -14.2038,7.04582 -14.47879,15.04582h-36.23239c-5.42903,0 -10.01224,-3.62084 -11.47887,-8.57916l-0.03749,0.05834c-0.56249,-1.20416 -1.42913,-2.04584 -2.32494,-2.62918v-19.55834h36.91988c0.62498,1.00833 1.10414,2.1125 1.4083,3.2875l0.16249,0.00833c0,0 0.00001,3.45417 6.22068,3.45417h8.28728v0.00417c5.54568,0.0125 10.19973,3.79167 11.55387,8.90834z"></path><path fill="#8f5025" data-paper-data="{&quot;guideItem&quot;:null,&quot;selected&quot;:false}" d="M97.10778,269.11666v29.11668h-23.97439c-0.23332,-0.54582 -0.42914,-1.11249 -0.57914,-1.69583l-0.16251,-0.00418c0,0 0,-3.45833 -6.22067,-3.45833h-8.29145c-6.604,-0.01667 -11.94552,-5.37083 -11.94552,-11.97917c0,-6.60418 5.34153,-11.95833 11.94552,-11.975v-0.00417z"></path><path fill="#945326" data-paper-data="{&quot;guideItem&quot;:null,&quot;selected&quot;:false}" d="M97.10778,248.66666h-8.79144c0.00834,0.17917 0.0125,0.35835 0.0125,0.53752c0,6.15416 -4.98321,11.14581 -11.13305,11.16249h-29.05341c-6.16234,0 -11.16221,-4.99582 -11.16221,-11.16249c0,-6.16667 4.99987,-11.16251 11.16221,-11.16251h3.38742c-0.53331,-1.575 -0.82498,-3.2625 -0.82498,-5.0125c0,-0.1875 0.00417,-0.37083 0.0125,-0.55417c0.27499,-8 6.55817,-14.47083 14.47879,-15.04582c0.37916,-0.02917 0.76248,-0.04168 1.1458,-0.04168h30.76587z"></path><path fill="#8f5025" data-paper-data="{&quot;guideItem&quot;:null,&quot;selected&quot;:false}" d="M30.7345,264.4c0,-5.27083 -4.27072,-9.54584 -9.53725,-9.55834v0h-5.53737c-5.27902,0 -9.55808,4.27918 -9.55808,9.55834c0,5.27917 4.27905,9.55834 9.55808,9.55834h5.53737v0c5.26653,-0.0125 9.53725,-4.2875 9.53725,-9.55834z"></path></g><g style="mix-blend-mode: normal" text-anchor="none" font-size="none" font-weight="none" font-family="none" stroke-dashoffset="0" stroke-dasharray="" stroke-miterlimit="10" stroke-linejoin="miter" stroke-linecap="butt" stroke-width="1" stroke="none" fill-rule="nonzero" fill="none" data-paper-data="{&quot;selected&quot;:false,&quot;guideItem&quot;:null}"><rect fill="#ab602c" data-paper-data="{&quot;guideItem&quot;:null,&quot;selected&quot;:false}" height="240" width="240" transform="scale(0.41665,0.41666)" y="0.00192" x="720.0288"></rect><path fill="#713f1d" data-paper-data="{&quot;guideItem&quot;:null,&quot;selected&quot;:false}" d="M400.00014,0v100h-99.9974l1.77079,-1.76666h96.46416v-96.46668z"></path><path fill="#dc874f" data-paper-data="{&quot;guideItem&quot;:null,&quot;selected&quot;:false}" d="M400.00014,0l-1.76246,1.76666h-96.46416v96.46668l-1.77079,1.76666v-100z"></path></g><g style="mix-blend-mode: normal" text-anchor="none" font-size="none" font-weight="none" font-family="none" stroke-dashoffset="0" stroke-dasharray="" stroke-miterlimit="10" stroke-linejoin="miter" stroke-linecap="butt" stroke-width="1" stroke="none" fill-rule="nonzero" fill="none" data-paper-data="{&quot;selected&quot;:false,&quot;guideItem&quot;:null}"><path fill="#8f5025" data-paper-data="{&quot;guideItem&quot;:null,&quot;selected&quot;:false}" d="M365.19611,17.42918c-7.92062,0.575 -14.2038,7.04582 -14.47879,15.04582h-36.23239c-5.42903,0 -10.01224,-3.62084 -11.47887,-8.57916l-0.03749,0.05834c-0.56249,-1.20416 -1.42913,-2.04584 -2.32494,-2.62918v-19.55834h36.91988c0.62498,1.00833 1.10414,2.1125 1.4083,3.2875l0.16249,0.00833c0,0 0.00001,3.45417 6.22068,3.45417h8.28728v0.00417c5.54568,0.0125 10.19973,3.79167 11.55387,8.90834z"></path><path fill="#8f5025" data-paper-data="{&quot;guideItem&quot;:null,&quot;selected&quot;:false}" d="M397.10778,69.11666v29.11668h-23.97439c-0.23332,-0.54582 -0.42914,-1.11249 -0.57914,-1.69583l-0.16251,-0.00418c0,0 0,-3.45833 -6.22067,-3.45833h-8.29145c-6.604,-0.01667 -11.94552,-5.37083 -11.94552,-11.97917c0,-6.60418 5.34153,-11.95833 11.94552,-11.975v-0.00417z"></path><path fill="#945326" data-paper-data="{&quot;guideItem&quot;:null,&quot;selected&quot;:false}" d="M397.10778,48.66666h-8.79144c0.00834,0.17917 0.0125,0.35835 0.0125,0.53752c0,6.15416 -4.98321,11.14581 -11.13305,11.16249h-29.05341c-6.16234,0 -11.16221,-4.99582 -11.16221,-11.16249c0,-6.16667 4.99987,-11.16251 11.16221,-11.16251h3.38742c-0.53331,-1.575 -0.82498,-3.2625 -0.82498,-5.0125c0,-0.1875 0.00417,-0.37083 0.0125,-0.55417c0.27499,-8 6.55817,-14.47083 14.47879,-15.04582c0.37916,-0.02917 0.76248,-0.04168 1.1458,-0.04168h30.76587z"></path><path fill="#8f5025" data-paper-data="{&quot;guideItem&quot;:null,&quot;selected&quot;:false}" d="M330.7345,64.4c0,-5.27083 -4.27072,-9.54584 -9.53725,-9.55834v0h-5.53737c-5.27902,0 -9.55808,4.27918 -9.55808,9.55834c0,5.27917 4.27905,9.55834 9.55808,9.55834h5.53737v0c5.26653,-0.0125 9.53725,-4.2875 9.53725,-9.55834z"></path></g><g style="mix-blend-mode: normal" text-anchor="none" font-size="none" font-weight="none" font-family="none" stroke-dashoffset="0" stroke-dasharray="" stroke-miterlimit="10" stroke-linejoin="miter" stroke-linecap="butt" stroke-width="1" stroke="none" fill-rule="nonzero" fill="none" data-paper-data="{&quot;selected&quot;:false,&quot;guideItem&quot;:null}"><rect fill="#ab602c" data-paper-data="{&quot;guideItem&quot;:null,&quot;selected&quot;:false}" height="240" width="240" transform="scale(0.41665,0.41666)" y="240.00576" x="720.0288"></rect><path fill="#713f1d" data-paper-data="{&quot;guideItem&quot;:null,&quot;selected&quot;:false}" d="M400.00014,100v100h-99.9974l1.77079,-1.76666h96.46416v-96.46668z"></path><path fill="#dc874f" data-paper-data="{&quot;guideItem&quot;:null,&quot;selected&quot;:false}" d="M400.00014,100l-1.76246,1.76666h-96.46416v96.46668l-1.77079,1.76666v-100z"></path></g><g style="mix-blend-mode: normal" text-anchor="none" font-size="none" font-weight="none" font-family="none" stroke-dashoffset="0" stroke-dasharray="" stroke-miterlimit="10" stroke-linejoin="miter" stroke-linecap="butt" stroke-width="1" stroke="none" fill-rule="nonzero" fill="none" data-paper-data="{&quot;selected&quot;:false,&quot;guideItem&quot;:null}"><path fill="#8f5025" data-paper-data="{&quot;guideItem&quot;:null,&quot;selected&quot;:false}" d="M365.19611,117.42918c-7.92062,0.575 -14.2038,7.04582 -14.47879,15.04582h-36.23239c-5.42903,0 -10.01224,-3.62084 -11.47887,-8.57916l-0.03749,0.05834c-0.56249,-1.20416 -1.42913,-2.04584 -2.32494,-2.62918v-19.55834h36.91988c0.62498,1.00833 1.10414,2.1125 1.4083,3.2875l0.16249,0.00833c0,0 0.00001,3.45417 6.22068,3.45417h8.28728v0.00417c5.54568,0.0125 10.19973,3.79167 11.55387,8.90834z"></path><path fill="#8f5025" data-paper-data="{&quot;guideItem&quot;:null,&quot;selected&quot;:false}" d="M397.10778,169.11666v29.11668h-23.97439c-0.23332,-0.54582 -0.42914,-1.11249 -0.57914,-1.69583l-0.16251,-0.00418c0,0 0,-3.45833 -6.22067,-3.45833h-8.29145c-6.604,-0.01667 -11.94552,-5.37083 -11.94552,-11.97917c0,-6.60418 5.34153,-11.95833 11.94552,-11.975v-0.00417z"></path><path fill="#945326" data-paper-data="{&quot;guideItem&quot;:null,&quot;selected&quot;:false}" d="M397.10778,148.66666h-8.79144c0.00834,0.17917 0.0125,0.35835 0.0125,0.53752c0,6.15416 -4.98321,11.14581 -11.13305,11.16249h-29.05341c-6.16234,0 -11.16221,-4.99582 -11.16221,-11.16249c0,-6.16667 4.99987,-11.16251 11.16221,-11.16251h3.38742c-0.53331,-1.575 -0.82498,-3.2625 -0.82498,-5.0125c0,-0.1875 0.00417,-0.37083 0.0125,-0.55417c0.27499,-8 6.55817,-14.47083 14.47879,-15.04582c0.37916,-0.02917 0.76248,-0.04168 1.1458,-0.04168h30.76587z"></path><path fill="#8f5025" data-paper-data="{&quot;guideItem&quot;:null,&quot;selected&quot;:false}" d="M330.7345,164.4c0,-5.27083 -4.27072,-9.54584 -9.53725,-9.55834v0h-5.53737c-5.27902,0 -9.55808,4.27918 -9.55808,9.55834c0,5.27917 4.27905,9.55834 9.55808,9.55834h5.53737v0c5.26653,-0.0125 9.53725,-4.2875 9.53725,-9.55834z"></path></g><g style="mix-blend-mode: normal" text-anchor="none" font-size="none" font-weight="none" font-family="none" stroke-dashoffset="0" stroke-dasharray="" stroke-miterlimit="10" stroke-linejoin="miter" stroke-linecap="butt" stroke-width="1" stroke="none" fill-rule="nonzero" fill="none" data-paper-data="{&quot;selected&quot;:false,&quot;guideItem&quot;:null}"><rect fill="#ab602c" data-paper-data="{&quot;guideItem&quot;:null,&quot;selected&quot;:false}" height="240" width="240" transform="scale(0.41665,0.41666)" y="720.01344" x="720.0288"></rect><path fill="#713f1d" data-paper-data="{&quot;guideItem&quot;:null,&quot;selected&quot;:false}" d="M400.00014,300v100h-99.9974l1.77079,-1.76666h96.46416v-96.46668z"></path><path fill="#dc874f" data-paper-data="{&quot;guideItem&quot;:null,&quot;selected&quot;:false}" d="M400.00014,300l-1.76246,1.76666h-96.46416v96.46668l-1.77079,1.76666v-100z"></path></g><g style="mix-blend-mode: normal" text-anchor="none" font-size="none" font-weight="none" font-family="none" stroke-dashoffset="0" stroke-dasharray="" stroke-miterlimit="10" stroke-linejoin="miter" stroke-linecap="butt" stroke-width="1" stroke="none" fill-rule="nonzero" fill="none" data-paper-data="{&quot;selected&quot;:false,&quot;guideItem&quot;:null}"><path fill="#8f5025" data-paper-data="{&quot;guideItem&quot;:null,&quot;selected&quot;:false}" d="M365.19611,317.42918c-7.92062,0.575 -14.2038,7.04582 -14.47879,15.04582h-36.23239c-5.42903,0 -10.01224,-3.62084 -11.47887,-8.57916l-0.03749,0.05834c-0.56249,-1.20416 -1.42913,-2.04584 -2.32494,-2.62918v-19.55834h36.91988c0.62498,1.00833 1.10414,2.1125 1.4083,3.2875l0.16249,0.00833c0,0 0.00001,3.45417 6.22068,3.45417h8.28728v0.00417c5.54568,0.0125 10.19973,3.79167 11.55387,8.90834z"></path><path fill="#8f5025" data-paper-data="{&quot;guideItem&quot;:null,&quot;selected&quot;:false}" d="M397.10778,369.11666v29.11668h-23.97439c-0.23332,-0.54582 -0.42914,-1.11249 -0.57914,-1.69583l-0.16251,-0.00418c0,0 0,-3.45833 -6.22067,-3.45833h-8.29145c-6.604,-0.01667 -11.94552,-5.37083 -11.94552,-11.97917c0,-6.60418 5.34153,-11.95833 11.94552,-11.975v-0.00417z"></path><path fill="#945326" data-paper-data="{&quot;guideItem&quot;:null,&quot;selected&quot;:false}" d="M397.10778,348.66666h-8.79144c0.00834,0.17917 0.0125,0.35835 0.0125,0.53752c0,6.15416 -4.98321,11.14581 -11.13305,11.16249h-29.05341c-6.16234,0 -11.16221,-4.99582 -11.16221,-11.16249c0,-6.16667 4.99987,-11.16251 11.16221,-11.16251h3.38742c-0.53331,-1.575 -0.82498,-3.2625 -0.82498,-5.0125c0,-0.1875 0.00417,-0.37083 0.0125,-0.55417c0.27499,-8 6.55817,-14.47083 14.47879,-15.04582c0.37916,-0.02917 0.76248,-0.04168 1.1458,-0.04168h30.76587z"></path><path fill="#8f5025" data-paper-data="{&quot;guideItem&quot;:null,&quot;selected&quot;:false}" d="M330.7345,364.4c0,-5.27083 -4.27072,-9.54584 -9.53725,-9.55834v0h-5.53737c-5.27902,0 -9.55808,4.27918 -9.55808,9.55834c0,5.27917 4.27905,9.55834 9.55808,9.55834h5.53737v0c5.26653,-0.0125 9.53725,-4.2875 9.53725,-9.55834z"></path></g><g style="mix-blend-mode: normal" text-anchor="none" font-size="none" font-weight="none" font-family="none" stroke-dashoffset="0" stroke-dasharray="" stroke-miterlimit="10" stroke-linejoin="miter" stroke-linecap="butt" stroke-width="1" stroke="none" fill-rule="nonzero" fill="none" data-paper-data="{&quot;selected&quot;:false,&quot;guideItem&quot;:null}"><rect fill="#ab602c" data-paper-data="{&quot;guideItem&quot;:null,&quot;selected&quot;:false}" height="240" width="240" transform="scale(0.41665,0.41666)" y="480.0096" x="720.0288"></rect><path fill="#713f1d" data-paper-data="{&quot;guideItem&quot;:null,&quot;selected&quot;:false}" d="M400.00014,200v100h-99.9974l1.77079,-1.76666h96.46416v-96.46668z"></path><path fill="#dc874f" data-paper-data="{&quot;guideItem&quot;:null,&quot;selected&quot;:false}" d="M400.00014,200l-1.76246,1.76666h-96.46416v96.46668l-1.77079,1.76666v-100z"></path></g><g style="mix-blend-mode: normal" text-anchor="none" font-size="none" font-weight="none" font-family="none" stroke-dashoffset="0" stroke-dasharray="" stroke-miterlimit="10" stroke-linejoin="miter" stroke-linecap="butt" stroke-width="1" stroke="none" fill-rule="nonzero" fill="none" data-paper-data="{&quot;selected&quot;:false,&quot;guideItem&quot;:null}"><path fill="#8f5025" data-paper-data="{&quot;guideItem&quot;:null,&quot;selected&quot;:false}" d="M365.19611,217.42918c-7.92062,0.575 -14.2038,7.04582 -14.47879,15.04582h-36.23239c-5.42903,0 -10.01224,-3.62084 -11.47887,-8.57916l-0.03749,0.05834c-0.56249,-1.20416 -1.42913,-2.04584 -2.32494,-2.62918v-19.55834h36.91988c0.62498,1.00833 1.10414,2.1125 1.4083,3.2875l0.16249,0.00833c0,0 0.00001,3.45417 6.22068,3.45417h8.28728v0.00417c5.54568,0.0125 10.19973,3.79167 11.55387,8.90834z"></path><path fill="#8f5025" data-paper-data="{&quot;guideItem&quot;:null,&quot;selected&quot;:false}" d="M397.10778,269.11666v29.11668h-23.97439c-0.23332,-0.54582 -0.42914,-1.11249 -0.57914,-1.69583l-0.16251,-0.00418c0,0 0,-3.45833 -6.22067,-3.45833h-8.29145c-6.604,-0.01667 -11.94552,-5.37083 -11.94552,-11.97917c0,-6.60418 5.34153,-11.95833 11.94552,-11.975v-0.00417z"></path><path fill="#945326" data-paper-data="{&quot;guideItem&quot;:null,&quot;selected&quot;:false}" d="M397.10778,248.66666h-8.79144c0.00834,0.17917 0.0125,0.35835 0.0125,0.53752c0,6.15416 -4.98321,11.14581 -11.13305,11.16249h-29.05341c-6.16234,0 -11.16221,-4.99582 -11.16221,-11.16249c0,-6.16667 4.99987,-11.16251 11.16221,-11.16251h3.38742c-0.53331,-1.575 -0.82498,-3.2625 -0.82498,-5.0125c0,-0.1875 0.00417,-0.37083 0.0125,-0.55417c0.27499,-8 6.55817,-14.47083 14.47879,-15.04582c0.37916,-0.02917 0.76248,-0.04168 1.1458,-0.04168h30.76587z"></path><path fill="#8f5025" data-paper-data="{&quot;guideItem&quot;:null,&quot;selected&quot;:false}" d="M330.7345,264.4c0,-5.27083 -4.27072,-9.54584 -9.53725,-9.55834v0h-5.53737c-5.27902,0 -9.55808,4.27918 -9.55808,9.55834c0,5.27917 4.27905,9.55834 9.55808,9.55834h5.53737v0c5.26653,-0.0125 9.53725,-4.2875 9.53725,-9.55834z"></path></g><g style="mix-blend-mode: normal" text-anchor="none" font-size="none" font-weight="none" font-family="none" stroke-dashoffset="0" stroke-dasharray="" stroke-miterlimit="10" stroke-linejoin="miter" stroke-linecap="butt" stroke-width="1" stroke="none" fill-rule="nonzero" fill="none" data-paper-data="{&quot;selected&quot;:false,&quot;guideItem&quot;:null}"><rect fill="#ab602c" data-paper-data="{&quot;guideItem&quot;:null,&quot;selected&quot;:false}" height="240" width="240" transform="scale(0.41665,0.41666)" y="0.00192" x="1440.0576"></rect><path fill="#713f1d" data-paper-data="{&quot;guideItem&quot;:null,&quot;selected&quot;:false}" d="M700.00014,0v100h-99.9974l1.77079,-1.76666h96.46416v-96.46668z"></path><path fill="#dc874f" data-paper-data="{&quot;guideItem&quot;:null,&quot;selected&quot;:false}" d="M700.00014,0l-1.76246,1.76666h-96.46416v96.46668l-1.77079,1.76666v-100z"></path></g><g style="mix-blend-mode: normal" text-anchor="none" font-size="none" font-weight="none" font-family="none" stroke-dashoffset="0" stroke-dasharray="" stroke-miterlimit="10" stroke-linejoin="miter" stroke-linecap="butt" stroke-width="1" stroke="none" fill-rule="nonzero" fill="none" data-paper-data="{&quot;selected&quot;:false,&quot;guideItem&quot;:null}"><path fill="#8f5025" data-paper-data="{&quot;guideItem&quot;:null,&quot;selected&quot;:false}" d="M665.19611,17.42918c-7.92062,0.575 -14.2038,7.04582 -14.47879,15.04582h-36.23239c-5.42903,0 -10.01224,-3.62084 -11.47887,-8.57916l-0.03749,0.05834c-0.56249,-1.20416 -1.42913,-2.04584 -2.32494,-2.62918v-19.55834h36.91988c0.62498,1.00833 1.10414,2.1125 1.4083,3.2875l0.16249,0.00833c0,0 0.00001,3.45417 6.22068,3.45417h8.28728v0.00417c5.54568,0.0125 10.19973,3.79167 11.55387,8.90834z"></path><path fill="#8f5025" data-paper-data="{&quot;guideItem&quot;:null,&quot;selected&quot;:false}" d="M697.10778,69.11666v29.11668h-23.97439c-0.23332,-0.54582 -0.42914,-1.11249 -0.57914,-1.69583l-0.16251,-0.00418c0,0 0,-3.45833 -6.22067,-3.45833h-8.29145c-6.604,-0.01667 -11.94552,-5.37083 -11.94552,-11.97917c0,-6.60418 5.34153,-11.95833 11.94552,-11.975v-0.00417z"></path><path fill="#945326" data-paper-data="{&quot;guideItem&quot;:null,&quot;selected&quot;:false}" d="M697.10778,48.66666h-8.79144c0.00834,0.17917 0.0125,0.35835 0.0125,0.53752c0,6.15416 -4.98321,11.14581 -11.13305,11.16249h-29.05341c-6.16234,0 -11.16221,-4.99582 -11.16221,-11.16249c0,-6.16667 4.99987,-11.16251 11.16221,-11.16251h3.38742c-0.53331,-1.575 -0.82498,-3.2625 -0.82498,-5.0125c0,-0.1875 0.00417,-0.37083 0.0125,-0.55417c0.27499,-8 6.55817,-14.47083 14.47879,-15.04582c0.37916,-0.02917 0.76248,-0.04168 1.1458,-0.04168h30.76587z"></path><path fill="#8f5025" data-paper-data="{&quot;guideItem&quot;:null,&quot;selected&quot;:false}" d="M630.7345,64.4c0,-5.27083 -4.27072,-9.54584 -9.53725,-9.55834v0h-5.53737c-5.27902,0 -9.55808,4.27918 -9.55808,9.55834c0,5.27917 4.27905,9.55834 9.55808,9.55834h5.53737v0c5.26653,-0.0125 9.53725,-4.2875 9.53725,-9.55834z"></path></g><g style="mix-blend-mode: normal" text-anchor="none" font-size="none" font-weight="none" font-family="none" stroke-dashoffset="0" stroke-dasharray="" stroke-miterlimit="10" stroke-linejoin="miter" stroke-linecap="butt" stroke-width="1" stroke="none" fill-rule="nonzero" fill="none" data-paper-data="{&quot;selected&quot;:false,&quot;guideItem&quot;:null}"><rect fill="#ab602c" data-paper-data="{&quot;guideItem&quot;:null,&quot;selected&quot;:false}" height="240" width="240" transform="scale(0.41665,0.41666)" y="240.00576" x="1440.0576"></rect><path fill="#713f1d" data-paper-data="{&quot;guideItem&quot;:null,&quot;selected&quot;:false}" d="M700.00014,100v100h-99.9974l1.77079,-1.76666h96.46416v-96.46668z"></path><path fill="#dc874f" data-paper-data="{&quot;guideItem&quot;:null,&quot;selected&quot;:false}" d="M700.00014,100l-1.76246,1.76666h-96.46416v96.46668l-1.77079,1.76666v-100z"></path></g><g style="mix-blend-mode: normal" text-anchor="none" font-size="none" font-weight="none" font-family="none" stroke-dashoffset="0" stroke-dasharray="" stroke-miterlimit="10" stroke-linejoin="miter" stroke-linecap="butt" stroke-width="1" stroke="none" fill-rule="nonzero" fill="none" data-paper-data="{&quot;selected&quot;:false,&quot;guideItem&quot;:null}"><path fill="#8f5025" data-paper-data="{&quot;guideItem&quot;:null,&quot;selected&quot;:false}" d="M665.19611,117.42918c-7.92062,0.575 -14.2038,7.04582 -14.47879,15.04582h-36.23239c-5.42903,0 -10.01224,-3.62084 -11.47887,-8.57916l-0.03749,0.05834c-0.56249,-1.20416 -1.42913,-2.04584 -2.32494,-2.62918v-19.55834h36.91988c0.62498,1.00833 1.10414,2.1125 1.4083,3.2875l0.16249,0.00833c0,0 0.00001,3.45417 6.22068,3.45417h8.28728v0.00417c5.54568,0.0125 10.19973,3.79167 11.55387,8.90834z"></path><path fill="#8f5025" data-paper-data="{&quot;guideItem&quot;:null,&quot;selected&quot;:false}" d="M697.10778,169.11666v29.11668h-23.97439c-0.23332,-0.54582 -0.42914,-1.11249 -0.57914,-1.69583l-0.16251,-0.00418c0,0 0,-3.45833 -6.22067,-3.45833h-8.29145c-6.604,-0.01667 -11.94552,-5.37083 -11.94552,-11.97917c0,-6.60418 5.34153,-11.95833 11.94552,-11.975v-0.00417z"></path><path fill="#945326" data-paper-data="{&quot;guideItem&quot;:null,&quot;selected&quot;:false}" d="M697.10778,148.66666h-8.79144c0.00834,0.17917 0.0125,0.35835 0.0125,0.53752c0,6.15416 -4.98321,11.14581 -11.13305,11.16249h-29.05341c-6.16234,0 -11.16221,-4.99582 -11.16221,-11.16249c0,-6.16667 4.99987,-11.16251 11.16221,-11.16251h3.38742c-0.53331,-1.575 -0.82498,-3.2625 -0.82498,-5.0125c0,-0.1875 0.00417,-0.37083 0.0125,-0.55417c0.27499,-8 6.55817,-14.47083 14.47879,-15.04582c0.37916,-0.02917 0.76248,-0.04168 1.1458,-0.04168h30.76587z"></path><path fill="#8f5025" data-paper-data="{&quot;guideItem&quot;:null,&quot;selected&quot;:false}" d="M630.7345,164.4c0,-5.27083 -4.27072,-9.54584 -9.53725,-9.55834v0h-5.53737c-5.27902,0 -9.55808,4.27918 -9.55808,9.55834c0,5.27917 4.27905,9.55834 9.55808,9.55834h5.53737v0c5.26653,-0.0125 9.53725,-4.2875 9.53725,-9.55834z"></path></g><g style="mix-blend-mode: normal" text-anchor="none" font-size="none" font-weight="none" font-family="none" stroke-dashoffset="0" stroke-dasharray="" stroke-miterlimit="10" stroke-linejoin="miter" stroke-linecap="butt" stroke-width="1" stroke="none" fill-rule="nonzero" fill="none" data-paper-data="{&quot;selected&quot;:false,&quot;guideItem&quot;:null}"><rect fill="#ab602c" data-paper-data="{&quot;guideItem&quot;:null,&quot;selected&quot;:false}" height="240" width="240" transform="scale(0.41665,0.41666)" y="720.01344" x="1440.0576"></rect><path fill="#713f1d" data-paper-data="{&quot;guideItem&quot;:null,&quot;selected&quot;:false}" d="M700.00014,300v100h-99.9974l1.77079,-1.76666h96.46416v-96.46668z"></path><path fill="#dc874f" data-paper-data="{&quot;guideItem&quot;:null,&quot;selected&quot;:false}" d="M700.00014,300l-1.76246,1.76666h-96.46416v96.46668l-1.77079,1.76666v-100z"></path></g><g style="mix-blend-mode: normal" text-anchor="none" font-size="none" font-weight="none" font-family="none" stroke-dashoffset="0" stroke-dasharray="" stroke-miterlimit="10" stroke-linejoin="miter" stroke-linecap="butt" stroke-width="1" stroke="none" fill-rule="nonzero" fill="none" data-paper-data="{&quot;selected&quot;:false,&quot;guideItem&quot;:null}"><path fill="#8f5025" data-paper-data="{&quot;guideItem&quot;:null,&quot;selected&quot;:false}" d="M665.19611,317.42918c-7.92062,0.575 -14.2038,7.04582 -14.47879,15.04582h-36.23239c-5.42903,0 -10.01224,-3.62084 -11.47887,-8.57916l-0.03749,0.05834c-0.56249,-1.20416 -1.42913,-2.04584 -2.32494,-2.62918v-19.55834h36.91988c0.62498,1.00833 1.10414,2.1125 1.4083,3.2875l0.16249,0.00833c0,0 0.00001,3.45417 6.22068,3.45417h8.28728v0.00417c5.54568,0.0125 10.19973,3.79167 11.55387,8.90834z"></path><path fill="#8f5025" data-paper-data="{&quot;guideItem&quot;:null,&quot;selected&quot;:false}" d="M697.10778,369.11666v29.11668h-23.97439c-0.23332,-0.54582 -0.42914,-1.11249 -0.57914,-1.69583l-0.16251,-0.00418c0,0 0,-3.45833 -6.22067,-3.45833h-8.29145c-6.604,-0.01667 -11.94552,-5.37083 -11.94552,-11.97917c0,-6.60418 5.34153,-11.95833 11.94552,-11.975v-0.00417z"></path><path fill="#945326" data-paper-data="{&quot;guideItem&quot;:null,&quot;selected&quot;:false}" d="M697.10778,348.66666h-8.79144c0.00834,0.17917 0.0125,0.35835 0.0125,0.53752c0,6.15416 -4.98321,11.14581 -11.13305,11.16249h-29.05341c-6.16234,0 -11.16221,-4.99582 -11.16221,-11.16249c0,-6.16667 4.99987,-11.16251 11.16221,-11.16251h3.38742c-0.53331,-1.575 -0.82498,-3.2625 -0.82498,-5.0125c0,-0.1875 0.00417,-0.37083 0.0125,-0.55417c0.27499,-8 6.55817,-14.47083 14.47879,-15.04582c0.37916,-0.02917 0.76248,-0.04168 1.1458,-0.04168h30.76587z"></path><path fill="#8f5025" data-paper-data="{&quot;guideItem&quot;:null,&quot;selected&quot;:false}" d="M630.7345,364.4c0,-5.27083 -4.27072,-9.54584 -9.53725,-9.55834v0h-5.53737c-5.27902,0 -9.55808,4.27918 -9.55808,9.55834c0,5.27917 4.27905,9.55834 9.55808,9.55834h5.53737v0c5.26653,-0.0125 9.53725,-4.2875 9.53725,-9.55834z"></path></g><g style="mix-blend-mode: normal" text-anchor="none" font-size="none" font-weight="none" font-family="none" stroke-dashoffset="0" stroke-dasharray="" stroke-miterlimit="10" stroke-linejoin="miter" stroke-linecap="butt" stroke-width="1" stroke="none" fill-rule="nonzero" fill="none" data-paper-data="{&quot;selected&quot;:false,&quot;guideItem&quot;:null}"><rect fill="#ab602c" data-paper-data="{&quot;guideItem&quot;:null,&quot;selected&quot;:false}" height="240" width="240" transform="scale(0.41665,0.41666)" y="480.0096" x="1440.0576"></rect><path fill="#713f1d" data-paper-data="{&quot;guideItem&quot;:null,&quot;selected&quot;:false}" d="M700.00014,200v100h-99.9974l1.77079,-1.76666h96.46416v-96.46668z"></path><path fill="#dc874f" data-paper-data="{&quot;guideItem&quot;:null,&quot;selected&quot;:false}" d="M700.00014,200l-1.76246,1.76666h-96.46416v96.46668l-1.77079,1.76666v-100z"></path></g><g style="mix-blend-mode: normal" text-anchor="none" font-size="none" font-weight="none" font-family="none" stroke-dashoffset="0" stroke-dasharray="" stroke-miterlimit="10" stroke-linejoin="miter" stroke-linecap="butt" stroke-width="1" stroke="none" fill-rule="nonzero" fill="none" data-paper-data="{&quot;selected&quot;:false,&quot;guideItem&quot;:null}"><path fill="#8f5025" data-paper-data="{&quot;guideItem&quot;:null,&quot;selected&quot;:false}" d="M665.19611,217.42918c-7.92062,0.575 -14.2038,7.04582 -14.47879,15.04582h-36.23239c-5.42903,0 -10.01224,-3.62084 -11.47887,-8.57916l-0.03749,0.05834c-0.56249,-1.20416 -1.42913,-2.04584 -2.32494,-2.62918v-19.55834h36.91988c0.62498,1.00833 1.10414,2.1125 1.4083,3.2875l0.16249,0.00833c0,0 0.00001,3.45417 6.22068,3.45417h8.28728v0.00417c5.54568,0.0125 10.19973,3.79167 11.55387,8.90834z"></path><path fill="#8f5025" data-paper-data="{&quot;guideItem&quot;:null,&quot;selected&quot;:false}" d="M697.10778,269.11666v29.11668h-23.97439c-0.23332,-0.54582 -0.42914,-1.11249 -0.57914,-1.69583l-0.16251,-0.00418c0,0 0,-3.45833 -6.22067,-3.45833h-8.29145c-6.604,-0.01667 -11.94552,-5.37083 -11.94552,-11.97917c0,-6.60418 5.34153,-11.95833 11.94552,-11.975v-0.00417z"></path><path fill="#945326" data-paper-data="{&quot;guideItem&quot;:null,&quot;selected&quot;:false}" d="M697.10778,248.66666h-8.79144c0.00834,0.17917 0.0125,0.35835 0.0125,0.53752c0,6.15416 -4.98321,11.14581 -11.13305,11.16249h-29.05341c-6.16234,0 -11.16221,-4.99582 -11.16221,-11.16249c0,-6.16667 4.99987,-11.16251 11.16221,-11.16251h3.38742c-0.53331,-1.575 -0.82498,-3.2625 -0.82498,-5.0125c0,-0.1875 0.00417,-0.37083 0.0125,-0.55417c0.27499,-8 6.55817,-14.47083 14.47879,-15.04582c0.37916,-0.02917 0.76248,-0.04168 1.1458,-0.04168h30.76587z"></path><path fill="#8f5025" data-paper-data="{&quot;guideItem&quot;:null,&quot;selected&quot;:false}" d="M630.7345,264.4c0,-5.27083 -4.27072,-9.54584 -9.53725,-9.55834v0h-5.53737c-5.27902,0 -9.55808,4.27918 -9.55808,9.55834c0,5.27917 4.27905,9.55834 9.55808,9.55834h5.53737v0c5.26653,-0.0125 9.53725,-4.2875 9.53725,-9.55834z"></path></g><g style="mix-blend-mode: normal" text-anchor="none" font-size="none" font-weight="none" font-family="none" stroke-dashoffset="0" stroke-dasharray="" stroke-miterlimit="10" stroke-linejoin="miter" stroke-linecap="butt" stroke-width="1" stroke="none" fill-rule="nonzero" fill="none" data-paper-data="{&quot;selected&quot;:false,&quot;guideItem&quot;:null}"><rect fill="#ab602c" data-paper-data="{&quot;guideItem&quot;:null,&quot;selected&quot;:false}" height="240" width="240" transform="scale(0.41665,0.41666)" y="720.01344" x="240.0096"></rect><path fill="#713f1d" data-paper-data="{&quot;guideItem&quot;:null,&quot;selected&quot;:false}" d="M200.00014,300v100h-99.9974l1.77079,-1.76666h96.46416v-96.46668z"></path><path fill="#dc874f" data-paper-data="{&quot;guideItem&quot;:null,&quot;selected&quot;:false}" d="M200.00014,300l-1.76246,1.76666h-96.46416v96.46668l-1.77079,1.76666v-100z"></path></g><g style="mix-blend-mode: normal" text-anchor="none" font-size="none" font-weight="none" font-family="none" stroke-dashoffset="0" stroke-dasharray="" stroke-miterlimit="10" stroke-linejoin="miter" stroke-linecap="butt" stroke-width="1" stroke="none" fill-rule="nonzero" fill="none" data-paper-data="{&quot;selected&quot;:false,&quot;guideItem&quot;:null}"><path fill="#8f5025" data-paper-data="{&quot;guideItem&quot;:null,&quot;selected&quot;:false}" d="M165.19611,317.42918c-7.92062,0.575 -14.2038,7.04582 -14.47879,15.04582h-36.23239c-5.42903,0 -10.01224,-3.62084 -11.47887,-8.57916l-0.03749,0.05834c-0.56249,-1.20416 -1.42913,-2.04584 -2.32494,-2.62918v-19.55834h36.91988c0.62498,1.00833 1.10414,2.1125 1.4083,3.2875l0.16249,0.00833c0,0 0.00001,3.45417 6.22068,3.45417h8.28728v0.00417c5.54568,0.0125 10.19973,3.79167 11.55387,8.90834z"></path><path fill="#8f5025" data-paper-data="{&quot;guideItem&quot;:null,&quot;selected&quot;:false}" d="M197.10778,369.11666v29.11668h-23.97439c-0.23332,-0.54582 -0.42914,-1.11249 -0.57914,-1.69583l-0.16251,-0.00418c0,0 0,-3.45833 -6.22067,-3.45833h-8.29145c-6.604,-0.01667 -11.94552,-5.37083 -11.94552,-11.97917c0,-6.60418 5.34153,-11.95833 11.94552,-11.975v-0.00417z"></path><path fill="#945326" data-paper-data="{&quot;guideItem&quot;:null,&quot;selected&quot;:false}" d="M197.10778,348.66666h-8.79144c0.00834,0.17917 0.0125,0.35835 0.0125,0.53752c0,6.15416 -4.98321,11.14581 -11.13305,11.16249h-29.05341c-6.16234,0 -11.16221,-4.99582 -11.16221,-11.16249c0,-6.16667 4.99987,-11.16251 11.16221,-11.16251h3.38742c-0.53331,-1.575 -0.82498,-3.2625 -0.82498,-5.0125c0,-0.1875 0.00417,-0.37083 0.0125,-0.55417c0.27499,-8 6.55817,-14.47083 14.47879,-15.04582c0.37916,-0.02917 0.76248,-0.04168 1.1458,-0.04168h30.76587z"></path><path fill="#8f5025" data-paper-data="{&quot;guideItem&quot;:null,&quot;selected&quot;:false}" d="M130.7345,364.4c0,-5.27083 -4.27072,-9.54584 -9.53725,-9.55834v0h-5.53737c-5.27902,0 -9.55808,4.27918 -9.55808,9.55834c0,5.27917 4.27905,9.55834 9.55808,9.55834h5.53737v0c5.26653,-0.0125 9.53725,-4.2875 9.53725,-9.55834z"></path></g><g style="mix-blend-mode: normal" text-anchor="none" font-size="none" font-weight="none" font-family="none" stroke-dashoffset="0" stroke-dasharray="" stroke-miterlimit="10" stroke-linejoin="miter" stroke-linecap="butt" stroke-width="1" stroke="none" fill-rule="nonzero" fill="none" data-paper-data="{&quot;selected&quot;:false,&quot;guideItem&quot;:null}"><rect fill="#ab602c" data-paper-data="{&quot;guideItem&quot;:null,&quot;selected&quot;:false}" height="240" width="240" transform="scale(0.41665,0.41666)" y="720.01344" x="480.0192"></rect><path fill="#713f1d" data-paper-data="{&quot;guideItem&quot;:null,&quot;selected&quot;:false}" d="M300.00014,300v100h-99.9974l1.77079,-1.76666h96.46416v-96.46668z"></path><path fill="#dc874f" data-paper-data="{&quot;guideItem&quot;:null,&quot;selected&quot;:false}" d="M300.00014,300l-1.76246,1.76666h-96.46416v96.46668l-1.77079,1.76666v-100z"></path></g><g style="mix-blend-mode: normal" text-anchor="none" font-size="none" font-weight="none" font-family="none" stroke-dashoffset="0" stroke-dasharray="" stroke-miterlimit="10" stroke-linejoin="miter" stroke-linecap="butt" stroke-width="1" stroke="none" fill-rule="nonzero" fill="none" data-paper-data="{&quot;selected&quot;:false,&quot;guideItem&quot;:null}"><path fill="#8f5025" data-paper-data="{&quot;guideItem&quot;:null,&quot;selected&quot;:false}" d="M265.19611,317.42918c-7.92062,0.575 -14.2038,7.04582 -14.47879,15.04582h-36.23239c-5.42903,0 -10.01224,-3.62084 -11.47887,-8.57916l-0.03749,0.05834c-0.56249,-1.20416 -1.42913,-2.04584 -2.32494,-2.62918v-19.55834h36.91988c0.62498,1.00833 1.10414,2.1125 1.4083,3.2875l0.16249,0.00833c0,0 0.00001,3.45417 6.22068,3.45417h8.28728v0.00417c5.54568,0.0125 10.19973,3.79167 11.55387,8.90834z"></path><path fill="#8f5025" data-paper-data="{&quot;guideItem&quot;:null,&quot;selected&quot;:false}" d="M297.10778,369.11666v29.11668h-23.97439c-0.23332,-0.54582 -0.42914,-1.11249 -0.57914,-1.69583l-0.16251,-0.00418c0,0 0,-3.45833 -6.22067,-3.45833h-8.29145c-6.604,-0.01667 -11.94552,-5.37083 -11.94552,-11.97917c0,-6.60418 5.34153,-11.95833 11.94552,-11.975v-0.00417z"></path><path fill="#945326" data-paper-data="{&quot;guideItem&quot;:null,&quot;selected&quot;:false}" d="M297.10778,348.66666h-8.79144c0.00834,0.17917 0.0125,0.35835 0.0125,0.53752c0,6.15416 -4.98321,11.14581 -11.13305,11.16249h-29.05341c-6.16234,0 -11.16221,-4.99582 -11.16221,-11.16249c0,-6.16667 4.99987,-11.16251 11.16221,-11.16251h3.38742c-0.53331,-1.575 -0.82498,-3.2625 -0.82498,-5.0125c0,-0.1875 0.00417,-0.37083 0.0125,-0.55417c0.27499,-8 6.55817,-14.47083 14.47879,-15.04582c0.37916,-0.02917 0.76248,-0.04168 1.1458,-0.04168h30.76587z"></path><path fill="#8f5025" data-paper-data="{&quot;guideItem&quot;:null,&quot;selected&quot;:false}" d="M230.7345,364.4c0,-5.27083 -4.27072,-9.54584 -9.53725,-9.55834v0h-5.53737c-5.27902,0 -9.55808,4.27918 -9.55808,9.55834c0,5.27917 4.27905,9.55834 9.55808,9.55834h5.53737v0c5.26653,-0.0125 9.53725,-4.2875 9.53725,-9.55834z"></path></g><g style="mix-blend-mode: normal" text-anchor="none" font-size="none" font-weight="none" font-family="none" stroke-dashoffset="0" stroke-dasharray="" stroke-miterlimit="10" stroke-linejoin="miter" stroke-linecap="butt" stroke-width="1" stroke="none" fill-rule="nonzero" fill="none" data-paper-data="{&quot;selected&quot;:false,&quot;guideItem&quot;:null}"><rect fill="#ab602c" data-paper-data="{&quot;guideItem&quot;:null,&quot;selected&quot;:false}" height="240" width="240" transform="scale(0.41665,0.41666)" y="0.00192" x="960.0384"></rect><path fill="#713f1d" data-paper-data="{&quot;guideItem&quot;:null,&quot;selected&quot;:false}" d="M500.00014,0v100h-99.9974l1.77079,-1.76666h96.46416v-96.46668z"></path><path fill="#dc874f" data-paper-data="{&quot;guideItem&quot;:null,&quot;selected&quot;:false}" d="M500.00014,0l-1.76246,1.76666h-96.46416v96.46668l-1.77079,1.76666v-100z"></path></g><g style="mix-blend-mode: normal" text-anchor="none" font-size="none" font-weight="none" font-family="none" stroke-dashoffset="0" stroke-dasharray="" stroke-miterlimit="10" stroke-linejoin="miter" stroke-linecap="butt" stroke-width="1" stroke="none" fill-rule="nonzero" fill="none" data-paper-data="{&quot;selected&quot;:false,&quot;guideItem&quot;:null}"><path fill="#8f5025" data-paper-data="{&quot;guideItem&quot;:null,&quot;selected&quot;:false}" d="M465.19611,17.42918c-7.92062,0.575 -14.2038,7.04582 -14.47879,15.04582h-36.23239c-5.42903,0 -10.01224,-3.62084 -11.47887,-8.57916l-0.03749,0.05834c-0.56249,-1.20416 -1.42913,-2.04584 -2.32494,-2.62918v-19.55834h36.91988c0.62498,1.00833 1.10414,2.1125 1.4083,3.2875l0.16249,0.00833c0,0 0.00001,3.45417 6.22068,3.45417h8.28728v0.00417c5.54568,0.0125 10.19973,3.79167 11.55387,8.90834z"></path><path fill="#8f5025" data-paper-data="{&quot;guideItem&quot;:null,&quot;selected&quot;:false}" d="M497.10778,69.11666v29.11668h-23.97439c-0.23332,-0.54582 -0.42914,-1.11249 -0.57914,-1.69583l-0.16251,-0.00418c0,0 0,-3.45833 -6.22067,-3.45833h-8.29145c-6.604,-0.01667 -11.94552,-5.37083 -11.94552,-11.97917c0,-6.60418 5.34153,-11.95833 11.94552,-11.975v-0.00417z"></path><path fill="#945326" data-paper-data="{&quot;guideItem&quot;:null,&quot;selected&quot;:false}" d="M497.10778,48.66666h-8.79144c0.00834,0.17917 0.0125,0.35835 0.0125,0.53752c0,6.15416 -4.98321,11.14581 -11.13305,11.16249h-29.05341c-6.16234,0 -11.16221,-4.99582 -11.16221,-11.16249c0,-6.16667 4.99987,-11.16251 11.16221,-11.16251h3.38742c-0.53331,-1.575 -0.82498,-3.2625 -0.82498,-5.0125c0,-0.1875 0.00417,-0.37083 0.0125,-0.55417c0.27499,-8 6.55817,-14.47083 14.47879,-15.04582c0.37916,-0.02917 0.76248,-0.04168 1.1458,-0.04168h30.76587z"></path><path fill="#8f5025" data-paper-data="{&quot;guideItem&quot;:null,&quot;selected&quot;:false}" d="M430.7345,64.4c0,-5.27083 -4.27072,-9.54584 -9.53725,-9.55834v0h-5.53737c-5.27902,0 -9.55808,4.27918 -9.55808,9.55834c0,5.27917 4.27905,9.55834 9.55808,9.55834h5.53737v0c5.26653,-0.0125 9.53725,-4.2875 9.53725,-9.55834z"></path></g><g style="mix-blend-mode: normal" text-anchor="none" font-size="none" font-weight="none" font-family="none" stroke-dashoffset="0" stroke-dasharray="" stroke-miterlimit="10" stroke-linejoin="miter" stroke-linecap="butt" stroke-width="1" stroke="none" fill-rule="nonzero" fill="none" data-paper-data="{&quot;selected&quot;:false,&quot;guideItem&quot;:null}"><rect fill="#ab602c" data-paper-data="{&quot;guideItem&quot;:null,&quot;selected&quot;:false}" height="240" width="240" transform="scale(0.41665,0.41666)" y="0.00192" x="1200.048"></rect><path fill="#713f1d" data-paper-data="{&quot;guideItem&quot;:null,&quot;selected&quot;:false}" d="M600.00014,0v100h-99.9974l1.77079,-1.76666h96.46416v-96.46668z"></path><path fill="#dc874f" data-paper-data="{&quot;guideItem&quot;:null,&quot;selected&quot;:false}" d="M600.00014,0l-1.76246,1.76666h-96.46416v96.46668l-1.77079,1.76666v-100z"></path></g><g style="mix-blend-mode: normal" text-anchor="none" font-size="none" font-weight="none" font-family="none" stroke-dashoffset="0" stroke-dasharray="" stroke-miterlimit="10" stroke-linejoin="miter" stroke-linecap="butt" stroke-width="1" stroke="none" fill-rule="nonzero" fill="none" data-paper-data="{&quot;selected&quot;:false,&quot;guideItem&quot;:null}"><path fill="#8f5025" data-paper-data="{&quot;guideItem&quot;:null,&quot;selected&quot;:false}" d="M565.19611,17.42918c-7.92062,0.575 -14.2038,7.04582 -14.47879,15.04582h-36.23239c-5.42903,0 -10.01224,-3.62084 -11.47887,-8.57916l-0.03749,0.05834c-0.56249,-1.20416 -1.42913,-2.04584 -2.32494,-2.62918v-19.55834h36.91988c0.62498,1.00833 1.10414,2.1125 1.4083,3.2875l0.16249,0.00833c0,0 0.00001,3.45417 6.22068,3.45417h8.28728v0.00417c5.54568,0.0125 10.19973,3.79167 11.55387,8.90834z"></path><path fill="#8f5025" data-paper-data="{&quot;guideItem&quot;:null,&quot;selected&quot;:false}" d="M597.10778,69.11666v29.11668h-23.97439c-0.23332,-0.54582 -0.42914,-1.11249 -0.57914,-1.69583l-0.16251,-0.00418c0,0 0,-3.45833 -6.22067,-3.45833h-8.29145c-6.604,-0.01667 -11.94552,-5.37083 -11.94552,-11.97917c0,-6.60418 5.34153,-11.95833 11.94552,-11.975v-0.00417z"></path><path fill="#945326" data-paper-data="{&quot;guideItem&quot;:null,&quot;selected&quot;:false}" d="M597.10778,48.66666h-8.79144c0.00834,0.17917 0.0125,0.35835 0.0125,0.53752c0,6.15416 -4.98321,11.14581 -11.13305,11.16249h-29.05341c-6.16234,0 -11.16221,-4.99582 -11.16221,-11.16249c0,-6.16667 4.99987,-11.16251 11.16221,-11.16251h3.38742c-0.53331,-1.575 -0.82498,-3.2625 -0.82498,-5.0125c0,-0.1875 0.00417,-0.37083 0.0125,-0.55417c0.27499,-8 6.55817,-14.47083 14.47879,-15.04582c0.37916,-0.02917 0.76248,-0.04168 1.1458,-0.04168h30.76587z"></path><path fill="#8f5025" data-paper-data="{&quot;guideItem&quot;:null,&quot;selected&quot;:false}" d="M530.7345,64.4c0,-5.27083 -4.27072,-9.54584 -9.53725,-9.55834v0h-5.53737c-5.27902,0 -9.55808,4.27918 -9.55808,9.55834c0,5.27917 4.27905,9.55834 9.55808,9.55834h5.53737v0c5.26653,-0.0125 9.53725,-4.2875 9.53725,-9.55834z"></path></g>
               </svg>