<svg viewBox="0 0 400 401" xml:space="preserve" xmlns:xlink="http://www.w3.org/1999/xlink" xmlns="http://www.w3.org/2000/svg">
                    <g style="mix-blend-mode: normal" text-anchor="none" font-size="none" font-weight="none" font-family="none" stroke-dashoffset="0" stroke-dasharray="" stroke-miterlimit="10" stroke-linejoin="miter" stroke-linecap="butt" stroke-width="1" stroke="none" fill-rule="nonzero" fill="none" data-paper-data="{&quot;selected&quot;:false,&quot;guideItem&quot;:null}"><rect fill="#ab602c" data-paper-data="{&quot;guideItem&quot;:null,&quot;selected&quot;:false}" height="240" width="240" transform="scale(0.41225,0.4125)" y="0" x="0.00002"></rect><path fill="#713f1d" data-paper-data="{&quot;guideItem&quot;:null,&quot;selected&quot;:false}" d="M98.94102,0v99h-98.94101l1.75208,-1.749h95.4451v-95.502z"></path><path fill="#dc874f" data-paper-data="{&quot;guideItem&quot;:null,&quot;selected&quot;:false}" d="M98.94102,0l-1.74384,1.749h-95.4451v95.502l-1.75208,1.749v-99z"></path></g><g style="mix-blend-mode: normal" text-anchor="none" font-size="none" font-weight="none" font-family="none" stroke-dashoffset="0" stroke-dasharray="" stroke-miterlimit="10" stroke-linejoin="miter" stroke-linecap="butt" stroke-width="1" stroke="none" fill-rule="nonzero" fill="none" data-paper-data="{&quot;selected&quot;:false,&quot;guideItem&quot;:null}"><path fill="#8f5025" data-paper-data="{&quot;guideItem&quot;:null,&quot;selected&quot;:false}" d="M65.62264,17.25488c-7.83695,0.56925 -14.05375,6.97537 -14.32583,14.89537h-35.84963c-5.37167,0 -9.90647,-3.58463 -11.3576,-8.49337l-0.0371,0.05775c-0.55654,-1.19212 -1.41403,-2.02538 -2.30038,-2.60288v-19.36275h36.52985c0.61838,0.99825 1.09247,2.09137 1.39342,3.25462l0.16078,0.00825c0,0 0,3.41962 6.15496,3.41962h8.19974v0.00413c5.4871,0.01238 10.09198,3.75375 11.43181,8.81925z"></path><path fill="#8f5025" data-paper-data="{&quot;guideItem&quot;:null,&quot;selected&quot;:false}" d="M97.19719,68.4255v28.8255h-23.72111c-0.23086,-0.54037 -0.42462,-1.10137 -0.57303,-1.67887l-0.16078,-0.00413c0,0 0,-3.42375 -6.15496,-3.42375h-8.20386c-6.53423,-0.0165 -11.81933,-5.31713 -11.81933,-11.85938c0,-6.53813 5.2851,-11.83875 11.81933,-11.85525v-0.00412z"></path><path fill="#945326" data-paper-data="{&quot;guideItem&quot;:null,&quot;selected&quot;:false}" d="M97.19719,48.18h-8.69856c0.00825,0.17738 0.01237,0.35475 0.01237,0.53213c0,6.09262 -4.93056,11.03437 -11.01543,11.05088h-28.74649c-6.09724,0 -11.04429,-4.94588 -11.04429,-11.05088c0,-6.105 4.94705,-11.05088 11.04429,-11.05088h3.35163c-0.52769,-1.55925 -0.81626,-3.22987 -0.81626,-4.96237c0,-0.18562 0.00412,-0.36712 0.01237,-0.54863c0.27209,-7.92 6.48888,-14.32613 14.32583,-14.89537c0.37515,-0.02888 0.75443,-0.04125 1.1337,-0.04125h30.44085z"></path><path fill="#8f5025" data-paper-data="{&quot;guideItem&quot;:null,&quot;selected&quot;:false}" d="M31.52509,63.756c0,-5.21812 -4.22561,-9.45037 -9.4365,-9.46275v0h-5.47886c-5.22326,0 -9.45711,4.23638 -9.45711,9.46275c0,5.22638 4.23385,9.46275 9.45711,9.46275h5.47886v0c5.21089,-0.01238 9.4365,-4.24462 9.4365,-9.46275z"></path></g><g style="mix-blend-mode: normal" text-anchor="none" font-size="none" font-weight="none" font-family="none" stroke-dashoffset="0" stroke-dasharray="" stroke-miterlimit="10" stroke-linejoin="miter" stroke-linecap="butt" stroke-width="1" stroke="none" fill-rule="nonzero" fill="none" data-paper-data="{&quot;selected&quot;:false,&quot;guideItem&quot;:null}"><rect fill="#ab602c" data-paper-data="{&quot;guideItem&quot;:null,&quot;selected&quot;:false}" height="240" width="240" transform="scale(0.41225,0.4125)" y="0" x="242.71188"></rect><path fill="#713f1d" data-paper-data="{&quot;guideItem&quot;:null,&quot;selected&quot;:false}" d="M199.00001,0v99h-98.94101l1.75208,-1.749h95.4451v-95.502z"></path><path fill="#dc874f" data-paper-data="{&quot;guideItem&quot;:null,&quot;selected&quot;:false}" d="M199.00001,0l-1.74384,1.749h-95.4451v95.502l-1.75208,1.749v-99z"></path></g><g style="mix-blend-mode: normal" text-anchor="none" font-size="none" font-weight="none" font-family="none" stroke-dashoffset="0" stroke-dasharray="" stroke-miterlimit="10" stroke-linejoin="miter" stroke-linecap="butt" stroke-width="1" stroke="none" fill-rule="nonzero" fill="none" data-paper-data="{&quot;selected&quot;:false,&quot;guideItem&quot;:null}"><path fill="#8f5025" data-paper-data="{&quot;guideItem&quot;:null,&quot;selected&quot;:false}" d="M164.56365,17.25488c-7.83695,0.56925 -14.05375,6.97537 -14.32583,14.89537h-35.84963c-5.37167,0 -9.90647,-3.58463 -11.3576,-8.49337l-0.0371,0.05775c-0.55654,-1.19212 -1.41403,-2.02538 -2.30038,-2.60288v-19.36275h36.52985c0.61838,0.99825 1.09247,2.09137 1.39342,3.25462l0.16078,0.00825c0,0 0,3.41962 6.15496,3.41962h8.19974v0.00413c5.4871,0.01238 10.09198,3.75375 11.43181,8.81925z"></path><path fill="#8f5025" data-paper-data="{&quot;guideItem&quot;:null,&quot;selected&quot;:false}" d="M196.1382,68.4255v28.8255h-23.72111c-0.23086,-0.54037 -0.42462,-1.10137 -0.57303,-1.67887l-0.16078,-0.00413c0,0 0,-3.42375 -6.15496,-3.42375h-8.20386c-6.53423,-0.0165 -11.81933,-5.31713 -11.81933,-11.85938c0,-6.53813 5.2851,-11.83875 11.81933,-11.85525v-0.00412z"></path><path fill="#945326" data-paper-data="{&quot;guideItem&quot;:null,&quot;selected&quot;:false}" d="M196.1382,48.18h-8.69856c0.00825,0.17738 0.01237,0.35475 0.01237,0.53213c0,6.09262 -4.93056,11.03437 -11.01543,11.05088h-28.74649c-6.09724,0 -11.04429,-4.94588 -11.04429,-11.05088c0,-6.105 4.94705,-11.05088 11.04429,-11.05088h3.35163c-0.52769,-1.55925 -0.81626,-3.22987 -0.81626,-4.96237c0,-0.18562 0.00412,-0.36712 0.01237,-0.54863c0.27209,-7.92 6.48888,-14.32613 14.32583,-14.89537c0.37515,-0.02888 0.75443,-0.04125 1.1337,-0.04125h30.44085z"></path><path fill="#8f5025" data-paper-data="{&quot;guideItem&quot;:null,&quot;selected&quot;:false}" d="M130.4661,63.756c0,-5.21812 -4.22561,-9.45037 -9.4365,-9.46275v0h-5.47886c-5.22326,0 -9.45711,4.23638 -9.45711,9.46275c0,5.22638 4.23385,9.46275 9.45711,9.46275h5.47886v0c5.21089,-0.01238 9.4365,-4.24462 9.4365,-9.46275z"></path></g><g style="mix-blend-mode: normal" text-anchor="none" font-size="none" font-weight="none" font-family="none" stroke-dashoffset="0" stroke-dasharray="" stroke-miterlimit="10" stroke-linejoin="miter" stroke-linecap="butt" stroke-width="1" stroke="none" fill-rule="nonzero" fill="none" data-paper-data="{&quot;selected&quot;:false,&quot;guideItem&quot;:null}"><rect fill="#ab602c" data-paper-data="{&quot;guideItem&quot;:null,&quot;selected&quot;:false}" height="240" width="240" transform="scale(0.41225,0.4125)" y="0" x="485.13757"></rect><path fill="#713f1d" data-paper-data="{&quot;guideItem&quot;:null,&quot;selected&quot;:false}" d="M298.94102,0v99h-98.94101l1.75208,-1.749h95.4451v-95.502z"></path><path fill="#dc874f" data-paper-data="{&quot;guideItem&quot;:null,&quot;selected&quot;:false}" d="M298.94102,0l-1.74384,1.749h-95.4451v95.502l-1.75208,1.749v-99z"></path></g><g style="mix-blend-mode: normal" text-anchor="none" font-size="none" font-weight="none" font-family="none" stroke-dashoffset="0" stroke-dasharray="" stroke-miterlimit="10" stroke-linejoin="miter" stroke-linecap="butt" stroke-width="1" stroke="none" fill-rule="nonzero" fill="none" data-paper-data="{&quot;selected&quot;:false,&quot;guideItem&quot;:null}"><path fill="#8f5025" data-paper-data="{&quot;guideItem&quot;:null,&quot;selected&quot;:false}" d="M265.62264,17.25488c-7.83695,0.56925 -14.05375,6.97537 -14.32583,14.89537h-35.84963c-5.37167,0 -9.90647,-3.58463 -11.3576,-8.49337l-0.0371,0.05775c-0.55654,-1.19212 -1.41403,-2.02538 -2.30038,-2.60288v-19.36275h36.52985c0.61838,0.99825 1.09247,2.09137 1.39342,3.25462l0.16078,0.00825c0,0 0,3.41962 6.15496,3.41962h8.19974v0.00413c5.4871,0.01238 10.09198,3.75375 11.43181,8.81925z"></path><path fill="#8f5025" data-paper-data="{&quot;guideItem&quot;:null,&quot;selected&quot;:false}" d="M297.19719,68.4255v28.8255h-23.72111c-0.23086,-0.54037 -0.42462,-1.10137 -0.57303,-1.67887l-0.16078,-0.00413c0,0 0,-3.42375 -6.15496,-3.42375h-8.20386c-6.53423,-0.0165 -11.81933,-5.31713 -11.81933,-11.85938c0,-6.53813 5.2851,-11.83875 11.81933,-11.85525v-0.00412z"></path><path fill="#945326" data-paper-data="{&quot;guideItem&quot;:null,&quot;selected&quot;:false}" d="M297.19719,48.18h-8.69856c0.00825,0.17738 0.01237,0.35475 0.01237,0.53213c0,6.09262 -4.93056,11.03437 -11.01543,11.05088h-28.74649c-6.09724,0 -11.04429,-4.94588 -11.04429,-11.05088c0,-6.105 4.94705,-11.05088 11.04429,-11.05088h3.35163c-0.52769,-1.55925 -0.81626,-3.22987 -0.81626,-4.96237c0,-0.18562 0.00412,-0.36712 0.01237,-0.54863c0.27209,-7.92 6.48888,-14.32613 14.32583,-14.89537c0.37515,-0.02888 0.75443,-0.04125 1.1337,-0.04125h30.44085z"></path><path fill="#8f5025" data-paper-data="{&quot;guideItem&quot;:null,&quot;selected&quot;:false}" d="M231.52509,63.756c0,-5.21812 -4.22561,-9.45037 -9.4365,-9.46275v0h-5.47886c-5.22326,0 -9.45711,4.23638 -9.45711,9.46275c0,5.22638 4.23385,9.46275 9.45711,9.46275h5.47886v0c5.21089,-0.01238 9.4365,-4.24462 9.4365,-9.46275z"></path></g><g style="mix-blend-mode: normal" text-anchor="none" font-size="none" font-weight="none" font-family="none" stroke-dashoffset="0" stroke-dasharray="" stroke-miterlimit="10" stroke-linejoin="miter" stroke-linecap="butt" stroke-width="1" stroke="none" fill-rule="nonzero" fill="none" data-paper-data="{&quot;selected&quot;:false,&quot;guideItem&quot;:null}"><rect fill="#ab602c" data-paper-data="{&quot;guideItem&quot;:null,&quot;selected&quot;:false}" height="240" width="240" transform="scale(0.41225,0.4125)" y="0" x="727.84944"></rect><path fill="#713f1d" data-paper-data="{&quot;guideItem&quot;:null,&quot;selected&quot;:false}" d="M399.00001,0v99h-98.94101l1.75208,-1.749h95.4451v-95.502z"></path><path fill="#dc874f" data-paper-data="{&quot;guideItem&quot;:null,&quot;selected&quot;:false}" d="M399.00001,0l-1.74384,1.749h-95.4451v95.502l-1.75208,1.749v-99z"></path></g><g style="mix-blend-mode: normal" text-anchor="none" font-size="none" font-weight="none" font-family="none" stroke-dashoffset="0" stroke-dasharray="" stroke-miterlimit="10" stroke-linejoin="miter" stroke-linecap="butt" stroke-width="1" stroke="none" fill-rule="nonzero" fill="none" data-paper-data="{&quot;selected&quot;:false,&quot;guideItem&quot;:null}"><path fill="#8f5025" data-paper-data="{&quot;guideItem&quot;:null,&quot;selected&quot;:false}" d="M364.56365,17.25488c-7.83695,0.56925 -14.05375,6.97537 -14.32583,14.89537h-35.84963c-5.37167,0 -9.90647,-3.58463 -11.3576,-8.49337l-0.0371,0.05775c-0.55654,-1.19212 -1.41403,-2.02538 -2.30038,-2.60288v-19.36275h36.52985c0.61838,0.99825 1.09247,2.09137 1.39342,3.25462l0.16078,0.00825c0,0 0,3.41962 6.15496,3.41962h8.19974v0.00413c5.4871,0.01238 10.09198,3.75375 11.43181,8.81925z"></path><path fill="#8f5025" data-paper-data="{&quot;guideItem&quot;:null,&quot;selected&quot;:false}" d="M396.1382,68.4255v28.8255h-23.72111c-0.23086,-0.54037 -0.42462,-1.10137 -0.57303,-1.67887l-0.16078,-0.00413c0,0 0,-3.42375 -6.15496,-3.42375h-8.20386c-6.53423,-0.0165 -11.81933,-5.31713 -11.81933,-11.85938c0,-6.53813 5.2851,-11.83875 11.81933,-11.85525v-0.00412z"></path><path fill="#945326" data-paper-data="{&quot;guideItem&quot;:null,&quot;selected&quot;:false}" d="M396.1382,48.18h-8.69856c0.00825,0.17738 0.01237,0.35475 0.01237,0.53213c0,6.09262 -4.93056,11.03437 -11.01543,11.05088h-28.74649c-6.09724,0 -11.04429,-4.94588 -11.04429,-11.05088c0,-6.105 4.94705,-11.05088 11.04429,-11.05088h3.35163c-0.52769,-1.55925 -0.81626,-3.22987 -0.81626,-4.96237c0,-0.18562 0.00412,-0.36712 0.01237,-0.54863c0.27209,-7.92 6.48888,-14.32613 14.32583,-14.89537c0.37515,-0.02888 0.75443,-0.04125 1.1337,-0.04125h30.44085z"></path><path fill="#8f5025" data-paper-data="{&quot;guideItem&quot;:null,&quot;selected&quot;:false}" d="M330.4661,63.756c0,-5.21812 -4.22561,-9.45037 -9.4365,-9.46275v0h-5.47886c-5.22326,0 -9.45711,4.23638 -9.45711,9.46275c0,5.22638 4.23385,9.46275 9.45711,9.46275h5.47886v0c5.21089,-0.01238 9.4365,-4.24462 9.4365,-9.46275z"></path></g><g style="mix-blend-mode: normal" text-anchor="none" font-size="none" font-weight="none" font-family="none" stroke-dashoffset="0" stroke-dasharray="" stroke-miterlimit="10" stroke-linejoin="miter" stroke-linecap="butt" stroke-width="1" stroke="none" fill-rule="nonzero" fill="none" data-paper-data="{&quot;selected&quot;:false,&quot;guideItem&quot;:null}"><rect fill="#ab602c" data-paper-data="{&quot;guideItem&quot;:null,&quot;selected&quot;:false}" height="240" width="240" transform="scale(0.41225,0.4125)" y="729.69697" x="0.00002"></rect><path fill="#713f1d" data-paper-data="{&quot;guideItem&quot;:null,&quot;selected&quot;:false}" d="M98.94102,301v99h-98.94101l1.75208,-1.749h95.4451v-95.502z"></path><path fill="#dc874f" data-paper-data="{&quot;guideItem&quot;:null,&quot;selected&quot;:false}" d="M98.94102,301l-1.74384,1.749h-95.4451v95.502l-1.75208,1.749v-99z"></path></g><g style="mix-blend-mode: normal" text-anchor="none" font-size="none" font-weight="none" font-family="none" stroke-dashoffset="0" stroke-dasharray="" stroke-miterlimit="10" stroke-linejoin="miter" stroke-linecap="butt" stroke-width="1" stroke="none" fill-rule="nonzero" fill="none" data-paper-data="{&quot;selected&quot;:false,&quot;guideItem&quot;:null}"><path fill="#8f5025" data-paper-data="{&quot;guideItem&quot;:null,&quot;selected&quot;:false}" d="M65.62264,318.25488c-7.83695,0.56925 -14.05375,6.97537 -14.32583,14.89537h-35.84963c-5.37167,0 -9.90647,-3.58463 -11.3576,-8.49337l-0.0371,0.05775c-0.55654,-1.19212 -1.41403,-2.02538 -2.30038,-2.60288v-19.36275h36.52985c0.61838,0.99825 1.09247,2.09137 1.39342,3.25462l0.16078,0.00825c0,0 0,3.41962 6.15496,3.41962h8.19974v0.00413c5.4871,0.01238 10.09198,3.75375 11.43181,8.81925z"></path><path fill="#8f5025" data-paper-data="{&quot;guideItem&quot;:null,&quot;selected&quot;:false}" d="M97.19719,369.4255v28.8255h-23.72111c-0.23086,-0.54037 -0.42462,-1.10137 -0.57303,-1.67887l-0.16078,-0.00413c0,0 0,-3.42375 -6.15496,-3.42375h-8.20386c-6.53423,-0.0165 -11.81933,-5.31713 -11.81933,-11.85938c0,-6.53813 5.2851,-11.83875 11.81933,-11.85525v-0.00412z"></path><path fill="#945326" data-paper-data="{&quot;guideItem&quot;:null,&quot;selected&quot;:false}" d="M97.19719,349.18h-8.69856c0.00825,0.17738 0.01237,0.35475 0.01237,0.53213c0,6.09262 -4.93056,11.03437 -11.01543,11.05088h-28.74649c-6.09724,0 -11.04429,-4.94588 -11.04429,-11.05088c0,-6.105 4.94705,-11.05088 11.04429,-11.05088h3.35163c-0.52769,-1.55925 -0.81626,-3.22987 -0.81626,-4.96237c0,-0.18562 0.00412,-0.36712 0.01237,-0.54863c0.27209,-7.92 6.48888,-14.32613 14.32583,-14.89537c0.37515,-0.02888 0.75443,-0.04125 1.1337,-0.04125h30.44085z"></path><path fill="#8f5025" data-paper-data="{&quot;guideItem&quot;:null,&quot;selected&quot;:false}" d="M31.52509,364.756c0,-5.21812 -4.22561,-9.45037 -9.4365,-9.46275v0h-5.47886c-5.22326,0 -9.45711,4.23638 -9.45711,9.46275c0,5.22638 4.23385,9.46275 9.45711,9.46275h5.47886v0c5.21089,-0.01238 9.4365,-4.24462 9.4365,-9.46275z"></path></g><g style="mix-blend-mode: normal" text-anchor="none" font-size="none" font-weight="none" font-family="none" stroke-dashoffset="0" stroke-dasharray="" stroke-miterlimit="10" stroke-linejoin="miter" stroke-linecap="butt" stroke-width="1" stroke="none" fill-rule="nonzero" fill="none" data-paper-data="{&quot;selected&quot;:false,&quot;guideItem&quot;:null}"><rect fill="#ab602c" data-paper-data="{&quot;guideItem&quot;:null,&quot;selected&quot;:false}" height="240" width="240" transform="scale(0.41225,0.4125)" y="729.69697" x="242.71188"></rect><path fill="#713f1d" data-paper-data="{&quot;guideItem&quot;:null,&quot;selected&quot;:false}" d="M199.00001,301v99h-98.94101l1.75208,-1.749h95.4451v-95.502z"></path><path fill="#dc874f" data-paper-data="{&quot;guideItem&quot;:null,&quot;selected&quot;:false}" d="M199.00001,301l-1.74384,1.749h-95.4451v95.502l-1.75208,1.749v-99z"></path></g><g style="mix-blend-mode: normal" text-anchor="none" font-size="none" font-weight="none" font-family="none" stroke-dashoffset="0" stroke-dasharray="" stroke-miterlimit="10" stroke-linejoin="miter" stroke-linecap="butt" stroke-width="1" stroke="none" fill-rule="nonzero" fill="none" data-paper-data="{&quot;selected&quot;:false,&quot;guideItem&quot;:null}"><path fill="#8f5025" data-paper-data="{&quot;guideItem&quot;:null,&quot;selected&quot;:false}" d="M164.56365,318.25488c-7.83695,0.56925 -14.05375,6.97537 -14.32583,14.89537h-35.84963c-5.37167,0 -9.90647,-3.58463 -11.3576,-8.49337l-0.0371,0.05775c-0.55654,-1.19212 -1.41403,-2.02538 -2.30038,-2.60288v-19.36275h36.52985c0.61838,0.99825 1.09247,2.09137 1.39342,3.25462l0.16078,0.00825c0,0 0,3.41962 6.15496,3.41962h8.19974v0.00413c5.4871,0.01238 10.09198,3.75375 11.43181,8.81925z"></path><path fill="#8f5025" data-paper-data="{&quot;guideItem&quot;:null,&quot;selected&quot;:false}" d="M196.1382,369.4255v28.8255h-23.72111c-0.23086,-0.54037 -0.42462,-1.10137 -0.57303,-1.67887l-0.16078,-0.00413c0,0 0,-3.42375 -6.15496,-3.42375h-8.20386c-6.53423,-0.0165 -11.81933,-5.31713 -11.81933,-11.85938c0,-6.53813 5.2851,-11.83875 11.81933,-11.85525v-0.00412z"></path><path fill="#945326" data-paper-data="{&quot;guideItem&quot;:null,&quot;selected&quot;:false}" d="M196.1382,349.18h-8.69856c0.00825,0.17738 0.01237,0.35475 0.01237,0.53213c0,6.09262 -4.93056,11.03437 -11.01543,11.05088h-28.74649c-6.09724,0 -11.04429,-4.94588 -11.04429,-11.05088c0,-6.105 4.94705,-11.05088 11.04429,-11.05088h3.35163c-0.52769,-1.55925 -0.81626,-3.22987 -0.81626,-4.96237c0,-0.18562 0.00412,-0.36712 0.01237,-0.54863c0.27209,-7.92 6.48888,-14.32613 14.32583,-14.89537c0.37515,-0.02888 0.75443,-0.04125 1.1337,-0.04125h30.44085z"></path><path fill="#8f5025" data-paper-data="{&quot;guideItem&quot;:null,&quot;selected&quot;:false}" d="M130.4661,364.756c0,-5.21812 -4.22561,-9.45037 -9.4365,-9.46275v0h-5.47886c-5.22326,0 -9.45711,4.23638 -9.45711,9.46275c0,5.22638 4.23385,9.46275 9.45711,9.46275h5.47886v0c5.21089,-0.01238 9.4365,-4.24462 9.4365,-9.46275z"></path></g><g style="mix-blend-mode: normal" text-anchor="none" font-size="none" font-weight="none" font-family="none" stroke-dashoffset="0" stroke-dasharray="" stroke-miterlimit="10" stroke-linejoin="miter" stroke-linecap="butt" stroke-width="1" stroke="none" fill-rule="nonzero" fill="none" data-paper-data="{&quot;selected&quot;:false,&quot;guideItem&quot;:null}"><rect fill="#ab602c" data-paper-data="{&quot;guideItem&quot;:null,&quot;selected&quot;:false}" height="240" width="240" transform="scale(0.41225,0.4125)" y="729.69697" x="485.13757"></rect><path fill="#713f1d" data-paper-data="{&quot;guideItem&quot;:null,&quot;selected&quot;:false}" d="M298.94102,301v99h-98.94101l1.75208,-1.749h95.4451v-95.502z"></path><path fill="#dc874f" data-paper-data="{&quot;guideItem&quot;:null,&quot;selected&quot;:false}" d="M298.94102,301l-1.74384,1.749h-95.4451v95.502l-1.75208,1.749v-99z"></path></g><g style="mix-blend-mode: normal" text-anchor="none" font-size="none" font-weight="none" font-family="none" stroke-dashoffset="0" stroke-dasharray="" stroke-miterlimit="10" stroke-linejoin="miter" stroke-linecap="butt" stroke-width="1" stroke="none" fill-rule="nonzero" fill="none" data-paper-data="{&quot;selected&quot;:false,&quot;guideItem&quot;:null}"><path fill="#8f5025" data-paper-data="{&quot;guideItem&quot;:null,&quot;selected&quot;:false}" d="M265.62264,318.25488c-7.83695,0.56925 -14.05375,6.97537 -14.32583,14.89537h-35.84963c-5.37167,0 -9.90647,-3.58463 -11.3576,-8.49337l-0.0371,0.05775c-0.55654,-1.19212 -1.41403,-2.02538 -2.30038,-2.60288v-19.36275h36.52985c0.61838,0.99825 1.09247,2.09137 1.39342,3.25462l0.16078,0.00825c0,0 0,3.41962 6.15496,3.41962h8.19974v0.00413c5.4871,0.01238 10.09198,3.75375 11.43181,8.81925z"></path><path fill="#8f5025" data-paper-data="{&quot;guideItem&quot;:null,&quot;selected&quot;:false}" d="M297.19719,369.4255v28.8255h-23.72111c-0.23086,-0.54037 -0.42462,-1.10137 -0.57303,-1.67887l-0.16078,-0.00413c0,0 0,-3.42375 -6.15496,-3.42375h-8.20386c-6.53423,-0.0165 -11.81933,-5.31713 -11.81933,-11.85938c0,-6.53813 5.2851,-11.83875 11.81933,-11.85525v-0.00412z"></path><path fill="#945326" data-paper-data="{&quot;guideItem&quot;:null,&quot;selected&quot;:false}" d="M297.19719,349.18h-8.69856c0.00825,0.17738 0.01237,0.35475 0.01237,0.53213c0,6.09262 -4.93056,11.03437 -11.01543,11.05088h-28.74649c-6.09724,0 -11.04429,-4.94588 -11.04429,-11.05088c0,-6.105 4.94705,-11.05088 11.04429,-11.05088h3.35163c-0.52769,-1.55925 -0.81626,-3.22987 -0.81626,-4.96237c0,-0.18562 0.00412,-0.36712 0.01237,-0.54863c0.27209,-7.92 6.48888,-14.32613 14.32583,-14.89537c0.37515,-0.02888 0.75443,-0.04125 1.1337,-0.04125h30.44085z"></path><path fill="#8f5025" data-paper-data="{&quot;guideItem&quot;:null,&quot;selected&quot;:false}" d="M231.52509,364.756c0,-5.21812 -4.22561,-9.45037 -9.4365,-9.46275v0h-5.47886c-5.22326,0 -9.45711,4.23638 -9.45711,9.46275c0,5.22638 4.23385,9.46275 9.45711,9.46275h5.47886v0c5.21089,-0.01238 9.4365,-4.24462 9.4365,-9.46275z"></path></g><g style="mix-blend-mode: normal" text-anchor="none" font-size="none" font-weight="none" font-family="none" stroke-dashoffset="0" stroke-dasharray="" stroke-miterlimit="10" stroke-linejoin="miter" stroke-linecap="butt" stroke-width="1" stroke="none" fill-rule="nonzero" fill="none" data-paper-data="{&quot;selected&quot;:false,&quot;guideItem&quot;:null}"><rect fill="#ab602c" data-paper-data="{&quot;guideItem&quot;:null,&quot;selected&quot;:false}" height="240" width="240" transform="scale(0.41225,0.4125)" y="729.69697" x="727.84944"></rect><path fill="#713f1d" data-paper-data="{&quot;guideItem&quot;:null,&quot;selected&quot;:false}" d="M399.00001,301v99h-98.94101l1.75208,-1.749h95.4451v-95.502z"></path><path fill="#dc874f" data-paper-data="{&quot;guideItem&quot;:null,&quot;selected&quot;:false}" d="M399.00001,301l-1.74384,1.749h-95.4451v95.502l-1.75208,1.749v-99z"></path></g><g style="mix-blend-mode: normal" text-anchor="none" font-size="none" font-weight="none" font-family="none" stroke-dashoffset="0" stroke-dasharray="" stroke-miterlimit="10" stroke-linejoin="miter" stroke-linecap="butt" stroke-width="1" stroke="none" fill-rule="nonzero" fill="none" data-paper-data="{&quot;selected&quot;:false,&quot;guideItem&quot;:null}"><path fill="#8f5025" data-paper-data="{&quot;guideItem&quot;:null,&quot;selected&quot;:false}" d="M364.56365,318.25488c-7.83695,0.56925 -14.05375,6.97537 -14.32583,14.89537h-35.84963c-5.37167,0 -9.90647,-3.58463 -11.3576,-8.49337l-0.0371,0.05775c-0.55654,-1.19212 -1.41403,-2.02538 -2.30038,-2.60288v-19.36275h36.52985c0.61838,0.99825 1.09247,2.09137 1.39342,3.25462l0.16078,0.00825c0,0 0,3.41962 6.15496,3.41962h8.19974v0.00413c5.4871,0.01238 10.09198,3.75375 11.43181,8.81925z"></path><path fill="#8f5025" data-paper-data="{&quot;guideItem&quot;:null,&quot;selected&quot;:false}" d="M396.1382,369.4255v28.8255h-23.72111c-0.23086,-0.54037 -0.42462,-1.10137 -0.57303,-1.67887l-0.16078,-0.00413c0,0 0,-3.42375 -6.15496,-3.42375h-8.20386c-6.53423,-0.0165 -11.81933,-5.31713 -11.81933,-11.85938c0,-6.53813 5.2851,-11.83875 11.81933,-11.85525v-0.00412z"></path><path fill="#945326" data-paper-data="{&quot;guideItem&quot;:null,&quot;selected&quot;:false}" d="M396.1382,349.18h-8.69856c0.00825,0.17738 0.01237,0.35475 0.01237,0.53213c0,6.09262 -4.93056,11.03437 -11.01543,11.05088h-28.74649c-6.09724,0 -11.04429,-4.94588 -11.04429,-11.05088c0,-6.105 4.94705,-11.05088 11.04429,-11.05088h3.35163c-0.52769,-1.55925 -0.81626,-3.22987 -0.81626,-4.96237c0,-0.18562 0.00412,-0.36712 0.01237,-0.54863c0.27209,-7.92 6.48888,-14.32613 14.32583,-14.89537c0.37515,-0.02888 0.75443,-0.04125 1.1337,-0.04125h30.44085z"></path><path fill="#8f5025" data-paper-data="{&quot;guideItem&quot;:null,&quot;selected&quot;:false}" d="M330.4661,364.756c0,-5.21812 -4.22561,-9.45037 -9.4365,-9.46275v0h-5.47886c-5.22326,0 -9.45711,4.23638 -9.45711,9.46275c0,5.22638 4.23385,9.46275 9.45711,9.46275h5.47886v0c5.21089,-0.01238 9.4365,-4.24462 9.4365,-9.46275z"></path></g><g style="mix-blend-mode: normal" text-anchor="none" font-size="none" font-weight="none" font-family="none" stroke-dashoffset="0" stroke-dasharray="" stroke-miterlimit="10" stroke-linejoin="miter" stroke-linecap="butt" stroke-width="1" stroke="none" fill-rule="nonzero" fill="none" data-paper-data="{&quot;selected&quot;:false,&quot;guideItem&quot;:null}"><rect fill="#ab602c" data-paper-data="{&quot;guideItem&quot;:null,&quot;selected&quot;:false}" height="240" width="240" transform="rotate(-0.54923) scale(0.41225,0.4125) skewX(0)" y="250.45535" x="724.2684"></rect><path fill="#713f1d" data-paper-data="{&quot;guideItem&quot;:null,&quot;selected&quot;:false}" d="M398.49477,99.49754l0.94899,98.99545l-98.93646,0.94842l1.73523,-1.76571l95.44071,-0.91491l-0.91546,-95.49761z"></path><path fill="#dc874f" data-paper-data="{&quot;guideItem&quot;:null,&quot;selected&quot;:false}" d="M398.49477,99.49754l-1.72699,1.76564l-95.44071,0.91491l0.91546,95.49761l-1.73523,1.76571l-0.94899,-98.99545z"></path></g><g style="mix-blend-mode: normal" text-anchor="none" font-size="none" font-weight="none" font-family="none" stroke-dashoffset="0" stroke-dasharray="" stroke-miterlimit="10" stroke-linejoin="miter" stroke-linecap="butt" stroke-width="1" stroke="none" fill-rule="nonzero" fill="none" data-paper-data="{&quot;selected&quot;:false,&quot;guideItem&quot;:null}"><path fill="#8f5025" data-paper-data="{&quot;guideItem&quot;:null,&quot;selected&quot;:false}" d="M366.33369,116.06147c-7.83113,0.64435 -13.98624,7.10976 -14.18239,15.03201l-35.84798,0.34364c-5.37142,0.05149 -9.94038,-3.4895 -11.43849,-8.38411l-0.03654,0.0581c-0.56794,-1.18673 -1.43338,-2.01173 -2.32522,-2.58071l-0.18561,-19.36186l36.52817,-0.35017c0.62792,0.99228 1.11247,2.0808 1.42455,3.24111l0.16085,0.00671c0,0 0.03278,3.41946 6.18746,3.36046l8.19936,-0.0786l0.00004,0.00413c5.48697,-0.04022 10.1275,3.65684 11.51582,8.70926z"></path><path fill="#8f5025" data-paper-data="{&quot;guideItem&quot;:null,&quot;selected&quot;:false}" d="M398.39729,166.92707l0.27631,28.82418l-23.72002,0.22738c-0.23603,-0.53813 -0.43516,-1.09725 -0.5891,-1.6733l-0.16081,-0.00259c0,0 -0.03282,-3.42359 -6.1875,-3.36459l-8.20348,0.07864c-6.53409,0.04614 -11.86976,-5.20359 -11.93247,-11.74554c-0.06267,-6.53783 5.17137,-11.88887 11.70515,-11.968l-0.00004,-0.00412z"></path><path fill="#945326" data-paper-data="{&quot;guideItem&quot;:null,&quot;selected&quot;:false}" d="M398.20322,146.6825l-8.69816,0.08338c0.00995,0.17729 0.01577,0.35462 0.01747,0.53199c0.0584,6.09234 -4.82456,11.08113 -10.90899,11.15596l-28.74517,0.27556c-6.09696,0.05845 -11.09119,-4.83979 -11.14971,-10.9445c-0.05852,-6.10472 4.84089,-11.09779 10.93785,-11.15624l3.35148,-0.03213c-0.54261,-1.55412 -0.84718,-3.2219 -0.86379,-4.95432c-0.00178,-0.18561 0.0006,-0.36714 0.00711,-0.54872c0.19616,-7.92224 6.35126,-14.38767 14.18239,-15.03201c0.37486,-0.03247 0.754,-0.04848 1.13325,-0.05212l30.43945,-0.2918z"></path><path fill="#8f5025" data-paper-data="{&quot;guideItem&quot;:null,&quot;selected&quot;:false}" d="M332.68345,162.8873c-0.05002,-5.21788 -4.316,-9.40943 -9.52677,-9.37186v0l-5.47861,0.05252c-5.22302,0.05007 -9.41607,4.32684 -9.36597,9.55297c0.0501,5.22614 4.32436,9.42173 9.54738,9.37166l5.47861,-0.05252v0c5.21053,-0.06233 9.39538,-4.33488 9.34536,-9.55277z"></path></g><g style="mix-blend-mode: normal" text-anchor="none" font-size="none" font-weight="none" font-family="none" stroke-dashoffset="0" stroke-dasharray="" stroke-miterlimit="10" stroke-linejoin="miter" stroke-linecap="butt" stroke-width="1" stroke="none" fill-rule="nonzero" fill="none" data-paper-data="{&quot;selected&quot;:false,&quot;guideItem&quot;:null}"><rect fill="#ab602c" data-paper-data="{&quot;guideItem&quot;:null,&quot;selected&quot;:false}" height="240" width="240" transform="rotate(0.0098) scale(0.41225,0.4125)" y="484.77135" x="727.88513"></rect><path fill="#713f1d" data-paper-data="{&quot;guideItem&quot;:null,&quot;selected&quot;:false}" d="M398.98051,200.03643l-0.01693,99l-98.94101,-0.01692l1.75238,-1.7487l95.4451,0.01633l0.01634,-95.502z"></path><path fill="#dc874f" data-paper-data="{&quot;guideItem&quot;:null,&quot;selected&quot;:false}" d="M398.98051,200.03643l-1.74414,1.7487l-95.4451,-0.01633l-0.01634,95.502l-1.75238,1.7487l0.01693,-99z"></path></g><g style="mix-blend-mode: normal" text-anchor="none" font-size="none" font-weight="none" font-family="none" stroke-dashoffset="0" stroke-dasharray="" stroke-miterlimit="10" stroke-linejoin="miter" stroke-linecap="butt" stroke-width="1" stroke="none" fill-rule="nonzero" fill="none" data-paper-data="{&quot;selected&quot;:false,&quot;guideItem&quot;:null}"><path fill="#8f5025" data-paper-data="{&quot;guideItem&quot;:null,&quot;selected&quot;:false}" d="M365.27696,215.98738c-7.8299,0.65913 -13.97279,7.13616 -14.15398,15.05876l-35.84727,0.41133c-5.37132,0.06163 -9.94695,-3.47073 -11.4543,-8.3625l-0.03643,0.05817c-0.57018,-1.18566 -1.43718,-2.00902 -2.33009,-2.57631l-0.22216,-19.36148l36.52745,-0.41914c0.62979,0.99109 1.11639,2.0787 1.43067,3.23842l0.16086,0.0064c0,0 0.03924,3.41939 6.19379,3.34877l8.1992,-0.09408l0.00005,0.00413c5.48688,-0.05058 10.13439,3.63771 11.53225,8.6875z"></path><path fill="#8f5025" data-paper-data="{&quot;guideItem&quot;:null,&quot;selected&quot;:false}" d="M397.43655,266.79235l0.33074,28.8236l-23.71955,0.27217c-0.23704,-0.53769 -0.43723,-1.09643 -0.59226,-1.67218l-0.16082,-0.00228c0,0 -0.03928,-3.42352 -6.19384,-3.3529l-8.20332,0.09413c-6.53399,0.05847 -11.87956,-5.18117 -11.95462,-11.72299c-0.07502,-6.5377 5.14892,-11.89861 11.68253,-11.99008l-0.00005,-0.00412z"></path><path fill="#945326" data-paper-data="{&quot;guideItem&quot;:null,&quot;selected&quot;:false}" d="M397.20426,246.54818l-8.69799,0.09981c0.01028,0.17727 0.01644,0.35458 0.01847,0.53195c0.06991,6.09222 -4.80363,11.09022 -10.88791,11.17654l-28.7446,0.32983c-6.09684,0.06996 -11.10031,-4.81883 -11.17036,-10.92343c-0.07005,-6.1046 4.81993,-11.10691 10.91677,-11.17687l3.35141,-0.03846c-0.54555,-1.55309 -0.85327,-3.22029 -0.87314,-4.95268c-0.00213,-0.18561 -0.00009,-0.36714 0.00607,-0.54874c0.1812,-7.9226 6.32408,-14.39964 14.15398,-15.05876c0.37479,-0.03318 0.75391,-0.0499 1.13315,-0.05426l30.43885,-0.34927z"></path><path fill="#8f5025" data-paper-data="{&quot;guideItem&quot;:null,&quot;selected&quot;:false}" d="M331.7152,262.87667c-0.05987,-5.21778 -4.33376,-9.40126 -9.54445,-9.35385v0l-5.4785,0.06286c-5.22292,0.05993 -9.40788,4.34461 -9.34791,9.57064c0.05997,5.22604 4.34214,9.41355 9.56506,9.35362l5.4785,-0.06286v0c5.2104,-0.07217 9.38718,-4.35261 9.32731,-9.5704z"></path></g>
               </svg>